<?xml version='1.0'?>
<!-- patch='inlet' time='80' index='80' -->
<VTKFile type='PolyData' version='0.1' byte_order='LittleEndian' header_type='UInt64'>
  <PolyData>
    <FieldData>
      <DataArray type='Float32' Name='TimeValue' NumberOfTuples='1' format='ascii'>
80
      </DataArray>
    </FieldData>
    <Piece NumberOfPoints='362' NumberOfPolys='180'>
      <Points>
        <DataArray type='Float32' Name='Points' NumberOfComponents='3' format='ascii'>
-0.9 0 -0.01 -0.9 0 0.01 -0.9 0.000438104 0.01
-0.9 0.000438104 -0.01 -0.9 0.000882333 0.01 -0.9 0.000882333 -0.01
-0.9 0.00133277 0.01 -0.9 0.00133277 -0.01 -0.9 0.00178951 0.01
-0.9 0.00178951 -0.01 -0.9 0.00225263 0.01 -0.9 0.00225263 -0.01
-0.9 0.00272222 0.01 -0.9 0.00272222 -0.01 -0.9 0.00319838 0.01
-0.9 0.00319838 -0.01 -0.9 0.00368119 0.01 -0.9 0.00368119 -0.01
-0.9 0.00417076 0.01 -0.9 0.00417076 -0.01 -0.9 0.00466716 0.01
-0.9 0.00466716 -0.01 -0.9 0.00517051 0.01 -0.9 0.00517051 -0.01
-0.9 0.00568089 0.01 -0.9 0.00568089 -0.01 -0.9 0.00619841 0.01
-0.9 0.00619841 -0.01 -0.9 0.00672316 0.01 -0.9 0.00672316 -0.01
-0.9 0.00725525 0.01 -0.9 0.00725525 -0.01 -0.9 0.00779477 0.01
-0.9 0.00779477 -0.01 -0.9 0.00834184 0.01 -0.9 0.00834184 -0.01
-0.9 0.00889655 0.01 -0.9 0.00889655 -0.01 -0.9 0.00945902 0.01
-0.9 0.00945902 -0.01 -0.9 0.0100294 0.01 -0.9 0.0100294 -0.01
-0.9 0.0106077 0.01 -0.9 0.0106077 -0.01 -0.9 0.011194 0.01
-0.9 0.011194 -0.01 -0.9 0.0117886 0.01 -0.9 0.0117886 -0.01
-0.9 0.0123915 0.01 -0.9 0.0123915 -0.01 -0.9 0.0130029 0.01
-0.9 0.0130029 -0.01 -0.9 0.0136227 0.01 -0.9 0.0136227 -0.01
-0.9 0.0142513 0.01 -0.9 0.0142513 -0.01 -0.9 0.0148886 0.01
-0.9 0.0148886 -0.01 -0.9 0.0155348 0.01 -0.9 0.0155348 -0.01
-0.9 0.0161901 0.01 -0.9 0.0161901 -0.01 -0.9 0.0168545 0.01
-0.9 0.0168545 -0.01 -0.9 0.0175282 0.01 -0.9 0.0175282 -0.01
-0.9 0.0182113 0.01 -0.9 0.0182113 -0.01 -0.9 0.018904 0.01
-0.9 0.018904 -0.01 -0.9 0.0196064 0.01 -0.9 0.0196064 -0.01
-0.9 0.0203186 0.01 -0.9 0.0203186 -0.01 -0.9 0.0210407 0.01
-0.9 0.0210407 -0.01 -0.9 0.0217729 0.01 -0.9 0.0217729 -0.01
-0.9 0.0225154 0.01 -0.9 0.0225154 -0.01 -0.9 0.0232683 0.01
-0.9 0.0232683 -0.01 -0.9 0.0240316 0.01 -0.9 0.0240316 -0.01
-0.9 0.0248057 0.01 -0.9 0.0248057 -0.01 -0.9 0.0255905 0.01
-0.9 0.0255905 -0.01 -0.9 0.0263864 0.01 -0.9 0.0263864 -0.01
-0.9 0.0271933 0.01 -0.9 0.0271933 -0.01 -0.9 0.0280116 0.01
-0.9 0.0280116 -0.01 -0.9 0.0288412 0.01 -0.9 0.0288412 -0.01
-0.9 0.0296825 0.01 -0.9 0.0296825 -0.01 -0.9 0.0305355 0.01
-0.9 0.0305355 -0.01 -0.9 0.0314005 0.01 -0.9 0.0314005 -0.01
-0.9 0.0322776 0.01 -0.9 0.0322776 -0.01 -0.9 0.0331669 0.01
-0.9 0.0331669 -0.01 -0.9 0.0340686 0.01 -0.9 0.0340686 -0.01
-0.9 0.034983 0.01 -0.9 0.034983 -0.01 -0.9 0.0359101 0.01
-0.9 0.0359101 -0.01 -0.9 0.0368502 0.01 -0.9 0.0368502 -0.01
-0.9 0.0378034 0.01 -0.9 0.0378034 -0.01 -0.9 0.03877 0.01
-0.9 0.03877 -0.01 -0.9 0.03975 0.01 -0.9 0.03975 -0.01
-0.9 0.0407438 0.01 -0.9 0.0407438 -0.01 -0.9 0.0417515 0.01
-0.9 0.0417515 -0.01 -0.9 0.0427732 0.01 -0.9 0.0427732 -0.01
-0.9 0.0438092 0.01 -0.9 0.0438092 -0.01 -0.9 0.0448597 0.01
-0.9 0.0448597 -0.01 -0.9 0.0459249 0.01 -0.9 0.0459249 -0.01
-0.9 0.047005 0.01 -0.9 0.047005 -0.01 -0.9 0.0481002 0.01
-0.9 0.0481002 -0.01 -0.9 0.0492107 0.01 -0.9 0.0492107 -0.01
-0.9 0.0503367 0.01 -0.9 0.0503367 -0.01 -0.9 0.0514785 0.01
-0.9 0.0514785 -0.01 -0.9 0.0526362 0.01 -0.9 0.0526362 -0.01
-0.9 0.0538101 0.01 -0.9 0.0538101 -0.01 -0.9 0.0550004 0.01
-0.9 0.0550004 -0.01 -0.9 0.0562074 0.01 -0.9 0.0562074 -0.01
-0.9 0.0574312 0.01 -0.9 0.0574312 -0.01 -0.9 0.0586721 0.01
-0.9 0.0586721 -0.01 -0.9 0.0599304 0.01 -0.9 0.0599304 -0.01
-0.9 0.0612063 0.01 -0.9 0.0612063 -0.01 -0.9 0.0625 0.01
-0.9 0.0625 -0.01 -0.9 0.0638118 0.01 -0.9 0.0638118 -0.01
-0.9 0.0651419 0.01 -0.9 0.0651419 -0.01 -0.9 0.0664906 0.01
-0.9 0.0664906 -0.01 -0.9 0.0678582 0.01 -0.9 0.0678582 -0.01
-0.9 0.0692449 0.01 -0.9 0.0692449 -0.01 -0.9 0.070651 0.01
-0.9 0.070651 -0.01 -0.9 0.0720767 0.01 -0.9 0.0720767 -0.01
-0.9 0.0735224 0.01 -0.9 0.0735224 -0.01 -0.9 0.0749882 0.01
-0.9 0.0749882 -0.01 -0.9 0.0764746 0.01 -0.9 0.0764746 -0.01
-0.9 0.0779817 0.01 -0.9 0.0779817 -0.01 -0.9 0.07951 0.01
-0.9 0.07951 -0.01 -0.9 0.0810595 0.01 -0.9 0.0810595 -0.01
-0.9 0.0826308 0.01 -0.9 0.0826308 -0.01 -0.9 0.084224 0.01
-0.9 0.084224 -0.01 -0.9 0.0858394 0.01 -0.9 0.0858394 -0.01
-0.9 0.0874775 0.01 -0.9 0.0874775 -0.01 -0.9 0.0891384 0.01
-0.9 0.0891384 -0.01 -0.9 0.0908226 0.01 -0.9 0.0908226 -0.01
-0.9 0.0925303 0.01 -0.9 0.0925303 -0.01 -0.9 0.0942619 0.01
-0.9 0.0942619 -0.01 -0.9 0.0960177 0.01 -0.9 0.0960177 -0.01
-0.9 0.097798 0.01 -0.9 0.097798 -0.01 -0.9 0.0996032 0.01
-0.9 0.0996032 -0.01 -0.9 0.101434 0.01 -0.9 0.101434 -0.01
-0.9 0.10329 0.01 -0.9 0.10329 -0.01 -0.9 0.105172 0.01
-0.9 0.105172 -0.01 -0.9 0.10708 0.01 -0.9 0.10708 -0.01
-0.9 0.109015 0.01 -0.9 0.109015 -0.01 -0.9 0.110977 0.01
-0.9 0.110977 -0.01 -0.9 0.112966 0.01 -0.9 0.112966 -0.01
-0.9 0.114984 0.01 -0.9 0.114984 -0.01 -0.9 0.117029 0.01
-0.9 0.117029 -0.01 -0.9 0.119103 0.01 -0.9 0.119103 -0.01
-0.9 0.121206 0.01 -0.9 0.121206 -0.01 -0.9 0.123339 0.01
-0.9 0.123339 -0.01 -0.9 0.125501 0.01 -0.9 0.125501 -0.01
-0.9 0.127693 0.01 -0.9 0.127693 -0.01 -0.9 0.129917 0.01
-0.9 0.129917 -0.01 -0.9 0.132171 0.01 -0.9 0.132171 -0.01
-0.9 0.134456 0.01 -0.9 0.134456 -0.01 -0.9 0.136774 0.01
-0.9 0.136774 -0.01 -0.9 0.139124 0.01 -0.9 0.139124 -0.01
-0.9 0.141507 0.01 -0.9 0.141507 -0.01 -0.9 0.143923 0.01
-0.9 0.143923 -0.01 -0.9 0.146373 0.01 -0.9 0.146373 -0.01
-0.9 0.148858 0.01 -0.9 0.148858 -0.01 -0.9 0.151377 0.01
-0.9 0.151377 -0.01 -0.9 0.153931 0.01 -0.9 0.153931 -0.01
-0.9 0.156521 0.01 -0.9 0.156521 -0.01 -0.9 0.159147 0.01
-0.9 0.159147 -0.01 -0.9 0.16181 0.01 -0.9 0.16181 -0.01
-0.9 0.16451 0.01 -0.9 0.16451 -0.01 -0.9 0.167247 0.01
-0.9 0.167247 -0.01 -0.9 0.170023 0.01 -0.9 0.170023 -0.01
-0.9 0.172838 0.01 -0.9 0.172838 -0.01 -0.9 0.175692 0.01
-0.9 0.175692 -0.01 -0.9 0.178587 0.01 -0.9 0.178587 -0.01
-0.9 0.181521 0.01 -0.9 0.181521 -0.01 -0.9 0.184497 0.01
-0.9 0.184497 -0.01 -0.9 0.187514 0.01 -0.9 0.187514 -0.01
-0.9 0.190573 0.01 -0.9 0.190573 -0.01 -0.9 0.193675 0.01
-0.9 0.193675 -0.01 -0.9 0.196821 0.01 -0.9 0.196821 -0.01
-0.9 0.20001 0.01 -0.9 0.20001 -0.01 -0.9 0.203244 0.01
-0.9 0.203244 -0.01 -0.9 0.206524 0.01 -0.9 0.206524 -0.01
-0.9 0.209849 0.01 -0.9 0.209849 -0.01 -0.9 0.21322 0.01
-0.9 0.21322 -0.01 -0.9 0.216639 0.01 -0.9 0.216639 -0.01
-0.9 0.220105 0.01 -0.9 0.220105 -0.01 -0.9 0.22362 0.01
-0.9 0.22362 -0.01 -0.9 0.227185 0.01 -0.9 0.227185 -0.01
-0.9 0.230798 0.01 -0.9 0.230798 -0.01 -0.9 0.234463 0.01
-0.9 0.234463 -0.01 -0.9 0.238179 0.01 -0.9 0.238179 -0.01
-0.9 0.241946 0.01 -0.9 0.241946 -0.01 -0.9 0.245766 0.01
-0.9 0.245766 -0.01 -0.9 0.24964 0.01 -0.9 0.24964 -0.01
-0.9 0.253568 0.01 -0.9 0.253568 -0.01 -0.9 0.257551 0.01
-0.9 0.257551 -0.01 -0.9 0.261589 0.01 -0.9 0.261589 -0.01
-0.9 0.265684 0.01 -0.9 0.265684 -0.01 -0.9 0.269836 0.01
-0.9 0.269836 -0.01 -0.9 0.274046 0.01 -0.9 0.274046 -0.01
-0.9 0.278315 0.01 -0.9 0.278315 -0.01 -0.9 0.282644 0.01
-0.9 0.282644 -0.01 -0.9 0.287033 0.01 -0.9 0.287033 -0.01
-0.9 0.291483 0.01 -0.9 0.291483 -0.01 -0.9 0.295996 0.01
-0.9 0.295996 -0.01 -0.9 0.300572 0.01 -0.9 0.300572 -0.01
-0.9 0.305212 0.01 -0.9 0.305212 -0.01 -0.9 0.309916 0.01
-0.9 0.309916 -0.01 -0.9 0.314687 0.01 -0.9 0.314687 -0.01
-0.9 0.319524 0.01 -0.9 0.319524 -0.01 -0.9 0.324429 0.01
-0.9 0.324429 -0.01 -0.9 0.329402 0.01 -0.9 0.329402 -0.01
-0.9 0.334445 0.01 -0.9 0.334445 -0.01 -0.9 0.339558 0.01
-0.9 0.339558 -0.01 -0.9 0.344743 0.01 -0.9 0.344743 -0.01
-0.9 0.35 0.01 -0.9 0.35 -0.01
        </DataArray>
      </Points>
      <Polys>
        <DataArray type='Int32' Name='connectivity' format='ascii'>
0 1 2 3 3 2 4 5 5
4 6 7 7 6 8 9 9 8
10 11 11 10 12 13 13 12 14
15 15 14 16 17 17 16 18 19
19 18 20 21 21 20 22 23 23
22 24 25 25 24 26 27 27 26
28 29 29 28 30 31 31 30 32
33 33 32 34 35 35 34 36 37
37 36 38 39 39 38 40 41 41
40 42 43 43 42 44 45 45 44
46 47 47 46 48 49 49 48 50
51 51 50 52 53 53 52 54 55
55 54 56 57 57 56 58 59 59
58 60 61 61 60 62 63 63 62
64 65 65 64 66 67 67 66 68
69 69 68 70 71 71 70 72 73
73 72 74 75 75 74 76 77 77
76 78 79 79 78 80 81 81 80
82 83 83 82 84 85 85 84 86
87 87 86 88 89 89 88 90 91
91 90 92 93 93 92 94 95 95
94 96 97 97 96 98 99 99 98
100 101 101 100 102 103 103 102 104
105 105 104 106 107 107 106 108 109
109 108 110 111 111 110 112 113 113
112 114 115 115 114 116 117 117 116
118 119 119 118 120 121 121 120 122
123 123 122 124 125 125 124 126 127
127 126 128 129 129 128 130 131 131
130 132 133 133 132 134 135 135 134
136 137 137 136 138 139 139 138 140
141 141 140 142 143 143 142 144 145
145 144 146 147 147 146 148 149 149
148 150 151 151 150 152 153 153 152
154 155 155 154 156 157 157 156 158
159 159 158 160 161 161 160 162 163
163 162 164 165 165 164 166 167 167
166 168 169 169 168 170 171 171 170
172 173 173 172 174 175 175 174 176
177 177 176 178 179 179 178 180 181
181 180 182 183 183 182 184 185 185
184 186 187 187 186 188 189 189 188
190 191 191 190 192 193 193 192 194
195 195 194 196 197 197 196 198 199
199 198 200 201 201 200 202 203 203
202 204 205 205 204 206 207 207 206
208 209 209 208 210 211 211 210 212
213 213 212 214 215 215 214 216 217
217 216 218 219 219 218 220 221 221
220 222 223 223 222 224 225 225 224
226 227 227 226 228 229 229 228 230
231 231 230 232 233 233 232 234 235
235 234 236 237 237 236 238 239 239
238 240 241 241 240 242 243 243 242
244 245 245 244 246 247 247 246 248
249 249 248 250 251 251 250 252 253
253 252 254 255 255 254 256 257 257
256 258 259 259 258 260 261 261 260
262 263 263 262 264 265 265 264 266
267 267 266 268 269 269 268 270 271
271 270 272 273 273 272 274 275 275
274 276 277 277 276 278 279 279 278
280 281 281 280 282 283 283 282 284
285 285 284 286 287 287 286 288 289
289 288 290 291 291 290 292 293 293
292 294 295 295 294 296 297 297 296
298 299 299 298 300 301 301 300 302
303 303 302 304 305 305 304 306 307
307 306 308 309 309 308 310 311 311
310 312 313 313 312 314 315 315 314
316 317 317 316 318 319 319 318 320
321 321 320 322 323 323 322 324 325
325 324 326 327 327 326 328 329 329
328 330 331 331 330 332 333 333 332
334 335 335 334 336 337 337 336 338
339 339 338 340 341 341 340 342 343
343 342 344 345 345 344 346 347 347
346 348 349 349 348 350 351 351 350
352 353 353 352 354 355 355 354 356
357 357 356 358 359 359 358 360 361
        </DataArray>
        <DataArray type='Int32' Name='offsets' format='ascii'>
4 8 12 16 20 24 28 32 36
40 44 48 52 56 60 64 68 72
76 80 84 88 92 96 100 104 108
112 116 120 124 128 132 136 140 144
148 152 156 160 164 168 172 176 180
184 188 192 196 200 204 208 212 216
220 224 228 232 236 240 244 248 252
256 260 264 268 272 276 280 284 288
292 296 300 304 308 312 316 320 324
328 332 336 340 344 348 352 356 360
364 368 372 376 380 384 388 392 396
400 404 408 412 416 420 424 428 432
436 440 444 448 452 456 460 464 468
472 476 480 484 488 492 496 500 504
508 512 516 520 524 528 532 536 540
544 548 552 556 560 564 568 572 576
580 584 588 592 596 600 604 608 612
616 620 624 628 632 636 640 644 648
652 656 660 664 668 672 676 680 684
688 692 696 700 704 708 712 716 720
        </DataArray>
      </Polys>
      <CellData>
        <DataArray type='Float32' Name='k' format='ascii'>
0.179574 0.179574 0.179574 0.179574 0.179574 0.179574 0.179574 0.179574 0.179574
0.179574 0.179574 0.179574 0.179574 0.179574 0.179574 0.179574 0.179574 0.179574
0.179574 0.179574 0.179574 0.179574 0.179574 0.179574 0.179574 0.179574 0.179574
0.179574 0.179574 0.179574 0.179574 0.179574 0.179574 0.179574 0.179574 0.179574
0.179574 0.179574 0.179574 0.179574 0.179574 0.179574 0.179574 0.179574 0.179574
0.179574 0.179574 0.179574 0.179574 0.179574 0.179574 0.179574 0.179574 0.179574
0.179574 0.179574 0.179574 0.179574 0.179574 0.179574 0.179574 0.179574 0.179574
0.179574 0.179574 0.179574 0.179574 0.179574 0.179574 0.179574 0.179574 0.179574
0.179574 0.179574 0.179574 0.179574 0.179574 0.179574 0.179574 0.179574 0.179574
0.179574 0.179574 0.179574 0.179574 0.179574 0.179574 0.179574 0.179574 0.179574
0.179574 0.179574 0.179574 0.179574 0.179574 0.179574 0.179574 0.179574 0.179574
0.179574 0.179574 0.179574 0.179574 0.179574 0.179574 0.179574 0.179574 0.179574
0.179574 0.179574 0.179574 0.179574 0.179574 0.179574 0.179574 0.179574 0.179574
0.179574 0.179574 0.179574 0.179574 0.179574 0.179574 0.179574 0.179574 0.179574
0.179574 0.179574 0.179574 0.179574 0.179574 0.179574 0.179574 0.179574 0.179574
0.179574 0.179574 0.179574 0.179574 0.179574 0.179574 0.179574 0.179574 0.179574
0.179574 0.179574 0.179574 0.179574 0.179574 0.179574 0.179574 0.179574 0.179574
0.179574 0.179574 0.179574 0.179574 0.179574 0.179574 0.179574 0.179574 0.179574
0.179574 0.179574 0.179574 0.179574 0.179574 0.179574 0.179574 0.179574 0.179574
0.179574 0.179574 0.179574 0.179574 0.179574 0.179574 0.179574 0.179574 0.179574
        </DataArray>
        <DataArray type='Float32' Name='nut' format='ascii'>
5.90661e-05 0.000176225 0.000568272 0.000568272 0.000568272 0.000568272 0.000568272 0.000568272 0.000568272
0.000568272 0.000568272 0.000568272 0.000568272 0.000568272 0.000568272 0.000568272 0.000568272 0.000568272
0.000568272 0.000568272 0.000568272 0.000568272 0.000568272 0.000568272 0.000568272 0.000568272 0.000568272
0.000568272 0.000568272 0.000568272 0.000568272 0.000568272 0.000568272 0.000568272 0.000568272 0.000568272
0.000568272 0.000568272 0.000568272 0.000568272 0.000568272 0.000568272 0.000568272 0.000568272 0.000568272
0.000568272 0.000568272 0.000568272 0.000568272 0.000568272 0.000568272 0.000568272 0.000568272 0.000568272
0.000568272 0.000568272 0.000568272 0.000568272 0.000568272 0.000568272 0.000568272 0.000568272 0.000568272
0.000568272 0.000568272 0.000568272 0.000568272 0.000568272 0.000568272 0.000568272 0.000568272 0.000568272
0.000568272 0.000568272 0.000568272 0.000568272 0.000568272 0.000568272 0.000568272 0.000568272 0.000568272
0.000568272 0.000568272 0.000568272 0.000568272 0.000568272 0.000568272 0.000568272 0.000568272 0.000568272
0.000568272 0.000568272 0.000568272 0.000568272 0.000568272 0.000568272 0.000568272 0.000568272 0.000568272
0.000568272 0.000568272 0.000568272 0.000568272 0.000568272 0.000568272 0.000568272 0.000568272 0.000568272
0.000568272 0.000568272 0.000568272 0.000568272 0.000568272 0.000568272 0.000568272 0.000568272 0.000568272
0.000568272 0.000568272 0.000568272 0.000568272 0.000568272 0.000568272 0.000568272 0.000568272 0.000568272
0.000568272 0.000568272 0.000568272 0.000568272 0.000568272 0.000568272 0.000568272 0.000568272 0.000568272
0.000568272 0.000568272 0.000568272 0.000568272 0.000568272 0.000568272 0.000568272 0.000568272 0.000568272
0.000568272 0.000568272 0.000568272 0.000568272 0.000568272 0.000568272 0.000568272 0.000568272 0.000568272
0.000568272 0.000568272 0.000568272 0.000568272 0.000568272 0.000568272 0.000568272 0.000568272 0.000568272
0.000568272 0.000568272 0.000568272 0.000568272 0.000568272 0.000568272 0.000568272 0.000568272 0.000568272
0.000568272 0.000568272 0.000568272 0.000568272 0.000568272 0.000568272 0.000568272 0.000568272 0.000568272
        </DataArray>
        <DataArray type='Float32' Name='omega' format='ascii'>
316 316 316 316 316 316 316 316 316
316 316 316 316 316 316 316 316 316
316 316 316 316 316 316 316 316 316
316 316 316 316 316 316 316 316 316
316 316 316 316 316 316 316 316 316
316 316 316 316 316 316 316 316 316
316 316 316 316 316 316 316 316 316
316 316 316 316 316 316 316 316 316
316 316 316 316 316 316 316 316 316
316 316 316 316 316 316 316 316 316
316 316 316 316 316 316 316 316 316
316 316 316 316 316 316 316 316 316
316 316 316 316 316 316 316 316 316
316 316 316 316 316 316 316 316 316
316 316 316 316 316 316 316 316 316
316 316 316 316 316 316 316 316 316
316 316 316 316 316 316 316 316 316
316 316 316 316 316 316 316 316 316
316 316 316 316 316 316 316 316 316
316 316 316 316 316 316 316 316 316
        </DataArray>
        <DataArray type='Float32' Name='p' format='ascii'>
28.636 27.0443 25.9748 25.2668 24.6601 24.1798 23.7861 23.4531 23.1639
22.9073 22.6756 22.4634 22.2668 22.083 21.9099 21.7457 21.5893 21.4396
21.2957 21.1571 21.0232 20.8934 20.7675 20.6451 20.5259 20.4097 20.2963
20.1855 20.0771 19.971 19.867 19.7651 19.6652 19.5672 19.4709 19.3763
19.2834 19.192 19.1022 19.0138 18.9269 18.8413 18.7571 18.6741 18.5924
18.5119 18.4326 18.3545 18.2775 18.2016 18.1267 18.0529 17.9801 17.9083
17.8374 17.7675 17.6986 17.6305 17.5633 17.497 17.4316 17.367 17.3032
17.2402 17.178 17.1165 17.0558 16.9959 16.9367 16.8782 16.8204 16.7633
16.7068 16.651 16.5959 16.5414 16.4875 16.4343 16.3817 16.3296 16.2782
16.2273 16.177 16.1272 16.078 16.0293 15.9812 15.9336 15.8865 15.8399
15.7938 15.7482 15.7031 15.6584 15.6142 15.5705 15.5273 15.4845 15.4421
15.4002 15.3587 15.3177 15.277 15.2368 15.197 15.1576 15.1186 15.08
15.0418 15.004 14.9666 14.9296 14.893 14.8567 14.8208 14.7853 14.7501
14.7154 14.681 14.6469 14.6133 14.5799 14.547 14.5144 14.4822 14.4503
14.4188 14.3877 14.3569 14.3265 14.2964 14.2667 14.2374 14.2085 14.1799
14.1517 14.1239 14.0964 14.0694 14.0427 14.0164 13.9905 13.965 13.94
13.9153 13.8911 13.8673 13.8439 13.821 13.7985 13.7764 13.7549 13.7338
13.7132 13.6932 13.6736 13.6546 13.6361 13.6181 13.6007 13.584 13.5678
13.5522 13.5373 13.523 13.5094 13.4965 13.4843 13.4729 13.4623 13.4524
13.4434 13.4352 13.428 13.4216 13.4162 13.4118 13.4085 13.4062 13.405
        </DataArray>
        <DataArray type='Float32' Name='U' NumberOfComponents='3' format='ascii'>
34.6 0 0 34.6 0 0 34.6 0 0
34.6 0 0 34.6 0 0 34.6 0 0
34.6 0 0 34.6 0 0 34.6 0 0
34.6 0 0 34.6 0 0 34.6 0 0
34.6 0 0 34.6 0 0 34.6 0 0
34.6 0 0 34.6 0 0 34.6 0 0
34.6 0 0 34.6 0 0 34.6 0 0
34.6 0 0 34.6 0 0 34.6 0 0
34.6 0 0 34.6 0 0 34.6 0 0
34.6 0 0 34.6 0 0 34.6 0 0
34.6 0 0 34.6 0 0 34.6 0 0
34.6 0 0 34.6 0 0 34.6 0 0
34.6 0 0 34.6 0 0 34.6 0 0
34.6 0 0 34.6 0 0 34.6 0 0
34.6 0 0 34.6 0 0 34.6 0 0
34.6 0 0 34.6 0 0 34.6 0 0
34.6 0 0 34.6 0 0 34.6 0 0
34.6 0 0 34.6 0 0 34.6 0 0
34.6 0 0 34.6 0 0 34.6 0 0
34.6 0 0 34.6 0 0 34.6 0 0
34.6 0 0 34.6 0 0 34.6 0 0
34.6 0 0 34.6 0 0 34.6 0 0
34.6 0 0 34.6 0 0 34.6 0 0
34.6 0 0 34.6 0 0 34.6 0 0
34.6 0 0 34.6 0 0 34.6 0 0
34.6 0 0 34.6 0 0 34.6 0 0
34.6 0 0 34.6 0 0 34.6 0 0
34.6 0 0 34.6 0 0 34.6 0 0
34.6 0 0 34.6 0 0 34.6 0 0
34.6 0 0 34.6 0 0 34.6 0 0
34.6 0 0 34.6 0 0 34.6 0 0
34.6 0 0 34.6 0 0 34.6 0 0
34.6 0 0 34.6 0 0 34.6 0 0
34.6 0 0 34.6 0 0 34.6 0 0
34.6 0 0 34.6 0 0 34.6 0 0
34.6 0 0 34.6 0 0 34.6 0 0
34.6 0 0 34.6 0 0 34.6 0 0
34.6 0 0 34.6 0 0 34.6 0 0
34.6 0 0 34.6 0 0 34.6 0 0
34.6 0 0 34.6 0 0 34.6 0 0
34.6 0 0 34.6 0 0 34.6 0 0
34.6 0 0 34.6 0 0 34.6 0 0
34.6 0 0 34.6 0 0 34.6 0 0
34.6 0 0 34.6 0 0 34.6 0 0
34.6 0 0 34.6 0 0 34.6 0 0
34.6 0 0 34.6 0 0 34.6 0 0
34.6 0 0 34.6 0 0 34.6 0 0
34.6 0 0 34.6 0 0 34.6 0 0
34.6 0 0 34.6 0 0 34.6 0 0
34.6 0 0 34.6 0 0 34.6 0 0
34.6 0 0 34.6 0 0 34.6 0 0
34.6 0 0 34.6 0 0 34.6 0 0
34.6 0 0 34.6 0 0 34.6 0 0
34.6 0 0 34.6 0 0 34.6 0 0
34.6 0 0 34.6 0 0 34.6 0 0
34.6 0 0 34.6 0 0 34.6 0 0
34.6 0 0 34.6 0 0 34.6 0 0
34.6 0 0 34.6 0 0 34.6 0 0
34.6 0 0 34.6 0 0 34.6 0 0
34.6 0 0 34.6 0 0 34.6 0 0
        </DataArray>
        <DataArray type='Float32' Name='wallShearStress' NumberOfComponents='3' format='ascii'>
0 0 0 0 0 0 0 0 0
0 0 0 0 0 0 0 0 0
0 0 0 0 0 0 0 0 0
0 0 0 0 0 0 0 0 0
0 0 0 0 0 0 0 0 0
0 0 0 0 0 0 0 0 0
0 0 0 0 0 0 0 0 0
0 0 0 0 0 0 0 0 0
0 0 0 0 0 0 0 0 0
0 0 0 0 0 0 0 0 0
0 0 0 0 0 0 0 0 0
0 0 0 0 0 0 0 0 0
0 0 0 0 0 0 0 0 0
0 0 0 0 0 0 0 0 0
0 0 0 0 0 0 0 0 0
0 0 0 0 0 0 0 0 0
0 0 0 0 0 0 0 0 0
0 0 0 0 0 0 0 0 0
0 0 0 0 0 0 0 0 0
0 0 0 0 0 0 0 0 0
0 0 0 0 0 0 0 0 0
0 0 0 0 0 0 0 0 0
0 0 0 0 0 0 0 0 0
0 0 0 0 0 0 0 0 0
0 0 0 0 0 0 0 0 0
0 0 0 0 0 0 0 0 0
0 0 0 0 0 0 0 0 0
0 0 0 0 0 0 0 0 0
0 0 0 0 0 0 0 0 0
0 0 0 0 0 0 0 0 0
0 0 0 0 0 0 0 0 0
0 0 0 0 0 0 0 0 0
0 0 0 0 0 0 0 0 0
0 0 0 0 0 0 0 0 0
0 0 0 0 0 0 0 0 0
0 0 0 0 0 0 0 0 0
0 0 0 0 0 0 0 0 0
0 0 0 0 0 0 0 0 0
0 0 0 0 0 0 0 0 0
0 0 0 0 0 0 0 0 0
0 0 0 0 0 0 0 0 0
0 0 0 0 0 0 0 0 0
0 0 0 0 0 0 0 0 0
0 0 0 0 0 0 0 0 0
0 0 0 0 0 0 0 0 0
0 0 0 0 0 0 0 0 0
0 0 0 0 0 0 0 0 0
0 0 0 0 0 0 0 0 0
0 0 0 0 0 0 0 0 0
0 0 0 0 0 0 0 0 0
0 0 0 0 0 0 0 0 0
0 0 0 0 0 0 0 0 0
0 0 0 0 0 0 0 0 0
0 0 0 0 0 0 0 0 0
0 0 0 0 0 0 0 0 0
0 0 0 0 0 0 0 0 0
0 0 0 0 0 0 0 0 0
0 0 0 0 0 0 0 0 0
0 0 0 0 0 0 0 0 0
0 0 0 0 0 0 0 0 0
        </DataArray>
      </CellData>
      <PointData>
        <DataArray type='Float32' Name='k' format='ascii'>
0.179574 0.179574 0.179574 0.179574 0.179574 0.179574 0.179574 0.179574 0.179574
0.179574 0.179574 0.179574 0.179574 0.179574 0.179574 0.179574 0.179574 0.179574
0.179574 0.179574 0.179574 0.179574 0.179574 0.179574 0.179574 0.179574 0.179574
0.179574 0.179574 0.179574 0.179574 0.179574 0.179574 0.179574 0.179574 0.179574
0.179574 0.179574 0.179574 0.179574 0.179574 0.179574 0.179574 0.179574 0.179574
0.179574 0.179574 0.179574 0.179574 0.179574 0.179574 0.179574 0.179574 0.179574
0.179574 0.179574 0.179574 0.179574 0.179574 0.179574 0.179574 0.179574 0.179574
0.179574 0.179574 0.179574 0.179574 0.179574 0.179574 0.179574 0.179574 0.179574
0.179574 0.179574 0.179574 0.179574 0.179574 0.179574 0.179574 0.179574 0.179574
0.179574 0.179574 0.179574 0.179574 0.179574 0.179574 0.179574 0.179574 0.179574
0.179574 0.179574 0.179574 0.179574 0.179574 0.179574 0.179574 0.179574 0.179574
0.179574 0.179574 0.179574 0.179574 0.179574 0.179574 0.179574 0.179574 0.179574
0.179574 0.179574 0.179574 0.179574 0.179574 0.179574 0.179574 0.179574 0.179574
0.179574 0.179574 0.179574 0.179574 0.179574 0.179574 0.179574 0.179574 0.179574
0.179574 0.179574 0.179574 0.179574 0.179574 0.179574 0.179574 0.179574 0.179574
0.179574 0.179574 0.179574 0.179574 0.179574 0.179574 0.179574 0.179574 0.179574
0.179574 0.179574 0.179574 0.179574 0.179574 0.179574 0.179574 0.179574 0.179574
0.179574 0.179574 0.179574 0.179574 0.179574 0.179574 0.179574 0.179574 0.179574
0.179574 0.179574 0.179574 0.179574 0.179574 0.179574 0.179574 0.179574 0.179574
0.179574 0.179574 0.179574 0.179574 0.179574 0.179574 0.179574 0.179574 0.179574
0.179574 0.179574 0.179574 0.179574 0.179574 0.179574 0.179574 0.179574 0.179574
0.179574 0.179574 0.179574 0.179574 0.179574 0.179574 0.179574 0.179574 0.179574
0.179574 0.179574 0.179574 0.179574 0.179574 0.179574 0.179574 0.179574 0.179574
0.179574 0.179574 0.179574 0.179574 0.179574 0.179574 0.179574 0.179574 0.179574
0.179574 0.179574 0.179574 0.179574 0.179574 0.179574 0.179574 0.179574 0.179574
0.179574 0.179574 0.179574 0.179574 0.179574 0.179574 0.179574 0.179574 0.179574
0.179574 0.179574 0.179574 0.179574 0.179574 0.179574 0.179574 0.179574 0.179574
0.179574 0.179574 0.179574 0.179574 0.179574 0.179574 0.179574 0.179574 0.179574
0.179574 0.179574 0.179574 0.179574 0.179574 0.179574 0.179574 0.179574 0.179574
0.179574 0.179574 0.179574 0.179574 0.179574 0.179574 0.179574 0.179574 0.179574
0.179574 0.179574 0.179574 0.179574 0.179574 0.179574 0.179574 0.179574 0.179574
0.179574 0.179574 0.179574 0.179574 0.179574 0.179574 0.179574 0.179574 0.179574
0.179574 0.179574 0.179574 0.179574 0.179574 0.179574 0.179574 0.179574 0.179574
0.179574 0.179574 0.179574 0.179574 0.179574 0.179574 0.179574 0.179574 0.179574
0.179574 0.179574 0.179574 0.179574 0.179574 0.179574 0.179574 0.179574 0.179574
0.179574 0.179574 0.179574 0.179574 0.179574 0.179574 0.179574 0.179574 0.179574
0.179574 0.179574 0.179574 0.179574 0.179574 0.179574 0.179574 0.179574 0.179574
0.179574 0.179574 0.179574 0.179574 0.179574 0.179574 0.179574 0.179574 0.179574
0.179574 0.179574 0.179574 0.179574 0.179574 0.179574 0.179574 0.179574 0.179574
0.179574 0.179574 0.179574 0.179574 0.179574 0.179574 0.179574 0.179574 0.179574
0.179574 0.179574
        </DataArray>
        <DataArray type='Float32' Name='nut' format='ascii'>
5.90661e-05 5.90661e-05 0.000117645 0.000117645 0.000372248 0.000372248 0.000568272 0.000568272 0.000568272
0.000568272 0.000568272 0.000568272 0.000568272 0.000568272 0.000568272 0.000568272 0.000568272 0.000568272
0.000568272 0.000568272 0.000568272 0.000568272 0.000568272 0.000568272 0.000568272 0.000568272 0.000568272
0.000568272 0.000568272 0.000568272 0.000568272 0.000568272 0.000568272 0.000568272 0.000568272 0.000568272
0.000568272 0.000568272 0.000568272 0.000568272 0.000568272 0.000568272 0.000568272 0.000568272 0.000568272
0.000568272 0.000568272 0.000568272 0.000568272 0.000568272 0.000568272 0.000568272 0.000568272 0.000568272
0.000568272 0.000568272 0.000568272 0.000568272 0.000568272 0.000568272 0.000568272 0.000568272 0.000568272
0.000568272 0.000568272 0.000568272 0.000568272 0.000568272 0.000568272 0.000568272 0.000568272 0.000568272
0.000568272 0.000568272 0.000568272 0.000568272 0.000568272 0.000568272 0.000568272 0.000568272 0.000568272
0.000568272 0.000568272 0.000568272 0.000568272 0.000568272 0.000568272 0.000568272 0.000568272 0.000568272
0.000568272 0.000568272 0.000568272 0.000568272 0.000568272 0.000568272 0.000568272 0.000568272 0.000568272
0.000568272 0.000568272 0.000568272 0.000568272 0.000568272 0.000568272 0.000568272 0.000568272 0.000568272
0.000568272 0.000568272 0.000568272 0.000568272 0.000568272 0.000568272 0.000568272 0.000568272 0.000568272
0.000568272 0.000568272 0.000568272 0.000568272 0.000568272 0.000568272 0.000568272 0.000568272 0.000568272
0.000568272 0.000568272 0.000568272 0.000568272 0.000568272 0.000568272 0.000568272 0.000568272 0.000568272
0.000568272 0.000568272 0.000568272 0.000568272 0.000568272 0.000568272 0.000568272 0.000568272 0.000568272
0.000568272 0.000568272 0.000568272 0.000568272 0.000568272 0.000568272 0.000568272 0.000568272 0.000568272
0.000568272 0.000568272 0.000568272 0.000568272 0.000568272 0.000568272 0.000568272 0.000568272 0.000568272
0.000568272 0.000568272 0.000568272 0.000568272 0.000568272 0.000568272 0.000568272 0.000568272 0.000568272
0.000568272 0.000568272 0.000568272 0.000568272 0.000568272 0.000568272 0.000568272 0.000568272 0.000568272
0.000568272 0.000568272 0.000568272 0.000568272 0.000568272 0.000568272 0.000568272 0.000568272 0.000568272
0.000568272 0.000568272 0.000568272 0.000568272 0.000568272 0.000568272 0.000568272 0.000568272 0.000568272
0.000568272 0.000568272 0.000568272 0.000568272 0.000568272 0.000568272 0.000568272 0.000568272 0.000568272
0.000568272 0.000568272 0.000568272 0.000568272 0.000568272 0.000568272 0.000568272 0.000568272 0.000568272
0.000568272 0.000568272 0.000568272 0.000568272 0.000568272 0.000568272 0.000568272 0.000568272 0.000568272
0.000568272 0.000568272 0.000568272 0.000568272 0.000568272 0.000568272 0.000568272 0.000568272 0.000568272
0.000568272 0.000568272 0.000568272 0.000568272 0.000568272 0.000568272 0.000568272 0.000568272 0.000568272
0.000568272 0.000568272 0.000568272 0.000568272 0.000568272 0.000568272 0.000568272 0.000568272 0.000568272
0.000568272 0.000568272 0.000568272 0.000568272 0.000568272 0.000568272 0.000568272 0.000568272 0.000568272
0.000568272 0.000568272 0.000568272 0.000568272 0.000568272 0.000568272 0.000568272 0.000568272 0.000568272
0.000568272 0.000568272 0.000568272 0.000568272 0.000568272 0.000568272 0.000568272 0.000568272 0.000568272
0.000568272 0.000568272 0.000568272 0.000568272 0.000568272 0.000568272 0.000568272 0.000568272 0.000568272
0.000568272 0.000568272 0.000568272 0.000568272 0.000568272 0.000568272 0.000568272 0.000568272 0.000568272
0.000568272 0.000568272 0.000568272 0.000568272 0.000568272 0.000568272 0.000568272 0.000568272 0.000568272
0.000568272 0.000568272 0.000568272 0.000568272 0.000568272 0.000568272 0.000568272 0.000568272 0.000568272
0.000568272 0.000568272 0.000568272 0.000568272 0.000568272 0.000568272 0.000568272 0.000568272 0.000568272
0.000568272 0.000568272 0.000568272 0.000568272 0.000568272 0.000568272 0.000568272 0.000568272 0.000568272
0.000568272 0.000568272 0.000568272 0.000568272 0.000568272 0.000568272 0.000568272 0.000568272 0.000568272
0.000568272 0.000568272 0.000568272 0.000568272 0.000568272 0.000568272 0.000568272 0.000568272 0.000568272
0.000568272 0.000568272 0.000568272 0.000568272 0.000568272 0.000568272 0.000568272 0.000568272 0.000568272
0.000568272 0.000568272
        </DataArray>
        <DataArray type='Float32' Name='omega' format='ascii'>
316 316 316 316 316 316 316 316 316
316 316 316 316 316 316 316 316 316
316 316 316 316 316 316 316 316 316
316 316 316 316 316 316 316 316 316
316 316 316 316 316 316 316 316 316
316 316 316 316 316 316 316 316 316
316 316 316 316 316 316 316 316 316
316 316 316 316 316 316 316 316 316
316 316 316 316 316 316 316 316 316
316 316 316 316 316 316 316 316 316
316 316 316 316 316 316 316 316 316
316 316 316 316 316 316 316 316 316
316 316 316 316 316 316 316 316 316
316 316 316 316 316 316 316 316 316
316 316 316 316 316 316 316 316 316
316 316 316 316 316 316 316 316 316
316 316 316 316 316 316 316 316 316
316 316 316 316 316 316 316 316 316
316 316 316 316 316 316 316 316 316
316 316 316 316 316 316 316 316 316
316 316 316 316 316 316 316 316 316
316 316 316 316 316 316 316 316 316
316 316 316 316 316 316 316 316 316
316 316 316 316 316 316 316 316 316
316 316 316 316 316 316 316 316 316
316 316 316 316 316 316 316 316 316
316 316 316 316 316 316 316 316 316
316 316 316 316 316 316 316 316 316
316 316 316 316 316 316 316 316 316
316 316 316 316 316 316 316 316 316
316 316 316 316 316 316 316 316 316
316 316 316 316 316 316 316 316 316
316 316 316 316 316 316 316 316 316
316 316 316 316 316 316 316 316 316
316 316 316 316 316 316 316 316 316
316 316 316 316 316 316 316 316 316
316 316 316 316 316 316 316 316 316
316 316 316 316 316 316 316 316 316
316 316 316 316 316 316 316 316 316
316 316 316 316 316 316 316 316 316
316 316
        </DataArray>
        <DataArray type='Float32' Name='p' format='ascii'>
28.636 28.636 27.8401 27.8401 26.5095 26.5095 25.6208 25.6208 24.9635
24.9635 24.42 24.42 23.9829 23.9829 23.6196 23.6196 23.3085 23.3085
23.0356 23.0356 22.7915 22.7915 22.5695 22.5695 22.3651 22.3651 22.1749
22.1749 21.9965 21.9965 21.8278 21.8278 21.6675 21.6675 21.5144 21.5144
21.3677 21.3677 21.2264 21.2264 21.0901 21.0901 20.9583 20.9583 20.8305
20.8305 20.7063 20.7063 20.5855 20.5855 20.4678 20.4678 20.353 20.353
20.2409 20.2409 20.1313 20.1313 20.024 20.024 19.919 19.919 19.8161
19.8161 19.7152 19.7152 19.6162 19.6162 19.519 19.519 19.4236 19.4236
19.3298 19.3298 19.2377 19.2377 19.1471 19.1471 19.058 19.058 18.9703
18.9703 18.8841 18.8841 18.7992 18.7992 18.7156 18.7156 18.6333 18.6333
18.5522 18.5522 18.4723 18.4723 18.3936 18.3936 18.316 18.316 18.2395
18.2395 18.1641 18.1641 18.0898 18.0898 18.0165 18.0165 17.9442 17.9442
17.8728 17.8728 17.8025 17.8025 17.7331 17.7331 17.6645 17.6645 17.5969
17.5969 17.5302 17.5302 17.4643 17.4643 17.3993 17.3993 17.3351 17.3351
17.2717 17.2717 17.2091 17.2091 17.1473 17.1473 17.0862 17.0862 17.0259
17.0259 16.9663 16.9663 16.9074 16.9074 16.8493 16.8493 16.7918 16.7918
16.735 16.735 16.6789 16.6789 16.6235 16.6235 16.5687 16.5687 16.5145
16.5145 16.4609 16.4609 16.408 16.408 16.3556 16.3556 16.3039 16.3039
16.2527 16.2527 16.2021 16.2021 16.1521 16.1521 16.1026 16.1026 16.0537
16.0537 16.0053 16.0053 15.9574 15.9574 15.91 15.91 15.8632 15.8632
15.8168 15.8168 15.771 15.771 15.7256 15.7256 15.6807 15.6807 15.6363
15.6363 15.5924 15.5924 15.5489 15.5489 15.5059 15.5059 15.4633 15.4633
15.4212 15.4212 15.3795 15.3795 15.3382 15.3382 15.2973 15.2973 15.2569
15.2569 15.2169 15.2169 15.1773 15.1773 15.1381 15.1381 15.0993 15.0993
15.0609 15.0609 15.0229 15.0229 14.9853 14.9853 14.9481 14.9481 14.9113
14.9113 14.8748 14.8748 14.8387 14.8387 14.803 14.803 14.7677 14.7677
14.7328 14.7328 14.6982 14.6982 14.6639 14.6639 14.6301 14.6301 14.5966
14.5966 14.5635 14.5635 14.5307 14.5307 14.4983 14.4983 14.4662 14.4662
14.4346 14.4346 14.4032 14.4032 14.3723 14.3723 14.3417 14.3417 14.3115
14.3115 14.2816 14.2816 14.2521 14.2521 14.2229 14.2229 14.1942 14.1942
14.1658 14.1658 14.1378 14.1378 14.1101 14.1101 14.0829 14.0829 14.056
14.056 14.0295 14.0295 14.0035 14.0035 13.9778 13.9778 13.9525 13.9525
13.9276 13.9276 13.9032 13.9032 13.8792 13.8792 13.8556 13.8556 13.8324
13.8324 13.8097 13.8097 13.7875 13.7875 13.7657 13.7657 13.7444 13.7444
13.7235 13.7235 13.7032 13.7032 13.6834 13.6834 13.6641 13.6641 13.6453
13.6453 13.6271 13.6271 13.6094 13.6094 13.5924 13.5924 13.5759 13.5759
13.56 13.56 13.5447 13.5447 13.5301 13.5301 13.5162 13.5162 13.503
13.503 13.4904 13.4904 13.4786 13.4786 13.4676 13.4676 13.4573 13.4573
13.4479 13.4479 13.4393 13.4393 13.4316 13.4316 13.4248 13.4248 13.4189
13.4189 13.414 13.414 13.4101 13.4101 13.4073 13.4073 13.4056 13.4056
13.405 13.405
        </DataArray>
        <DataArray type='Float32' Name='U' NumberOfComponents='3' format='ascii'>
34.6 0 0 34.6 0 0 34.6 0 0
34.6 0 0 34.6 0 0 34.6 0 0
34.6 0 0 34.6 0 0 34.6 0 0
34.6 0 0 34.6 0 0 34.6 0 0
34.6 0 0 34.6 0 0 34.6 0 0
34.6 0 0 34.6 0 0 34.6 0 0
34.6 0 0 34.6 0 0 34.6 0 0
34.6 0 0 34.6 0 0 34.6 0 0
34.6 0 0 34.6 0 0 34.6 0 0
34.6 0 0 34.6 0 0 34.6 0 0
34.6 0 0 34.6 0 0 34.6 0 0
34.6 0 0 34.6 0 0 34.6 0 0
34.6 0 0 34.6 0 0 34.6 0 0
34.6 0 0 34.6 0 0 34.6 0 0
34.6 0 0 34.6 0 0 34.6 0 0
34.6 0 0 34.6 0 0 34.6 0 0
34.6 0 0 34.6 0 0 34.6 0 0
34.6 0 0 34.6 0 0 34.6 0 0
34.6 0 0 34.6 0 0 34.6 0 0
34.6 0 0 34.6 0 0 34.6 0 0
34.6 0 0 34.6 0 0 34.6 0 0
34.6 0 0 34.6 0 0 34.6 0 0
34.6 0 0 34.6 0 0 34.6 0 0
34.6 0 0 34.6 0 0 34.6 0 0
34.6 0 0 34.6 0 0 34.6 0 0
34.6 0 0 34.6 0 0 34.6 0 0
34.6 0 0 34.6 0 0 34.6 0 0
34.6 0 0 34.6 0 0 34.6 0 0
34.6 0 0 34.6 0 0 34.6 0 0
34.6 0 0 34.6 0 0 34.6 0 0
34.6 0 0 34.6 0 0 34.6 0 0
34.6 0 0 34.6 0 0 34.6 0 0
34.6 0 0 34.6 0 0 34.6 0 0
34.6 0 0 34.6 0 0 34.6 0 0
34.6 0 0 34.6 0 0 34.6 0 0
34.6 0 0 34.6 0 0 34.6 0 0
34.6 0 0 34.6 0 0 34.6 0 0
34.6 0 0 34.6 0 0 34.6 0 0
34.6 0 0 34.6 0 0 34.6 0 0
34.6 0 0 34.6 0 0 34.6 0 0
34.6 0 0 34.6 0 0 34.6 0 0
34.6 0 0 34.6 0 0 34.6 0 0
34.6 0 0 34.6 0 0 34.6 0 0
34.6 0 0 34.6 0 0 34.6 0 0
34.6 0 0 34.6 0 0 34.6 0 0
34.6 0 0 34.6 0 0 34.6 0 0
34.6 0 0 34.6 0 0 34.6 0 0
34.6 0 0 34.6 0 0 34.6 0 0
34.6 0 0 34.6 0 0 34.6 0 0
34.6 0 0 34.6 0 0 34.6 0 0
34.6 0 0 34.6 0 0 34.6 0 0
34.6 0 0 34.6 0 0 34.6 0 0
34.6 0 0 34.6 0 0 34.6 0 0
34.6 0 0 34.6 0 0 34.6 0 0
34.6 0 0 34.6 0 0 34.6 0 0
34.6 0 0 34.6 0 0 34.6 0 0
34.6 0 0 34.6 0 0 34.6 0 0
34.6 0 0 34.6 0 0 34.6 0 0
34.6 0 0 34.6 0 0 34.6 0 0
34.6 0 0 34.6 0 0 34.6 0 0
34.6 0 0 34.6 0 0 34.6 0 0
34.6 0 0 34.6 0 0 34.6 0 0
34.6 0 0 34.6 0 0 34.6 0 0
34.6 0 0 34.6 0 0 34.6 0 0
34.6 0 0 34.6 0 0 34.6 0 0
34.6 0 0 34.6 0 0 34.6 0 0
34.6 0 0 34.6 0 0 34.6 0 0
34.6 0 0 34.6 0 0 34.6 0 0
34.6 0 0 34.6 0 0 34.6 0 0
34.6 0 0 34.6 0 0 34.6 0 0
34.6 0 0 34.6 0 0 34.6 0 0
34.6 0 0 34.6 0 0 34.6 0 0
34.6 0 0 34.6 0 0 34.6 0 0
34.6 0 0 34.6 0 0 34.6 0 0
34.6 0 0 34.6 0 0 34.6 0 0
34.6 0 0 34.6 0 0 34.6 0 0
34.6 0 0 34.6 0 0 34.6 0 0
34.6 0 0 34.6 0 0 34.6 0 0
34.6 0 0 34.6 0 0 34.6 0 0
34.6 0 0 34.6 0 0 34.6 0 0
34.6 0 0 34.6 0 0 34.6 0 0
34.6 0 0 34.6 0 0 34.6 0 0
34.6 0 0 34.6 0 0 34.6 0 0
34.6 0 0 34.6 0 0 34.6 0 0
34.6 0 0 34.6 0 0 34.6 0 0
34.6 0 0 34.6 0 0 34.6 0 0
34.6 0 0 34.6 0 0 34.6 0 0
34.6 0 0 34.6 0 0 34.6 0 0
34.6 0 0 34.6 0 0 34.6 0 0
34.6 0 0 34.6 0 0 34.6 0 0
34.6 0 0 34.6 0 0 34.6 0 0
34.6 0 0 34.6 0 0 34.6 0 0
34.6 0 0 34.6 0 0 34.6 0 0
34.6 0 0 34.6 0 0 34.6 0 0
34.6 0 0 34.6 0 0 34.6 0 0
34.6 0 0 34.6 0 0 34.6 0 0
34.6 0 0 34.6 0 0 34.6 0 0
34.6 0 0 34.6 0 0 34.6 0 0
34.6 0 0 34.6 0 0 34.6 0 0
34.6 0 0 34.6 0 0 34.6 0 0
34.6 0 0 34.6 0 0 34.6 0 0
34.6 0 0 34.6 0 0 34.6 0 0
34.6 0 0 34.6 0 0 34.6 0 0
34.6 0 0 34.6 0 0 34.6 0 0
34.6 0 0 34.6 0 0 34.6 0 0
34.6 0 0 34.6 0 0 34.6 0 0
34.6 0 0 34.6 0 0 34.6 0 0
34.6 0 0 34.6 0 0 34.6 0 0
34.6 0 0 34.6 0 0 34.6 0 0
34.6 0 0 34.6 0 0 34.6 0 0
34.6 0 0 34.6 0 0 34.6 0 0
34.6 0 0 34.6 0 0 34.6 0 0
34.6 0 0 34.6 0 0 34.6 0 0
34.6 0 0 34.6 0 0 34.6 0 0
34.6 0 0 34.6 0 0 34.6 0 0
34.6 0 0 34.6 0 0 34.6 0 0
34.6 0 0 34.6 0 0 34.6 0 0
34.6 0 0 34.6 0 0 34.6 0 0
34.6 0 0 34.6 0 0 34.6 0 0
34.6 0 0 34.6 0 0 34.6 0 0
34.6 0 0 34.6 0 0
        </DataArray>
        <DataArray type='Float32' Name='wallShearStress' NumberOfComponents='3' format='ascii'>
0 0 0 0 0 0 0 0 0
0 0 0 0 0 0 0 0 0
0 0 0 0 0 0 0 0 0
0 0 0 0 0 0 0 0 0
0 0 0 0 0 0 0 0 0
0 0 0 0 0 0 0 0 0
0 0 0 0 0 0 0 0 0
0 0 0 0 0 0 0 0 0
0 0 0 0 0 0 0 0 0
0 0 0 0 0 0 0 0 0
0 0 0 0 0 0 0 0 0
0 0 0 0 0 0 0 0 0
0 0 0 0 0 0 0 0 0
0 0 0 0 0 0 0 0 0
0 0 0 0 0 0 0 0 0
0 0 0 0 0 0 0 0 0
0 0 0 0 0 0 0 0 0
0 0 0 0 0 0 0 0 0
0 0 0 0 0 0 0 0 0
0 0 0 0 0 0 0 0 0
0 0 0 0 0 0 0 0 0
0 0 0 0 0 0 0 0 0
0 0 0 0 0 0 0 0 0
0 0 0 0 0 0 0 0 0
0 0 0 0 0 0 0 0 0
0 0 0 0 0 0 0 0 0
0 0 0 0 0 0 0 0 0
0 0 0 0 0 0 0 0 0
0 0 0 0 0 0 0 0 0
0 0 0 0 0 0 0 0 0
0 0 0 0 0 0 0 0 0
0 0 0 0 0 0 0 0 0
0 0 0 0 0 0 0 0 0
0 0 0 0 0 0 0 0 0
0 0 0 0 0 0 0 0 0
0 0 0 0 0 0 0 0 0
0 0 0 0 0 0 0 0 0
0 0 0 0 0 0 0 0 0
0 0 0 0 0 0 0 0 0
0 0 0 0 0 0 0 0 0
0 0 0 0 0 0 0 0 0
0 0 0 0 0 0 0 0 0
0 0 0 0 0 0 0 0 0
0 0 0 0 0 0 0 0 0
0 0 0 0 0 0 0 0 0
0 0 0 0 0 0 0 0 0
0 0 0 0 0 0 0 0 0
0 0 0 0 0 0 0 0 0
0 0 0 0 0 0 0 0 0
0 0 0 0 0 0 0 0 0
0 0 0 0 0 0 0 0 0
0 0 0 0 0 0 0 0 0
0 0 0 0 0 0 0 0 0
0 0 0 0 0 0 0 0 0
0 0 0 0 0 0 0 0 0
0 0 0 0 0 0 0 0 0
0 0 0 0 0 0 0 0 0
0 0 0 0 0 0 0 0 0
0 0 0 0 0 0 0 0 0
0 0 0 0 0 0 0 0 0
0 0 0 0 0 0 0 0 0
0 0 0 0 0 0 0 0 0
0 0 0 0 0 0 0 0 0
0 0 0 0 0 0 0 0 0
0 0 0 0 0 0 0 0 0
0 0 0 0 0 0 0 0 0
0 0 0 0 0 0 0 0 0
0 0 0 0 0 0 0 0 0
0 0 0 0 0 0 0 0 0
0 0 0 0 0 0 0 0 0
0 0 0 0 0 0 0 0 0
0 0 0 0 0 0 0 0 0
0 0 0 0 0 0 0 0 0
0 0 0 0 0 0 0 0 0
0 0 0 0 0 0 0 0 0
0 0 0 0 0 0 0 0 0
0 0 0 0 0 0 0 0 0
0 0 0 0 0 0 0 0 0
0 0 0 0 0 0 0 0 0
0 0 0 0 0 0 0 0 0
0 0 0 0 0 0 0 0 0
0 0 0 0 0 0 0 0 0
0 0 0 0 0 0 0 0 0
0 0 0 0 0 0 0 0 0
0 0 0 0 0 0 0 0 0
0 0 0 0 0 0 0 0 0
0 0 0 0 0 0 0 0 0
0 0 0 0 0 0 0 0 0
0 0 0 0 0 0 0 0 0
0 0 0 0 0 0 0 0 0
0 0 0 0 0 0 0 0 0
0 0 0 0 0 0 0 0 0
0 0 0 0 0 0 0 0 0
0 0 0 0 0 0 0 0 0
0 0 0 0 0 0 0 0 0
0 0 0 0 0 0 0 0 0
0 0 0 0 0 0 0 0 0
0 0 0 0 0 0 0 0 0
0 0 0 0 0 0 0 0 0
0 0 0 0 0 0 0 0 0
0 0 0 0 0 0 0 0 0
0 0 0 0 0 0 0 0 0
0 0 0 0 0 0 0 0 0
0 0 0 0 0 0 0 0 0
0 0 0 0 0 0 0 0 0
0 0 0 0 0 0 0 0 0
0 0 0 0 0 0 0 0 0
0 0 0 0 0 0 0 0 0
0 0 0 0 0 0 0 0 0
0 0 0 0 0 0 0 0 0
0 0 0 0 0 0 0 0 0
0 0 0 0 0 0 0 0 0
0 0 0 0 0 0 0 0 0
0 0 0 0 0 0 0 0 0
0 0 0 0 0 0 0 0 0
0 0 0 0 0 0 0 0 0
0 0 0 0 0 0 0 0 0
0 0 0 0 0 0 0 0 0
0 0 0 0 0 0 0 0 0
0 0 0 0 0 0 0 0 0
0 0 0 0 0 0
        </DataArray>
      </PointData>
    </Piece>
  </PolyData>
</VTKFile>
