<?xml version='1.0'?>
<!-- patch='outlet' time='80' index='80' -->
<VTKFile type='PolyData' version='0.1' byte_order='LittleEndian' header_type='UInt64'>
  <PolyData>
    <FieldData>
      <DataArray type='Float32' Name='TimeValue' NumberOfTuples='1' format='ascii'>
80
      </DataArray>
    </FieldData>
    <Piece NumberOfPoints='362' NumberOfPolys='180'>
      <Points>
        <DataArray type='Float32' Name='Points' NumberOfComponents='3' format='ascii'>
0.67 0 -0.01 0.67 0.000438104 -0.01 0.67 0.000438104 0.01
0.67 0 0.01 0.67 0.000882333 -0.01 0.67 0.000882333 0.01
0.67 0.00133277 -0.01 0.67 0.00133277 0.01 0.67 0.00178951 -0.01
0.67 0.00178951 0.01 0.67 0.00225263 -0.01 0.67 0.00225263 0.01
0.67 0.00272222 -0.01 0.67 0.00272222 0.01 0.67 0.00319838 -0.01
0.67 0.00319838 0.01 0.67 0.00368119 -0.01 0.67 0.00368119 0.01
0.67 0.00417076 -0.01 0.67 0.00417076 0.01 0.67 0.00466716 -0.01
0.67 0.00466716 0.01 0.67 0.00517051 -0.01 0.67 0.00517051 0.01
0.67 0.00568089 -0.01 0.67 0.00568089 0.01 0.67 0.00619841 -0.01
0.67 0.00619841 0.01 0.67 0.00672316 -0.01 0.67 0.00672316 0.01
0.67 0.00725525 -0.01 0.67 0.00725525 0.01 0.67 0.00779477 -0.01
0.67 0.00779477 0.01 0.67 0.00834184 -0.01 0.67 0.00834184 0.01
0.67 0.00889655 -0.01 0.67 0.00889655 0.01 0.67 0.00945902 -0.01
0.67 0.00945902 0.01 0.67 0.0100294 -0.01 0.67 0.0100294 0.01
0.67 0.0106077 -0.01 0.67 0.0106077 0.01 0.67 0.011194 -0.01
0.67 0.011194 0.01 0.67 0.0117886 -0.01 0.67 0.0117886 0.01
0.67 0.0123915 -0.01 0.67 0.0123915 0.01 0.67 0.0130029 -0.01
0.67 0.0130029 0.01 0.67 0.0136227 -0.01 0.67 0.0136227 0.01
0.67 0.0142513 -0.01 0.67 0.0142513 0.01 0.67 0.0148886 -0.01
0.67 0.0148886 0.01 0.67 0.0155348 -0.01 0.67 0.0155348 0.01
0.67 0.0161901 -0.01 0.67 0.0161901 0.01 0.67 0.0168545 -0.01
0.67 0.0168545 0.01 0.67 0.0175282 -0.01 0.67 0.0175282 0.01
0.67 0.0182113 -0.01 0.67 0.0182113 0.01 0.67 0.018904 -0.01
0.67 0.018904 0.01 0.67 0.0196064 -0.01 0.67 0.0196064 0.01
0.67 0.0203186 -0.01 0.67 0.0203186 0.01 0.67 0.0210407 -0.01
0.67 0.0210407 0.01 0.67 0.0217729 -0.01 0.67 0.0217729 0.01
0.67 0.0225154 -0.01 0.67 0.0225154 0.01 0.67 0.0232683 -0.01
0.67 0.0232683 0.01 0.67 0.0240316 -0.01 0.67 0.0240316 0.01
0.67 0.0248057 -0.01 0.67 0.0248057 0.01 0.67 0.0255905 -0.01
0.67 0.0255905 0.01 0.67 0.0263864 -0.01 0.67 0.0263864 0.01
0.67 0.0271933 -0.01 0.67 0.0271933 0.01 0.67 0.0280116 -0.01
0.67 0.0280116 0.01 0.67 0.0288412 -0.01 0.67 0.0288412 0.01
0.67 0.0296825 -0.01 0.67 0.0296825 0.01 0.67 0.0305355 -0.01
0.67 0.0305355 0.01 0.67 0.0314005 -0.01 0.67 0.0314005 0.01
0.67 0.0322776 -0.01 0.67 0.0322776 0.01 0.67 0.0331669 -0.01
0.67 0.0331669 0.01 0.67 0.0340686 -0.01 0.67 0.0340686 0.01
0.67 0.034983 -0.01 0.67 0.034983 0.01 0.67 0.0359101 -0.01
0.67 0.0359101 0.01 0.67 0.0368502 -0.01 0.67 0.0368502 0.01
0.67 0.0378034 -0.01 0.67 0.0378034 0.01 0.67 0.03877 -0.01
0.67 0.03877 0.01 0.67 0.03975 -0.01 0.67 0.03975 0.01
0.67 0.0407438 -0.01 0.67 0.0407438 0.01 0.67 0.0417515 -0.01
0.67 0.0417515 0.01 0.67 0.0427732 -0.01 0.67 0.0427732 0.01
0.67 0.0438092 -0.01 0.67 0.0438092 0.01 0.67 0.0448597 -0.01
0.67 0.0448597 0.01 0.67 0.0459249 -0.01 0.67 0.0459249 0.01
0.67 0.047005 -0.01 0.67 0.047005 0.01 0.67 0.0481002 -0.01
0.67 0.0481002 0.01 0.67 0.0492107 -0.01 0.67 0.0492107 0.01
0.67 0.0503367 -0.01 0.67 0.0503367 0.01 0.67 0.0514785 -0.01
0.67 0.0514785 0.01 0.67 0.0526362 -0.01 0.67 0.0526362 0.01
0.67 0.0538101 -0.01 0.67 0.0538101 0.01 0.67 0.0550004 -0.01
0.67 0.0550004 0.01 0.67 0.0562074 -0.01 0.67 0.0562074 0.01
0.67 0.0574312 -0.01 0.67 0.0574312 0.01 0.67 0.0586721 -0.01
0.67 0.0586721 0.01 0.67 0.0599304 -0.01 0.67 0.0599304 0.01
0.67 0.0612063 -0.01 0.67 0.0612063 0.01 0.67 0.0625 -0.01
0.67 0.0625 0.01 0.67 0.0638118 -0.01 0.67 0.0638118 0.01
0.67 0.0651419 -0.01 0.67 0.0651419 0.01 0.67 0.0664906 -0.01
0.67 0.0664906 0.01 0.67 0.0678582 -0.01 0.67 0.0678582 0.01
0.67 0.0692449 -0.01 0.67 0.0692449 0.01 0.67 0.070651 -0.01
0.67 0.070651 0.01 0.67 0.0720767 -0.01 0.67 0.0720767 0.01
0.67 0.0735224 -0.01 0.67 0.0735224 0.01 0.67 0.0749882 -0.01
0.67 0.0749882 0.01 0.67 0.0764746 -0.01 0.67 0.0764746 0.01
0.67 0.0779817 -0.01 0.67 0.0779817 0.01 0.67 0.07951 -0.01
0.67 0.07951 0.01 0.67 0.0810595 -0.01 0.67 0.0810595 0.01
0.67 0.0826308 -0.01 0.67 0.0826308 0.01 0.67 0.084224 -0.01
0.67 0.084224 0.01 0.67 0.0858394 -0.01 0.67 0.0858394 0.01
0.67 0.0874775 -0.01 0.67 0.0874775 0.01 0.67 0.0891384 -0.01
0.67 0.0891384 0.01 0.67 0.0908226 -0.01 0.67 0.0908226 0.01
0.67 0.0925303 -0.01 0.67 0.0925303 0.01 0.67 0.0942619 -0.01
0.67 0.0942619 0.01 0.67 0.0960177 -0.01 0.67 0.0960177 0.01
0.67 0.097798 -0.01 0.67 0.097798 0.01 0.67 0.0996032 -0.01
0.67 0.0996032 0.01 0.67 0.101434 -0.01 0.67 0.101434 0.01
0.67 0.10329 -0.01 0.67 0.10329 0.01 0.67 0.105172 -0.01
0.67 0.105172 0.01 0.67 0.10708 -0.01 0.67 0.10708 0.01
0.67 0.109015 -0.01 0.67 0.109015 0.01 0.67 0.110977 -0.01
0.67 0.110977 0.01 0.67 0.112966 -0.01 0.67 0.112966 0.01
0.67 0.114984 -0.01 0.67 0.114984 0.01 0.67 0.117029 -0.01
0.67 0.117029 0.01 0.67 0.119103 -0.01 0.67 0.119103 0.01
0.67 0.121206 -0.01 0.67 0.121206 0.01 0.67 0.123339 -0.01
0.67 0.123339 0.01 0.67 0.125501 -0.01 0.67 0.125501 0.01
0.67 0.127693 -0.01 0.67 0.127693 0.01 0.67 0.129917 -0.01
0.67 0.129917 0.01 0.67 0.132171 -0.01 0.67 0.132171 0.01
0.67 0.134456 -0.01 0.67 0.134456 0.01 0.67 0.136774 -0.01
0.67 0.136774 0.01 0.67 0.139124 -0.01 0.67 0.139124 0.01
0.67 0.141507 -0.01 0.67 0.141507 0.01 0.67 0.143923 -0.01
0.67 0.143923 0.01 0.67 0.146373 -0.01 0.67 0.146373 0.01
0.67 0.148858 -0.01 0.67 0.148858 0.01 0.67 0.151377 -0.01
0.67 0.151377 0.01 0.67 0.153931 -0.01 0.67 0.153931 0.01
0.67 0.156521 -0.01 0.67 0.156521 0.01 0.67 0.159147 -0.01
0.67 0.159147 0.01 0.67 0.16181 -0.01 0.67 0.16181 0.01
0.67 0.16451 -0.01 0.67 0.16451 0.01 0.67 0.167247 -0.01
0.67 0.167247 0.01 0.67 0.170023 -0.01 0.67 0.170023 0.01
0.67 0.172838 -0.01 0.67 0.172838 0.01 0.67 0.175692 -0.01
0.67 0.175692 0.01 0.67 0.178587 -0.01 0.67 0.178587 0.01
0.67 0.181521 -0.01 0.67 0.181521 0.01 0.67 0.184497 -0.01
0.67 0.184497 0.01 0.67 0.187514 -0.01 0.67 0.187514 0.01
0.67 0.190573 -0.01 0.67 0.190573 0.01 0.67 0.193675 -0.01
0.67 0.193675 0.01 0.67 0.196821 -0.01 0.67 0.196821 0.01
0.67 0.20001 -0.01 0.67 0.20001 0.01 0.67 0.203244 -0.01
0.67 0.203244 0.01 0.67 0.206524 -0.01 0.67 0.206524 0.01
0.67 0.209849 -0.01 0.67 0.209849 0.01 0.67 0.21322 -0.01
0.67 0.21322 0.01 0.67 0.216639 -0.01 0.67 0.216639 0.01
0.67 0.220105 -0.01 0.67 0.220105 0.01 0.67 0.22362 -0.01
0.67 0.22362 0.01 0.67 0.227185 -0.01 0.67 0.227185 0.01
0.67 0.230798 -0.01 0.67 0.230798 0.01 0.67 0.234463 -0.01
0.67 0.234463 0.01 0.67 0.238179 -0.01 0.67 0.238179 0.01
0.67 0.241946 -0.01 0.67 0.241946 0.01 0.67 0.245766 -0.01
0.67 0.245766 0.01 0.67 0.24964 -0.01 0.67 0.24964 0.01
0.67 0.253568 -0.01 0.67 0.253568 0.01 0.67 0.257551 -0.01
0.67 0.257551 0.01 0.67 0.261589 -0.01 0.67 0.261589 0.01
0.67 0.265684 -0.01 0.67 0.265684 0.01 0.67 0.269836 -0.01
0.67 0.269836 0.01 0.67 0.274046 -0.01 0.67 0.274046 0.01
0.67 0.278315 -0.01 0.67 0.278315 0.01 0.67 0.282644 -0.01
0.67 0.282644 0.01 0.67 0.287033 -0.01 0.67 0.287033 0.01
0.67 0.291483 -0.01 0.67 0.291483 0.01 0.67 0.295996 -0.01
0.67 0.295996 0.01 0.67 0.300572 -0.01 0.67 0.300572 0.01
0.67 0.305212 -0.01 0.67 0.305212 0.01 0.67 0.309916 -0.01
0.67 0.309916 0.01 0.67 0.314687 -0.01 0.67 0.314687 0.01
0.67 0.319524 -0.01 0.67 0.319524 0.01 0.67 0.324429 -0.01
0.67 0.324429 0.01 0.67 0.329402 -0.01 0.67 0.329402 0.01
0.67 0.334445 -0.01 0.67 0.334445 0.01 0.67 0.339558 -0.01
0.67 0.339558 0.01 0.67 0.344743 -0.01 0.67 0.344743 0.01
0.67 0.35 -0.01 0.67 0.35 0.01
        </DataArray>
      </Points>
      <Polys>
        <DataArray type='Int32' Name='connectivity' format='ascii'>
0 1 2 3 1 4 5 2 4
6 7 5 6 8 9 7 8 10
11 9 10 12 13 11 12 14 15
13 14 16 17 15 16 18 19 17
18 20 21 19 20 22 23 21 22
24 25 23 24 26 27 25 26 28
29 27 28 30 31 29 30 32 33
31 32 34 35 33 34 36 37 35
36 38 39 37 38 40 41 39 40
42 43 41 42 44 45 43 44 46
47 45 46 48 49 47 48 50 51
49 50 52 53 51 52 54 55 53
54 56 57 55 56 58 59 57 58
60 61 59 60 62 63 61 62 64
65 63 64 66 67 65 66 68 69
67 68 70 71 69 70 72 73 71
72 74 75 73 74 76 77 75 76
78 79 77 78 80 81 79 80 82
83 81 82 84 85 83 84 86 87
85 86 88 89 87 88 90 91 89
90 92 93 91 92 94 95 93 94
96 97 95 96 98 99 97 98 100
101 99 100 102 103 101 102 104 105
103 104 106 107 105 106 108 109 107
108 110 111 109 110 112 113 111 112
114 115 113 114 116 117 115 116 118
119 117 118 120 121 119 120 122 123
121 122 124 125 123 124 126 127 125
126 128 129 127 128 130 131 129 130
132 133 131 132 134 135 133 134 136
137 135 136 138 139 137 138 140 141
139 140 142 143 141 142 144 145 143
144 146 147 145 146 148 149 147 148
150 151 149 150 152 153 151 152 154
155 153 154 156 157 155 156 158 159
157 158 160 161 159 160 162 163 161
162 164 165 163 164 166 167 165 166
168 169 167 168 170 171 169 170 172
173 171 172 174 175 173 174 176 177
175 176 178 179 177 178 180 181 179
180 182 183 181 182 184 185 183 184
186 187 185 186 188 189 187 188 190
191 189 190 192 193 191 192 194 195
193 194 196 197 195 196 198 199 197
198 200 201 199 200 202 203 201 202
204 205 203 204 206 207 205 206 208
209 207 208 210 211 209 210 212 213
211 212 214 215 213 214 216 217 215
216 218 219 217 218 220 221 219 220
222 223 221 222 224 225 223 224 226
227 225 226 228 229 227 228 230 231
229 230 232 233 231 232 234 235 233
234 236 237 235 236 238 239 237 238
240 241 239 240 242 243 241 242 244
245 243 244 246 247 245 246 248 249
247 248 250 251 249 250 252 253 251
252 254 255 253 254 256 257 255 256
258 259 257 258 260 261 259 260 262
263 261 262 264 265 263 264 266 267
265 266 268 269 267 268 270 271 269
270 272 273 271 272 274 275 273 274
276 277 275 276 278 279 277 278 280
281 279 280 282 283 281 282 284 285
283 284 286 287 285 286 288 289 287
288 290 291 289 290 292 293 291 292
294 295 293 294 296 297 295 296 298
299 297 298 300 301 299 300 302 303
301 302 304 305 303 304 306 307 305
306 308 309 307 308 310 311 309 310
312 313 311 312 314 315 313 314 316
317 315 316 318 319 317 318 320 321
319 320 322 323 321 322 324 325 323
324 326 327 325 326 328 329 327 328
330 331 329 330 332 333 331 332 334
335 333 334 336 337 335 336 338 339
337 338 340 341 339 340 342 343 341
342 344 345 343 344 346 347 345 346
348 349 347 348 350 351 349 350 352
353 351 352 354 355 353 354 356 357
355 356 358 359 357 358 360 361 359
        </DataArray>
        <DataArray type='Int32' Name='offsets' format='ascii'>
4 8 12 16 20 24 28 32 36
40 44 48 52 56 60 64 68 72
76 80 84 88 92 96 100 104 108
112 116 120 124 128 132 136 140 144
148 152 156 160 164 168 172 176 180
184 188 192 196 200 204 208 212 216
220 224 228 232 236 240 244 248 252
256 260 264 268 272 276 280 284 288
292 296 300 304 308 312 316 320 324
328 332 336 340 344 348 352 356 360
364 368 372 376 380 384 388 392 396
400 404 408 412 416 420 424 428 432
436 440 444 448 452 456 460 464 468
472 476 480 484 488 492 496 500 504
508 512 516 520 524 528 532 536 540
544 548 552 556 560 564 568 572 576
580 584 588 592 596 600 604 608 612
616 620 624 628 632 636 640 644 648
652 656 660 664 668 672 676 680 684
688 692 696 700 704 708 712 716 720
        </DataArray>
      </Polys>
      <CellData>
        <DataArray type='Float32' Name='k' format='ascii'>
4.93909 5.24993 4.76622 4.3334 3.94091 3.56415 3.19277 2.82352 2.45775
2.09917 1.75818 1.44837 1.17603 0.942258 0.742504 0.574866 0.442514 0.347323
0.285501 0.24883 0.228422 0.217961 0.21329 0.211786 0.211975 0.213032 0.214499
0.216128 0.217787 0.219411 0.220969 0.222452 0.223855 0.225181 0.226431 0.227606
0.228707 0.229736 0.230695 0.231586 0.232412 0.233179 0.233891 0.234554 0.235175
0.235762 0.236321 0.236859 0.237383 0.237897 0.238408 0.238918 0.239432 0.239951
0.240478 0.241014 0.24156 0.242119 0.242691 0.243279 0.243886 0.244514 0.245169
0.245856 0.246577 0.247335 0.248126 0.24894 0.249761 0.25056 0.251301 0.251939
0.252424 0.252706 0.252736 0.252474 0.251888 0.250956 0.249672 0.248037 0.24607
0.243797 0.241258 0.238499 0.235569 0.232516 0.229381 0.226199 0.222992 0.219777
0.216563 0.213359 0.21017 0.207004 0.20387 0.200778 0.197734 0.194747 0.191821
0.188963 0.186173 0.183456 0.180811 0.17824 0.175744 0.173321 0.170973 0.168697
0.166493 0.164361 0.162299 0.160306 0.158381 0.156522 0.154728 0.152998 0.15133
0.149723 0.148175 0.146685 0.145251 0.143871 0.142544 0.141268 0.140042 0.138864
0.137732 0.136645 0.135602 0.134601 0.133641 0.132719 0.131835 0.130987 0.130174
0.129394 0.128647 0.127931 0.127244 0.126586 0.125955 0.125351 0.124772 0.124218
0.123686 0.123177 0.12269 0.122222 0.121774 0.121346 0.120935 0.120541 0.120164
0.119802 0.119456 0.119124 0.118806 0.118502 0.11821 0.117931 0.117663 0.117407
0.117161 0.116926 0.116702 0.116486 0.11628 0.116083 0.115894 0.115712 0.115537
0.115365 0.115191 0.115005 0.114785 0.11449 0.114092 0.113683 0.113423 0.11321
        </DataArray>
        <DataArray type='Float32' Name='nut' format='ascii'>
8.6e-05 0.000244692 0.000392995 0.000511598 0.000596346 0.000641367 0.000657769 0.000652863 0.000631021
0.000596785 0.000557468 0.00052065 0.000489628 0.000461931 0.000422608 0.000375818 0.000341166 0.000322329
0.000319373 0.000328943 0.00034705 0.000367904 0.000387497 0.000405043 0.000420653 0.00043464 0.000447343
0.000459048 0.000469981 0.000480317 0.000490188 0.000499691 0.0005089 0.000517863 0.000526618 0.000535185
0.000543581 0.000551815 0.000559893 0.000567822 0.000575608 0.000583258 0.000590781 0.000598189 0.000605493
0.000612707 0.000619846 0.000626923 0.000633954 0.000640952 0.000647931 0.000654902 0.000661876 0.000668862
0.00067587 0.000682907 0.000689978 0.000697089 0.000704247 0.000711454 0.000718719 0.000726043 0.000733433
0.000740889 0.000748407 0.000755978 0.000763577 0.000771168 0.000778692 0.000786072 0.00079321 0.000799992
0.000806293 0.000811984 0.000816945 0.000821066 0.000824258 0.000826458 0.000827628 0.00082776 0.000826875
0.000825025 0.000822287 0.000818758 0.000814549 0.000809773 0.000804535 0.000798931 0.000793035 0.000786911
0.000780607 0.000774165 0.000767621 0.000761013 0.000754376 0.000747745 0.000741149 0.000734614 0.000728162
0.000721809 0.000715569 0.000709453 0.000703466 0.000697615 0.000691905 0.000686338 0.000680917 0.000675643
0.000670516 0.000665536 0.000660704 0.000656019 0.00065148 0.000647086 0.000642836 0.000638728 0.000634761
0.000630932 0.00062724 0.000623681 0.000620255 0.000616957 0.000613785 0.000610736 0.000607808 0.000604997
0.000602301 0.000599717 0.000597241 0.00059487 0.000592601 0.000590432 0.000588358 0.000586377 0.000584486
0.000582682 0.000580961 0.000579321 0.000577759 0.000576271 0.000574856 0.00057351 0.000572231 0.000571016
0.000569863 0.000568769 0.000567731 0.000566747 0.000565816 0.000564934 0.000564099 0.000563311 0.000562565
0.000561862 0.000561198 0.000560572 0.000559982 0.000559426 0.000558904 0.000558412 0.00055795 0.000557516
0.000557109 0.000556725 0.000556364 0.000556023 0.000555698 0.000555384 0.000555073 0.000554752 0.000554396
0.000553953 0.000553324 0.000552276 0.000550322 0.000546506 0.000539804 0.00053329 0.000531103 0.000530388
        </DataArray>
        <DataArray type='Float32' Name='omega' format='ascii'>
52038.9 20880.4 12127.9 8470.32 6532.6 5340.16 4523.47 3918.41 3441.78
3046.72 2718.76 2444.75 2202.55 1977.36 1756.96 1529.64 1297.06 1077.54
893.942 756.455 658.182 592.44 550.429 522.873 503.918 490.133 479.496
470.819 463.396 456.804 450.785 445.178 439.881 434.828 429.972 425.284
420.741 416.328 412.034 407.849 403.769 399.787 395.901 392.107 388.403
384.788 381.258 377.812 374.448 371.162 367.953 364.815 361.747 358.745
355.804 352.923 350.099 347.329 344.612 341.946 339.334 336.776 334.276
331.839 329.469 327.172 324.952 322.809 320.744 318.749 316.815 314.926
313.067 311.22 309.368 307.496 305.593 303.653 301.671 299.649 297.59
295.502 293.399 291.294 289.202 287.137 285.11 283.127 281.188 279.29
277.429 275.599 273.794 272.011 270.25 268.511 266.794 265.101 263.432
261.79 260.175 258.588 257.029 255.499 254 252.53 251.092 249.684
248.307 246.961 245.646 244.362 243.109 241.887 240.696 239.535 238.405
237.304 236.233 235.192 234.179 233.194 232.237 231.308 230.405 229.528
228.676 227.85 227.048 226.27 225.515 224.783 224.072 223.383 222.715
222.067 221.438 220.829 220.237 219.664 219.108 218.569 218.045 217.538
217.046 216.568 216.105 215.656 215.219 214.796 214.385 213.986 213.599
213.224 212.859 212.505 212.161 211.827 211.504 211.189 210.885 210.589
210.303 210.025 209.758 209.499 209.251 209.014 208.791 208.584 208.402
208.257 208.18 208.238 208.578 209.495 211.358 213.173 213.562 213.447
        </DataArray>
        <DataArray type='Float32' Name='p' format='ascii'>
0 0 0 0 0 0 0 0 0
0 0 0 0 0 0 0 0 0
0 0 0 0 0 0 0 0 0
0 0 0 0 0 0 0 0 0
0 0 0 0 0 0 0 0 0
0 0 0 0 0 0 0 0 0
0 0 0 0 0 0 0 0 0
0 0 0 0 0 0 0 0 0
0 0 0 0 0 0 0 0 0
0 0 0 0 0 0 0 0 0
0 0 0 0 0 0 0 0 0
0 0 0 0 0 0 0 0 0
0 0 0 0 0 0 0 0 0
0 0 0 0 0 0 0 0 0
0 0 0 0 0 0 0 0 0
0 0 0 0 0 0 0 0 0
0 0 0 0 0 0 0 0 0
0 0 0 0 0 0 0 0 0
0 0 0 0 0 0 0 0 0
0 0 0 0 0 0 0 0 0
        </DataArray>
        <DataArray type='Float32' Name='U' NumberOfComponents='3' format='ascii'>
17.3606 0.00144487 2.90485e-23 21.2604 0.0032109 9.03382e-24 23.2567 0.0057446 -2.06404e-23
24.6001 0.00831106 -2.12084e-24 25.6341 0.0107394 -1.54436e-23 26.4964 0.0130079 7.01837e-24
27.2513 0.0150682 5.22954e-24 27.9288 0.0168758 -1.19822e-23 28.5455 0.018439 1.41006e-23
29.1107 0.0197689 -1.52272e-23 29.6277 0.0208675 1.06854e-23 30.0947 0.0218815 5.19989e-24
30.5082 0.0229823 4.64028e-24 30.8667 0.0243319 1.58679e-24 31.1759 0.0259595 1.10199e-23
31.4381 0.0280622 6.79431e-24 31.647 0.0306958 7.36355e-24 31.799 0.0338294 -4.49081e-24
31.9004 0.0373184 2.38092e-23 31.9642 0.0409637 1.04379e-23 32.0047 0.044583 1.69111e-23
32.0332 0.0480552 1.46955e-23 32.0568 0.0513169 2.69943e-24 32.0794 0.0543333 -1.89652e-23
32.1028 0.0570844 -1.15741e-23 32.1276 0.0595585 -4.62142e-24 32.1539 0.061755 -2.23963e-23
32.1816 0.0636863 1.02081e-23 32.2105 0.0653991 -1.0138e-23 32.2402 0.0669018 -4.23604e-24
32.2706 0.0680892 1.09952e-23 32.3015 0.0690455 -1.73541e-23 32.3326 0.0697849 -2.10356e-23
32.364 0.0703171 2.58861e-23 32.3956 0.0706524 4.51041e-24 32.4272 0.0708021 -8.15934e-24
32.4589 0.0707764 -2.47939e-24 32.4906 0.0705854 -2.54692e-24 32.5223 0.0702393 1.7271e-23
32.5539 0.0697477 1.81981e-23 32.5854 0.0691194 1.86188e-23 32.6169 0.0683756 5.42213e-24
32.6482 0.067512 -8.42292e-24 32.6794 0.0665392 5.11757e-24 32.7105 0.0654663 -1.94562e-23
32.7414 0.0643009 -1.88822e-24 32.7722 0.0630505 -7.1888e-24 32.8028 0.0617231 -1.29242e-23
32.8332 0.0603268 4.00409e-23 32.8635 0.0588699 -7.48053e-24 32.8937 0.0573601 -3.34885e-23
32.9236 0.0558055 -1.57647e-23 32.9535 0.0542138 4.65143e-25 32.9832 0.0525924 1.02184e-23
33.0127 0.0509485 2.37903e-23 33.0422 0.0492894 -1.25078e-23 33.0715 0.0476216 1.05423e-23
33.1007 0.045952 -2.07405e-23 33.1298 0.0442867 -2.01075e-23 33.1589 0.0426316 2.81131e-24
33.1879 0.0409918 -4.29884e-24 33.217 0.0393715 3.01029e-23 33.2462 0.0377742 5.93286e-24
33.2756 0.036202 -3.21086e-24 33.3052 0.034656 5.50918e-24 33.3354 0.0331359 2.38359e-23
33.3662 0.0316393 7.38169e-24 33.3978 0.0301615 4.88625e-24 33.4305 0.0286962 -4.48666e-23
33.4644 0.0272355 1.5056e-23 33.4996 0.0257706 6.14885e-23 33.5364 0.0242926 2.63821e-23
33.5748 0.022794 -2.40608e-23 33.6146 0.0212678 -3.57977e-23 33.6559 0.0197108 4.15659e-24
33.6985 0.0181226 2.85045e-23 33.7422 0.0165051 -1.49299e-23 33.7868 0.0148628 -1.83603e-23
33.8319 0.0132023 -5.27304e-23 33.8775 0.0115321 -1.65951e-23 33.923 0.00986091 1.1502e-23
33.9684 0.00819808 2.97312e-23 34.0133 0.00655184 -4.48243e-23 34.0575 0.00492769 -1.87633e-23
34.1011 0.00332877 5.85571e-24 34.1437 0.00175591 1.04761e-24 34.1856 0.000207061 1.05425e-23
34.2266 -0.00132243 3.6052e-23 34.2669 -0.00283897 -1.01762e-23 34.3064 -0.00434993 2.13519e-23
34.3453 -0.0058636 -2.24385e-23 34.3835 -0.00738921 4.7041e-23 34.421 -0.00893635 1.15789e-24
34.4578 -0.0105145 -2.10736e-23 34.4938 -0.0121335 -1.92121e-23 34.5291 -0.0138024 3.77493e-23
34.5636 -0.0155282 -2.9538e-23 34.5972 -0.0173183 2.27384e-23 34.63 -0.0191806 3.66762e-23
34.6619 -0.0211241 4.41759e-23 34.6929 -0.0231454 -4.20622e-23 34.7231 -0.0252541 -1.02261e-23
34.7523 -0.027462 -1.7814e-23 34.7807 -0.0297739 -4.88011e-23 34.8081 -0.0321938 -1.33916e-23
34.8346 -0.0347381 -2.87043e-23 34.8602 -0.0373987 -4.39187e-23 34.8849 -0.0401771 1.54895e-23
34.9087 -0.0430749 -2.74949e-23 34.9316 -0.0460921 1.48412e-25 34.9535 -0.0492286 -1.52273e-23
34.9746 -0.0524852 -7.21355e-25 34.9948 -0.0558614 3.36978e-24 35.0141 -0.059351 -1.48817e-23
35.0325 -0.0630055 -2.88554e-23 35.0501 -0.0667789 -1.41987e-23 35.0669 -0.0706068 1.52819e-23
35.0828 -0.0745128 -2.50386e-23 35.0979 -0.0785102 3.92133e-23 35.1122 -0.0825765 -2.89067e-23
35.1258 -0.0867167 6.01455e-25 35.1386 -0.090929 -1.17978e-23 35.1507 -0.0951953 -2.46037e-23
35.1621 -0.099506 1.33872e-23 35.1728 -0.103844 6.62666e-24 35.1828 -0.108197 9.09248e-24
35.1922 -0.112552 -1.99608e-23 35.2009 -0.116906 1.0046e-23 35.2091 -0.121233 2.07323e-24
35.2166 -0.125527 2.99878e-24 35.2237 -0.129771 1.0306e-23 35.2302 -0.133953 3.28346e-24
35.2363 -0.138031 -3.99606e-24 35.2417 -0.142128 -2.41471e-24 35.2467 -0.146049 1.52292e-25
35.2513 -0.149834 -1.27262e-24 35.2555 -0.153514 -3.05044e-24 35.2593 -0.157 3.10801e-24
35.2627 -0.160308 -8.86295e-24 35.2658 -0.163423 1.24208e-23 35.2685 -0.166327 -2.25348e-24
35.271 -0.169009 -2.62144e-23 35.2731 -0.171448 -3.18724e-24 35.2749 -0.173636 -2.89547e-23
35.2766 -0.175543 -1.48131e-23 35.2779 -0.177183 -3.98305e-23 35.2791 -0.178543 -4.49669e-23
35.28 -0.179581 -1.9039e-23 35.2808 -0.180249 -7.7457e-24 35.2814 -0.180602 2.86531e-24
35.2818 -0.180586 6.48197e-24 35.2821 -0.180205 -4.93117e-23 35.2822 -0.179451 -2.82042e-23
35.2822 -0.178309 1.02281e-23 35.2821 -0.17677 5.2516e-23 35.2819 -0.174828 -3.74084e-24
35.2816 -0.172476 6.04846e-23 35.2812 -0.169703 7.5529e-23 35.2807 -0.166513 4.91074e-23
35.2801 -0.162885 -9.28344e-23 35.2795 -0.15884 2.80306e-23 35.2787 -0.154347 1.38841e-24
35.278 -0.149438 -5.32482e-23 35.2771 -0.144065 -8.60517e-23 35.2762 -0.138306 1.08368e-23
35.2753 -0.132057 -3.52497e-23 35.2743 -0.125464 -1.19554e-22 35.2732 -0.11834 -9.43348e-23
35.2721 -0.110959 6.02423e-23 35.271 -0.102965 3.85212e-23 35.2697 -0.0948653 1.22268e-22
35.2685 -0.0860041 -1.55973e-22 35.2672 -0.0772832 -1.73652e-22 35.2658 -0.0675548 3.59827e-23
35.2643 -0.0583394 -1.97165e-22 35.2629 -0.047755 -1.23802e-23 35.2611 -0.0381795 1.52938e-22
35.2591 -0.0267937 -6.02273e-23 35.257 -0.0169372 -3.22904e-23 35.263 -0.00488178 4.17636e-23
        </DataArray>
        <DataArray type='Float32' Name='wallShearStress' NumberOfComponents='3' format='ascii'>
0 0 0 0 0 0 0 0 0
0 0 0 0 0 0 0 0 0
0 0 0 0 0 0 0 0 0
0 0 0 0 0 0 0 0 0
0 0 0 0 0 0 0 0 0
0 0 0 0 0 0 0 0 0
0 0 0 0 0 0 0 0 0
0 0 0 0 0 0 0 0 0
0 0 0 0 0 0 0 0 0
0 0 0 0 0 0 0 0 0
0 0 0 0 0 0 0 0 0
0 0 0 0 0 0 0 0 0
0 0 0 0 0 0 0 0 0
0 0 0 0 0 0 0 0 0
0 0 0 0 0 0 0 0 0
0 0 0 0 0 0 0 0 0
0 0 0 0 0 0 0 0 0
0 0 0 0 0 0 0 0 0
0 0 0 0 0 0 0 0 0
0 0 0 0 0 0 0 0 0
0 0 0 0 0 0 0 0 0
0 0 0 0 0 0 0 0 0
0 0 0 0 0 0 0 0 0
0 0 0 0 0 0 0 0 0
0 0 0 0 0 0 0 0 0
0 0 0 0 0 0 0 0 0
0 0 0 0 0 0 0 0 0
0 0 0 0 0 0 0 0 0
0 0 0 0 0 0 0 0 0
0 0 0 0 0 0 0 0 0
0 0 0 0 0 0 0 0 0
0 0 0 0 0 0 0 0 0
0 0 0 0 0 0 0 0 0
0 0 0 0 0 0 0 0 0
0 0 0 0 0 0 0 0 0
0 0 0 0 0 0 0 0 0
0 0 0 0 0 0 0 0 0
0 0 0 0 0 0 0 0 0
0 0 0 0 0 0 0 0 0
0 0 0 0 0 0 0 0 0
0 0 0 0 0 0 0 0 0
0 0 0 0 0 0 0 0 0
0 0 0 0 0 0 0 0 0
0 0 0 0 0 0 0 0 0
0 0 0 0 0 0 0 0 0
0 0 0 0 0 0 0 0 0
0 0 0 0 0 0 0 0 0
0 0 0 0 0 0 0 0 0
0 0 0 0 0 0 0 0 0
0 0 0 0 0 0 0 0 0
0 0 0 0 0 0 0 0 0
0 0 0 0 0 0 0 0 0
0 0 0 0 0 0 0 0 0
0 0 0 0 0 0 0 0 0
0 0 0 0 0 0 0 0 0
0 0 0 0 0 0 0 0 0
0 0 0 0 0 0 0 0 0
0 0 0 0 0 0 0 0 0
0 0 0 0 0 0 0 0 0
0 0 0 0 0 0 0 0 0
        </DataArray>
      </CellData>
      <PointData>
        <DataArray type='Float32' Name='k' format='ascii'>
4.93909 5.09451 5.09451 4.93909 5.00807 5.00807 4.54981 4.54981 4.13716
4.13716 3.75253 3.75253 3.37846 3.37846 3.00815 3.00815 2.64064 2.64064
2.27846 2.27846 1.92867 1.92867 1.60328 1.60328 1.3122 1.3122 1.05915
1.05915 0.842382 0.842382 0.658685 0.658685 0.50869 0.50869 0.394919 0.394919
0.316412 0.316412 0.267166 0.267166 0.238626 0.238626 0.223192 0.223192 0.215625
0.215625 0.212538 0.212538 0.21188 0.21188 0.212503 0.212503 0.213765 0.213765
0.215314 0.215314 0.216958 0.216958 0.218599 0.218599 0.22019 0.22019 0.22171
0.22171 0.223154 0.223154 0.224518 0.224518 0.225806 0.225806 0.227018 0.227018
0.228157 0.228157 0.229222 0.229222 0.230215 0.230215 0.23114 0.23114 0.231999
0.231999 0.232796 0.232796 0.233535 0.233535 0.234222 0.234222 0.234865 0.234865
0.235469 0.235469 0.236042 0.236042 0.23659 0.23659 0.237121 0.237121 0.23764
0.23764 0.238153 0.238153 0.238663 0.238663 0.239175 0.239175 0.239691 0.239691
0.240214 0.240214 0.240746 0.240746 0.241287 0.241287 0.24184 0.24184 0.242405
0.242405 0.242985 0.242985 0.243583 0.243583 0.2442 0.2442 0.244842 0.244842
0.245513 0.245513 0.246216 0.246216 0.246956 0.246956 0.24773 0.24773 0.248533
0.248533 0.249351 0.249351 0.25016 0.25016 0.25093 0.25093 0.25162 0.25162
0.252181 0.252181 0.252565 0.252565 0.252721 0.252721 0.252605 0.252605 0.252181
0.252181 0.251422 0.251422 0.250314 0.250314 0.248854 0.248854 0.247053 0.247053
0.244933 0.244933 0.242528 0.242528 0.239879 0.239879 0.237034 0.237034 0.234042
0.234042 0.230949 0.230949 0.22779 0.22779 0.224595 0.224595 0.221384 0.221384
0.21817 0.21817 0.214961 0.214961 0.211764 0.211764 0.208587 0.208587 0.205437
0.205437 0.202324 0.202324 0.199256 0.199256 0.19624 0.19624 0.193284 0.193284
0.190392 0.190392 0.187568 0.187568 0.184814 0.184814 0.182133 0.182133 0.179526
0.179526 0.176992 0.176992 0.174533 0.174533 0.172147 0.172147 0.169835 0.169835
0.167595 0.167595 0.165427 0.165427 0.16333 0.16333 0.161303 0.161303 0.159343
0.159343 0.157451 0.157451 0.155625 0.155625 0.153863 0.153863 0.152164 0.152164
0.150526 0.150526 0.148949 0.148949 0.14743 0.14743 0.145968 0.145968 0.144561
0.144561 0.143207 0.143207 0.141906 0.141906 0.140655 0.140655 0.139453 0.139453
0.138298 0.138298 0.137189 0.137189 0.136124 0.136124 0.135102 0.135102 0.134121
0.134121 0.13318 0.13318 0.132277 0.132277 0.131411 0.131411 0.13058 0.13058
0.129784 0.129784 0.129021 0.129021 0.128289 0.128289 0.127587 0.127587 0.126915
0.126915 0.126271 0.126271 0.125653 0.125653 0.125062 0.125062 0.124495 0.124495
0.123952 0.123952 0.123432 0.123432 0.122933 0.122933 0.122456 0.122456 0.121998
0.121998 0.12156 0.12156 0.12114 0.12114 0.120738 0.120738 0.120352 0.120352
0.119983 0.119983 0.119629 0.119629 0.11929 0.11929 0.118965 0.118965 0.118654
0.118654 0.118356 0.118356 0.11807 0.11807 0.117797 0.117797 0.117535 0.117535
0.117284 0.117284 0.117044 0.117044 0.116814 0.116814 0.116594 0.116594 0.116383
0.116383 0.116182 0.116182 0.115989 0.115989 0.115803 0.115803 0.115625 0.115625
0.115451 0.115451 0.115278 0.115278 0.115098 0.115098 0.114895 0.114895 0.114638
0.114638 0.114291 0.114291 0.113888 0.113888 0.113553 0.113553 0.113317 0.113317
0.11321 0.11321
        </DataArray>
        <DataArray type='Float32' Name='nut' format='ascii'>
8.6e-05 0.000165346 0.000165346 8.6e-05 0.000318843 0.000318843 0.000452297 0.000452297 0.000553972
0.000553972 0.000618856 0.000618856 0.000649568 0.000649568 0.000655316 0.000655316 0.000641942 0.000641942
0.000613903 0.000613903 0.000577127 0.000577127 0.000539059 0.000539059 0.000505139 0.000505139 0.00047578
0.00047578 0.00044227 0.00044227 0.000399213 0.000399213 0.000358492 0.000358492 0.000331748 0.000331748
0.000320851 0.000320851 0.000324158 0.000324158 0.000337996 0.000337996 0.000357477 0.000357477 0.0003777
0.0003777 0.00039627 0.00039627 0.000412848 0.000412848 0.000427647 0.000427647 0.000440992 0.000440992
0.000453195 0.000453195 0.000464514 0.000464514 0.000475149 0.000475149 0.000485253 0.000485253 0.00049494
0.00049494 0.000504296 0.000504296 0.000513381 0.000513381 0.00052224 0.00052224 0.000530901 0.000530901
0.000539383 0.000539383 0.000547698 0.000547698 0.000555854 0.000555854 0.000563857 0.000563857 0.000571715
0.000571715 0.000579433 0.000579433 0.000587019 0.000587019 0.000594485 0.000594485 0.000601841 0.000601841
0.0006091 0.0006091 0.000616276 0.000616276 0.000623384 0.000623384 0.000630439 0.000630439 0.000637453
0.000637453 0.000644442 0.000644442 0.000651416 0.000651416 0.000658389 0.000658389 0.000665369 0.000665369
0.000672366 0.000672366 0.000679388 0.000679388 0.000686442 0.000686442 0.000693534 0.000693534 0.000700668
0.000700668 0.00070785 0.00070785 0.000715086 0.000715086 0.000722381 0.000722381 0.000729738 0.000729738
0.000737161 0.000737161 0.000744648 0.000744648 0.000752192 0.000752192 0.000759777 0.000759777 0.000767373
0.000767373 0.00077493 0.00077493 0.000782382 0.000782382 0.000789641 0.000789641 0.000796601 0.000796601
0.000803142 0.000803142 0.000809139 0.000809139 0.000814465 0.000814465 0.000819005 0.000819005 0.000822662
0.000822662 0.000825358 0.000825358 0.000827043 0.000827043 0.000827694 0.000827694 0.000827318 0.000827318
0.00082595 0.00082595 0.000823656 0.000823656 0.000820523 0.000820523 0.000816654 0.000816654 0.000812161
0.000812161 0.000807154 0.000807154 0.000801733 0.000801733 0.000795983 0.000795983 0.000789974 0.000789974
0.000783759 0.000783759 0.000777386 0.000777386 0.000770893 0.000770893 0.000764317 0.000764317 0.000757695
0.000757695 0.00075106 0.00075106 0.000744447 0.000744447 0.000737881 0.000737881 0.000731388 0.000731388
0.000724986 0.000724986 0.00071869 0.00071869 0.000712511 0.000712511 0.00070646 0.00070646 0.000700541
0.000700541 0.00069476 0.00069476 0.000689122 0.000689122 0.000683628 0.000683628 0.00067828 0.00067828
0.000673079 0.000673079 0.000668026 0.000668026 0.00066312 0.00066312 0.000658362 0.000658362 0.00065375
0.00065375 0.000649283 0.000649283 0.000644961 0.000644961 0.000640782 0.000640782 0.000636744 0.000636744
0.000632846 0.000632846 0.000629086 0.000629086 0.000625461 0.000625461 0.000621968 0.000621968 0.000618606
0.000618606 0.000615371 0.000615371 0.000612261 0.000612261 0.000609272 0.000609272 0.000606403 0.000606403
0.000603649 0.000603649 0.000601009 0.000601009 0.000598479 0.000598479 0.000596055 0.000596055 0.000593736
0.000593736 0.000591517 0.000591517 0.000589395 0.000589395 0.000587368 0.000587368 0.000585432 0.000585432
0.000583584 0.000583584 0.000581822 0.000581822 0.000580141 0.000580141 0.00057854 0.00057854 0.000577015
0.000577015 0.000575564 0.000575564 0.000574183 0.000574183 0.000572871 0.000572871 0.000571624 0.000571624
0.00057044 0.00057044 0.000569316 0.000569316 0.00056825 0.00056825 0.000567239 0.000567239 0.000566281
0.000566281 0.000565375 0.000565375 0.000564517 0.000564517 0.000563705 0.000563705 0.000562938 0.000562938
0.000562214 0.000562214 0.00056153 0.00056153 0.000560885 0.000560885 0.000560277 0.000560277 0.000559704
0.000559704 0.000559165 0.000559165 0.000558658 0.000558658 0.000558181 0.000558181 0.000557733 0.000557733
0.000557312 0.000557312 0.000556917 0.000556917 0.000556545 0.000556545 0.000556194 0.000556194 0.00055586
0.00055586 0.000555541 0.000555541 0.000555228 0.000555228 0.000554912 0.000554912 0.000554574 0.000554574
0.000554175 0.000554175 0.000553639 0.000553639 0.0005528 0.0005528 0.000551299 0.000551299 0.000548415
0.000548415 0.000543157 0.000543157 0.000536549 0.000536549 0.000532197 0.000532197 0.000530746 0.000530746
0.000530388 0.000530388
        </DataArray>
        <DataArray type='Float32' Name='omega' format='ascii'>
52038.9 36459.7 36459.7 52038.9 16504.2 16504.2 10299.1 10299.1 7501.46
7501.46 5936.38 5936.38 4931.82 4931.82 4220.94 4220.94 3680.1 3680.1
3244.25 3244.25 2882.74 2882.74 2581.76 2581.76 2323.65 2323.65 2089.96
2089.96 1867.16 1867.16 1643.3 1643.3 1413.35 1413.35 1187.3 1187.3
985.742 985.742 825.199 825.199 707.319 707.319 625.311 625.311 571.435
571.435 536.651 536.651 513.395 513.395 497.026 497.026 484.815 484.815
475.158 475.158 467.107 467.107 460.1 460.1 453.794 453.794 447.981
447.981 442.53 442.53 437.355 437.355 432.4 432.4 427.628 427.628
423.013 423.013 418.535 418.535 414.181 414.181 409.942 409.942 405.809
405.809 401.778 401.778 397.844 397.844 394.004 394.004 390.255 390.255
386.596 386.596 383.023 383.023 379.535 379.535 376.13 376.13 372.805
372.805 369.558 369.558 366.384 366.384 363.281 363.281 360.246 360.246
357.275 357.275 354.364 354.364 351.511 351.511 348.714 348.714 345.97
345.97 343.279 343.279 340.64 340.64 338.055 338.055 335.526 335.526
333.058 333.058 330.654 330.654 328.321 328.321 326.062 326.062 323.881
323.881 321.777 321.777 319.747 319.747 317.782 317.782 315.871 315.871
313.997 313.997 312.144 312.144 310.294 310.294 308.432 308.432 306.545
306.545 304.623 304.623 302.662 302.662 300.66 300.66 298.619 298.619
296.546 296.546 294.451 294.451 292.346 292.346 290.248 290.248 288.169
288.169 286.124 286.124 284.118 284.118 282.157 282.157 280.239 280.239
278.36 278.36 276.514 276.514 274.696 274.696 272.902 272.902 271.131
271.131 269.381 269.381 267.652 267.652 265.947 265.947 264.267 264.267
262.611 262.611 260.983 260.983 259.381 259.381 257.808 257.808 256.264
256.264 254.75 254.75 253.265 253.265 251.811 251.811 250.388 250.388
248.995 248.995 247.634 247.634 246.303 246.303 245.004 245.004 243.735
243.735 242.498 242.498 241.291 241.291 240.115 240.115 238.97 238.97
237.854 237.854 236.769 236.769 235.713 235.713 234.685 234.685 233.687
233.687 232.716 232.716 231.773 231.773 230.856 230.856 229.966 229.966
229.102 229.102 228.263 228.263 227.449 227.449 226.659 226.659 225.893
225.893 225.149 225.149 224.428 224.428 223.728 223.728 223.049 223.049
222.391 222.391 221.752 221.752 221.133 221.133 220.533 220.533 219.951
219.951 219.386 219.386 218.838 218.838 218.307 218.307 217.792 217.792
217.292 217.292 216.807 216.807 216.337 216.337 215.88 215.88 215.438
215.438 215.008 215.008 214.591 214.591 214.186 214.186 213.793 213.793
213.412 213.412 213.041 213.041 212.682 212.682 212.333 212.333 211.994
211.994 211.666 211.666 211.346 211.346 211.037 211.037 210.737 210.737
210.446 210.446 210.164 210.164 209.892 209.892 209.629 209.629 209.375
209.375 209.133 209.133 208.903 208.903 208.688 208.688 208.493 208.493
208.329 208.329 208.219 208.219 208.209 208.209 208.408 208.408 209.036
209.036 210.426 210.426 212.265 212.265 213.367 213.367 213.504 213.504
213.447 213.447
        </DataArray>
        <DataArray type='Float32' Name='p' format='ascii'>
0 0 0 0 0 0 0 0 0
0 0 0 0 0 0 0 0 0
0 0 0 0 0 0 0 0 0
0 0 0 0 0 0 0 0 0
0 0 0 0 0 0 0 0 0
0 0 0 0 0 0 0 0 0
0 0 0 0 0 0 0 0 0
0 0 0 0 0 0 0 0 0
0 0 0 0 0 0 0 0 0
0 0 0 0 0 0 0 0 0
0 0 0 0 0 0 0 0 0
0 0 0 0 0 0 0 0 0
0 0 0 0 0 0 0 0 0
0 0 0 0 0 0 0 0 0
0 0 0 0 0 0 0 0 0
0 0 0 0 0 0 0 0 0
0 0 0 0 0 0 0 0 0
0 0 0 0 0 0 0 0 0
0 0 0 0 0 0 0 0 0
0 0 0 0 0 0 0 0 0
0 0 0 0 0 0 0 0 0
0 0 0 0 0 0 0 0 0
0 0 0 0 0 0 0 0 0
0 0 0 0 0 0 0 0 0
0 0 0 0 0 0 0 0 0
0 0 0 0 0 0 0 0 0
0 0 0 0 0 0 0 0 0
0 0 0 0 0 0 0 0 0
0 0 0 0 0 0 0 0 0
0 0 0 0 0 0 0 0 0
0 0 0 0 0 0 0 0 0
0 0 0 0 0 0 0 0 0
0 0 0 0 0 0 0 0 0
0 0 0 0 0 0 0 0 0
0 0 0 0 0 0 0 0 0
0 0 0 0 0 0 0 0 0
0 0 0 0 0 0 0 0 0
0 0 0 0 0 0 0 0 0
0 0 0 0 0 0 0 0 0
0 0 0 0 0 0 0 0 0
0 0
        </DataArray>
        <DataArray type='Float32' Name='U' NumberOfComponents='3' format='ascii'>
17.3606 0.00144487 2.90485e-23 19.3105 0.00232788 1.90412e-23 19.3105 0.00232788 1.90412e-23
17.3606 0.00144487 2.90485e-23 22.2586 0.00447774 -5.80324e-24 22.2586 0.00447774 -5.80324e-24
23.9284 0.00702783 -1.13807e-23 23.9284 0.00702783 -1.13807e-23 25.1171 0.00952524 -8.78222e-24
25.1171 0.00952524 -8.78222e-24 26.0652 0.0118737 -4.21268e-24 26.0652 0.0118737 -4.21268e-24
26.8738 0.0140381 6.12396e-24 26.8738 0.0140381 6.12396e-24 27.5901 0.015972 -3.37627e-24
27.5901 0.015972 -3.37627e-24 28.2372 0.0176574 1.05917e-24 28.2372 0.0176574 1.05917e-24
28.8281 0.019104 -5.63235e-25 28.8281 0.019104 -5.63235e-25 29.3692 0.0203182 -2.27093e-24
29.3692 0.0203182 -2.27093e-24 29.8612 0.0213745 7.94268e-24 29.8612 0.0213745 7.94268e-24
30.3014 0.0224319 4.92009e-24 30.3014 0.0224319 4.92009e-24 30.6875 0.0236571 3.11354e-24
30.6875 0.0236571 3.11354e-24 31.0213 0.0251457 6.30332e-24 31.0213 0.0251457 6.30332e-24
31.307 0.0270109 8.90711e-24 31.307 0.0270109 8.90711e-24 31.5425 0.029379 7.07892e-24
31.5425 0.029379 7.07892e-24 31.723 0.0322626 1.4364e-24 31.723 0.0322626 1.4364e-24
31.8497 0.0355739 9.65911e-24 31.8497 0.0355739 9.65911e-24 31.9323 0.039141 1.71236e-23
31.9323 0.039141 1.71236e-23 31.9845 0.0427733 1.36745e-23 31.9845 0.0427733 1.36745e-23
32.019 0.0463191 1.58033e-23 32.019 0.0463191 1.58033e-23 32.045 0.0496861 8.69749e-24
32.045 0.0496861 8.69749e-24 32.0681 0.0528251 -8.13281e-24 32.0681 0.0528251 -8.13281e-24
32.0911 0.0557088 -1.52696e-23 32.0911 0.0557088 -1.52696e-23 32.1152 0.0583214 -8.09776e-24
32.1152 0.0583214 -8.09776e-24 32.1407 0.0606567 -1.35088e-23 32.1407 0.0606567 -1.35088e-23
32.1678 0.0627207 -6.0942e-24 32.1678 0.0627207 -6.0942e-24 32.1961 0.0645427 3.51189e-26
32.1961 0.0645427 3.51189e-26 32.2254 0.0661505 -7.18705e-24 32.2254 0.0661505 -7.18705e-24
32.2554 0.0674955 3.3795e-24 32.2554 0.0674955 3.3795e-24 32.286 0.0685674 -3.17937e-24
32.286 0.0685674 -3.17937e-24 32.317 0.0694152 -1.91948e-23 32.317 0.0694152 -1.91948e-23
32.3483 0.070051 2.42506e-24 32.3483 0.070051 2.42506e-24 32.3798 0.0704848 1.51983e-23
32.3798 0.0704848 1.51983e-23 32.4114 0.0707273 -1.82441e-24 32.4114 0.0707273 -1.82441e-24
32.4431 0.0707892 -5.31939e-24 32.4431 0.0707892 -5.31939e-24 32.4747 0.0706809 -2.51315e-24
32.4747 0.0706809 -2.51315e-24 32.5064 0.0704124 7.36192e-24 32.5064 0.0704124 7.36192e-24
32.5381 0.0699935 1.77345e-23 32.5381 0.0699935 1.77345e-23 32.5696 0.0694336 1.84085e-23
32.5696 0.0694336 1.84085e-23 32.6011 0.0687475 1.20205e-23 32.6011 0.0687475 1.20205e-23
32.6325 0.0679438 -1.50032e-24 32.6325 0.0679438 -1.50032e-24 32.6638 0.0670256 -1.65275e-24
32.6638 0.0670256 -1.65275e-24 32.695 0.0660028 -7.16916e-24 32.695 0.0660028 -7.16916e-24
32.726 0.0648836 -1.06723e-23 32.726 0.0648836 -1.06723e-23 32.7568 0.0636757 -4.53848e-24
32.7568 0.0636757 -4.53848e-24 32.7875 0.0623868 -1.00565e-23 32.7875 0.0623868 -1.00565e-23
32.818 0.061025 1.3558e-23 32.818 0.061025 1.3558e-23 32.8484 0.0595983 1.62805e-23
32.8484 0.0595983 1.62805e-23 32.8786 0.058115 -2.04843e-23 32.8786 0.058115 -2.04843e-23
32.9086 0.0565828 -2.46267e-23 32.9086 0.0565828 -2.46267e-23 32.9386 0.0550096 -7.6499e-24
32.9386 0.0550096 -7.6499e-24 32.9683 0.0534031 5.3417e-24 32.9683 0.0534031 5.3417e-24
32.9979 0.0517705 1.70043e-23 32.9979 0.0517705 1.70043e-23 33.0274 0.050119 5.64153e-24
33.0274 0.050119 5.64153e-24 33.0568 0.0484555 -9.82968e-25 33.0568 0.0484555 -9.82968e-25
33.0861 0.0467868 -5.09887e-24 33.0861 0.0467868 -5.09887e-24 33.1153 0.0451193 -2.0424e-23
33.1153 0.0451193 -2.0424e-23 33.1444 0.0434591 -8.64831e-24 33.1444 0.0434591 -8.64831e-24
33.1734 0.0418117 -7.43704e-25 33.1734 0.0418117 -7.43704e-25 33.2025 0.0401816 1.29017e-23
33.2025 0.0401816 1.29017e-23 33.2316 0.0385729 1.80181e-23 33.2316 0.0385729 1.80181e-23
33.2609 0.0369881 1.36109e-24 33.2609 0.0369881 1.36109e-24 33.2904 0.035429 1.14908e-24
33.2904 0.035429 1.14908e-24 33.3203 0.033896 1.46724e-23 33.3203 0.033896 1.46724e-23
33.3508 0.0323876 1.5609e-23 33.3508 0.0323876 1.5609e-23 33.382 0.0309004 6.13399e-24
33.382 0.0309004 6.13399e-24 33.4141 0.0294289 -1.99897e-23 33.4141 0.0294289 -1.99897e-23
33.4474 0.0279659 -1.4906e-23 33.4474 0.0279659 -1.4906e-23 33.482 0.0265031 3.82718e-23
33.482 0.0265031 3.82718e-23 33.518 0.0250316 4.39357e-23 33.518 0.0250316 4.39357e-23
33.5556 0.0235433 1.16128e-24 33.5556 0.0235433 1.16128e-24 33.5947 0.0220309 -2.99291e-23
33.5947 0.0220309 -2.99291e-23 33.6353 0.0204893 -1.58211e-23 33.6353 0.0204893 -1.58211e-23
33.6772 0.0189167 1.63302e-23 33.6772 0.0189167 1.63302e-23 33.7203 0.0173139 6.78785e-24
33.7203 0.0173139 6.78785e-24 33.7645 0.015684 -1.6645e-23 33.7645 0.015684 -1.6645e-23
33.8094 0.0140326 -3.55448e-23 33.8094 0.0140326 -3.55448e-23 33.8547 0.0123672 -3.46633e-23
33.8547 0.0123672 -3.46633e-23 33.9002 0.0106965 -2.547e-24 33.9002 0.0106965 -2.547e-24
33.9457 0.00902952 2.06163e-23 33.9457 0.00902952 2.06163e-23 33.9908 0.00737498 -7.54537e-24
33.9908 0.00737498 -7.54537e-24 34.0354 0.00573979 -3.17942e-23 34.0354 0.00573979 -3.17942e-23
34.0793 0.00412826 -6.45422e-24 34.0793 0.00412826 -6.45422e-24 34.1224 0.00254237 3.45174e-24
34.1224 0.00254237 3.45174e-24 34.1647 0.000981513 5.7949e-24 34.1647 0.000981513 5.7949e-24
34.2061 -0.000557654 2.32968e-23 34.2061 -0.000557654 2.32968e-23 34.2468 -0.00208067 1.29388e-23
34.2468 -0.00208067 1.29388e-23 34.2867 -0.00359442 5.58727e-24 34.2867 -0.00359442 5.58727e-24
34.3259 -0.00510674 -5.4241e-25 34.3259 -0.00510674 -5.4241e-25 34.3644 -0.00662638 1.22999e-23
34.3644 -0.00662638 1.22999e-23 34.4023 -0.00816275 2.41004e-23 34.4023 -0.00816275 2.41004e-23
34.4394 -0.00972539 -9.95735e-24 34.4394 -0.00972539 -9.95735e-24 34.4758 -0.011324 -2.01429e-23
34.4758 -0.011324 -2.01429e-23 34.5115 -0.0129679 9.26726e-24 34.5115 -0.0129679 9.26726e-24
34.5463 -0.0146653 4.1072e-24 34.5463 -0.0146653 4.1072e-24 34.5804 -0.0164232 -3.40109e-24
34.5804 -0.0164232 -3.40109e-24 34.6136 -0.0182494 2.97069e-23 34.6136 -0.0182494 2.97069e-23
34.6459 -0.0201523 4.04259e-23 34.6459 -0.0201523 4.04259e-23 34.6774 -0.0221347 1.05911e-24
34.6774 -0.0221347 1.05911e-24 34.708 -0.0241997 -2.6145e-23 34.708 -0.0241997 -2.6145e-23
34.7377 -0.026358 -1.40199e-23 34.7377 -0.026358 -1.40199e-23 34.7665 -0.0286179 -3.33067e-23
34.7665 -0.0286179 -3.33067e-23 34.7944 -0.0309838 -3.10974e-23 34.7944 -0.0309838 -3.10974e-23
34.8214 -0.0334658 -2.10475e-23 34.8214 -0.0334658 -2.10475e-23 34.8474 -0.0360683 -3.6311e-23
34.8474 -0.0360683 -3.6311e-23 34.8726 -0.0387878 -1.42165e-23 34.8726 -0.0387878 -1.42165e-23
34.8968 -0.0416259 -6.00131e-24 34.8968 -0.0416259 -6.00131e-24 34.9201 -0.0445834 -1.36742e-23
34.9201 -0.0445834 -1.36742e-23 34.9425 -0.0476602 -7.5389e-24 34.9425 -0.0476602 -7.5389e-24
34.9641 -0.0508568 -7.97483e-24 34.9641 -0.0508568 -7.97483e-24 34.9847 -0.0541732 1.32406e-24
34.9847 -0.0541732 1.32406e-24 35.0044 -0.0576061 -5.75528e-24 35.0044 -0.0576061 -5.75528e-24
35.0233 -0.0611781 -2.1868e-23 35.0233 -0.0611781 -2.1868e-23 35.0413 -0.064892 -2.15276e-23
35.0413 -0.064892 -2.15276e-23 35.0585 -0.0686927 5.40392e-25 35.0585 -0.0686927 5.40392e-25
35.0748 -0.0725596 -4.87666e-24 35.0748 -0.0725596 -4.87666e-24 35.0903 -0.0765113 7.08462e-24
35.0903 -0.0765113 7.08462e-24 35.1051 -0.0805432 5.15631e-24 35.1051 -0.0805432 5.15631e-24
35.119 -0.0846464 -1.4154e-23 35.119 -0.0846464 -1.4154e-23 35.1322 -0.0888227 -5.59759e-24
35.1322 -0.0888227 -5.59759e-24 35.1447 -0.093062 -1.82002e-23 35.1447 -0.093062 -1.82002e-23
35.1564 -0.0973505 -5.61015e-24 35.1564 -0.0973505 -5.61015e-24 35.1674 -0.101675 1.00073e-23
35.1674 -0.101675 1.00073e-23 35.1778 -0.10602 7.85944e-24 35.1778 -0.10602 7.85944e-24
35.1875 -0.110374 -5.43259e-24 35.1875 -0.110374 -5.43259e-24 35.1965 -0.114729 -4.95903e-24
35.1965 -0.114729 -4.95903e-24 35.205 -0.119069 6.06006e-24 35.205 -0.119069 6.06006e-24
35.2128 -0.12338 2.53595e-24 35.2128 -0.12338 2.53595e-24 35.2202 -0.127649 6.65194e-24
35.2202 -0.127649 6.65194e-24 35.2269 -0.131862 6.79515e-24 35.2269 -0.131862 6.79515e-24
35.2332 -0.135992 -3.55842e-25 35.2332 -0.135992 -3.55842e-25 35.239 -0.14008 -3.20549e-24
35.239 -0.14008 -3.20549e-24 35.2442 -0.144088 -1.13138e-24 35.2442 -0.144088 -1.13138e-24
35.249 -0.147941 -5.60065e-25 35.249 -0.147941 -5.60065e-25 35.2534 -0.151674 -2.1614e-24
35.2534 -0.151674 -2.1614e-24 35.2574 -0.155257 2.83405e-26 35.2574 -0.155257 2.83405e-26
35.261 -0.158654 -2.87658e-24 35.261 -0.158654 -2.87658e-24 35.2643 -0.161865 1.77732e-24
35.2643 -0.161865 1.77732e-24 35.2672 -0.164875 5.08483e-24 35.2672 -0.164875 5.08483e-24
35.2697 -0.167668 -1.4232e-23 35.2697 -0.167668 -1.4232e-23 35.272 -0.170228 -1.47027e-23
35.272 -0.170228 -1.47027e-23 35.274 -0.172542 -1.60688e-23 35.274 -0.172542 -1.60688e-23
35.2758 -0.174589 -2.18851e-23 35.2758 -0.174589 -2.18851e-23 35.2772 -0.176363 -2.73196e-23
35.2772 -0.176363 -2.73196e-23 35.2785 -0.177863 -4.23982e-23 35.2785 -0.177863 -4.23982e-23
35.2796 -0.179062 -3.20054e-23 35.2796 -0.179062 -3.20054e-23 35.2804 -0.179915 -1.33935e-23
35.2804 -0.179915 -1.33935e-23 35.2811 -0.180426 -2.44126e-24 35.2811 -0.180426 -2.44126e-24
35.2816 -0.180594 4.67327e-24 35.2816 -0.180594 4.67327e-24 35.2819 -0.180396 -2.1409e-23
35.2819 -0.180396 -2.1409e-23 35.2822 -0.179828 -3.87602e-23 35.2822 -0.179828 -3.87602e-23
35.2822 -0.17888 -8.99233e-24 35.2822 -0.17888 -8.99233e-24 35.2822 -0.177539 3.13672e-23
35.2822 -0.177539 3.13672e-23 35.282 -0.175799 2.43942e-23 35.282 -0.175799 2.43942e-23
35.2817 -0.173652 2.83642e-23 35.2817 -0.173652 2.83642e-23 35.2814 -0.17109 6.8005e-23
35.2814 -0.17109 6.8005e-23 35.2809 -0.168108 6.23216e-23 35.2809 -0.168108 6.23216e-23
35.2804 -0.1647 -2.1845e-23 35.2804 -0.1647 -2.1845e-23 35.2798 -0.160863 -3.24181e-23
35.2798 -0.160863 -3.24181e-23 35.2791 -0.156594 1.47132e-23 35.2791 -0.156594 1.47132e-23
35.2784 -0.151893 -2.59222e-23 35.2784 -0.151893 -2.59222e-23 35.2775 -0.146752 -6.96452e-23
35.2775 -0.146752 -6.96452e-23 35.2767 -0.141187 -3.76219e-23 35.2767 -0.141187 -3.76219e-23
35.2757 -0.135183 -1.21994e-23 35.2757 -0.135183 -1.21994e-23 35.2748 -0.128762 -7.73887e-23
35.2748 -0.128762 -7.73887e-23 35.2737 -0.121903 -1.06949e-22 35.2737 -0.121903 -1.06949e-22
35.2727 -0.114651 -1.70719e-23 35.2727 -0.114651 -1.70719e-23 35.2715 -0.106964 4.93854e-23
35.2715 -0.106964 4.93854e-23 35.2704 -0.0989167 8.03799e-23 35.2704 -0.0989167 8.03799e-23
35.2691 -0.0904363 -1.68024e-23 35.2691 -0.0904363 -1.68024e-23 35.2678 -0.0816452 -1.64809e-22
35.2678 -0.0816452 -1.64809e-22 35.2665 -0.0724208 -6.88744e-23 35.2665 -0.0724208 -6.88744e-23
35.2651 -0.0629489 -8.05456e-23 35.2651 -0.0629489 -8.05456e-23 35.2636 -0.0530493 -1.04809e-22
35.2636 -0.0530493 -1.04809e-22 35.262 -0.0429692 7.02448e-23 35.262 -0.0429692 7.02448e-23
35.2601 -0.032489 4.63999e-23 35.2601 -0.032489 4.63999e-23 35.258 -0.0218676 -4.62649e-23
35.258 -0.0218676 -4.62649e-23 35.26 -0.0109121 4.72023e-24 35.26 -0.0109121 4.72023e-24
35.263 -0.00488178 4.17636e-23 35.263 -0.00488178 4.17636e-23
        </DataArray>
        <DataArray type='Float32' Name='wallShearStress' NumberOfComponents='3' format='ascii'>
0 0 0 0 0 0 0 0 0
0 0 0 0 0 0 0 0 0
0 0 0 0 0 0 0 0 0
0 0 0 0 0 0 0 0 0
0 0 0 0 0 0 0 0 0
0 0 0 0 0 0 0 0 0
0 0 0 0 0 0 0 0 0
0 0 0 0 0 0 0 0 0
0 0 0 0 0 0 0 0 0
0 0 0 0 0 0 0 0 0
0 0 0 0 0 0 0 0 0
0 0 0 0 0 0 0 0 0
0 0 0 0 0 0 0 0 0
0 0 0 0 0 0 0 0 0
0 0 0 0 0 0 0 0 0
0 0 0 0 0 0 0 0 0
0 0 0 0 0 0 0 0 0
0 0 0 0 0 0 0 0 0
0 0 0 0 0 0 0 0 0
0 0 0 0 0 0 0 0 0
0 0 0 0 0 0 0 0 0
0 0 0 0 0 0 0 0 0
0 0 0 0 0 0 0 0 0
0 0 0 0 0 0 0 0 0
0 0 0 0 0 0 0 0 0
0 0 0 0 0 0 0 0 0
0 0 0 0 0 0 0 0 0
0 0 0 0 0 0 0 0 0
0 0 0 0 0 0 0 0 0
0 0 0 0 0 0 0 0 0
0 0 0 0 0 0 0 0 0
0 0 0 0 0 0 0 0 0
0 0 0 0 0 0 0 0 0
0 0 0 0 0 0 0 0 0
0 0 0 0 0 0 0 0 0
0 0 0 0 0 0 0 0 0
0 0 0 0 0 0 0 0 0
0 0 0 0 0 0 0 0 0
0 0 0 0 0 0 0 0 0
0 0 0 0 0 0 0 0 0
0 0 0 0 0 0 0 0 0
0 0 0 0 0 0 0 0 0
0 0 0 0 0 0 0 0 0
0 0 0 0 0 0 0 0 0
0 0 0 0 0 0 0 0 0
0 0 0 0 0 0 0 0 0
0 0 0 0 0 0 0 0 0
0 0 0 0 0 0 0 0 0
0 0 0 0 0 0 0 0 0
0 0 0 0 0 0 0 0 0
0 0 0 0 0 0 0 0 0
0 0 0 0 0 0 0 0 0
0 0 0 0 0 0 0 0 0
0 0 0 0 0 0 0 0 0
0 0 0 0 0 0 0 0 0
0 0 0 0 0 0 0 0 0
0 0 0 0 0 0 0 0 0
0 0 0 0 0 0 0 0 0
0 0 0 0 0 0 0 0 0
0 0 0 0 0 0 0 0 0
0 0 0 0 0 0 0 0 0
0 0 0 0 0 0 0 0 0
0 0 0 0 0 0 0 0 0
0 0 0 0 0 0 0 0 0
0 0 0 0 0 0 0 0 0
0 0 0 0 0 0 0 0 0
0 0 0 0 0 0 0 0 0
0 0 0 0 0 0 0 0 0
0 0 0 0 0 0 0 0 0
0 0 0 0 0 0 0 0 0
0 0 0 0 0 0 0 0 0
0 0 0 0 0 0 0 0 0
0 0 0 0 0 0 0 0 0
0 0 0 0 0 0 0 0 0
0 0 0 0 0 0 0 0 0
0 0 0 0 0 0 0 0 0
0 0 0 0 0 0 0 0 0
0 0 0 0 0 0 0 0 0
0 0 0 0 0 0 0 0 0
0 0 0 0 0 0 0 0 0
0 0 0 0 0 0 0 0 0
0 0 0 0 0 0 0 0 0
0 0 0 0 0 0 0 0 0
0 0 0 0 0 0 0 0 0
0 0 0 0 0 0 0 0 0
0 0 0 0 0 0 0 0 0
0 0 0 0 0 0 0 0 0
0 0 0 0 0 0 0 0 0
0 0 0 0 0 0 0 0 0
0 0 0 0 0 0 0 0 0
0 0 0 0 0 0 0 0 0
0 0 0 0 0 0 0 0 0
0 0 0 0 0 0 0 0 0
0 0 0 0 0 0 0 0 0
0 0 0 0 0 0 0 0 0
0 0 0 0 0 0 0 0 0
0 0 0 0 0 0 0 0 0
0 0 0 0 0 0 0 0 0
0 0 0 0 0 0 0 0 0
0 0 0 0 0 0 0 0 0
0 0 0 0 0 0 0 0 0
0 0 0 0 0 0 0 0 0
0 0 0 0 0 0 0 0 0
0 0 0 0 0 0 0 0 0
0 0 0 0 0 0 0 0 0
0 0 0 0 0 0 0 0 0
0 0 0 0 0 0 0 0 0
0 0 0 0 0 0 0 0 0
0 0 0 0 0 0 0 0 0
0 0 0 0 0 0 0 0 0
0 0 0 0 0 0 0 0 0
0 0 0 0 0 0 0 0 0
0 0 0 0 0 0 0 0 0
0 0 0 0 0 0 0 0 0
0 0 0 0 0 0 0 0 0
0 0 0 0 0 0 0 0 0
0 0 0 0 0 0 0 0 0
0 0 0 0 0 0 0 0 0
0 0 0 0 0 0 0 0 0
0 0 0 0 0 0 0 0 0
0 0 0 0 0 0
        </DataArray>
      </PointData>
    </Piece>
  </PolyData>
</VTKFile>
