<?xml version='1.0'?>
<!-- patch='bottomWall' time='20' index='20' -->
<VTKFile type='PolyData' version='0.1' byte_order='LittleEndian' header_type='UInt64'>
  <PolyData>
    <FieldData>
      <DataArray type='Float32' Name='TimeValue' NumberOfTuples='1' format='ascii'>
20
      </DataArray>
    </FieldData>
    <Piece NumberOfPoints='1042' NumberOfPolys='520'>
      <Points>
        <DataArray type='Float32' Name='Points' NumberOfComponents='3' format='ascii'>
-0.9 0 -0.01 -0.898901 0 -0.01 -0.898901 0 0.01
-0.9 0 0.01 -0.897373 0 -0.01 -0.897373 0 0.01
-0.895561 0 -0.01 -0.895561 0 0.01 -0.893612 0 -0.01
-0.893612 0 0.01 -0.891675 0 -0.01 -0.891675 0 0.01
-0.889896 0 -0.01 -0.889896 0 0.01 -0.8882 0 -0.01
-0.8882 0 0.01 -0.8865 0 -0.01 -0.8865 0 0.01
-0.884796 0 -0.01 -0.884796 0 0.01 -0.883089 0 -0.01
-0.883089 0 0.01 -0.881378 0 -0.01 -0.881378 0 0.01
-0.879663 0 -0.01 -0.879663 0 0.01 -0.877945 0 -0.01
-0.877945 0 0.01 -0.876223 0 -0.01 -0.876223 0 0.01
-0.874498 0 -0.01 -0.874498 0 0.01 -0.872768 0 -0.01
-0.872768 0 0.01 -0.871036 0 -0.01 -0.871036 0 0.01
-0.869299 0 -0.01 -0.869299 0 0.01 -0.867559 0 -0.01
-0.867559 0 0.01 -0.865815 0 -0.01 -0.865815 0 0.01
-0.864068 0 -0.01 -0.864068 0 0.01 -0.862316 0 -0.01
-0.862316 0 0.01 -0.860562 0 -0.01 -0.860562 0 0.01
-0.858803 0 -0.01 -0.858803 0 0.01 -0.857041 0 -0.01
-0.857041 0 0.01 -0.855274 0 -0.01 -0.855274 0 0.01
-0.853505 0 -0.01 -0.853505 0 0.01 -0.851731 0 -0.01
-0.851731 0 0.01 -0.849954 0 -0.01 -0.849954 0 0.01
-0.848172 0 -0.01 -0.848172 0 0.01 -0.846388 0 -0.01
-0.846388 0 0.01 -0.844599 0 -0.01 -0.844599 0 0.01
-0.842806 0 -0.01 -0.842806 0 0.01 -0.84101 0 -0.01
-0.84101 0 0.01 -0.83921 0 -0.01 -0.83921 0 0.01
-0.837406 0 -0.01 -0.837406 0 0.01 -0.835598 0 -0.01
-0.835598 0 0.01 -0.833787 0 -0.01 -0.833787 0 0.01
-0.831971 0 -0.01 -0.831971 0 0.01 -0.830152 0 -0.01
-0.830152 0 0.01 -0.828329 0 -0.01 -0.828329 0 0.01
-0.826502 0 -0.01 -0.826502 0 0.01 -0.824671 0 -0.01
-0.824671 0 0.01 -0.822837 0 -0.01 -0.822837 0 0.01
-0.820998 0 -0.01 -0.820998 0 0.01 -0.819156 0 -0.01
-0.819156 0 0.01 -0.817309 0 -0.01 -0.817309 0 0.01
-0.815459 0 -0.01 -0.815459 0 0.01 -0.813605 0 -0.01
-0.813605 0 0.01 -0.811746 0 -0.01 -0.811746 0 0.01
-0.809884 0 -0.01 -0.809884 0 0.01 -0.808018 0 -0.01
-0.808018 0 0.01 -0.806148 0 -0.01 -0.806148 0 0.01
-0.804274 0 -0.01 -0.804274 0 0.01 -0.802396 0 -0.01
-0.802396 0 0.01 -0.800514 0 -0.01 -0.800514 0 0.01
-0.798629 0 -0.01 -0.798629 0 0.01 -0.796739 0 -0.01
-0.796739 0 0.01 -0.794845 0 -0.01 -0.794845 0 0.01
-0.792947 0 -0.01 -0.792947 0 0.01 -0.791045 0 -0.01
-0.791045 0 0.01 -0.789139 0 -0.01 -0.789139 0 0.01
-0.787229 0 -0.01 -0.787229 0 0.01 -0.785315 0 -0.01
-0.785315 0 0.01 -0.783397 0 -0.01 -0.783397 0 0.01
-0.781475 0 -0.01 -0.781475 0 0.01 -0.779548 0 -0.01
-0.779548 0 0.01 -0.777618 0 -0.01 -0.777618 0 0.01
-0.775684 0 -0.01 -0.775684 0 0.01 -0.773745 0 -0.01
-0.773745 0 0.01 -0.771803 0 -0.01 -0.771803 0 0.01
-0.769856 0 -0.01 -0.769856 0 0.01 -0.767905 0 -0.01
-0.767905 0 0.01 -0.76595 0 -0.01 -0.76595 0 0.01
-0.763991 0 -0.01 -0.763991 0 0.01 -0.762028 0 -0.01
-0.762028 0 0.01 -0.76006 0 -0.01 -0.76006 0 0.01
-0.758088 0 -0.01 -0.758088 0 0.01 -0.756113 0 -0.01
-0.756113 0 0.01 -0.754133 0 -0.01 -0.754133 0 0.01
-0.752149 0 -0.01 -0.752149 0 0.01 -0.75016 0 -0.01
-0.75016 0 0.01 -0.748168 0 -0.01 -0.748168 0 0.01
-0.746171 0 -0.01 -0.746171 0 0.01 -0.74417 0 -0.01
-0.74417 0 0.01 -0.742164 0 -0.01 -0.742164 0 0.01
-0.740155 0 -0.01 -0.740155 0 0.01 -0.738141 0 -0.01
-0.738141 0 0.01 -0.736123 0 -0.01 -0.736123 0 0.01
-0.734101 0 -0.01 -0.734101 0 0.01 -0.732074 0 -0.01
-0.732074 0 0.01 -0.730043 0 -0.01 -0.730043 0 0.01
-0.728008 0 -0.01 -0.728008 0 0.01 -0.725968 0 -0.01
-0.725968 0 0.01 -0.723924 0 -0.01 -0.723924 0 0.01
-0.721876 0 -0.01 -0.721876 0 0.01 -0.719824 0 -0.01
-0.719824 0 0.01 -0.717767 0 -0.01 -0.717767 0 0.01
-0.715706 0 -0.01 -0.715706 0 0.01 -0.71364 0 -0.01
-0.71364 0 0.01 -0.71157 0 -0.01 -0.71157 0 0.01
-0.709496 0 -0.01 -0.709496 0 0.01 -0.707417 0 -0.01
-0.707417 0 0.01 -0.705334 0 -0.01 -0.705334 0 0.01
-0.703246 0 -0.01 -0.703246 0 0.01 -0.701154 0 -0.01
-0.701154 0 0.01 -0.699058 0 -0.01 -0.699058 0 0.01
-0.696957 0 -0.01 -0.696957 0 0.01 -0.694851 0 -0.01
-0.694851 0 0.01 -0.692742 0 -0.01 -0.692742 0 0.01
-0.690627 0 -0.01 -0.690627 0 0.01 -0.688509 0 -0.01
-0.688509 0 0.01 -0.686385 0 -0.01 -0.686385 0 0.01
-0.684258 0 -0.01 -0.684258 0 0.01 -0.682125 0 -0.01
-0.682125 0 0.01 -0.679989 0 -0.01 -0.679989 0 0.01
-0.677847 0 -0.01 -0.677847 0 0.01 -0.675701 0 -0.01
-0.675701 0 0.01 -0.673551 0 -0.01 -0.673551 0 0.01
-0.671396 0 -0.01 -0.671396 0 0.01 -0.669237 0 -0.01
-0.669237 0 0.01 -0.667073 0 -0.01 -0.667073 0 0.01
-0.664904 0 -0.01 -0.664904 0 0.01 -0.662731 0 -0.01
-0.662731 0 0.01 -0.660553 0 -0.01 -0.660553 0 0.01
-0.65837 0 -0.01 -0.65837 0 0.01 -0.656183 0 -0.01
-0.656183 0 0.01 -0.653991 0 -0.01 -0.653991 0 0.01
-0.651795 0 -0.01 -0.651795 0 0.01 -0.649594 0 -0.01
-0.649594 0 0.01 -0.647388 0 -0.01 -0.647388 0 0.01
-0.645178 0 -0.01 -0.645178 0 0.01 -0.642963 0 -0.01
-0.642963 0 0.01 -0.640743 0 -0.01 -0.640743 0 0.01
-0.638519 0 -0.01 -0.638519 0 0.01 -0.636289 0 -0.01
-0.636289 0 0.01 -0.634056 0 -0.01 -0.634056 0 0.01
-0.631817 0 -0.01 -0.631817 0 0.01 -0.629574 0 -0.01
-0.629574 0 0.01 -0.627325 0 -0.01 -0.627325 0 0.01
-0.625073 0 -0.01 -0.625073 0 0.01 -0.622815 0 -0.01
-0.622815 0 0.01 -0.620552 0 -0.01 -0.620552 0 0.01
-0.618285 0 -0.01 -0.618285 0 0.01 -0.616013 0 -0.01
-0.616013 0 0.01 -0.613736 0 -0.01 -0.613736 0 0.01
-0.611455 0 -0.01 -0.611455 0 0.01 -0.609168 0 -0.01
-0.609168 0 0.01 -0.606877 0 -0.01 -0.606877 0 0.01
-0.604581 0 -0.01 -0.604581 0 0.01 -0.602279 0 -0.01
-0.602279 0 0.01 -0.599973 0 -0.01 -0.599973 0 0.01
-0.597663 0 -0.01 -0.597663 0 0.01 -0.595347 0 -0.01
-0.595347 0 0.01 -0.593026 0 -0.01 -0.593026 0 0.01
-0.590701 0 -0.01 -0.590701 0 0.01 -0.58837 0 -0.01
-0.58837 0 0.01 -0.586035 0 -0.01 -0.586035 0 0.01
-0.583694 0 -0.01 -0.583694 0 0.01 -0.581349 0 -0.01
-0.581349 0 0.01 -0.578999 0 -0.01 -0.578999 0 0.01
-0.576643 0 -0.01 -0.576643 0 0.01 -0.574283 0 -0.01
-0.574283 0 0.01 -0.571918 0 -0.01 -0.571918 0 0.01
-0.569547 0 -0.01 -0.569547 0 0.01 -0.567172 0 -0.01
-0.567172 0 0.01 -0.564792 0 -0.01 -0.564792 0 0.01
-0.562406 0 -0.01 -0.562406 0 0.01 -0.560016 0 -0.01
-0.560016 0 0.01 -0.55762 0 -0.01 -0.55762 0 0.01
-0.55522 0 -0.01 -0.55522 0 0.01 -0.552814 0 -0.01
-0.552814 0 0.01 -0.550403 0 -0.01 -0.550403 0 0.01
-0.547987 0 -0.01 -0.547987 0 0.01 -0.545566 0 -0.01
-0.545566 0 0.01 -0.54314 0 -0.01 -0.54314 0 0.01
-0.540709 0 -0.01 -0.540709 0 0.01 -0.538273 0 -0.01
-0.538273 0 0.01 -0.535831 0 -0.01 -0.535831 0 0.01
-0.533384 0 -0.01 -0.533384 0 0.01 -0.530932 0 -0.01
-0.530932 0 0.01 -0.528475 0 -0.01 -0.528475 0 0.01
-0.526013 0 -0.01 -0.526013 0 0.01 -0.523545 0 -0.01
-0.523545 0 0.01 -0.521072 0 -0.01 -0.521072 0 0.01
-0.518594 0 -0.01 -0.518594 0 0.01 -0.516111 0 -0.01
-0.516111 0 0.01 -0.513623 0 -0.01 -0.513623 0 0.01
-0.511129 0 -0.01 -0.511129 0 0.01 -0.50863 0 -0.01
-0.50863 0 0.01 -0.506125 0 -0.01 -0.506125 0 0.01
-0.503615 0 -0.01 -0.503615 0 0.01 -0.5011 0 -0.01
-0.5011 0 0.01 -0.49858 0 -0.01 -0.49858 0 0.01
-0.496054 0 -0.01 -0.496054 0 0.01 -0.493523 0 -0.01
-0.493523 0 0.01 -0.490987 0 -0.01 -0.490987 0 0.01
-0.488445 0 -0.01 -0.488445 0 0.01 -0.485898 0 -0.01
-0.485898 0 0.01 -0.483345 0 -0.01 -0.483345 0 0.01
-0.480787 0 -0.01 -0.480787 0 0.01 -0.478224 0 -0.01
-0.478224 0 0.01 -0.475655 0 -0.01 -0.475655 0 0.01
-0.473081 0 -0.01 -0.473081 0 0.01 -0.470501 0 -0.01
-0.470501 0 0.01 -0.467916 0 -0.01 -0.467916 0 0.01
-0.465325 0 -0.01 -0.465325 0 0.01 -0.462729 0 -0.01
-0.462729 0 0.01 -0.460127 0 -0.01 -0.460127 0 0.01
-0.45752 0 -0.01 -0.45752 0 0.01 -0.454907 0 -0.01
-0.454907 0 0.01 -0.452289 0 -0.01 -0.452289 0 0.01
-0.449665 0 -0.01 -0.449665 0 0.01 -0.447036 0 -0.01
-0.447036 0 0.01 -0.444401 0 -0.01 -0.444401 0 0.01
-0.441761 0 -0.01 -0.441761 0 0.01 -0.439114 0 -0.01
-0.439114 0 0.01 -0.436463 0 -0.01 -0.436463 0 0.01
-0.433805 0 -0.01 -0.433805 0 0.01 -0.431142 0 -0.01
-0.431142 0 0.01 -0.428474 0 -0.01 -0.428474 0 0.01
-0.4258 0 -0.01 -0.4258 0 0.01 -0.42312 0 -0.01
-0.42312 0 0.01 -0.420434 0 -0.01 -0.420434 0 0.01
-0.417743 0 -0.01 -0.417743 0 0.01 -0.415046 0 -0.01
-0.415046 0 0.01 -0.412343 0 -0.01 -0.412343 0 0.01
-0.409635 0 -0.01 -0.409635 0 0.01 -0.40692 0 -0.01
-0.40692 0 0.01 -0.4042 0 -0.01 -0.4042 0 0.01
-0.401475 0 -0.01 -0.401475 0 0.01 -0.398743 0 -0.01
-0.398743 0 0.01 -0.396006 0 -0.01 -0.396006 0 0.01
-0.393263 0 -0.01 -0.393263 0 0.01 -0.390514 0 -0.01
-0.390514 0 0.01 -0.387759 0 -0.01 -0.387759 0 0.01
-0.384999 0 -0.01 -0.384999 0 0.01 -0.382233 0 -0.01
-0.382233 0 0.01 -0.37946 0 -0.01 -0.37946 0 0.01
-0.376682 0 -0.01 -0.376682 0 0.01 -0.373898 0 -0.01
-0.373898 0 0.01 -0.371108 0 -0.01 -0.371108 0 0.01
-0.368312 0 -0.01 -0.368312 0 0.01 -0.365511 0 -0.01
-0.365511 0 0.01 -0.362703 0 -0.01 -0.362703 0 0.01
-0.359889 0 -0.01 -0.359889 0 0.01 -0.35707 0 -0.01
-0.35707 0 0.01 -0.354244 0 -0.01 -0.354244 0 0.01
-0.351413 0 -0.01 -0.351413 0 0.01 -0.348575 0 -0.01
-0.348575 0 0.01 -0.345731 0 -0.01 -0.345731 0 0.01
-0.342882 0 -0.01 -0.342882 0 0.01 -0.340026 0 -0.01
-0.340026 0 0.01 -0.337165 0 -0.01 -0.337165 0 0.01
-0.334297 0 -0.01 -0.334297 0 0.01 -0.331423 0 -0.01
-0.331423 0 0.01 -0.328543 0 -0.01 -0.328543 0 0.01
-0.325657 0 -0.01 -0.325657 0 0.01 -0.322765 0 -0.01
-0.322765 0 0.01 -0.319867 0 -0.01 -0.319867 0 0.01
-0.316962 0 -0.01 -0.316962 0 0.01 -0.314052 0 -0.01
-0.314052 0 0.01 -0.311135 0 -0.01 -0.311135 0 0.01
-0.308212 0 -0.01 -0.308212 0 0.01 -0.305283 0 -0.01
-0.305283 0 0.01 -0.302348 0 -0.01 -0.302348 0 0.01
-0.299406 0 -0.01 -0.299406 0 0.01 -0.296458 0 -0.01
-0.296458 0 0.01 -0.293504 0 -0.01 -0.293504 0 0.01
-0.290544 0 -0.01 -0.290544 0 0.01 -0.287578 0 -0.01
-0.287578 0 0.01 -0.284605 0 -0.01 -0.284605 0 0.01
-0.281626 0 -0.01 -0.281626 0 0.01 -0.27864 0 -0.01
-0.27864 0 0.01 -0.275648 0 -0.01 -0.275648 0 0.01
-0.27265 0 -0.01 -0.27265 0 0.01 -0.269646 0 -0.01
-0.269646 0 0.01 -0.266635 0 -0.01 -0.266635 0 0.01
-0.263618 0 -0.01 -0.263618 0 0.01 -0.260594 0 -0.01
-0.260594 0 0.01 -0.257564 0 -0.01 -0.257564 0 0.01
-0.254528 0 -0.01 -0.254528 0 0.01 -0.251485 0 -0.01
-0.251485 0 0.01 -0.248436 0 -0.01 -0.248436 0 0.01
-0.24538 0 -0.01 -0.24538 0 0.01 -0.242318 0 -0.01
-0.242318 0 0.01 -0.239249 0 -0.01 -0.239249 0 0.01
-0.236174 0 -0.01 -0.236174 0 0.01 -0.233092 0 -0.01
-0.233092 0 0.01 -0.230004 0 -0.01 -0.230004 0 0.01
-0.226909 0 -0.01 -0.226909 0 0.01 -0.223807 0 -0.01
-0.223807 0 0.01 -0.220699 0 -0.01 -0.220699 0 0.01
-0.217585 0 -0.01 -0.217585 0 0.01 -0.214464 0 -0.01
-0.214464 0 0.01 -0.211336 0 -0.01 -0.211336 0 0.01
-0.208202 0 -0.01 -0.208202 0 0.01 -0.205061 0 -0.01
-0.205061 0 0.01 -0.201913 0 -0.01 -0.201913 0 0.01
-0.198759 0 -0.01 -0.198759 0 0.01 -0.195598 0 -0.01
-0.195598 0 0.01 -0.19243 0 -0.01 -0.19243 0 0.01
-0.189255 0 -0.01 -0.189255 0 0.01 -0.186074 0 -0.01
-0.186074 0 0.01 -0.182886 0 -0.01 -0.182886 0 0.01
-0.179692 0 -0.01 -0.179692 0 0.01 -0.17649 0 -0.01
-0.17649 0 0.01 -0.173282 0 -0.01 -0.173282 0 0.01
-0.170067 0 -0.01 -0.170067 0 0.01 -0.166845 0 -0.01
-0.166845 0 0.01 -0.163616 0 -0.01 -0.163616 0 0.01
-0.160381 0 -0.01 -0.160381 0 0.01 -0.157139 0 -0.01
-0.157139 0 0.01 -0.153889 0 -0.01 -0.153889 0 0.01
-0.150633 0 -0.01 -0.150633 0 0.01 -0.14737 0 -0.01
-0.14737 0 0.01 -0.1441 0 -0.01 -0.1441 0 0.01
-0.140823 0 -0.01 -0.140823 0 0.01 -0.13754 0 -0.01
-0.13754 0 0.01 -0.134249 0 -0.01 -0.134249 0 0.01
-0.130951 0 -0.01 -0.130951 0 0.01 -0.127646 0 -0.01
-0.127646 0 0.01 -0.124335 0 -0.01 -0.124335 0 0.01
-0.121016 0 -0.01 -0.121016 0 0.01 -0.11769 0 -0.01
-0.11769 0 0.01 -0.114357 0 -0.01 -0.114357 0 0.01
-0.111017 0 -0.01 -0.111017 0 0.01 -0.107671 0 -0.01
-0.107671 0 0.01 -0.104316 0 -0.01 -0.104316 0 0.01
-0.100955 0 -0.01 -0.100955 0 0.01 -0.097587 0 -0.01
-0.097587 0 0.01 -0.0942116 0 -0.01 -0.0942116 0 0.01
-0.090829 0 -0.01 -0.090829 0 0.01 -0.0874393 0 -0.01
-0.0874393 0 0.01 -0.0840424 0 -0.01 -0.0840424 0 0.01
-0.0806383 0 -0.01 -0.0806383 0 0.01 -0.0772269 0 -0.01
-0.0772269 0 0.01 -0.0738084 0 -0.01 -0.0738084 0 0.01
-0.0703826 0 -0.01 -0.0703826 0 0.01 -0.0669495 0 -0.01
-0.0669495 0 0.01 -0.0635091 0 -0.01 -0.0635091 0 0.01
-0.0600615 0 -0.01 -0.0600615 0 0.01 -0.0566066 0 -0.01
-0.0566066 0 0.01 -0.0531443 0 -0.01 -0.0531443 0 0.01
-0.0496747 0 -0.01 -0.0496747 0 0.01 -0.0461978 0 -0.01
-0.0461978 0 0.01 -0.0427135 0 -0.01 -0.0427135 0 0.01
-0.0392218 0 -0.01 -0.0392218 0 0.01 -0.0357227 0 -0.01
-0.0357227 0 0.01 -0.0322161 0 -0.01 -0.0322161 0 0.01
-0.0287022 0 -0.01 -0.0287022 0 0.01 -0.0251808 0 -0.01
-0.0251808 0 0.01 -0.021652 0 -0.01 -0.021652 0 0.01
-0.0181156 0 -0.01 -0.0181156 0 0.01 -0.0145718 -4.72678e-07 -0.01
-0.0145718 -4.72678e-07 0.01 -0.0110205 -1.60976e-06 -0.01 -0.0110205 -1.60976e-06 0.01
-0.00746162 -4.19662e-07 -0.01 -0.00746162 -4.19662e-07 0.01 -0.00389523 -9.30144e-06 -0.01
-0.00389523 -9.30144e-06 0.01 -0.000321283 -1.65032e-05 -0.01 -0.000321283 -1.65032e-05 0.01
0.00325972 3.49333e-05 -0.01 0.00325972 3.49333e-05 0.01 0.00684516 0.000149506 -0.01
0.00684516 0.000149506 0.01 0.0104382 0.000325491 -0.01 0.0104382 0.000325491 0.01
0.0140327 0.0005816 -0.01 0.0140327 0.0005816 0.01 0.0176259 0.000916238 -0.01
0.0176259 0.000916238 0.01 0.0212267 0.00132532 -0.01 0.0212267 0.00132532 0.01
0.0248181 0.00180526 -0.01 0.0248181 0.00180526 0.01 0.028409 0.00235799 -0.01
0.028409 0.00235799 0.01 0.0320075 0.00298045 -0.01 0.0320075 0.00298045 0.01
0.0355825 0.00366637 -0.01 0.0355825 0.00366637 0.01 0.0391635 0.00442042 -0.01
0.0391635 0.00442042 0.01 0.0427444 0.00523535 -0.01 0.0427444 0.00523535 0.01
0.0463035 0.00610753 -0.01 0.0463035 0.00610753 0.01 0.0498703 0.00704017 -0.01
0.0498703 0.00704017 0.01 0.0534272 0.00802253 -0.01 0.0534272 0.00802253 0.01
0.0569711 0.00905633 -0.01 0.0569711 0.00905633 0.01 0.0605225 0.0101409 -0.01
0.0605225 0.0101409 0.01 0.0640569 0.0112636 -0.01 0.0640569 0.0112636 0.01
0.0675877 0.0124314 -0.01 0.0675877 0.0124314 0.01 0.071126 0.0136388 -0.01
0.071126 0.0136388 0.01 0.074644 0.0148742 -0.01 0.074644 0.0148742 0.01
0.0781667 0.0161467 -0.01 0.0781667 0.0161467 0.01 0.0816939 0.0174461 -0.01
0.0816939 0.0174461 0.01 0.0852084 0.0187674 -0.01 0.0852084 0.0187674 0.01
0.0887303 0.0201149 -0.01 0.0887303 0.0201149 0.01 0.0922548 0.0214768 -0.01
0.0922548 0.0214768 0.01 0.0957774 0.0228553 -0.01 0.0957774 0.0228553 0.01
0.0993075 0.0242473 -0.01 0.0993075 0.0242473 0.01 0.102843 0.0256435 -0.01
0.102843 0.0256435 0.01 0.106383 0.0270488 -0.01 0.106383 0.0270488 0.01
0.109931 0.0284541 -0.01 0.109931 0.0284541 0.01 0.113492 0.0298562 -0.01
0.113492 0.0298562 0.01 0.117061 0.0312565 -0.01 0.117061 0.0312565 0.01
0.120639 0.0326432 -0.01 0.120639 0.0326432 0.01 0.124239 0.0340214 -0.01
0.124239 0.0340214 0.01 0.127847 0.0353833 -0.01 0.127847 0.0353833 0.01
0.131471 0.0367209 -0.01 0.131471 0.0367209 0.01 0.135119 0.0380404 -0.01
0.135119 0.0380404 0.01 0.138776 0.0393285 -0.01 0.138776 0.0393285 0.01
0.142461 0.0405845 -0.01 0.142461 0.0405845 0.01 0.146165 0.0418079 -0.01
0.146165 0.0418079 0.01 0.149878 0.0429847 -0.01 0.149878 0.0429847 0.01
0.153636 0.0441237 -0.01 0.153636 0.0441237 0.01 0.157403 0.0452119 -0.01
0.157403 0.0452119 0.01 0.161193 0.0462435 -0.01 0.161193 0.0462435 0.01
0.165016 0.0472224 -0.01 0.165016 0.0472224 0.01 0.168847 0.0481351 -0.01
0.168847 0.0481351 0.01 0.172718 0.0489834 -0.01 0.172718 0.0489834 0.01
0.176605 0.0497617 -0.01 0.176605 0.0497617 0.01 0.180511 0.0504623 -0.01
0.180511 0.0504623 0.01 0.184449 0.0510873 -0.01 0.184449 0.0510873 0.01
0.188395 0.0516281 -0.01 0.188395 0.0516281 0.01 0.192371 0.0520833 -0.01
0.192371 0.0520833 0.01 0.19636 0.0524503 -0.01 0.19636 0.0524503 0.01
0.200363 0.0527249 -0.01 0.200363 0.0527249 0.01 0.204384 0.0529063 -0.01
0.204384 0.0529063 0.01 0.208414 0.0529925 -0.01 0.208414 0.0529925 0.01
0.212454 0.0529819 -0.01 0.212454 0.0529819 0.01 0.216502 0.0528745 -0.01
0.216502 0.0528745 0.01 0.220553 0.0526705 -0.01 0.220553 0.0526705 0.01
0.224607 0.0523694 -0.01 0.224607 0.0523694 0.01 0.228668 0.0519734 -0.01
0.228668 0.0519734 0.01 0.232715 0.0514845 -0.01 0.232715 0.0514845 0.01
0.23677 0.0509026 -0.01 0.23677 0.0509026 0.01 0.240813 0.0502345 -0.01
0.240813 0.0502345 0.01 0.244851 0.0494783 -0.01 0.244851 0.0494783 0.01
0.24889 0.0486406 -0.01 0.24889 0.0486406 0.01 0.252906 0.0477256 -0.01
0.252906 0.0477256 0.01 0.25693 0.0467322 -0.01 0.25693 0.0467322 0.01
0.26093 0.0456738 -0.01 0.26093 0.0456738 0.01 0.264929 0.0445443 -0.01
0.264929 0.0445443 0.01 0.268923 0.0433551 -0.01 0.268923 0.0433551 0.01
0.272896 0.0421092 -0.01 0.272896 0.0421092 0.01 0.276879 0.0408062 -0.01
0.276879 0.0408062 0.01 0.280838 0.0394619 -0.01 0.280838 0.0394619 0.01
0.2848 0.0380679 -0.01 0.2848 0.0380679 0.01 0.28876 0.0366385 -0.01
0.28876 0.0366385 0.01 0.29271 0.0351735 -0.01 0.29271 0.0351735 0.01
0.296667 0.0336765 -0.01 0.296667 0.0336765 0.01 0.300616 0.0321595 -0.01
0.300616 0.0321595 0.01 0.30457 0.0306169 -0.01 0.30457 0.0306169 0.01
0.308529 0.0290628 -0.01 0.308529 0.0290628 0.01 0.31249 0.0274943 -0.01
0.31249 0.0274943 0.01 0.31646 0.0259208 -0.01 0.31646 0.0259208 0.01
0.320441 0.0243463 -0.01 0.320441 0.0243463 0.01 0.32443 0.0227728 -0.01
0.32443 0.0227728 0.01 0.328433 0.0212116 -0.01 0.328433 0.0212116 0.01
0.332453 0.0196588 -0.01 0.332453 0.0196588 0.01 0.336481 0.01813 -0.01
0.336481 0.01813 0.01 0.340542 0.0166194 -0.01 0.340542 0.0166194 0.01
0.344611 0.01514 -0.01 0.344611 0.01514 0.01 0.34871 0.0136966 -0.01
0.34871 0.0136966 0.01 0.35283 0.0122897 -0.01 0.35283 0.0122897 0.01
0.356969 0.0109346 -0.01 0.356969 0.0109346 0.01 0.361147 0.00962449 -0.01
0.361147 0.00962449 0.01 0.365334 0.00837807 -0.01 0.365334 0.00837807 0.01
0.36957 0.00719118 -0.01 0.36957 0.00719118 0.01 0.37382 0.00607562 -0.01
0.37382 0.00607562 0.01 0.378105 0.00503761 -0.01 0.378105 0.00503761 0.01
0.382417 0.0040788 -0.01 0.382417 0.0040788 0.01 0.386752 0.00321161 -0.01
0.386752 0.00321161 0.01 0.391124 0.00243432 -0.01 0.391124 0.00243432 0.01
0.395508 0.00175908 -0.01 0.395508 0.00175908 0.01 0.399933 0.00118553 -0.01
0.399933 0.00118553 0.01 0.404366 0.000721293 -0.01 0.404366 0.000721293 0.01
0.408828 0.000372581 -0.01 0.408828 0.000372581 0.01 0.413303 0.000136527 -0.01
0.413303 0.000136527 0.01 0.417792 1.53545e-05 -0.01 0.417792 1.53545e-05 0.01
0.422293 2.24238e-06 -0.01 0.422293 2.24238e-06 0.01 0.426804 -5.16471e-06 -0.01
0.426804 -5.16471e-06 0.01 0.431325 -2.75699e-06 -0.01 0.431325 -2.75699e-06 0.01
0.435855 0 -0.01 0.435855 0 0.01 0.440395 0 -0.01
0.440395 0 0.01 0.444944 0 -0.01 0.444944 0 0.01
0.449503 0 -0.01 0.449503 0 0.01 0.454072 0 -0.01
0.454072 0 0.01 0.45865 0 -0.01 0.45865 0 0.01
0.463238 0 -0.01 0.463238 0 0.01 0.467836 0 -0.01
0.467836 0 0.01 0.472443 0 -0.01 0.472443 0 0.01
0.477061 0 -0.01 0.477061 0 0.01 0.481688 0 -0.01
0.481688 0 0.01 0.486324 0 -0.01 0.486324 0 0.01
0.490971 0 -0.01 0.490971 0 0.01 0.495628 0 -0.01
0.495628 0 0.01 0.500294 0 -0.01 0.500294 0 0.01
0.50497 0 -0.01 0.50497 0 0.01 0.509657 0 -0.01
0.509657 0 0.01 0.514353 0 -0.01 0.514353 0 0.01
0.519059 0 -0.01 0.519059 0 0.01 0.523775 0 -0.01
0.523775 0 0.01 0.528501 0 -0.01 0.528501 0 0.01
0.533237 0 -0.01 0.533237 0 0.01 0.537983 0 -0.01
0.537983 0 0.01 0.542739 0 -0.01 0.542739 0 0.01
0.547505 0 -0.01 0.547505 0 0.01 0.552282 0 -0.01
0.552282 0 0.01 0.557068 0 -0.01 0.557068 0 0.01
0.561865 0 -0.01 0.561865 0 0.01 0.566672 0 -0.01
0.566672 0 0.01 0.571488 0 -0.01 0.571488 0 0.01
0.576316 0 -0.01 0.576316 0 0.01 0.581153 0 -0.01
0.581153 0 0.01 0.586001 0 -0.01 0.586001 0 0.01
0.590859 0 -0.01 0.590859 0 0.01 0.595727 0 -0.01
0.595727 0 0.01 0.600605 0 -0.01 0.600605 0 0.01
0.605494 0 -0.01 0.605494 0 0.01 0.610393 0 -0.01
0.610393 0 0.01 0.615303 0 -0.01 0.615303 0 0.01
0.620223 0 -0.01 0.620223 0 0.01 0.625153 0 -0.01
0.625153 0 0.01 0.630094 0 -0.01 0.630094 0 0.01
0.635046 0 -0.01 0.635046 0 0.01 0.640007 0 -0.01
0.640007 0 0.01 0.64498 0 -0.01 0.64498 0 0.01
0.649963 0 -0.01 0.649963 0 0.01 0.654956 0 -0.01
0.654956 0 0.01 0.65996 0 -0.01 0.65996 0 0.01
0.665573 0 -0.01 0.665573 0 0.01 0.67 0 -0.01
0.67 0 0.01
        </DataArray>
      </Points>
      <Polys>
        <DataArray type='Int32' Name='connectivity' format='ascii'>
0 1 2 3 1 4 5 2 4
6 7 5 6 8 9 7 8 10
11 9 10 12 13 11 12 14 15
13 14 16 17 15 16 18 19 17
18 20 21 19 20 22 23 21 22
24 25 23 24 26 27 25 26 28
29 27 28 30 31 29 30 32 33
31 32 34 35 33 34 36 37 35
36 38 39 37 38 40 41 39 40
42 43 41 42 44 45 43 44 46
47 45 46 48 49 47 48 50 51
49 50 52 53 51 52 54 55 53
54 56 57 55 56 58 59 57 58
60 61 59 60 62 63 61 62 64
65 63 64 66 67 65 66 68 69
67 68 70 71 69 70 72 73 71
72 74 75 73 74 76 77 75 76
78 79 77 78 80 81 79 80 82
83 81 82 84 85 83 84 86 87
85 86 88 89 87 88 90 91 89
90 92 93 91 92 94 95 93 94
96 97 95 96 98 99 97 98 100
101 99 100 102 103 101 102 104 105
103 104 106 107 105 106 108 109 107
108 110 111 109 110 112 113 111 112
114 115 113 114 116 117 115 116 118
119 117 118 120 121 119 120 122 123
121 122 124 125 123 124 126 127 125
126 128 129 127 128 130 131 129 130
132 133 131 132 134 135 133 134 136
137 135 136 138 139 137 138 140 141
139 140 142 143 141 142 144 145 143
144 146 147 145 146 148 149 147 148
150 151 149 150 152 153 151 152 154
155 153 154 156 157 155 156 158 159
157 158 160 161 159 160 162 163 161
162 164 165 163 164 166 167 165 166
168 169 167 168 170 171 169 170 172
173 171 172 174 175 173 174 176 177
175 176 178 179 177 178 180 181 179
180 182 183 181 182 184 185 183 184
186 187 185 186 188 189 187 188 190
191 189 190 192 193 191 192 194 195
193 194 196 197 195 196 198 199 197
198 200 201 199 200 202 203 201 202
204 205 203 204 206 207 205 206 208
209 207 208 210 211 209 210 212 213
211 212 214 215 213 214 216 217 215
216 218 219 217 218 220 221 219 220
222 223 221 222 224 225 223 224 226
227 225 226 228 229 227 228 230 231
229 230 232 233 231 232 234 235 233
234 236 237 235 236 238 239 237 238
240 241 239 240 242 243 241 242 244
245 243 244 246 247 245 246 248 249
247 248 250 251 249 250 252 253 251
252 254 255 253 254 256 257 255 256
258 259 257 258 260 261 259 260 262
263 261 262 264 265 263 264 266 267
265 266 268 269 267 268 270 271 269
270 272 273 271 272 274 275 273 274
276 277 275 276 278 279 277 278 280
281 279 280 282 283 281 282 284 285
283 284 286 287 285 286 288 289 287
288 290 291 289 290 292 293 291 292
294 295 293 294 296 297 295 296 298
299 297 298 300 301 299 300 302 303
301 302 304 305 303 304 306 307 305
306 308 309 307 308 310 311 309 310
312 313 311 312 314 315 313 314 316
317 315 316 318 319 317 318 320 321
319 320 322 323 321 322 324 325 323
324 326 327 325 326 328 329 327 328
330 331 329 330 332 333 331 332 334
335 333 334 336 337 335 336 338 339
337 338 340 341 339 340 342 343 341
342 344 345 343 344 346 347 345 346
348 349 347 348 350 351 349 350 352
353 351 352 354 355 353 354 356 357
355 356 358 359 357 358 360 361 359
360 362 363 361 362 364 365 363 364
366 367 365 366 368 369 367 368 370
371 369 370 372 373 371 372 374 375
373 374 376 377 375 376 378 379 377
378 380 381 379 380 382 383 381 382
384 385 383 384 386 387 385 386 388
389 387 388 390 391 389 390 392 393
391 392 394 395 393 394 396 397 395
396 398 399 397 398 400 401 399 400
402 403 401 402 404 405 403 404 406
407 405 406 408 409 407 408 410 411
409 410 412 413 411 412 414 415 413
414 416 417 415 416 418 419 417 418
420 421 419 420 422 423 421 422 424
425 423 424 426 427 425 426 428 429
427 428 430 431 429 430 432 433 431
432 434 435 433 434 436 437 435 436
438 439 437 438 440 441 439 440 442
443 441 442 444 445 443 444 446 447
445 446 448 449 447 448 450 451 449
450 452 453 451 452 454 455 453 454
456 457 455 456 458 459 457 458 460
461 459 460 462 463 461 462 464 465
463 464 466 467 465 466 468 469 467
468 470 471 469 470 472 473 471 472
474 475 473 474 476 477 475 476 478
479 477 478 480 481 479 480 482 483
481 482 484 485 483 484 486 487 485
486 488 489 487 488 490 491 489 490
492 493 491 492 494 495 493 494 496
497 495 496 498 499 497 498 500 501
499 500 502 503 501 502 504 505 503
504 506 507 505 506 508 509 507 508
510 511 509 510 512 513 511 512 514
515 513 514 516 517 515 516 518 519
517 518 520 521 519 520 522 523 521
522 524 525 523 524 526 527 525 526
528 529 527 528 530 531 529 530 532
533 531 532 534 535 533 534 536 537
535 536 538 539 537 538 540 541 539
540 542 543 541 542 544 545 543 544
546 547 545 546 548 549 547 548 550
551 549 550 552 553 551 552 554 555
553 554 556 557 555 556 558 559 557
558 560 561 559 560 562 563 561 562
564 565 563 564 566 567 565 566 568
569 567 568 570 571 569 570 572 573
571 572 574 575 573 574 576 577 575
576 578 579 577 578 580 581 579 580
582 583 581 582 584 585 583 584 586
587 585 586 588 589 587 588 590 591
589 590 592 593 591 592 594 595 593
594 596 597 595 596 598 599 597 598
600 601 599 600 602 603 601 602 604
605 603 604 606 607 605 606 608 609
607 608 610 611 609 610 612 613 611
612 614 615 613 614 616 617 615 616
618 619 617 618 620 621 619 620 622
623 621 622 624 625 623 624 626 627
625 626 628 629 627 628 630 631 629
630 632 633 631 632 634 635 633 634
636 637 635 636 638 639 637 638 640
641 639 640 642 643 641 642 644 645
643 644 646 647 645 646 648 649 647
648 650 651 649 650 652 653 651 652
654 655 653 654 656 657 655 656 658
659 657 658 660 661 659 660 662 663
661 662 664 665 663 664 666 667 665
666 668 669 667 668 670 671 669 670
672 673 671 672 674 675 673 674 676
677 675 676 678 679 677 678 680 681
679 680 682 683 681 682 684 685 683
684 686 687 685 686 688 689 687 688
690 691 689 690 692 693 691 692 694
695 693 694 696 697 695 696 698 699
697 698 700 701 699 700 702 703 701
702 704 705 703 704 706 707 705 706
708 709 707 708 710 711 709 710 712
713 711 712 714 715 713 714 716 717
715 716 718 719 717 718 720 721 719
720 722 723 721 722 724 725 723 724
726 727 725 726 728 729 727 728 730
731 729 730 732 733 731 732 734 735
733 734 736 737 735 736 738 739 737
738 740 741 739 740 742 743 741 742
744 745 743 744 746 747 745 746 748
749 747 748 750 751 749 750 752 753
751 752 754 755 753 754 756 757 755
756 758 759 757 758 760 761 759 760
762 763 761 762 764 765 763 764 766
767 765 766 768 769 767 768 770 771
769 770 772 773 771 772 774 775 773
774 776 777 775 776 778 779 777 778
780 781 779 780 782 783 781 782 784
785 783 784 786 787 785 786 788 789
787 788 790 791 789 790 792 793 791
792 794 795 793 794 796 797 795 796
798 799 797 798 800 801 799 800 802
803 801 802 804 805 803 804 806 807
805 806 808 809 807 808 810 811 809
810 812 813 811 812 814 815 813 814
816 817 815 816 818 819 817 818 820
821 819 820 822 823 821 822 824 825
823 824 826 827 825 826 828 829 827
828 830 831 829 830 832 833 831 832
834 835 833 834 836 837 835 836 838
839 837 838 840 841 839 840 842 843
841 842 844 845 843 844 846 847 845
846 848 849 847 848 850 851 849 850
852 853 851 852 854 855 853 854 856
857 855 856 858 859 857 858 860 861
859 860 862 863 861 862 864 865 863
864 866 867 865 866 868 869 867 868
870 871 869 870 872 873 871 872 874
875 873 874 876 877 875 876 878 879
877 878 880 881 879 880 882 883 881
882 884 885 883 884 886 887 885 886
888 889 887 888 890 891 889 890 892
893 891 892 894 895 893 894 896 897
895 896 898 899 897 898 900 901 899
900 902 903 901 902 904 905 903 904
906 907 905 906 908 909 907 908 910
911 909 910 912 913 911 912 914 915
913 914 916 917 915 916 918 919 917
918 920 921 919 920 922 923 921 922
924 925 923 924 926 927 925 926 928
929 927 928 930 931 929 930 932 933
931 932 934 935 933 934 936 937 935
936 938 939 937 938 940 941 939 940
942 943 941 942 944 945 943 944 946
947 945 946 948 949 947 948 950 951
949 950 952 953 951 952 954 955 953
954 956 957 955 956 958 959 957 958
960 961 959 960 962 963 961 962 964
965 963 964 966 967 965 966 968 969
967 968 970 971 969 970 972 973 971
972 974 975 973 974 976 977 975 976
978 979 977 978 980 981 979 980 982
983 981 982 984 985 983 984 986 987
985 986 988 989 987 988 990 991 989
990 992 993 991 992 994 995 993 994
996 997 995 996 998 999 997 998 1000
1001 999 1000 1002 1003 1001 1002 1004 1005
1003 1004 1006 1007 1005 1006 1008 1009 1007
1008 1010 1011 1009 1010 1012 1013 1011 1012
1014 1015 1013 1014 1016 1017 1015 1016 1018
1019 1017 1018 1020 1021 1019 1020 1022 1023
1021 1022 1024 1025 1023 1024 1026 1027 1025
1026 1028 1029 1027 1028 1030 1031 1029 1030
1032 1033 1031 1032 1034 1035 1033 1034 1036
1037 1035 1036 1038 1039 1037 1038 1040 1041
1039
        </DataArray>
        <DataArray type='Int32' Name='offsets' format='ascii'>
4 8 12 16 20 24 28 32 36
40 44 48 52 56 60 64 68 72
76 80 84 88 92 96 100 104 108
112 116 120 124 128 132 136 140 144
148 152 156 160 164 168 172 176 180
184 188 192 196 200 204 208 212 216
220 224 228 232 236 240 244 248 252
256 260 264 268 272 276 280 284 288
292 296 300 304 308 312 316 320 324
328 332 336 340 344 348 352 356 360
364 368 372 376 380 384 388 392 396
400 404 408 412 416 420 424 428 432
436 440 444 448 452 456 460 464 468
472 476 480 484 488 492 496 500 504
508 512 516 520 524 528 532 536 540
544 548 552 556 560 564 568 572 576
580 584 588 592 596 600 604 608 612
616 620 624 628 632 636 640 644 648
652 656 660 664 668 672 676 680 684
688 692 696 700 704 708 712 716 720
724 728 732 736 740 744 748 752 756
760 764 768 772 776 780 784 788 792
796 800 804 808 812 816 820 824 828
832 836 840 844 848 852 856 860 864
868 872 876 880 884 888 892 896 900
904 908 912 916 920 924 928 932 936
940 944 948 952 956 960 964 968 972
976 980 984 988 992 996 1000 1004 1008
1012 1016 1020 1024 1028 1032 1036 1040 1044
1048 1052 1056 1060 1064 1068 1072 1076 1080
1084 1088 1092 1096 1100 1104 1108 1112 1116
1120 1124 1128 1132 1136 1140 1144 1148 1152
1156 1160 1164 1168 1172 1176 1180 1184 1188
1192 1196 1200 1204 1208 1212 1216 1220 1224
1228 1232 1236 1240 1244 1248 1252 1256 1260
1264 1268 1272 1276 1280 1284 1288 1292 1296
1300 1304 1308 1312 1316 1320 1324 1328 1332
1336 1340 1344 1348 1352 1356 1360 1364 1368
1372 1376 1380 1384 1388 1392 1396 1400 1404
1408 1412 1416 1420 1424 1428 1432 1436 1440
1444 1448 1452 1456 1460 1464 1468 1472 1476
1480 1484 1488 1492 1496 1500 1504 1508 1512
1516 1520 1524 1528 1532 1536 1540 1544 1548
1552 1556 1560 1564 1568 1572 1576 1580 1584
1588 1592 1596 1600 1604 1608 1612 1616 1620
1624 1628 1632 1636 1640 1644 1648 1652 1656
1660 1664 1668 1672 1676 1680 1684 1688 1692
1696 1700 1704 1708 1712 1716 1720 1724 1728
1732 1736 1740 1744 1748 1752 1756 1760 1764
1768 1772 1776 1780 1784 1788 1792 1796 1800
1804 1808 1812 1816 1820 1824 1828 1832 1836
1840 1844 1848 1852 1856 1860 1864 1868 1872
1876 1880 1884 1888 1892 1896 1900 1904 1908
1912 1916 1920 1924 1928 1932 1936 1940 1944
1948 1952 1956 1960 1964 1968 1972 1976 1980
1984 1988 1992 1996 2000 2004 2008 2012 2016
2020 2024 2028 2032 2036 2040 2044 2048 2052
2056 2060 2064 2068 2072 2076 2080
        </DataArray>
      </Polys>
      <CellData>
        <DataArray type='Float32' Name='k' format='ascii'>
0.4551 0.958957 1.63924 2.42169 3.34536 4.27901 5.20604 6.1298 7.01244
7.8232 8.54055 9.1524 9.65506 10.0515 10.3494 10.5592 10.6928 10.7624
10.7833 10.7656 10.7174 10.6462 10.5581 10.4585 10.3521 10.2423 10.132
10.0233 9.91795 9.81741 9.72256 9.63368 9.5509 9.47418 9.40337 9.33828
9.27864 9.22413 9.17445 9.12923 9.08815 9.05085 9.01699 8.98618 8.95815
8.93263 8.90936 8.88809 8.86859 8.85067 8.83412 8.81879 8.80452 8.79118
8.77865 8.76683 8.75562 8.74495 8.73474 8.72493 8.71547 8.70631 8.6974
8.68872 8.68023 8.67188 8.66368 8.65559 8.64761 8.63972 8.63192 8.62419
8.61652 8.6089 8.60133 8.5938 8.5863 8.57882 8.57137 8.56394 8.55654
8.54915 8.54178 8.53444 8.52711 8.51981 8.51252 8.50526 8.49801 8.49077
8.48356 8.47635 8.46916 8.46198 8.45481 8.44766 8.44051 8.43337 8.42623
8.4191 8.41198 8.40486 8.39776 8.39067 8.38359 8.37652 8.36946 8.36242
8.35538 8.34836 8.34134 8.33433 8.32734 8.32034 8.31335 8.30636 8.29936
8.29235 8.28533 8.27829 8.27125 8.26419 8.25712 8.25004 8.24295 8.23585
8.22875 8.22164 8.21453 8.20743 8.20032 8.19321 8.1861 8.17899 8.17188
8.16477 8.15767 8.15057 8.14347 8.13638 8.1293 8.12223 8.11516 8.10811
8.10108 8.09406 8.08705 8.08006 8.0731 8.06615 8.05922 8.05232 8.04544
8.03857 8.03173 8.0249 8.0181 8.0113 8.00451 7.99773 7.99095 7.98416
7.97736 7.97054 7.96371 7.95686 7.95 7.94313 7.93624 7.92934 7.92242
7.9155 7.90857 7.90164 7.8947 7.88776 7.88082 7.87388 7.86695 7.86002
7.8531 7.84618 7.83927 7.83237 7.82548 7.8186 7.81173 7.80486 7.79801
7.79117 7.78434 7.77752 7.77071 7.76391 7.75712 7.75033 7.74354 7.73676
7.72998 7.72321 7.71643 7.70966 7.70289 7.69613 7.68938 7.68264 7.6759
7.66917 7.66244 7.6557 7.64895 7.64219 7.6354 7.62858 7.62175 7.61488
7.608 7.60109 7.59416 7.58722 7.58027 7.57332 7.56636 7.55939 7.55243
7.54547 7.53851 7.53154 7.52458 7.51762 7.51066 7.50369 7.49672 7.48975
7.48277 7.47578 7.46878 7.46178 7.45476 7.44774 7.4407 7.43364 7.42657
7.41949 7.41239 7.40527 7.39813 7.39097 7.3838 7.37659 7.36937 7.36212
7.35485 7.34754 7.3402 7.33283 7.3254 7.31794 7.31042 7.30284 7.29521
7.28751 7.27974 7.2719 7.26399 7.25601 7.24796 7.23984 7.23164 7.22337
7.21503 7.20662 7.19812 7.18956 7.18091 7.17217 7.16336 7.15445 7.14545
7.13635 7.12715 7.11785 7.10844 7.09891 7.08927 7.0795 7.06961 7.05957
7.0494 7.03907 7.02859 7.01794 7.00713 6.99613 6.98496 6.97359 6.96202
6.95024 6.93824 6.926 6.91353 6.9008 6.88781 6.87455 6.86101 6.84717
6.83303 6.81854 6.80372 6.78852 6.77295 6.75693 6.74052 6.72361 6.70627
6.68839 6.67001 6.65106 6.63154 6.6114 6.59061 6.56913 6.54691 6.5239
6.50006 6.47532 6.44962 6.4229 6.39507 6.36607 6.3358 6.30416 6.27109
6.23643 6.20014 6.16199 6.12198 6.07978 6.03541 5.98847 5.93896 5.88643
5.83079 5.77157 5.70852 5.64113 5.56892 5.49126 5.40738 5.31639 5.21717
5.10834 4.98811 4.85428 4.7028 4.5254 4.32314 4.0617 3.68782 3.3068
3.0473 2.91616 2.92648 3.0039 3.11179 3.21426 3.31273 3.40423 3.50315
3.61439 3.73479 3.87361 4.03062 4.20499 4.3972 4.60963 4.83735 5.08028
5.34272 5.61639 5.90384 6.20905 6.51824 6.84391 7.19016 7.53796 7.90477
8.28749 8.66993 9.07418 9.48831 9.9034 10.3378 10.771 11.207 11.6544
12.0846 12.5169 12.9464 13.3526 13.7625 14.1548 14.523 14.8813 15.2038
15.5101 15.7895 16.0272 16.2384 16.404 16.5241 16.592 16.6095 16.5555
16.4578 16.2665 15.9992 15.668 15.2787 14.8144 14.2763 13.6886 13.0705
12.4532 11.8321 11.2127 10.5864 9.93401 9.27446 8.58338 7.89612 7.22198
6.58509 6.02211 5.50958 5.07828 4.69327 4.35459 4.07188 3.81585 3.61208
3.41882 3.24582 3.10465 2.98728 2.93737 2.83753 2.78181 2.72032 2.66341
2.61679 2.56388 2.50906 2.47456 2.48958 2.46853 2.44013 2.42884 2.41662
2.43331 2.44962 2.47671 2.52528 2.59426 2.69871 2.82615 3.01253 3.28562
3.58312 3.86997 4.12238 4.33446 4.50618 4.63979 4.73933 4.80901 4.85638
4.88834 4.91085 4.92869 4.94521 4.96275 4.98267 5.0057 5.03226 5.06231
5.09549 5.13135 5.16941 5.20927 5.25053 5.29293 5.33612 5.37996 5.42409
5.46845 5.51271 5.55681 5.60045 5.64357 5.68588 5.72733 5.76769 5.80685
5.84464 5.88093 5.91563 5.94866 5.98 6.00962 6.03756 6.06383 6.08849
6.1116 6.13319 6.15341 6.17196 6.19024 6.20716 6.22261
        </DataArray>
        <DataArray type='Float32' Name='nut' format='ascii'>
0 0 0 5.1759e-07 2.71389e-06 4.60144e-06 6.2532e-06 7.73833e-06 9.04166e-06
1.01584e-05 1.10924e-05 1.18541e-05 1.24585e-05 1.29225e-05 1.32644e-05 1.35018e-05 1.36515e-05 1.37292e-05
1.37525e-05 1.37327e-05 1.36791e-05 1.35994e-05 1.35005e-05 1.33882e-05 1.32674e-05 1.31422e-05 1.30155e-05
1.28899e-05 1.27674e-05 1.26498e-05 1.25382e-05 1.24331e-05 1.23347e-05 1.22431e-05 1.21582e-05 1.20798e-05
1.20077e-05 1.19415e-05 1.1881e-05 1.18258e-05 1.17755e-05 1.17298e-05 1.16881e-05 1.16501e-05 1.16155e-05
1.1584e-05 1.15551e-05 1.15287e-05 1.15045e-05 1.14822e-05 1.14616e-05 1.14425e-05 1.14247e-05 1.1408e-05
1.13924e-05 1.13776e-05 1.13636e-05 1.13502e-05 1.13374e-05 1.13251e-05 1.13132e-05 1.13017e-05 1.12905e-05
1.12796e-05 1.12689e-05 1.12584e-05 1.12481e-05 1.12379e-05 1.12278e-05 1.12179e-05 1.1208e-05 1.11983e-05
1.11886e-05 1.1179e-05 1.11694e-05 1.11599e-05 1.11504e-05 1.11409e-05 1.11315e-05 1.1122e-05 1.11126e-05
1.11033e-05 1.10939e-05 1.10846e-05 1.10753e-05 1.1066e-05 1.10567e-05 1.10475e-05 1.10382e-05 1.1029e-05
1.10198e-05 1.10106e-05 1.10015e-05 1.09923e-05 1.09831e-05 1.0974e-05 1.09649e-05 1.09557e-05 1.09466e-05
1.09375e-05 1.09283e-05 1.09192e-05 1.09101e-05 1.0901e-05 1.08919e-05 1.08829e-05 1.08738e-05 1.08647e-05
1.08557e-05 1.08467e-05 1.08376e-05 1.08286e-05 1.08196e-05 1.08106e-05 1.08016e-05 1.07925e-05 1.07835e-05
1.07744e-05 1.07654e-05 1.07563e-05 1.07472e-05 1.0738e-05 1.07289e-05 1.07197e-05 1.07105e-05 1.07013e-05
1.06921e-05 1.06829e-05 1.06737e-05 1.06644e-05 1.06552e-05 1.0646e-05 1.06367e-05 1.06274e-05 1.06182e-05
1.06089e-05 1.05997e-05 1.05904e-05 1.05812e-05 1.05719e-05 1.05626e-05 1.05534e-05 1.05442e-05 1.05349e-05
1.05257e-05 1.05165e-05 1.05074e-05 1.04982e-05 1.04891e-05 1.048e-05 1.04709e-05 1.04618e-05 1.04528e-05
1.04437e-05 1.04347e-05 1.04258e-05 1.04168e-05 1.04078e-05 1.03989e-05 1.039e-05 1.0381e-05 1.0372e-05
1.03631e-05 1.03541e-05 1.0345e-05 1.0336e-05 1.03269e-05 1.03178e-05 1.03087e-05 1.02995e-05 1.02904e-05
1.02812e-05 1.0272e-05 1.02628e-05 1.02536e-05 1.02444e-05 1.02351e-05 1.02259e-05 1.02167e-05 1.02075e-05
1.01982e-05 1.0189e-05 1.01798e-05 1.01706e-05 1.01614e-05 1.01522e-05 1.0143e-05 1.01338e-05 1.01247e-05
1.01155e-05 1.01064e-05 1.00972e-05 1.00881e-05 1.0079e-05 1.00699e-05 1.00608e-05 1.00517e-05 1.00425e-05
1.00334e-05 1.00243e-05 1.00152e-05 1.00061e-05 9.99697e-06 9.98787e-06 9.97876e-06 9.96966e-06 9.96057e-06
9.95148e-06 9.94238e-06 9.93328e-06 9.92415e-06 9.91499e-06 9.9058e-06 9.89658e-06 9.88731e-06 9.878e-06
9.86866e-06 9.85928e-06 9.84988e-06 9.84045e-06 9.831e-06 9.82154e-06 9.81207e-06 9.80259e-06 9.79311e-06
9.78362e-06 9.77412e-06 9.76462e-06 9.75512e-06 9.74561e-06 9.73609e-06 9.72657e-06 9.71703e-06 9.70749e-06
9.69793e-06 9.68836e-06 9.67876e-06 9.66916e-06 9.65953e-06 9.64988e-06 9.64021e-06 9.63051e-06 9.62079e-06
9.61104e-06 9.60126e-06 9.59145e-06 9.58161e-06 9.57174e-06 9.56184e-06 9.55189e-06 9.54191e-06 9.53189e-06
9.52183e-06 9.51172e-06 9.50156e-06 9.49134e-06 9.48105e-06 9.4707e-06 9.46026e-06 9.44974e-06 9.43913e-06
9.42843e-06 9.41762e-06 9.40671e-06 9.39569e-06 9.38457e-06 9.37334e-06 9.362e-06 9.35056e-06 9.33901e-06
9.32734e-06 9.31557e-06 9.30368e-06 9.29167e-06 9.27954e-06 9.26729e-06 9.25491e-06 9.2424e-06 9.22975e-06
9.21694e-06 9.20399e-06 9.19088e-06 9.17761e-06 9.16417e-06 9.15055e-06 9.13674e-06 9.12275e-06 9.10853e-06
9.09412e-06 9.07947e-06 9.0646e-06 9.04948e-06 9.0341e-06 9.01846e-06 9.00254e-06 8.98634e-06 8.96983e-06
8.953e-06 8.93584e-06 8.91834e-06 8.90047e-06 8.88221e-06 8.86357e-06 8.84451e-06 8.82503e-06 8.80509e-06
8.78469e-06 8.76377e-06 8.74236e-06 8.72035e-06 8.69778e-06 8.67454e-06 8.65069e-06 8.62609e-06 8.60081e-06
8.57471e-06 8.54785e-06 8.52009e-06 8.49147e-06 8.46187e-06 8.43128e-06 8.3996e-06 8.36677e-06 8.33272e-06
8.29735e-06 8.26058e-06 8.22229e-06 8.18239e-06 8.14074e-06 8.09721e-06 8.05167e-06 8.00392e-06 7.95388e-06
7.90126e-06 7.846e-06 7.78768e-06 7.72632e-06 7.66134e-06 7.59275e-06 7.51986e-06 7.44263e-06 7.36027e-06
7.2726e-06 7.17873e-06 7.07821e-06 6.97005e-06 6.85333e-06 6.72682e-06 6.58903e-06 6.43817e-06 6.27196e-06
6.08755e-06 5.88118e-06 5.6481e-06 5.37972e-06 5.05905e-06 4.68482e-06 4.18448e-06 3.43777e-06 2.63368e-06
2.04961e-06 1.73593e-06 1.74149e-06 1.89325e-06 2.10277e-06 2.28649e-06 2.44738e-06 2.58265e-06 2.72182e-06
2.87409e-06 3.03624e-06 3.21984e-06 3.42653e-06 3.6558e-06 3.89763e-06 4.16407e-06 4.44374e-06 4.72616e-06
5.03136e-06 5.33732e-06 5.64356e-06 5.97076e-06 6.28253e-06 6.60319e-06 6.94825e-06 7.27131e-06 7.61188e-06
7.96879e-06 8.30182e-06 8.66088e-06 9.02525e-06 9.37195e-06 9.7462e-06 1.01077e-05 1.04642e-05 1.08409e-05
1.11865e-05 1.15379e-05 1.18934e-05 1.22164e-05 1.25539e-05 1.28751e-05 1.31739e-05 1.34754e-05 1.37414e-05
1.40002e-05 1.4241e-05 1.44453e-05 1.46342e-05 1.4784e-05 1.48988e-05 1.49723e-05 1.50028e-05 1.49757e-05
1.49097e-05 1.47662e-05 1.4557e-05 1.42899e-05 1.39682e-05 1.3576e-05 1.31133e-05 1.25955e-05 1.20378e-05
1.14675e-05 1.08756e-05 1.0275e-05 9.64801e-06 8.98099e-06 8.28894e-06 7.53475e-06 6.7646e-06 5.96914e-06
5.18905e-06 4.47002e-06 3.78124e-06 3.18917e-06 2.63277e-06 2.13472e-06 1.71123e-06 1.31399e-06 1.00816e-06
7.03703e-07 4.37385e-07 2.2705e-07 5.68935e-08 3.48155e-08 0 0 0 0
0 0 0 0 0 0 0 3.38201e-09 6.06114e-08
1.89535e-07 3.09422e-07 4.50731e-07 6.37596e-07 8.64939e-07 1.16768e-06 1.50704e-06 1.9634e-06 2.58358e-06
3.22123e-06 3.8074e-06 4.30281e-06 4.70587e-06 5.02397e-06 5.26669e-06 5.44492e-06 5.56841e-06 5.65179e-06
5.70777e-06 5.74707e-06 5.77815e-06 5.80686e-06 5.8373e-06 5.87178e-06 5.91156e-06 5.9573e-06 6.00887e-06
6.06563e-06 6.12673e-06 6.19131e-06 6.25865e-06 6.32804e-06 6.39904e-06 6.471e-06 6.54372e-06 6.61657e-06
6.68948e-06 6.76186e-06 6.83367e-06 6.90441e-06 6.97397e-06 7.04196e-06 7.10827e-06 7.17258e-06 7.23473e-06
7.29447e-06 7.35164e-06 7.40611e-06 7.45779e-06 7.50667e-06 7.55274e-06 7.59607e-06 7.63672e-06 7.67477e-06
7.71036e-06 7.74353e-06 7.77455e-06 7.80295e-06 7.83088e-06 7.85628e-06 7.88076e-06
        </DataArray>
        <DataArray type='Float32' Name='omega' format='ascii'>
29300.2 32664.6 36718.4 40885.4 45311.4 49380 53109.1 56577.5 59699.5
62425.7 64738.3 66644.1 68167.3 69343.1 70212.7 70818.8 71203 71404.6
71467.7 71423.3 71294.8 71102.5 70864 70594.1 70305 70006.8 69707.2
69412.2 69126.1 68852.4 68594 68352.5 68128.2 67921 67730.5 67555.9
67396.5 67251.4 67119.5 66999.9 66891.4 66793.1 66704.1 66623.2 66549.8
66482.8 66421.7 66365.7 66314.1 66266.5 66222.4 66181.3 66142.8 66106.5
66072.3 66039.7 66008.7 65978.9 65950.2 65922.4 65895.4 65869.1 65843.5
65818.3 65793.5 65769 65744.8 65720.9 65697.2 65673.7 65650.4 65627.2
65604.2 65581.3 65558.5 65535.7 65513 65490.4 65467.8 65445.2 65422.6
65400.1 65377.6 65355.2 65332.8 65310.4 65288.1 65265.8 65243.5 65221.3
65199 65176.8 65154.6 65132.4 65110.3 65088.1 65065.9 65043.7 65021.5
64999.3 64977.1 64954.9 64932.7 64910.6 64888.4 64866.3 64844.1 64822
64799.9 64777.8 64755.7 64733.6 64711.5 64689.4 64667.3 64645.1 64622.9
64600.7 64578.4 64556 64533.5 64511 64488.5 64465.9 64443.3 64420.6
64397.9 64375.2 64352.4 64329.6 64306.8 64284 64261.2 64238.3 64215.4
64192.4 64169.5 64146.6 64123.6 64100.7 64077.8 64054.8 64031.9 64009.1
63986.2 63963.4 63940.6 63917.9 63895.2 63872.5 63849.9 63827.4 63804.9
63782.4 63759.9 63737.5 63715.1 63692.8 63670.4 63648 63625.5 63603
63580.5 63557.8 63535.1 63512.4 63489.6 63466.7 63443.7 63420.7 63397.7
63374.6 63351.5 63328.3 63305.1 63281.9 63258.7 63235.5 63212.3 63189.1
63165.9 63142.7 63119.5 63096.3 63073.1 63049.9 63026.8 63003.6 62980.5
62957.4 62934.3 62911.2 62888.2 62865.1 62842 62819 62795.9 62772.9
62749.8 62726.7 62703.6 62680.5 62657.4 62634.3 62611.2 62588.1 62565.1
62542 62518.9 62495.7 62472.5 62449.2 62425.8 62402.2 62378.6 62354.8
62331 62307.1 62283.2 62259.1 62235.1 62211 62186.9 62162.8 62138.6
62114.5 62090.3 62066.2 62042 62017.7 61993.5 61969.2 61944.9 61920.6
61896.2 61871.8 61847.3 61822.8 61798.2 61773.5 61748.8 61724.1 61699.2
61674.3 61649.4 61624.3 61599.2 61573.9 61548.6 61523.2 61497.7 61472.1
61446.4 61420.5 61394.6 61368.4 61342.1 61315.6 61288.9 61262 61234.9
61207.5 61179.9 61152 61123.9 61095.5 61066.8 61037.9 61008.7 60979.3
60949.6 60919.6 60889.4 60858.8 60828 60796.9 60765.4 60733.6 60701.5
60669 60636.2 60602.9 60569.3 60535.3 60500.8 60465.8 60430.4 60394.5
60358.1 60321.1 60283.5 60245.4 60206.6 60167.2 60127.1 60086.3 60044.7
60002.4 59959.3 59915.4 59870.5 59824.8 59778 59730.3 59681.6 59631.8
59580.9 59528.7 59475.3 59420.4 59364.3 59306.4 59247.2 59186 59123.4
59058.7 58992.2 58923.5 58852.9 58779.8 58704.4 58626.4 58545.7 58462
58375.2 58285 58191.2 58093.5 57991.7 57885.4 57774.3 57657.9 57536.2
57408.2 57274.2 57132.8 56984.4 56827.4 56662.2 56486.7 56301.4 56104
55894.5 55670.5 55431.5 55174.9 54898.9 54600.6 54276.9 53923.8 53536.4
53108.8 52633.2 52100.1 51491.7 50771.4 49937.5 48844.6 47222.7 45475.5
44236.6 43600.9 43655.2 44134.7 44794 45472.3 46174.7 46886.5 47606.8
48433.2 49295.6 50261.3 51303.9 52425.8 53654.1 54960.7 56333.7 57810.2
59341.2 60926.6 62591.7 64276.8 66000.8 67778.4 69568 71393.3 73232.3
75057.4 76910.1 78749.3 80561.5 82383.7 84149.5 85887.4 87601.1 89232.9
90821.5 92342.7 93769.7 95143.4 96433.8 97642 98766.5 99783.6 100713
101552 102288 102918 103445 103862 104165 104332 104378 104253
104075 103590 102956 102160 101230 100091 98746.8 97256.7 95644.6
93982.9 92276.7 90498 88648.4 86612.2 84441.4 82073.4 79545.2 76956.5
74331.2 71860.6 69516.2 67371.1 65403.6 63526.7 61847.7 60286.7 58884.2
57555.1 56231.9 55059.6 54048.9 53270 52271.6 51434 50531.2 49650.3
48744.6 47860.3 47029.9 46116 45418.8 44636.1 43989.3 43383.9 42760.5
42349.1 42006.5 41693.4 41547.1 41611.8 41857.5 42296.7 43090.5 44317
45621.3 46865 47934.3 48818 49526.6 50091.1 50536.2 50888.8 51171.9
51404.1 51599.6 51769.5 51922.2 52064.7 52202.3 52339.6 52479.9 52625
52775.6 52931.7 53092.6 53257.7 53426.4 53597.6 53771.2 53945.6 54120.9
54295.3 54469 54640.4 54809.4 54974.5 55135.8 55292 55443 55588
55726.6 55858.5 55983.5 56101.5 56212.5 56316.7 56414.2 56505.3 56590.2
56669.2 56742.6 56810.8 56873.1 56933.8 56989.4 57038.6
        </DataArray>
        <DataArray type='Float32' Name='p' format='ascii'>
-109.797 -113.774 -115.61 -116.109 -116.2 -116.235 -116.359 -116.667 -117.114
-117.591 -118.052 -118.476 -118.854 -119.188 -119.486 -119.756 -120.004 -120.229
-120.435 -120.627 -120.812 -120.992 -121.167 -121.336 -121.498 -121.652 -121.796
-121.933 -122.06 -122.179 -122.288 -122.389 -122.483 -122.57 -122.651 -122.726
-122.797 -122.863 -122.926 -122.986 -123.042 -123.097 -123.149 -123.2 -123.248
-123.296 -123.341 -123.386 -123.43 -123.473 -123.515 -123.556 -123.597 -123.637
-123.677 -123.717 -123.755 -123.794 -123.832 -123.869 -123.906 -123.943 -123.979
-124.015 -124.05 -124.085 -124.119 -124.153 -124.187 -124.22 -124.253 -124.286
-124.318 -124.35 -124.382 -124.413 -124.444 -124.475 -124.505 -124.536 -124.566
-124.596 -124.625 -124.655 -124.684 -124.712 -124.741 -124.769 -124.797 -124.824
-124.852 -124.879 -124.905 -124.932 -124.958 -124.984 -125.01 -125.036 -125.061
-125.086 -125.111 -125.136 -125.16 -125.185 -125.209 -125.232 -125.256 -125.279
-125.302 -125.324 -125.347 -125.369 -125.391 -125.413 -125.434 -125.455 -125.476
-125.497 -125.518 -125.539 -125.559 -125.579 -125.6 -125.62 -125.639 -125.659
-125.678 -125.698 -125.717 -125.736 -125.755 -125.774 -125.793 -125.812 -125.831
-125.849 -125.868 -125.886 -125.904 -125.922 -125.939 -125.957 -125.974 -125.991
-126.008 -126.024 -126.041 -126.057 -126.073 -126.088 -126.104 -126.119 -126.134
-126.149 -126.164 -126.178 -126.193 -126.207 -126.221 -126.236 -126.25 -126.264
-126.277 -126.291 -126.305 -126.318 -126.331 -126.344 -126.356 -126.368 -126.38
-126.392 -126.403 -126.414 -126.425 -126.436 -126.446 -126.456 -126.466 -126.475
-126.484 -126.493 -126.501 -126.509 -126.517 -126.525 -126.532 -126.539 -126.546
-126.552 -126.558 -126.564 -126.569 -126.573 -126.578 -126.581 -126.585 -126.588
-126.59 -126.592 -126.593 -126.594 -126.595 -126.594 -126.594 -126.592 -126.59
-126.588 -126.585 -126.581 -126.577 -126.572 -126.566 -126.56 -126.554 -126.546
-126.539 -126.53 -126.521 -126.51 -126.499 -126.487 -126.474 -126.46 -126.445
-126.429 -126.412 -126.394 -126.375 -126.354 -126.333 -126.31 -126.286 -126.26
-126.234 -126.206 -126.177 -126.147 -126.116 -126.082 -126.048 -126.012 -125.974
-125.935 -125.894 -125.851 -125.806 -125.759 -125.711 -125.66 -125.607 -125.552
-125.494 -125.434 -125.372 -125.307 -125.24 -125.171 -125.098 -125.023 -124.945
-124.865 -124.781 -124.694 -124.604 -124.511 -124.415 -124.315 -124.211 -124.103
-123.991 -123.876 -123.755 -123.631 -123.501 -123.367 -123.228 -123.083 -122.933
-122.777 -122.616 -122.448 -122.274 -122.094 -121.907 -121.712 -121.51 -121.301
-121.084 -120.858 -120.624 -120.381 -120.129 -119.867 -119.595 -119.312 -119.019
-118.714 -118.398 -118.069 -117.728 -117.373 -117.004 -116.621 -116.223 -115.808
-115.377 -114.928 -114.462 -113.975 -113.47 -112.942 -112.394 -111.821 -111.225
-110.603 -109.954 -109.276 -108.569 -107.831 -107.059 -106.252 -105.407 -104.523
-103.598 -102.628 -101.612 -100.546 -99.4275 -98.2522 -97.0175 -95.7182 -94.3527
-92.9124 -91.3969 -89.7934 -88.1039 -86.3112 -84.4181 -82.4039 -80.271 -77.996
-75.579 -72.9958 -70.2374 -67.2787 -64.0994 -60.6713 -56.9645 -52.944 -48.5708
-43.7967 -38.5529 -32.7467 -26.258 -18.7985 -9.93517 -0.501034 13.1542 31.1683
41.9732 46.4051 49.9952 51.9601 52.8705 54.0461 55.5593 56.0039 55.1628
52.4845 46.9163 39.3283 28.9324 15.7483 1.16247 -16.0714 -35.0321 -54.6161
-76.2288 -98.4002 -120.988 -145.403 -169.235 -193.82 -220.966 -246.771 -274.187
-303.548 -331.423 -361.844 -392.936 -423.5 -456.531 -489.195 -522.015 -556.75
-589.245 -622.574 -656.319 -687.276 -719.808 -750.766 -779.339 -808.185 -833.462
-858.271 -881.493 -900.832 -919.518 -934.472 -947.299 -957.479 -963.239 -966.545
-965.927 -961.406 -952.607 -940.876 -926.039 -906.344 -880.191 -850.714 -819.062
-786.464 -754.211 -719.164 -682.935 -643.431 -601.435 -558.591 -512.568 -467.026
-419.897 -373.321 -328.276 -282.213 -238.675 -195.232 -153.17 -113.652 -74.74
-38.8622 -3.72627 29.6038 60.8604 90.1745 116.308 142.282 166.477 189.184
207.57 226.054 241.17 254.819 266.249 273.691 281.787 285.985 289.303
290.46 288.703 285.752 280.324 273.209 263.818 250.926 234.868 213.703
184.371 163.239 146.759 132.481 120.225 109.485 100.412 93.0713 87.3563
82.9808 79.6121 76.9267 74.6241 72.48 70.3378 68.1092 65.7587 63.2959
60.7582 58.1872 55.6156 53.0668 50.5555 48.0994 45.6958 43.368 41.1017
38.9182 36.7977 34.7573 32.7784 30.8733 29.0249 27.2386 25.5017 23.8153
22.1736 20.5734 19.0123 17.4858 15.9909 14.5235 13.0804 11.6576 10.2523
8.86116 7.48128 6.11322 4.74427 3.41684 1.84962 0.596854
        </DataArray>
        <DataArray type='Float32' Name='U' NumberOfComponents='3' format='ascii'>
0 0 0 0 0 0 0 0 0
0 0 0 0 0 0 0 0 0
0 0 0 0 0 0 0 0 0
0 0 0 0 0 0 0 0 0
0 0 0 0 0 0 0 0 0
0 0 0 0 0 0 0 0 0
0 0 0 0 0 0 0 0 0
0 0 0 0 0 0 0 0 0
0 0 0 0 0 0 0 0 0
0 0 0 0 0 0 0 0 0
0 0 0 0 0 0 0 0 0
0 0 0 0 0 0 0 0 0
0 0 0 0 0 0 0 0 0
0 0 0 0 0 0 0 0 0
0 0 0 0 0 0 0 0 0
0 0 0 0 0 0 0 0 0
0 0 0 0 0 0 0 0 0
0 0 0 0 0 0 0 0 0
0 0 0 0 0 0 0 0 0
0 0 0 0 0 0 0 0 0
0 0 0 0 0 0 0 0 0
0 0 0 0 0 0 0 0 0
0 0 0 0 0 0 0 0 0
0 0 0 0 0 0 0 0 0
0 0 0 0 0 0 0 0 0
0 0 0 0 0 0 0 0 0
0 0 0 0 0 0 0 0 0
0 0 0 0 0 0 0 0 0
0 0 0 0 0 0 0 0 0
0 0 0 0 0 0 0 0 0
0 0 0 0 0 0 0 0 0
0 0 0 0 0 0 0 0 0
0 0 0 0 0 0 0 0 0
0 0 0 0 0 0 0 0 0
0 0 0 0 0 0 0 0 0
0 0 0 0 0 0 0 0 0
0 0 0 0 0 0 0 0 0
0 0 0 0 0 0 0 0 0
0 0 0 0 0 0 0 0 0
0 0 0 0 0 0 0 0 0
0 0 0 0 0 0 0 0 0
0 0 0 0 0 0 0 0 0
0 0 0 0 0 0 0 0 0
0 0 0 0 0 0 0 0 0
0 0 0 0 0 0 0 0 0
0 0 0 0 0 0 0 0 0
0 0 0 0 0 0 0 0 0
0 0 0 0 0 0 0 0 0
0 0 0 0 0 0 0 0 0
0 0 0 0 0 0 0 0 0
0 0 0 0 0 0 0 0 0
0 0 0 0 0 0 0 0 0
0 0 0 0 0 0 0 0 0
0 0 0 0 0 0 0 0 0
0 0 0 0 0 0 0 0 0
0 0 0 0 0 0 0 0 0
0 0 0 0 0 0 0 0 0
0 0 0 0 0 0 0 0 0
0 0 0 0 0 0 0 0 0
0 0 0 0 0 0 0 0 0
0 0 0 0 0 0 0 0 0
0 0 0 0 0 0 0 0 0
0 0 0 0 0 0 0 0 0
0 0 0 0 0 0 0 0 0
0 0 0 0 0 0 0 0 0
0 0 0 0 0 0 0 0 0
0 0 0 0 0 0 0 0 0
0 0 0 0 0 0 0 0 0
0 0 0 0 0 0 0 0 0
0 0 0 0 0 0 0 0 0
0 0 0 0 0 0 0 0 0
0 0 0 0 0 0 0 0 0
0 0 0 0 0 0 0 0 0
0 0 0 0 0 0 0 0 0
0 0 0 0 0 0 0 0 0
0 0 0 0 0 0 0 0 0
0 0 0 0 0 0 0 0 0
0 0 0 0 0 0 0 0 0
0 0 0 0 0 0 0 0 0
0 0 0 0 0 0 0 0 0
0 0 0 0 0 0 0 0 0
0 0 0 0 0 0 0 0 0
0 0 0 0 0 0 0 0 0
0 0 0 0 0 0 0 0 0
0 0 0 0 0 0 0 0 0
0 0 0 0 0 0 0 0 0
0 0 0 0 0 0 0 0 0
0 0 0 0 0 0 0 0 0
0 0 0 0 0 0 0 0 0
0 0 0 0 0 0 0 0 0
0 0 0 0 0 0 0 0 0
0 0 0 0 0 0 0 0 0
0 0 0 0 0 0 0 0 0
0 0 0 0 0 0 0 0 0
0 0 0 0 0 0 0 0 0
0 0 0 0 0 0 0 0 0
0 0 0 0 0 0 0 0 0
0 0 0 0 0 0 0 0 0
0 0 0 0 0 0 0 0 0
0 0 0 0 0 0 0 0 0
0 0 0 0 0 0 0 0 0
0 0 0 0 0 0 0 0 0
0 0 0 0 0 0 0 0 0
0 0 0 0 0 0 0 0 0
0 0 0 0 0 0 0 0 0
0 0 0 0 0 0 0 0 0
0 0 0 0 0 0 0 0 0
0 0 0 0 0 0 0 0 0
0 0 0 0 0 0 0 0 0
0 0 0 0 0 0 0 0 0
0 0 0 0 0 0 0 0 0
0 0 0 0 0 0 0 0 0
0 0 0 0 0 0 0 0 0
0 0 0 0 0 0 0 0 0
0 0 0 0 0 0 0 0 0
0 0 0 0 0 0 0 0 0
0 0 0 0 0 0 0 0 0
0 0 0 0 0 0 0 0 0
0 0 0 0 0 0 0 0 0
0 0 0 0 0 0 0 0 0
0 0 0 0 0 0 0 0 0
0 0 0 0 0 0 0 0 0
0 0 0 0 0 0 0 0 0
0 0 0 0 0 0 0 0 0
0 0 0 0 0 0 0 0 0
0 0 0 0 0 0 0 0 0
0 0 0 0 0 0 0 0 0
0 0 0 0 0 0 0 0 0
0 0 0 0 0 0 0 0 0
0 0 0 0 0 0 0 0 0
0 0 0 0 0 0 0 0 0
0 0 0 0 0 0 0 0 0
0 0 0 0 0 0 0 0 0
0 0 0 0 0 0 0 0 0
0 0 0 0 0 0 0 0 0
0 0 0 0 0 0 0 0 0
0 0 0 0 0 0 0 0 0
0 0 0 0 0 0 0 0 0
0 0 0 0 0 0 0 0 0
0 0 0 0 0 0 0 0 0
0 0 0 0 0 0 0 0 0
0 0 0 0 0 0 0 0 0
0 0 0 0 0 0 0 0 0
0 0 0 0 0 0 0 0 0
0 0 0 0 0 0 0 0 0
0 0 0 0 0 0 0 0 0
0 0 0 0 0 0 0 0 0
0 0 0 0 0 0 0 0 0
0 0 0 0 0 0 0 0 0
0 0 0 0 0 0 0 0 0
0 0 0 0 0 0 0 0 0
0 0 0 0 0 0 0 0 0
0 0 0 0 0 0 0 0 0
0 0 0 0 0 0 0 0 0
0 0 0 0 0 0 0 0 0
0 0 0 0 0 0 0 0 0
0 0 0 0 0 0 0 0 0
0 0 0 0 0 0 0 0 0
0 0 0 0 0 0 0 0 0
0 0 0 0 0 0 0 0 0
0 0 0 0 0 0 0 0 0
0 0 0 0 0 0 0 0 0
0 0 0 0 0 0 0 0 0
0 0 0 0 0 0 0 0 0
0 0 0 0 0 0 0 0 0
0 0 0 0 0 0 0 0 0
0 0 0 0 0 0 0 0 0
0 0 0 0 0 0 0 0 0
0 0 0 0 0 0 0 0 0
0 0 0 0 0 0 0 0 0
0 0 0 0 0 0 0 0 0
0 0 0 0 0 0 0 0 0
0 0 0 0 0 0 0 0 0
0 0 0
        </DataArray>
      </CellData>
      <PointData>
        <DataArray type='Float32' Name='k' format='ascii'>
0.4551 0.706852 0.706852 0.4551 1.2989 1.2989 2.03034 2.03034 2.88354
2.88354 3.81236 3.81236 4.74261 4.74261 5.66792 5.66792 6.57112 6.57112
7.41782 7.41782 8.18187 8.18187 8.84647 8.84647 9.40373 9.40373 9.85327
9.85327 10.2004 10.2004 10.4543 10.4543 10.626 10.626 10.7276 10.7276
10.7729 10.7729 10.7745 10.7745 10.7415 10.7415 10.6818 10.6818 10.6021
10.6021 10.5083 10.5083 10.4053 10.4053 10.2972 10.2972 10.1872 10.1872
10.0777 10.0777 9.97065 9.97065 9.86768 9.86768 9.76999 9.76999 9.67812
9.67812 9.59229 9.59229 9.51254 9.51254 9.43878 9.43878 9.37083 9.37083
9.30846 9.30846 9.25139 9.25139 9.19929 9.19929 9.15184 9.15184 9.10869
9.10869 9.0695 9.0695 9.03392 9.03392 9.00158 9.00158 8.97216 8.97216
8.94539 8.94539 8.92099 8.92099 8.89872 8.89872 8.87834 8.87834 8.85963
8.85963 8.84239 8.84239 8.82645 8.82645 8.81165 8.81165 8.79785 8.79785
8.78491 8.78491 8.77274 8.77274 8.76123 8.76123 8.75029 8.75029 8.73985
8.73985 8.72984 8.72984 8.7202 8.7202 8.71089 8.71089 8.70186 8.70186
8.69306 8.69306 8.68447 8.68447 8.67605 8.67605 8.66778 8.66778 8.65963
8.65963 8.6516 8.6516 8.64366 8.64366 8.63582 8.63582 8.62805 8.62805
8.62035 8.62035 8.61271 8.61271 8.60512 8.60512 8.59757 8.59757 8.59005
8.59005 8.58256 8.58256 8.5751 8.5751 8.56766 8.56766 8.56024 8.56024
8.55284 8.55284 8.54547 8.54547 8.53811 8.53811 8.53077 8.53077 8.52346
8.52346 8.51616 8.51616 8.50889 8.50889 8.50163 8.50163 8.49439 8.49439
8.48716 8.48716 8.47995 8.47995 8.47276 8.47276 8.46557 8.46557 8.4584
8.4584 8.45123 8.45123 8.44408 8.44408 8.43694 8.43694 8.4298 8.4298
8.42267 8.42267 8.41554 8.41554 8.40842 8.40842 8.40131 8.40131 8.39421
8.39421 8.38713 8.38713 8.38005 8.38005 8.37299 8.37299 8.36594 8.36594
8.3589 8.3589 8.35187 8.35187 8.34485 8.34485 8.33784 8.33784 8.33084
8.33084 8.32384 8.32384 8.31685 8.31685 8.30985 8.30985 8.30286 8.30286
8.29585 8.29585 8.28884 8.28884 8.28181 8.28181 8.27477 8.27477 8.26772
8.26772 8.26065 8.26065 8.25358 8.25358 8.24649 8.24649 8.2394 8.2394
8.2323 8.2323 8.2252 8.2252 8.21809 8.21809 8.21098 8.21098 8.20387
8.20387 8.19676 8.19676 8.18965 8.18965 8.18254 8.18254 8.17544 8.17544
8.16833 8.16833 8.16122 8.16122 8.15412 8.15412 8.14702 8.14702 8.13993
8.13993 8.13284 8.13284 8.12576 8.12576 8.1187 8.1187 8.11164 8.11164
8.1046 8.1046 8.09757 8.09757 8.09055 8.09055 8.08356 8.08356 8.07658
8.07658 8.06962 8.06962 8.06269 8.06269 8.05577 8.05577 8.04888 8.04888
8.04201 8.04201 8.03515 8.03515 8.02832 8.02832 8.0215 8.0215 8.0147
8.0147 8.00791 8.00791 8.00112 8.00112 7.99434 7.99434 7.98755 7.98755
7.98076 7.98076 7.97395 7.97395 7.96713 7.96713 7.96029 7.96029 7.95343
7.95343 7.94656 7.94656 7.93968 7.93968 7.93279 7.93279 7.92588 7.92588
7.91896 7.91896 7.91204 7.91204 7.90511 7.90511 7.89817 7.89817 7.89123
7.89123 7.88429 7.88429 7.87735 7.87735 7.87042 7.87042 7.86348 7.86348
7.85656 7.85656 7.84964 7.84964 7.84273 7.84273 7.83582 7.83582 7.82893
7.82893 7.82204 7.82204 7.81516 7.81516 7.80829 7.80829 7.80144 7.80144
7.79459 7.79459 7.78775 7.78775 7.78093 7.78093 7.77411 7.77411 7.76731
7.76731 7.76051 7.76051 7.75372 7.75372 7.74694 7.74694 7.74015 7.74015
7.73337 7.73337 7.72659 7.72659 7.71982 7.71982 7.71305 7.71305 7.70628
7.70628 7.69951 7.69951 7.69276 7.69276 7.68601 7.68601 7.67927 7.67927
7.67253 7.67253 7.6658 7.6658 7.65907 7.65907 7.65233 7.65233 7.64557
7.64557 7.63879 7.63879 7.63199 7.63199 7.62517 7.62517 7.61831 7.61831
7.61144 7.61144 7.60454 7.60454 7.59762 7.59762 7.59069 7.59069 7.58375
7.58375 7.57679 7.57679 7.56984 7.56984 7.56287 7.56287 7.55591 7.55591
7.54895 7.54895 7.54199 7.54199 7.53502 7.53502 7.52806 7.52806 7.5211
7.5211 7.51414 7.51414 7.50717 7.50717 7.50021 7.50021 7.49323 7.49323
7.48626 7.48626 7.47927 7.47927 7.47228 7.47228 7.46528 7.46528 7.45827
7.45827 7.45125 7.45125 7.44422 7.44422 7.43717 7.43717 7.43011 7.43011
7.42303 7.42303 7.41594 7.41594 7.40883 7.40883 7.4017 7.4017 7.39455
7.39455 7.38739 7.38739 7.3802 7.3802 7.37298 7.37298 7.36575 7.36575
7.35848 7.35848 7.35119 7.35119 7.34387 7.34387 7.33651 7.33651 7.32911
7.32911 7.32167 7.32167 7.31418 7.31418 7.30663 7.30663 7.29903 7.29903
7.29136 7.29136 7.28362 7.28362 7.27582 7.27582 7.26795 7.26795 7.26
7.26 7.25199 7.25199 7.2439 7.2439 7.23574 7.23574 7.22751 7.22751
7.2192 7.2192 7.21082 7.21082 7.20237 7.20237 7.19384 7.19384 7.18523
7.18523 7.17654 7.17654 7.16777 7.16777 7.1589 7.1589 7.14995 7.14995
7.1409 7.1409 7.13175 7.13175 7.1225 7.1225 7.11314 7.11314 7.10368
7.10368 7.09409 7.09409 7.08439 7.08439 7.07455 7.07455 7.06459 7.06459
7.05448 7.05448 7.04423 7.04423 7.03383 7.03383 7.02326 7.02326 7.01253
7.01253 7.00163 7.00163 6.99054 6.99054 6.97927 6.97927 6.9678 6.9678
6.95613 6.95613 6.94424 6.94424 6.93212 6.93212 6.91977 6.91977 6.90717
6.90717 6.89431 6.89431 6.88118 6.88118 6.86778 6.86778 6.85409 6.85409
6.8401 6.8401 6.82578 6.82578 6.81113 6.81113 6.79612 6.79612 6.78073
6.78073 6.76494 6.76494 6.74873 6.74873 6.73207 6.73207 6.71494 6.71494
6.69733 6.69733 6.6792 6.6792 6.66054 6.66054 6.6413 6.6413 6.62147
6.62147 6.60101 6.60101 6.57987 6.57987 6.55802 6.55802 6.5354 6.5354
6.51198 6.51198 6.48769 6.48769 6.46247 6.46247 6.43626 6.43626 6.40899
6.40899 6.38057 6.38057 6.35093 6.35093 6.31998 6.31998 6.28763 6.28763
6.25376 6.25376 6.21829 6.21829 6.18107 6.18107 6.14198 6.14198 6.10088
6.10088 6.05759 6.05759 6.01194 6.01194 5.96372 5.96372 5.9127 5.9127
5.85861 5.85861 5.80118 5.80118 5.74005 5.74005 5.67483 5.67483 5.60503
5.60503 5.53009 5.53009 5.44932 5.44932 5.36189 5.36189 5.26678 5.26678
5.16276 5.16276 5.04822 5.04822 4.9212 4.9212 4.77854 4.77854 4.6141
4.6141 4.42427 4.42427 4.19242 4.19242 3.87476 3.87476 3.49731 3.49731
3.17705 3.17705 2.98173 2.98173 2.92132 2.92132 2.96519 2.96519 3.05784
3.05784 3.16302 3.16302 3.26349 3.26349 3.35847 3.35847 3.45369 3.45369
3.55876 3.55876 3.67458 3.67458 3.8042 3.8042 3.95211 3.95211 4.1178
4.1178 4.30109 4.30109 4.5034 4.5034 4.72349 4.72349 4.95881 4.95881
5.21149 5.21149 5.47956 5.47956 5.7601 5.7601 6.05643 6.05643 6.36365
6.36365 6.68107 6.68107 7.01703 7.01703 7.36406 7.36406 7.72135 7.72135
8.09612 8.09612 8.4787 8.4787 8.87205 8.87205 9.28123 9.28123 9.69585
9.69585 10.1206 10.1206 10.5544 10.5544 10.989 10.989 11.4307 11.4307
11.8695 11.8695 12.3007 12.3007 12.7316 12.7316 13.1495 13.1495 13.5576
13.5576 13.9586 13.9586 14.3389 14.3389 14.7022 14.7022 15.0425 15.0425
15.3569 15.3569 15.6497 15.6497 15.9083 15.9083 16.1328 16.1328 16.3212
16.3212 16.4641 16.4641 16.5581 16.5581 16.6007 16.6007 16.5825 16.5825
16.5067 16.5067 16.3622 16.3622 16.1329 16.1329 15.8336 15.8336 15.4734
15.4734 15.0466 15.0466 14.5454 14.5454 13.9825 13.9825 13.3796 13.3796
12.7619 12.7619 12.1427 12.1427 11.5224 11.5224 10.8996 10.8996 10.2603
10.2603 9.60422 9.60422 8.92895 8.92895 8.23977 8.23977 7.55905 7.55905
6.90357 6.90357 6.30359 6.30359 5.76587 5.76587 5.29394 5.29394 4.88578
4.88578 4.52395 4.52395 4.21323 4.21323 3.94387 3.94387 3.71397 3.71397
3.51545 3.51545 3.33232 3.33232 3.17524 3.17524 3.04597 3.04597 2.96232
2.96232 2.88745 2.88745 2.80967 2.80967 2.75107 2.75107 2.69187 2.69187
2.6401 2.6401 2.59034 2.59034 2.53647 2.53647 2.49181 2.49181 2.48207
2.48207 2.47906 2.47906 2.45433 2.45433 2.43449 2.43449 2.42273 2.42273
2.42497 2.42497 2.44147 2.44147 2.46317 2.46317 2.50099 2.50099 2.55977
2.55977 2.64648 2.64648 2.76243 2.76243 2.91934 2.91934 3.14907 3.14907
3.43436 3.43436 3.72654 3.72654 3.99617 3.99617 4.22841 4.22841 4.42032
4.42032 4.57298 4.57298 4.68956 4.68956 4.77417 4.77417 4.83269 4.83269
4.87236 4.87236 4.8996 4.8996 4.91977 4.91977 4.93695 4.93695 4.95398
4.95398 4.97271 4.97271 4.99418 4.99418 5.01898 5.01898 5.04729 5.04729
5.0789 5.0789 5.11342 5.11342 5.15038 5.15038 5.18934 5.18934 5.2299
5.2299 5.27173 5.27173 5.31453 5.31453 5.35804 5.35804 5.40202 5.40202
5.44627 5.44627 5.49058 5.49058 5.53476 5.53476 5.57863 5.57863 5.62201
5.62201 5.66472 5.66472 5.70661 5.70661 5.74751 5.74751 5.78727 5.78727
5.82575 5.82575 5.86279 5.86279 5.89828 5.89828 5.93215 5.93215 5.96433
5.96433 5.99481 5.99481 6.02359 6.02359 6.05069 6.05069 6.07616 6.07616
6.10004 6.10004 6.12239 6.12239 6.1433 6.1433 6.16269 6.16269 6.1811
6.1811 6.19867 6.19867 6.21494 6.21494 6.22261 6.22261
        </DataArray>
        <DataArray type='Float32' Name='nut' format='ascii'>
0 0 0 0 0 0 2.58713e-07 2.58713e-07 1.61577e-06
1.61577e-06 3.65801e-06 3.65801e-06 5.42747e-06 5.42747e-06 6.99576e-06 6.99576e-06 8.38999e-06 8.38999e-06
9.6e-06 9.6e-06 1.06253e-05 1.06253e-05 1.14732e-05 1.14732e-05 1.21563e-05 1.21563e-05 1.26905e-05
1.26905e-05 1.30934e-05 1.30934e-05 1.33831e-05 1.33831e-05 1.35767e-05 1.35767e-05 1.36904e-05 1.36904e-05
1.37408e-05 1.37408e-05 1.37426e-05 1.37426e-05 1.37059e-05 1.37059e-05 1.36393e-05 1.36393e-05 1.355e-05
1.355e-05 1.34444e-05 1.34444e-05 1.33278e-05 1.33278e-05 1.32048e-05 1.32048e-05 1.30788e-05 1.30788e-05
1.29527e-05 1.29527e-05 1.28286e-05 1.28286e-05 1.27086e-05 1.27086e-05 1.2594e-05 1.2594e-05 1.24857e-05
1.24857e-05 1.23839e-05 1.23839e-05 1.22889e-05 1.22889e-05 1.22006e-05 1.22006e-05 1.2119e-05 1.2119e-05
1.20437e-05 1.20437e-05 1.19746e-05 1.19746e-05 1.19113e-05 1.19113e-05 1.18534e-05 1.18534e-05 1.18007e-05
1.18007e-05 1.17526e-05 1.17526e-05 1.17089e-05 1.17089e-05 1.16691e-05 1.16691e-05 1.16328e-05 1.16328e-05
1.15997e-05 1.15997e-05 1.15695e-05 1.15695e-05 1.15419e-05 1.15419e-05 1.15166e-05 1.15166e-05 1.14934e-05
1.14934e-05 1.14719e-05 1.14719e-05 1.14521e-05 1.14521e-05 1.14336e-05 1.14336e-05 1.14164e-05 1.14164e-05
1.14002e-05 1.14002e-05 1.1385e-05 1.1385e-05 1.13706e-05 1.13706e-05 1.13569e-05 1.13569e-05 1.13438e-05
1.13438e-05 1.13313e-05 1.13313e-05 1.13192e-05 1.13192e-05 1.13075e-05 1.13075e-05 1.12961e-05 1.12961e-05
1.12851e-05 1.12851e-05 1.12743e-05 1.12743e-05 1.12637e-05 1.12637e-05 1.12533e-05 1.12533e-05 1.1243e-05
1.1243e-05 1.12329e-05 1.12329e-05 1.12229e-05 1.12229e-05 1.1213e-05 1.1213e-05 1.12032e-05 1.12032e-05
1.11934e-05 1.11934e-05 1.11838e-05 1.11838e-05 1.11742e-05 1.11742e-05 1.11646e-05 1.11646e-05 1.11551e-05
1.11551e-05 1.11456e-05 1.11456e-05 1.11362e-05 1.11362e-05 1.11268e-05 1.11268e-05 1.11173e-05 1.11173e-05
1.1108e-05 1.1108e-05 1.10986e-05 1.10986e-05 1.10893e-05 1.10893e-05 1.10799e-05 1.10799e-05 1.10706e-05
1.10706e-05 1.10614e-05 1.10614e-05 1.10521e-05 1.10521e-05 1.10429e-05 1.10429e-05 1.10336e-05 1.10336e-05
1.10244e-05 1.10244e-05 1.10152e-05 1.10152e-05 1.1006e-05 1.1006e-05 1.09969e-05 1.09969e-05 1.09877e-05
1.09877e-05 1.09786e-05 1.09786e-05 1.09694e-05 1.09694e-05 1.09603e-05 1.09603e-05 1.09512e-05 1.09512e-05
1.0942e-05 1.0942e-05 1.09329e-05 1.09329e-05 1.09238e-05 1.09238e-05 1.09147e-05 1.09147e-05 1.09056e-05
1.09056e-05 1.08965e-05 1.08965e-05 1.08874e-05 1.08874e-05 1.08783e-05 1.08783e-05 1.08693e-05 1.08693e-05
1.08602e-05 1.08602e-05 1.08512e-05 1.08512e-05 1.08421e-05 1.08421e-05 1.08331e-05 1.08331e-05 1.08241e-05
1.08241e-05 1.08151e-05 1.08151e-05 1.08061e-05 1.08061e-05 1.0797e-05 1.0797e-05 1.0788e-05 1.0788e-05
1.0779e-05 1.0779e-05 1.07699e-05 1.07699e-05 1.07608e-05 1.07608e-05 1.07517e-05 1.07517e-05 1.07426e-05
1.07426e-05 1.07335e-05 1.07335e-05 1.07243e-05 1.07243e-05 1.07151e-05 1.07151e-05 1.07059e-05 1.07059e-05
1.06967e-05 1.06967e-05 1.06875e-05 1.06875e-05 1.06783e-05 1.06783e-05 1.06691e-05 1.06691e-05 1.06598e-05
1.06598e-05 1.06506e-05 1.06506e-05 1.06413e-05 1.06413e-05 1.06321e-05 1.06321e-05 1.06228e-05 1.06228e-05
1.06136e-05 1.06136e-05 1.06043e-05 1.06043e-05 1.0595e-05 1.0595e-05 1.05858e-05 1.05858e-05 1.05765e-05
1.05765e-05 1.05673e-05 1.05673e-05 1.0558e-05 1.0558e-05 1.05488e-05 1.05488e-05 1.05396e-05 1.05396e-05
1.05303e-05 1.05303e-05 1.05211e-05 1.05211e-05 1.0512e-05 1.0512e-05 1.05028e-05 1.05028e-05 1.04936e-05
1.04936e-05 1.04845e-05 1.04845e-05 1.04754e-05 1.04754e-05 1.04663e-05 1.04663e-05 1.04573e-05 1.04573e-05
1.04482e-05 1.04482e-05 1.04392e-05 1.04392e-05 1.04302e-05 1.04302e-05 1.04213e-05 1.04213e-05 1.04123e-05
1.04123e-05 1.04034e-05 1.04034e-05 1.03944e-05 1.03944e-05 1.03855e-05 1.03855e-05 1.03765e-05 1.03765e-05
1.03676e-05 1.03676e-05 1.03586e-05 1.03586e-05 1.03496e-05 1.03496e-05 1.03405e-05 1.03405e-05 1.03314e-05
1.03314e-05 1.03224e-05 1.03224e-05 1.03132e-05 1.03132e-05 1.03041e-05 1.03041e-05 1.0295e-05 1.0295e-05
1.02858e-05 1.02858e-05 1.02766e-05 1.02766e-05 1.02674e-05 1.02674e-05 1.02582e-05 1.02582e-05 1.0249e-05
1.0249e-05 1.02397e-05 1.02397e-05 1.02305e-05 1.02305e-05 1.02213e-05 1.02213e-05 1.02121e-05 1.02121e-05
1.02028e-05 1.02028e-05 1.01936e-05 1.01936e-05 1.01844e-05 1.01844e-05 1.01752e-05 1.01752e-05 1.0166e-05
1.0166e-05 1.01568e-05 1.01568e-05 1.01476e-05 1.01476e-05 1.01384e-05 1.01384e-05 1.01293e-05 1.01293e-05
1.01201e-05 1.01201e-05 1.01109e-05 1.01109e-05 1.01018e-05 1.01018e-05 1.00927e-05 1.00927e-05 1.00836e-05
1.00836e-05 1.00744e-05 1.00744e-05 1.00653e-05 1.00653e-05 1.00562e-05 1.00562e-05 1.00471e-05 1.00471e-05
1.0038e-05 1.0038e-05 1.00289e-05 1.00289e-05 1.00198e-05 1.00198e-05 1.00106e-05 1.00106e-05 1.00015e-05
1.00015e-05 9.99242e-06 9.99242e-06 9.98331e-06 9.98331e-06 9.97421e-06 9.97421e-06 9.96511e-06 9.96511e-06
9.95602e-06 9.95602e-06 9.94693e-06 9.94693e-06 9.93783e-06 9.93783e-06 9.92871e-06 9.92871e-06 9.91957e-06
9.91957e-06 9.9104e-06 9.9104e-06 9.90119e-06 9.90119e-06 9.89194e-06 9.89194e-06 9.88266e-06 9.88266e-06
9.87333e-06 9.87333e-06 9.86397e-06 9.86397e-06 9.85458e-06 9.85458e-06 9.84517e-06 9.84517e-06 9.83573e-06
9.83573e-06 9.82627e-06 9.82627e-06 9.81681e-06 9.81681e-06 9.80733e-06 9.80733e-06 9.79785e-06 9.79785e-06
9.78836e-06 9.78836e-06 9.77887e-06 9.77887e-06 9.76937e-06 9.76937e-06 9.75987e-06 9.75987e-06 9.75036e-06
9.75036e-06 9.74085e-06 9.74085e-06 9.73133e-06 9.73133e-06 9.7218e-06 9.7218e-06 9.71226e-06 9.71226e-06
9.70271e-06 9.70271e-06 9.69314e-06 9.69314e-06 9.68356e-06 9.68356e-06 9.67396e-06 9.67396e-06 9.66434e-06
9.66434e-06 9.6547e-06 9.6547e-06 9.64504e-06 9.64504e-06 9.63536e-06 9.63536e-06 9.62565e-06 9.62565e-06
9.61591e-06 9.61591e-06 9.60615e-06 9.60615e-06 9.59636e-06 9.59636e-06 9.58653e-06 9.58653e-06 9.57668e-06
9.57668e-06 9.56679e-06 9.56679e-06 9.55686e-06 9.55686e-06 9.5469e-06 9.5469e-06 9.5369e-06 9.5369e-06
9.52686e-06 9.52686e-06 9.51678e-06 9.51678e-06 9.50664e-06 9.50664e-06 9.49645e-06 9.49645e-06 9.4862e-06
9.4862e-06 9.47587e-06 9.47587e-06 9.46548e-06 9.46548e-06 9.455e-06 9.455e-06 9.44444e-06 9.44444e-06
9.43378e-06 9.43378e-06 9.42302e-06 9.42302e-06 9.41216e-06 9.41216e-06 9.4012e-06 9.4012e-06 9.39013e-06
9.39013e-06 9.37896e-06 9.37896e-06 9.36767e-06 9.36767e-06 9.35628e-06 9.35628e-06 9.34478e-06 9.34478e-06
9.33317e-06 9.33317e-06 9.32145e-06 9.32145e-06 9.30962e-06 9.30962e-06 9.29767e-06 9.29767e-06 9.28561e-06
9.28561e-06 9.27342e-06 9.27342e-06 9.2611e-06 9.2611e-06 9.24866e-06 9.24866e-06 9.23607e-06 9.23607e-06
9.22334e-06 9.22334e-06 9.21047e-06 9.21047e-06 9.19744e-06 9.19744e-06 9.18425e-06 9.18425e-06 9.17089e-06
9.17089e-06 9.15736e-06 9.15736e-06 9.14365e-06 9.14365e-06 9.12974e-06 9.12974e-06 9.11564e-06 9.11564e-06
9.10133e-06 9.10133e-06 9.0868e-06 9.0868e-06 9.07204e-06 9.07204e-06 9.05704e-06 9.05704e-06 9.04179e-06
9.04179e-06 9.02628e-06 9.02628e-06 9.0105e-06 9.0105e-06 8.99444e-06 8.99444e-06 8.97808e-06 8.97808e-06
8.96141e-06 8.96141e-06 8.94442e-06 8.94442e-06 8.92709e-06 8.92709e-06 8.9094e-06 8.9094e-06 8.89134e-06
8.89134e-06 8.87289e-06 8.87289e-06 8.85404e-06 8.85404e-06 8.83477e-06 8.83477e-06 8.81506e-06 8.81506e-06
8.79489e-06 8.79489e-06 8.77423e-06 8.77423e-06 8.75307e-06 8.75307e-06 8.73135e-06 8.73135e-06 8.70906e-06
8.70906e-06 8.68616e-06 8.68616e-06 8.66261e-06 8.66261e-06 8.63839e-06 8.63839e-06 8.61345e-06 8.61345e-06
8.58776e-06 8.58776e-06 8.56128e-06 8.56128e-06 8.53397e-06 8.53397e-06 8.50578e-06 8.50578e-06 8.47667e-06
8.47667e-06 8.44658e-06 8.44658e-06 8.41544e-06 8.41544e-06 8.38319e-06 8.38319e-06 8.34975e-06 8.34975e-06
8.31503e-06 8.31503e-06 8.27896e-06 8.27896e-06 8.24144e-06 8.24144e-06 8.20234e-06 8.20234e-06 8.16157e-06
8.16157e-06 8.11898e-06 8.11898e-06 8.07444e-06 8.07444e-06 8.0278e-06 8.0278e-06 7.9789e-06 7.9789e-06
7.92757e-06 7.92757e-06 7.87363e-06 7.87363e-06 7.81684e-06 7.81684e-06 7.757e-06 7.757e-06 7.69383e-06
7.69383e-06 7.62704e-06 7.62704e-06 7.5563e-06 7.5563e-06 7.48125e-06 7.48125e-06 7.40145e-06 7.40145e-06
7.31644e-06 7.31644e-06 7.22567e-06 7.22567e-06 7.12847e-06 7.12847e-06 7.02413e-06 7.02413e-06 6.91169e-06
6.91169e-06 6.79008e-06 6.79008e-06 6.65793e-06 6.65793e-06 6.5136e-06 6.5136e-06 6.35507e-06 6.35507e-06
6.17976e-06 6.17976e-06 5.98437e-06 5.98437e-06 5.76464e-06 5.76464e-06 5.51392e-06 5.51392e-06 5.21939e-06
5.21939e-06 4.87194e-06 4.87194e-06 4.43466e-06 4.43466e-06 3.81113e-06 3.81113e-06 3.03574e-06 3.03574e-06
2.34166e-06 2.34166e-06 1.89278e-06 1.89278e-06 1.73871e-06 1.73871e-06 1.81737e-06 1.81737e-06 1.998e-06
1.998e-06 2.19463e-06 2.19463e-06 2.36693e-06 2.36693e-06 2.51501e-06 2.51501e-06 2.65224e-06 2.65224e-06
2.79795e-06 2.79795e-06 2.95516e-06 2.95516e-06 3.12804e-06 3.12804e-06 3.32317e-06 3.32317e-06 3.54116e-06
3.54116e-06 3.77671e-06 3.77671e-06 4.03084e-06 4.03084e-06 4.30391e-06 4.30391e-06 4.58495e-06 4.58495e-06
4.87875e-06 4.87875e-06 5.18435e-06 5.18435e-06 5.49042e-06 5.49042e-06 5.80715e-06 5.80715e-06 6.12665e-06
6.12665e-06 6.44285e-06 6.44285e-06 6.77572e-06 6.77572e-06 7.10978e-06 7.10978e-06 7.44158e-06 7.44158e-06
7.79033e-06 7.79033e-06 8.1353e-06 8.1353e-06 8.48134e-06 8.48134e-06 8.84305e-06 8.84305e-06 9.1986e-06
9.1986e-06 9.55907e-06 9.55907e-06 9.92695e-06 9.92695e-06 1.02859e-05 1.02859e-05 1.06525e-05 1.06525e-05
1.10137e-05 1.10137e-05 1.13622e-05 1.13622e-05 1.17157e-05 1.17157e-05 1.20549e-05 1.20549e-05 1.23851e-05
1.23851e-05 1.27145e-05 1.27145e-05 1.30245e-05 1.30245e-05 1.33247e-05 1.33247e-05 1.36084e-05 1.36084e-05
1.38708e-05 1.38708e-05 1.41206e-05 1.41206e-05 1.43432e-05 1.43432e-05 1.45398e-05 1.45398e-05 1.47091e-05
1.47091e-05 1.48414e-05 1.48414e-05 1.49356e-05 1.49356e-05 1.49875e-05 1.49875e-05 1.49892e-05 1.49892e-05
1.49427e-05 1.49427e-05 1.48379e-05 1.48379e-05 1.46616e-05 1.46616e-05 1.44235e-05 1.44235e-05 1.4129e-05
1.4129e-05 1.37721e-05 1.37721e-05 1.33446e-05 1.33446e-05 1.28544e-05 1.28544e-05 1.23167e-05 1.23167e-05
1.17526e-05 1.17526e-05 1.11716e-05 1.11716e-05 1.05753e-05 1.05753e-05 9.9615e-06 9.9615e-06 9.31454e-06
9.31454e-06 8.63495e-06 8.63495e-06 7.91188e-06 7.91188e-06 7.1497e-06 7.1497e-06 6.36687e-06 6.36687e-06
5.57915e-06 5.57915e-06 4.82952e-06 4.82952e-06 4.12566e-06 4.12566e-06 3.48522e-06 3.48522e-06 2.91098e-06
2.91098e-06 2.38377e-06 2.38377e-06 1.92297e-06 1.92297e-06 1.51262e-06 1.51262e-06 1.16108e-06 1.16108e-06
8.55938e-07 8.55938e-07 5.7055e-07 5.7055e-07 3.32223e-07 3.32223e-07 1.41975e-07 1.41975e-07 4.5855e-08
4.5855e-08 1.74088e-08 1.74088e-08 0 0 0 0 0 0
0 0 0 0 0 0 0 0 0
0 0 0 0 0 1.69087e-09 1.69087e-09 3.19953e-08 3.19953e-08
1.25073e-07 1.25073e-07 2.49472e-07 2.49472e-07 3.80078e-07 3.80078e-07 5.44151e-07 5.44151e-07 7.5127e-07
7.5127e-07 1.0163e-06 1.0163e-06 1.33736e-06 1.33736e-06 1.73521e-06 1.73521e-06 2.27347e-06 2.27347e-06
2.90239e-06 2.90239e-06 3.5143e-06 3.5143e-06 4.05509e-06 4.05509e-06 4.50433e-06 4.50433e-06 4.86491e-06
4.86491e-06 5.14532e-06 5.14532e-06 5.3558e-06 5.3558e-06 5.50666e-06 5.50666e-06 5.6101e-06 5.6101e-06
5.67978e-06 5.67978e-06 5.72742e-06 5.72742e-06 5.76261e-06 5.76261e-06 5.79251e-06 5.79251e-06 5.82208e-06
5.82208e-06 5.85454e-06 5.85454e-06 5.89167e-06 5.89167e-06 5.93443e-06 5.93443e-06 5.98309e-06 5.98309e-06
6.03725e-06 6.03725e-06 6.09618e-06 6.09618e-06 6.15902e-06 6.15902e-06 6.22497e-06 6.22497e-06 6.29334e-06
6.29334e-06 6.36354e-06 6.36354e-06 6.43502e-06 6.43502e-06 6.50736e-06 6.50736e-06 6.58015e-06 6.58015e-06
6.65302e-06 6.65302e-06 6.72567e-06 6.72567e-06 6.79777e-06 6.79777e-06 6.86904e-06 6.86904e-06 6.93919e-06
6.93919e-06 7.00796e-06 7.00796e-06 7.07511e-06 7.07511e-06 7.14042e-06 7.14042e-06 7.20365e-06 7.20365e-06
7.2646e-06 7.2646e-06 7.32305e-06 7.32305e-06 7.37887e-06 7.37887e-06 7.43195e-06 7.43195e-06 7.48223e-06
7.48223e-06 7.5297e-06 7.5297e-06 7.57441e-06 7.57441e-06 7.61639e-06 7.61639e-06 7.65574e-06 7.65574e-06
7.69256e-06 7.69256e-06 7.72694e-06 7.72694e-06 7.75904e-06 7.75904e-06 7.78875e-06 7.78875e-06 7.81692e-06
7.81692e-06 7.84353e-06 7.84353e-06 7.86861e-06 7.86861e-06 7.88076e-06 7.88076e-06
        </DataArray>
        <DataArray type='Float32' Name='omega' format='ascii'>
29300.2 30981.3 30981.3 29300.2 34690.3 34690.3 38801.2 38801.2 43098.5
43098.5 47346.5 47346.5 51244.9 51244.9 54843.3 54843.3 58138.5 58138.5
61062.6 61062.6 63582 63582 65691.2 65691.2 67405.7 67405.7 68755.2
68755.2 69777.9 69777.9 70515.8 70515.8 71010.9 71010.9 71303.8 71303.8
71436.2 71436.2 71445.5 71445.5 71359 71359 71198.6 71198.6 70983.3
70983.3 70729.1 70729.1 70449.5 70449.5 70155.9 70155.9 69857 69857
69559.7 69559.7 69269.1 69269.1 68989.2 68989.2 68723.2 68723.2 68473.2
68473.2 68240.3 68240.3 68024.6 68024.6 67825.8 67825.8 67643.2 67643.2
67476.2 67476.2 67324 67324 67185.4 67185.4 67059.7 67059.7 66945.6
66945.6 66842.3 66842.3 66748.6 66748.6 66663.7 66663.7 66586.5 66586.5
66516.3 66516.3 66452.3 66452.3 66393.7 66393.7 66339.9 66339.9 66290.3
66290.3 66244.5 66244.5 66201.8 66201.8 66162 66162 66124.7 66124.7
66089.4 66089.4 66056 66056 66024.2 66024.2 65993.8 65993.8 65964.5
65964.5 65936.3 65936.3 65908.9 65908.9 65882.3 65882.3 65856.3 65856.3
65830.9 65830.9 65805.9 65805.9 65781.2 65781.2 65756.9 65756.9 65732.8
65732.8 65709 65709 65685.4 65685.4 65662 65662 65638.8 65638.8
65615.7 65615.7 65592.8 65592.8 65569.9 65569.9 65547.1 65547.1 65524.4
65524.4 65501.7 65501.7 65479.1 65479.1 65456.5 65456.5 65433.9 65433.9
65411.4 65411.4 65388.9 65388.9 65366.4 65366.4 65344 65344 65321.6
65321.6 65299.3 65299.3 65277 65277 65254.7 65254.7 65232.4 65232.4
65210.2 65210.2 65187.9 65187.9 65165.7 65165.7 65143.5 65143.5 65121.3
65121.3 65099.2 65099.2 65077 65077 65054.8 65054.8 65032.6 65032.6
65010.4 65010.4 64988.2 64988.2 64966 64966 64943.8 64943.8 64921.7
64921.7 64899.5 64899.5 64877.3 64877.3 64855.2 64855.2 64833.1 64833.1
64811 64811 64788.9 64788.9 64766.8 64766.8 64744.7 64744.7 64722.6
64722.6 64700.5 64700.5 64678.4 64678.4 64656.2 64656.2 64634 64634
64611.8 64611.8 64589.5 64589.5 64567.2 64567.2 64544.8 64544.8 64522.3
64522.3 64499.8 64499.8 64477.2 64477.2 64454.6 64454.6 64431.9 64431.9
64409.3 64409.3 64386.5 64386.5 64363.8 64363.8 64341 64341 64318.2
64318.2 64295.4 64295.4 64272.6 64272.6 64249.7 64249.7 64226.8 64226.8
64203.9 64203.9 64181 64181 64158 64158 64135.1 64135.1 64112.1
64112.1 64089.2 64089.2 64066.3 64066.3 64043.4 64043.4 64020.5 64020.5
63997.6 63997.6 63974.8 63974.8 63952 63952 63929.2 63929.2 63906.5
63906.5 63883.9 63883.9 63861.2 63861.2 63838.6 63838.6 63816.1 63816.1
63793.6 63793.6 63771.2 63771.2 63748.7 63748.7 63726.3 63726.3 63703.9
63703.9 63681.6 63681.6 63659.2 63659.2 63636.7 63636.7 63614.3 63614.3
63591.8 63591.8 63569.2 63569.2 63546.5 63546.5 63523.8 63523.8 63501
63501 63478.1 63478.1 63455.2 63455.2 63432.2 63432.2 63409.2 63409.2
63386.1 63386.1 63363 63363 63339.9 63339.9 63316.7 63316.7 63293.5
63293.5 63270.3 63270.3 63247.1 63247.1 63223.9 63223.9 63200.7 63200.7
63177.5 63177.5 63154.3 63154.3 63131.1 63131.1 63107.9 63107.9 63084.7
63084.7 63061.5 63061.5 63038.3 63038.3 63015.2 63015.2 62992.1 62992.1
62968.9 62968.9 62945.8 62945.8 62922.8 62922.8 62899.7 62899.7 62876.6
62876.6 62853.6 62853.6 62830.5 62830.5 62807.5 62807.5 62784.4 62784.4
62761.3 62761.3 62738.2 62738.2 62715.1 62715.1 62692 62692 62668.9
62668.9 62645.8 62645.8 62622.7 62622.7 62599.7 62599.7 62576.6 62576.6
62553.5 62553.5 62530.4 62530.4 62507.3 62507.3 62484.1 62484.1 62460.8
62460.8 62437.5 62437.5 62414 62414 62390.4 62390.4 62366.7 62366.7
62342.9 62342.9 62319.1 62319.1 62295.1 62295.1 62271.1 62271.1 62247.1
62247.1 62223.1 62223.1 62199 62199 62174.8 62174.8 62150.7 62150.7
62126.6 62126.6 62102.4 62102.4 62078.2 62078.2 62054.1 62054.1 62029.8
62029.8 62005.6 62005.6 61981.4 61981.4 61957.1 61957.1 61932.7 61932.7
61908.4 61908.4 61884 61884 61859.5 61859.5 61835 61835 61810.5
61810.5 61785.9 61785.9 61761.2 61761.2 61736.5 61736.5 61711.7 61711.7
61686.8 61686.8 61661.8 61661.8 61636.8 61636.8 61611.7 61611.7 61586.5
61586.5 61561.3 61561.3 61535.9 61535.9 61510.5 61510.5 61484.9 61484.9
61459.2 61459.2 61433.5 61433.5 61407.5 61407.5 61381.5 61381.5 61355.3
61355.3 61328.9 61328.9 61302.3 61302.3 61275.5 61275.5 61248.5 61248.5
61221.2 61221.2 61193.7 61193.7 61166 61166 61138 61138 61109.7
61109.7 61081.2 61081.2 61052.4 61052.4 61023.3 61023.3 60994 60994
60964.5 60964.5 60934.6 60934.6 60904.5 60904.5 60874.1 60874.1 60843.4
60843.4 60812.4 60812.4 60781.1 60781.1 60749.5 60749.5 60717.6 60717.6
60685.3 60685.3 60652.6 60652.6 60619.6 60619.6 60586.1 60586.1 60552.3
60552.3 60518 60518 60483.3 60483.3 60448.1 60448.1 60412.5 60412.5
60376.3 60376.3 60339.6 60339.6 60302.3 60302.3 60264.4 60264.4 60226
60226 60186.9 60186.9 60147.1 60147.1 60106.7 60106.7 60065.5 60065.5
60023.6 60023.6 59980.9 59980.9 59937.3 59937.3 59892.9 59892.9 59847.6
59847.6 59801.4 59801.4 59754.2 59754.2 59706 59706 59656.7 59656.7
59606.3 59606.3 59554.8 59554.8 59502 59502 59447.9 59447.9 59392.3
59392.3 59335.3 59335.3 59276.8 59276.8 59216.6 59216.6 59154.7 59154.7
59091 59091 59025.4 59025.4 58957.9 58957.9 58888.2 58888.2 58816.3
58816.3 58742.1 58742.1 58665.4 58665.4 58586 58586 58503.8 58503.8
58418.6 58418.6 58330.1 58330.1 58238.1 58238.1 58142.4 58142.4 58042.6
58042.6 57938.5 57938.5 57829.8 57829.8 57716.1 57716.1 57597 57597
57472.2 57472.2 57341.2 57341.2 57203.5 57203.5 57058.6 57058.6 56905.9
56905.9 56744.8 56744.8 56574.5 56574.5 56394.1 56394.1 56202.7 56202.7
55999.2 55999.2 55782.5 55782.5 55551 55551 55303.2 55303.2 55036.9
55036.9 54749.7 54749.7 54438.8 54438.8 54100.4 54100.4 53730.1 53730.1
53322.6 53322.6 52871 52871 52366.7 52366.7 51795.9 51795.9 51131.5
51131.5 50354.5 50354.5 49391.1 49391.1 48033.7 48033.7 46349.1 46349.1
44856.1 44856.1 43918.8 43918.8 43628 43628 43894.9 43894.9 44464.3
44464.3 45133.2 45133.2 45823.5 45823.5 46530.6 46530.6 47246.7 47246.7
48020 48020 48864.4 48864.4 49778.5 49778.5 50782.6 50782.6 51864.8
51864.8 53039.9 53039.9 54307.3 54307.3 55647.2 55647.2 57071.9 57071.9
58575.6 58575.6 60133.9 60133.9 61759.1 61759.1 63434.2 63434.2 65138.8
65138.8 66889.6 66889.6 68673.2 68673.2 70480.6 70480.6 72312.7 72312.7
74144.8 74144.8 75983.7 75983.7 77829.7 77829.7 79655.4 79655.4 81472.6
81472.6 83266.6 83266.6 85018.4 85018.4 86744.3 86744.3 88417 88417
90027.1 90027.1 91582.1 91582.1 93056.2 93056.2 94456.5 94456.5 95788.6
95788.6 97037.8 97037.8 98204.3 98204.3 99275.1 99275.1 100248 100248
101133 101133 101920 101920 102603 102603 103182 103182 103653
103653 104013 104013 104248 104248 104355 104355 104315 104315
104164 104164 103832 103832 103273 103273 102558 102558 101695
101695 100660 100660 99418.9 99418.9 98001.7 98001.7 96450.7 96450.7
94813.7 94813.7 93129.9 93129.9 91387.4 91387.4 89573.2 89573.2 87630.5
87630.5 85526.8 85526.8 83257.5 83257.5 80809.4 80809.4 78250.8 78250.8
75644 75644 73095.9 73095.9 70688.5 70688.5 68443.7 68443.7 66387.4
66387.4 64465.3 64465.3 62687.2 62687.2 61067.3 61067.3 59585.5 59585.5
58219.7 58219.7 56893.6 56893.6 55645.8 55645.8 54554.3 54554.3 53659.5
53659.5 52770.9 52770.9 51852.8 51852.8 50982.6 50982.6 50090.7 50090.7
49197.5 49197.5 48302.5 48302.5 47445.1 47445.1 46573 46573 45767.4
45767.4 45027.5 45027.5 44312.7 44312.7 43686.6 43686.6 43072.2 43072.2
42554.8 42554.8 42177.8 42177.8 41849.9 41849.9 41620.2 41620.2 41579.5
41579.5 41734.7 41734.7 42077.1 42077.1 42693.6 42693.6 43703.7 43703.7
44969.1 44969.1 46243.1 46243.1 47399.6 47399.6 48376.2 48376.2 49172.3
49172.3 49808.9 49808.9 50313.6 50313.6 50712.4 50712.4 51030.3 51030.3
51288 51288 51501.8 51501.8 51684.5 51684.5 51845.9 51845.9 51993.4
51993.4 52133.5 52133.5 52271 52271 52409.8 52409.8 52552.4 52552.4
52700.3 52700.3 52853.6 52853.6 53012.1 53012.1 53175.1 53175.1 53342
53342 53512 53512 53684.4 53684.4 53858.4 53858.4 54033.2 54033.2
54208.1 54208.1 54382.2 54382.2 54554.7 54554.7 54724.9 54724.9 54892
54892 55055.2 55055.2 55213.9 55213.9 55367.5 55367.5 55515.5 55515.5
55657.3 55657.3 55792.6 55792.6 55921 55921 56042.5 56042.5 56157
56157 56264.6 56264.6 56365.5 56365.5 56459.8 56459.8 56547.7 56547.7
56629.7 56629.7 56705.9 56705.9 56776.7 56776.7 56841.9 56841.9 56903.4
56903.4 56961.5 56961.5 57014.2 57014.2 57038.6 57038.6
        </DataArray>
        <DataArray type='Float32' Name='p' format='ascii'>
-109.797 -111.784 -111.784 -109.797 -114.691 -114.691 -115.859 -115.859 -116.154
-116.154 -116.218 -116.218 -116.297 -116.297 -116.513 -116.513 -116.89 -116.89
-117.352 -117.352 -117.822 -117.822 -118.264 -118.264 -118.665 -118.665 -119.021
-119.021 -119.337 -119.337 -119.621 -119.621 -119.88 -119.88 -120.116 -120.116
-120.332 -120.332 -120.531 -120.531 -120.719 -120.719 -120.902 -120.902 -121.079
-121.079 -121.252 -121.252 -121.417 -121.417 -121.575 -121.575 -121.724 -121.724
-121.864 -121.864 -121.996 -121.996 -122.119 -122.119 -122.233 -122.233 -122.339
-122.339 -122.436 -122.436 -122.526 -122.526 -122.61 -122.61 -122.688 -122.688
-122.761 -122.761 -122.83 -122.83 -122.895 -122.895 -122.956 -122.956 -123.014
-123.014 -123.07 -123.07 -123.123 -123.123 -123.175 -123.175 -123.224 -123.224
-123.272 -123.272 -123.319 -123.319 -123.364 -123.364 -123.408 -123.408 -123.451
-123.451 -123.494 -123.494 -123.536 -123.536 -123.577 -123.577 -123.617 -123.617
-123.657 -123.657 -123.697 -123.697 -123.736 -123.736 -123.775 -123.775 -123.813
-123.813 -123.85 -123.85 -123.888 -123.888 -123.924 -123.924 -123.961 -123.961
-123.997 -123.997 -124.032 -124.032 -124.067 -124.067 -124.102 -124.102 -124.136
-124.136 -124.17 -124.17 -124.204 -124.204 -124.237 -124.237 -124.27 -124.27
-124.302 -124.302 -124.334 -124.334 -124.366 -124.366 -124.397 -124.397 -124.428
-124.428 -124.459 -124.459 -124.49 -124.49 -124.521 -124.521 -124.551 -124.551
-124.581 -124.581 -124.611 -124.611 -124.64 -124.64 -124.669 -124.669 -124.698
-124.698 -124.727 -124.727 -124.755 -124.755 -124.783 -124.783 -124.811 -124.811
-124.838 -124.838 -124.865 -124.865 -124.892 -124.892 -124.919 -124.919 -124.945
-124.945 -124.971 -124.971 -124.997 -124.997 -125.023 -125.023 -125.049 -125.049
-125.074 -125.074 -125.099 -125.099 -125.124 -125.124 -125.148 -125.148 -125.172
-125.172 -125.197 -125.197 -125.22 -125.22 -125.244 -125.244 -125.267 -125.267
-125.29 -125.29 -125.313 -125.313 -125.336 -125.336 -125.358 -125.358 -125.38
-125.38 -125.402 -125.402 -125.423 -125.423 -125.445 -125.445 -125.466 -125.466
-125.487 -125.487 -125.508 -125.508 -125.528 -125.528 -125.549 -125.549 -125.569
-125.569 -125.59 -125.59 -125.61 -125.61 -125.629 -125.629 -125.649 -125.649
-125.669 -125.669 -125.688 -125.688 -125.707 -125.707 -125.727 -125.727 -125.746
-125.746 -125.765 -125.765 -125.784 -125.784 -125.803 -125.803 -125.821 -125.821
-125.84 -125.84 -125.859 -125.859 -125.877 -125.877 -125.895 -125.895 -125.913
-125.913 -125.931 -125.931 -125.948 -125.948 -125.965 -125.965 -125.982 -125.982
-125.999 -125.999 -126.016 -126.016 -126.032 -126.032 -126.049 -126.049 -126.065
-126.065 -126.081 -126.081 -126.096 -126.096 -126.112 -126.112 -126.127 -126.127
-126.142 -126.142 -126.156 -126.156 -126.171 -126.171 -126.186 -126.186 -126.2
-126.2 -126.214 -126.214 -126.229 -126.229 -126.243 -126.243 -126.257 -126.257
-126.271 -126.271 -126.284 -126.284 -126.298 -126.298 -126.311 -126.311 -126.324
-126.324 -126.337 -126.337 -126.35 -126.35 -126.362 -126.362 -126.374 -126.374
-126.386 -126.386 -126.398 -126.398 -126.409 -126.409 -126.42 -126.42 -126.431
-126.431 -126.441 -126.441 -126.451 -126.451 -126.461 -126.461 -126.47 -126.47
-126.479 -126.479 -126.488 -126.488 -126.497 -126.497 -126.505 -126.505 -126.513
-126.513 -126.521 -126.521 -126.529 -126.529 -126.536 -126.536 -126.543 -126.543
-126.549 -126.549 -126.555 -126.555 -126.561 -126.561 -126.566 -126.566 -126.571
-126.571 -126.575 -126.575 -126.579 -126.579 -126.583 -126.583 -126.586 -126.586
-126.589 -126.589 -126.591 -126.591 -126.593 -126.593 -126.594 -126.594 -126.594
-126.594 -126.594 -126.594 -126.594 -126.594 -126.593 -126.593 -126.591 -126.591
-126.589 -126.589 -126.586 -126.586 -126.583 -126.583 -126.579 -126.579 -126.574
-126.574 -126.569 -126.569 -126.563 -126.563 -126.557 -126.557 -126.55 -126.55
-126.543 -126.543 -126.534 -126.534 -126.525 -126.525 -126.516 -126.516 -126.505
-126.505 -126.493 -126.493 -126.481 -126.481 -126.467 -126.467 -126.453 -126.453
-126.437 -126.437 -126.421 -126.421 -126.403 -126.403 -126.384 -126.384 -126.364
-126.364 -126.343 -126.343 -126.321 -126.321 -126.298 -126.298 -126.273 -126.273
-126.247 -126.247 -126.22 -126.22 -126.192 -126.192 -126.162 -126.162 -126.131
-126.131 -126.099 -126.099 -126.065 -126.065 -126.03 -126.03 -125.993 -125.993
-125.955 -125.955 -125.914 -125.914 -125.872 -125.872 -125.829 -125.829 -125.783
-125.783 -125.735 -125.735 -125.685 -125.685 -125.633 -125.633 -125.579 -125.579
-125.523 -125.523 -125.464 -125.464 -125.403 -125.403 -125.34 -125.34 -125.274
-125.274 -125.205 -125.205 -125.134 -125.134 -125.061 -125.061 -124.984 -124.984
-124.905 -124.905 -124.823 -124.823 -124.738 -124.738 -124.649 -124.649 -124.558
-124.558 -124.463 -124.463 -124.365 -124.365 -124.263 -124.263 -124.157 -124.157
-124.047 -124.047 -123.933 -123.933 -123.815 -123.815 -123.693 -123.693 -123.566
-123.566 -123.434 -123.434 -123.297 -123.297 -123.155 -123.155 -123.008 -123.008
-122.855 -122.855 -122.697 -122.697 -122.532 -122.532 -122.361 -122.361 -122.184
-122.184 -122 -122 -121.809 -121.809 -121.611 -121.611 -121.406 -121.406
-121.192 -121.192 -120.971 -120.971 -120.741 -120.741 -120.502 -120.502 -120.255
-120.255 -119.998 -119.998 -119.731 -119.731 -119.453 -119.453 -119.165 -119.165
-118.867 -118.867 -118.556 -118.556 -118.234 -118.234 -117.899 -117.899 -117.55
-117.55 -117.189 -117.189 -116.813 -116.813 -116.422 -116.422 -116.015 -116.015
-115.593 -115.593 -115.153 -115.153 -114.695 -114.695 -114.218 -114.218 -113.723
-113.723 -113.206 -113.206 -112.668 -112.668 -112.108 -112.108 -111.523 -111.523
-110.914 -110.914 -110.278 -110.278 -109.615 -109.615 -108.923 -108.923 -108.2
-108.2 -107.445 -107.445 -106.655 -106.655 -105.829 -105.829 -104.965 -104.965
-104.061 -104.061 -103.113 -103.113 -102.12 -102.12 -101.079 -101.079 -99.9869
-99.9869 -98.8399 -98.8399 -97.6349 -97.6349 -96.3679 -96.3679 -95.0355 -95.0355
-93.6326 -93.6326 -92.1547 -92.1547 -90.5952 -90.5952 -88.9487 -88.9487 -87.2076
-87.2076 -85.3647 -85.3647 -83.411 -83.411 -81.3375 -81.3375 -79.1335 -79.1335
-76.7875 -76.7875 -74.2874 -74.2874 -71.6166 -71.6166 -68.7581 -68.7581 -65.6891
-65.6891 -62.3854 -62.3854 -58.818 -58.818 -54.9543 -54.9543 -50.7575 -50.7575
-46.1839 -46.1839 -41.1749 -41.1749 -35.6499 -35.6499 -29.5024 -29.5024 -22.5284
-22.5284 -14.367 -14.367 -5.21825 -5.21825 6.32634 6.32634 22.1609 22.1609
36.5706 36.5706 44.1891 44.1891 48.2001 48.2001 50.9776 50.9776 52.4153
52.4153 53.4583 53.4583 54.8027 54.8027 55.7816 55.7816 55.5834 55.5834
53.8238 53.8238 49.7006 49.7006 43.1221 43.1221 34.1308 34.1308 22.3404
22.3404 8.45541 8.45541 -7.4536 -7.4536 -25.5519 -25.5519 -44.8236 -44.8236
-65.4215 -65.4215 -87.315 -87.315 -109.693 -109.693 -133.195 -133.195 -157.319
-157.319 -181.527 -181.527 -207.393 -207.393 -233.868 -233.868 -260.478 -260.478
-288.867 -288.867 -317.485 -317.485 -346.633 -346.633 -377.389 -377.389 -408.217
-408.217 -440.015 -440.015 -472.861 -472.861 -505.605 -505.605 -539.382 -539.382
-572.996 -572.996 -605.91 -605.91 -639.446 -639.446 -671.797 -671.797 -703.542
-703.542 -735.285 -735.285 -765.053 -765.053 -793.761 -793.761 -820.822 -820.822
-845.867 -845.867 -869.881 -869.881 -891.163 -891.163 -910.175 -910.175 -926.994
-926.994 -940.886 -940.886 -952.388 -952.388 -960.359 -960.359 -964.892 -964.892
-966.236 -966.236 -963.667 -963.667 -957.007 -957.007 -946.742 -946.742 -933.458
-933.458 -916.192 -916.192 -893.268 -893.268 -865.452 -865.452 -834.89 -834.89
-802.763 -802.763 -770.339 -770.339 -736.689 -736.689 -701.049 -701.049 -663.185
-663.185 -622.432 -622.432 -580.015 -580.015 -535.581 -535.581 -489.797 -489.797
-443.465 -443.465 -396.608 -396.608 -350.801 -350.801 -305.246 -305.246 -260.444
-260.444 -216.955 -216.955 -174.201 -174.201 -133.412 -133.412 -94.1967 -94.1967
-56.8018 -56.8018 -21.2951 -21.2951 12.9379 12.9379 45.2315 45.2315 75.5168
75.5168 103.24 103.24 129.295 129.295 154.378 154.378 177.831 177.831
198.376 198.376 216.811 216.811 233.612 233.612 247.994 247.994 260.534
260.534 269.97 269.97 277.739 277.739 283.886 283.886 287.644 287.644
289.882 289.882 289.582 289.582 287.228 287.228 283.039 283.039 276.766
276.766 268.514 268.514 257.372 257.372 242.898 242.898 224.286 224.286
199.038 199.038 173.806 173.806 155 155 139.62 139.62 126.353
126.353 114.855 114.855 104.949 104.949 96.7419 96.7419 90.214 90.214
85.1687 85.1687 81.2966 81.2966 78.2695 78.2695 75.7755 75.7755 73.5521
73.5521 71.409 71.409 69.2236 69.2236 66.934 66.934 64.5274 64.5274
62.0271 62.0271 59.4728 59.4728 56.9014 56.9014 54.3413 54.3413 51.8112
51.8112 49.3275 49.3275 46.8977 46.8977 44.532 44.532 42.2349 42.2349
40.01 40.01 37.858 37.858 35.7776 35.7776 33.7679 33.7679 31.8259
31.8259 29.9492 29.9492 28.1318 28.1318 26.3702 26.3702 24.6586 24.6586
22.9945 22.9945 21.3735 21.3735 19.7929 19.7929 18.2491 18.2491 16.7384
16.7384 15.2572 15.2572 13.802 13.802 12.369 12.369 10.955 10.955
9.55676 9.55676 8.17126 8.17126 6.79729 6.79729 5.42879 5.42879 4.0806
4.0806 2.63619 2.63619 1.21886 1.21886 0.596854 0.596854
        </DataArray>
        <DataArray type='Float32' Name='U' NumberOfComponents='3' format='ascii'>
0 0 0 0 0 0 0 0 0
0 0 0 0 0 0 0 0 0
0 0 0 0 0 0 0 0 0
0 0 0 0 0 0 0 0 0
0 0 0 0 0 0 0 0 0
0 0 0 0 0 0 0 0 0
0 0 0 0 0 0 0 0 0
0 0 0 0 0 0 0 0 0
0 0 0 0 0 0 0 0 0
0 0 0 0 0 0 0 0 0
0 0 0 0 0 0 0 0 0
0 0 0 0 0 0 0 0 0
0 0 0 0 0 0 0 0 0
0 0 0 0 0 0 0 0 0
0 0 0 0 0 0 0 0 0
0 0 0 0 0 0 0 0 0
0 0 0 0 0 0 0 0 0
0 0 0 0 0 0 0 0 0
0 0 0 0 0 0 0 0 0
0 0 0 0 0 0 0 0 0
0 0 0 0 0 0 0 0 0
0 0 0 0 0 0 0 0 0
0 0 0 0 0 0 0 0 0
0 0 0 0 0 0 0 0 0
0 0 0 0 0 0 0 0 0
0 0 0 0 0 0 0 0 0
0 0 0 0 0 0 0 0 0
0 0 0 0 0 0 0 0 0
0 0 0 0 0 0 0 0 0
0 0 0 0 0 0 0 0 0
0 0 0 0 0 0 0 0 0
0 0 0 0 0 0 0 0 0
0 0 0 0 0 0 0 0 0
0 0 0 0 0 0 0 0 0
0 0 0 0 0 0 0 0 0
0 0 0 0 0 0 0 0 0
0 0 0 0 0 0 0 0 0
0 0 0 0 0 0 0 0 0
0 0 0 0 0 0 0 0 0
0 0 0 0 0 0 0 0 0
0 0 0 0 0 0 0 0 0
0 0 0 0 0 0 0 0 0
0 0 0 0 0 0 0 0 0
0 0 0 0 0 0 0 0 0
0 0 0 0 0 0 0 0 0
0 0 0 0 0 0 0 0 0
0 0 0 0 0 0 0 0 0
0 0 0 0 0 0 0 0 0
0 0 0 0 0 0 0 0 0
0 0 0 0 0 0 0 0 0
0 0 0 0 0 0 0 0 0
0 0 0 0 0 0 0 0 0
0 0 0 0 0 0 0 0 0
0 0 0 0 0 0 0 0 0
0 0 0 0 0 0 0 0 0
0 0 0 0 0 0 0 0 0
0 0 0 0 0 0 0 0 0
0 0 0 0 0 0 0 0 0
0 0 0 0 0 0 0 0 0
0 0 0 0 0 0 0 0 0
0 0 0 0 0 0 0 0 0
0 0 0 0 0 0 0 0 0
0 0 0 0 0 0 0 0 0
0 0 0 0 0 0 0 0 0
0 0 0 0 0 0 0 0 0
0 0 0 0 0 0 0 0 0
0 0 0 0 0 0 0 0 0
0 0 0 0 0 0 0 0 0
0 0 0 0 0 0 0 0 0
0 0 0 0 0 0 0 0 0
0 0 0 0 0 0 0 0 0
0 0 0 0 0 0 0 0 0
0 0 0 0 0 0 0 0 0
0 0 0 0 0 0 0 0 0
0 0 0 0 0 0 0 0 0
0 0 0 0 0 0 0 0 0
0 0 0 0 0 0 0 0 0
0 0 0 0 0 0 0 0 0
0 0 0 0 0 0 0 0 0
0 0 0 0 0 0 0 0 0
0 0 0 0 0 0 0 0 0
0 0 0 0 0 0 0 0 0
0 0 0 0 0 0 0 0 0
0 0 0 0 0 0 0 0 0
0 0 0 0 0 0 0 0 0
0 0 0 0 0 0 0 0 0
0 0 0 0 0 0 0 0 0
0 0 0 0 0 0 0 0 0
0 0 0 0 0 0 0 0 0
0 0 0 0 0 0 0 0 0
0 0 0 0 0 0 0 0 0
0 0 0 0 0 0 0 0 0
0 0 0 0 0 0 0 0 0
0 0 0 0 0 0 0 0 0
0 0 0 0 0 0 0 0 0
0 0 0 0 0 0 0 0 0
0 0 0 0 0 0 0 0 0
0 0 0 0 0 0 0 0 0
0 0 0 0 0 0 0 0 0
0 0 0 0 0 0 0 0 0
0 0 0 0 0 0 0 0 0
0 0 0 0 0 0 0 0 0
0 0 0 0 0 0 0 0 0
0 0 0 0 0 0 0 0 0
0 0 0 0 0 0 0 0 0
0 0 0 0 0 0 0 0 0
0 0 0 0 0 0 0 0 0
0 0 0 0 0 0 0 0 0
0 0 0 0 0 0 0 0 0
0 0 0 0 0 0 0 0 0
0 0 0 0 0 0 0 0 0
0 0 0 0 0 0 0 0 0
0 0 0 0 0 0 0 0 0
0 0 0 0 0 0 0 0 0
0 0 0 0 0 0 0 0 0
0 0 0 0 0 0 0 0 0
0 0 0 0 0 0 0 0 0
0 0 0 0 0 0 0 0 0
0 0 0 0 0 0 0 0 0
0 0 0 0 0 0 0 0 0
0 0 0 0 0 0 0 0 0
0 0 0 0 0 0 0 0 0
0 0 0 0 0 0 0 0 0
0 0 0 0 0 0 0 0 0
0 0 0 0 0 0 0 0 0
0 0 0 0 0 0 0 0 0
0 0 0 0 0 0 0 0 0
0 0 0 0 0 0 0 0 0
0 0 0 0 0 0 0 0 0
0 0 0 0 0 0 0 0 0
0 0 0 0 0 0 0 0 0
0 0 0 0 0 0 0 0 0
0 0 0 0 0 0 0 0 0
0 0 0 0 0 0 0 0 0
0 0 0 0 0 0 0 0 0
0 0 0 0 0 0 0 0 0
0 0 0 0 0 0 0 0 0
0 0 0 0 0 0 0 0 0
0 0 0 0 0 0 0 0 0
0 0 0 0 0 0 0 0 0
0 0 0 0 0 0 0 0 0
0 0 0 0 0 0 0 0 0
0 0 0 0 0 0 0 0 0
0 0 0 0 0 0 0 0 0
0 0 0 0 0 0 0 0 0
0 0 0 0 0 0 0 0 0
0 0 0 0 0 0 0 0 0
0 0 0 0 0 0 0 0 0
0 0 0 0 0 0 0 0 0
0 0 0 0 0 0 0 0 0
0 0 0 0 0 0 0 0 0
0 0 0 0 0 0 0 0 0
0 0 0 0 0 0 0 0 0
0 0 0 0 0 0 0 0 0
0 0 0 0 0 0 0 0 0
0 0 0 0 0 0 0 0 0
0 0 0 0 0 0 0 0 0
0 0 0 0 0 0 0 0 0
0 0 0 0 0 0 0 0 0
0 0 0 0 0 0 0 0 0
0 0 0 0 0 0 0 0 0
0 0 0 0 0 0 0 0 0
0 0 0 0 0 0 0 0 0
0 0 0 0 0 0 0 0 0
0 0 0 0 0 0 0 0 0
0 0 0 0 0 0 0 0 0
0 0 0 0 0 0 0 0 0
0 0 0 0 0 0 0 0 0
0 0 0 0 0 0 0 0 0
0 0 0 0 0 0 0 0 0
0 0 0 0 0 0 0 0 0
0 0 0 0 0 0 0 0 0
0 0 0 0 0 0 0 0 0
0 0 0 0 0 0 0 0 0
0 0 0 0 0 0 0 0 0
0 0 0 0 0 0 0 0 0
0 0 0 0 0 0 0 0 0
0 0 0 0 0 0 0 0 0
0 0 0 0 0 0 0 0 0
0 0 0 0 0 0 0 0 0
0 0 0 0 0 0 0 0 0
0 0 0 0 0 0 0 0 0
0 0 0 0 0 0 0 0 0
0 0 0 0 0 0 0 0 0
0 0 0 0 0 0 0 0 0
0 0 0 0 0 0 0 0 0
0 0 0 0 0 0 0 0 0
0 0 0 0 0 0 0 0 0
0 0 0 0 0 0 0 0 0
0 0 0 0 0 0 0 0 0
0 0 0 0 0 0 0 0 0
0 0 0 0 0 0 0 0 0
0 0 0 0 0 0 0 0 0
0 0 0 0 0 0 0 0 0
0 0 0 0 0 0 0 0 0
0 0 0 0 0 0 0 0 0
0 0 0 0 0 0 0 0 0
0 0 0 0 0 0 0 0 0
0 0 0 0 0 0 0 0 0
0 0 0 0 0 0 0 0 0
0 0 0 0 0 0 0 0 0
0 0 0 0 0 0 0 0 0
0 0 0 0 0 0 0 0 0
0 0 0 0 0 0 0 0 0
0 0 0 0 0 0 0 0 0
0 0 0 0 0 0 0 0 0
0 0 0 0 0 0 0 0 0
0 0 0 0 0 0 0 0 0
0 0 0 0 0 0 0 0 0
0 0 0 0 0 0 0 0 0
0 0 0 0 0 0 0 0 0
0 0 0 0 0 0 0 0 0
0 0 0 0 0 0 0 0 0
0 0 0 0 0 0 0 0 0
0 0 0 0 0 0 0 0 0
0 0 0 0 0 0 0 0 0
0 0 0 0 0 0 0 0 0
0 0 0 0 0 0 0 0 0
0 0 0 0 0 0 0 0 0
0 0 0 0 0 0 0 0 0
0 0 0 0 0 0 0 0 0
0 0 0 0 0 0 0 0 0
0 0 0 0 0 0 0 0 0
0 0 0 0 0 0 0 0 0
0 0 0 0 0 0 0 0 0
0 0 0 0 0 0 0 0 0
0 0 0 0 0 0 0 0 0
0 0 0 0 0 0 0 0 0
0 0 0 0 0 0 0 0 0
0 0 0 0 0 0 0 0 0
0 0 0 0 0 0 0 0 0
0 0 0 0 0 0 0 0 0
0 0 0 0 0 0 0 0 0
0 0 0 0 0 0 0 0 0
0 0 0 0 0 0 0 0 0
0 0 0 0 0 0 0 0 0
0 0 0 0 0 0 0 0 0
0 0 0 0 0 0 0 0 0
0 0 0 0 0 0 0 0 0
0 0 0 0 0 0 0 0 0
0 0 0 0 0 0 0 0 0
0 0 0 0 0 0 0 0 0
0 0 0 0 0 0 0 0 0
0 0 0 0 0 0 0 0 0
0 0 0 0 0 0 0 0 0
0 0 0 0 0 0 0 0 0
0 0 0 0 0 0 0 0 0
0 0 0 0 0 0 0 0 0
0 0 0 0 0 0 0 0 0
0 0 0 0 0 0 0 0 0
0 0 0 0 0 0 0 0 0
0 0 0 0 0 0 0 0 0
0 0 0 0 0 0 0 0 0
0 0 0 0 0 0 0 0 0
0 0 0 0 0 0 0 0 0
0 0 0 0 0 0 0 0 0
0 0 0 0 0 0 0 0 0
0 0 0 0 0 0 0 0 0
0 0 0 0 0 0 0 0 0
0 0 0 0 0 0 0 0 0
0 0 0 0 0 0 0 0 0
0 0 0 0 0 0 0 0 0
0 0 0 0 0 0 0 0 0
0 0 0 0 0 0 0 0 0
0 0 0 0 0 0 0 0 0
0 0 0 0 0 0 0 0 0
0 0 0 0 0 0 0 0 0
0 0 0 0 0 0 0 0 0
0 0 0 0 0 0 0 0 0
0 0 0 0 0 0 0 0 0
0 0 0 0 0 0 0 0 0
0 0 0 0 0 0 0 0 0
0 0 0 0 0 0 0 0 0
0 0 0 0 0 0 0 0 0
0 0 0 0 0 0 0 0 0
0 0 0 0 0 0 0 0 0
0 0 0 0 0 0 0 0 0
0 0 0 0 0 0 0 0 0
0 0 0 0 0 0 0 0 0
0 0 0 0 0 0 0 0 0
0 0 0 0 0 0 0 0 0
0 0 0 0 0 0 0 0 0
0 0 0 0 0 0 0 0 0
0 0 0 0 0 0 0 0 0
0 0 0 0 0 0 0 0 0
0 0 0 0 0 0 0 0 0
0 0 0 0 0 0 0 0 0
0 0 0 0 0 0 0 0 0
0 0 0 0 0 0 0 0 0
0 0 0 0 0 0 0 0 0
0 0 0 0 0 0 0 0 0
0 0 0 0 0 0 0 0 0
0 0 0 0 0 0 0 0 0
0 0 0 0 0 0 0 0 0
0 0 0 0 0 0 0 0 0
0 0 0 0 0 0 0 0 0
0 0 0 0 0 0 0 0 0
0 0 0 0 0 0 0 0 0
0 0 0 0 0 0 0 0 0
0 0 0 0 0 0 0 0 0
0 0 0 0 0 0 0 0 0
0 0 0 0 0 0 0 0 0
0 0 0 0 0 0 0 0 0
0 0 0 0 0 0 0 0 0
0 0 0 0 0 0 0 0 0
0 0 0 0 0 0 0 0 0
0 0 0 0 0 0 0 0 0
0 0 0 0 0 0 0 0 0
0 0 0 0 0 0 0 0 0
0 0 0 0 0 0 0 0 0
0 0 0 0 0 0 0 0 0
0 0 0 0 0 0 0 0 0
0 0 0 0 0 0 0 0 0
0 0 0 0 0 0 0 0 0
0 0 0 0 0 0 0 0 0
0 0 0 0 0 0 0 0 0
0 0 0 0 0 0 0 0 0
0 0 0 0 0 0 0 0 0
0 0 0 0 0 0 0 0 0
0 0 0 0 0 0 0 0 0
0 0 0 0 0 0 0 0 0
0 0 0 0 0 0 0 0 0
0 0 0 0 0 0 0 0 0
0 0 0 0 0 0 0 0 0
0 0 0 0 0 0 0 0 0
0 0 0 0 0 0 0 0 0
0 0 0 0 0 0 0 0 0
0 0 0 0 0 0 0 0 0
0 0 0 0 0 0 0 0 0
0 0 0 0 0 0 0 0 0
0 0 0 0 0 0 0 0 0
0 0 0 0 0 0 0 0 0
0 0 0 0 0 0 0 0 0
0 0 0 0 0 0 0 0 0
0 0 0 0 0 0 0 0 0
0 0 0 0 0 0 0 0 0
0 0 0 0 0 0 0 0 0
0 0 0 0 0 0 0 0 0
0 0 0 0 0 0 0 0 0
0 0 0 0 0 0 0 0 0
0 0 0 0 0 0 0 0 0
0 0 0 0 0 0 0 0 0
0 0 0 0 0 0 0 0 0
0 0 0 0 0 0 0 0 0
0 0 0 0 0 0 0 0 0
0 0 0 0 0 0 0 0 0
0 0 0 0 0 0 0 0 0
0 0 0
        </DataArray>
      </PointData>
    </Piece>
  </PolyData>
</VTKFile>
