<?xml version='1.0'?>
<!-- patch='inlet' time='20' index='20' -->
<VTKFile type='PolyData' version='0.1' byte_order='LittleEndian' header_type='UInt64'>
  <PolyData>
    <FieldData>
      <DataArray type='Float32' Name='TimeValue' NumberOfTuples='1' format='ascii'>
20
      </DataArray>
    </FieldData>
    <Piece NumberOfPoints='362' NumberOfPolys='180'>
      <Points>
        <DataArray type='Float32' Name='Points' NumberOfComponents='3' format='ascii'>
-0.9 0 -0.01 -0.9 0 0.01 -0.9 0.000438104 0.01
-0.9 0.000438104 -0.01 -0.9 0.000882333 0.01 -0.9 0.000882333 -0.01
-0.9 0.00133277 0.01 -0.9 0.00133277 -0.01 -0.9 0.00178951 0.01
-0.9 0.00178951 -0.01 -0.9 0.00225263 0.01 -0.9 0.00225263 -0.01
-0.9 0.00272222 0.01 -0.9 0.00272222 -0.01 -0.9 0.00319838 0.01
-0.9 0.00319838 -0.01 -0.9 0.00368119 0.01 -0.9 0.00368119 -0.01
-0.9 0.00417076 0.01 -0.9 0.00417076 -0.01 -0.9 0.00466716 0.01
-0.9 0.00466716 -0.01 -0.9 0.00517051 0.01 -0.9 0.00517051 -0.01
-0.9 0.00568089 0.01 -0.9 0.00568089 -0.01 -0.9 0.00619841 0.01
-0.9 0.00619841 -0.01 -0.9 0.00672316 0.01 -0.9 0.00672316 -0.01
-0.9 0.00725525 0.01 -0.9 0.00725525 -0.01 -0.9 0.00779477 0.01
-0.9 0.00779477 -0.01 -0.9 0.00834184 0.01 -0.9 0.00834184 -0.01
-0.9 0.00889655 0.01 -0.9 0.00889655 -0.01 -0.9 0.00945902 0.01
-0.9 0.00945902 -0.01 -0.9 0.0100294 0.01 -0.9 0.0100294 -0.01
-0.9 0.0106077 0.01 -0.9 0.0106077 -0.01 -0.9 0.011194 0.01
-0.9 0.011194 -0.01 -0.9 0.0117886 0.01 -0.9 0.0117886 -0.01
-0.9 0.0123915 0.01 -0.9 0.0123915 -0.01 -0.9 0.0130029 0.01
-0.9 0.0130029 -0.01 -0.9 0.0136227 0.01 -0.9 0.0136227 -0.01
-0.9 0.0142513 0.01 -0.9 0.0142513 -0.01 -0.9 0.0148886 0.01
-0.9 0.0148886 -0.01 -0.9 0.0155348 0.01 -0.9 0.0155348 -0.01
-0.9 0.0161901 0.01 -0.9 0.0161901 -0.01 -0.9 0.0168545 0.01
-0.9 0.0168545 -0.01 -0.9 0.0175282 0.01 -0.9 0.0175282 -0.01
-0.9 0.0182113 0.01 -0.9 0.0182113 -0.01 -0.9 0.018904 0.01
-0.9 0.018904 -0.01 -0.9 0.0196064 0.01 -0.9 0.0196064 -0.01
-0.9 0.0203186 0.01 -0.9 0.0203186 -0.01 -0.9 0.0210407 0.01
-0.9 0.0210407 -0.01 -0.9 0.0217729 0.01 -0.9 0.0217729 -0.01
-0.9 0.0225154 0.01 -0.9 0.0225154 -0.01 -0.9 0.0232683 0.01
-0.9 0.0232683 -0.01 -0.9 0.0240316 0.01 -0.9 0.0240316 -0.01
-0.9 0.0248057 0.01 -0.9 0.0248057 -0.01 -0.9 0.0255905 0.01
-0.9 0.0255905 -0.01 -0.9 0.0263864 0.01 -0.9 0.0263864 -0.01
-0.9 0.0271933 0.01 -0.9 0.0271933 -0.01 -0.9 0.0280116 0.01
-0.9 0.0280116 -0.01 -0.9 0.0288412 0.01 -0.9 0.0288412 -0.01
-0.9 0.0296825 0.01 -0.9 0.0296825 -0.01 -0.9 0.0305355 0.01
-0.9 0.0305355 -0.01 -0.9 0.0314005 0.01 -0.9 0.0314005 -0.01
-0.9 0.0322776 0.01 -0.9 0.0322776 -0.01 -0.9 0.0331669 0.01
-0.9 0.0331669 -0.01 -0.9 0.0340686 0.01 -0.9 0.0340686 -0.01
-0.9 0.034983 0.01 -0.9 0.034983 -0.01 -0.9 0.0359101 0.01
-0.9 0.0359101 -0.01 -0.9 0.0368502 0.01 -0.9 0.0368502 -0.01
-0.9 0.0378034 0.01 -0.9 0.0378034 -0.01 -0.9 0.03877 0.01
-0.9 0.03877 -0.01 -0.9 0.03975 0.01 -0.9 0.03975 -0.01
-0.9 0.0407438 0.01 -0.9 0.0407438 -0.01 -0.9 0.0417515 0.01
-0.9 0.0417515 -0.01 -0.9 0.0427732 0.01 -0.9 0.0427732 -0.01
-0.9 0.0438092 0.01 -0.9 0.0438092 -0.01 -0.9 0.0448597 0.01
-0.9 0.0448597 -0.01 -0.9 0.0459249 0.01 -0.9 0.0459249 -0.01
-0.9 0.047005 0.01 -0.9 0.047005 -0.01 -0.9 0.0481002 0.01
-0.9 0.0481002 -0.01 -0.9 0.0492107 0.01 -0.9 0.0492107 -0.01
-0.9 0.0503367 0.01 -0.9 0.0503367 -0.01 -0.9 0.0514785 0.01
-0.9 0.0514785 -0.01 -0.9 0.0526362 0.01 -0.9 0.0526362 -0.01
-0.9 0.0538101 0.01 -0.9 0.0538101 -0.01 -0.9 0.0550004 0.01
-0.9 0.0550004 -0.01 -0.9 0.0562074 0.01 -0.9 0.0562074 -0.01
-0.9 0.0574312 0.01 -0.9 0.0574312 -0.01 -0.9 0.0586721 0.01
-0.9 0.0586721 -0.01 -0.9 0.0599304 0.01 -0.9 0.0599304 -0.01
-0.9 0.0612063 0.01 -0.9 0.0612063 -0.01 -0.9 0.0625 0.01
-0.9 0.0625 -0.01 -0.9 0.0638118 0.01 -0.9 0.0638118 -0.01
-0.9 0.0651419 0.01 -0.9 0.0651419 -0.01 -0.9 0.0664906 0.01
-0.9 0.0664906 -0.01 -0.9 0.0678582 0.01 -0.9 0.0678582 -0.01
-0.9 0.0692449 0.01 -0.9 0.0692449 -0.01 -0.9 0.070651 0.01
-0.9 0.070651 -0.01 -0.9 0.0720767 0.01 -0.9 0.0720767 -0.01
-0.9 0.0735224 0.01 -0.9 0.0735224 -0.01 -0.9 0.0749882 0.01
-0.9 0.0749882 -0.01 -0.9 0.0764746 0.01 -0.9 0.0764746 -0.01
-0.9 0.0779817 0.01 -0.9 0.0779817 -0.01 -0.9 0.07951 0.01
-0.9 0.07951 -0.01 -0.9 0.0810595 0.01 -0.9 0.0810595 -0.01
-0.9 0.0826308 0.01 -0.9 0.0826308 -0.01 -0.9 0.084224 0.01
-0.9 0.084224 -0.01 -0.9 0.0858394 0.01 -0.9 0.0858394 -0.01
-0.9 0.0874775 0.01 -0.9 0.0874775 -0.01 -0.9 0.0891384 0.01
-0.9 0.0891384 -0.01 -0.9 0.0908226 0.01 -0.9 0.0908226 -0.01
-0.9 0.0925303 0.01 -0.9 0.0925303 -0.01 -0.9 0.0942619 0.01
-0.9 0.0942619 -0.01 -0.9 0.0960177 0.01 -0.9 0.0960177 -0.01
-0.9 0.097798 0.01 -0.9 0.097798 -0.01 -0.9 0.0996032 0.01
-0.9 0.0996032 -0.01 -0.9 0.101434 0.01 -0.9 0.101434 -0.01
-0.9 0.10329 0.01 -0.9 0.10329 -0.01 -0.9 0.105172 0.01
-0.9 0.105172 -0.01 -0.9 0.10708 0.01 -0.9 0.10708 -0.01
-0.9 0.109015 0.01 -0.9 0.109015 -0.01 -0.9 0.110977 0.01
-0.9 0.110977 -0.01 -0.9 0.112966 0.01 -0.9 0.112966 -0.01
-0.9 0.114984 0.01 -0.9 0.114984 -0.01 -0.9 0.117029 0.01
-0.9 0.117029 -0.01 -0.9 0.119103 0.01 -0.9 0.119103 -0.01
-0.9 0.121206 0.01 -0.9 0.121206 -0.01 -0.9 0.123339 0.01
-0.9 0.123339 -0.01 -0.9 0.125501 0.01 -0.9 0.125501 -0.01
-0.9 0.127693 0.01 -0.9 0.127693 -0.01 -0.9 0.129917 0.01
-0.9 0.129917 -0.01 -0.9 0.132171 0.01 -0.9 0.132171 -0.01
-0.9 0.134456 0.01 -0.9 0.134456 -0.01 -0.9 0.136774 0.01
-0.9 0.136774 -0.01 -0.9 0.139124 0.01 -0.9 0.139124 -0.01
-0.9 0.141507 0.01 -0.9 0.141507 -0.01 -0.9 0.143923 0.01
-0.9 0.143923 -0.01 -0.9 0.146373 0.01 -0.9 0.146373 -0.01
-0.9 0.148858 0.01 -0.9 0.148858 -0.01 -0.9 0.151377 0.01
-0.9 0.151377 -0.01 -0.9 0.153931 0.01 -0.9 0.153931 -0.01
-0.9 0.156521 0.01 -0.9 0.156521 -0.01 -0.9 0.159147 0.01
-0.9 0.159147 -0.01 -0.9 0.16181 0.01 -0.9 0.16181 -0.01
-0.9 0.16451 0.01 -0.9 0.16451 -0.01 -0.9 0.167247 0.01
-0.9 0.167247 -0.01 -0.9 0.170023 0.01 -0.9 0.170023 -0.01
-0.9 0.172838 0.01 -0.9 0.172838 -0.01 -0.9 0.175692 0.01
-0.9 0.175692 -0.01 -0.9 0.178587 0.01 -0.9 0.178587 -0.01
-0.9 0.181521 0.01 -0.9 0.181521 -0.01 -0.9 0.184497 0.01
-0.9 0.184497 -0.01 -0.9 0.187514 0.01 -0.9 0.187514 -0.01
-0.9 0.190573 0.01 -0.9 0.190573 -0.01 -0.9 0.193675 0.01
-0.9 0.193675 -0.01 -0.9 0.196821 0.01 -0.9 0.196821 -0.01
-0.9 0.20001 0.01 -0.9 0.20001 -0.01 -0.9 0.203244 0.01
-0.9 0.203244 -0.01 -0.9 0.206524 0.01 -0.9 0.206524 -0.01
-0.9 0.209849 0.01 -0.9 0.209849 -0.01 -0.9 0.21322 0.01
-0.9 0.21322 -0.01 -0.9 0.216639 0.01 -0.9 0.216639 -0.01
-0.9 0.220105 0.01 -0.9 0.220105 -0.01 -0.9 0.22362 0.01
-0.9 0.22362 -0.01 -0.9 0.227185 0.01 -0.9 0.227185 -0.01
-0.9 0.230798 0.01 -0.9 0.230798 -0.01 -0.9 0.234463 0.01
-0.9 0.234463 -0.01 -0.9 0.238179 0.01 -0.9 0.238179 -0.01
-0.9 0.241946 0.01 -0.9 0.241946 -0.01 -0.9 0.245766 0.01
-0.9 0.245766 -0.01 -0.9 0.24964 0.01 -0.9 0.24964 -0.01
-0.9 0.253568 0.01 -0.9 0.253568 -0.01 -0.9 0.257551 0.01
-0.9 0.257551 -0.01 -0.9 0.261589 0.01 -0.9 0.261589 -0.01
-0.9 0.265684 0.01 -0.9 0.265684 -0.01 -0.9 0.269836 0.01
-0.9 0.269836 -0.01 -0.9 0.274046 0.01 -0.9 0.274046 -0.01
-0.9 0.278315 0.01 -0.9 0.278315 -0.01 -0.9 0.282644 0.01
-0.9 0.282644 -0.01 -0.9 0.287033 0.01 -0.9 0.287033 -0.01
-0.9 0.291483 0.01 -0.9 0.291483 -0.01 -0.9 0.295996 0.01
-0.9 0.295996 -0.01 -0.9 0.300572 0.01 -0.9 0.300572 -0.01
-0.9 0.305212 0.01 -0.9 0.305212 -0.01 -0.9 0.309916 0.01
-0.9 0.309916 -0.01 -0.9 0.314687 0.01 -0.9 0.314687 -0.01
-0.9 0.319524 0.01 -0.9 0.319524 -0.01 -0.9 0.324429 0.01
-0.9 0.324429 -0.01 -0.9 0.329402 0.01 -0.9 0.329402 -0.01
-0.9 0.334445 0.01 -0.9 0.334445 -0.01 -0.9 0.339558 0.01
-0.9 0.339558 -0.01 -0.9 0.344743 0.01 -0.9 0.344743 -0.01
-0.9 0.35 0.01 -0.9 0.35 -0.01
        </DataArray>
      </Points>
      <Polys>
        <DataArray type='Int32' Name='connectivity' format='ascii'>
0 1 2 3 3 2 4 5 5
4 6 7 7 6 8 9 9 8
10 11 11 10 12 13 13 12 14
15 15 14 16 17 17 16 18 19
19 18 20 21 21 20 22 23 23
22 24 25 25 24 26 27 27 26
28 29 29 28 30 31 31 30 32
33 33 32 34 35 35 34 36 37
37 36 38 39 39 38 40 41 41
40 42 43 43 42 44 45 45 44
46 47 47 46 48 49 49 48 50
51 51 50 52 53 53 52 54 55
55 54 56 57 57 56 58 59 59
58 60 61 61 60 62 63 63 62
64 65 65 64 66 67 67 66 68
69 69 68 70 71 71 70 72 73
73 72 74 75 75 74 76 77 77
76 78 79 79 78 80 81 81 80
82 83 83 82 84 85 85 84 86
87 87 86 88 89 89 88 90 91
91 90 92 93 93 92 94 95 95
94 96 97 97 96 98 99 99 98
100 101 101 100 102 103 103 102 104
105 105 104 106 107 107 106 108 109
109 108 110 111 111 110 112 113 113
112 114 115 115 114 116 117 117 116
118 119 119 118 120 121 121 120 122
123 123 122 124 125 125 124 126 127
127 126 128 129 129 128 130 131 131
130 132 133 133 132 134 135 135 134
136 137 137 136 138 139 139 138 140
141 141 140 142 143 143 142 144 145
145 144 146 147 147 146 148 149 149
148 150 151 151 150 152 153 153 152
154 155 155 154 156 157 157 156 158
159 159 158 160 161 161 160 162 163
163 162 164 165 165 164 166 167 167
166 168 169 169 168 170 171 171 170
172 173 173 172 174 175 175 174 176
177 177 176 178 179 179 178 180 181
181 180 182 183 183 182 184 185 185
184 186 187 187 186 188 189 189 188
190 191 191 190 192 193 193 192 194
195 195 194 196 197 197 196 198 199
199 198 200 201 201 200 202 203 203
202 204 205 205 204 206 207 207 206
208 209 209 208 210 211 211 210 212
213 213 212 214 215 215 214 216 217
217 216 218 219 219 218 220 221 221
220 222 223 223 222 224 225 225 224
226 227 227 226 228 229 229 228 230
231 231 230 232 233 233 232 234 235
235 234 236 237 237 236 238 239 239
238 240 241 241 240 242 243 243 242
244 245 245 244 246 247 247 246 248
249 249 248 250 251 251 250 252 253
253 252 254 255 255 254 256 257 257
256 258 259 259 258 260 261 261 260
262 263 263 262 264 265 265 264 266
267 267 266 268 269 269 268 270 271
271 270 272 273 273 272 274 275 275
274 276 277 277 276 278 279 279 278
280 281 281 280 282 283 283 282 284
285 285 284 286 287 287 286 288 289
289 288 290 291 291 290 292 293 293
292 294 295 295 294 296 297 297 296
298 299 299 298 300 301 301 300 302
303 303 302 304 305 305 304 306 307
307 306 308 309 309 308 310 311 311
310 312 313 313 312 314 315 315 314
316 317 317 316 318 319 319 318 320
321 321 320 322 323 323 322 324 325
325 324 326 327 327 326 328 329 329
328 330 331 331 330 332 333 333 332
334 335 335 334 336 337 337 336 338
339 339 338 340 341 341 340 342 343
343 342 344 345 345 344 346 347 347
346 348 349 349 348 350 351 351 350
352 353 353 352 354 355 355 354 356
357 357 356 358 359 359 358 360 361
        </DataArray>
        <DataArray type='Int32' Name='offsets' format='ascii'>
4 8 12 16 20 24 28 32 36
40 44 48 52 56 60 64 68 72
76 80 84 88 92 96 100 104 108
112 116 120 124 128 132 136 140 144
148 152 156 160 164 168 172 176 180
184 188 192 196 200 204 208 212 216
220 224 228 232 236 240 244 248 252
256 260 264 268 272 276 280 284 288
292 296 300 304 308 312 316 320 324
328 332 336 340 344 348 352 356 360
364 368 372 376 380 384 388 392 396
400 404 408 412 416 420 424 428 432
436 440 444 448 452 456 460 464 468
472 476 480 484 488 492 496 500 504
508 512 516 520 524 528 532 536 540
544 548 552 556 560 564 568 572 576
580 584 588 592 596 600 604 608 612
616 620 624 628 632 636 640 644 648
652 656 660 664 668 672 676 680 684
688 692 696 700 704 708 712 716 720
        </DataArray>
      </Polys>
      <CellData>
        <DataArray type='Float32' Name='k' format='ascii'>
0.179574 0.179574 0.179574 0.179574 0.179574 0.179574 0.179574 0.179574 0.179574
0.179574 0.179574 0.179574 0.179574 0.179574 0.179574 0.179574 0.179574 0.179574
0.179574 0.179574 0.179574 0.179574 0.179574 0.179574 0.179574 0.179574 0.179574
0.179574 0.179574 0.179574 0.179574 0.179574 0.179574 0.179574 0.179574 0.179574
0.179574 0.179574 0.179574 0.179574 0.179574 0.179574 0.179574 0.179574 0.179574
0.179574 0.179574 0.179574 0.179574 0.179574 0.179574 0.179574 0.179574 0.179574
0.179574 0.179574 0.179574 0.179574 0.179574 0.179574 0.179574 0.179574 0.179574
0.179574 0.179574 0.179574 0.179574 0.179574 0.179574 0.179574 0.179574 0.179574
0.179574 0.179574 0.179574 0.179574 0.179574 0.179574 0.179574 0.179574 0.179574
0.179574 0.179574 0.179574 0.179574 0.179574 0.179574 0.179574 0.179574 0.179574
0.179574 0.179574 0.179574 0.179574 0.179574 0.179574 0.179574 0.179574 0.179574
0.179574 0.179574 0.179574 0.179574 0.179574 0.179574 0.179574 0.179574 0.179574
0.179574 0.179574 0.179574 0.179574 0.179574 0.179574 0.179574 0.179574 0.179574
0.179574 0.179574 0.179574 0.179574 0.179574 0.179574 0.179574 0.179574 0.179574
0.179574 0.179574 0.179574 0.179574 0.179574 0.179574 0.179574 0.179574 0.179574
0.179574 0.179574 0.179574 0.179574 0.179574 0.179574 0.179574 0.179574 0.179574
0.179574 0.179574 0.179574 0.179574 0.179574 0.179574 0.179574 0.179574 0.179574
0.179574 0.179574 0.179574 0.179574 0.179574 0.179574 0.179574 0.179574 0.179574
0.179574 0.179574 0.179574 0.179574 0.179574 0.179574 0.179574 0.179574 0.179574
0.179574 0.179574 0.179574 0.179574 0.179574 0.179574 0.179574 0.179574 0.179574
        </DataArray>
        <DataArray type='Float32' Name='nut' format='ascii'>
5.89876e-05 0.000176602 0.000568272 0.000568272 0.000568272 0.000568272 0.000568272 0.000568272 0.000568272
0.000568272 0.000568272 0.000568272 0.000568272 0.000568272 0.000568272 0.000568272 0.000568272 0.000568272
0.000568272 0.000568272 0.000568272 0.000568272 0.000568272 0.000568272 0.000568272 0.000568272 0.000568272
0.000568272 0.000568272 0.000568272 0.000568272 0.000568272 0.000568272 0.000568272 0.000568272 0.000568272
0.000568272 0.000568272 0.000568272 0.000568272 0.000568272 0.000568272 0.000568272 0.000568272 0.000568272
0.000568272 0.000568272 0.000568272 0.000568272 0.000568272 0.000568272 0.000568272 0.000568272 0.000568272
0.000568272 0.000568272 0.000568272 0.000568272 0.000568272 0.000568272 0.000568272 0.000568272 0.000568272
0.000568272 0.000568272 0.000568272 0.000568272 0.000568272 0.000568272 0.000568272 0.000568272 0.000568272
0.000568272 0.000568272 0.000568272 0.000568272 0.000568272 0.000568272 0.000568272 0.000568272 0.000568272
0.000568272 0.000568272 0.000568272 0.000568272 0.000568272 0.000568272 0.000568272 0.000568272 0.000568272
0.000568272 0.000568272 0.000568272 0.000568272 0.000568272 0.000568272 0.000568272 0.000568272 0.000568272
0.000568272 0.000568272 0.000568272 0.000568272 0.000568272 0.000568272 0.000568272 0.000568272 0.000568272
0.000568272 0.000568272 0.000568272 0.000568272 0.000568272 0.000568272 0.000568272 0.000568272 0.000568272
0.000568272 0.000568272 0.000568272 0.000568272 0.000568272 0.000568272 0.000568272 0.000568272 0.000568272
0.000568272 0.000568272 0.000568272 0.000568272 0.000568272 0.000568272 0.000568272 0.000568272 0.000568272
0.000568272 0.000568272 0.000568272 0.000568272 0.000568272 0.000568272 0.000568272 0.000568272 0.000568272
0.000568272 0.000568272 0.000568272 0.000568272 0.000568272 0.000568272 0.000568272 0.000568272 0.000568272
0.000568272 0.000568272 0.000568272 0.000568272 0.000568272 0.000568272 0.000568272 0.000568272 0.000568272
0.000568272 0.000568272 0.000568272 0.000568272 0.000568272 0.000568272 0.000568272 0.000568272 0.000568272
0.000568272 0.000568272 0.000568272 0.000568272 0.000568272 0.000568272 0.000568272 0.000568272 0.000568272
        </DataArray>
        <DataArray type='Float32' Name='omega' format='ascii'>
316 316 316 316 316 316 316 316 316
316 316 316 316 316 316 316 316 316
316 316 316 316 316 316 316 316 316
316 316 316 316 316 316 316 316 316
316 316 316 316 316 316 316 316 316
316 316 316 316 316 316 316 316 316
316 316 316 316 316 316 316 316 316
316 316 316 316 316 316 316 316 316
316 316 316 316 316 316 316 316 316
316 316 316 316 316 316 316 316 316
316 316 316 316 316 316 316 316 316
316 316 316 316 316 316 316 316 316
316 316 316 316 316 316 316 316 316
316 316 316 316 316 316 316 316 316
316 316 316 316 316 316 316 316 316
316 316 316 316 316 316 316 316 316
316 316 316 316 316 316 316 316 316
316 316 316 316 316 316 316 316 316
316 316 316 316 316 316 316 316 316
316 316 316 316 316 316 316 316 316
        </DataArray>
        <DataArray type='Float32' Name='p' format='ascii'>
-109.797 -111.368 -112.497 -113.267 -113.854 -114.322 -114.707 -115.034 -115.318
-115.571 -115.8 -116.01 -116.204 -116.386 -116.558 -116.721 -116.876 -117.025
-117.168 -117.306 -117.439 -117.568 -117.694 -117.816 -117.935 -118.051 -118.164
-118.274 -118.382 -118.488 -118.592 -118.694 -118.794 -118.892 -118.988 -119.083
-119.176 -119.267 -119.357 -119.446 -119.533 -119.619 -119.703 -119.787 -119.869
-119.949 -120.029 -120.108 -120.185 -120.262 -120.337 -120.411 -120.485 -120.557
-120.629 -120.699 -120.769 -120.838 -120.906 -120.973 -121.039 -121.105 -121.17
-121.234 -121.297 -121.359 -121.421 -121.482 -121.543 -121.602 -121.662 -121.72
-121.778 -121.835 -121.892 -121.948 -122.003 -122.058 -122.112 -122.166 -122.219
-122.271 -122.323 -122.375 -122.426 -122.477 -122.527 -122.576 -122.625 -122.674
-122.722 -122.77 -122.817 -122.864 -122.91 -122.956 -123.001 -123.046 -123.091
-123.135 -123.179 -123.222 -123.265 -123.308 -123.35 -123.392 -123.433 -123.474
-123.515 -123.555 -123.595 -123.635 -123.674 -123.713 -123.751 -123.789 -123.827
-123.865 -123.902 -123.938 -123.975 -124.011 -124.046 -124.081 -124.116 -124.151
-124.185 -124.219 -124.252 -124.285 -124.318 -124.35 -124.382 -124.414 -124.445
-124.476 -124.506 -124.536 -124.566 -124.595 -124.623 -124.652 -124.68 -124.707
-124.734 -124.761 -124.787 -124.812 -124.838 -124.862 -124.887 -124.91 -124.933
-124.956 -124.978 -125 -125.021 -125.041 -125.061 -125.08 -125.098 -125.116
-125.133 -125.15 -125.165 -125.18 -125.195 -125.208 -125.221 -125.232 -125.243
-125.253 -125.262 -125.27 -125.277 -125.283 -125.288 -125.292 -125.294 -125.296
        </DataArray>
        <DataArray type='Float32' Name='U' NumberOfComponents='3' format='ascii'>
34.6 0 0 34.6 0 0 34.6 0 0
34.6 0 0 34.6 0 0 34.6 0 0
34.6 0 0 34.6 0 0 34.6 0 0
34.6 0 0 34.6 0 0 34.6 0 0
34.6 0 0 34.6 0 0 34.6 0 0
34.6 0 0 34.6 0 0 34.6 0 0
34.6 0 0 34.6 0 0 34.6 0 0
34.6 0 0 34.6 0 0 34.6 0 0
34.6 0 0 34.6 0 0 34.6 0 0
34.6 0 0 34.6 0 0 34.6 0 0
34.6 0 0 34.6 0 0 34.6 0 0
34.6 0 0 34.6 0 0 34.6 0 0
34.6 0 0 34.6 0 0 34.6 0 0
34.6 0 0 34.6 0 0 34.6 0 0
34.6 0 0 34.6 0 0 34.6 0 0
34.6 0 0 34.6 0 0 34.6 0 0
34.6 0 0 34.6 0 0 34.6 0 0
34.6 0 0 34.6 0 0 34.6 0 0
34.6 0 0 34.6 0 0 34.6 0 0
34.6 0 0 34.6 0 0 34.6 0 0
34.6 0 0 34.6 0 0 34.6 0 0
34.6 0 0 34.6 0 0 34.6 0 0
34.6 0 0 34.6 0 0 34.6 0 0
34.6 0 0 34.6 0 0 34.6 0 0
34.6 0 0 34.6 0 0 34.6 0 0
34.6 0 0 34.6 0 0 34.6 0 0
34.6 0 0 34.6 0 0 34.6 0 0
34.6 0 0 34.6 0 0 34.6 0 0
34.6 0 0 34.6 0 0 34.6 0 0
34.6 0 0 34.6 0 0 34.6 0 0
34.6 0 0 34.6 0 0 34.6 0 0
34.6 0 0 34.6 0 0 34.6 0 0
34.6 0 0 34.6 0 0 34.6 0 0
34.6 0 0 34.6 0 0 34.6 0 0
34.6 0 0 34.6 0 0 34.6 0 0
34.6 0 0 34.6 0 0 34.6 0 0
34.6 0 0 34.6 0 0 34.6 0 0
34.6 0 0 34.6 0 0 34.6 0 0
34.6 0 0 34.6 0 0 34.6 0 0
34.6 0 0 34.6 0 0 34.6 0 0
34.6 0 0 34.6 0 0 34.6 0 0
34.6 0 0 34.6 0 0 34.6 0 0
34.6 0 0 34.6 0 0 34.6 0 0
34.6 0 0 34.6 0 0 34.6 0 0
34.6 0 0 34.6 0 0 34.6 0 0
34.6 0 0 34.6 0 0 34.6 0 0
34.6 0 0 34.6 0 0 34.6 0 0
34.6 0 0 34.6 0 0 34.6 0 0
34.6 0 0 34.6 0 0 34.6 0 0
34.6 0 0 34.6 0 0 34.6 0 0
34.6 0 0 34.6 0 0 34.6 0 0
34.6 0 0 34.6 0 0 34.6 0 0
34.6 0 0 34.6 0 0 34.6 0 0
34.6 0 0 34.6 0 0 34.6 0 0
34.6 0 0 34.6 0 0 34.6 0 0
34.6 0 0 34.6 0 0 34.6 0 0
34.6 0 0 34.6 0 0 34.6 0 0
34.6 0 0 34.6 0 0 34.6 0 0
34.6 0 0 34.6 0 0 34.6 0 0
34.6 0 0 34.6 0 0 34.6 0 0
        </DataArray>
      </CellData>
      <PointData>
        <DataArray type='Float32' Name='k' format='ascii'>
0.179574 0.179574 0.179574 0.179574 0.179574 0.179574 0.179574 0.179574 0.179574
0.179574 0.179574 0.179574 0.179574 0.179574 0.179574 0.179574 0.179574 0.179574
0.179574 0.179574 0.179574 0.179574 0.179574 0.179574 0.179574 0.179574 0.179574
0.179574 0.179574 0.179574 0.179574 0.179574 0.179574 0.179574 0.179574 0.179574
0.179574 0.179574 0.179574 0.179574 0.179574 0.179574 0.179574 0.179574 0.179574
0.179574 0.179574 0.179574 0.179574 0.179574 0.179574 0.179574 0.179574 0.179574
0.179574 0.179574 0.179574 0.179574 0.179574 0.179574 0.179574 0.179574 0.179574
0.179574 0.179574 0.179574 0.179574 0.179574 0.179574 0.179574 0.179574 0.179574
0.179574 0.179574 0.179574 0.179574 0.179574 0.179574 0.179574 0.179574 0.179574
0.179574 0.179574 0.179574 0.179574 0.179574 0.179574 0.179574 0.179574 0.179574
0.179574 0.179574 0.179574 0.179574 0.179574 0.179574 0.179574 0.179574 0.179574
0.179574 0.179574 0.179574 0.179574 0.179574 0.179574 0.179574 0.179574 0.179574
0.179574 0.179574 0.179574 0.179574 0.179574 0.179574 0.179574 0.179574 0.179574
0.179574 0.179574 0.179574 0.179574 0.179574 0.179574 0.179574 0.179574 0.179574
0.179574 0.179574 0.179574 0.179574 0.179574 0.179574 0.179574 0.179574 0.179574
0.179574 0.179574 0.179574 0.179574 0.179574 0.179574 0.179574 0.179574 0.179574
0.179574 0.179574 0.179574 0.179574 0.179574 0.179574 0.179574 0.179574 0.179574
0.179574 0.179574 0.179574 0.179574 0.179574 0.179574 0.179574 0.179574 0.179574
0.179574 0.179574 0.179574 0.179574 0.179574 0.179574 0.179574 0.179574 0.179574
0.179574 0.179574 0.179574 0.179574 0.179574 0.179574 0.179574 0.179574 0.179574
0.179574 0.179574 0.179574 0.179574 0.179574 0.179574 0.179574 0.179574 0.179574
0.179574 0.179574 0.179574 0.179574 0.179574 0.179574 0.179574 0.179574 0.179574
0.179574 0.179574 0.179574 0.179574 0.179574 0.179574 0.179574 0.179574 0.179574
0.179574 0.179574 0.179574 0.179574 0.179574 0.179574 0.179574 0.179574 0.179574
0.179574 0.179574 0.179574 0.179574 0.179574 0.179574 0.179574 0.179574 0.179574
0.179574 0.179574 0.179574 0.179574 0.179574 0.179574 0.179574 0.179574 0.179574
0.179574 0.179574 0.179574 0.179574 0.179574 0.179574 0.179574 0.179574 0.179574
0.179574 0.179574 0.179574 0.179574 0.179574 0.179574 0.179574 0.179574 0.179574
0.179574 0.179574 0.179574 0.179574 0.179574 0.179574 0.179574 0.179574 0.179574
0.179574 0.179574 0.179574 0.179574 0.179574 0.179574 0.179574 0.179574 0.179574
0.179574 0.179574 0.179574 0.179574 0.179574 0.179574 0.179574 0.179574 0.179574
0.179574 0.179574 0.179574 0.179574 0.179574 0.179574 0.179574 0.179574 0.179574
0.179574 0.179574 0.179574 0.179574 0.179574 0.179574 0.179574 0.179574 0.179574
0.179574 0.179574 0.179574 0.179574 0.179574 0.179574 0.179574 0.179574 0.179574
0.179574 0.179574 0.179574 0.179574 0.179574 0.179574 0.179574 0.179574 0.179574
0.179574 0.179574 0.179574 0.179574 0.179574 0.179574 0.179574 0.179574 0.179574
0.179574 0.179574 0.179574 0.179574 0.179574 0.179574 0.179574 0.179574 0.179574
0.179574 0.179574 0.179574 0.179574 0.179574 0.179574 0.179574 0.179574 0.179574
0.179574 0.179574 0.179574 0.179574 0.179574 0.179574 0.179574 0.179574 0.179574
0.179574 0.179574 0.179574 0.179574 0.179574 0.179574 0.179574 0.179574 0.179574
0.179574 0.179574
        </DataArray>
        <DataArray type='Float32' Name='nut' format='ascii'>
5.89876e-05 5.89876e-05 0.000117795 0.000117795 0.000372436 0.000372436 0.000568272 0.000568272 0.000568272
0.000568272 0.000568272 0.000568272 0.000568272 0.000568272 0.000568272 0.000568272 0.000568272 0.000568272
0.000568272 0.000568272 0.000568272 0.000568272 0.000568272 0.000568272 0.000568272 0.000568272 0.000568272
0.000568272 0.000568272 0.000568272 0.000568272 0.000568272 0.000568272 0.000568272 0.000568272 0.000568272
0.000568272 0.000568272 0.000568272 0.000568272 0.000568272 0.000568272 0.000568272 0.000568272 0.000568272
0.000568272 0.000568272 0.000568272 0.000568272 0.000568272 0.000568272 0.000568272 0.000568272 0.000568272
0.000568272 0.000568272 0.000568272 0.000568272 0.000568272 0.000568272 0.000568272 0.000568272 0.000568272
0.000568272 0.000568272 0.000568272 0.000568272 0.000568272 0.000568272 0.000568272 0.000568272 0.000568272
0.000568272 0.000568272 0.000568272 0.000568272 0.000568272 0.000568272 0.000568272 0.000568272 0.000568272
0.000568272 0.000568272 0.000568272 0.000568272 0.000568272 0.000568272 0.000568272 0.000568272 0.000568272
0.000568272 0.000568272 0.000568272 0.000568272 0.000568272 0.000568272 0.000568272 0.000568272 0.000568272
0.000568272 0.000568272 0.000568272 0.000568272 0.000568272 0.000568272 0.000568272 0.000568272 0.000568272
0.000568272 0.000568272 0.000568272 0.000568272 0.000568272 0.000568272 0.000568272 0.000568272 0.000568272
0.000568272 0.000568272 0.000568272 0.000568272 0.000568272 0.000568272 0.000568272 0.000568272 0.000568272
0.000568272 0.000568272 0.000568272 0.000568272 0.000568272 0.000568272 0.000568272 0.000568272 0.000568272
0.000568272 0.000568272 0.000568272 0.000568272 0.000568272 0.000568272 0.000568272 0.000568272 0.000568272
0.000568272 0.000568272 0.000568272 0.000568272 0.000568272 0.000568272 0.000568272 0.000568272 0.000568272
0.000568272 0.000568272 0.000568272 0.000568272 0.000568272 0.000568272 0.000568272 0.000568272 0.000568272
0.000568272 0.000568272 0.000568272 0.000568272 0.000568272 0.000568272 0.000568272 0.000568272 0.000568272
0.000568272 0.000568272 0.000568272 0.000568272 0.000568272 0.000568272 0.000568272 0.000568272 0.000568272
0.000568272 0.000568272 0.000568272 0.000568272 0.000568272 0.000568272 0.000568272 0.000568272 0.000568272
0.000568272 0.000568272 0.000568272 0.000568272 0.000568272 0.000568272 0.000568272 0.000568272 0.000568272
0.000568272 0.000568272 0.000568272 0.000568272 0.000568272 0.000568272 0.000568272 0.000568272 0.000568272
0.000568272 0.000568272 0.000568272 0.000568272 0.000568272 0.000568272 0.000568272 0.000568272 0.000568272
0.000568272 0.000568272 0.000568272 0.000568272 0.000568272 0.000568272 0.000568272 0.000568272 0.000568272
0.000568272 0.000568272 0.000568272 0.000568272 0.000568272 0.000568272 0.000568272 0.000568272 0.000568272
0.000568272 0.000568272 0.000568272 0.000568272 0.000568272 0.000568272 0.000568272 0.000568272 0.000568272
0.000568272 0.000568272 0.000568272 0.000568272 0.000568272 0.000568272 0.000568272 0.000568272 0.000568272
0.000568272 0.000568272 0.000568272 0.000568272 0.000568272 0.000568272 0.000568272 0.000568272 0.000568272
0.000568272 0.000568272 0.000568272 0.000568272 0.000568272 0.000568272 0.000568272 0.000568272 0.000568272
0.000568272 0.000568272 0.000568272 0.000568272 0.000568272 0.000568272 0.000568272 0.000568272 0.000568272
0.000568272 0.000568272 0.000568272 0.000568272 0.000568272 0.000568272 0.000568272 0.000568272 0.000568272
0.000568272 0.000568272 0.000568272 0.000568272 0.000568272 0.000568272 0.000568272 0.000568272 0.000568272
0.000568272 0.000568272 0.000568272 0.000568272 0.000568272 0.000568272 0.000568272 0.000568272 0.000568272
0.000568272 0.000568272 0.000568272 0.000568272 0.000568272 0.000568272 0.000568272 0.000568272 0.000568272
0.000568272 0.000568272 0.000568272 0.000568272 0.000568272 0.000568272 0.000568272 0.000568272 0.000568272
0.000568272 0.000568272 0.000568272 0.000568272 0.000568272 0.000568272 0.000568272 0.000568272 0.000568272
0.000568272 0.000568272 0.000568272 0.000568272 0.000568272 0.000568272 0.000568272 0.000568272 0.000568272
0.000568272 0.000568272 0.000568272 0.000568272 0.000568272 0.000568272 0.000568272 0.000568272 0.000568272
0.000568272 0.000568272 0.000568272 0.000568272 0.000568272 0.000568272 0.000568272 0.000568272 0.000568272
0.000568272 0.000568272
        </DataArray>
        <DataArray type='Float32' Name='omega' format='ascii'>
316 316 316 316 316 316 316 316 316
316 316 316 316 316 316 316 316 316
316 316 316 316 316 316 316 316 316
316 316 316 316 316 316 316 316 316
316 316 316 316 316 316 316 316 316
316 316 316 316 316 316 316 316 316
316 316 316 316 316 316 316 316 316
316 316 316 316 316 316 316 316 316
316 316 316 316 316 316 316 316 316
316 316 316 316 316 316 316 316 316
316 316 316 316 316 316 316 316 316
316 316 316 316 316 316 316 316 316
316 316 316 316 316 316 316 316 316
316 316 316 316 316 316 316 316 316
316 316 316 316 316 316 316 316 316
316 316 316 316 316 316 316 316 316
316 316 316 316 316 316 316 316 316
316 316 316 316 316 316 316 316 316
316 316 316 316 316 316 316 316 316
316 316 316 316 316 316 316 316 316
316 316 316 316 316 316 316 316 316
316 316 316 316 316 316 316 316 316
316 316 316 316 316 316 316 316 316
316 316 316 316 316 316 316 316 316
316 316 316 316 316 316 316 316 316
316 316 316 316 316 316 316 316 316
316 316 316 316 316 316 316 316 316
316 316 316 316 316 316 316 316 316
316 316 316 316 316 316 316 316 316
316 316 316 316 316 316 316 316 316
316 316 316 316 316 316 316 316 316
316 316 316 316 316 316 316 316 316
316 316 316 316 316 316 316 316 316
316 316 316 316 316 316 316 316 316
316 316 316 316 316 316 316 316 316
316 316 316 316 316 316 316 316 316
316 316 316 316 316 316 316 316 316
316 316 316 316 316 316 316 316 316
316 316 316 316 316 316 316 316 316
316 316 316 316 316 316 316 316 316
316 316
        </DataArray>
        <DataArray type='Float32' Name='p' format='ascii'>
-109.797 -109.797 -110.583 -110.583 -111.932 -111.932 -112.882 -112.882 -113.561
-113.561 -114.088 -114.088 -114.515 -114.515 -114.871 -114.871 -115.176 -115.176
-115.445 -115.445 -115.686 -115.686 -115.905 -115.905 -116.107 -116.107 -116.295
-116.295 -116.472 -116.472 -116.639 -116.639 -116.799 -116.799 -116.951 -116.951
-117.097 -117.097 -117.237 -117.237 -117.373 -117.373 -117.504 -117.504 -117.631
-117.631 -117.755 -117.755 -117.875 -117.875 -117.993 -117.993 -118.107 -118.107
-118.219 -118.219 -118.328 -118.328 -118.435 -118.435 -118.54 -118.54 -118.643
-118.643 -118.744 -118.744 -118.843 -118.843 -118.94 -118.94 -119.036 -119.036
-119.129 -119.129 -119.222 -119.222 -119.312 -119.312 -119.402 -119.402 -119.489
-119.489 -119.576 -119.576 -119.661 -119.661 -119.745 -119.745 -119.828 -119.828
-119.909 -119.909 -119.989 -119.989 -120.068 -120.068 -120.146 -120.146 -120.223
-120.223 -120.299 -120.299 -120.374 -120.374 -120.448 -120.448 -120.521 -120.521
-120.593 -120.593 -120.664 -120.664 -120.734 -120.734 -120.803 -120.803 -120.872
-120.872 -120.939 -120.939 -121.006 -121.006 -121.072 -121.072 -121.137 -121.137
-121.202 -121.202 -121.265 -121.265 -121.328 -121.328 -121.39 -121.39 -121.452
-121.452 -121.513 -121.513 -121.573 -121.573 -121.632 -121.632 -121.691 -121.691
-121.749 -121.749 -121.806 -121.806 -121.863 -121.863 -121.92 -121.92 -121.975
-121.975 -122.03 -122.03 -122.085 -122.085 -122.139 -122.139 -122.192 -122.192
-122.245 -122.245 -122.297 -122.297 -122.349 -122.349 -122.401 -122.401 -122.451
-122.451 -122.502 -122.502 -122.551 -122.551 -122.601 -122.601 -122.649 -122.649
-122.698 -122.698 -122.746 -122.746 -122.793 -122.793 -122.84 -122.84 -122.887
-122.887 -122.933 -122.933 -122.978 -122.978 -123.024 -123.024 -123.069 -123.069
-123.113 -123.113 -123.157 -123.157 -123.201 -123.201 -123.244 -123.244 -123.287
-123.287 -123.329 -123.329 -123.371 -123.371 -123.413 -123.413 -123.454 -123.454
-123.495 -123.495 -123.535 -123.535 -123.575 -123.575 -123.615 -123.615 -123.654
-123.654 -123.693 -123.693 -123.732 -123.732 -123.77 -123.77 -123.808 -123.808
-123.846 -123.846 -123.883 -123.883 -123.92 -123.92 -123.957 -123.957 -123.993
-123.993 -124.028 -124.028 -124.064 -124.064 -124.099 -124.099 -124.134 -124.134
-124.168 -124.168 -124.202 -124.202 -124.236 -124.236 -124.269 -124.269 -124.302
-124.302 -124.334 -124.334 -124.366 -124.366 -124.398 -124.398 -124.429 -124.429
-124.46 -124.46 -124.491 -124.491 -124.521 -124.521 -124.551 -124.551 -124.58
-124.58 -124.609 -124.609 -124.638 -124.638 -124.666 -124.666 -124.693 -124.693
-124.721 -124.721 -124.747 -124.747 -124.774 -124.774 -124.8 -124.8 -124.825
-124.825 -124.85 -124.85 -124.874 -124.874 -124.898 -124.898 -124.922 -124.922
-124.945 -124.945 -124.967 -124.967 -124.989 -124.989 -125.01 -125.01 -125.031
-125.031 -125.051 -125.051 -125.07 -125.07 -125.089 -125.089 -125.107 -125.107
-125.125 -125.125 -125.141 -125.141 -125.158 -125.158 -125.173 -125.173 -125.187
-125.187 -125.201 -125.201 -125.214 -125.214 -125.226 -125.226 -125.238 -125.238
-125.248 -125.248 -125.258 -125.258 -125.266 -125.266 -125.274 -125.274 -125.28
-125.28 -125.286 -125.286 -125.29 -125.29 -125.293 -125.293 -125.295 -125.295
-125.296 -125.296
        </DataArray>
        <DataArray type='Float32' Name='U' NumberOfComponents='3' format='ascii'>
34.6 0 0 34.6 0 0 34.6 0 0
34.6 0 0 34.6 0 0 34.6 0 0
34.6 0 0 34.6 0 0 34.6 0 0
34.6 0 0 34.6 0 0 34.6 0 0
34.6 0 0 34.6 0 0 34.6 0 0
34.6 0 0 34.6 0 0 34.6 0 0
34.6 0 0 34.6 0 0 34.6 0 0
34.6 0 0 34.6 0 0 34.6 0 0
34.6 0 0 34.6 0 0 34.6 0 0
34.6 0 0 34.6 0 0 34.6 0 0
34.6 0 0 34.6 0 0 34.6 0 0
34.6 0 0 34.6 0 0 34.6 0 0
34.6 0 0 34.6 0 0 34.6 0 0
34.6 0 0 34.6 0 0 34.6 0 0
34.6 0 0 34.6 0 0 34.6 0 0
34.6 0 0 34.6 0 0 34.6 0 0
34.6 0 0 34.6 0 0 34.6 0 0
34.6 0 0 34.6 0 0 34.6 0 0
34.6 0 0 34.6 0 0 34.6 0 0
34.6 0 0 34.6 0 0 34.6 0 0
34.6 0 0 34.6 0 0 34.6 0 0
34.6 0 0 34.6 0 0 34.6 0 0
34.6 0 0 34.6 0 0 34.6 0 0
34.6 0 0 34.6 0 0 34.6 0 0
34.6 0 0 34.6 0 0 34.6 0 0
34.6 0 0 34.6 0 0 34.6 0 0
34.6 0 0 34.6 0 0 34.6 0 0
34.6 0 0 34.6 0 0 34.6 0 0
34.6 0 0 34.6 0 0 34.6 0 0
34.6 0 0 34.6 0 0 34.6 0 0
34.6 0 0 34.6 0 0 34.6 0 0
34.6 0 0 34.6 0 0 34.6 0 0
34.6 0 0 34.6 0 0 34.6 0 0
34.6 0 0 34.6 0 0 34.6 0 0
34.6 0 0 34.6 0 0 34.6 0 0
34.6 0 0 34.6 0 0 34.6 0 0
34.6 0 0 34.6 0 0 34.6 0 0
34.6 0 0 34.6 0 0 34.6 0 0
34.6 0 0 34.6 0 0 34.6 0 0
34.6 0 0 34.6 0 0 34.6 0 0
34.6 0 0 34.6 0 0 34.6 0 0
34.6 0 0 34.6 0 0 34.6 0 0
34.6 0 0 34.6 0 0 34.6 0 0
34.6 0 0 34.6 0 0 34.6 0 0
34.6 0 0 34.6 0 0 34.6 0 0
34.6 0 0 34.6 0 0 34.6 0 0
34.6 0 0 34.6 0 0 34.6 0 0
34.6 0 0 34.6 0 0 34.6 0 0
34.6 0 0 34.6 0 0 34.6 0 0
34.6 0 0 34.6 0 0 34.6 0 0
34.6 0 0 34.6 0 0 34.6 0 0
34.6 0 0 34.6 0 0 34.6 0 0
34.6 0 0 34.6 0 0 34.6 0 0
34.6 0 0 34.6 0 0 34.6 0 0
34.6 0 0 34.6 0 0 34.6 0 0
34.6 0 0 34.6 0 0 34.6 0 0
34.6 0 0 34.6 0 0 34.6 0 0
34.6 0 0 34.6 0 0 34.6 0 0
34.6 0 0 34.6 0 0 34.6 0 0
34.6 0 0 34.6 0 0 34.6 0 0
34.6 0 0 34.6 0 0 34.6 0 0
34.6 0 0 34.6 0 0 34.6 0 0
34.6 0 0 34.6 0 0 34.6 0 0
34.6 0 0 34.6 0 0 34.6 0 0
34.6 0 0 34.6 0 0 34.6 0 0
34.6 0 0 34.6 0 0 34.6 0 0
34.6 0 0 34.6 0 0 34.6 0 0
34.6 0 0 34.6 0 0 34.6 0 0
34.6 0 0 34.6 0 0 34.6 0 0
34.6 0 0 34.6 0 0 34.6 0 0
34.6 0 0 34.6 0 0 34.6 0 0
34.6 0 0 34.6 0 0 34.6 0 0
34.6 0 0 34.6 0 0 34.6 0 0
34.6 0 0 34.6 0 0 34.6 0 0
34.6 0 0 34.6 0 0 34.6 0 0
34.6 0 0 34.6 0 0 34.6 0 0
34.6 0 0 34.6 0 0 34.6 0 0
34.6 0 0 34.6 0 0 34.6 0 0
34.6 0 0 34.6 0 0 34.6 0 0
34.6 0 0 34.6 0 0 34.6 0 0
34.6 0 0 34.6 0 0 34.6 0 0
34.6 0 0 34.6 0 0 34.6 0 0
34.6 0 0 34.6 0 0 34.6 0 0
34.6 0 0 34.6 0 0 34.6 0 0
34.6 0 0 34.6 0 0 34.6 0 0
34.6 0 0 34.6 0 0 34.6 0 0
34.6 0 0 34.6 0 0 34.6 0 0
34.6 0 0 34.6 0 0 34.6 0 0
34.6 0 0 34.6 0 0 34.6 0 0
34.6 0 0 34.6 0 0 34.6 0 0
34.6 0 0 34.6 0 0 34.6 0 0
34.6 0 0 34.6 0 0 34.6 0 0
34.6 0 0 34.6 0 0 34.6 0 0
34.6 0 0 34.6 0 0 34.6 0 0
34.6 0 0 34.6 0 0 34.6 0 0
34.6 0 0 34.6 0 0 34.6 0 0
34.6 0 0 34.6 0 0 34.6 0 0
34.6 0 0 34.6 0 0 34.6 0 0
34.6 0 0 34.6 0 0 34.6 0 0
34.6 0 0 34.6 0 0 34.6 0 0
34.6 0 0 34.6 0 0 34.6 0 0
34.6 0 0 34.6 0 0 34.6 0 0
34.6 0 0 34.6 0 0 34.6 0 0
34.6 0 0 34.6 0 0 34.6 0 0
34.6 0 0 34.6 0 0 34.6 0 0
34.6 0 0 34.6 0 0 34.6 0 0
34.6 0 0 34.6 0 0 34.6 0 0
34.6 0 0 34.6 0 0 34.6 0 0
34.6 0 0 34.6 0 0 34.6 0 0
34.6 0 0 34.6 0 0 34.6 0 0
34.6 0 0 34.6 0 0 34.6 0 0
34.6 0 0 34.6 0 0 34.6 0 0
34.6 0 0 34.6 0 0 34.6 0 0
34.6 0 0 34.6 0 0 34.6 0 0
34.6 0 0 34.6 0 0 34.6 0 0
34.6 0 0 34.6 0 0 34.6 0 0
34.6 0 0 34.6 0 0 34.6 0 0
34.6 0 0 34.6 0 0 34.6 0 0
34.6 0 0 34.6 0 0 34.6 0 0
34.6 0 0 34.6 0 0 34.6 0 0
34.6 0 0 34.6 0 0
        </DataArray>
      </PointData>
    </Piece>
  </PolyData>
</VTKFile>
