<?xml version='1.0'?>
<!-- patch='outlet' time='20' index='20' -->
<VTKFile type='PolyData' version='0.1' byte_order='LittleEndian' header_type='UInt64'>
  <PolyData>
    <FieldData>
      <DataArray type='Float32' Name='TimeValue' NumberOfTuples='1' format='ascii'>
20
      </DataArray>
    </FieldData>
    <Piece NumberOfPoints='362' NumberOfPolys='180'>
      <Points>
        <DataArray type='Float32' Name='Points' NumberOfComponents='3' format='ascii'>
0.67 0 -0.01 0.67 0.000438104 -0.01 0.67 0.000438104 0.01
0.67 0 0.01 0.67 0.000882333 -0.01 0.67 0.000882333 0.01
0.67 0.00133277 -0.01 0.67 0.00133277 0.01 0.67 0.00178951 -0.01
0.67 0.00178951 0.01 0.67 0.00225263 -0.01 0.67 0.00225263 0.01
0.67 0.00272222 -0.01 0.67 0.00272222 0.01 0.67 0.00319838 -0.01
0.67 0.00319838 0.01 0.67 0.00368119 -0.01 0.67 0.00368119 0.01
0.67 0.00417076 -0.01 0.67 0.00417076 0.01 0.67 0.00466716 -0.01
0.67 0.00466716 0.01 0.67 0.00517051 -0.01 0.67 0.00517051 0.01
0.67 0.00568089 -0.01 0.67 0.00568089 0.01 0.67 0.00619841 -0.01
0.67 0.00619841 0.01 0.67 0.00672316 -0.01 0.67 0.00672316 0.01
0.67 0.00725525 -0.01 0.67 0.00725525 0.01 0.67 0.00779477 -0.01
0.67 0.00779477 0.01 0.67 0.00834184 -0.01 0.67 0.00834184 0.01
0.67 0.00889655 -0.01 0.67 0.00889655 0.01 0.67 0.00945902 -0.01
0.67 0.00945902 0.01 0.67 0.0100294 -0.01 0.67 0.0100294 0.01
0.67 0.0106077 -0.01 0.67 0.0106077 0.01 0.67 0.011194 -0.01
0.67 0.011194 0.01 0.67 0.0117886 -0.01 0.67 0.0117886 0.01
0.67 0.0123915 -0.01 0.67 0.0123915 0.01 0.67 0.0130029 -0.01
0.67 0.0130029 0.01 0.67 0.0136227 -0.01 0.67 0.0136227 0.01
0.67 0.0142513 -0.01 0.67 0.0142513 0.01 0.67 0.0148886 -0.01
0.67 0.0148886 0.01 0.67 0.0155348 -0.01 0.67 0.0155348 0.01
0.67 0.0161901 -0.01 0.67 0.0161901 0.01 0.67 0.0168545 -0.01
0.67 0.0168545 0.01 0.67 0.0175282 -0.01 0.67 0.0175282 0.01
0.67 0.0182113 -0.01 0.67 0.0182113 0.01 0.67 0.018904 -0.01
0.67 0.018904 0.01 0.67 0.0196064 -0.01 0.67 0.0196064 0.01
0.67 0.0203186 -0.01 0.67 0.0203186 0.01 0.67 0.0210407 -0.01
0.67 0.0210407 0.01 0.67 0.0217729 -0.01 0.67 0.0217729 0.01
0.67 0.0225154 -0.01 0.67 0.0225154 0.01 0.67 0.0232683 -0.01
0.67 0.0232683 0.01 0.67 0.0240316 -0.01 0.67 0.0240316 0.01
0.67 0.0248057 -0.01 0.67 0.0248057 0.01 0.67 0.0255905 -0.01
0.67 0.0255905 0.01 0.67 0.0263864 -0.01 0.67 0.0263864 0.01
0.67 0.0271933 -0.01 0.67 0.0271933 0.01 0.67 0.0280116 -0.01
0.67 0.0280116 0.01 0.67 0.0288412 -0.01 0.67 0.0288412 0.01
0.67 0.0296825 -0.01 0.67 0.0296825 0.01 0.67 0.0305355 -0.01
0.67 0.0305355 0.01 0.67 0.0314005 -0.01 0.67 0.0314005 0.01
0.67 0.0322776 -0.01 0.67 0.0322776 0.01 0.67 0.0331669 -0.01
0.67 0.0331669 0.01 0.67 0.0340686 -0.01 0.67 0.0340686 0.01
0.67 0.034983 -0.01 0.67 0.034983 0.01 0.67 0.0359101 -0.01
0.67 0.0359101 0.01 0.67 0.0368502 -0.01 0.67 0.0368502 0.01
0.67 0.0378034 -0.01 0.67 0.0378034 0.01 0.67 0.03877 -0.01
0.67 0.03877 0.01 0.67 0.03975 -0.01 0.67 0.03975 0.01
0.67 0.0407438 -0.01 0.67 0.0407438 0.01 0.67 0.0417515 -0.01
0.67 0.0417515 0.01 0.67 0.0427732 -0.01 0.67 0.0427732 0.01
0.67 0.0438092 -0.01 0.67 0.0438092 0.01 0.67 0.0448597 -0.01
0.67 0.0448597 0.01 0.67 0.0459249 -0.01 0.67 0.0459249 0.01
0.67 0.047005 -0.01 0.67 0.047005 0.01 0.67 0.0481002 -0.01
0.67 0.0481002 0.01 0.67 0.0492107 -0.01 0.67 0.0492107 0.01
0.67 0.0503367 -0.01 0.67 0.0503367 0.01 0.67 0.0514785 -0.01
0.67 0.0514785 0.01 0.67 0.0526362 -0.01 0.67 0.0526362 0.01
0.67 0.0538101 -0.01 0.67 0.0538101 0.01 0.67 0.0550004 -0.01
0.67 0.0550004 0.01 0.67 0.0562074 -0.01 0.67 0.0562074 0.01
0.67 0.0574312 -0.01 0.67 0.0574312 0.01 0.67 0.0586721 -0.01
0.67 0.0586721 0.01 0.67 0.0599304 -0.01 0.67 0.0599304 0.01
0.67 0.0612063 -0.01 0.67 0.0612063 0.01 0.67 0.0625 -0.01
0.67 0.0625 0.01 0.67 0.0638118 -0.01 0.67 0.0638118 0.01
0.67 0.0651419 -0.01 0.67 0.0651419 0.01 0.67 0.0664906 -0.01
0.67 0.0664906 0.01 0.67 0.0678582 -0.01 0.67 0.0678582 0.01
0.67 0.0692449 -0.01 0.67 0.0692449 0.01 0.67 0.070651 -0.01
0.67 0.070651 0.01 0.67 0.0720767 -0.01 0.67 0.0720767 0.01
0.67 0.0735224 -0.01 0.67 0.0735224 0.01 0.67 0.0749882 -0.01
0.67 0.0749882 0.01 0.67 0.0764746 -0.01 0.67 0.0764746 0.01
0.67 0.0779817 -0.01 0.67 0.0779817 0.01 0.67 0.07951 -0.01
0.67 0.07951 0.01 0.67 0.0810595 -0.01 0.67 0.0810595 0.01
0.67 0.0826308 -0.01 0.67 0.0826308 0.01 0.67 0.084224 -0.01
0.67 0.084224 0.01 0.67 0.0858394 -0.01 0.67 0.0858394 0.01
0.67 0.0874775 -0.01 0.67 0.0874775 0.01 0.67 0.0891384 -0.01
0.67 0.0891384 0.01 0.67 0.0908226 -0.01 0.67 0.0908226 0.01
0.67 0.0925303 -0.01 0.67 0.0925303 0.01 0.67 0.0942619 -0.01
0.67 0.0942619 0.01 0.67 0.0960177 -0.01 0.67 0.0960177 0.01
0.67 0.097798 -0.01 0.67 0.097798 0.01 0.67 0.0996032 -0.01
0.67 0.0996032 0.01 0.67 0.101434 -0.01 0.67 0.101434 0.01
0.67 0.10329 -0.01 0.67 0.10329 0.01 0.67 0.105172 -0.01
0.67 0.105172 0.01 0.67 0.10708 -0.01 0.67 0.10708 0.01
0.67 0.109015 -0.01 0.67 0.109015 0.01 0.67 0.110977 -0.01
0.67 0.110977 0.01 0.67 0.112966 -0.01 0.67 0.112966 0.01
0.67 0.114984 -0.01 0.67 0.114984 0.01 0.67 0.117029 -0.01
0.67 0.117029 0.01 0.67 0.119103 -0.01 0.67 0.119103 0.01
0.67 0.121206 -0.01 0.67 0.121206 0.01 0.67 0.123339 -0.01
0.67 0.123339 0.01 0.67 0.125501 -0.01 0.67 0.125501 0.01
0.67 0.127693 -0.01 0.67 0.127693 0.01 0.67 0.129917 -0.01
0.67 0.129917 0.01 0.67 0.132171 -0.01 0.67 0.132171 0.01
0.67 0.134456 -0.01 0.67 0.134456 0.01 0.67 0.136774 -0.01
0.67 0.136774 0.01 0.67 0.139124 -0.01 0.67 0.139124 0.01
0.67 0.141507 -0.01 0.67 0.141507 0.01 0.67 0.143923 -0.01
0.67 0.143923 0.01 0.67 0.146373 -0.01 0.67 0.146373 0.01
0.67 0.148858 -0.01 0.67 0.148858 0.01 0.67 0.151377 -0.01
0.67 0.151377 0.01 0.67 0.153931 -0.01 0.67 0.153931 0.01
0.67 0.156521 -0.01 0.67 0.156521 0.01 0.67 0.159147 -0.01
0.67 0.159147 0.01 0.67 0.16181 -0.01 0.67 0.16181 0.01
0.67 0.16451 -0.01 0.67 0.16451 0.01 0.67 0.167247 -0.01
0.67 0.167247 0.01 0.67 0.170023 -0.01 0.67 0.170023 0.01
0.67 0.172838 -0.01 0.67 0.172838 0.01 0.67 0.175692 -0.01
0.67 0.175692 0.01 0.67 0.178587 -0.01 0.67 0.178587 0.01
0.67 0.181521 -0.01 0.67 0.181521 0.01 0.67 0.184497 -0.01
0.67 0.184497 0.01 0.67 0.187514 -0.01 0.67 0.187514 0.01
0.67 0.190573 -0.01 0.67 0.190573 0.01 0.67 0.193675 -0.01
0.67 0.193675 0.01 0.67 0.196821 -0.01 0.67 0.196821 0.01
0.67 0.20001 -0.01 0.67 0.20001 0.01 0.67 0.203244 -0.01
0.67 0.203244 0.01 0.67 0.206524 -0.01 0.67 0.206524 0.01
0.67 0.209849 -0.01 0.67 0.209849 0.01 0.67 0.21322 -0.01
0.67 0.21322 0.01 0.67 0.216639 -0.01 0.67 0.216639 0.01
0.67 0.220105 -0.01 0.67 0.220105 0.01 0.67 0.22362 -0.01
0.67 0.22362 0.01 0.67 0.227185 -0.01 0.67 0.227185 0.01
0.67 0.230798 -0.01 0.67 0.230798 0.01 0.67 0.234463 -0.01
0.67 0.234463 0.01 0.67 0.238179 -0.01 0.67 0.238179 0.01
0.67 0.241946 -0.01 0.67 0.241946 0.01 0.67 0.245766 -0.01
0.67 0.245766 0.01 0.67 0.24964 -0.01 0.67 0.24964 0.01
0.67 0.253568 -0.01 0.67 0.253568 0.01 0.67 0.257551 -0.01
0.67 0.257551 0.01 0.67 0.261589 -0.01 0.67 0.261589 0.01
0.67 0.265684 -0.01 0.67 0.265684 0.01 0.67 0.269836 -0.01
0.67 0.269836 0.01 0.67 0.274046 -0.01 0.67 0.274046 0.01
0.67 0.278315 -0.01 0.67 0.278315 0.01 0.67 0.282644 -0.01
0.67 0.282644 0.01 0.67 0.287033 -0.01 0.67 0.287033 0.01
0.67 0.291483 -0.01 0.67 0.291483 0.01 0.67 0.295996 -0.01
0.67 0.295996 0.01 0.67 0.300572 -0.01 0.67 0.300572 0.01
0.67 0.305212 -0.01 0.67 0.305212 0.01 0.67 0.309916 -0.01
0.67 0.309916 0.01 0.67 0.314687 -0.01 0.67 0.314687 0.01
0.67 0.319524 -0.01 0.67 0.319524 0.01 0.67 0.324429 -0.01
0.67 0.324429 0.01 0.67 0.329402 -0.01 0.67 0.329402 0.01
0.67 0.334445 -0.01 0.67 0.334445 0.01 0.67 0.339558 -0.01
0.67 0.339558 0.01 0.67 0.344743 -0.01 0.67 0.344743 0.01
0.67 0.35 -0.01 0.67 0.35 0.01
        </DataArray>
      </Points>
      <Polys>
        <DataArray type='Int32' Name='connectivity' format='ascii'>
0 1 2 3 1 4 5 2 4
6 7 5 6 8 9 7 8 10
11 9 10 12 13 11 12 14 15
13 14 16 17 15 16 18 19 17
18 20 21 19 20 22 23 21 22
24 25 23 24 26 27 25 26 28
29 27 28 30 31 29 30 32 33
31 32 34 35 33 34 36 37 35
36 38 39 37 38 40 41 39 40
42 43 41 42 44 45 43 44 46
47 45 46 48 49 47 48 50 51
49 50 52 53 51 52 54 55 53
54 56 57 55 56 58 59 57 58
60 61 59 60 62 63 61 62 64
65 63 64 66 67 65 66 68 69
67 68 70 71 69 70 72 73 71
72 74 75 73 74 76 77 75 76
78 79 77 78 80 81 79 80 82
83 81 82 84 85 83 84 86 87
85 86 88 89 87 88 90 91 89
90 92 93 91 92 94 95 93 94
96 97 95 96 98 99 97 98 100
101 99 100 102 103 101 102 104 105
103 104 106 107 105 106 108 109 107
108 110 111 109 110 112 113 111 112
114 115 113 114 116 117 115 116 118
119 117 118 120 121 119 120 122 123
121 122 124 125 123 124 126 127 125
126 128 129 127 128 130 131 129 130
132 133 131 132 134 135 133 134 136
137 135 136 138 139 137 138 140 141
139 140 142 143 141 142 144 145 143
144 146 147 145 146 148 149 147 148
150 151 149 150 152 153 151 152 154
155 153 154 156 157 155 156 158 159
157 158 160 161 159 160 162 163 161
162 164 165 163 164 166 167 165 166
168 169 167 168 170 171 169 170 172
173 171 172 174 175 173 174 176 177
175 176 178 179 177 178 180 181 179
180 182 183 181 182 184 185 183 184
186 187 185 186 188 189 187 188 190
191 189 190 192 193 191 192 194 195
193 194 196 197 195 196 198 199 197
198 200 201 199 200 202 203 201 202
204 205 203 204 206 207 205 206 208
209 207 208 210 211 209 210 212 213
211 212 214 215 213 214 216 217 215
216 218 219 217 218 220 221 219 220
222 223 221 222 224 225 223 224 226
227 225 226 228 229 227 228 230 231
229 230 232 233 231 232 234 235 233
234 236 237 235 236 238 239 237 238
240 241 239 240 242 243 241 242 244
245 243 244 246 247 245 246 248 249
247 248 250 251 249 250 252 253 251
252 254 255 253 254 256 257 255 256
258 259 257 258 260 261 259 260 262
263 261 262 264 265 263 264 266 267
265 266 268 269 267 268 270 271 269
270 272 273 271 272 274 275 273 274
276 277 275 276 278 279 277 278 280
281 279 280 282 283 281 282 284 285
283 284 286 287 285 286 288 289 287
288 290 291 289 290 292 293 291 292
294 295 293 294 296 297 295 296 298
299 297 298 300 301 299 300 302 303
301 302 304 305 303 304 306 307 305
306 308 309 307 308 310 311 309 310
312 313 311 312 314 315 313 314 316
317 315 316 318 319 317 318 320 321
319 320 322 323 321 322 324 325 323
324 326 327 325 326 328 329 327 328
330 331 329 330 332 333 331 332 334
335 333 334 336 337 335 336 338 339
337 338 340 341 339 340 342 343 341
342 344 345 343 344 346 347 345 346
348 349 347 348 350 351 349 350 352
353 351 352 354 355 353 354 356 357
355 356 358 359 357 358 360 361 359
        </DataArray>
        <DataArray type='Int32' Name='offsets' format='ascii'>
4 8 12 16 20 24 28 32 36
40 44 48 52 56 60 64 68 72
76 80 84 88 92 96 100 104 108
112 116 120 124 128 132 136 140 144
148 152 156 160 164 168 172 176 180
184 188 192 196 200 204 208 212 216
220 224 228 232 236 240 244 248 252
256 260 264 268 272 276 280 284 288
292 296 300 304 308 312 316 320 324
328 332 336 340 344 348 352 356 360
364 368 372 376 380 384 388 392 396
400 404 408 412 416 420 424 428 432
436 440 444 448 452 456 460 464 468
472 476 480 484 488 492 496 500 504
508 512 516 520 524 528 532 536 540
544 548 552 556 560 564 568 572 576
580 584 588 592 596 600 604 608 612
616 620 624 628 632 636 640 644 648
652 656 660 664 668 672 676 680 684
688 692 696 700 704 708 712 716 720
        </DataArray>
      </Polys>
      <CellData>
        <DataArray type='Float32' Name='k' format='ascii'>
6.22261 6.80872 4.35488 2.23501 0.907899 0.376348 0.225091 0.185439 0.173083
0.168501 0.166529 0.165561 0.165052 0.164767 0.164589 0.164455 0.164333 0.164211
0.164085 0.163956 0.163826 0.163696 0.163569 0.163446 0.163328 0.163218 0.163116
0.16302 0.16293 0.162844 0.162759 0.162674 0.162589 0.162502 0.162414 0.162325
0.162235 0.162144 0.162054 0.161964 0.161875 0.161787 0.161701 0.161616 0.161533
0.161453 0.161374 0.161298 0.161224 0.161153 0.161083 0.161016 0.160951 0.160888
0.160827 0.160768 0.160711 0.160656 0.160603 0.160551 0.160501 0.160452 0.160405
0.160358 0.160314 0.16027 0.160227 0.160185 0.160144 0.160104 0.160064 0.160025
0.159987 0.159949 0.159912 0.159874 0.159837 0.159801 0.159764 0.159727 0.159691
0.159654 0.159617 0.15958 0.159543 0.159506 0.159468 0.159431 0.159392 0.159354
0.159315 0.159276 0.159236 0.159196 0.159155 0.159114 0.159073 0.15903 0.158988
0.158944 0.1589 0.158855 0.158809 0.158763 0.158716 0.158669 0.158621 0.158572
0.158523 0.158473 0.158422 0.158371 0.158319 0.158266 0.158212 0.158158 0.158104
0.158048 0.157993 0.157936 0.157879 0.157822 0.157764 0.157705 0.157646 0.157587
0.157527 0.157466 0.157405 0.157344 0.157283 0.157221 0.157159 0.157096 0.157034
0.156971 0.156908 0.156844 0.156781 0.156717 0.156653 0.156588 0.156524 0.15646
0.156396 0.156331 0.156267 0.156203 0.156139 0.156075 0.156011 0.155948 0.155884
0.155821 0.155758 0.155696 0.155633 0.155572 0.15551 0.155449 0.155388 0.155328
0.155268 0.155209 0.155151 0.155092 0.155035 0.154977 0.154921 0.154864 0.154809
0.154753 0.154696 0.154639 0.154573 0.154495 0.154374 0.154232 0.154157 0.153967
        </DataArray>
        <DataArray type='Float32' Name='nut' format='ascii'>
6.93919e-05 0.000194046 0.000194854 0.000146235 0.000107388 9.57164e-05 0.000132037 0.000212992 0.000331183
0.000440262 0.000506979 0.000541448 0.00055734 0.000564061 0.000566693 0.00056763 0.000567899 0.000567916
0.000567837 0.000567723 0.000567596 0.000567469 0.00056735 0.000567248 0.000567173 0.00056713 0.000567124
0.00056715 0.000567203 0.000567272 0.000567349 0.000567426 0.000567499 0.000567564 0.00056762 0.000567666
0.000567703 0.000567732 0.000567753 0.000567768 0.000567778 0.000567784 0.000567787 0.000567786 0.000567784
0.00056778 0.000567775 0.00056777 0.000567763 0.000567757 0.00056775 0.000567743 0.000567737 0.00056773
0.000567724 0.000567717 0.000567711 0.000567705 0.0005677 0.000567694 0.000567689 0.000567683 0.000567677
0.000567672 0.000567666 0.00056766 0.000567654 0.000567648 0.000567641 0.000567634 0.000567627 0.000567619
0.000567611 0.000567602 0.000567592 0.000567581 0.00056757 0.000567558 0.000567545 0.000567531 0.000567516
0.0005675 0.000567483 0.000567465 0.000567446 0.000567425 0.000567404 0.000567382 0.000567358 0.000567333
0.000567308 0.000567281 0.000567253 0.000567224 0.000567194 0.000567162 0.00056713 0.000567097 0.000567063
0.000567027 0.000566989 0.000566951 0.000566912 0.000566871 0.00056683 0.000566788 0.000566745 0.000566702
0.000566657 0.000566612 0.000566566 0.000566519 0.000566472 0.000566424 0.000566375 0.000566325 0.000566275
0.000566224 0.000566174 0.000566123 0.000566071 0.000566019 0.000565968 0.000565915 0.000565863 0.000565811
0.000565758 0.000565706 0.000565653 0.000565602 0.00056555 0.000565498 0.000565447 0.000565396 0.000565345
0.000565295 0.000565245 0.000565195 0.000565145 0.000565096 0.000565047 0.000564999 0.000564952 0.000564905
0.000564858 0.000564813 0.000564768 0.000564724 0.000564681 0.000564638 0.000564597 0.000564556 0.000564516
0.000564478 0.00056444 0.000564403 0.000564367 0.000564332 0.000564298 0.000564265 0.000564234 0.000564203
0.000564173 0.000564144 0.000564116 0.000564088 0.000564059 0.000564029 0.000563997 0.00056396 0.000563913
0.000563846 0.000563739 0.000563544 0.000563132 0.000562181 0.00055991 0.00055647 0.000555985 0.000555735
        </DataArray>
        <DataArray type='Float32' Name='omega' format='ascii'>
57038.6 30707.5 19813.1 13819.5 8454.4 3931.91 1704.76 870.636 522.619
382.728 328.473 305.775 296.142 292.109 290.438 289.723 289.37 289.147
288.965 288.796 288.631 288.467 288.303 288.138 287.969 287.797 287.619
287.437 287.252 287.064 286.876 286.688 286.501 286.316 286.132 285.952
285.774 285.601 285.43 285.264 285.102 284.944 284.791 284.642 284.498
284.358 284.222 284.091 283.964 283.841 283.722 283.607 283.496 283.388
283.284 283.183 283.086 282.992 282.901 282.812 282.727 282.643 282.563
282.484 282.408 282.334 282.262 282.191 282.122 282.055 281.989 281.924
281.861 281.798 281.737 281.677 281.617 281.558 281.5 281.443 281.385
281.329 281.272 281.216 281.16 281.105 281.049 280.994 280.938 280.882
280.827 280.771 280.714 280.658 280.601 280.544 280.487 280.429 280.371
280.311 280.252 280.191 280.13 280.069 280.006 279.944 279.88 279.815
279.75 279.684 279.618 279.55 279.482 279.413 279.342 279.271 279.199
279.127 279.053 278.979 278.904 278.827 278.751 278.673 278.594 278.515
278.434 278.353 278.272 278.189 278.106 278.022 277.937 277.852 277.766
277.68 277.593 277.505 277.416 277.327 277.238 277.148 277.058 276.967
276.876 276.784 276.692 276.6 276.508 276.416 276.323 276.23 276.138
276.045 275.952 275.859 275.766 275.674 275.581 275.489 275.397 275.305
275.214 275.123 275.033 274.944 274.855 274.768 274.683 274.602 274.526
274.459 274.412 274.404 274.488 274.813 275.713 277.161 277.269 277.051
        </DataArray>
        <DataArray type='Float32' Name='p' format='ascii'>
0 0 0 0 0 0 0 0 0
0 0 0 0 0 0 0 0 0
0 0 0 0 0 0 0 0 0
0 0 0 0 0 0 0 0 0
0 0 0 0 0 0 0 0 0
0 0 0 0 0 0 0 0 0
0 0 0 0 0 0 0 0 0
0 0 0 0 0 0 0 0 0
0 0 0 0 0 0 0 0 0
0 0 0 0 0 0 0 0 0
0 0 0 0 0 0 0 0 0
0 0 0 0 0 0 0 0 0
0 0 0 0 0 0 0 0 0
0 0 0 0 0 0 0 0 0
0 0 0 0 0 0 0 0 0
0 0 0 0 0 0 0 0 0
0 0 0 0 0 0 0 0 0
0 0 0 0 0 0 0 0 0
0 0 0 0 0 0 0 0 0
0 0 0 0 0 0 0 0 0
        </DataArray>
        <DataArray type='Float32' Name='U' NumberOfComponents='3' format='ascii'>
19.3172 -0.00272762 2.4048e-23 25.4064 -0.00499411 7.02382e-24 28.9638 -0.00792551 -1.77038e-23
31.6436 -0.0112465 -2.02979e-24 33.3612 -0.0150832 -1.59925e-23 34.1343 -0.0190783 7.42512e-24
34.393 -0.0227741 5.27418e-24 34.4746 -0.0260459 -1.09976e-23 34.5017 -0.0289274 1.17346e-23
34.5108 -0.0316395 -1.16387e-23 34.5124 -0.0343574 7.70709e-24 34.5099 -0.0371307 3.62303e-24
34.5045 -0.0399867 3.16903e-24 34.4968 -0.042966 1.06657e-24 34.4876 -0.0460773 7.26575e-24
34.4771 -0.0493226 4.39494e-24 34.4659 -0.0527094 4.70668e-24 34.4541 -0.056248 -2.86334e-24
34.4419 -0.0599381 1.52722e-23 34.4295 -0.0637802 6.77639e-24 34.4169 -0.0677752 1.11439e-23
34.4041 -0.0719236 9.82974e-24 34.3913 -0.0762247 1.82992e-24 34.3784 -0.0806777 -1.3005e-23
34.3655 -0.0852838 -8.01578e-24 34.3526 -0.0900435 -3.22847e-24 34.3397 -0.0949558 -1.57668e-23
34.3269 -0.10002 7.23687e-24 34.3142 -0.105234 -7.23385e-24 34.3016 -0.110598 -3.04088e-24
34.2892 -0.116111 7.93755e-24 34.2768 -0.121772 -1.25939e-23 34.2647 -0.127578 -1.53398e-23
34.2528 -0.133527 1.8962e-23 34.241 -0.139619 3.3177e-24 34.2295 -0.145851 -6.02475e-24
34.2183 -0.152221 -1.83717e-24 34.2073 -0.158727 -1.89323e-24 34.1966 -0.165367 1.2875e-23
34.1862 -0.172138 1.36007e-23 34.176 -0.179038 1.39462e-23 34.1662 -0.186065 4.06931e-24
34.1567 -0.193217 -6.33206e-24 34.1475 -0.200491 3.85278e-24 34.1387 -0.207885 -1.46655e-23
34.1302 -0.215396 -1.42471e-24 34.122 -0.223021 -5.42842e-24 34.1142 -0.230759 -9.76499e-24
34.1067 -0.238608 3.02646e-23 34.0995 -0.246565 -5.65511e-24 34.0927 -0.254628 -2.5316e-23
34.0863 -0.262796 -1.1915e-23 34.0802 -0.271066 3.51412e-25 34.0745 -0.279435 7.71529e-24
34.0692 -0.287903 1.79484e-23 34.0642 -0.296467 -9.427e-24 34.0595 -0.305126 7.9361e-24
34.0552 -0.31388 -1.55917e-23 34.0513 -0.322725 -1.50925e-23 34.0478 -0.331659 2.10651e-24
34.0446 -0.34068 -3.21506e-24 34.0418 -0.349785 2.2468e-23 34.0393 -0.35897 4.41853e-24
34.0372 -0.368231 -2.3858e-24 34.0354 -0.377566 4.08361e-24 34.034 -0.386973 1.7623e-23
34.0329 -0.396447 5.44312e-24 34.0322 -0.405985 3.59307e-24 34.0319 -0.415584 -3.28975e-23
34.0319 -0.425246 1.10062e-23 34.0322 -0.434965 4.48067e-23 34.0329 -0.444732 1.9161e-23
34.0339 -0.454549 -1.74152e-23 34.0352 -0.464412 -2.58225e-23 34.0369 -0.474316 2.98814e-24
34.039 -0.484258 2.04189e-23 34.0413 -0.494231 -1.06555e-23 34.044 -0.50423 -1.30532e-23
34.047 -0.514249 -3.73368e-23 34.0503 -0.524283 -1.17003e-23 34.054 -0.534327 8.07276e-24
34.0579 -0.544376 2.07669e-23 34.0622 -0.554427 -3.11505e-23 34.0669 -0.564474 -1.29704e-23
34.0718 -0.57451 4.02559e-24 34.077 -0.584526 7.16098e-25 34.0826 -0.594516 7.16382e-24
34.0884 -0.604474 2.43477e-23 34.0946 -0.614397 -6.8289e-24 34.1011 -0.624274 1.42354e-23
34.1079 -0.634099 -1.48603e-23 34.115 -0.643862 3.09422e-23 34.1224 -0.653555 7.56353e-25
34.13 -0.663169 -1.36683e-23 34.138 -0.672694 -1.2371e-23 34.1463 -0.682121 2.41269e-23
34.1549 -0.691442 -1.87348e-23 34.1637 -0.700648 1.43086e-23 34.1728 -0.709728 2.2892e-23
34.1823 -0.718675 2.73417e-23 34.192 -0.727481 -2.58075e-23 34.202 -0.736133 -6.21819e-24
34.2122 -0.744618 -1.07324e-23 34.2227 -0.752927 -2.91215e-23 34.2335 -0.761048 -7.91245e-24
34.2446 -0.768969 -1.67859e-23 34.2559 -0.776679 -2.54079e-23 34.2675 -0.784164 8.8604e-24
34.2793 -0.791414 -1.5542e-23 34.2914 -0.798416 8.2845e-26 34.3037 -0.805158 -8.38706e-24
34.3162 -0.811627 -3.91684e-25 34.329 -0.817811 1.80197e-24 34.342 -0.823695 -7.82908e-24
34.3552 -0.829268 -1.49117e-23 34.3686 -0.834516 -7.19042e-24 34.3823 -0.839424 7.56383e-24
34.3961 -0.843977 -1.20794e-23 34.4101 -0.848164 1.83771e-23 34.4243 -0.85198 -1.30987e-23
34.4386 -0.855412 2.61933e-25 34.4532 -0.858437 -4.90117e-24 34.4679 -0.861045 -9.65477e-24
34.4827 -0.863224 4.89491e-24 34.4977 -0.864962 2.21255e-24 34.5128 -0.866244 2.68587e-24
34.528 -0.867059 -4.94712e-24 34.5433 -0.867394 1.88488e-24 34.5587 -0.867237 2.25416e-25
34.5742 -0.866578 1.28121e-27 34.5898 -0.865403 -1.62917e-24 34.6055 -0.863701 -1.35559e-24
34.6211 -0.861462 3.25315e-24 34.6369 -0.858672 5.04525e-24 34.6526 -0.855323 -1.69259e-24
34.6684 -0.851404 -7.50029e-24 34.6842 -0.846904 -8.64175e-24 34.6999 -0.841812 6.34397e-24
34.7157 -0.836114 -1.4858e-23 34.7314 -0.829808 1.82256e-23 34.7471 -0.822884 -3.00281e-24
34.7627 -0.815334 -3.24702e-23 34.7782 -0.807154 -3.72664e-24 34.7937 -0.798335 -3.22956e-23
34.8091 -0.788864 -1.58865e-23 34.8243 -0.778732 -4.13317e-23 34.8395 -0.767935 -4.53986e-23
34.8545 -0.756469 -1.87906e-23 34.8694 -0.744325 -7.50178e-24 34.8841 -0.731497 2.72979e-24
34.8987 -0.717987 6.08393e-24 34.913 -0.70379 -4.56798e-23 34.9272 -0.688897 -2.58266e-23
34.9412 -0.673302 9.26981e-24 34.9549 -0.657001 4.7162e-23 34.9685 -0.639989 -3.33235e-24
34.9817 -0.622265 5.34944e-23 34.9948 -0.603824 6.63812e-23 35.0075 -0.584666 4.29235e-23
35.02 -0.564793 -8.07704e-23 35.0322 -0.544203 2.42899e-23 35.044 -0.522895 1.199e-24
35.0556 -0.500866 -4.58432e-23 35.0668 -0.478114 -7.39018e-23 35.0777 -0.454639 9.28425e-24
35.0882 -0.430438 -3.01445e-23 35.0983 -0.405513 -1.02029e-22 35.108 -0.379863 -8.04004e-23
35.1174 -0.353488 5.12415e-23 35.1263 -0.32639 3.27349e-23 35.1347 -0.298568 1.03677e-22
35.1427 -0.270025 -1.32198e-22 35.1502 -0.240754 -1.46819e-22 35.1572 -0.210868 3.04588e-23
35.1638 -0.179867 -1.6599e-22 35.1696 -0.149056 -1.04644e-23 35.1752 -0.116483 1.29142e-22
35.1797 -0.0838326 -5.08093e-23 35.1788 -0.0501256 -2.71589e-23 35.1549 -0.016577 3.57326e-23
        </DataArray>
      </CellData>
      <PointData>
        <DataArray type='Float32' Name='k' format='ascii'>
6.22261 6.51566 6.51566 6.22261 5.5818 5.5818 3.29495 3.29495 1.57146
1.57146 0.642124 0.642124 0.30072 0.30072 0.205265 0.205265 0.179261 0.179261
0.170792 0.170792 0.167515 0.167515 0.166045 0.166045 0.165307 0.165307 0.16491
0.16491 0.164678 0.164678 0.164522 0.164522 0.164394 0.164394 0.164272 0.164272
0.164148 0.164148 0.164021 0.164021 0.163891 0.163891 0.163761 0.163761 0.163632
0.163632 0.163507 0.163507 0.163387 0.163387 0.163273 0.163273 0.163167 0.163167
0.163068 0.163068 0.162975 0.162975 0.162887 0.162887 0.162801 0.162801 0.162716
0.162716 0.162632 0.162632 0.162546 0.162546 0.162458 0.162458 0.16237 0.16237
0.16228 0.16228 0.16219 0.16219 0.162099 0.162099 0.162009 0.162009 0.161919
0.161919 0.161831 0.161831 0.161744 0.161744 0.161658 0.161658 0.161575 0.161575
0.161493 0.161493 0.161414 0.161414 0.161336 0.161336 0.161261 0.161261 0.161188
0.161188 0.161118 0.161118 0.16105 0.16105 0.160983 0.160983 0.160919 0.160919
0.160857 0.160857 0.160798 0.160798 0.16074 0.16074 0.160684 0.160684 0.160629
0.160629 0.160577 0.160577 0.160526 0.160526 0.160476 0.160476 0.160428 0.160428
0.160381 0.160381 0.160336 0.160336 0.160292 0.160292 0.160248 0.160248 0.160206
0.160206 0.160165 0.160165 0.160124 0.160124 0.160084 0.160084 0.160045 0.160045
0.160006 0.160006 0.159968 0.159968 0.15993 0.15993 0.159893 0.159893 0.159856
0.159856 0.159819 0.159819 0.159782 0.159782 0.159746 0.159746 0.159709 0.159709
0.159672 0.159672 0.159636 0.159636 0.159599 0.159599 0.159562 0.159562 0.159525
0.159525 0.159487 0.159487 0.15945 0.15945 0.159412 0.159412 0.159373 0.159373
0.159335 0.159335 0.159295 0.159295 0.159256 0.159256 0.159216 0.159216 0.159176
0.159176 0.159135 0.159135 0.159093 0.159093 0.159052 0.159052 0.159009 0.159009
0.158966 0.158966 0.158922 0.158922 0.158877 0.158877 0.158832 0.158832 0.158786
0.158786 0.15874 0.15874 0.158692 0.158692 0.158645 0.158645 0.158596 0.158596
0.158547 0.158547 0.158498 0.158498 0.158447 0.158447 0.158396 0.158396 0.158345
0.158345 0.158292 0.158292 0.158239 0.158239 0.158185 0.158185 0.158131 0.158131
0.158076 0.158076 0.15802 0.15802 0.157964 0.157964 0.157908 0.157908 0.157851
0.157851 0.157793 0.157793 0.157734 0.157734 0.157676 0.157676 0.157616 0.157616
0.157557 0.157557 0.157496 0.157496 0.157436 0.157436 0.157375 0.157375 0.157314
0.157314 0.157252 0.157252 0.15719 0.15719 0.157128 0.157128 0.157065 0.157065
0.157002 0.157002 0.156939 0.156939 0.156876 0.156876 0.156812 0.156812 0.156749
0.156749 0.156685 0.156685 0.15662 0.15662 0.156556 0.156556 0.156492 0.156492
0.156428 0.156428 0.156363 0.156363 0.156299 0.156299 0.156235 0.156235 0.156171
0.156171 0.156107 0.156107 0.156043 0.156043 0.155979 0.155979 0.155916 0.155916
0.155853 0.155853 0.15579 0.15579 0.155727 0.155727 0.155665 0.155665 0.155602
0.155602 0.155541 0.155541 0.155479 0.155479 0.155419 0.155419 0.155358 0.155358
0.155298 0.155298 0.155239 0.155239 0.15518 0.15518 0.155122 0.155122 0.155064
0.155064 0.155006 0.155006 0.154949 0.154949 0.154892 0.154892 0.154836 0.154836
0.154781 0.154781 0.154725 0.154725 0.154668 0.154668 0.154606 0.154606 0.154534
0.154534 0.154435 0.154435 0.154303 0.154303 0.154194 0.154194 0.154062 0.154062
0.153967 0.153967
        </DataArray>
        <DataArray type='Float32' Name='nut' format='ascii'>
6.93919e-05 0.000131719 0.000131719 6.93919e-05 0.00019445 0.00019445 0.000170544 0.000170544 0.000126811
0.000126811 0.000101552 0.000101552 0.000113877 0.000113877 0.000172514 0.000172514 0.000272088 0.000272088
0.000385722 0.000385722 0.000473621 0.000473621 0.000524214 0.000524214 0.000549394 0.000549394 0.000560701
0.000560701 0.000565377 0.000565377 0.000567162 0.000567162 0.000567765 0.000567765 0.000567908 0.000567908
0.000567876 0.000567876 0.00056778 0.00056778 0.000567659 0.000567659 0.000567532 0.000567532 0.000567409
0.000567409 0.000567299 0.000567299 0.00056721 0.00056721 0.000567152 0.000567152 0.000567127 0.000567127
0.000567137 0.000567137 0.000567177 0.000567177 0.000567237 0.000567237 0.00056731 0.00056731 0.000567387
0.000567387 0.000567462 0.000567462 0.000567531 0.000567531 0.000567592 0.000567592 0.000567643 0.000567643
0.000567684 0.000567684 0.000567717 0.000567717 0.000567742 0.000567742 0.000567761 0.000567761 0.000567773
0.000567773 0.000567781 0.000567781 0.000567785 0.000567785 0.000567786 0.000567786 0.000567785 0.000567785
0.000567782 0.000567782 0.000567778 0.000567778 0.000567772 0.000567772 0.000567766 0.000567766 0.00056776
0.00056776 0.000567753 0.000567753 0.000567747 0.000567747 0.00056774 0.00056774 0.000567733 0.000567733
0.000567727 0.000567727 0.000567721 0.000567721 0.000567714 0.000567714 0.000567708 0.000567708 0.000567703
0.000567703 0.000567697 0.000567697 0.000567691 0.000567691 0.000567686 0.000567686 0.00056768 0.00056768
0.000567675 0.000567675 0.000567669 0.000567669 0.000567663 0.000567663 0.000567657 0.000567657 0.000567651
0.000567651 0.000567644 0.000567644 0.000567637 0.000567637 0.00056763 0.00056763 0.000567623 0.000567623
0.000567615 0.000567615 0.000567606 0.000567606 0.000567597 0.000567597 0.000567587 0.000567587 0.000567576
0.000567576 0.000567564 0.000567564 0.000567551 0.000567551 0.000567538 0.000567538 0.000567523 0.000567523
0.000567508 0.000567508 0.000567491 0.000567491 0.000567474 0.000567474 0.000567455 0.000567455 0.000567436
0.000567436 0.000567415 0.000567415 0.000567393 0.000567393 0.00056737 0.00056737 0.000567346 0.000567346
0.000567321 0.000567321 0.000567294 0.000567294 0.000567267 0.000567267 0.000567238 0.000567238 0.000567209
0.000567209 0.000567178 0.000567178 0.000567146 0.000567146 0.000567114 0.000567114 0.00056708 0.00056708
0.000567045 0.000567045 0.000567008 0.000567008 0.00056697 0.00056697 0.000566931 0.000566931 0.000566891
0.000566891 0.000566851 0.000566851 0.000566809 0.000566809 0.000566767 0.000566767 0.000566724 0.000566724
0.000566679 0.000566679 0.000566635 0.000566635 0.000566589 0.000566589 0.000566543 0.000566543 0.000566496
0.000566496 0.000566448 0.000566448 0.000566399 0.000566399 0.00056635 0.00056635 0.0005663 0.0005663
0.00056625 0.00056625 0.000566199 0.000566199 0.000566148 0.000566148 0.000566097 0.000566097 0.000566045
0.000566045 0.000565993 0.000565993 0.000565941 0.000565941 0.000565889 0.000565889 0.000565837 0.000565837
0.000565784 0.000565784 0.000565732 0.000565732 0.00056568 0.00056568 0.000565628 0.000565628 0.000565576
0.000565576 0.000565524 0.000565524 0.000565473 0.000565473 0.000565421 0.000565421 0.00056537 0.00056537
0.00056532 0.00056532 0.00056527 0.00056527 0.00056522 0.00056522 0.00056517 0.00056517 0.000565121
0.000565121 0.000565072 0.000565072 0.000565023 0.000565023 0.000564975 0.000564975 0.000564928 0.000564928
0.000564881 0.000564881 0.000564836 0.000564836 0.00056479 0.00056479 0.000564746 0.000564746 0.000564702
0.000564702 0.00056466 0.00056466 0.000564618 0.000564618 0.000564576 0.000564576 0.000564536 0.000564536
0.000564497 0.000564497 0.000564459 0.000564459 0.000564421 0.000564421 0.000564385 0.000564385 0.000564349
0.000564349 0.000564315 0.000564315 0.000564282 0.000564282 0.00056425 0.00056425 0.000564218 0.000564218
0.000564188 0.000564188 0.000564159 0.000564159 0.00056413 0.00056413 0.000564102 0.000564102 0.000564073
0.000564073 0.000564044 0.000564044 0.000564013 0.000564013 0.000563978 0.000563978 0.000563936 0.000563936
0.000563879 0.000563879 0.000563792 0.000563792 0.000563641 0.000563641 0.000563338 0.000563338 0.000562657
0.000562657 0.000561046 0.000561046 0.000558191 0.000558191 0.000556227 0.000556227 0.00055586 0.00055586
0.000555735 0.000555735
        </DataArray>
        <DataArray type='Float32' Name='omega' format='ascii'>
57038.6 43873.1 43873.1 57038.6 25260.3 25260.3 16816.3 16816.3 11136.9
11136.9 6193.16 6193.16 2818.34 2818.34 1287.7 1287.7 696.628 696.628
452.674 452.674 355.601 355.601 317.124 317.124 300.959 300.959 294.126
294.126 291.274 291.274 290.081 290.081 289.547 289.547 289.258 289.258
289.056 289.056 288.881 288.881 288.714 288.714 288.549 288.549 288.385
288.385 288.22 288.22 288.053 288.053 287.883 287.883 287.708 287.708
287.528 287.528 287.345 287.345 287.158 287.158 286.97 286.97 286.782
286.782 286.594 286.594 286.408 286.408 286.224 286.224 286.042 286.042
285.863 285.863 285.688 285.688 285.515 285.515 285.347 285.347 285.183
285.183 285.023 285.023 284.868 284.868 284.717 284.717 284.57 284.57
284.428 284.428 284.29 284.29 284.157 284.157 284.027 284.027 283.902
283.902 283.782 283.782 283.665 283.665 283.551 283.551 283.442 283.442
283.336 283.336 283.234 283.234 283.135 283.135 283.039 283.039 282.946
282.946 282.856 282.856 282.769 282.769 282.685 282.685 282.603 282.603
282.524 282.524 282.446 282.446 282.371 282.371 282.298 282.298 282.226
282.226 282.156 282.156 282.088 282.088 282.022 282.022 281.956 281.956
281.892 281.892 281.83 281.83 281.768 281.768 281.707 281.707 281.647
281.647 281.588 281.588 281.529 281.529 281.471 281.471 281.414 281.414
281.357 281.357 281.301 281.301 281.244 281.244 281.188 281.188 281.133
281.133 281.077 281.077 281.021 281.021 280.966 280.966 280.91 280.91
280.854 280.854 280.799 280.799 280.743 280.743 280.686 280.686 280.63
280.63 280.573 280.573 280.516 280.516 280.458 280.458 280.4 280.4
280.341 280.341 280.282 280.282 280.221 280.221 280.161 280.161 280.099
280.099 280.038 280.038 279.975 279.975 279.912 279.912 279.848 279.848
279.783 279.783 279.717 279.717 279.651 279.651 279.584 279.584 279.516
279.516 279.447 279.447 279.377 279.377 279.307 279.307 279.235 279.235
279.163 279.163 279.09 279.09 279.016 279.016 278.941 278.941 278.866
278.866 278.789 278.789 278.712 278.712 278.633 278.633 278.554 278.554
278.475 278.475 278.394 278.394 278.312 278.312 278.23 278.23 278.148
278.148 278.064 278.064 277.98 277.98 277.895 277.895 277.809 277.809
277.723 277.723 277.636 277.636 277.549 277.549 277.461 277.461 277.372
277.372 277.283 277.283 277.193 277.193 277.103 277.103 277.012 277.012
276.921 276.921 276.83 276.83 276.738 276.738 276.646 276.646 276.554
276.554 276.462 276.462 276.369 276.369 276.277 276.277 276.184 276.184
276.091 276.091 275.998 275.998 275.906 275.906 275.813 275.813 275.72
275.72 275.628 275.628 275.535 275.535 275.443 275.443 275.351 275.351
275.26 275.26 275.169 275.169 275.078 275.078 274.988 274.988 274.9
274.9 274.812 274.812 274.726 274.726 274.643 274.643 274.564 274.564
274.493 274.493 274.436 274.436 274.408 274.408 274.446 274.446 274.65
274.65 275.263 275.263 276.437 276.437 277.215 277.215 277.16 277.16
277.051 277.051
        </DataArray>
        <DataArray type='Float32' Name='p' format='ascii'>
0 0 0 0 0 0 0 0 0
0 0 0 0 0 0 0 0 0
0 0 0 0 0 0 0 0 0
0 0 0 0 0 0 0 0 0
0 0 0 0 0 0 0 0 0
0 0 0 0 0 0 0 0 0
0 0 0 0 0 0 0 0 0
0 0 0 0 0 0 0 0 0
0 0 0 0 0 0 0 0 0
0 0 0 0 0 0 0 0 0
0 0 0 0 0 0 0 0 0
0 0 0 0 0 0 0 0 0
0 0 0 0 0 0 0 0 0
0 0 0 0 0 0 0 0 0
0 0 0 0 0 0 0 0 0
0 0 0 0 0 0 0 0 0
0 0 0 0 0 0 0 0 0
0 0 0 0 0 0 0 0 0
0 0 0 0 0 0 0 0 0
0 0 0 0 0 0 0 0 0
0 0 0 0 0 0 0 0 0
0 0 0 0 0 0 0 0 0
0 0 0 0 0 0 0 0 0
0 0 0 0 0 0 0 0 0
0 0 0 0 0 0 0 0 0
0 0 0 0 0 0 0 0 0
0 0 0 0 0 0 0 0 0
0 0 0 0 0 0 0 0 0
0 0 0 0 0 0 0 0 0
0 0 0 0 0 0 0 0 0
0 0 0 0 0 0 0 0 0
0 0 0 0 0 0 0 0 0
0 0 0 0 0 0 0 0 0
0 0 0 0 0 0 0 0 0
0 0 0 0 0 0 0 0 0
0 0 0 0 0 0 0 0 0
0 0 0 0 0 0 0 0 0
0 0 0 0 0 0 0 0 0
0 0 0 0 0 0 0 0 0
0 0 0 0 0 0 0 0 0
0 0
        </DataArray>
        <DataArray type='Float32' Name='U' NumberOfComponents='3' format='ascii'>
19.3172 -0.00272762 2.4048e-23 22.3618 -0.00386086 1.55359e-23 22.3618 -0.00386086 1.55359e-23
19.3172 -0.00272762 2.4048e-23 27.1851 -0.0064598 -5.33996e-24 27.1851 -0.0064598 -5.33996e-24
30.3037 -0.00958599 -9.86683e-24 30.3037 -0.00958599 -9.86683e-24 32.5024 -0.0131648 -9.0111e-24
32.5024 -0.0131648 -9.0111e-24 33.7478 -0.0170808 -4.28372e-24 33.7478 -0.0170808 -4.28372e-24
34.2636 -0.0209262 6.34965e-24 34.2636 -0.0209262 6.34965e-24 34.4338 -0.02441 -2.8617e-24
34.4338 -0.02441 -2.8617e-24 34.4882 -0.0274867 3.68414e-25 34.4882 -0.0274867 3.68414e-25
34.5063 -0.0302835 4.80005e-26 34.5063 -0.0302835 4.80005e-26 34.5116 -0.0329984 -1.96583e-24
34.5116 -0.0329984 -1.96583e-24 34.5112 -0.0357441 5.66507e-24 34.5112 -0.0357441 5.66507e-24
34.5072 -0.0385587 3.39603e-24 34.5072 -0.0385587 3.39603e-24 34.5006 -0.0414764 2.1178e-24
34.5006 -0.0414764 2.1178e-24 34.4922 -0.0445217 4.16614e-24 34.4922 -0.0445217 4.16614e-24
34.4824 -0.0477 5.83035e-24 34.4824 -0.0477 5.83035e-24 34.4715 -0.051016 4.55081e-24
34.4715 -0.051016 4.55081e-24 34.46 -0.0544787 9.21692e-25 34.46 -0.0544787 9.21692e-25
34.448 -0.058093 6.20437e-24 34.448 -0.058093 6.20437e-24 34.4357 -0.0618591 1.10243e-23
34.4357 -0.0618591 1.10243e-23 34.4232 -0.0657777 8.96015e-24 34.4232 -0.0657777 8.96015e-24
34.4105 -0.0698494 1.04868e-23 34.4105 -0.0698494 1.04868e-23 34.3977 -0.0740742 5.82985e-24
34.3977 -0.0740742 5.82985e-24 34.3848 -0.0784512 -5.5875e-24 34.3848 -0.0784512 -5.5875e-24
34.372 -0.0829807 -1.05104e-23 34.372 -0.0829807 -1.05104e-23 34.3591 -0.0876636 -5.62214e-24
34.3591 -0.0876636 -5.62214e-24 34.3462 -0.0924996 -9.49759e-24 34.3462 -0.0924996 -9.49759e-24
34.3333 -0.0974877 -4.26504e-24 34.3333 -0.0974877 -4.26504e-24 34.3206 -0.102627 1.56271e-27
34.3206 -0.102627 1.56271e-27 34.3079 -0.107916 -5.13738e-24 34.3079 -0.107916 -5.13738e-24
34.2954 -0.113355 2.44829e-24 34.2954 -0.113355 2.44829e-24 34.283 -0.118942 -2.32808e-24
34.283 -0.118942 -2.32808e-24 34.2708 -0.124675 -1.39668e-23 34.2708 -0.124675 -1.39668e-23
34.2587 -0.130552 1.81095e-24 34.2587 -0.130552 1.81095e-24 34.2469 -0.136573 1.11399e-23
34.2469 -0.136573 1.11399e-23 34.2353 -0.142735 -1.35348e-24 34.2353 -0.142735 -1.35348e-24
34.2239 -0.149036 -3.93098e-24 34.2239 -0.149036 -3.93098e-24 34.2128 -0.155474 -1.8652e-24
34.2128 -0.155474 -1.8652e-24 34.2019 -0.162047 5.49081e-24 34.2019 -0.162047 5.49081e-24
34.1914 -0.168752 1.32378e-23 34.1914 -0.168752 1.32378e-23 34.1811 -0.175588 1.37735e-23
34.1811 -0.175588 1.37735e-23 34.1711 -0.182552 9.00781e-24 34.1711 -0.182552 9.00781e-24
34.1615 -0.189641 -1.13132e-24 34.1615 -0.189641 -1.13132e-24 34.1521 -0.196854 -1.2397e-24
34.1521 -0.196854 -1.2397e-24 34.1431 -0.204188 -5.40626e-24 34.1431 -0.204188 -5.40626e-24
34.1344 -0.21164 -8.04518e-24 34.1344 -0.21164 -8.04518e-24 34.1261 -0.219208 -3.42654e-24
34.1261 -0.219208 -3.42654e-24 34.1181 -0.22689 -7.59668e-24 34.1181 -0.22689 -7.59668e-24
34.1104 -0.234684 1.02496e-23 34.1104 -0.234684 1.02496e-23 34.1031 -0.242586 1.2305e-23
34.1031 -0.242586 1.2305e-23 34.0961 -0.250597 -1.54854e-23 34.0961 -0.250597 -1.54854e-23
34.0895 -0.258712 -1.86156e-23 34.0895 -0.258712 -1.86156e-23 34.0833 -0.266931 -5.78187e-24
34.0833 -0.266931 -5.78187e-24 34.0774 -0.27525 4.0333e-24 34.0774 -0.27525 4.0333e-24
34.0718 -0.283669 1.28318e-23 34.0718 -0.283669 1.28318e-23 34.0667 -0.292185 4.26089e-24
34.0667 -0.292185 4.26089e-24 34.0618 -0.300797 -7.45585e-25 34.0618 -0.300797 -7.45585e-25
34.0574 -0.309503 -3.82763e-24 34.0574 -0.309503 -3.82763e-24 34.0533 -0.318303 -1.53421e-23
34.0533 -0.318303 -1.53421e-23 34.0496 -0.327192 -6.49313e-24 34.0496 -0.327192 -6.49313e-24
34.0462 -0.33617 -5.54228e-25 34.0462 -0.33617 -5.54228e-25 34.0432 -0.345233 9.62623e-24
34.0432 -0.345233 9.62623e-24 34.0405 -0.354377 1.34434e-23 34.0405 -0.354377 1.34434e-23
34.0382 -0.3636 1.01643e-24 34.0382 -0.3636 1.01643e-24 34.0363 -0.372899 8.48839e-25
34.0363 -0.372899 8.48839e-25 34.0347 -0.38227 1.08532e-23 34.0347 -0.38227 1.08532e-23
34.0335 -0.39171 1.15332e-23 34.0335 -0.39171 1.15332e-23 34.0326 -0.401216 4.51811e-24
34.0326 -0.401216 4.51811e-24 34.0321 -0.410785 -1.46518e-23 34.0321 -0.410785 -1.46518e-23
34.0319 -0.420415 -1.09461e-23 34.0319 -0.420415 -1.09461e-23 34.032 -0.430105 2.79061e-23
34.032 -0.430105 2.79061e-23 34.0325 -0.439848 3.19841e-23 34.0325 -0.439848 3.19841e-23
34.0334 -0.44964 8.73332e-25 34.0334 -0.44964 8.73332e-25 34.0346 -0.45948 -2.16187e-23
34.0346 -0.45948 -2.16187e-23 34.0361 -0.469364 -1.14175e-23 34.0361 -0.469364 -1.14175e-23
34.0379 -0.479287 1.17033e-23 34.0379 -0.479287 1.17033e-23 34.0401 -0.489244 4.88216e-24
34.0401 -0.489244 4.88216e-24 34.0426 -0.49923 -1.18543e-23 34.0426 -0.49923 -1.18543e-23
34.0455 -0.509239 -2.51947e-23 34.0455 -0.509239 -2.51947e-23 34.0487 -0.519266 -2.4519e-23
34.0487 -0.519266 -2.4519e-23 34.0521 -0.529305 -1.81409e-24 34.0521 -0.529305 -1.81409e-24
34.056 -0.539351 1.44196e-23 34.056 -0.539351 1.44196e-23 34.0601 -0.549401 -5.19097e-24
34.0601 -0.549401 -5.19097e-24 34.0645 -0.55945 -2.20607e-23 34.0645 -0.55945 -2.20607e-23
34.0693 -0.569492 -4.47268e-24 34.0693 -0.569492 -4.47268e-24 34.0744 -0.579517 2.3709e-24
34.0744 -0.579517 2.3709e-24 34.0798 -0.589521 3.93984e-24 34.0798 -0.589521 3.93984e-24
34.0855 -0.599495 1.57554e-23 34.0855 -0.599495 1.57554e-23 34.0915 -0.609435 8.75997e-24
34.0915 -0.609435 8.75997e-24 34.0979 -0.619335 3.70284e-24 34.0979 -0.619335 3.70284e-24
34.1045 -0.629186 -3.1186e-25 34.1045 -0.629186 -3.1186e-25 34.1114 -0.63898 8.04003e-24
34.1114 -0.63898 8.04003e-24 34.1187 -0.648709 1.58499e-23 34.1187 -0.648709 1.58499e-23
34.1262 -0.658362 -6.45568e-24 34.1262 -0.658362 -6.45568e-24 34.134 -0.667931 -1.30197e-23
34.134 -0.667931 -1.30197e-23 34.1422 -0.677407 5.87715e-24 34.1422 -0.677407 5.87715e-24
34.1506 -0.686781 2.6971e-24 34.1506 -0.686781 2.6971e-24 34.1593 -0.696045 -2.21387e-24
34.1593 -0.696045 -2.21387e-24 34.1683 -0.705188 1.86001e-23 34.1683 -0.705188 1.86001e-23
34.1776 -0.714202 2.51168e-23 34.1776 -0.714202 2.51168e-23 34.1871 -0.723078 7.6848e-25
34.1871 -0.723078 7.6848e-25 34.197 -0.731807 -1.60134e-23 34.197 -0.731807 -1.60134e-23
34.2071 -0.740375 -8.47518e-24 34.2071 -0.740375 -8.47518e-24 34.2175 -0.748773 -1.99265e-23
34.2175 -0.748773 -1.99265e-23 34.2281 -0.756987 -1.85176e-23 34.2281 -0.756987 -1.85176e-23
34.2391 -0.765008 -1.23489e-23 34.2391 -0.765008 -1.23489e-23 34.2503 -0.772824 -2.10967e-23
34.2503 -0.772824 -2.10967e-23 34.2617 -0.780421 -8.27486e-24 34.2617 -0.780421 -8.27486e-24
34.2734 -0.787789 -3.34001e-24 34.2734 -0.787789 -3.34001e-24 34.2853 -0.794915 -7.73011e-24
34.2853 -0.794915 -7.73011e-24 34.2975 -0.801787 -4.15181e-24 34.2975 -0.801787 -4.15181e-24
34.31 -0.808392 -4.38965e-24 34.31 -0.808392 -4.38965e-24 34.3226 -0.814718 7.05063e-25
34.3226 -0.814718 7.05063e-25 34.3355 -0.820753 -3.0132e-24 34.3355 -0.820753 -3.0132e-24
34.3486 -0.826481 -1.13701e-23 34.3486 -0.826481 -1.13701e-23 34.3619 -0.831891 -1.10514e-23
34.3619 -0.831891 -1.10514e-23 34.3755 -0.83697 1.86106e-25 34.3755 -0.83697 1.86106e-25
34.3892 -0.8417 -2.25699e-24 34.3892 -0.8417 -2.25699e-24 34.4031 -0.84607 3.14753e-24
34.4031 -0.84607 3.14753e-24 34.4172 -0.850072 2.64058e-24 34.4172 -0.850072 2.64058e-24
34.4315 -0.853696 -6.419e-24 34.4315 -0.853696 -6.419e-24 34.4459 -0.856924 -2.31938e-24
34.4459 -0.856924 -2.31938e-24 34.4605 -0.859741 -7.27775e-24 34.4605 -0.859741 -7.27775e-24
34.4753 -0.862135 -2.38065e-24 34.4753 -0.862135 -2.38065e-24 34.4902 -0.864093 3.55386e-24
34.4902 -0.864093 3.55386e-24 34.5052 -0.865603 2.44918e-24 34.5052 -0.865603 2.44918e-24
34.5204 -0.866652 -1.13022e-24 34.5204 -0.866652 -1.13022e-24 34.5356 -0.867226 -1.5315e-24
34.5356 -0.867226 -1.5315e-24 34.551 -0.867315 1.05524e-24 34.551 -0.867315 1.05524e-24
34.5665 -0.866907 1.13362e-25 34.5665 -0.866907 1.13362e-25 34.582 -0.86599 -8.13846e-25
34.582 -0.86599 -8.13846e-25 34.5976 -0.864552 -1.49239e-24 34.5976 -0.864552 -1.49239e-24
34.6133 -0.862582 9.48489e-25 34.6133 -0.862582 9.48489e-25 34.629 -0.860067 4.14908e-24
34.629 -0.860067 4.14908e-24 34.6447 -0.856998 1.67678e-24 34.6447 -0.856998 1.67678e-24
34.6605 -0.853364 -4.59604e-24 34.6605 -0.853364 -4.59604e-24 34.6763 -0.849154 -8.07094e-24
34.6763 -0.849154 -8.07094e-24 34.692 -0.844358 -1.14997e-24 34.692 -0.844358 -1.14997e-24
34.7078 -0.838963 -4.25545e-24 34.7078 -0.838963 -4.25545e-24 34.7235 -0.832962 1.68128e-24
34.7235 -0.832962 1.68128e-24 34.7392 -0.826347 7.61306e-24 34.7392 -0.826347 7.61306e-24
34.7549 -0.81911 -1.77341e-23 34.7549 -0.81911 -1.77341e-23 34.7705 -0.811245 -1.81008e-23
34.7705 -0.811245 -1.81008e-23 34.786 -0.802745 -1.80087e-23 34.786 -0.802745 -1.80087e-23
34.8014 -0.7936 -2.40925e-23 34.8014 -0.7936 -2.40925e-23 34.8167 -0.783799 -2.86068e-23
34.8167 -0.783799 -2.86068e-23 34.8319 -0.773335 -4.33648e-23 34.8319 -0.773335 -4.33648e-23
34.847 -0.762203 -3.20972e-23 34.847 -0.762203 -3.20972e-23 34.862 -0.750398 -1.31473e-23
34.862 -0.750398 -1.31473e-23 34.8768 -0.737912 -2.38702e-24 34.8768 -0.737912 -2.38702e-24
34.8914 -0.724743 4.40652e-24 34.8914 -0.724743 4.40652e-24 34.9059 -0.71089 -1.97925e-23
34.9059 -0.71089 -1.97925e-23 34.9201 -0.696345 -3.57553e-23 34.9201 -0.696345 -3.57553e-23
34.9342 -0.681101 -8.28228e-24 34.9342 -0.681101 -8.28228e-24 34.9481 -0.665153 2.82116e-23
34.9481 -0.665153 2.82116e-23 34.9617 -0.648497 2.19208e-23 34.9617 -0.648497 2.19208e-23
34.9751 -0.631129 2.50742e-23 34.9751 -0.631129 2.50742e-23 34.9882 -0.613047 5.99362e-23
34.9882 -0.613047 5.99362e-23 35.0011 -0.594248 5.46554e-23 35.0011 -0.594248 5.46554e-23
35.0138 -0.574732 -1.89073e-23 35.0138 -0.574732 -1.89073e-23 35.0261 -0.554501 -2.82544e-23
35.0261 -0.554501 -2.82544e-23 35.0381 -0.533552 1.27476e-23 35.0381 -0.533552 1.27476e-23
35.0498 -0.511883 -2.23154e-23 35.0498 -0.511883 -2.23154e-23 35.0612 -0.489493 -5.98684e-23
35.0612 -0.489493 -5.98684e-23 35.0722 -0.46638 -3.23212e-23 35.0722 -0.46638 -3.23212e-23
35.0829 -0.442542 -1.04241e-23 35.0829 -0.442542 -1.04241e-23 35.0932 -0.41798 -6.60752e-23
35.0932 -0.41798 -6.60752e-23 35.1032 -0.392692 -9.1218e-23 35.1032 -0.392692 -9.1218e-23
35.1127 -0.36668 -1.46013e-23 35.1127 -0.36668 -1.46013e-23 35.1218 -0.339944 4.19913e-23
35.1218 -0.339944 4.19913e-23 35.1305 -0.312483 6.81936e-23 35.1305 -0.312483 6.81936e-23
35.1387 -0.284301 -1.4218e-23 35.1387 -0.284301 -1.4218e-23 35.1465 -0.255395 -1.39506e-22
35.1465 -0.255395 -1.39506e-22 35.1537 -0.225817 -5.82135e-23 35.1537 -0.225817 -5.82135e-23
35.1605 -0.195373 -6.77275e-23 35.1605 -0.195373 -6.77275e-23 35.1667 -0.164468 -8.82583e-23
35.1667 -0.164468 -8.82583e-23 35.1724 -0.132776 5.931e-23 35.1724 -0.132776 5.931e-23
35.1774 -0.100165 3.9204e-23 35.1774 -0.100165 3.9204e-23 35.1793 -0.0669864 -3.89892e-23
35.1793 -0.0669864 -3.89892e-23 35.1669 -0.0333587 4.27291e-24 35.1669 -0.0333587 4.27291e-24
35.1549 -0.016577 3.57326e-23 35.1549 -0.016577 3.57326e-23
        </DataArray>
      </PointData>
    </Piece>
  </PolyData>
</VTKFile>
