<?xml version='1.0'?>
<!-- patch='inlet' time='0' index='0' -->
<VTKFile type='PolyData' version='0.1' byte_order='LittleEndian' header_type='UInt64'>
  <PolyData>
    <FieldData>
      <DataArray type='Float32' Name='TimeValue' NumberOfTuples='1' format='ascii'>
0
      </DataArray>
    </FieldData>
    <Piece NumberOfPoints='362' NumberOfPolys='180'>
      <Points>
        <DataArray type='Float32' Name='Points' NumberOfComponents='3' format='ascii'>
-0.9 0 -0.01 -0.9 0 0.01 -0.9 0.000438104 0.01
-0.9 0.000438104 -0.01 -0.9 0.000882333 0.01 -0.9 0.000882333 -0.01
-0.9 0.00133277 0.01 -0.9 0.00133277 -0.01 -0.9 0.00178951 0.01
-0.9 0.00178951 -0.01 -0.9 0.00225263 0.01 -0.9 0.00225263 -0.01
-0.9 0.00272222 0.01 -0.9 0.00272222 -0.01 -0.9 0.00319838 0.01
-0.9 0.00319838 -0.01 -0.9 0.00368119 0.01 -0.9 0.00368119 -0.01
-0.9 0.00417076 0.01 -0.9 0.00417076 -0.01 -0.9 0.00466716 0.01
-0.9 0.00466716 -0.01 -0.9 0.00517051 0.01 -0.9 0.00517051 -0.01
-0.9 0.00568089 0.01 -0.9 0.00568089 -0.01 -0.9 0.00619841 0.01
-0.9 0.00619841 -0.01 -0.9 0.00672316 0.01 -0.9 0.00672316 -0.01
-0.9 0.00725525 0.01 -0.9 0.00725525 -0.01 -0.9 0.00779477 0.01
-0.9 0.00779477 -0.01 -0.9 0.00834184 0.01 -0.9 0.00834184 -0.01
-0.9 0.00889655 0.01 -0.9 0.00889655 -0.01 -0.9 0.00945902 0.01
-0.9 0.00945902 -0.01 -0.9 0.0100294 0.01 -0.9 0.0100294 -0.01
-0.9 0.0106077 0.01 -0.9 0.0106077 -0.01 -0.9 0.011194 0.01
-0.9 0.011194 -0.01 -0.9 0.0117886 0.01 -0.9 0.0117886 -0.01
-0.9 0.0123915 0.01 -0.9 0.0123915 -0.01 -0.9 0.0130029 0.01
-0.9 0.0130029 -0.01 -0.9 0.0136227 0.01 -0.9 0.0136227 -0.01
-0.9 0.0142513 0.01 -0.9 0.0142513 -0.01 -0.9 0.0148886 0.01
-0.9 0.0148886 -0.01 -0.9 0.0155348 0.01 -0.9 0.0155348 -0.01
-0.9 0.0161901 0.01 -0.9 0.0161901 -0.01 -0.9 0.0168545 0.01
-0.9 0.0168545 -0.01 -0.9 0.0175282 0.01 -0.9 0.0175282 -0.01
-0.9 0.0182113 0.01 -0.9 0.0182113 -0.01 -0.9 0.018904 0.01
-0.9 0.018904 -0.01 -0.9 0.0196064 0.01 -0.9 0.0196064 -0.01
-0.9 0.0203186 0.01 -0.9 0.0203186 -0.01 -0.9 0.0210407 0.01
-0.9 0.0210407 -0.01 -0.9 0.0217729 0.01 -0.9 0.0217729 -0.01
-0.9 0.0225154 0.01 -0.9 0.0225154 -0.01 -0.9 0.0232683 0.01
-0.9 0.0232683 -0.01 -0.9 0.0240316 0.01 -0.9 0.0240316 -0.01
-0.9 0.0248057 0.01 -0.9 0.0248057 -0.01 -0.9 0.0255905 0.01
-0.9 0.0255905 -0.01 -0.9 0.0263864 0.01 -0.9 0.0263864 -0.01
-0.9 0.0271933 0.01 -0.9 0.0271933 -0.01 -0.9 0.0280116 0.01
-0.9 0.0280116 -0.01 -0.9 0.0288412 0.01 -0.9 0.0288412 -0.01
-0.9 0.0296825 0.01 -0.9 0.0296825 -0.01 -0.9 0.0305355 0.01
-0.9 0.0305355 -0.01 -0.9 0.0314005 0.01 -0.9 0.0314005 -0.01
-0.9 0.0322776 0.01 -0.9 0.0322776 -0.01 -0.9 0.0331669 0.01
-0.9 0.0331669 -0.01 -0.9 0.0340686 0.01 -0.9 0.0340686 -0.01
-0.9 0.034983 0.01 -0.9 0.034983 -0.01 -0.9 0.0359101 0.01
-0.9 0.0359101 -0.01 -0.9 0.0368502 0.01 -0.9 0.0368502 -0.01
-0.9 0.0378034 0.01 -0.9 0.0378034 -0.01 -0.9 0.03877 0.01
-0.9 0.03877 -0.01 -0.9 0.03975 0.01 -0.9 0.03975 -0.01
-0.9 0.0407438 0.01 -0.9 0.0407438 -0.01 -0.9 0.0417515 0.01
-0.9 0.0417515 -0.01 -0.9 0.0427732 0.01 -0.9 0.0427732 -0.01
-0.9 0.0438092 0.01 -0.9 0.0438092 -0.01 -0.9 0.0448597 0.01
-0.9 0.0448597 -0.01 -0.9 0.0459249 0.01 -0.9 0.0459249 -0.01
-0.9 0.047005 0.01 -0.9 0.047005 -0.01 -0.9 0.0481002 0.01
-0.9 0.0481002 -0.01 -0.9 0.0492107 0.01 -0.9 0.0492107 -0.01
-0.9 0.0503367 0.01 -0.9 0.0503367 -0.01 -0.9 0.0514785 0.01
-0.9 0.0514785 -0.01 -0.9 0.0526362 0.01 -0.9 0.0526362 -0.01
-0.9 0.0538101 0.01 -0.9 0.0538101 -0.01 -0.9 0.0550004 0.01
-0.9 0.0550004 -0.01 -0.9 0.0562074 0.01 -0.9 0.0562074 -0.01
-0.9 0.0574312 0.01 -0.9 0.0574312 -0.01 -0.9 0.0586721 0.01
-0.9 0.0586721 -0.01 -0.9 0.0599304 0.01 -0.9 0.0599304 -0.01
-0.9 0.0612063 0.01 -0.9 0.0612063 -0.01 -0.9 0.0625 0.01
-0.9 0.0625 -0.01 -0.9 0.0638118 0.01 -0.9 0.0638118 -0.01
-0.9 0.0651419 0.01 -0.9 0.0651419 -0.01 -0.9 0.0664906 0.01
-0.9 0.0664906 -0.01 -0.9 0.0678582 0.01 -0.9 0.0678582 -0.01
-0.9 0.0692449 0.01 -0.9 0.0692449 -0.01 -0.9 0.070651 0.01
-0.9 0.070651 -0.01 -0.9 0.0720767 0.01 -0.9 0.0720767 -0.01
-0.9 0.0735224 0.01 -0.9 0.0735224 -0.01 -0.9 0.0749882 0.01
-0.9 0.0749882 -0.01 -0.9 0.0764746 0.01 -0.9 0.0764746 -0.01
-0.9 0.0779817 0.01 -0.9 0.0779817 -0.01 -0.9 0.07951 0.01
-0.9 0.07951 -0.01 -0.9 0.0810595 0.01 -0.9 0.0810595 -0.01
-0.9 0.0826308 0.01 -0.9 0.0826308 -0.01 -0.9 0.084224 0.01
-0.9 0.084224 -0.01 -0.9 0.0858394 0.01 -0.9 0.0858394 -0.01
-0.9 0.0874775 0.01 -0.9 0.0874775 -0.01 -0.9 0.0891384 0.01
-0.9 0.0891384 -0.01 -0.9 0.0908226 0.01 -0.9 0.0908226 -0.01
-0.9 0.0925303 0.01 -0.9 0.0925303 -0.01 -0.9 0.0942619 0.01
-0.9 0.0942619 -0.01 -0.9 0.0960177 0.01 -0.9 0.0960177 -0.01
-0.9 0.097798 0.01 -0.9 0.097798 -0.01 -0.9 0.0996032 0.01
-0.9 0.0996032 -0.01 -0.9 0.101434 0.01 -0.9 0.101434 -0.01
-0.9 0.10329 0.01 -0.9 0.10329 -0.01 -0.9 0.105172 0.01
-0.9 0.105172 -0.01 -0.9 0.10708 0.01 -0.9 0.10708 -0.01
-0.9 0.109015 0.01 -0.9 0.109015 -0.01 -0.9 0.110977 0.01
-0.9 0.110977 -0.01 -0.9 0.112966 0.01 -0.9 0.112966 -0.01
-0.9 0.114984 0.01 -0.9 0.114984 -0.01 -0.9 0.117029 0.01
-0.9 0.117029 -0.01 -0.9 0.119103 0.01 -0.9 0.119103 -0.01
-0.9 0.121206 0.01 -0.9 0.121206 -0.01 -0.9 0.123339 0.01
-0.9 0.123339 -0.01 -0.9 0.125501 0.01 -0.9 0.125501 -0.01
-0.9 0.127693 0.01 -0.9 0.127693 -0.01 -0.9 0.129917 0.01
-0.9 0.129917 -0.01 -0.9 0.132171 0.01 -0.9 0.132171 -0.01
-0.9 0.134456 0.01 -0.9 0.134456 -0.01 -0.9 0.136774 0.01
-0.9 0.136774 -0.01 -0.9 0.139124 0.01 -0.9 0.139124 -0.01
-0.9 0.141507 0.01 -0.9 0.141507 -0.01 -0.9 0.143923 0.01
-0.9 0.143923 -0.01 -0.9 0.146373 0.01 -0.9 0.146373 -0.01
-0.9 0.148858 0.01 -0.9 0.148858 -0.01 -0.9 0.151377 0.01
-0.9 0.151377 -0.01 -0.9 0.153931 0.01 -0.9 0.153931 -0.01
-0.9 0.156521 0.01 -0.9 0.156521 -0.01 -0.9 0.159147 0.01
-0.9 0.159147 -0.01 -0.9 0.16181 0.01 -0.9 0.16181 -0.01
-0.9 0.16451 0.01 -0.9 0.16451 -0.01 -0.9 0.167247 0.01
-0.9 0.167247 -0.01 -0.9 0.170023 0.01 -0.9 0.170023 -0.01
-0.9 0.172838 0.01 -0.9 0.172838 -0.01 -0.9 0.175692 0.01
-0.9 0.175692 -0.01 -0.9 0.178587 0.01 -0.9 0.178587 -0.01
-0.9 0.181521 0.01 -0.9 0.181521 -0.01 -0.9 0.184497 0.01
-0.9 0.184497 -0.01 -0.9 0.187514 0.01 -0.9 0.187514 -0.01
-0.9 0.190573 0.01 -0.9 0.190573 -0.01 -0.9 0.193675 0.01
-0.9 0.193675 -0.01 -0.9 0.196821 0.01 -0.9 0.196821 -0.01
-0.9 0.20001 0.01 -0.9 0.20001 -0.01 -0.9 0.203244 0.01
-0.9 0.203244 -0.01 -0.9 0.206524 0.01 -0.9 0.206524 -0.01
-0.9 0.209849 0.01 -0.9 0.209849 -0.01 -0.9 0.21322 0.01
-0.9 0.21322 -0.01 -0.9 0.216639 0.01 -0.9 0.216639 -0.01
-0.9 0.220105 0.01 -0.9 0.220105 -0.01 -0.9 0.22362 0.01
-0.9 0.22362 -0.01 -0.9 0.227185 0.01 -0.9 0.227185 -0.01
-0.9 0.230798 0.01 -0.9 0.230798 -0.01 -0.9 0.234463 0.01
-0.9 0.234463 -0.01 -0.9 0.238179 0.01 -0.9 0.238179 -0.01
-0.9 0.241946 0.01 -0.9 0.241946 -0.01 -0.9 0.245766 0.01
-0.9 0.245766 -0.01 -0.9 0.24964 0.01 -0.9 0.24964 -0.01
-0.9 0.253568 0.01 -0.9 0.253568 -0.01 -0.9 0.257551 0.01
-0.9 0.257551 -0.01 -0.9 0.261589 0.01 -0.9 0.261589 -0.01
-0.9 0.265684 0.01 -0.9 0.265684 -0.01 -0.9 0.269836 0.01
-0.9 0.269836 -0.01 -0.9 0.274046 0.01 -0.9 0.274046 -0.01
-0.9 0.278315 0.01 -0.9 0.278315 -0.01 -0.9 0.282644 0.01
-0.9 0.282644 -0.01 -0.9 0.287033 0.01 -0.9 0.287033 -0.01
-0.9 0.291483 0.01 -0.9 0.291483 -0.01 -0.9 0.295996 0.01
-0.9 0.295996 -0.01 -0.9 0.300572 0.01 -0.9 0.300572 -0.01
-0.9 0.305212 0.01 -0.9 0.305212 -0.01 -0.9 0.309916 0.01
-0.9 0.309916 -0.01 -0.9 0.314687 0.01 -0.9 0.314687 -0.01
-0.9 0.319524 0.01 -0.9 0.319524 -0.01 -0.9 0.324429 0.01
-0.9 0.324429 -0.01 -0.9 0.329402 0.01 -0.9 0.329402 -0.01
-0.9 0.334445 0.01 -0.9 0.334445 -0.01 -0.9 0.339558 0.01
-0.9 0.339558 -0.01 -0.9 0.344743 0.01 -0.9 0.344743 -0.01
-0.9 0.35 0.01 -0.9 0.35 -0.01
        </DataArray>
      </Points>
      <Polys>
        <DataArray type='Int32' Name='connectivity' format='ascii'>
0 1 2 3 3 2 4 5 5
4 6 7 7 6 8 9 9 8
10 11 11 10 12 13 13 12 14
15 15 14 16 17 17 16 18 19
19 18 20 21 21 20 22 23 23
22 24 25 25 24 26 27 27 26
28 29 29 28 30 31 31 30 32
33 33 32 34 35 35 34 36 37
37 36 38 39 39 38 40 41 41
40 42 43 43 42 44 45 45 44
46 47 47 46 48 49 49 48 50
51 51 50 52 53 53 52 54 55
55 54 56 57 57 56 58 59 59
58 60 61 61 60 62 63 63 62
64 65 65 64 66 67 67 66 68
69 69 68 70 71 71 70 72 73
73 72 74 75 75 74 76 77 77
76 78 79 79 78 80 81 81 80
82 83 83 82 84 85 85 84 86
87 87 86 88 89 89 88 90 91
91 90 92 93 93 92 94 95 95
94 96 97 97 96 98 99 99 98
100 101 101 100 102 103 103 102 104
105 105 104 106 107 107 106 108 109
109 108 110 111 111 110 112 113 113
112 114 115 115 114 116 117 117 116
118 119 119 118 120 121 121 120 122
123 123 122 124 125 125 124 126 127
127 126 128 129 129 128 130 131 131
130 132 133 133 132 134 135 135 134
136 137 137 136 138 139 139 138 140
141 141 140 142 143 143 142 144 145
145 144 146 147 147 146 148 149 149
148 150 151 151 150 152 153 153 152
154 155 155 154 156 157 157 156 158
159 159 158 160 161 161 160 162 163
163 162 164 165 165 164 166 167 167
166 168 169 169 168 170 171 171 170
172 173 173 172 174 175 175 174 176
177 177 176 178 179 179 178 180 181
181 180 182 183 183 182 184 185 185
184 186 187 187 186 188 189 189 188
190 191 191 190 192 193 193 192 194
195 195 194 196 197 197 196 198 199
199 198 200 201 201 200 202 203 203
202 204 205 205 204 206 207 207 206
208 209 209 208 210 211 211 210 212
213 213 212 214 215 215 214 216 217
217 216 218 219 219 218 220 221 221
220 222 223 223 222 224 225 225 224
226 227 227 226 228 229 229 228 230
231 231 230 232 233 233 232 234 235
235 234 236 237 237 236 238 239 239
238 240 241 241 240 242 243 243 242
244 245 245 244 246 247 247 246 248
249 249 248 250 251 251 250 252 253
253 252 254 255 255 254 256 257 257
256 258 259 259 258 260 261 261 260
262 263 263 262 264 265 265 264 266
267 267 266 268 269 269 268 270 271
271 270 272 273 273 272 274 275 275
274 276 277 277 276 278 279 279 278
280 281 281 280 282 283 283 282 284
285 285 284 286 287 287 286 288 289
289 288 290 291 291 290 292 293 293
292 294 295 295 294 296 297 297 296
298 299 299 298 300 301 301 300 302
303 303 302 304 305 305 304 306 307
307 306 308 309 309 308 310 311 311
310 312 313 313 312 314 315 315 314
316 317 317 316 318 319 319 318 320
321 321 320 322 323 323 322 324 325
325 324 326 327 327 326 328 329 329
328 330 331 331 330 332 333 333 332
334 335 335 334 336 337 337 336 338
339 339 338 340 341 341 340 342 343
343 342 344 345 345 344 346 347 347
346 348 349 349 348 350 351 351 350
352 353 353 352 354 355 355 354 356
357 357 356 358 359 359 358 360 361
        </DataArray>
        <DataArray type='Int32' Name='offsets' format='ascii'>
4 8 12 16 20 24 28 32 36
40 44 48 52 56 60 64 68 72
76 80 84 88 92 96 100 104 108
112 116 120 124 128 132 136 140 144
148 152 156 160 164 168 172 176 180
184 188 192 196 200 204 208 212 216
220 224 228 232 236 240 244 248 252
256 260 264 268 272 276 280 284 288
292 296 300 304 308 312 316 320 324
328 332 336 340 344 348 352 356 360
364 368 372 376 380 384 388 392 396
400 404 408 412 416 420 424 428 432
436 440 444 448 452 456 460 464 468
472 476 480 484 488 492 496 500 504
508 512 516 520 524 528 532 536 540
544 548 552 556 560 564 568 572 576
580 584 588 592 596 600 604 608 612
616 620 624 628 632 636 640 644 648
652 656 660 664 668 672 676 680 684
688 692 696 700 704 708 712 716 720
        </DataArray>
      </Polys>
      <CellData>
        <DataArray type='Float32' Name='Cx' format='ascii'>
-0.9 -0.9 -0.9 -0.9 -0.9 -0.9 -0.9 -0.9 -0.9
-0.9 -0.9 -0.9 -0.9 -0.9 -0.9 -0.9 -0.9 -0.9
-0.9 -0.9 -0.9 -0.9 -0.9 -0.9 -0.9 -0.9 -0.9
-0.9 -0.9 -0.9 -0.9 -0.9 -0.9 -0.9 -0.9 -0.9
-0.9 -0.9 -0.9 -0.9 -0.9 -0.9 -0.9 -0.9 -0.9
-0.9 -0.9 -0.9 -0.9 -0.9 -0.9 -0.9 -0.9 -0.9
-0.9 -0.9 -0.9 -0.9 -0.9 -0.9 -0.9 -0.9 -0.9
-0.9 -0.9 -0.9 -0.9 -0.9 -0.9 -0.9 -0.9 -0.9
-0.9 -0.9 -0.9 -0.9 -0.9 -0.9 -0.9 -0.9 -0.9
-0.9 -0.9 -0.9 -0.9 -0.9 -0.9 -0.9 -0.9 -0.9
-0.9 -0.9 -0.9 -0.9 -0.9 -0.9 -0.9 -0.9 -0.9
-0.9 -0.9 -0.9 -0.9 -0.9 -0.9 -0.9 -0.9 -0.9
-0.9 -0.9 -0.9 -0.9 -0.9 -0.9 -0.9 -0.9 -0.9
-0.9 -0.9 -0.9 -0.9 -0.9 -0.9 -0.9 -0.9 -0.9
-0.9 -0.9 -0.9 -0.9 -0.9 -0.9 -0.9 -0.9 -0.9
-0.9 -0.9 -0.9 -0.9 -0.9 -0.9 -0.9 -0.9 -0.9
-0.9 -0.9 -0.9 -0.9 -0.9 -0.9 -0.9 -0.9 -0.9
-0.9 -0.9 -0.9 -0.9 -0.9 -0.9 -0.9 -0.9 -0.9
-0.9 -0.9 -0.9 -0.9 -0.9 -0.9 -0.9 -0.9 -0.9
-0.9 -0.9 -0.9 -0.9 -0.9 -0.9 -0.9 -0.9 -0.9
        </DataArray>
        <DataArray type='Float32' Name='Cy' format='ascii'>
0.000219052 0.000660218 0.00110755 0.00156114 0.00202107 0.00248742 0.0029603 0.00343978 0.00392597
0.00441896 0.00491884 0.0054257 0.00593965 0.00646078 0.0069892 0.00752501 0.00806831 0.0086192
0.00917779 0.00974419 0.0103185 0.0109009 0.0114913 0.0120901 0.0126972 0.0133128 0.013937
0.0145699 0.0152117 0.0158624 0.0165223 0.0171914 0.0178698 0.0185577 0.0192552 0.0199625
0.0206796 0.0214068 0.0221442 0.0228918 0.0236499 0.0244186 0.0251981 0.0259884 0.0267898
0.0276024 0.0284264 0.0292619 0.030109 0.030968 0.031839 0.0327222 0.0336177 0.0345258
0.0354465 0.0363801 0.0373268 0.0382867 0.03926 0.0402469 0.0412476 0.0422623 0.0432912
0.0443345 0.0453923 0.046465 0.0475526 0.0486555 0.0497737 0.0509076 0.0520574 0.0532232
0.0544053 0.0556039 0.0568193 0.0580517 0.0593013 0.0605684 0.0618531 0.0631559 0.0644769
0.0658163 0.0671744 0.0685516 0.0699479 0.0713638 0.0727995 0.0742553 0.0757314 0.0772282
0.0787458 0.0802847 0.0818451 0.0834274 0.0850317 0.0866584 0.0883079 0.0899805 0.0916764
0.0933961 0.0951398 0.0969078 0.0987006 0.100518 0.102362 0.104231 0.106126 0.108047
0.109996 0.111972 0.113975 0.116006 0.118066 0.120155 0.122272 0.12442 0.126597
0.128805 0.131044 0.133314 0.135615 0.137949 0.140316 0.142715 0.145148 0.147615
0.150117 0.152654 0.155226 0.157834 0.160478 0.16316 0.165879 0.168635 0.171431
0.174265 0.17714 0.180054 0.183009 0.186005 0.189044 0.192124 0.195248 0.198416
0.201627 0.204884 0.208186 0.211535 0.21493 0.218372 0.221863 0.225402 0.228991
0.232631 0.236321 0.240062 0.243856 0.247703 0.251604 0.255559 0.25957 0.263636
0.26776 0.271941 0.276181 0.280479 0.284838 0.289258 0.29374 0.298284 0.302892
0.307564 0.312302 0.317105 0.321976 0.326915 0.331923 0.337001 0.34215 0.347371
        </DataArray>
        <DataArray type='Float32' Name='Cz' format='ascii'>
6.60037e-20 -3.46945e-20 -4.44886e-20 -9.26488e-20 5.10386e-20 -3.46945e-20 6.72211e-20 -4.38318e-20 -6.17285e-20
3.64025e-20 -8.40067e-21 7.76745e-20 -6.02683e-20 -6.83228e-20 -7.61504e-20 7.97818e-20 -1.85662e-20 5.0704e-21
-1.11645e-20 -5.01649e-20 -1.18088e-20 1.79693e-20 -7.17928e-20 -5.42493e-21 -3.46945e-20 1.2188e-19 4.95323e-20
4.83712e-20 4.7226e-20 -7.509e-20 1.2466e-19 -8.50153e-21 1.20297e-19 6.72084e-20 -3.46945e-20 -1.09029e-19
9.97065e-20 -7.08439e-20 -7.03456e-20 1.05944e-19 -5.78111e-20 -1.18966e-20 1.00207e-19 5.40001e-20 9.04142e-21
-8.86106e-20 3.97476e-20 5.96972e-20 -1.27785e-19 -4.09214e-21 -6.48749e-20 -6.44588e-20 -5.34044e-21 8.11029e-20
-7.27615e-20 9.67032e-20 3.93548e-20 1.11362e-19 2.83244e-20 -3.46945e-20 3.5355e-20 7.75666e-20 -1.76616e-20
1.56996e-20 1.50048e-20 7.96719e-20 1.3644e-20 -1.88038e-20 -7.38735e-20 8.12221e-20 -2.70732e-20 1.04025e-20
6.90812e-20 5.30298e-20 -1.21209e-19 1.2173e-19 1.61646e-19 -1.31511e-19 7.44279e-20 4.6019e-20 -6.12281e-20
1.4848e-19 -3.46945e-20 1.05287e-19 -1.35096e-19 1.13832e-19 -1.44553e-19 8.5688e-20 1.4339e-19 1.17517e-19
1.38513e-19 6.77976e-20 1.02296e-20 4.28387e-20 7.45403e-20 -1.31487e-20 -1.30314e-19 -1.0804e-19 -8.63617e-20
3.66424e-20 -3.46945e-20 -2.47825e-20 1.02159e-19 -1.11819e-19 4.13664e-20 1.05954e-19 -3.46945e-20 7.47429e-20
-8.86588e-20 7.85769e-22 -6.96856e-20 -6.0576e-20 -3.46945e-20 -8.50401e-20 3.97829e-20 -1.83721e-20 -5.07918e-20
-1.88191e-20 4.4469e-21 -4.24148e-20 -1.94666e-20 -3.46945e-20 -7.9127e-20 5.29456e-20 -1.06721e-19 6.47525e-20
-1.60792e-19 1.173e-19 1.28832e-19 -1.2877e-19 -2.14404e-20 -1.39265e-19 3.9789e-21 1.17866e-19 9.06869e-20
-4.70597e-20 -8.34737e-20 1.21652e-19 1.07636e-19 -5.80892e-20 3.45222e-20 -1.02957e-19 3.26268e-20 3.16987e-20
-5.65204e-20 -4.5457e-20 -1.08994e-19 1.22323e-19 2.72466e-20 -1.26325e-19 4.56322e-20 -3.46945e-20 4.3691e-21
5.19868e-20 4.12934e-20 -1.59594e-20 -7.1648e-20 9.28599e-20 -8.8607e-20 9.61324e-21 1.05136e-19 -6.917e-20
-3.46945e-20 6.59001e-20 -9.89252e-21 -7.54612e-20 -9.0981e-20 -8.2275e-20 4.35131e-20 2.7009e-20 2.61584e-20
1.78177e-20 3.92887e-20 9.08347e-21 2.28714e-20 -4.88875e-20 1.33274e-19 8.95453e-20 -2.10804e-20 -2.1268e-20
        </DataArray>
        <DataArray type='Float32' Name='k' format='ascii'>
0.179574 0.179574 0.179574 0.179574 0.179574 0.179574 0.179574 0.179574 0.179574
0.179574 0.179574 0.179574 0.179574 0.179574 0.179574 0.179574 0.179574 0.179574
0.179574 0.179574 0.179574 0.179574 0.179574 0.179574 0.179574 0.179574 0.179574
0.179574 0.179574 0.179574 0.179574 0.179574 0.179574 0.179574 0.179574 0.179574
0.179574 0.179574 0.179574 0.179574 0.179574 0.179574 0.179574 0.179574 0.179574
0.179574 0.179574 0.179574 0.179574 0.179574 0.179574 0.179574 0.179574 0.179574
0.179574 0.179574 0.179574 0.179574 0.179574 0.179574 0.179574 0.179574 0.179574
0.179574 0.179574 0.179574 0.179574 0.179574 0.179574 0.179574 0.179574 0.179574
0.179574 0.179574 0.179574 0.179574 0.179574 0.179574 0.179574 0.179574 0.179574
0.179574 0.179574 0.179574 0.179574 0.179574 0.179574 0.179574 0.179574 0.179574
0.179574 0.179574 0.179574 0.179574 0.179574 0.179574 0.179574 0.179574 0.179574
0.179574 0.179574 0.179574 0.179574 0.179574 0.179574 0.179574 0.179574 0.179574
0.179574 0.179574 0.179574 0.179574 0.179574 0.179574 0.179574 0.179574 0.179574
0.179574 0.179574 0.179574 0.179574 0.179574 0.179574 0.179574 0.179574 0.179574
0.179574 0.179574 0.179574 0.179574 0.179574 0.179574 0.179574 0.179574 0.179574
0.179574 0.179574 0.179574 0.179574 0.179574 0.179574 0.179574 0.179574 0.179574
0.179574 0.179574 0.179574 0.179574 0.179574 0.179574 0.179574 0.179574 0.179574
0.179574 0.179574 0.179574 0.179574 0.179574 0.179574 0.179574 0.179574 0.179574
0.179574 0.179574 0.179574 0.179574 0.179574 0.179574 0.179574 0.179574 0.179574
0.179574 0.179574 0.179574 0.179574 0.179574 0.179574 0.179574 0.179574 0.179574
        </DataArray>
        <DataArray type='Float32' Name='nut' format='ascii'>
0 0 0 0 0 0 0 0 0
0 0 0 0 0 0 0 0 0
0 0 0 0 0 0 0 0 0
0 0 0 0 0 0 0 0 0
0 0 0 0 0 0 0 0 0
0 0 0 0 0 0 0 0 0
0 0 0 0 0 0 0 0 0
0 0 0 0 0 0 0 0 0
0 0 0 0 0 0 0 0 0
0 0 0 0 0 0 0 0 0
0 0 0 0 0 0 0 0 0
0 0 0 0 0 0 0 0 0
0 0 0 0 0 0 0 0 0
0 0 0 0 0 0 0 0 0
0 0 0 0 0 0 0 0 0
0 0 0 0 0 0 0 0 0
0 0 0 0 0 0 0 0 0
0 0 0 0 0 0 0 0 0
0 0 0 0 0 0 0 0 0
0 0 0 0 0 0 0 0 0
        </DataArray>
        <DataArray type='Float32' Name='omega' format='ascii'>
316 316 316 316 316 316 316 316 316
316 316 316 316 316 316 316 316 316
316 316 316 316 316 316 316 316 316
316 316 316 316 316 316 316 316 316
316 316 316 316 316 316 316 316 316
316 316 316 316 316 316 316 316 316
316 316 316 316 316 316 316 316 316
316 316 316 316 316 316 316 316 316
316 316 316 316 316 316 316 316 316
316 316 316 316 316 316 316 316 316
316 316 316 316 316 316 316 316 316
316 316 316 316 316 316 316 316 316
316 316 316 316 316 316 316 316 316
316 316 316 316 316 316 316 316 316
316 316 316 316 316 316 316 316 316
316 316 316 316 316 316 316 316 316
316 316 316 316 316 316 316 316 316
316 316 316 316 316 316 316 316 316
316 316 316 316 316 316 316 316 316
316 316 316 316 316 316 316 316 316
        </DataArray>
        <DataArray type='Float32' Name='p' format='ascii'>
0 0 0 0 0 0 0 0 0
0 0 0 0 0 0 0 0 0
0 0 0 0 0 0 0 0 0
0 0 0 0 0 0 0 0 0
0 0 0 0 0 0 0 0 0
0 0 0 0 0 0 0 0 0
0 0 0 0 0 0 0 0 0
0 0 0 0 0 0 0 0 0
0 0 0 0 0 0 0 0 0
0 0 0 0 0 0 0 0 0
0 0 0 0 0 0 0 0 0
0 0 0 0 0 0 0 0 0
0 0 0 0 0 0 0 0 0
0 0 0 0 0 0 0 0 0
0 0 0 0 0 0 0 0 0
0 0 0 0 0 0 0 0 0
0 0 0 0 0 0 0 0 0
0 0 0 0 0 0 0 0 0
0 0 0 0 0 0 0 0 0
0 0 0 0 0 0 0 0 0
        </DataArray>
        <DataArray type='Float32' Name='C' NumberOfComponents='3' format='ascii'>
-0.9 0.000219052 6.60037e-20 -0.9 0.000660218 -3.46945e-20 -0.9 0.00110755 -4.44886e-20
-0.9 0.00156114 -9.26488e-20 -0.9 0.00202107 5.10386e-20 -0.9 0.00248742 -3.46945e-20
-0.9 0.0029603 6.72211e-20 -0.9 0.00343978 -4.38318e-20 -0.9 0.00392597 -6.17285e-20
-0.9 0.00441896 3.64025e-20 -0.9 0.00491884 -8.40067e-21 -0.9 0.0054257 7.76745e-20
-0.9 0.00593965 -6.02683e-20 -0.9 0.00646078 -6.83228e-20 -0.9 0.0069892 -7.61504e-20
-0.9 0.00752501 7.97818e-20 -0.9 0.00806831 -1.85662e-20 -0.9 0.0086192 5.0704e-21
-0.9 0.00917779 -1.11645e-20 -0.9 0.00974419 -5.01649e-20 -0.9 0.0103185 -1.18088e-20
-0.9 0.0109009 1.79693e-20 -0.9 0.0114913 -7.17928e-20 -0.9 0.0120901 -5.42493e-21
-0.9 0.0126972 -3.46945e-20 -0.9 0.0133128 1.2188e-19 -0.9 0.013937 4.95323e-20
-0.9 0.0145699 4.83712e-20 -0.9 0.0152117 4.7226e-20 -0.9 0.0158624 -7.509e-20
-0.9 0.0165223 1.2466e-19 -0.9 0.0171914 -8.50153e-21 -0.9 0.0178698 1.20297e-19
-0.9 0.0185577 6.72084e-20 -0.9 0.0192552 -3.46945e-20 -0.9 0.0199625 -1.09029e-19
-0.9 0.0206796 9.97065e-20 -0.9 0.0214068 -7.08439e-20 -0.9 0.0221442 -7.03456e-20
-0.9 0.0228918 1.05944e-19 -0.9 0.0236499 -5.78111e-20 -0.9 0.0244186 -1.18966e-20
-0.9 0.0251981 1.00207e-19 -0.9 0.0259884 5.40001e-20 -0.9 0.0267898 9.04142e-21
-0.9 0.0276024 -8.86106e-20 -0.9 0.0284264 3.97476e-20 -0.9 0.0292619 5.96972e-20
-0.9 0.030109 -1.27785e-19 -0.9 0.030968 -4.09214e-21 -0.9 0.031839 -6.48749e-20
-0.9 0.0327222 -6.44588e-20 -0.9 0.0336177 -5.34044e-21 -0.9 0.0345258 8.11029e-20
-0.9 0.0354465 -7.27615e-20 -0.9 0.0363801 9.67032e-20 -0.9 0.0373268 3.93548e-20
-0.9 0.0382867 1.11362e-19 -0.9 0.03926 2.83244e-20 -0.9 0.0402469 -3.46945e-20
-0.9 0.0412476 3.5355e-20 -0.9 0.0422623 7.75666e-20 -0.9 0.0432912 -1.76616e-20
-0.9 0.0443345 1.56996e-20 -0.9 0.0453923 1.50048e-20 -0.9 0.046465 7.96719e-20
-0.9 0.0475526 1.3644e-20 -0.9 0.0486555 -1.88038e-20 -0.9 0.0497737 -7.38735e-20
-0.9 0.0509076 8.12221e-20 -0.9 0.0520574 -2.70732e-20 -0.9 0.0532232 1.04025e-20
-0.9 0.0544053 6.90812e-20 -0.9 0.0556039 5.30298e-20 -0.9 0.0568193 -1.21209e-19
-0.9 0.0580517 1.2173e-19 -0.9 0.0593013 1.61646e-19 -0.9 0.0605684 -1.31511e-19
-0.9 0.0618531 7.44279e-20 -0.9 0.0631559 4.6019e-20 -0.9 0.0644769 -6.12281e-20
-0.9 0.0658163 1.4848e-19 -0.9 0.0671744 -3.46945e-20 -0.9 0.0685516 1.05287e-19
-0.9 0.0699479 -1.35096e-19 -0.9 0.0713638 1.13832e-19 -0.9 0.0727995 -1.44553e-19
-0.9 0.0742553 8.5688e-20 -0.9 0.0757314 1.4339e-19 -0.9 0.0772282 1.17517e-19
-0.9 0.0787458 1.38513e-19 -0.9 0.0802847 6.77976e-20 -0.9 0.0818451 1.02296e-20
-0.9 0.0834274 4.28387e-20 -0.9 0.0850317 7.45403e-20 -0.9 0.0866584 -1.31487e-20
-0.9 0.0883079 -1.30314e-19 -0.9 0.0899805 -1.0804e-19 -0.9 0.0916764 -8.63617e-20
-0.9 0.0933961 3.66424e-20 -0.9 0.0951398 -3.46945e-20 -0.9 0.0969078 -2.47825e-20
-0.9 0.0987006 1.02159e-19 -0.9 0.100518 -1.11819e-19 -0.9 0.102362 4.13664e-20
-0.9 0.104231 1.05954e-19 -0.9 0.106126 -3.46945e-20 -0.9 0.108047 7.47429e-20
-0.9 0.109996 -8.86588e-20 -0.9 0.111972 7.85769e-22 -0.9 0.113975 -6.96856e-20
-0.9 0.116006 -6.0576e-20 -0.9 0.118066 -3.46945e-20 -0.9 0.120155 -8.50401e-20
-0.9 0.122272 3.97829e-20 -0.9 0.12442 -1.83721e-20 -0.9 0.126597 -5.07918e-20
-0.9 0.128805 -1.88191e-20 -0.9 0.131044 4.4469e-21 -0.9 0.133314 -4.24148e-20
-0.9 0.135615 -1.94666e-20 -0.9 0.137949 -3.46945e-20 -0.9 0.140316 -7.9127e-20
-0.9 0.142715 5.29456e-20 -0.9 0.145148 -1.06721e-19 -0.9 0.147615 6.47525e-20
-0.9 0.150117 -1.60792e-19 -0.9 0.152654 1.173e-19 -0.9 0.155226 1.28832e-19
-0.9 0.157834 -1.2877e-19 -0.9 0.160478 -2.14404e-20 -0.9 0.16316 -1.39265e-19
-0.9 0.165879 3.9789e-21 -0.9 0.168635 1.17866e-19 -0.9 0.171431 9.06869e-20
-0.9 0.174265 -4.70597e-20 -0.9 0.17714 -8.34737e-20 -0.9 0.180054 1.21652e-19
-0.9 0.183009 1.07636e-19 -0.9 0.186005 -5.80892e-20 -0.9 0.189044 3.45222e-20
-0.9 0.192124 -1.02957e-19 -0.9 0.195248 3.26268e-20 -0.9 0.198416 3.16987e-20
-0.9 0.201627 -5.65204e-20 -0.9 0.204884 -4.5457e-20 -0.9 0.208186 -1.08994e-19
-0.9 0.211535 1.22323e-19 -0.9 0.21493 2.72466e-20 -0.9 0.218372 -1.26325e-19
-0.9 0.221863 4.56322e-20 -0.9 0.225402 -3.46945e-20 -0.9 0.228991 4.3691e-21
-0.9 0.232631 5.19868e-20 -0.9 0.236321 4.12934e-20 -0.9 0.240062 -1.59594e-20
-0.9 0.243856 -7.1648e-20 -0.9 0.247703 9.28599e-20 -0.9 0.251604 -8.8607e-20
-0.9 0.255559 9.61324e-21 -0.9 0.25957 1.05136e-19 -0.9 0.263636 -6.917e-20
-0.9 0.26776 -3.46945e-20 -0.9 0.271941 6.59001e-20 -0.9 0.276181 -9.89252e-21
-0.9 0.280479 -7.54612e-20 -0.9 0.284838 -9.0981e-20 -0.9 0.289258 -8.2275e-20
-0.9 0.29374 4.35131e-20 -0.9 0.298284 2.7009e-20 -0.9 0.302892 2.61584e-20
-0.9 0.307564 1.78177e-20 -0.9 0.312302 3.92887e-20 -0.9 0.317105 9.08347e-21
-0.9 0.321976 2.28714e-20 -0.9 0.326915 -4.88875e-20 -0.9 0.331923 1.33274e-19
-0.9 0.337001 8.95453e-20 -0.9 0.34215 -2.10804e-20 -0.9 0.347371 -2.1268e-20
        </DataArray>
        <DataArray type='Float32' Name='U' NumberOfComponents='3' format='ascii'>
34.6 0 0 34.6 0 0 34.6 0 0
34.6 0 0 34.6 0 0 34.6 0 0
34.6 0 0 34.6 0 0 34.6 0 0
34.6 0 0 34.6 0 0 34.6 0 0
34.6 0 0 34.6 0 0 34.6 0 0
34.6 0 0 34.6 0 0 34.6 0 0
34.6 0 0 34.6 0 0 34.6 0 0
34.6 0 0 34.6 0 0 34.6 0 0
34.6 0 0 34.6 0 0 34.6 0 0
34.6 0 0 34.6 0 0 34.6 0 0
34.6 0 0 34.6 0 0 34.6 0 0
34.6 0 0 34.6 0 0 34.6 0 0
34.6 0 0 34.6 0 0 34.6 0 0
34.6 0 0 34.6 0 0 34.6 0 0
34.6 0 0 34.6 0 0 34.6 0 0
34.6 0 0 34.6 0 0 34.6 0 0
34.6 0 0 34.6 0 0 34.6 0 0
34.6 0 0 34.6 0 0 34.6 0 0
34.6 0 0 34.6 0 0 34.6 0 0
34.6 0 0 34.6 0 0 34.6 0 0
34.6 0 0 34.6 0 0 34.6 0 0
34.6 0 0 34.6 0 0 34.6 0 0
34.6 0 0 34.6 0 0 34.6 0 0
34.6 0 0 34.6 0 0 34.6 0 0
34.6 0 0 34.6 0 0 34.6 0 0
34.6 0 0 34.6 0 0 34.6 0 0
34.6 0 0 34.6 0 0 34.6 0 0
34.6 0 0 34.6 0 0 34.6 0 0
34.6 0 0 34.6 0 0 34.6 0 0
34.6 0 0 34.6 0 0 34.6 0 0
34.6 0 0 34.6 0 0 34.6 0 0
34.6 0 0 34.6 0 0 34.6 0 0
34.6 0 0 34.6 0 0 34.6 0 0
34.6 0 0 34.6 0 0 34.6 0 0
34.6 0 0 34.6 0 0 34.6 0 0
34.6 0 0 34.6 0 0 34.6 0 0
34.6 0 0 34.6 0 0 34.6 0 0
34.6 0 0 34.6 0 0 34.6 0 0
34.6 0 0 34.6 0 0 34.6 0 0
34.6 0 0 34.6 0 0 34.6 0 0
34.6 0 0 34.6 0 0 34.6 0 0
34.6 0 0 34.6 0 0 34.6 0 0
34.6 0 0 34.6 0 0 34.6 0 0
34.6 0 0 34.6 0 0 34.6 0 0
34.6 0 0 34.6 0 0 34.6 0 0
34.6 0 0 34.6 0 0 34.6 0 0
34.6 0 0 34.6 0 0 34.6 0 0
34.6 0 0 34.6 0 0 34.6 0 0
34.6 0 0 34.6 0 0 34.6 0 0
34.6 0 0 34.6 0 0 34.6 0 0
34.6 0 0 34.6 0 0 34.6 0 0
34.6 0 0 34.6 0 0 34.6 0 0
34.6 0 0 34.6 0 0 34.6 0 0
34.6 0 0 34.6 0 0 34.6 0 0
34.6 0 0 34.6 0 0 34.6 0 0
34.6 0 0 34.6 0 0 34.6 0 0
34.6 0 0 34.6 0 0 34.6 0 0
34.6 0 0 34.6 0 0 34.6 0 0
34.6 0 0 34.6 0 0 34.6 0 0
34.6 0 0 34.6 0 0 34.6 0 0
        </DataArray>
      </CellData>
      <PointData>
        <DataArray type='Float32' Name='Cx' format='ascii'>
-0.9 -0.9 -0.9 -0.9 -0.9 -0.9 -0.9 -0.9 -0.9
-0.9 -0.9 -0.9 -0.9 -0.9 -0.9 -0.9 -0.9 -0.9
-0.9 -0.9 -0.9 -0.9 -0.9 -0.9 -0.9 -0.9 -0.9
-0.9 -0.9 -0.9 -0.9 -0.9 -0.9 -0.9 -0.9 -0.9
-0.9 -0.9 -0.9 -0.9 -0.9 -0.9 -0.9 -0.9 -0.9
-0.9 -0.9 -0.9 -0.9 -0.9 -0.9 -0.9 -0.9 -0.9
-0.9 -0.9 -0.9 -0.9 -0.9 -0.9 -0.9 -0.9 -0.9
-0.9 -0.9 -0.9 -0.9 -0.9 -0.9 -0.9 -0.9 -0.9
-0.9 -0.9 -0.9 -0.9 -0.9 -0.9 -0.9 -0.9 -0.9
-0.9 -0.9 -0.9 -0.9 -0.9 -0.9 -0.9 -0.9 -0.9
-0.9 -0.9 -0.9 -0.9 -0.9 -0.9 -0.9 -0.9 -0.9
-0.9 -0.9 -0.9 -0.9 -0.9 -0.9 -0.9 -0.9 -0.9
-0.9 -0.9 -0.9 -0.9 -0.9 -0.9 -0.9 -0.9 -0.9
-0.9 -0.9 -0.9 -0.9 -0.9 -0.9 -0.9 -0.9 -0.9
-0.9 -0.9 -0.9 -0.9 -0.9 -0.9 -0.9 -0.9 -0.9
-0.9 -0.9 -0.9 -0.9 -0.9 -0.9 -0.9 -0.9 -0.9
-0.9 -0.9 -0.9 -0.9 -0.9 -0.9 -0.9 -0.9 -0.9
-0.9 -0.9 -0.9 -0.9 -0.9 -0.9 -0.9 -0.9 -0.9
-0.9 -0.9 -0.9 -0.9 -0.9 -0.9 -0.9 -0.9 -0.9
-0.9 -0.9 -0.9 -0.9 -0.9 -0.9 -0.9 -0.9 -0.9
-0.9 -0.9 -0.9 -0.9 -0.9 -0.9 -0.9 -0.9 -0.9
-0.9 -0.9 -0.9 -0.9 -0.9 -0.9 -0.9 -0.9 -0.9
-0.9 -0.9 -0.9 -0.9 -0.9 -0.9 -0.9 -0.9 -0.9
-0.9 -0.9 -0.9 -0.9 -0.9 -0.9 -0.9 -0.9 -0.9
-0.9 -0.9 -0.9 -0.9 -0.9 -0.9 -0.9 -0.9 -0.9
-0.9 -0.9 -0.9 -0.9 -0.9 -0.9 -0.9 -0.9 -0.9
-0.9 -0.9 -0.9 -0.9 -0.9 -0.9 -0.9 -0.9 -0.9
-0.9 -0.9 -0.9 -0.9 -0.9 -0.9 -0.9 -0.9 -0.9
-0.9 -0.9 -0.9 -0.9 -0.9 -0.9 -0.9 -0.9 -0.9
-0.9 -0.9 -0.9 -0.9 -0.9 -0.9 -0.9 -0.9 -0.9
-0.9 -0.9 -0.9 -0.9 -0.9 -0.9 -0.9 -0.9 -0.9
-0.9 -0.9 -0.9 -0.9 -0.9 -0.9 -0.9 -0.9 -0.9
-0.9 -0.9 -0.9 -0.9 -0.9 -0.9 -0.9 -0.9 -0.9
-0.9 -0.9 -0.9 -0.9 -0.9 -0.9 -0.9 -0.9 -0.9
-0.9 -0.9 -0.9 -0.9 -0.9 -0.9 -0.9 -0.9 -0.9
-0.9 -0.9 -0.9 -0.9 -0.9 -0.9 -0.9 -0.9 -0.9
-0.9 -0.9 -0.9 -0.9 -0.9 -0.9 -0.9 -0.9 -0.9
-0.9 -0.9 -0.9 -0.9 -0.9 -0.9 -0.9 -0.9 -0.9
-0.9 -0.9 -0.9 -0.9 -0.9 -0.9 -0.9 -0.9 -0.9
-0.9 -0.9 -0.9 -0.9 -0.9 -0.9 -0.9 -0.9 -0.9
-0.9 -0.9
        </DataArray>
        <DataArray type='Float32' Name='Cy' format='ascii'>
0.000219052 0.000219052 0.000439635 0.000439635 0.000883884 0.000883884 0.00133434 0.00133434 0.0017911
0.0017911 0.00225424 0.00225424 0.00272386 0.00272386 0.00320004 0.00320004 0.00368288 0.00368288
0.00417246 0.00417246 0.0046689 0.0046689 0.00517227 0.00517227 0.00568267 0.00568267 0.00620022
0.00620022 0.00672499 0.00672499 0.00725711 0.00725711 0.00779666 0.00779666 0.00834375 0.00834375
0.00889849 0.00889849 0.00946099 0.00946099 0.0100313 0.0100313 0.0106097 0.0106097 0.0111961
0.0111961 0.0117907 0.0117907 0.0123936 0.0123936 0.013005 0.013005 0.0136249 0.0136249
0.0142535 0.0142535 0.0148908 0.0148908 0.0155371 0.0155371 0.0161924 0.0161924 0.0168568
0.0168568 0.0175306 0.0175306 0.0182137 0.0182137 0.0189064 0.0189064 0.0196088 0.0196088
0.0203211 0.0203211 0.0210432 0.0210432 0.0217755 0.0217755 0.022518 0.022518 0.0232709
0.0232709 0.0240343 0.0240343 0.0248084 0.0248084 0.0255933 0.0255933 0.0263891 0.0263891
0.0271961 0.0271961 0.0280144 0.0280144 0.0288441 0.0288441 0.0296854 0.0296854 0.0305385
0.0305385 0.0314035 0.0314035 0.0322806 0.0322806 0.03317 0.03317 0.0340718 0.0340718
0.0349861 0.0349861 0.0359133 0.0359133 0.0368535 0.0368535 0.0378067 0.0378067 0.0387733
0.0387733 0.0397534 0.0397534 0.0407473 0.0407473 0.041755 0.041755 0.0427768 0.0427768
0.0438128 0.0438128 0.0448634 0.0448634 0.0459287 0.0459287 0.0470088 0.0470088 0.048104
0.048104 0.0492146 0.0492146 0.0503407 0.0503407 0.0514825 0.0514825 0.0526402 0.0526402
0.0538142 0.0538142 0.0550046 0.0550046 0.0562116 0.0562116 0.0574355 0.0574355 0.0586765
0.0586765 0.0599348 0.0599348 0.0612107 0.0612107 0.0625045 0.0625045 0.0638164 0.0638164
0.0651465 0.0651465 0.0664953 0.0664953 0.067863 0.067863 0.0692497 0.0692497 0.0706559
0.0706559 0.0720817 0.0720817 0.0735274 0.0735274 0.0749933 0.0749933 0.0764798 0.0764798
0.077987 0.077987 0.0795153 0.0795153 0.0810649 0.0810649 0.0826362 0.0826362 0.0842295
0.0842295 0.085845 0.085845 0.0874832 0.0874832 0.0891442 0.0891442 0.0908284 0.0908284
0.0925362 0.0925362 0.0942679 0.0942679 0.0960238 0.0960238 0.0978042 0.0978042 0.0996095
0.0996095 0.10144 0.10144 0.103296 0.103296 0.105178 0.105178 0.107087 0.107087
0.109022 0.109022 0.110984 0.110984 0.112973 0.112973 0.114991 0.114991 0.117036
0.117036 0.11911 0.11911 0.121214 0.121214 0.123346 0.123346 0.125508 0.125508
0.127701 0.127701 0.129924 0.129924 0.132179 0.132179 0.134464 0.134464 0.136782
0.136782 0.139132 0.139132 0.141515 0.141515 0.143932 0.143932 0.146382 0.146382
0.148866 0.148866 0.151385 0.151385 0.15394 0.15394 0.15653 0.15653 0.159156
0.159156 0.161819 0.161819 0.164519 0.164519 0.167257 0.167257 0.170033 0.170033
0.172848 0.172848 0.175702 0.175702 0.178597 0.178597 0.181531 0.181531 0.184507
0.184507 0.187524 0.187524 0.190584 0.190584 0.193686 0.193686 0.196832 0.196832
0.200021 0.200021 0.203255 0.203255 0.206535 0.206535 0.20986 0.20986 0.213232
0.213232 0.216651 0.216651 0.220117 0.220117 0.223632 0.223632 0.227197 0.227197
0.230811 0.230811 0.234475 0.234475 0.238191 0.238191 0.241959 0.241959 0.245779
0.245779 0.249653 0.249653 0.253581 0.253581 0.257564 0.257564 0.261603 0.261603
0.265698 0.265698 0.26985 0.26985 0.27406 0.27406 0.278329 0.278329 0.282658
0.282658 0.287047 0.287047 0.291498 0.291498 0.296011 0.296011 0.300587 0.300587
0.305227 0.305227 0.309932 0.309932 0.314703 0.314703 0.31954 0.31954 0.324445
0.324445 0.329418 0.329418 0.334461 0.334461 0.339575 0.339575 0.34476 0.34476
0.347371 0.347371
        </DataArray>
        <DataArray type='Float32' Name='Cz' format='ascii'>
6.60037e-20 6.60037e-20 1.56548e-20 1.56548e-20 -3.95915e-20 -3.95915e-20 -6.85686e-20 -6.85686e-20 -2.08054e-20
-2.08054e-20 8.17222e-21 8.17222e-21 1.62631e-20 1.62631e-20 1.16949e-20 1.16949e-20 -5.27801e-20 -5.27801e-20
-1.26632e-20 -1.26632e-20 1.4001e-20 1.4001e-20 3.46367e-20 3.46367e-20 8.70344e-21 8.70344e-21 -6.42955e-20
-6.42955e-20 -7.22366e-20 -7.22366e-20 1.81533e-21 1.81533e-21 3.06081e-20 3.06081e-20 -6.74795e-21 -6.74795e-21
-3.04699e-21 -3.04699e-21 -3.06646e-20 -3.06646e-20 -3.09869e-20 -3.09869e-20 3.08016e-21 3.08016e-21 -2.69115e-20
-2.69115e-20 -3.86091e-20 -3.86091e-20 -2.00596e-20 -2.00596e-20 4.35922e-20 4.35922e-20 8.57064e-20 8.57064e-20
4.89517e-20 4.89517e-20 4.77986e-20 4.77986e-20 -1.39316e-20 -1.39316e-20 2.47843e-20 2.47843e-20 5.80798e-20
5.80798e-20 5.5897e-20 5.5897e-20 9.37527e-20 9.37527e-20 1.62574e-20 1.62574e-20 -7.18613e-20 -7.18613e-20
-4.66213e-21 -4.66213e-21 1.4432e-20 1.4432e-20 -7.05948e-20 -7.05948e-20 1.77983e-20 1.77983e-20 2.40673e-20
2.40673e-20 -3.4854e-20 -3.4854e-20 4.41547e-20 4.41547e-20 7.71039e-20 7.71039e-20 3.1521e-20 3.1521e-20
-3.97841e-20 -3.97841e-20 -2.44323e-20 -2.44323e-20 4.97223e-20 4.97223e-20 -3.40427e-20 -3.40427e-20 -6.59393e-20
-6.59393e-20 -3.44831e-20 -3.44831e-20 -6.46669e-20 -6.46669e-20 -3.49e-20 -3.49e-20 3.78806e-20 3.78806e-20
4.17186e-21 4.17186e-21 1.19696e-20 1.19696e-20 6.80294e-20 6.80294e-20 7.5358e-20 7.5358e-20 6.9844e-20
6.9844e-20 -3.18449e-21 -3.18449e-21 3.29659e-22 3.29659e-22 5.64604e-20 5.64604e-20 2.99534e-20 2.99534e-20
-9.81339e-22 -9.81339e-22 1.53522e-20 1.53522e-20 4.73377e-20 4.73377e-20 4.66586e-20 4.66586e-20 -2.57958e-21
-2.57958e-21 -4.6338e-20 -4.6338e-20 3.67261e-21 3.67261e-21 2.70757e-20 2.70757e-20 -8.33579e-21 -8.33579e-21
3.97412e-20 3.97412e-20 6.10557e-20 6.10557e-20 -3.40876e-20 -3.40876e-20 2.56892e-22 2.56892e-22 1.41687e-19
1.41687e-19 1.50714e-20 1.50714e-20 -2.85446e-20 -2.85446e-20 6.02239e-20 6.02239e-20 -7.6029e-21 -7.6029e-21
4.36227e-20 4.36227e-20 5.68957e-20 5.68957e-20 3.52942e-20 3.52942e-20 -1.49002e-20 -1.49002e-20 -1.06365e-20
-1.06365e-20 -1.53563e-20 -1.53563e-20 -2.94368e-20 -2.94368e-20 1.14538e-19 1.14538e-19 1.30454e-19 1.30454e-19
1.28015e-19 1.28015e-19 1.03157e-19 1.03157e-19 3.90148e-20 3.90148e-20 2.65334e-20 2.65334e-20 5.86888e-20
5.86888e-20 3.06978e-20 3.06978e-20 -7.17285e-20 -7.17285e-20 -1.19177e-19 -1.19177e-19 -9.72012e-20 -9.72012e-20
-2.48628e-20 -2.48628e-20 9.75832e-22 9.75832e-22 -2.97388e-20 -2.97388e-20 3.86849e-20 3.86849e-20 -4.82349e-21
-4.82349e-21 -3.52306e-20 -3.52306e-20 7.3658e-20 7.3658e-20 3.56339e-20 3.56339e-20 2.00207e-20 2.00207e-20
-6.95261e-21 -6.95261e-21 -4.39395e-20 -4.39395e-20 -3.44475e-20 -3.44475e-20 -6.51311e-20 -6.51311e-20 -4.76362e-20
-4.76362e-20 -5.98654e-20 -5.98654e-20 -2.26334e-20 -2.26334e-20 1.07077e-20 1.07077e-20 -3.45806e-20 -3.45806e-20
-3.48068e-20 -3.48068e-20 -7.18708e-21 -7.18708e-21 -1.89819e-20 -1.89819e-20 -3.09418e-20 -3.09418e-20 -2.70798e-20
-2.70798e-20 -5.69086e-20 -5.69086e-20 -1.30972e-20 -1.30972e-20 -2.68796e-20 -2.68796e-20 -2.09932e-20 -2.09932e-20
-4.80078e-20 -4.80078e-20 -2.17613e-20 -2.17613e-20 1.23065e-19 1.23065e-19 4.60114e-23 4.60114e-23 -7.51115e-20
-7.51115e-20 -8.03455e-20 -8.03455e-20 -6.76521e-20 -6.76521e-20 6.09153e-20 6.09153e-20 1.04278e-19 1.04278e-19
2.1823e-20 2.1823e-20 -6.52642e-20 -6.52642e-20 1.90746e-20 1.90746e-20 1.14645e-19 1.14645e-19 2.47861e-20
2.47861e-20 -1.17908e-20 -1.17908e-20 -3.42063e-20 -3.42063e-20 -3.51762e-20 -3.51762e-20 3.21629e-20 3.21629e-20
-1.24032e-20 -1.24032e-20 -5.09897e-20 -5.09897e-20 -7.72194e-20 -7.72194e-20 6.64281e-21 6.64281e-21 7.4794e-20
7.4794e-20 -4.9524e-20 -4.9524e-20 -4.03642e-20 -4.03642e-20 5.47733e-21 5.47733e-21 -1.51669e-20 -1.51669e-20
2.81727e-20 2.81727e-20 4.66413e-20 4.66413e-20 1.26737e-20 1.26737e-20 -4.3797e-20 -4.3797e-20 1.05856e-20
1.05856e-20 2.14952e-21 2.14952e-21 -3.95097e-20 -3.95097e-20 5.73616e-20 5.73616e-20 1.80068e-20 1.80068e-20
-5.19371e-20 -5.19371e-20 1.55882e-20 1.55882e-20 2.80151e-20 2.80151e-20 -4.26668e-20 -4.26668e-20 -8.32187e-20
-8.32187e-20 -8.66294e-20 -8.66294e-20 -1.94018e-20 -1.94018e-20 3.52639e-20 3.52639e-20 2.65838e-20 2.65838e-20
2.19895e-20 2.19895e-20 2.85492e-20 2.85492e-20 2.41918e-20 2.41918e-20 1.59748e-20 1.59748e-20 -1.29938e-20
-1.29938e-20 4.21561e-20 4.21561e-20 1.11419e-19 1.11419e-19 3.42564e-20 3.42564e-20 -2.11742e-20 -2.11742e-20
-2.1268e-20 -2.1268e-20
        </DataArray>
        <DataArray type='Float32' Name='k' format='ascii'>
0.179574 0.179574 0.179574 0.179574 0.179574 0.179574 0.179574 0.179574 0.179574
0.179574 0.179574 0.179574 0.179574 0.179574 0.179574 0.179574 0.179574 0.179574
0.179574 0.179574 0.179574 0.179574 0.179574 0.179574 0.179574 0.179574 0.179574
0.179574 0.179574 0.179574 0.179574 0.179574 0.179574 0.179574 0.179574 0.179574
0.179574 0.179574 0.179574 0.179574 0.179574 0.179574 0.179574 0.179574 0.179574
0.179574 0.179574 0.179574 0.179574 0.179574 0.179574 0.179574 0.179574 0.179574
0.179574 0.179574 0.179574 0.179574 0.179574 0.179574 0.179574 0.179574 0.179574
0.179574 0.179574 0.179574 0.179574 0.179574 0.179574 0.179574 0.179574 0.179574
0.179574 0.179574 0.179574 0.179574 0.179574 0.179574 0.179574 0.179574 0.179574
0.179574 0.179574 0.179574 0.179574 0.179574 0.179574 0.179574 0.179574 0.179574
0.179574 0.179574 0.179574 0.179574 0.179574 0.179574 0.179574 0.179574 0.179574
0.179574 0.179574 0.179574 0.179574 0.179574 0.179574 0.179574 0.179574 0.179574
0.179574 0.179574 0.179574 0.179574 0.179574 0.179574 0.179574 0.179574 0.179574
0.179574 0.179574 0.179574 0.179574 0.179574 0.179574 0.179574 0.179574 0.179574
0.179574 0.179574 0.179574 0.179574 0.179574 0.179574 0.179574 0.179574 0.179574
0.179574 0.179574 0.179574 0.179574 0.179574 0.179574 0.179574 0.179574 0.179574
0.179574 0.179574 0.179574 0.179574 0.179574 0.179574 0.179574 0.179574 0.179574
0.179574 0.179574 0.179574 0.179574 0.179574 0.179574 0.179574 0.179574 0.179574
0.179574 0.179574 0.179574 0.179574 0.179574 0.179574 0.179574 0.179574 0.179574
0.179574 0.179574 0.179574 0.179574 0.179574 0.179574 0.179574 0.179574 0.179574
0.179574 0.179574 0.179574 0.179574 0.179574 0.179574 0.179574 0.179574 0.179574
0.179574 0.179574 0.179574 0.179574 0.179574 0.179574 0.179574 0.179574 0.179574
0.179574 0.179574 0.179574 0.179574 0.179574 0.179574 0.179574 0.179574 0.179574
0.179574 0.179574 0.179574 0.179574 0.179574 0.179574 0.179574 0.179574 0.179574
0.179574 0.179574 0.179574 0.179574 0.179574 0.179574 0.179574 0.179574 0.179574
0.179574 0.179574 0.179574 0.179574 0.179574 0.179574 0.179574 0.179574 0.179574
0.179574 0.179574 0.179574 0.179574 0.179574 0.179574 0.179574 0.179574 0.179574
0.179574 0.179574 0.179574 0.179574 0.179574 0.179574 0.179574 0.179574 0.179574
0.179574 0.179574 0.179574 0.179574 0.179574 0.179574 0.179574 0.179574 0.179574
0.179574 0.179574 0.179574 0.179574 0.179574 0.179574 0.179574 0.179574 0.179574
0.179574 0.179574 0.179574 0.179574 0.179574 0.179574 0.179574 0.179574 0.179574
0.179574 0.179574 0.179574 0.179574 0.179574 0.179574 0.179574 0.179574 0.179574
0.179574 0.179574 0.179574 0.179574 0.179574 0.179574 0.179574 0.179574 0.179574
0.179574 0.179574 0.179574 0.179574 0.179574 0.179574 0.179574 0.179574 0.179574
0.179574 0.179574 0.179574 0.179574 0.179574 0.179574 0.179574 0.179574 0.179574
0.179574 0.179574 0.179574 0.179574 0.179574 0.179574 0.179574 0.179574 0.179574
0.179574 0.179574 0.179574 0.179574 0.179574 0.179574 0.179574 0.179574 0.179574
0.179574 0.179574 0.179574 0.179574 0.179574 0.179574 0.179574 0.179574 0.179574
0.179574 0.179574 0.179574 0.179574 0.179574 0.179574 0.179574 0.179574 0.179574
0.179574 0.179574 0.179574 0.179574 0.179574 0.179574 0.179574 0.179574 0.179574
0.179574 0.179574
        </DataArray>
        <DataArray type='Float32' Name='nut' format='ascii'>
0 0 0 0 0 0 0 0 0
0 0 0 0 0 0 0 0 0
0 0 0 0 0 0 0 0 0
0 0 0 0 0 0 0 0 0
0 0 0 0 0 0 0 0 0
0 0 0 0 0 0 0 0 0
0 0 0 0 0 0 0 0 0
0 0 0 0 0 0 0 0 0
0 0 0 0 0 0 0 0 0
0 0 0 0 0 0 0 0 0
0 0 0 0 0 0 0 0 0
0 0 0 0 0 0 0 0 0
0 0 0 0 0 0 0 0 0
0 0 0 0 0 0 0 0 0
0 0 0 0 0 0 0 0 0
0 0 0 0 0 0 0 0 0
0 0 0 0 0 0 0 0 0
0 0 0 0 0 0 0 0 0
0 0 0 0 0 0 0 0 0
0 0 0 0 0 0 0 0 0
0 0 0 0 0 0 0 0 0
0 0 0 0 0 0 0 0 0
0 0 0 0 0 0 0 0 0
0 0 0 0 0 0 0 0 0
0 0 0 0 0 0 0 0 0
0 0 0 0 0 0 0 0 0
0 0 0 0 0 0 0 0 0
0 0 0 0 0 0 0 0 0
0 0 0 0 0 0 0 0 0
0 0 0 0 0 0 0 0 0
0 0 0 0 0 0 0 0 0
0 0 0 0 0 0 0 0 0
0 0 0 0 0 0 0 0 0
0 0 0 0 0 0 0 0 0
0 0 0 0 0 0 0 0 0
0 0 0 0 0 0 0 0 0
0 0 0 0 0 0 0 0 0
0 0 0 0 0 0 0 0 0
0 0 0 0 0 0 0 0 0
0 0 0 0 0 0 0 0 0
0 0
        </DataArray>
        <DataArray type='Float32' Name='omega' format='ascii'>
316 316 316 316 316 316 316 316 316
316 316 316 316 316 316 316 316 316
316 316 316 316 316 316 316 316 316
316 316 316 316 316 316 316 316 316
316 316 316 316 316 316 316 316 316
316 316 316 316 316 316 316 316 316
316 316 316 316 316 316 316 316 316
316 316 316 316 316 316 316 316 316
316 316 316 316 316 316 316 316 316
316 316 316 316 316 316 316 316 316
316 316 316 316 316 316 316 316 316
316 316 316 316 316 316 316 316 316
316 316 316 316 316 316 316 316 316
316 316 316 316 316 316 316 316 316
316 316 316 316 316 316 316 316 316
316 316 316 316 316 316 316 316 316
316 316 316 316 316 316 316 316 316
316 316 316 316 316 316 316 316 316
316 316 316 316 316 316 316 316 316
316 316 316 316 316 316 316 316 316
316 316 316 316 316 316 316 316 316
316 316 316 316 316 316 316 316 316
316 316 316 316 316 316 316 316 316
316 316 316 316 316 316 316 316 316
316 316 316 316 316 316 316 316 316
316 316 316 316 316 316 316 316 316
316 316 316 316 316 316 316 316 316
316 316 316 316 316 316 316 316 316
316 316 316 316 316 316 316 316 316
316 316 316 316 316 316 316 316 316
316 316 316 316 316 316 316 316 316
316 316 316 316 316 316 316 316 316
316 316 316 316 316 316 316 316 316
316 316 316 316 316 316 316 316 316
316 316 316 316 316 316 316 316 316
316 316 316 316 316 316 316 316 316
316 316 316 316 316 316 316 316 316
316 316 316 316 316 316 316 316 316
316 316 316 316 316 316 316 316 316
316 316 316 316 316 316 316 316 316
316 316
        </DataArray>
        <DataArray type='Float32' Name='p' format='ascii'>
0 0 0 0 0 0 0 0 0
0 0 0 0 0 0 0 0 0
0 0 0 0 0 0 0 0 0
0 0 0 0 0 0 0 0 0
0 0 0 0 0 0 0 0 0
0 0 0 0 0 0 0 0 0
0 0 0 0 0 0 0 0 0
0 0 0 0 0 0 0 0 0
0 0 0 0 0 0 0 0 0
0 0 0 0 0 0 0 0 0
0 0 0 0 0 0 0 0 0
0 0 0 0 0 0 0 0 0
0 0 0 0 0 0 0 0 0
0 0 0 0 0 0 0 0 0
0 0 0 0 0 0 0 0 0
0 0 0 0 0 0 0 0 0
0 0 0 0 0 0 0 0 0
0 0 0 0 0 0 0 0 0
0 0 0 0 0 0 0 0 0
0 0 0 0 0 0 0 0 0
0 0 0 0 0 0 0 0 0
0 0 0 0 0 0 0 0 0
0 0 0 0 0 0 0 0 0
0 0 0 0 0 0 0 0 0
0 0 0 0 0 0 0 0 0
0 0 0 0 0 0 0 0 0
0 0 0 0 0 0 0 0 0
0 0 0 0 0 0 0 0 0
0 0 0 0 0 0 0 0 0
0 0 0 0 0 0 0 0 0
0 0 0 0 0 0 0 0 0
0 0 0 0 0 0 0 0 0
0 0 0 0 0 0 0 0 0
0 0 0 0 0 0 0 0 0
0 0 0 0 0 0 0 0 0
0 0 0 0 0 0 0 0 0
0 0 0 0 0 0 0 0 0
0 0 0 0 0 0 0 0 0
0 0 0 0 0 0 0 0 0
0 0 0 0 0 0 0 0 0
0 0
        </DataArray>
        <DataArray type='Float32' Name='C' NumberOfComponents='3' format='ascii'>
-0.9 0.000219052 6.60037e-20 -0.9 0.000219052 6.60037e-20 -0.9 0.000439635 1.56548e-20
-0.9 0.000439635 1.56548e-20 -0.9 0.000883884 -3.95915e-20 -0.9 0.000883884 -3.95915e-20
-0.9 0.00133434 -6.85686e-20 -0.9 0.00133434 -6.85686e-20 -0.9 0.0017911 -2.08054e-20
-0.9 0.0017911 -2.08054e-20 -0.9 0.00225424 8.17222e-21 -0.9 0.00225424 8.17222e-21
-0.9 0.00272386 1.62631e-20 -0.9 0.00272386 1.62631e-20 -0.9 0.00320004 1.16949e-20
-0.9 0.00320004 1.16949e-20 -0.9 0.00368288 -5.27801e-20 -0.9 0.00368288 -5.27801e-20
-0.9 0.00417246 -1.26632e-20 -0.9 0.00417246 -1.26632e-20 -0.9 0.0046689 1.4001e-20
-0.9 0.0046689 1.4001e-20 -0.9 0.00517227 3.46367e-20 -0.9 0.00517227 3.46367e-20
-0.9 0.00568267 8.70344e-21 -0.9 0.00568267 8.70344e-21 -0.9 0.00620022 -6.42955e-20
-0.9 0.00620022 -6.42955e-20 -0.9 0.00672499 -7.22366e-20 -0.9 0.00672499 -7.22366e-20
-0.9 0.00725711 1.81533e-21 -0.9 0.00725711 1.81533e-21 -0.9 0.00779666 3.06081e-20
-0.9 0.00779666 3.06081e-20 -0.9 0.00834375 -6.74795e-21 -0.9 0.00834375 -6.74795e-21
-0.9 0.00889849 -3.04699e-21 -0.9 0.00889849 -3.04699e-21 -0.9 0.00946099 -3.06646e-20
-0.9 0.00946099 -3.06646e-20 -0.9 0.0100313 -3.09869e-20 -0.9 0.0100313 -3.09869e-20
-0.9 0.0106097 3.08016e-21 -0.9 0.0106097 3.08016e-21 -0.9 0.0111961 -2.69115e-20
-0.9 0.0111961 -2.69115e-20 -0.9 0.0117907 -3.86091e-20 -0.9 0.0117907 -3.86091e-20
-0.9 0.0123936 -2.00596e-20 -0.9 0.0123936 -2.00596e-20 -0.9 0.013005 4.35922e-20
-0.9 0.013005 4.35922e-20 -0.9 0.0136249 8.57064e-20 -0.9 0.0136249 8.57064e-20
-0.9 0.0142535 4.89517e-20 -0.9 0.0142535 4.89517e-20 -0.9 0.0148908 4.77986e-20
-0.9 0.0148908 4.77986e-20 -0.9 0.0155371 -1.39316e-20 -0.9 0.0155371 -1.39316e-20
-0.9 0.0161924 2.47843e-20 -0.9 0.0161924 2.47843e-20 -0.9 0.0168568 5.80798e-20
-0.9 0.0168568 5.80798e-20 -0.9 0.0175306 5.5897e-20 -0.9 0.0175306 5.5897e-20
-0.9 0.0182137 9.37527e-20 -0.9 0.0182137 9.37527e-20 -0.9 0.0189064 1.62574e-20
-0.9 0.0189064 1.62574e-20 -0.9 0.0196088 -7.18613e-20 -0.9 0.0196088 -7.18613e-20
-0.9 0.0203211 -4.66213e-21 -0.9 0.0203211 -4.66213e-21 -0.9 0.0210432 1.4432e-20
-0.9 0.0210432 1.4432e-20 -0.9 0.0217755 -7.05948e-20 -0.9 0.0217755 -7.05948e-20
-0.9 0.022518 1.77983e-20 -0.9 0.022518 1.77983e-20 -0.9 0.0232709 2.40673e-20
-0.9 0.0232709 2.40673e-20 -0.9 0.0240343 -3.4854e-20 -0.9 0.0240343 -3.4854e-20
-0.9 0.0248084 4.41547e-20 -0.9 0.0248084 4.41547e-20 -0.9 0.0255933 7.71039e-20
-0.9 0.0255933 7.71039e-20 -0.9 0.0263891 3.1521e-20 -0.9 0.0263891 3.1521e-20
-0.9 0.0271961 -3.97841e-20 -0.9 0.0271961 -3.97841e-20 -0.9 0.0280144 -2.44323e-20
-0.9 0.0280144 -2.44323e-20 -0.9 0.0288441 4.97223e-20 -0.9 0.0288441 4.97223e-20
-0.9 0.0296854 -3.40427e-20 -0.9 0.0296854 -3.40427e-20 -0.9 0.0305385 -6.59393e-20
-0.9 0.0305385 -6.59393e-20 -0.9 0.0314035 -3.44831e-20 -0.9 0.0314035 -3.44831e-20
-0.9 0.0322806 -6.46669e-20 -0.9 0.0322806 -6.46669e-20 -0.9 0.03317 -3.49e-20
-0.9 0.03317 -3.49e-20 -0.9 0.0340718 3.78806e-20 -0.9 0.0340718 3.78806e-20
-0.9 0.0349861 4.17186e-21 -0.9 0.0349861 4.17186e-21 -0.9 0.0359133 1.19696e-20
-0.9 0.0359133 1.19696e-20 -0.9 0.0368535 6.80294e-20 -0.9 0.0368535 6.80294e-20
-0.9 0.0378067 7.5358e-20 -0.9 0.0378067 7.5358e-20 -0.9 0.0387733 6.9844e-20
-0.9 0.0387733 6.9844e-20 -0.9 0.0397534 -3.18449e-21 -0.9 0.0397534 -3.18449e-21
-0.9 0.0407473 3.29659e-22 -0.9 0.0407473 3.29659e-22 -0.9 0.041755 5.64604e-20
-0.9 0.041755 5.64604e-20 -0.9 0.0427768 2.99534e-20 -0.9 0.0427768 2.99534e-20
-0.9 0.0438128 -9.81339e-22 -0.9 0.0438128 -9.81339e-22 -0.9 0.0448634 1.53522e-20
-0.9 0.0448634 1.53522e-20 -0.9 0.0459287 4.73377e-20 -0.9 0.0459287 4.73377e-20
-0.9 0.0470088 4.66586e-20 -0.9 0.0470088 4.66586e-20 -0.9 0.048104 -2.57958e-21
-0.9 0.048104 -2.57958e-21 -0.9 0.0492146 -4.6338e-20 -0.9 0.0492146 -4.6338e-20
-0.9 0.0503407 3.67261e-21 -0.9 0.0503407 3.67261e-21 -0.9 0.0514825 2.70757e-20
-0.9 0.0514825 2.70757e-20 -0.9 0.0526402 -8.33579e-21 -0.9 0.0526402 -8.33579e-21
-0.9 0.0538142 3.97412e-20 -0.9 0.0538142 3.97412e-20 -0.9 0.0550046 6.10557e-20
-0.9 0.0550046 6.10557e-20 -0.9 0.0562116 -3.40876e-20 -0.9 0.0562116 -3.40876e-20
-0.9 0.0574355 2.56892e-22 -0.9 0.0574355 2.56892e-22 -0.9 0.0586765 1.41687e-19
-0.9 0.0586765 1.41687e-19 -0.9 0.0599348 1.50714e-20 -0.9 0.0599348 1.50714e-20
-0.9 0.0612107 -2.85446e-20 -0.9 0.0612107 -2.85446e-20 -0.9 0.0625045 6.02239e-20
-0.9 0.0625045 6.02239e-20 -0.9 0.0638164 -7.6029e-21 -0.9 0.0638164 -7.6029e-21
-0.9 0.0651465 4.36227e-20 -0.9 0.0651465 4.36227e-20 -0.9 0.0664953 5.68957e-20
-0.9 0.0664953 5.68957e-20 -0.9 0.067863 3.52942e-20 -0.9 0.067863 3.52942e-20
-0.9 0.0692497 -1.49002e-20 -0.9 0.0692497 -1.49002e-20 -0.9 0.0706559 -1.06365e-20
-0.9 0.0706559 -1.06365e-20 -0.9 0.0720817 -1.53563e-20 -0.9 0.0720817 -1.53563e-20
-0.9 0.0735274 -2.94368e-20 -0.9 0.0735274 -2.94368e-20 -0.9 0.0749933 1.14538e-19
-0.9 0.0749933 1.14538e-19 -0.9 0.0764798 1.30454e-19 -0.9 0.0764798 1.30454e-19
-0.9 0.077987 1.28015e-19 -0.9 0.077987 1.28015e-19 -0.9 0.0795153 1.03157e-19
-0.9 0.0795153 1.03157e-19 -0.9 0.0810649 3.90148e-20 -0.9 0.0810649 3.90148e-20
-0.9 0.0826362 2.65334e-20 -0.9 0.0826362 2.65334e-20 -0.9 0.0842295 5.86888e-20
-0.9 0.0842295 5.86888e-20 -0.9 0.085845 3.06978e-20 -0.9 0.085845 3.06978e-20
-0.9 0.0874832 -7.17285e-20 -0.9 0.0874832 -7.17285e-20 -0.9 0.0891442 -1.19177e-19
-0.9 0.0891442 -1.19177e-19 -0.9 0.0908284 -9.72012e-20 -0.9 0.0908284 -9.72012e-20
-0.9 0.0925362 -2.48628e-20 -0.9 0.0925362 -2.48628e-20 -0.9 0.0942679 9.75832e-22
-0.9 0.0942679 9.75832e-22 -0.9 0.0960238 -2.97388e-20 -0.9 0.0960238 -2.97388e-20
-0.9 0.0978042 3.86849e-20 -0.9 0.0978042 3.86849e-20 -0.9 0.0996095 -4.82349e-21
-0.9 0.0996095 -4.82349e-21 -0.9 0.10144 -3.52306e-20 -0.9 0.10144 -3.52306e-20
-0.9 0.103296 7.3658e-20 -0.9 0.103296 7.3658e-20 -0.9 0.105178 3.56339e-20
-0.9 0.105178 3.56339e-20 -0.9 0.107087 2.00207e-20 -0.9 0.107087 2.00207e-20
-0.9 0.109022 -6.95261e-21 -0.9 0.109022 -6.95261e-21 -0.9 0.110984 -4.39395e-20
-0.9 0.110984 -4.39395e-20 -0.9 0.112973 -3.44475e-20 -0.9 0.112973 -3.44475e-20
-0.9 0.114991 -6.51311e-20 -0.9 0.114991 -6.51311e-20 -0.9 0.117036 -4.76362e-20
-0.9 0.117036 -4.76362e-20 -0.9 0.11911 -5.98654e-20 -0.9 0.11911 -5.98654e-20
-0.9 0.121214 -2.26334e-20 -0.9 0.121214 -2.26334e-20 -0.9 0.123346 1.07077e-20
-0.9 0.123346 1.07077e-20 -0.9 0.125508 -3.45806e-20 -0.9 0.125508 -3.45806e-20
-0.9 0.127701 -3.48068e-20 -0.9 0.127701 -3.48068e-20 -0.9 0.129924 -7.18708e-21
-0.9 0.129924 -7.18708e-21 -0.9 0.132179 -1.89819e-20 -0.9 0.132179 -1.89819e-20
-0.9 0.134464 -3.09418e-20 -0.9 0.134464 -3.09418e-20 -0.9 0.136782 -2.70798e-20
-0.9 0.136782 -2.70798e-20 -0.9 0.139132 -5.69086e-20 -0.9 0.139132 -5.69086e-20
-0.9 0.141515 -1.30972e-20 -0.9 0.141515 -1.30972e-20 -0.9 0.143932 -2.68796e-20
-0.9 0.143932 -2.68796e-20 -0.9 0.146382 -2.09932e-20 -0.9 0.146382 -2.09932e-20
-0.9 0.148866 -4.80078e-20 -0.9 0.148866 -4.80078e-20 -0.9 0.151385 -2.17613e-20
-0.9 0.151385 -2.17613e-20 -0.9 0.15394 1.23065e-19 -0.9 0.15394 1.23065e-19
-0.9 0.15653 4.60114e-23 -0.9 0.15653 4.60114e-23 -0.9 0.159156 -7.51115e-20
-0.9 0.159156 -7.51115e-20 -0.9 0.161819 -8.03455e-20 -0.9 0.161819 -8.03455e-20
-0.9 0.164519 -6.76521e-20 -0.9 0.164519 -6.76521e-20 -0.9 0.167257 6.09153e-20
-0.9 0.167257 6.09153e-20 -0.9 0.170033 1.04278e-19 -0.9 0.170033 1.04278e-19
-0.9 0.172848 2.1823e-20 -0.9 0.172848 2.1823e-20 -0.9 0.175702 -6.52642e-20
-0.9 0.175702 -6.52642e-20 -0.9 0.178597 1.90746e-20 -0.9 0.178597 1.90746e-20
-0.9 0.181531 1.14645e-19 -0.9 0.181531 1.14645e-19 -0.9 0.184507 2.47861e-20
-0.9 0.184507 2.47861e-20 -0.9 0.187524 -1.17908e-20 -0.9 0.187524 -1.17908e-20
-0.9 0.190584 -3.42063e-20 -0.9 0.190584 -3.42063e-20 -0.9 0.193686 -3.51762e-20
-0.9 0.193686 -3.51762e-20 -0.9 0.196832 3.21629e-20 -0.9 0.196832 3.21629e-20
-0.9 0.200021 -1.24032e-20 -0.9 0.200021 -1.24032e-20 -0.9 0.203255 -5.09897e-20
-0.9 0.203255 -5.09897e-20 -0.9 0.206535 -7.72194e-20 -0.9 0.206535 -7.72194e-20
-0.9 0.20986 6.64281e-21 -0.9 0.20986 6.64281e-21 -0.9 0.213232 7.4794e-20
-0.9 0.213232 7.4794e-20 -0.9 0.216651 -4.9524e-20 -0.9 0.216651 -4.9524e-20
-0.9 0.220117 -4.03642e-20 -0.9 0.220117 -4.03642e-20 -0.9 0.223632 5.47733e-21
-0.9 0.223632 5.47733e-21 -0.9 0.227197 -1.51669e-20 -0.9 0.227197 -1.51669e-20
-0.9 0.230811 2.81727e-20 -0.9 0.230811 2.81727e-20 -0.9 0.234475 4.66413e-20
-0.9 0.234475 4.66413e-20 -0.9 0.238191 1.26737e-20 -0.9 0.238191 1.26737e-20
-0.9 0.241959 -4.3797e-20 -0.9 0.241959 -4.3797e-20 -0.9 0.245779 1.05856e-20
-0.9 0.245779 1.05856e-20 -0.9 0.249653 2.14952e-21 -0.9 0.249653 2.14952e-21
-0.9 0.253581 -3.95097e-20 -0.9 0.253581 -3.95097e-20 -0.9 0.257564 5.73616e-20
-0.9 0.257564 5.73616e-20 -0.9 0.261603 1.80068e-20 -0.9 0.261603 1.80068e-20
-0.9 0.265698 -5.19371e-20 -0.9 0.265698 -5.19371e-20 -0.9 0.26985 1.55882e-20
-0.9 0.26985 1.55882e-20 -0.9 0.27406 2.80151e-20 -0.9 0.27406 2.80151e-20
-0.9 0.278329 -4.26668e-20 -0.9 0.278329 -4.26668e-20 -0.9 0.282658 -8.32187e-20
-0.9 0.282658 -8.32187e-20 -0.9 0.287047 -8.66294e-20 -0.9 0.287047 -8.66294e-20
-0.9 0.291498 -1.94018e-20 -0.9 0.291498 -1.94018e-20 -0.9 0.296011 3.52639e-20
-0.9 0.296011 3.52639e-20 -0.9 0.300587 2.65838e-20 -0.9 0.300587 2.65838e-20
-0.9 0.305227 2.19895e-20 -0.9 0.305227 2.19895e-20 -0.9 0.309932 2.85492e-20
-0.9 0.309932 2.85492e-20 -0.9 0.314703 2.41918e-20 -0.9 0.314703 2.41918e-20
-0.9 0.31954 1.59748e-20 -0.9 0.31954 1.59748e-20 -0.9 0.324445 -1.29938e-20
-0.9 0.324445 -1.29938e-20 -0.9 0.329418 4.21561e-20 -0.9 0.329418 4.21561e-20
-0.9 0.334461 1.11419e-19 -0.9 0.334461 1.11419e-19 -0.9 0.339575 3.42564e-20
-0.9 0.339575 3.42564e-20 -0.9 0.34476 -2.11742e-20 -0.9 0.34476 -2.11742e-20
-0.9 0.347371 -2.1268e-20 -0.9 0.347371 -2.1268e-20
        </DataArray>
        <DataArray type='Float32' Name='U' NumberOfComponents='3' format='ascii'>
34.6 0 0 34.6 0 0 34.6 0 0
34.6 0 0 34.6 0 0 34.6 0 0
34.6 0 0 34.6 0 0 34.6 0 0
34.6 0 0 34.6 0 0 34.6 0 0
34.6 0 0 34.6 0 0 34.6 0 0
34.6 0 0 34.6 0 0 34.6 0 0
34.6 0 0 34.6 0 0 34.6 0 0
34.6 0 0 34.6 0 0 34.6 0 0
34.6 0 0 34.6 0 0 34.6 0 0
34.6 0 0 34.6 0 0 34.6 0 0
34.6 0 0 34.6 0 0 34.6 0 0
34.6 0 0 34.6 0 0 34.6 0 0
34.6 0 0 34.6 0 0 34.6 0 0
34.6 0 0 34.6 0 0 34.6 0 0
34.6 0 0 34.6 0 0 34.6 0 0
34.6 0 0 34.6 0 0 34.6 0 0
34.6 0 0 34.6 0 0 34.6 0 0
34.6 0 0 34.6 0 0 34.6 0 0
34.6 0 0 34.6 0 0 34.6 0 0
34.6 0 0 34.6 0 0 34.6 0 0
34.6 0 0 34.6 0 0 34.6 0 0
34.6 0 0 34.6 0 0 34.6 0 0
34.6 0 0 34.6 0 0 34.6 0 0
34.6 0 0 34.6 0 0 34.6 0 0
34.6 0 0 34.6 0 0 34.6 0 0
34.6 0 0 34.6 0 0 34.6 0 0
34.6 0 0 34.6 0 0 34.6 0 0
34.6 0 0 34.6 0 0 34.6 0 0
34.6 0 0 34.6 0 0 34.6 0 0
34.6 0 0 34.6 0 0 34.6 0 0
34.6 0 0 34.6 0 0 34.6 0 0
34.6 0 0 34.6 0 0 34.6 0 0
34.6 0 0 34.6 0 0 34.6 0 0
34.6 0 0 34.6 0 0 34.6 0 0
34.6 0 0 34.6 0 0 34.6 0 0
34.6 0 0 34.6 0 0 34.6 0 0
34.6 0 0 34.6 0 0 34.6 0 0
34.6 0 0 34.6 0 0 34.6 0 0
34.6 0 0 34.6 0 0 34.6 0 0
34.6 0 0 34.6 0 0 34.6 0 0
34.6 0 0 34.6 0 0 34.6 0 0
34.6 0 0 34.6 0 0 34.6 0 0
34.6 0 0 34.6 0 0 34.6 0 0
34.6 0 0 34.6 0 0 34.6 0 0
34.6 0 0 34.6 0 0 34.6 0 0
34.6 0 0 34.6 0 0 34.6 0 0
34.6 0 0 34.6 0 0 34.6 0 0
34.6 0 0 34.6 0 0 34.6 0 0
34.6 0 0 34.6 0 0 34.6 0 0
34.6 0 0 34.6 0 0 34.6 0 0
34.6 0 0 34.6 0 0 34.6 0 0
34.6 0 0 34.6 0 0 34.6 0 0
34.6 0 0 34.6 0 0 34.6 0 0
34.6 0 0 34.6 0 0 34.6 0 0
34.6 0 0 34.6 0 0 34.6 0 0
34.6 0 0 34.6 0 0 34.6 0 0
34.6 0 0 34.6 0 0 34.6 0 0
34.6 0 0 34.6 0 0 34.6 0 0
34.6 0 0 34.6 0 0 34.6 0 0
34.6 0 0 34.6 0 0 34.6 0 0
34.6 0 0 34.6 0 0 34.6 0 0
34.6 0 0 34.6 0 0 34.6 0 0
34.6 0 0 34.6 0 0 34.6 0 0
34.6 0 0 34.6 0 0 34.6 0 0
34.6 0 0 34.6 0 0 34.6 0 0
34.6 0 0 34.6 0 0 34.6 0 0
34.6 0 0 34.6 0 0 34.6 0 0
34.6 0 0 34.6 0 0 34.6 0 0
34.6 0 0 34.6 0 0 34.6 0 0
34.6 0 0 34.6 0 0 34.6 0 0
34.6 0 0 34.6 0 0 34.6 0 0
34.6 0 0 34.6 0 0 34.6 0 0
34.6 0 0 34.6 0 0 34.6 0 0
34.6 0 0 34.6 0 0 34.6 0 0
34.6 0 0 34.6 0 0 34.6 0 0
34.6 0 0 34.6 0 0 34.6 0 0
34.6 0 0 34.6 0 0 34.6 0 0
34.6 0 0 34.6 0 0 34.6 0 0
34.6 0 0 34.6 0 0 34.6 0 0
34.6 0 0 34.6 0 0 34.6 0 0
34.6 0 0 34.6 0 0 34.6 0 0
34.6 0 0 34.6 0 0 34.6 0 0
34.6 0 0 34.6 0 0 34.6 0 0
34.6 0 0 34.6 0 0 34.6 0 0
34.6 0 0 34.6 0 0 34.6 0 0
34.6 0 0 34.6 0 0 34.6 0 0
34.6 0 0 34.6 0 0 34.6 0 0
34.6 0 0 34.6 0 0 34.6 0 0
34.6 0 0 34.6 0 0 34.6 0 0
34.6 0 0 34.6 0 0 34.6 0 0
34.6 0 0 34.6 0 0 34.6 0 0
34.6 0 0 34.6 0 0 34.6 0 0
34.6 0 0 34.6 0 0 34.6 0 0
34.6 0 0 34.6 0 0 34.6 0 0
34.6 0 0 34.6 0 0 34.6 0 0
34.6 0 0 34.6 0 0 34.6 0 0
34.6 0 0 34.6 0 0 34.6 0 0
34.6 0 0 34.6 0 0 34.6 0 0
34.6 0 0 34.6 0 0 34.6 0 0
34.6 0 0 34.6 0 0 34.6 0 0
34.6 0 0 34.6 0 0 34.6 0 0
34.6 0 0 34.6 0 0 34.6 0 0
34.6 0 0 34.6 0 0 34.6 0 0
34.6 0 0 34.6 0 0 34.6 0 0
34.6 0 0 34.6 0 0 34.6 0 0
34.6 0 0 34.6 0 0 34.6 0 0
34.6 0 0 34.6 0 0 34.6 0 0
34.6 0 0 34.6 0 0 34.6 0 0
34.6 0 0 34.6 0 0 34.6 0 0
34.6 0 0 34.6 0 0 34.6 0 0
34.6 0 0 34.6 0 0 34.6 0 0
34.6 0 0 34.6 0 0 34.6 0 0
34.6 0 0 34.6 0 0 34.6 0 0
34.6 0 0 34.6 0 0 34.6 0 0
34.6 0 0 34.6 0 0 34.6 0 0
34.6 0 0 34.6 0 0 34.6 0 0
34.6 0 0 34.6 0 0 34.6 0 0
34.6 0 0 34.6 0 0 34.6 0 0
34.6 0 0 34.6 0 0 34.6 0 0
34.6 0 0 34.6 0 0 34.6 0 0
34.6 0 0 34.6 0 0
        </DataArray>
      </PointData>
    </Piece>
  </PolyData>
</VTKFile>
