<?xml version='1.0'?>
<!-- patch='bottomWall' time='60' index='60' -->
<VTKFile type='PolyData' version='0.1' byte_order='LittleEndian' header_type='UInt64'>
  <PolyData>
    <FieldData>
      <DataArray type='Float32' Name='TimeValue' NumberOfTuples='1' format='ascii'>
60
      </DataArray>
    </FieldData>
    <Piece NumberOfPoints='1042' NumberOfPolys='520'>
      <Points>
        <DataArray type='Float32' Name='Points' NumberOfComponents='3' format='ascii'>
-0.9 0 -0.01 -0.898901 0 -0.01 -0.898901 0 0.01
-0.9 0 0.01 -0.897373 0 -0.01 -0.897373 0 0.01
-0.895561 0 -0.01 -0.895561 0 0.01 -0.893612 0 -0.01
-0.893612 0 0.01 -0.891675 0 -0.01 -0.891675 0 0.01
-0.889896 0 -0.01 -0.889896 0 0.01 -0.8882 0 -0.01
-0.8882 0 0.01 -0.8865 0 -0.01 -0.8865 0 0.01
-0.884796 0 -0.01 -0.884796 0 0.01 -0.883089 0 -0.01
-0.883089 0 0.01 -0.881378 0 -0.01 -0.881378 0 0.01
-0.879663 0 -0.01 -0.879663 0 0.01 -0.877945 0 -0.01
-0.877945 0 0.01 -0.876223 0 -0.01 -0.876223 0 0.01
-0.874498 0 -0.01 -0.874498 0 0.01 -0.872768 0 -0.01
-0.872768 0 0.01 -0.871036 0 -0.01 -0.871036 0 0.01
-0.869299 0 -0.01 -0.869299 0 0.01 -0.867559 0 -0.01
-0.867559 0 0.01 -0.865815 0 -0.01 -0.865815 0 0.01
-0.864068 0 -0.01 -0.864068 0 0.01 -0.862316 0 -0.01
-0.862316 0 0.01 -0.860562 0 -0.01 -0.860562 0 0.01
-0.858803 0 -0.01 -0.858803 0 0.01 -0.857041 0 -0.01
-0.857041 0 0.01 -0.855274 0 -0.01 -0.855274 0 0.01
-0.853505 0 -0.01 -0.853505 0 0.01 -0.851731 0 -0.01
-0.851731 0 0.01 -0.849954 0 -0.01 -0.849954 0 0.01
-0.848172 0 -0.01 -0.848172 0 0.01 -0.846388 0 -0.01
-0.846388 0 0.01 -0.844599 0 -0.01 -0.844599 0 0.01
-0.842806 0 -0.01 -0.842806 0 0.01 -0.84101 0 -0.01
-0.84101 0 0.01 -0.83921 0 -0.01 -0.83921 0 0.01
-0.837406 0 -0.01 -0.837406 0 0.01 -0.835598 0 -0.01
-0.835598 0 0.01 -0.833787 0 -0.01 -0.833787 0 0.01
-0.831971 0 -0.01 -0.831971 0 0.01 -0.830152 0 -0.01
-0.830152 0 0.01 -0.828329 0 -0.01 -0.828329 0 0.01
-0.826502 0 -0.01 -0.826502 0 0.01 -0.824671 0 -0.01
-0.824671 0 0.01 -0.822837 0 -0.01 -0.822837 0 0.01
-0.820998 0 -0.01 -0.820998 0 0.01 -0.819156 0 -0.01
-0.819156 0 0.01 -0.817309 0 -0.01 -0.817309 0 0.01
-0.815459 0 -0.01 -0.815459 0 0.01 -0.813605 0 -0.01
-0.813605 0 0.01 -0.811746 0 -0.01 -0.811746 0 0.01
-0.809884 0 -0.01 -0.809884 0 0.01 -0.808018 0 -0.01
-0.808018 0 0.01 -0.806148 0 -0.01 -0.806148 0 0.01
-0.804274 0 -0.01 -0.804274 0 0.01 -0.802396 0 -0.01
-0.802396 0 0.01 -0.800514 0 -0.01 -0.800514 0 0.01
-0.798629 0 -0.01 -0.798629 0 0.01 -0.796739 0 -0.01
-0.796739 0 0.01 -0.794845 0 -0.01 -0.794845 0 0.01
-0.792947 0 -0.01 -0.792947 0 0.01 -0.791045 0 -0.01
-0.791045 0 0.01 -0.789139 0 -0.01 -0.789139 0 0.01
-0.787229 0 -0.01 -0.787229 0 0.01 -0.785315 0 -0.01
-0.785315 0 0.01 -0.783397 0 -0.01 -0.783397 0 0.01
-0.781475 0 -0.01 -0.781475 0 0.01 -0.779548 0 -0.01
-0.779548 0 0.01 -0.777618 0 -0.01 -0.777618 0 0.01
-0.775684 0 -0.01 -0.775684 0 0.01 -0.773745 0 -0.01
-0.773745 0 0.01 -0.771803 0 -0.01 -0.771803 0 0.01
-0.769856 0 -0.01 -0.769856 0 0.01 -0.767905 0 -0.01
-0.767905 0 0.01 -0.76595 0 -0.01 -0.76595 0 0.01
-0.763991 0 -0.01 -0.763991 0 0.01 -0.762028 0 -0.01
-0.762028 0 0.01 -0.76006 0 -0.01 -0.76006 0 0.01
-0.758088 0 -0.01 -0.758088 0 0.01 -0.756113 0 -0.01
-0.756113 0 0.01 -0.754133 0 -0.01 -0.754133 0 0.01
-0.752149 0 -0.01 -0.752149 0 0.01 -0.75016 0 -0.01
-0.75016 0 0.01 -0.748168 0 -0.01 -0.748168 0 0.01
-0.746171 0 -0.01 -0.746171 0 0.01 -0.74417 0 -0.01
-0.74417 0 0.01 -0.742164 0 -0.01 -0.742164 0 0.01
-0.740155 0 -0.01 -0.740155 0 0.01 -0.738141 0 -0.01
-0.738141 0 0.01 -0.736123 0 -0.01 -0.736123 0 0.01
-0.734101 0 -0.01 -0.734101 0 0.01 -0.732074 0 -0.01
-0.732074 0 0.01 -0.730043 0 -0.01 -0.730043 0 0.01
-0.728008 0 -0.01 -0.728008 0 0.01 -0.725968 0 -0.01
-0.725968 0 0.01 -0.723924 0 -0.01 -0.723924 0 0.01
-0.721876 0 -0.01 -0.721876 0 0.01 -0.719824 0 -0.01
-0.719824 0 0.01 -0.717767 0 -0.01 -0.717767 0 0.01
-0.715706 0 -0.01 -0.715706 0 0.01 -0.71364 0 -0.01
-0.71364 0 0.01 -0.71157 0 -0.01 -0.71157 0 0.01
-0.709496 0 -0.01 -0.709496 0 0.01 -0.707417 0 -0.01
-0.707417 0 0.01 -0.705334 0 -0.01 -0.705334 0 0.01
-0.703246 0 -0.01 -0.703246 0 0.01 -0.701154 0 -0.01
-0.701154 0 0.01 -0.699058 0 -0.01 -0.699058 0 0.01
-0.696957 0 -0.01 -0.696957 0 0.01 -0.694851 0 -0.01
-0.694851 0 0.01 -0.692742 0 -0.01 -0.692742 0 0.01
-0.690627 0 -0.01 -0.690627 0 0.01 -0.688509 0 -0.01
-0.688509 0 0.01 -0.686385 0 -0.01 -0.686385 0 0.01
-0.684258 0 -0.01 -0.684258 0 0.01 -0.682125 0 -0.01
-0.682125 0 0.01 -0.679989 0 -0.01 -0.679989 0 0.01
-0.677847 0 -0.01 -0.677847 0 0.01 -0.675701 0 -0.01
-0.675701 0 0.01 -0.673551 0 -0.01 -0.673551 0 0.01
-0.671396 0 -0.01 -0.671396 0 0.01 -0.669237 0 -0.01
-0.669237 0 0.01 -0.667073 0 -0.01 -0.667073 0 0.01
-0.664904 0 -0.01 -0.664904 0 0.01 -0.662731 0 -0.01
-0.662731 0 0.01 -0.660553 0 -0.01 -0.660553 0 0.01
-0.65837 0 -0.01 -0.65837 0 0.01 -0.656183 0 -0.01
-0.656183 0 0.01 -0.653991 0 -0.01 -0.653991 0 0.01
-0.651795 0 -0.01 -0.651795 0 0.01 -0.649594 0 -0.01
-0.649594 0 0.01 -0.647388 0 -0.01 -0.647388 0 0.01
-0.645178 0 -0.01 -0.645178 0 0.01 -0.642963 0 -0.01
-0.642963 0 0.01 -0.640743 0 -0.01 -0.640743 0 0.01
-0.638519 0 -0.01 -0.638519 0 0.01 -0.636289 0 -0.01
-0.636289 0 0.01 -0.634056 0 -0.01 -0.634056 0 0.01
-0.631817 0 -0.01 -0.631817 0 0.01 -0.629574 0 -0.01
-0.629574 0 0.01 -0.627325 0 -0.01 -0.627325 0 0.01
-0.625073 0 -0.01 -0.625073 0 0.01 -0.622815 0 -0.01
-0.622815 0 0.01 -0.620552 0 -0.01 -0.620552 0 0.01
-0.618285 0 -0.01 -0.618285 0 0.01 -0.616013 0 -0.01
-0.616013 0 0.01 -0.613736 0 -0.01 -0.613736 0 0.01
-0.611455 0 -0.01 -0.611455 0 0.01 -0.609168 0 -0.01
-0.609168 0 0.01 -0.606877 0 -0.01 -0.606877 0 0.01
-0.604581 0 -0.01 -0.604581 0 0.01 -0.602279 0 -0.01
-0.602279 0 0.01 -0.599973 0 -0.01 -0.599973 0 0.01
-0.597663 0 -0.01 -0.597663 0 0.01 -0.595347 0 -0.01
-0.595347 0 0.01 -0.593026 0 -0.01 -0.593026 0 0.01
-0.590701 0 -0.01 -0.590701 0 0.01 -0.58837 0 -0.01
-0.58837 0 0.01 -0.586035 0 -0.01 -0.586035 0 0.01
-0.583694 0 -0.01 -0.583694 0 0.01 -0.581349 0 -0.01
-0.581349 0 0.01 -0.578999 0 -0.01 -0.578999 0 0.01
-0.576643 0 -0.01 -0.576643 0 0.01 -0.574283 0 -0.01
-0.574283 0 0.01 -0.571918 0 -0.01 -0.571918 0 0.01
-0.569547 0 -0.01 -0.569547 0 0.01 -0.567172 0 -0.01
-0.567172 0 0.01 -0.564792 0 -0.01 -0.564792 0 0.01
-0.562406 0 -0.01 -0.562406 0 0.01 -0.560016 0 -0.01
-0.560016 0 0.01 -0.55762 0 -0.01 -0.55762 0 0.01
-0.55522 0 -0.01 -0.55522 0 0.01 -0.552814 0 -0.01
-0.552814 0 0.01 -0.550403 0 -0.01 -0.550403 0 0.01
-0.547987 0 -0.01 -0.547987 0 0.01 -0.545566 0 -0.01
-0.545566 0 0.01 -0.54314 0 -0.01 -0.54314 0 0.01
-0.540709 0 -0.01 -0.540709 0 0.01 -0.538273 0 -0.01
-0.538273 0 0.01 -0.535831 0 -0.01 -0.535831 0 0.01
-0.533384 0 -0.01 -0.533384 0 0.01 -0.530932 0 -0.01
-0.530932 0 0.01 -0.528475 0 -0.01 -0.528475 0 0.01
-0.526013 0 -0.01 -0.526013 0 0.01 -0.523545 0 -0.01
-0.523545 0 0.01 -0.521072 0 -0.01 -0.521072 0 0.01
-0.518594 0 -0.01 -0.518594 0 0.01 -0.516111 0 -0.01
-0.516111 0 0.01 -0.513623 0 -0.01 -0.513623 0 0.01
-0.511129 0 -0.01 -0.511129 0 0.01 -0.50863 0 -0.01
-0.50863 0 0.01 -0.506125 0 -0.01 -0.506125 0 0.01
-0.503615 0 -0.01 -0.503615 0 0.01 -0.5011 0 -0.01
-0.5011 0 0.01 -0.49858 0 -0.01 -0.49858 0 0.01
-0.496054 0 -0.01 -0.496054 0 0.01 -0.493523 0 -0.01
-0.493523 0 0.01 -0.490987 0 -0.01 -0.490987 0 0.01
-0.488445 0 -0.01 -0.488445 0 0.01 -0.485898 0 -0.01
-0.485898 0 0.01 -0.483345 0 -0.01 -0.483345 0 0.01
-0.480787 0 -0.01 -0.480787 0 0.01 -0.478224 0 -0.01
-0.478224 0 0.01 -0.475655 0 -0.01 -0.475655 0 0.01
-0.473081 0 -0.01 -0.473081 0 0.01 -0.470501 0 -0.01
-0.470501 0 0.01 -0.467916 0 -0.01 -0.467916 0 0.01
-0.465325 0 -0.01 -0.465325 0 0.01 -0.462729 0 -0.01
-0.462729 0 0.01 -0.460127 0 -0.01 -0.460127 0 0.01
-0.45752 0 -0.01 -0.45752 0 0.01 -0.454907 0 -0.01
-0.454907 0 0.01 -0.452289 0 -0.01 -0.452289 0 0.01
-0.449665 0 -0.01 -0.449665 0 0.01 -0.447036 0 -0.01
-0.447036 0 0.01 -0.444401 0 -0.01 -0.444401 0 0.01
-0.441761 0 -0.01 -0.441761 0 0.01 -0.439114 0 -0.01
-0.439114 0 0.01 -0.436463 0 -0.01 -0.436463 0 0.01
-0.433805 0 -0.01 -0.433805 0 0.01 -0.431142 0 -0.01
-0.431142 0 0.01 -0.428474 0 -0.01 -0.428474 0 0.01
-0.4258 0 -0.01 -0.4258 0 0.01 -0.42312 0 -0.01
-0.42312 0 0.01 -0.420434 0 -0.01 -0.420434 0 0.01
-0.417743 0 -0.01 -0.417743 0 0.01 -0.415046 0 -0.01
-0.415046 0 0.01 -0.412343 0 -0.01 -0.412343 0 0.01
-0.409635 0 -0.01 -0.409635 0 0.01 -0.40692 0 -0.01
-0.40692 0 0.01 -0.4042 0 -0.01 -0.4042 0 0.01
-0.401475 0 -0.01 -0.401475 0 0.01 -0.398743 0 -0.01
-0.398743 0 0.01 -0.396006 0 -0.01 -0.396006 0 0.01
-0.393263 0 -0.01 -0.393263 0 0.01 -0.390514 0 -0.01
-0.390514 0 0.01 -0.387759 0 -0.01 -0.387759 0 0.01
-0.384999 0 -0.01 -0.384999 0 0.01 -0.382233 0 -0.01
-0.382233 0 0.01 -0.37946 0 -0.01 -0.37946 0 0.01
-0.376682 0 -0.01 -0.376682 0 0.01 -0.373898 0 -0.01
-0.373898 0 0.01 -0.371108 0 -0.01 -0.371108 0 0.01
-0.368312 0 -0.01 -0.368312 0 0.01 -0.365511 0 -0.01
-0.365511 0 0.01 -0.362703 0 -0.01 -0.362703 0 0.01
-0.359889 0 -0.01 -0.359889 0 0.01 -0.35707 0 -0.01
-0.35707 0 0.01 -0.354244 0 -0.01 -0.354244 0 0.01
-0.351413 0 -0.01 -0.351413 0 0.01 -0.348575 0 -0.01
-0.348575 0 0.01 -0.345731 0 -0.01 -0.345731 0 0.01
-0.342882 0 -0.01 -0.342882 0 0.01 -0.340026 0 -0.01
-0.340026 0 0.01 -0.337165 0 -0.01 -0.337165 0 0.01
-0.334297 0 -0.01 -0.334297 0 0.01 -0.331423 0 -0.01
-0.331423 0 0.01 -0.328543 0 -0.01 -0.328543 0 0.01
-0.325657 0 -0.01 -0.325657 0 0.01 -0.322765 0 -0.01
-0.322765 0 0.01 -0.319867 0 -0.01 -0.319867 0 0.01
-0.316962 0 -0.01 -0.316962 0 0.01 -0.314052 0 -0.01
-0.314052 0 0.01 -0.311135 0 -0.01 -0.311135 0 0.01
-0.308212 0 -0.01 -0.308212 0 0.01 -0.305283 0 -0.01
-0.305283 0 0.01 -0.302348 0 -0.01 -0.302348 0 0.01
-0.299406 0 -0.01 -0.299406 0 0.01 -0.296458 0 -0.01
-0.296458 0 0.01 -0.293504 0 -0.01 -0.293504 0 0.01
-0.290544 0 -0.01 -0.290544 0 0.01 -0.287578 0 -0.01
-0.287578 0 0.01 -0.284605 0 -0.01 -0.284605 0 0.01
-0.281626 0 -0.01 -0.281626 0 0.01 -0.27864 0 -0.01
-0.27864 0 0.01 -0.275648 0 -0.01 -0.275648 0 0.01
-0.27265 0 -0.01 -0.27265 0 0.01 -0.269646 0 -0.01
-0.269646 0 0.01 -0.266635 0 -0.01 -0.266635 0 0.01
-0.263618 0 -0.01 -0.263618 0 0.01 -0.260594 0 -0.01
-0.260594 0 0.01 -0.257564 0 -0.01 -0.257564 0 0.01
-0.254528 0 -0.01 -0.254528 0 0.01 -0.251485 0 -0.01
-0.251485 0 0.01 -0.248436 0 -0.01 -0.248436 0 0.01
-0.24538 0 -0.01 -0.24538 0 0.01 -0.242318 0 -0.01
-0.242318 0 0.01 -0.239249 0 -0.01 -0.239249 0 0.01
-0.236174 0 -0.01 -0.236174 0 0.01 -0.233092 0 -0.01
-0.233092 0 0.01 -0.230004 0 -0.01 -0.230004 0 0.01
-0.226909 0 -0.01 -0.226909 0 0.01 -0.223807 0 -0.01
-0.223807 0 0.01 -0.220699 0 -0.01 -0.220699 0 0.01
-0.217585 0 -0.01 -0.217585 0 0.01 -0.214464 0 -0.01
-0.214464 0 0.01 -0.211336 0 -0.01 -0.211336 0 0.01
-0.208202 0 -0.01 -0.208202 0 0.01 -0.205061 0 -0.01
-0.205061 0 0.01 -0.201913 0 -0.01 -0.201913 0 0.01
-0.198759 0 -0.01 -0.198759 0 0.01 -0.195598 0 -0.01
-0.195598 0 0.01 -0.19243 0 -0.01 -0.19243 0 0.01
-0.189255 0 -0.01 -0.189255 0 0.01 -0.186074 0 -0.01
-0.186074 0 0.01 -0.182886 0 -0.01 -0.182886 0 0.01
-0.179692 0 -0.01 -0.179692 0 0.01 -0.17649 0 -0.01
-0.17649 0 0.01 -0.173282 0 -0.01 -0.173282 0 0.01
-0.170067 0 -0.01 -0.170067 0 0.01 -0.166845 0 -0.01
-0.166845 0 0.01 -0.163616 0 -0.01 -0.163616 0 0.01
-0.160381 0 -0.01 -0.160381 0 0.01 -0.157139 0 -0.01
-0.157139 0 0.01 -0.153889 0 -0.01 -0.153889 0 0.01
-0.150633 0 -0.01 -0.150633 0 0.01 -0.14737 0 -0.01
-0.14737 0 0.01 -0.1441 0 -0.01 -0.1441 0 0.01
-0.140823 0 -0.01 -0.140823 0 0.01 -0.13754 0 -0.01
-0.13754 0 0.01 -0.134249 0 -0.01 -0.134249 0 0.01
-0.130951 0 -0.01 -0.130951 0 0.01 -0.127646 0 -0.01
-0.127646 0 0.01 -0.124335 0 -0.01 -0.124335 0 0.01
-0.121016 0 -0.01 -0.121016 0 0.01 -0.11769 0 -0.01
-0.11769 0 0.01 -0.114357 0 -0.01 -0.114357 0 0.01
-0.111017 0 -0.01 -0.111017 0 0.01 -0.107671 0 -0.01
-0.107671 0 0.01 -0.104316 0 -0.01 -0.104316 0 0.01
-0.100955 0 -0.01 -0.100955 0 0.01 -0.097587 0 -0.01
-0.097587 0 0.01 -0.0942116 0 -0.01 -0.0942116 0 0.01
-0.090829 0 -0.01 -0.090829 0 0.01 -0.0874393 0 -0.01
-0.0874393 0 0.01 -0.0840424 0 -0.01 -0.0840424 0 0.01
-0.0806383 0 -0.01 -0.0806383 0 0.01 -0.0772269 0 -0.01
-0.0772269 0 0.01 -0.0738084 0 -0.01 -0.0738084 0 0.01
-0.0703826 0 -0.01 -0.0703826 0 0.01 -0.0669495 0 -0.01
-0.0669495 0 0.01 -0.0635091 0 -0.01 -0.0635091 0 0.01
-0.0600615 0 -0.01 -0.0600615 0 0.01 -0.0566066 0 -0.01
-0.0566066 0 0.01 -0.0531443 0 -0.01 -0.0531443 0 0.01
-0.0496747 0 -0.01 -0.0496747 0 0.01 -0.0461978 0 -0.01
-0.0461978 0 0.01 -0.0427135 0 -0.01 -0.0427135 0 0.01
-0.0392218 0 -0.01 -0.0392218 0 0.01 -0.0357227 0 -0.01
-0.0357227 0 0.01 -0.0322161 0 -0.01 -0.0322161 0 0.01
-0.0287022 0 -0.01 -0.0287022 0 0.01 -0.0251808 0 -0.01
-0.0251808 0 0.01 -0.021652 0 -0.01 -0.021652 0 0.01
-0.0181156 0 -0.01 -0.0181156 0 0.01 -0.0145718 -4.72678e-07 -0.01
-0.0145718 -4.72678e-07 0.01 -0.0110205 -1.60976e-06 -0.01 -0.0110205 -1.60976e-06 0.01
-0.00746162 -4.19662e-07 -0.01 -0.00746162 -4.19662e-07 0.01 -0.00389523 -9.30144e-06 -0.01
-0.00389523 -9.30144e-06 0.01 -0.000321283 -1.65032e-05 -0.01 -0.000321283 -1.65032e-05 0.01
0.00325972 3.49333e-05 -0.01 0.00325972 3.49333e-05 0.01 0.00684516 0.000149506 -0.01
0.00684516 0.000149506 0.01 0.0104382 0.000325491 -0.01 0.0104382 0.000325491 0.01
0.0140327 0.0005816 -0.01 0.0140327 0.0005816 0.01 0.0176259 0.000916238 -0.01
0.0176259 0.000916238 0.01 0.0212267 0.00132532 -0.01 0.0212267 0.00132532 0.01
0.0248181 0.00180526 -0.01 0.0248181 0.00180526 0.01 0.028409 0.00235799 -0.01
0.028409 0.00235799 0.01 0.0320075 0.00298045 -0.01 0.0320075 0.00298045 0.01
0.0355825 0.00366637 -0.01 0.0355825 0.00366637 0.01 0.0391635 0.00442042 -0.01
0.0391635 0.00442042 0.01 0.0427444 0.00523535 -0.01 0.0427444 0.00523535 0.01
0.0463035 0.00610753 -0.01 0.0463035 0.00610753 0.01 0.0498703 0.00704017 -0.01
0.0498703 0.00704017 0.01 0.0534272 0.00802253 -0.01 0.0534272 0.00802253 0.01
0.0569711 0.00905633 -0.01 0.0569711 0.00905633 0.01 0.0605225 0.0101409 -0.01
0.0605225 0.0101409 0.01 0.0640569 0.0112636 -0.01 0.0640569 0.0112636 0.01
0.0675877 0.0124314 -0.01 0.0675877 0.0124314 0.01 0.071126 0.0136388 -0.01
0.071126 0.0136388 0.01 0.074644 0.0148742 -0.01 0.074644 0.0148742 0.01
0.0781667 0.0161467 -0.01 0.0781667 0.0161467 0.01 0.0816939 0.0174461 -0.01
0.0816939 0.0174461 0.01 0.0852084 0.0187674 -0.01 0.0852084 0.0187674 0.01
0.0887303 0.0201149 -0.01 0.0887303 0.0201149 0.01 0.0922548 0.0214768 -0.01
0.0922548 0.0214768 0.01 0.0957774 0.0228553 -0.01 0.0957774 0.0228553 0.01
0.0993075 0.0242473 -0.01 0.0993075 0.0242473 0.01 0.102843 0.0256435 -0.01
0.102843 0.0256435 0.01 0.106383 0.0270488 -0.01 0.106383 0.0270488 0.01
0.109931 0.0284541 -0.01 0.109931 0.0284541 0.01 0.113492 0.0298562 -0.01
0.113492 0.0298562 0.01 0.117061 0.0312565 -0.01 0.117061 0.0312565 0.01
0.120639 0.0326432 -0.01 0.120639 0.0326432 0.01 0.124239 0.0340214 -0.01
0.124239 0.0340214 0.01 0.127847 0.0353833 -0.01 0.127847 0.0353833 0.01
0.131471 0.0367209 -0.01 0.131471 0.0367209 0.01 0.135119 0.0380404 -0.01
0.135119 0.0380404 0.01 0.138776 0.0393285 -0.01 0.138776 0.0393285 0.01
0.142461 0.0405845 -0.01 0.142461 0.0405845 0.01 0.146165 0.0418079 -0.01
0.146165 0.0418079 0.01 0.149878 0.0429847 -0.01 0.149878 0.0429847 0.01
0.153636 0.0441237 -0.01 0.153636 0.0441237 0.01 0.157403 0.0452119 -0.01
0.157403 0.0452119 0.01 0.161193 0.0462435 -0.01 0.161193 0.0462435 0.01
0.165016 0.0472224 -0.01 0.165016 0.0472224 0.01 0.168847 0.0481351 -0.01
0.168847 0.0481351 0.01 0.172718 0.0489834 -0.01 0.172718 0.0489834 0.01
0.176605 0.0497617 -0.01 0.176605 0.0497617 0.01 0.180511 0.0504623 -0.01
0.180511 0.0504623 0.01 0.184449 0.0510873 -0.01 0.184449 0.0510873 0.01
0.188395 0.0516281 -0.01 0.188395 0.0516281 0.01 0.192371 0.0520833 -0.01
0.192371 0.0520833 0.01 0.19636 0.0524503 -0.01 0.19636 0.0524503 0.01
0.200363 0.0527249 -0.01 0.200363 0.0527249 0.01 0.204384 0.0529063 -0.01
0.204384 0.0529063 0.01 0.208414 0.0529925 -0.01 0.208414 0.0529925 0.01
0.212454 0.0529819 -0.01 0.212454 0.0529819 0.01 0.216502 0.0528745 -0.01
0.216502 0.0528745 0.01 0.220553 0.0526705 -0.01 0.220553 0.0526705 0.01
0.224607 0.0523694 -0.01 0.224607 0.0523694 0.01 0.228668 0.0519734 -0.01
0.228668 0.0519734 0.01 0.232715 0.0514845 -0.01 0.232715 0.0514845 0.01
0.23677 0.0509026 -0.01 0.23677 0.0509026 0.01 0.240813 0.0502345 -0.01
0.240813 0.0502345 0.01 0.244851 0.0494783 -0.01 0.244851 0.0494783 0.01
0.24889 0.0486406 -0.01 0.24889 0.0486406 0.01 0.252906 0.0477256 -0.01
0.252906 0.0477256 0.01 0.25693 0.0467322 -0.01 0.25693 0.0467322 0.01
0.26093 0.0456738 -0.01 0.26093 0.0456738 0.01 0.264929 0.0445443 -0.01
0.264929 0.0445443 0.01 0.268923 0.0433551 -0.01 0.268923 0.0433551 0.01
0.272896 0.0421092 -0.01 0.272896 0.0421092 0.01 0.276879 0.0408062 -0.01
0.276879 0.0408062 0.01 0.280838 0.0394619 -0.01 0.280838 0.0394619 0.01
0.2848 0.0380679 -0.01 0.2848 0.0380679 0.01 0.28876 0.0366385 -0.01
0.28876 0.0366385 0.01 0.29271 0.0351735 -0.01 0.29271 0.0351735 0.01
0.296667 0.0336765 -0.01 0.296667 0.0336765 0.01 0.300616 0.0321595 -0.01
0.300616 0.0321595 0.01 0.30457 0.0306169 -0.01 0.30457 0.0306169 0.01
0.308529 0.0290628 -0.01 0.308529 0.0290628 0.01 0.31249 0.0274943 -0.01
0.31249 0.0274943 0.01 0.31646 0.0259208 -0.01 0.31646 0.0259208 0.01
0.320441 0.0243463 -0.01 0.320441 0.0243463 0.01 0.32443 0.0227728 -0.01
0.32443 0.0227728 0.01 0.328433 0.0212116 -0.01 0.328433 0.0212116 0.01
0.332453 0.0196588 -0.01 0.332453 0.0196588 0.01 0.336481 0.01813 -0.01
0.336481 0.01813 0.01 0.340542 0.0166194 -0.01 0.340542 0.0166194 0.01
0.344611 0.01514 -0.01 0.344611 0.01514 0.01 0.34871 0.0136966 -0.01
0.34871 0.0136966 0.01 0.35283 0.0122897 -0.01 0.35283 0.0122897 0.01
0.356969 0.0109346 -0.01 0.356969 0.0109346 0.01 0.361147 0.00962449 -0.01
0.361147 0.00962449 0.01 0.365334 0.00837807 -0.01 0.365334 0.00837807 0.01
0.36957 0.00719118 -0.01 0.36957 0.00719118 0.01 0.37382 0.00607562 -0.01
0.37382 0.00607562 0.01 0.378105 0.00503761 -0.01 0.378105 0.00503761 0.01
0.382417 0.0040788 -0.01 0.382417 0.0040788 0.01 0.386752 0.00321161 -0.01
0.386752 0.00321161 0.01 0.391124 0.00243432 -0.01 0.391124 0.00243432 0.01
0.395508 0.00175908 -0.01 0.395508 0.00175908 0.01 0.399933 0.00118553 -0.01
0.399933 0.00118553 0.01 0.404366 0.000721293 -0.01 0.404366 0.000721293 0.01
0.408828 0.000372581 -0.01 0.408828 0.000372581 0.01 0.413303 0.000136527 -0.01
0.413303 0.000136527 0.01 0.417792 1.53545e-05 -0.01 0.417792 1.53545e-05 0.01
0.422293 2.24238e-06 -0.01 0.422293 2.24238e-06 0.01 0.426804 -5.16471e-06 -0.01
0.426804 -5.16471e-06 0.01 0.431325 -2.75699e-06 -0.01 0.431325 -2.75699e-06 0.01
0.435855 0 -0.01 0.435855 0 0.01 0.440395 0 -0.01
0.440395 0 0.01 0.444944 0 -0.01 0.444944 0 0.01
0.449503 0 -0.01 0.449503 0 0.01 0.454072 0 -0.01
0.454072 0 0.01 0.45865 0 -0.01 0.45865 0 0.01
0.463238 0 -0.01 0.463238 0 0.01 0.467836 0 -0.01
0.467836 0 0.01 0.472443 0 -0.01 0.472443 0 0.01
0.477061 0 -0.01 0.477061 0 0.01 0.481688 0 -0.01
0.481688 0 0.01 0.486324 0 -0.01 0.486324 0 0.01
0.490971 0 -0.01 0.490971 0 0.01 0.495628 0 -0.01
0.495628 0 0.01 0.500294 0 -0.01 0.500294 0 0.01
0.50497 0 -0.01 0.50497 0 0.01 0.509657 0 -0.01
0.509657 0 0.01 0.514353 0 -0.01 0.514353 0 0.01
0.519059 0 -0.01 0.519059 0 0.01 0.523775 0 -0.01
0.523775 0 0.01 0.528501 0 -0.01 0.528501 0 0.01
0.533237 0 -0.01 0.533237 0 0.01 0.537983 0 -0.01
0.537983 0 0.01 0.542739 0 -0.01 0.542739 0 0.01
0.547505 0 -0.01 0.547505 0 0.01 0.552282 0 -0.01
0.552282 0 0.01 0.557068 0 -0.01 0.557068 0 0.01
0.561865 0 -0.01 0.561865 0 0.01 0.566672 0 -0.01
0.566672 0 0.01 0.571488 0 -0.01 0.571488 0 0.01
0.576316 0 -0.01 0.576316 0 0.01 0.581153 0 -0.01
0.581153 0 0.01 0.586001 0 -0.01 0.586001 0 0.01
0.590859 0 -0.01 0.590859 0 0.01 0.595727 0 -0.01
0.595727 0 0.01 0.600605 0 -0.01 0.600605 0 0.01
0.605494 0 -0.01 0.605494 0 0.01 0.610393 0 -0.01
0.610393 0 0.01 0.615303 0 -0.01 0.615303 0 0.01
0.620223 0 -0.01 0.620223 0 0.01 0.625153 0 -0.01
0.625153 0 0.01 0.630094 0 -0.01 0.630094 0 0.01
0.635046 0 -0.01 0.635046 0 0.01 0.640007 0 -0.01
0.640007 0 0.01 0.64498 0 -0.01 0.64498 0 0.01
0.649963 0 -0.01 0.649963 0 0.01 0.654956 0 -0.01
0.654956 0 0.01 0.65996 0 -0.01 0.65996 0 0.01
0.665573 0 -0.01 0.665573 0 0.01 0.67 0 -0.01
0.67 0 0.01
        </DataArray>
      </Points>
      <Polys>
        <DataArray type='Int32' Name='connectivity' format='ascii'>
0 1 2 3 1 4 5 2 4
6 7 5 6 8 9 7 8 10
11 9 10 12 13 11 12 14 15
13 14 16 17 15 16 18 19 17
18 20 21 19 20 22 23 21 22
24 25 23 24 26 27 25 26 28
29 27 28 30 31 29 30 32 33
31 32 34 35 33 34 36 37 35
36 38 39 37 38 40 41 39 40
42 43 41 42 44 45 43 44 46
47 45 46 48 49 47 48 50 51
49 50 52 53 51 52 54 55 53
54 56 57 55 56 58 59 57 58
60 61 59 60 62 63 61 62 64
65 63 64 66 67 65 66 68 69
67 68 70 71 69 70 72 73 71
72 74 75 73 74 76 77 75 76
78 79 77 78 80 81 79 80 82
83 81 82 84 85 83 84 86 87
85 86 88 89 87 88 90 91 89
90 92 93 91 92 94 95 93 94
96 97 95 96 98 99 97 98 100
101 99 100 102 103 101 102 104 105
103 104 106 107 105 106 108 109 107
108 110 111 109 110 112 113 111 112
114 115 113 114 116 117 115 116 118
119 117 118 120 121 119 120 122 123
121 122 124 125 123 124 126 127 125
126 128 129 127 128 130 131 129 130
132 133 131 132 134 135 133 134 136
137 135 136 138 139 137 138 140 141
139 140 142 143 141 142 144 145 143
144 146 147 145 146 148 149 147 148
150 151 149 150 152 153 151 152 154
155 153 154 156 157 155 156 158 159
157 158 160 161 159 160 162 163 161
162 164 165 163 164 166 167 165 166
168 169 167 168 170 171 169 170 172
173 171 172 174 175 173 174 176 177
175 176 178 179 177 178 180 181 179
180 182 183 181 182 184 185 183 184
186 187 185 186 188 189 187 188 190
191 189 190 192 193 191 192 194 195
193 194 196 197 195 196 198 199 197
198 200 201 199 200 202 203 201 202
204 205 203 204 206 207 205 206 208
209 207 208 210 211 209 210 212 213
211 212 214 215 213 214 216 217 215
216 218 219 217 218 220 221 219 220
222 223 221 222 224 225 223 224 226
227 225 226 228 229 227 228 230 231
229 230 232 233 231 232 234 235 233
234 236 237 235 236 238 239 237 238
240 241 239 240 242 243 241 242 244
245 243 244 246 247 245 246 248 249
247 248 250 251 249 250 252 253 251
252 254 255 253 254 256 257 255 256
258 259 257 258 260 261 259 260 262
263 261 262 264 265 263 264 266 267
265 266 268 269 267 268 270 271 269
270 272 273 271 272 274 275 273 274
276 277 275 276 278 279 277 278 280
281 279 280 282 283 281 282 284 285
283 284 286 287 285 286 288 289 287
288 290 291 289 290 292 293 291 292
294 295 293 294 296 297 295 296 298
299 297 298 300 301 299 300 302 303
301 302 304 305 303 304 306 307 305
306 308 309 307 308 310 311 309 310
312 313 311 312 314 315 313 314 316
317 315 316 318 319 317 318 320 321
319 320 322 323 321 322 324 325 323
324 326 327 325 326 328 329 327 328
330 331 329 330 332 333 331 332 334
335 333 334 336 337 335 336 338 339
337 338 340 341 339 340 342 343 341
342 344 345 343 344 346 347 345 346
348 349 347 348 350 351 349 350 352
353 351 352 354 355 353 354 356 357
355 356 358 359 357 358 360 361 359
360 362 363 361 362 364 365 363 364
366 367 365 366 368 369 367 368 370
371 369 370 372 373 371 372 374 375
373 374 376 377 375 376 378 379 377
378 380 381 379 380 382 383 381 382
384 385 383 384 386 387 385 386 388
389 387 388 390 391 389 390 392 393
391 392 394 395 393 394 396 397 395
396 398 399 397 398 400 401 399 400
402 403 401 402 404 405 403 404 406
407 405 406 408 409 407 408 410 411
409 410 412 413 411 412 414 415 413
414 416 417 415 416 418 419 417 418
420 421 419 420 422 423 421 422 424
425 423 424 426 427 425 426 428 429
427 428 430 431 429 430 432 433 431
432 434 435 433 434 436 437 435 436
438 439 437 438 440 441 439 440 442
443 441 442 444 445 443 444 446 447
445 446 448 449 447 448 450 451 449
450 452 453 451 452 454 455 453 454
456 457 455 456 458 459 457 458 460
461 459 460 462 463 461 462 464 465
463 464 466 467 465 466 468 469 467
468 470 471 469 470 472 473 471 472
474 475 473 474 476 477 475 476 478
479 477 478 480 481 479 480 482 483
481 482 484 485 483 484 486 487 485
486 488 489 487 488 490 491 489 490
492 493 491 492 494 495 493 494 496
497 495 496 498 499 497 498 500 501
499 500 502 503 501 502 504 505 503
504 506 507 505 506 508 509 507 508
510 511 509 510 512 513 511 512 514
515 513 514 516 517 515 516 518 519
517 518 520 521 519 520 522 523 521
522 524 525 523 524 526 527 525 526
528 529 527 528 530 531 529 530 532
533 531 532 534 535 533 534 536 537
535 536 538 539 537 538 540 541 539
540 542 543 541 542 544 545 543 544
546 547 545 546 548 549 547 548 550
551 549 550 552 553 551 552 554 555
553 554 556 557 555 556 558 559 557
558 560 561 559 560 562 563 561 562
564 565 563 564 566 567 565 566 568
569 567 568 570 571 569 570 572 573
571 572 574 575 573 574 576 577 575
576 578 579 577 578 580 581 579 580
582 583 581 582 584 585 583 584 586
587 585 586 588 589 587 588 590 591
589 590 592 593 591 592 594 595 593
594 596 597 595 596 598 599 597 598
600 601 599 600 602 603 601 602 604
605 603 604 606 607 605 606 608 609
607 608 610 611 609 610 612 613 611
612 614 615 613 614 616 617 615 616
618 619 617 618 620 621 619 620 622
623 621 622 624 625 623 624 626 627
625 626 628 629 627 628 630 631 629
630 632 633 631 632 634 635 633 634
636 637 635 636 638 639 637 638 640
641 639 640 642 643 641 642 644 645
643 644 646 647 645 646 648 649 647
648 650 651 649 650 652 653 651 652
654 655 653 654 656 657 655 656 658
659 657 658 660 661 659 660 662 663
661 662 664 665 663 664 666 667 665
666 668 669 667 668 670 671 669 670
672 673 671 672 674 675 673 674 676
677 675 676 678 679 677 678 680 681
679 680 682 683 681 682 684 685 683
684 686 687 685 686 688 689 687 688
690 691 689 690 692 693 691 692 694
695 693 694 696 697 695 696 698 699
697 698 700 701 699 700 702 703 701
702 704 705 703 704 706 707 705 706
708 709 707 708 710 711 709 710 712
713 711 712 714 715 713 714 716 717
715 716 718 719 717 718 720 721 719
720 722 723 721 722 724 725 723 724
726 727 725 726 728 729 727 728 730
731 729 730 732 733 731 732 734 735
733 734 736 737 735 736 738 739 737
738 740 741 739 740 742 743 741 742
744 745 743 744 746 747 745 746 748
749 747 748 750 751 749 750 752 753
751 752 754 755 753 754 756 757 755
756 758 759 757 758 760 761 759 760
762 763 761 762 764 765 763 764 766
767 765 766 768 769 767 768 770 771
769 770 772 773 771 772 774 775 773
774 776 777 775 776 778 779 777 778
780 781 779 780 782 783 781 782 784
785 783 784 786 787 785 786 788 789
787 788 790 791 789 790 792 793 791
792 794 795 793 794 796 797 795 796
798 799 797 798 800 801 799 800 802
803 801 802 804 805 803 804 806 807
805 806 808 809 807 808 810 811 809
810 812 813 811 812 814 815 813 814
816 817 815 816 818 819 817 818 820
821 819 820 822 823 821 822 824 825
823 824 826 827 825 826 828 829 827
828 830 831 829 830 832 833 831 832
834 835 833 834 836 837 835 836 838
839 837 838 840 841 839 840 842 843
841 842 844 845 843 844 846 847 845
846 848 849 847 848 850 851 849 850
852 853 851 852 854 855 853 854 856
857 855 856 858 859 857 858 860 861
859 860 862 863 861 862 864 865 863
864 866 867 865 866 868 869 867 868
870 871 869 870 872 873 871 872 874
875 873 874 876 877 875 876 878 879
877 878 880 881 879 880 882 883 881
882 884 885 883 884 886 887 885 886
888 889 887 888 890 891 889 890 892
893 891 892 894 895 893 894 896 897
895 896 898 899 897 898 900 901 899
900 902 903 901 902 904 905 903 904
906 907 905 906 908 909 907 908 910
911 909 910 912 913 911 912 914 915
913 914 916 917 915 916 918 919 917
918 920 921 919 920 922 923 921 922
924 925 923 924 926 927 925 926 928
929 927 928 930 931 929 930 932 933
931 932 934 935 933 934 936 937 935
936 938 939 937 938 940 941 939 940
942 943 941 942 944 945 943 944 946
947 945 946 948 949 947 948 950 951
949 950 952 953 951 952 954 955 953
954 956 957 955 956 958 959 957 958
960 961 959 960 962 963 961 962 964
965 963 964 966 967 965 966 968 969
967 968 970 971 969 970 972 973 971
972 974 975 973 974 976 977 975 976
978 979 977 978 980 981 979 980 982
983 981 982 984 985 983 984 986 987
985 986 988 989 987 988 990 991 989
990 992 993 991 992 994 995 993 994
996 997 995 996 998 999 997 998 1000
1001 999 1000 1002 1003 1001 1002 1004 1005
1003 1004 1006 1007 1005 1006 1008 1009 1007
1008 1010 1011 1009 1010 1012 1013 1011 1012
1014 1015 1013 1014 1016 1017 1015 1016 1018
1019 1017 1018 1020 1021 1019 1020 1022 1023
1021 1022 1024 1025 1023 1024 1026 1027 1025
1026 1028 1029 1027 1028 1030 1031 1029 1030
1032 1033 1031 1032 1034 1035 1033 1034 1036
1037 1035 1036 1038 1039 1037 1038 1040 1041
1039
        </DataArray>
        <DataArray type='Int32' Name='offsets' format='ascii'>
4 8 12 16 20 24 28 32 36
40 44 48 52 56 60 64 68 72
76 80 84 88 92 96 100 104 108
112 116 120 124 128 132 136 140 144
148 152 156 160 164 168 172 176 180
184 188 192 196 200 204 208 212 216
220 224 228 232 236 240 244 248 252
256 260 264 268 272 276 280 284 288
292 296 300 304 308 312 316 320 324
328 332 336 340 344 348 352 356 360
364 368 372 376 380 384 388 392 396
400 404 408 412 416 420 424 428 432
436 440 444 448 452 456 460 464 468
472 476 480 484 488 492 496 500 504
508 512 516 520 524 528 532 536 540
544 548 552 556 560 564 568 572 576
580 584 588 592 596 600 604 608 612
616 620 624 628 632 636 640 644 648
652 656 660 664 668 672 676 680 684
688 692 696 700 704 708 712 716 720
724 728 732 736 740 744 748 752 756
760 764 768 772 776 780 784 788 792
796 800 804 808 812 816 820 824 828
832 836 840 844 848 852 856 860 864
868 872 876 880 884 888 892 896 900
904 908 912 916 920 924 928 932 936
940 944 948 952 956 960 964 968 972
976 980 984 988 992 996 1000 1004 1008
1012 1016 1020 1024 1028 1032 1036 1040 1044
1048 1052 1056 1060 1064 1068 1072 1076 1080
1084 1088 1092 1096 1100 1104 1108 1112 1116
1120 1124 1128 1132 1136 1140 1144 1148 1152
1156 1160 1164 1168 1172 1176 1180 1184 1188
1192 1196 1200 1204 1208 1212 1216 1220 1224
1228 1232 1236 1240 1244 1248 1252 1256 1260
1264 1268 1272 1276 1280 1284 1288 1292 1296
1300 1304 1308 1312 1316 1320 1324 1328 1332
1336 1340 1344 1348 1352 1356 1360 1364 1368
1372 1376 1380 1384 1388 1392 1396 1400 1404
1408 1412 1416 1420 1424 1428 1432 1436 1440
1444 1448 1452 1456 1460 1464 1468 1472 1476
1480 1484 1488 1492 1496 1500 1504 1508 1512
1516 1520 1524 1528 1532 1536 1540 1544 1548
1552 1556 1560 1564 1568 1572 1576 1580 1584
1588 1592 1596 1600 1604 1608 1612 1616 1620
1624 1628 1632 1636 1640 1644 1648 1652 1656
1660 1664 1668 1672 1676 1680 1684 1688 1692
1696 1700 1704 1708 1712 1716 1720 1724 1728
1732 1736 1740 1744 1748 1752 1756 1760 1764
1768 1772 1776 1780 1784 1788 1792 1796 1800
1804 1808 1812 1816 1820 1824 1828 1832 1836
1840 1844 1848 1852 1856 1860 1864 1868 1872
1876 1880 1884 1888 1892 1896 1900 1904 1908
1912 1916 1920 1924 1928 1932 1936 1940 1944
1948 1952 1956 1960 1964 1968 1972 1976 1980
1984 1988 1992 1996 2000 2004 2008 2012 2016
2020 2024 2028 2032 2036 2040 2044 2048 2052
2056 2060 2064 2068 2072 2076 2080
        </DataArray>
      </Polys>
      <CellData>
        <DataArray type='Float32' Name='k' format='ascii'>
0.455128 0.959031 1.63916 2.42147 3.34558 4.281 5.21157 6.14113 7.032
7.85331 8.58316 9.20881 9.72566 10.1357 10.4454 10.6642 10.8031 10.8742
10.893 10.8683 10.8079 10.7189 10.6079 10.4807 10.3423 10.1971 10.0498
9.90346 9.75898 9.61682 9.47743 9.34197 9.21133 9.08619 8.96704 8.8542
8.74782 8.64792 8.55442 8.46716 8.38591 8.31041 8.24036 8.17544 8.1153
8.05963 8.0081 7.96042 7.91631 7.87551 7.83773 7.80272 7.77021 7.73994
7.71167 7.68515 7.66014 7.63643 7.61382 7.59216 7.57131 7.55114 7.53155
7.51242 7.49367 7.4752 7.45696 7.43886 7.42088 7.40295 7.38506 7.36716
7.34925 7.3313 7.31331 7.29528 7.27721 7.2591 7.24097 7.22281 7.20465
7.1865 7.16839 7.15034 7.13238 7.11452 7.09681 7.07927 7.06193 7.04482
7.02796 7.01139 6.99512 6.97919 6.96361 6.94841 6.93359 6.91918 6.90519
6.89162 6.87848 6.86578 6.85351 6.84168 6.83029 6.81933 6.80879 6.79867
6.78895 6.77963 6.7707 6.76214 6.75394 6.74608 6.73856 6.73135 6.72445
6.71784 6.7115 6.70543 6.6996 6.694 6.68863 6.68346 6.67849 6.6737
6.66908 6.66462 6.66031 6.65614 6.6521 6.64819 6.64438 6.64068 6.63708
6.63356 6.63014 6.62678 6.6235 6.62029 6.61714 6.61404 6.61099 6.608
6.60504 6.60213 6.59926 6.59642 6.59361 6.59084 6.58809 6.58536 6.58266
6.57997 6.57731 6.57467 6.57204 6.56942 6.56682 6.56423 6.56166 6.55909
6.55653 6.55398 6.55144 6.5489 6.54637 6.54384 6.54132 6.5388 6.53628
6.53377 6.53126 6.52875 6.52624 6.52373 6.52122 6.51871 6.5162 6.51369
6.51118 6.50867 6.50615 6.50364 6.50112 6.4986 6.49608 6.49356 6.49103
6.4885 6.48597 6.48344 6.4809 6.47835 6.4758 6.47325 6.47069 6.46813
6.46556 6.46299 6.46041 6.45782 6.45522 6.45261 6.45 6.44737 6.44474
6.44209 6.43944 6.43677 6.4341 6.43141 6.42871 6.42599 6.42326 6.42052
6.41776 6.41498 6.41219 6.40938 6.40655 6.40371 6.40085 6.39797 6.39508
6.39216 6.38923 6.38628 6.38331 6.38032 6.3773 6.37426 6.3712 6.36811
6.365 6.36187 6.3587 6.35552 6.3523 6.34906 6.34578 6.34248 6.33914
6.33577 6.33236 6.32892 6.32544 6.32192 6.31837 6.31477 6.31114 6.30746
6.30373 6.29996 6.29614 6.29228 6.28835 6.28438 6.28035 6.27626 6.27211
6.26791 6.26364 6.2593 6.2549 6.25044 6.2459 6.24128 6.23659 6.23182
6.22696 6.22202 6.21698 6.21186 6.20664 6.20132 6.1959 6.19037 6.18474
6.17899 6.17312 6.16713 6.16101 6.15476 6.14837 6.14184 6.13516 6.12832
6.12132 6.11416 6.10682 6.0993 6.09159 6.08368 6.07557 6.06725 6.0587
6.04992 6.0409 6.03163 6.02209 6.01227 6.00217 5.99177 5.98105 5.97
5.9586 5.94685 5.93471 5.92218 5.90924 5.89586 5.88202 5.8677 5.85288
5.83752 5.82161 5.80511 5.78799 5.77021 5.75174 5.73254 5.71256 5.69177
5.67012 5.64754 5.62399 5.5994 5.5737 5.54683 5.5187 5.48923 5.45833
5.42588 5.39178 5.3559 5.31809 5.27822 5.23609 5.19153 5.14431 5.09418
5.04088 4.98409 4.92343 4.8585 4.7888 4.71377 4.63272 4.54485 4.44918
4.34455 4.2295 4.10225 3.9601 3.79789 3.61721 3.39876 3.1178 2.84784
2.66407 2.55975 2.53964 2.58254 2.65242 2.72684 2.79969 2.88111 2.97302
3.08055 3.19941 3.33496 3.48839 3.65468 3.83936 4.04309 4.26121 4.49854
4.75511 5.0256 5.31497 5.62232 5.94191 6.2807 6.63608 7.00138 7.38711
7.78703 8.19439 8.62308 9.06326 9.51126 9.9799 10.4544 10.9399 11.4407
11.9392 12.4513 12.9701 13.4793 13.9972 14.5065 15.0043 15.4972 15.9616
16.4114 16.8342 17.2169 17.5684 17.8671 18.1184 18.3101 18.4282 18.4698
18.4279 18.3046 18.1129 17.8151 17.4262 16.9556 16.4142 15.8084 15.1352
14.4155 13.6494 12.8541 12.0403 11.2059 10.381 9.5558 8.75517 7.97728
7.2204 6.50902 5.82092 5.18936 4.60188 4.07746 3.62433 3.19349 2.79569
2.38416 2.02682 1.75398 1.53656 1.45109 1.60204 1.84193 2.07348 2.25997
2.39123 2.44904 2.47236 2.41946 2.34305 2.24472 2.13265 2.13227 2.14122
2.17484 2.20486 2.24635 2.29767 2.36483 2.47041 2.6028 2.7747 3.01342
3.19356 3.37048 3.53549 3.69172 3.84032 3.98017 4.11054 4.23046 4.33932
4.43723 4.52471 4.60241 4.67077 4.72988 4.77958 4.82068 4.85443 4.88203
4.90447 4.92256 4.93693 4.94805 4.95635 4.96229 4.96631 4.96885 4.97038
4.97133 4.97215 4.97317 4.97469 4.9769 4.97991 4.98376 4.98843 4.99385
4.99991 5.00651 5.01352 5.02081 5.02822 5.03558 5.0427 5.04942 5.05558
5.06109 5.0658 5.06981 5.07271 5.07526 5.07609 5.07707
        </DataArray>
        <DataArray type='Float32' Name='nut' format='ascii'>
0 0 0 5.17003e-07 2.71437e-06 4.60519e-06 6.26252e-06 7.75573e-06 9.06944e-06
1.01985e-05 1.11464e-05 1.19229e-05 1.25419e-05 1.30197e-05 1.33733e-05 1.36196e-05 1.37745e-05 1.38532e-05
1.38741e-05 1.38467e-05 1.37797e-05 1.36808e-05 1.35565e-05 1.34133e-05 1.32564e-05 1.30903e-05 1.29205e-05
1.27505e-05 1.25811e-05 1.24131e-05 1.2247e-05 1.20842e-05 1.19259e-05 1.17731e-05 1.16265e-05 1.14866e-05
1.13538e-05 1.12282e-05 1.111e-05 1.09989e-05 1.08949e-05 1.07978e-05 1.07072e-05 1.06228e-05 1.05444e-05
1.04714e-05 1.04036e-05 1.03407e-05 1.02823e-05 1.02281e-05 1.01777e-05 1.0131e-05 1.00874e-05 1.00468e-05
1.00088e-05 9.97306e-06 9.93928e-06 9.9072e-06 9.87657e-06 9.84716e-06 9.81881e-06 9.79135e-06 9.76462e-06
9.7385e-06 9.71285e-06 9.68756e-06 9.66254e-06 9.63769e-06 9.61295e-06 9.58826e-06 9.56358e-06 9.53886e-06
9.51408e-06 9.48923e-06 9.46428e-06 9.43924e-06 9.4141e-06 9.38888e-06 9.36358e-06 9.33822e-06 9.31281e-06
9.28739e-06 9.26198e-06 9.23662e-06 9.21135e-06 9.18619e-06 9.1612e-06 9.13642e-06 9.11188e-06 9.08763e-06
9.06371e-06 9.04016e-06 9.01702e-06 8.99432e-06 8.9721e-06 8.95038e-06 8.9292e-06 8.90857e-06 8.8885e-06
8.86903e-06 8.85015e-06 8.83189e-06 8.81423e-06 8.79718e-06 8.78074e-06 8.76491e-06 8.74968e-06 8.73504e-06
8.72097e-06 8.70747e-06 8.69452e-06 8.6821e-06 8.67019e-06 8.65877e-06 8.64783e-06 8.63735e-06 8.6273e-06
8.61767e-06 8.60844e-06 8.59958e-06 8.59107e-06 8.5829e-06 8.57505e-06 8.5675e-06 8.56024e-06 8.55323e-06
8.54648e-06 8.53995e-06 8.53365e-06 8.52754e-06 8.52162e-06 8.51588e-06 8.5103e-06 8.50487e-06 8.49959e-06
8.49443e-06 8.4894e-06 8.48448e-06 8.47966e-06 8.47494e-06 8.4703e-06 8.46575e-06 8.46127e-06 8.45687e-06
8.45252e-06 8.44824e-06 8.44401e-06 8.43983e-06 8.4357e-06 8.43161e-06 8.42756e-06 8.42354e-06 8.41956e-06
8.4156e-06 8.41167e-06 8.40777e-06 8.40389e-06 8.40003e-06 8.39619e-06 8.39237e-06 8.38857e-06 8.38478e-06
8.381e-06 8.37723e-06 8.37347e-06 8.36972e-06 8.36598e-06 8.36224e-06 8.35851e-06 8.35478e-06 8.35106e-06
8.34733e-06 8.34361e-06 8.3399e-06 8.33618e-06 8.33246e-06 8.32874e-06 8.32502e-06 8.3213e-06 8.31758e-06
8.31385e-06 8.31013e-06 8.3064e-06 8.30266e-06 8.29893e-06 8.29519e-06 8.29144e-06 8.2877e-06 8.28395e-06
8.28019e-06 8.27642e-06 8.27265e-06 8.26888e-06 8.26509e-06 8.2613e-06 8.2575e-06 8.25369e-06 8.24988e-06
8.24605e-06 8.24222e-06 8.23837e-06 8.23451e-06 8.23064e-06 8.22676e-06 8.22286e-06 8.21894e-06 8.21501e-06
8.21106e-06 8.2071e-06 8.20312e-06 8.19912e-06 8.19511e-06 8.19107e-06 8.18701e-06 8.18293e-06 8.17883e-06
8.1747e-06 8.17055e-06 8.16637e-06 8.16216e-06 8.15793e-06 8.15368e-06 8.14939e-06 8.14508e-06 8.14074e-06
8.13638e-06 8.13198e-06 8.12756e-06 8.1231e-06 8.11861e-06 8.11408e-06 8.10952e-06 8.10492e-06 8.10028e-06
8.09561e-06 8.0909e-06 8.08614e-06 8.08135e-06 8.07651e-06 8.07163e-06 8.0667e-06 8.06173e-06 8.0567e-06
8.05162e-06 8.04649e-06 8.0413e-06 8.03605e-06 8.03075e-06 8.02538e-06 8.01996e-06 8.01446e-06 8.00891e-06
8.00328e-06 7.99758e-06 7.99181e-06 7.98596e-06 7.98002e-06 7.97401e-06 7.9679e-06 7.96171e-06 7.95543e-06
7.94905e-06 7.94258e-06 7.93601e-06 7.92933e-06 7.92254e-06 7.91565e-06 7.90864e-06 7.9015e-06 7.89424e-06
7.88686e-06 7.87933e-06 7.87167e-06 7.86386e-06 7.8559e-06 7.84779e-06 7.83952e-06 7.83109e-06 7.82248e-06
7.81369e-06 7.80472e-06 7.79556e-06 7.78619e-06 7.77662e-06 7.76683e-06 7.75681e-06 7.74655e-06 7.73606e-06
7.72531e-06 7.71429e-06 7.703e-06 7.69143e-06 7.67955e-06 7.66737e-06 7.65485e-06 7.642e-06 7.62879e-06
7.61522e-06 7.60125e-06 7.58688e-06 7.57209e-06 7.55686e-06 7.54117e-06 7.52499e-06 7.5083e-06 7.49109e-06
7.47332e-06 7.45496e-06 7.43599e-06 7.41637e-06 7.39609e-06 7.37509e-06 7.35335e-06 7.33082e-06 7.30746e-06
7.28323e-06 7.25808e-06 7.23196e-06 7.20481e-06 7.17657e-06 7.14719e-06 7.11658e-06 7.08468e-06 7.0514e-06
7.01666e-06 6.98037e-06 6.94242e-06 6.9027e-06 6.86109e-06 6.81745e-06 6.77165e-06 6.72351e-06 6.67287e-06
6.61953e-06 6.56327e-06 6.50385e-06 6.44101e-06 6.37443e-06 6.30379e-06 6.22871e-06 6.14874e-06 6.0634e-06
5.97212e-06 5.87423e-06 5.76899e-06 5.6555e-06 5.53271e-06 5.39936e-06 5.25394e-06 5.09463e-06 4.91917e-06
4.72475e-06 4.50785e-06 4.26395e-06 3.98626e-06 3.66232e-06 3.29225e-06 2.82906e-06 2.20919e-06 1.58554e-06
1.13617e-06 8.66079e-07 7.9737e-07 8.79351e-07 1.01951e-06 1.15987e-06 1.28453e-06 1.42003e-06 1.56842e-06
1.7397e-06 1.9265e-06 2.13354e-06 2.36485e-06 2.61093e-06 2.87251e-06 3.15774e-06 3.45506e-06 3.76273e-06
4.09258e-06 4.42667e-06 4.76813e-06 5.12919e-06 5.48451e-06 5.85032e-06 6.23277e-06 6.60156e-06 6.98709e-06
7.38418e-06 7.76377e-06 8.16623e-06 8.57309e-06 8.96697e-06 9.387e-06 9.79862e-06 1.02102e-05 1.06429e-05
1.1055e-05 1.148e-05 1.19139e-05 1.23236e-05 1.27485e-05 1.31616e-05 1.35593e-05 1.39609e-05 1.43304e-05
1.46918e-05 1.50334e-05 1.53387e-05 1.56244e-05 1.58659e-05 1.60714e-05 1.62317e-05 1.63338e-05 1.63777e-05
1.63563e-05 1.62706e-05 1.6129e-05 1.59033e-05 1.56027e-05 1.52317e-05 1.47979e-05 1.43022e-05 1.37412e-05
1.31298e-05 1.24603e-05 1.17518e-05 1.10013e-05 1.02104e-05 9.40299e-06 8.5589e-06 7.71454e-06 6.84886e-06
5.97111e-06 5.10399e-06 4.21098e-06 3.35166e-06 2.49101e-06 1.67898e-06 9.33194e-07 1.68334e-07 0
0 0 0 0 0 0 0 0 0
0 0 0 0 0 0 0 0 0
0 0 0 4.55848e-08 2.75624e-07 5.93507e-07 9.59937e-07 1.40127e-06 1.97066e-06
2.38001e-06 2.76887e-06 3.12108e-06 3.44605e-06 3.74789e-06 4.02585e-06 4.27998e-06 4.50967e-06 4.71496e-06
4.89709e-06 5.05788e-06 5.19919e-06 5.3224e-06 5.42809e-06 5.51638e-06 5.58899e-06 5.64835e-06 5.69672e-06
5.73594e-06 5.76747e-06 5.79248e-06 5.81179e-06 5.8262e-06 5.8365e-06 5.84347e-06 5.84787e-06 5.85051e-06
5.85216e-06 5.85357e-06 5.85535e-06 5.85798e-06 5.8618e-06 5.86702e-06 5.87367e-06 5.88174e-06 5.8911e-06
5.90157e-06 5.91296e-06 5.92504e-06 5.9376e-06 5.95035e-06 5.963e-06 5.97523e-06 5.98677e-06 5.99733e-06
6.00679e-06 6.01486e-06 6.02173e-06 6.02668e-06 6.03106e-06 6.03209e-06 6.03463e-06
        </DataArray>
        <DataArray type='Float32' Name='omega' format='ascii'>
29300.5 32665.3 36718.1 40884.9 45315.4 49396.1 53145.8 56644.7 59806.1
62579.4 64944.5 66905.5 68483.1 69709.2 70621.3 71258.6 71660.3 71864.9
71919 71847.9 71674 71417.1 71095 70724.6 70319.2 69891.1 69454.2
69017.5 68583.6 68153.9 67730 67315.5 66913.2 66525.7 66154.6 65801.2
65466.3 65150.2 64853 64574.4 64313.9 64070.8 63844.5 63633.9 63438.3
63256.6 63087.9 62931.4 62786.2 62651.5 62526.6 62410.4 62302.4 62201.5
62107 62018.2 61934.2 61854.4 61778.1 61704.9 61634.1 61565.6 61498.8
61433.5 61369.4 61306.1 61243.4 61181.2 61119.2 61057.4 60995.6 60933.7
60871.8 60809.7 60747.4 60685 60622.5 60559.8 60497.1 60434.4 60371.7
60309.1 60246.7 60184.6 60122.9 60061.7 60001.1 59941.1 59882 59823.7
59766.4 59710.2 59655.2 59601.3 59548.8 59497.6 59447.9 59399.5 59352.7
59307.4 59263.6 59221.3 59180.5 59141.2 59103.5 59067.2 59032.3 58998.9
58966.9 58936.1 58906.7 58878.5 58851.5 58825.7 58800.9 58777.2 58754.5
58732.8 58711.9 58691.9 58672.6 58654.2 58636.4 58619.3 58602.8 58586.9
58571.6 58556.7 58542.3 58528.4 58514.9 58501.7 58488.9 58476.5 58464.3
58452.4 58440.8 58429.4 58418.3 58407.3 58396.5 58385.9 58375.5 58365.2
58355.1 58345 58335.1 58325.3 58315.6 58306 58296.4 58287 58277.6
58268.2 58258.9 58249.7 58240.5 58231.4 58222.3 58213.2 58204.2 58195.2
58186.2 58177.3 58168.3 58159.4 58150.5 58141.6 58132.7 58123.8 58114.9
58106.1 58097.2 58088.3 58079.5 58070.6 58061.7 58052.9 58044 58035.1
58026.2 58017.3 58008.4 57999.5 57990.6 57981.7 57972.8 57963.8 57954.9
57945.9 57936.9 57927.9 57918.9 57909.9 57900.8 57891.8 57882.7 57873.6
57864.5 57855.3 57846.1 57836.9 57827.7 57818.4 57809.1 57799.8 57790.4
57781 57771.5 57762 57752.5 57742.9 57733.2 57723.6 57713.8 57704
57694.2 57684.3 57674.3 57664.3 57654.2 57644 57633.8 57623.5 57613.2
57602.8 57592.3 57581.8 57571.1 57560.4 57549.6 57538.8 57527.8 57516.8
57505.6 57494.4 57483.1 57471.7 57460.2 57448.6 57436.8 57425 57413
57400.9 57388.7 57376.4 57363.9 57351.2 57338.5 57325.6 57312.5 57299.3
57285.9 57272.3 57258.6 57244.7 57230.6 57216.3 57201.7 57187 57172.1
57156.9 57141.5 57125.9 57110 57093.9 57077.5 57060.9 57043.9 57026.7
57009.1 56991.2 56973 56954.5 56935.6 56916.4 56896.7 56876.7 56856.3
56835.4 56814.2 56792.4 56770.2 56747.5 56724.3 56700.5 56676.2 56651.3
56625.9 56599.8 56573 56545.6 56517.5 56488.7 56459 56428.6 56397.4
56365.3 56332.2 56298.3 56263.3 56227.3 56190.2 56152 56112.6 56072
56030 55986.7 55942 55895.8 55848 55798.5 55747.3 55694.3 55639.4
55582.4 55523.3 55461.9 55398.2 55331.9 55263 55191.3 55116.6 55038.7
54957.4 54872.6 54783.9 54691.2 54594.2 54492.6 54385.9 54274 54156.4
54032.6 53902.2 53764.7 53619.4 53465.7 53302.8 53130 52946.3 52750.5
52541.6 52318 52078.2 51820.2 51541.8 51240.4 50912.8 50555.2 50162.9
49730.2 49250 48713.2 48106.4 47404.1 46607.8 45630.9 44334 43037.2
42152.7 41673.5 41651.4 41984.2 42484.5 43040.5 43626.1 44278.3 45010.9
45849.2 46753.4 47770.6 48885.4 50057.9 51349.2 52716.2 54139.1 55676.6
57261 58901.7 60634 62379.7 64187.8 66051.2 67904.7 69820.5 71754.8
73665.5 75628.2 77575 79501.8 81461.7 83373.2 85278.4 87181.3 89012.4
90838.2 92621.4 94329.5 96008.7 97603.7 99129.1 100589 101941 103210
104379 105433 106376 107194 107879 108432 108830 109057 109098
108948 108611 108123 107378 106411 105238 103871 102323 100561
98622.4 96512.3 94224.9 91822.3 89245.3 86578.7 83819.4 80971.6 78115.2
75167.3 72247.5 69310.6 66411.1 63619.1 60941.3 58483.8 56066.3 53651.5
51134.9 48772.4 46814.5 45153.9 44262.4 44773.9 45620.4 46318.2 46726.7
46778.6 46503.3 45993.1 45160.5 44216.8 43179.8 42187.5 41814.3 41431.1
41192.8 40981.4 40862 40840.9 40940.9 41280 41817.1 42581.1 43698.6
44545.7 45365.4 46118.9 46821.5 47479.8 48090.6 48652.9 49164.1 49623.4
50032.2 50394 50712.1 50988.9 51224.6 51420.8 51582.3 51714.9 51823.4
51912 51983.8 52041.5 52086.9 52121.7 52147.7 52166.8 52180.8 52191.6
52200.8 52210.1 52220.8 52233.8 52249.7 52268.9 52291.3 52316.8 52345
52375.2 52406.9 52439.4 52472.2 52504.3 52535 52563.5 52589.3 52611.8
52630.7 52645.6 52657.1 52663.6 52668.7 52668.3 52664.2
        </DataArray>
        <DataArray type='Float32' Name='p' format='ascii'>
31.0289 27.0384 25.3281 25.0322 24.7833 24.4883 24.207 23.8704 23.4956
23.1292 22.7694 22.4248 22.1042 21.8078 21.5289 21.2555 20.9868 20.7349
20.4925 20.2492 20.0156 19.7969 19.591 19.4013 19.2212 19.0442 18.8784
18.7202 18.5648 18.4147 18.2743 18.1449 18.0259 17.9181 17.8174 17.7197
17.6287 17.5465 17.4722 17.4039 17.3402 17.2807 17.2251 17.1733 17.1252
17.0812 17.0396 16.9986 16.9589 16.9206 16.8841 16.8494 16.8164 16.7846
16.7539 16.7239 16.6947 16.6662 16.6387 16.6124 16.5862 16.5587 16.5298
16.5005 16.4714 16.4427 16.4145 16.3866 16.3588 16.331 16.3032 16.2753
16.2475 16.2199 16.1924 16.1642 16.1353 16.1057 16.0755 16.0452 16.0147
15.9844 15.9543 15.9245 15.8951 15.8661 15.8376 15.8096 15.7821 15.7551
15.7287 15.7028 15.6776 15.653 15.629 15.6057 15.583 15.5611 15.5398
15.5191 15.4991 15.4797 15.461 15.443 15.4257 15.409 15.393 15.3776
15.3628 15.3485 15.3348 15.3216 15.3089 15.2967 15.285 15.2737 15.2627
15.2521 15.2417 15.2316 15.2218 15.2121 15.2027 15.1935 15.1844 15.1755
15.1668 15.1582 15.1498 15.1415 15.1333 15.1253 15.1174 15.1096 15.102
15.0944 15.0869 15.0796 15.0724 15.0653 15.0582 15.0513 15.0446 15.0379
15.0314 15.025 15.0187 15.0126 15.0066 15.0008 14.9951 14.9896 14.9841
14.9789 14.9738 14.9688 14.9641 14.9595 14.9551 14.9509 14.9469 14.9431
14.9395 14.9362 14.933 14.93 14.9273 14.9248 14.9225 14.9205 14.9188
14.9173 14.9161 14.9152 14.9146 14.9142 14.9141 14.9143 14.9147 14.9155
14.9168 14.9185 14.9206 14.9231 14.9259 14.9291 14.9326 14.9365 14.9408
14.9455 14.9509 14.9567 14.9629 14.9697 14.977 14.9848 14.9931 15.002
15.0114 15.0214 15.0321 15.0434 15.0553 15.0679 15.0812 15.0951 15.1098
15.1252 15.1414 15.1583 15.1761 15.1947 15.2142 15.2345 15.2558 15.278
15.3011 15.3253 15.3504 15.3766 15.4039 15.4323 15.4619 15.4926 15.5246
15.5579 15.5924 15.6283 15.6656 15.7043 15.7444 15.7861 15.8293 15.8741
15.9206 15.9688 16.0187 16.0705 16.1242 16.1797 16.2373 16.297 16.3587
16.4227 16.4889 16.5574 16.6284 16.7018 16.7778 16.8564 16.9378 17.022
17.109 17.1991 17.2923 17.3887 17.4884 17.5915 17.6981 17.8083 17.9224
18.0403 18.1623 18.2884 18.4189 18.5538 18.6933 18.8376 18.9869 19.1412
19.3008 19.4659 19.6367 19.8133 19.9959 20.1849 20.3803 20.5825 20.7917
21.0081 21.232 21.4637 21.7035 21.9516 22.2085 22.4743 22.7495 23.0344
23.3294 23.6348 23.9512 24.2788 24.6182 24.9698 25.3342 25.7117 26.103
26.5087 26.9293 27.3654 27.8177 28.2869 28.7737 29.2789 29.8032 30.3475
30.9127 31.4998 32.1097 32.7435 33.4023 34.0872 34.7995 35.5406 36.3117
37.1145 37.9505 38.8212 39.7287 40.6746 41.6611 42.6903 43.7646 44.8864
46.0585 47.2836 48.5647 49.9053 51.309 52.7795 54.3211 55.9383 57.6359
59.4195 61.2947 63.2681 65.3466 67.5382 69.851 72.2948 74.8797 77.6178
80.5217 83.6066 86.8888 90.3872 94.123 98.121 102.409 107.021 111.994
117.373 123.211 129.569 136.518 144.192 152.883 161.845 173.343 187.152
196.083 202.152 208.242 212.122 214.015 214.999 215.206 213.744 211.133
207.668 202.893 197.597 191.126 183.403 175.258 165.358 154.273 142.753
129.231 115.083 100.349 83.571 66.8034 48.7313 28.7629 9.24825 -12.4645
-35.727 -58.3755 -83.9157 -110.342 -136.505 -165.806 -194.795 -224.698 -257.104
-288.033 -321.248 -355.653 -388.148 -423.52 -457.988 -491.802 -527.319 -559.748
-593.056 -625.309 -654.425 -683.766 -709.089 -732.59 -753.426 -769.634 -783.366
-792.437 -797.146 -798.733 -795.328 -786.181 -773.932 -757.019 -737.279 -713.491
-686.145 -657.435 -624.911 -592.032 -556.507 -519.585 -483.277 -445.075 -408.781
-371.818 -335.564 -301.211 -266.862 -235.509 -205.448 -177.749 -153.064 -130.159
-110.73 -93.4091 -78.1745 -64.8572 -52.24 -40.5492 -28.1939 -14.3718 1.16629
18.4447 36.2861 54.658 72.6597 89.9791 106.357 121.346 135.127 147.238
157.948 166.885 174.245 179.77 183.333 184.892 183.589 179.43 171.904
157.067 145.939 135.503 125.454 116.622 108.487 100.975 94.1562 88.0186
82.4613 77.3651 72.6428 68.2493 64.165 60.3685 56.8288 53.5163 50.4088
47.4921 44.7579 42.199 39.8073 37.57 35.4716 33.4957 31.627 29.8501
28.1501 26.512 24.9255 23.3835 21.8836 20.4255 19.0131 17.6503 16.341
15.087 13.8882 12.7421 11.6442 10.5891 9.57143 8.58587 7.62807 6.69275
5.77693 4.87044 3.98499 3.07573 2.24206 1.18863 0.458899
        </DataArray>
        <DataArray type='Float32' Name='U' NumberOfComponents='3' format='ascii'>
0 0 0 0 0 0 0 0 0
0 0 0 0 0 0 0 0 0
0 0 0 0 0 0 0 0 0
0 0 0 0 0 0 0 0 0
0 0 0 0 0 0 0 0 0
0 0 0 0 0 0 0 0 0
0 0 0 0 0 0 0 0 0
0 0 0 0 0 0 0 0 0
0 0 0 0 0 0 0 0 0
0 0 0 0 0 0 0 0 0
0 0 0 0 0 0 0 0 0
0 0 0 0 0 0 0 0 0
0 0 0 0 0 0 0 0 0
0 0 0 0 0 0 0 0 0
0 0 0 0 0 0 0 0 0
0 0 0 0 0 0 0 0 0
0 0 0 0 0 0 0 0 0
0 0 0 0 0 0 0 0 0
0 0 0 0 0 0 0 0 0
0 0 0 0 0 0 0 0 0
0 0 0 0 0 0 0 0 0
0 0 0 0 0 0 0 0 0
0 0 0 0 0 0 0 0 0
0 0 0 0 0 0 0 0 0
0 0 0 0 0 0 0 0 0
0 0 0 0 0 0 0 0 0
0 0 0 0 0 0 0 0 0
0 0 0 0 0 0 0 0 0
0 0 0 0 0 0 0 0 0
0 0 0 0 0 0 0 0 0
0 0 0 0 0 0 0 0 0
0 0 0 0 0 0 0 0 0
0 0 0 0 0 0 0 0 0
0 0 0 0 0 0 0 0 0
0 0 0 0 0 0 0 0 0
0 0 0 0 0 0 0 0 0
0 0 0 0 0 0 0 0 0
0 0 0 0 0 0 0 0 0
0 0 0 0 0 0 0 0 0
0 0 0 0 0 0 0 0 0
0 0 0 0 0 0 0 0 0
0 0 0 0 0 0 0 0 0
0 0 0 0 0 0 0 0 0
0 0 0 0 0 0 0 0 0
0 0 0 0 0 0 0 0 0
0 0 0 0 0 0 0 0 0
0 0 0 0 0 0 0 0 0
0 0 0 0 0 0 0 0 0
0 0 0 0 0 0 0 0 0
0 0 0 0 0 0 0 0 0
0 0 0 0 0 0 0 0 0
0 0 0 0 0 0 0 0 0
0 0 0 0 0 0 0 0 0
0 0 0 0 0 0 0 0 0
0 0 0 0 0 0 0 0 0
0 0 0 0 0 0 0 0 0
0 0 0 0 0 0 0 0 0
0 0 0 0 0 0 0 0 0
0 0 0 0 0 0 0 0 0
0 0 0 0 0 0 0 0 0
0 0 0 0 0 0 0 0 0
0 0 0 0 0 0 0 0 0
0 0 0 0 0 0 0 0 0
0 0 0 0 0 0 0 0 0
0 0 0 0 0 0 0 0 0
0 0 0 0 0 0 0 0 0
0 0 0 0 0 0 0 0 0
0 0 0 0 0 0 0 0 0
0 0 0 0 0 0 0 0 0
0 0 0 0 0 0 0 0 0
0 0 0 0 0 0 0 0 0
0 0 0 0 0 0 0 0 0
0 0 0 0 0 0 0 0 0
0 0 0 0 0 0 0 0 0
0 0 0 0 0 0 0 0 0
0 0 0 0 0 0 0 0 0
0 0 0 0 0 0 0 0 0
0 0 0 0 0 0 0 0 0
0 0 0 0 0 0 0 0 0
0 0 0 0 0 0 0 0 0
0 0 0 0 0 0 0 0 0
0 0 0 0 0 0 0 0 0
0 0 0 0 0 0 0 0 0
0 0 0 0 0 0 0 0 0
0 0 0 0 0 0 0 0 0
0 0 0 0 0 0 0 0 0
0 0 0 0 0 0 0 0 0
0 0 0 0 0 0 0 0 0
0 0 0 0 0 0 0 0 0
0 0 0 0 0 0 0 0 0
0 0 0 0 0 0 0 0 0
0 0 0 0 0 0 0 0 0
0 0 0 0 0 0 0 0 0
0 0 0 0 0 0 0 0 0
0 0 0 0 0 0 0 0 0
0 0 0 0 0 0 0 0 0
0 0 0 0 0 0 0 0 0
0 0 0 0 0 0 0 0 0
0 0 0 0 0 0 0 0 0
0 0 0 0 0 0 0 0 0
0 0 0 0 0 0 0 0 0
0 0 0 0 0 0 0 0 0
0 0 0 0 0 0 0 0 0
0 0 0 0 0 0 0 0 0
0 0 0 0 0 0 0 0 0
0 0 0 0 0 0 0 0 0
0 0 0 0 0 0 0 0 0
0 0 0 0 0 0 0 0 0
0 0 0 0 0 0 0 0 0
0 0 0 0 0 0 0 0 0
0 0 0 0 0 0 0 0 0
0 0 0 0 0 0 0 0 0
0 0 0 0 0 0 0 0 0
0 0 0 0 0 0 0 0 0
0 0 0 0 0 0 0 0 0
0 0 0 0 0 0 0 0 0
0 0 0 0 0 0 0 0 0
0 0 0 0 0 0 0 0 0
0 0 0 0 0 0 0 0 0
0 0 0 0 0 0 0 0 0
0 0 0 0 0 0 0 0 0
0 0 0 0 0 0 0 0 0
0 0 0 0 0 0 0 0 0
0 0 0 0 0 0 0 0 0
0 0 0 0 0 0 0 0 0
0 0 0 0 0 0 0 0 0
0 0 0 0 0 0 0 0 0
0 0 0 0 0 0 0 0 0
0 0 0 0 0 0 0 0 0
0 0 0 0 0 0 0 0 0
0 0 0 0 0 0 0 0 0
0 0 0 0 0 0 0 0 0
0 0 0 0 0 0 0 0 0
0 0 0 0 0 0 0 0 0
0 0 0 0 0 0 0 0 0
0 0 0 0 0 0 0 0 0
0 0 0 0 0 0 0 0 0
0 0 0 0 0 0 0 0 0
0 0 0 0 0 0 0 0 0
0 0 0 0 0 0 0 0 0
0 0 0 0 0 0 0 0 0
0 0 0 0 0 0 0 0 0
0 0 0 0 0 0 0 0 0
0 0 0 0 0 0 0 0 0
0 0 0 0 0 0 0 0 0
0 0 0 0 0 0 0 0 0
0 0 0 0 0 0 0 0 0
0 0 0 0 0 0 0 0 0
0 0 0 0 0 0 0 0 0
0 0 0 0 0 0 0 0 0
0 0 0 0 0 0 0 0 0
0 0 0 0 0 0 0 0 0
0 0 0 0 0 0 0 0 0
0 0 0 0 0 0 0 0 0
0 0 0 0 0 0 0 0 0
0 0 0 0 0 0 0 0 0
0 0 0 0 0 0 0 0 0
0 0 0 0 0 0 0 0 0
0 0 0 0 0 0 0 0 0
0 0 0 0 0 0 0 0 0
0 0 0 0 0 0 0 0 0
0 0 0 0 0 0 0 0 0
0 0 0 0 0 0 0 0 0
0 0 0 0 0 0 0 0 0
0 0 0 0 0 0 0 0 0
0 0 0 0 0 0 0 0 0
0 0 0 0 0 0 0 0 0
0 0 0 0 0 0 0 0 0
0 0 0 0 0 0 0 0 0
0 0 0 0 0 0 0 0 0
0 0 0 0 0 0 0 0 0
0 0 0 0 0 0 0 0 0
0 0 0 0 0 0 0 0 0
0 0 0
        </DataArray>
      </CellData>
      <PointData>
        <DataArray type='Float32' Name='k' format='ascii'>
0.455128 0.706903 0.706903 0.455128 1.29889 1.29889 2.03019 2.03019 2.88354
2.88354 3.81346 3.81346 4.74636 4.74636 5.67635 5.67635 6.58656 6.58656
7.44265 7.44265 8.21824 8.21824 8.89598 8.89598 9.46723 9.46723 9.93066
9.93066 10.2905 10.2905 10.5548 10.5548 10.7337 10.7337 10.8386 10.8386
10.8836 10.8836 10.8807 10.8807 10.8381 10.8381 10.7634 10.7634 10.6634
10.6634 10.5443 10.5443 10.4115 10.4115 10.2697 10.2697 10.1235 10.1235
9.97663 9.97663 9.83122 9.83122 9.6879 9.6879 9.54713 9.54713 9.4097
9.4097 9.27665 9.27665 9.14876 9.14876 9.02662 9.02662 8.91062 8.91062
8.80101 8.80101 8.69787 8.69787 8.60117 8.60117 8.51079 8.51079 8.42653
8.42653 8.34816 8.34816 8.27539 8.27539 8.2079 8.2079 8.14537 8.14537
8.08747 8.08747 8.03387 8.03387 7.98426 7.98426 7.93837 7.93837 7.89591
7.89591 7.85662 7.85662 7.82022 7.82022 7.78646 7.78646 7.75508 7.75508
7.72581 7.72581 7.69841 7.69841 7.67265 7.67265 7.64829 7.64829 7.62513
7.62513 7.60299 7.60299 7.58173 7.58173 7.56122 7.56122 7.54134 7.54134
7.52198 7.52198 7.50304 7.50304 7.48443 7.48443 7.46608 7.46608 7.44791
7.44791 7.42987 7.42987 7.41192 7.41192 7.394 7.394 7.37611 7.37611
7.3582 7.3582 7.34027 7.34027 7.32231 7.32231 7.3043 7.3043 7.28625
7.28625 7.26816 7.26816 7.25004 7.25004 7.23189 7.23189 7.21373 7.21373
7.19558 7.19558 7.17745 7.17745 7.15937 7.15937 7.14136 7.14136 7.12345
7.12345 7.10567 7.10567 7.08804 7.08804 7.0706 7.0706 7.05337 7.05337
7.03639 7.03639 7.01967 7.01967 7.00325 7.00325 6.98716 6.98716 6.9714
6.9714 6.95601 6.95601 6.941 6.941 6.92639 6.92639 6.91218 6.91218
6.8984 6.8984 6.88505 6.88505 6.87213 6.87213 6.85964 6.85964 6.8476
6.8476 6.83599 6.83599 6.82481 6.82481 6.81406 6.81406 6.80373 6.80373
6.79381 6.79381 6.78429 6.78429 6.77516 6.77516 6.76642 6.76642 6.75804
6.75804 6.75001 6.75001 6.74232 6.74232 6.73495 6.73495 6.7279 6.7279
6.72115 6.72115 6.71467 6.71467 6.70846 6.70846 6.70251 6.70251 6.6968
6.6968 6.69131 6.69131 6.68604 6.68604 6.68097 6.68097 6.67609 6.67609
6.67139 6.67139 6.66685 6.66685 6.66247 6.66247 6.65823 6.65823 6.65412
6.65412 6.65015 6.65015 6.64628 6.64628 6.64253 6.64253 6.63888 6.63888
6.63532 6.63532 6.63185 6.63185 6.62846 6.62846 6.62514 6.62514 6.6219
6.6219 6.61871 6.61871 6.61559 6.61559 6.61252 6.61252 6.60949 6.60949
6.60652 6.60652 6.60359 6.60359 6.6007 6.6007 6.59784 6.59784 6.59502
6.59502 6.59223 6.59223 6.58946 6.58946 6.58672 6.58672 6.58401 6.58401
6.58132 6.58132 6.57864 6.57864 6.57599 6.57599 6.57335 6.57335 6.57073
6.57073 6.56812 6.56812 6.56553 6.56553 6.56294 6.56294 6.56037 6.56037
6.55781 6.55781 6.55526 6.55526 6.55271 6.55271 6.55017 6.55017 6.54764
6.54764 6.54511 6.54511 6.54258 6.54258 6.54006 6.54006 6.53754 6.53754
6.53503 6.53503 6.53251 6.53251 6.53 6.53 6.52749 6.52749 6.52498
6.52498 6.52247 6.52247 6.51996 6.51996 6.51745 6.51745 6.51494 6.51494
6.51243 6.51243 6.50992 6.50992 6.50741 6.50741 6.50489 6.50489 6.50238
6.50238 6.49986 6.49986 6.49734 6.49734 6.49482 6.49482 6.4923 6.4923
6.48977 6.48977 6.48724 6.48724 6.4847 6.4847 6.48217 6.48217 6.47962
6.47962 6.47708 6.47708 6.47453 6.47453 6.47197 6.47197 6.46941 6.46941
6.46685 6.46685 6.46427 6.46427 6.4617 6.4617 6.45911 6.45911 6.45652
6.45652 6.45392 6.45392 6.4513 6.4513 6.44868 6.44868 6.44606 6.44606
6.44342 6.44342 6.44077 6.44077 6.43811 6.43811 6.43544 6.43544 6.43275
6.43275 6.43006 6.43006 6.42735 6.42735 6.42463 6.42463 6.42189 6.42189
6.41914 6.41914 6.41637 6.41637 6.41358 6.41358 6.41078 6.41078 6.40796
6.40796 6.40513 6.40513 6.40228 6.40228 6.39941 6.39941 6.39652 6.39652
6.39362 6.39362 6.3907 6.3907 6.38776 6.38776 6.3848 6.3848 6.38181
6.38181 6.37881 6.37881 6.37578 6.37578 6.37273 6.37273 6.36966 6.36966
6.36656 6.36656 6.36343 6.36343 6.36028 6.36028 6.35711 6.35711 6.35391
6.35391 6.35068 6.35068 6.34742 6.34742 6.34413 6.34413 6.34081 6.34081
6.33745 6.33745 6.33407 6.33407 6.33064 6.33064 6.32718 6.32718 6.32368
6.32368 6.32015 6.32015 6.31657 6.31657 6.31296 6.31296 6.3093 6.3093
6.3056 6.3056 6.30185 6.30185 6.29805 6.29805 6.29421 6.29421 6.29032
6.29032 6.28637 6.28637 6.28236 6.28236 6.2783 6.2783 6.27419 6.27419
6.27001 6.27001 6.26577 6.26577 6.26147 6.26147 6.2571 6.2571 6.25267
6.25267 6.24817 6.24817 6.24359 6.24359 6.23894 6.23894 6.2342 6.2342
6.22939 6.22939 6.22449 6.22449 6.2195 6.2195 6.21442 6.21442 6.20925
6.20925 6.20398 6.20398 6.19861 6.19861 6.19314 6.19314 6.18756 6.18756
6.18186 6.18186 6.17606 6.17606 6.17013 6.17013 6.16407 6.16407 6.15789
6.15789 6.15157 6.15157 6.1451 6.1451 6.1385 6.1385 6.13174 6.13174
6.12482 6.12482 6.11774 6.11774 6.11049 6.11049 6.10306 6.10306 6.09544
6.09544 6.08764 6.08764 6.07963 6.07963 6.07141 6.07141 6.06298 6.06298
6.05431 6.05431 6.04541 6.04541 6.03626 6.03626 6.02686 6.02686 6.01718
6.01718 6.00722 6.00722 5.99697 5.99697 5.98641 5.98641 5.97552 5.97552
5.9643 5.9643 5.95273 5.95273 5.94078 5.94078 5.92845 5.92845 5.91571
5.91571 5.90255 5.90255 5.88894 5.88894 5.87486 5.87486 5.86029 5.86029
5.8452 5.8452 5.82957 5.82957 5.81336 5.81336 5.79655 5.79655 5.7791
5.7791 5.76097 5.76097 5.74214 5.74214 5.72255 5.72255 5.70217 5.70217
5.68094 5.68094 5.65883 5.65883 5.63576 5.63576 5.61169 5.61169 5.58655
5.58655 5.56027 5.56027 5.53277 5.53277 5.50397 5.50397 5.47378 5.47378
5.4421 5.4421 5.40883 5.40883 5.37384 5.37384 5.337 5.337 5.29816
5.29816 5.25715 5.25715 5.21381 5.21381 5.16792 5.16792 5.11925 5.11925
5.06753 5.06753 5.01249 5.01249 4.95376 4.95376 4.89097 4.89097 4.82365
4.82365 4.75129 4.75129 4.67324 4.67324 4.58878 4.58878 4.49702 4.49702
4.39687 4.39687 4.28703 4.28703 4.16588 4.16588 4.03117 4.03117 3.879
3.879 3.70755 3.70755 3.50799 3.50799 3.25828 3.25828 2.98282 2.98282
2.75596 2.75596 2.61191 2.61191 2.54969 2.54969 2.56109 2.56109 2.61748
2.61748 2.68963 2.68963 2.76326 2.76326 2.8404 2.8404 2.92707 2.92707
3.02678 3.02678 3.13997 3.13997 3.26719 3.26719 3.41167 3.41167 3.57154
3.57154 3.74702 3.74702 3.94121 3.94121 4.15215 4.15215 4.37987 4.37987
4.62681 4.62681 4.89036 4.89036 5.17028 5.17028 5.46864 5.46864 5.78212
5.78212 6.1113 6.1113 6.45839 6.45839 6.81873 6.81873 7.19423 7.19423
7.58707 7.58707 7.9907 7.9907 8.40873 8.40873 8.84316 8.84316 9.28725
9.28725 9.74558 9.74558 10.2171 10.2171 10.6971 10.6971 11.1903 11.1903
11.6899 11.6899 12.1952 12.1952 12.7106 12.7106 13.2247 13.2247 13.7382
13.7382 14.2518 14.2518 14.7554 14.7554 15.2507 15.2507 15.7294 15.7294
16.1865 16.1865 16.6228 16.6228 17.0256 17.0256 17.3926 17.3926 17.7177
17.7177 17.9927 17.9927 18.2142 18.2142 18.3692 18.3692 18.449 18.449
18.4489 18.4489 18.3663 18.3663 18.2088 18.2088 17.964 17.964 17.6207
17.6207 17.1909 17.1909 16.6849 16.6849 16.1113 16.1113 15.4718 15.4718
14.7753 14.7753 14.0324 14.0324 13.2517 13.2517 12.4471 12.4471 11.6231
11.6231 10.7934 10.7934 9.96843 9.96843 9.15551 9.15551 8.36622 8.36622
7.59889 7.59889 6.8647 6.8647 6.165 6.165 5.50515 5.50515 4.89563
4.89563 4.3397 4.3397 3.85089 3.85089 3.40893 3.40893 2.9946 2.9946
2.58993 2.58993 2.2055 2.2055 1.8904 1.8904 1.64527 1.64527 1.49383
1.49383 1.52656 1.52656 1.72198 1.72198 1.95769 1.95769 2.16673 2.16673
2.32559 2.32559 2.42013 2.42013 2.4607 2.4607 2.44591 2.44591 2.38125
2.38125 2.29389 2.29389 2.18869 2.18869 2.13246 2.13246 2.13674 2.13674
2.15803 2.15803 2.18985 2.18985 2.22561 2.22561 2.27201 2.27201 2.33125
2.33125 2.41761 2.41761 2.5366 2.5366 2.68874 2.68874 2.89405 2.89405
3.10348 3.10348 3.28202 3.28202 3.45298 3.45298 3.6136 3.6136 3.76602
3.76602 3.91024 3.91024 4.04535 4.04535 4.1705 4.1705 4.28489 4.28489
4.38827 4.38827 4.48097 4.48097 4.56356 4.56356 4.63659 4.63659 4.70032
4.70032 4.75473 4.75473 4.80013 4.80013 4.83755 4.83755 4.86823 4.86823
4.89325 4.89325 4.91351 4.91351 4.92974 4.92974 4.94249 4.94249 4.9522
4.9522 4.95932 4.95932 4.9643 4.9643 4.96758 4.96758 4.96961 4.96961
4.97085 4.97085 4.97174 4.97174 4.97266 4.97266 4.97393 4.97393 4.9758
4.9758 4.97841 4.97841 4.98184 4.98184 4.9861 4.9861 4.99114 4.99114
4.99688 4.99688 5.00321 5.00321 5.01002 5.01002 5.01717 5.01717 5.02452
5.02452 5.0319 5.0319 5.03914 5.03914 5.04606 5.04606 5.0525 5.0525
5.05833 5.05833 5.06345 5.06345 5.06781 5.06781 5.07126 5.07126 5.07398
5.07398 5.07567 5.07567 5.07658 5.07658 5.07707 5.07707
        </DataArray>
        <DataArray type='Float32' Name='nut' format='ascii'>
0 0 0 0 0 0 2.58419e-07 2.58419e-07 1.61572e-06
1.61572e-06 3.66012e-06 3.66012e-06 5.434e-06 5.434e-06 7.00912e-06 7.00912e-06 8.41258e-06 8.41258e-06
9.63398e-06 9.63398e-06 1.06725e-05 1.06725e-05 1.15346e-05 1.15346e-05 1.22324e-05 1.22324e-05 1.27808e-05
1.27808e-05 1.31965e-05 1.31965e-05 1.34965e-05 1.34965e-05 1.3697e-05 1.3697e-05 1.38139e-05 1.38139e-05
1.38637e-05 1.38637e-05 1.38604e-05 1.38604e-05 1.38132e-05 1.38132e-05 1.37303e-05 1.37303e-05 1.36186e-05
1.36186e-05 1.34849e-05 1.34849e-05 1.33348e-05 1.33348e-05 1.31733e-05 1.31733e-05 1.30054e-05 1.30054e-05
1.28355e-05 1.28355e-05 1.26658e-05 1.26658e-05 1.24971e-05 1.24971e-05 1.23301e-05 1.23301e-05 1.21656e-05
1.21656e-05 1.20051e-05 1.20051e-05 1.18495e-05 1.18495e-05 1.16998e-05 1.16998e-05 1.15566e-05 1.15566e-05
1.14202e-05 1.14202e-05 1.1291e-05 1.1291e-05 1.11691e-05 1.11691e-05 1.10544e-05 1.10544e-05 1.09469e-05
1.09469e-05 1.08463e-05 1.08463e-05 1.07525e-05 1.07525e-05 1.0665e-05 1.0665e-05 1.05836e-05 1.05836e-05
1.05079e-05 1.05079e-05 1.04375e-05 1.04375e-05 1.03722e-05 1.03722e-05 1.03115e-05 1.03115e-05 1.02552e-05
1.02552e-05 1.02029e-05 1.02029e-05 1.01544e-05 1.01544e-05 1.01092e-05 1.01092e-05 1.00671e-05 1.00671e-05
1.00278e-05 1.00278e-05 9.99093e-06 9.99093e-06 9.95617e-06 9.95617e-06 9.92324e-06 9.92324e-06 9.89188e-06
9.89188e-06 9.86186e-06 9.86186e-06 9.83298e-06 9.83298e-06 9.80508e-06 9.80508e-06 9.77798e-06 9.77798e-06
9.75156e-06 9.75156e-06 9.72568e-06 9.72568e-06 9.70021e-06 9.70021e-06 9.67505e-06 9.67505e-06 9.65011e-06
9.65011e-06 9.62532e-06 9.62532e-06 9.6006e-06 9.6006e-06 9.57592e-06 9.57592e-06 9.55122e-06 9.55122e-06
9.52647e-06 9.52647e-06 9.50165e-06 9.50165e-06 9.47675e-06 9.47675e-06 9.45176e-06 9.45176e-06 9.42667e-06
9.42667e-06 9.40149e-06 9.40149e-06 9.37623e-06 9.37623e-06 9.3509e-06 9.3509e-06 9.32552e-06 9.32552e-06
9.3001e-06 9.3001e-06 9.27469e-06 9.27469e-06 9.2493e-06 9.2493e-06 9.22399e-06 9.22399e-06 9.19877e-06
9.19877e-06 9.1737e-06 9.1737e-06 9.14881e-06 9.14881e-06 9.12415e-06 9.12415e-06 9.09975e-06 9.09975e-06
9.07567e-06 9.07567e-06 9.05194e-06 9.05194e-06 9.02859e-06 9.02859e-06 9.00567e-06 9.00567e-06 8.98321e-06
8.98321e-06 8.96124e-06 8.96124e-06 8.93979e-06 8.93979e-06 8.91888e-06 8.91888e-06 8.89854e-06 8.89854e-06
8.87877e-06 8.87877e-06 8.85959e-06 8.85959e-06 8.84102e-06 8.84102e-06 8.82306e-06 8.82306e-06 8.8057e-06
8.8057e-06 8.78896e-06 8.78896e-06 8.77283e-06 8.77283e-06 8.7573e-06 8.7573e-06 8.74236e-06 8.74236e-06
8.72801e-06 8.72801e-06 8.71422e-06 8.71422e-06 8.70099e-06 8.70099e-06 8.68831e-06 8.68831e-06 8.67614e-06
8.67614e-06 8.66448e-06 8.66448e-06 8.6533e-06 8.6533e-06 8.64259e-06 8.64259e-06 8.63233e-06 8.63233e-06
8.62249e-06 8.62249e-06 8.61305e-06 8.61305e-06 8.60401e-06 8.60401e-06 8.59532e-06 8.59532e-06 8.58699e-06
8.58699e-06 8.57898e-06 8.57898e-06 8.57128e-06 8.57128e-06 8.56387e-06 8.56387e-06 8.55673e-06 8.55673e-06
8.54986e-06 8.54986e-06 8.54321e-06 8.54321e-06 8.5368e-06 8.5368e-06 8.53059e-06 8.53059e-06 8.52458e-06
8.52458e-06 8.51875e-06 8.51875e-06 8.51309e-06 8.51309e-06 8.50759e-06 8.50759e-06 8.50223e-06 8.50223e-06
8.49701e-06 8.49701e-06 8.49192e-06 8.49192e-06 8.48694e-06 8.48694e-06 8.48207e-06 8.48207e-06 8.4773e-06
8.4773e-06 8.47262e-06 8.47262e-06 8.46803e-06 8.46803e-06 8.46351e-06 8.46351e-06 8.45907e-06 8.45907e-06
8.4547e-06 8.4547e-06 8.45038e-06 8.45038e-06 8.44613e-06 8.44613e-06 8.44192e-06 8.44192e-06 8.43777e-06
8.43777e-06 8.43365e-06 8.43365e-06 8.42958e-06 8.42958e-06 8.42555e-06 8.42555e-06 8.42155e-06 8.42155e-06
8.41758e-06 8.41758e-06 8.41364e-06 8.41364e-06 8.40972e-06 8.40972e-06 8.40583e-06 8.40583e-06 8.40196e-06
8.40196e-06 8.39811e-06 8.39811e-06 8.39428e-06 8.39428e-06 8.39047e-06 8.39047e-06 8.38667e-06 8.38667e-06
8.38289e-06 8.38289e-06 8.37911e-06 8.37911e-06 8.37535e-06 8.37535e-06 8.3716e-06 8.3716e-06 8.36785e-06
8.36785e-06 8.36411e-06 8.36411e-06 8.36037e-06 8.36037e-06 8.35664e-06 8.35664e-06 8.35292e-06 8.35292e-06
8.3492e-06 8.3492e-06 8.34547e-06 8.34547e-06 8.34175e-06 8.34175e-06 8.33804e-06 8.33804e-06 8.33432e-06
8.33432e-06 8.3306e-06 8.3306e-06 8.32688e-06 8.32688e-06 8.32316e-06 8.32316e-06 8.31944e-06 8.31944e-06
8.31572e-06 8.31572e-06 8.31199e-06 8.31199e-06 8.30826e-06 8.30826e-06 8.30453e-06 8.30453e-06 8.30079e-06
8.30079e-06 8.29706e-06 8.29706e-06 8.29332e-06 8.29332e-06 8.28957e-06 8.28957e-06 8.28582e-06 8.28582e-06
8.28207e-06 8.28207e-06 8.27831e-06 8.27831e-06 8.27454e-06 8.27454e-06 8.27076e-06 8.27076e-06 8.26698e-06
8.26698e-06 8.2632e-06 8.2632e-06 8.2594e-06 8.2594e-06 8.2556e-06 8.2556e-06 8.25178e-06 8.25178e-06
8.24796e-06 8.24796e-06 8.24413e-06 8.24413e-06 8.24029e-06 8.24029e-06 8.23644e-06 8.23644e-06 8.23258e-06
8.23258e-06 8.2287e-06 8.2287e-06 8.22481e-06 8.22481e-06 8.2209e-06 8.2209e-06 8.21698e-06 8.21698e-06
8.21304e-06 8.21304e-06 8.20908e-06 8.20908e-06 8.20511e-06 8.20511e-06 8.20112e-06 8.20112e-06 8.19712e-06
8.19712e-06 8.19309e-06 8.19309e-06 8.18904e-06 8.18904e-06 8.18497e-06 8.18497e-06 8.18088e-06 8.18088e-06
8.17676e-06 8.17676e-06 8.17262e-06 8.17262e-06 8.16846e-06 8.16846e-06 8.16427e-06 8.16427e-06 8.16005e-06
8.16005e-06 8.1558e-06 8.1558e-06 8.15153e-06 8.15153e-06 8.14724e-06 8.14724e-06 8.14291e-06 8.14291e-06
8.13856e-06 8.13856e-06 8.13418e-06 8.13418e-06 8.12977e-06 8.12977e-06 8.12533e-06 8.12533e-06 8.12085e-06
8.12085e-06 8.11634e-06 8.11634e-06 8.1118e-06 8.1118e-06 8.10722e-06 8.10722e-06 8.1026e-06 8.1026e-06
8.09795e-06 8.09795e-06 8.09325e-06 8.09325e-06 8.08852e-06 8.08852e-06 8.08375e-06 8.08375e-06 8.07893e-06
8.07893e-06 8.07407e-06 8.07407e-06 8.06917e-06 8.06917e-06 8.06421e-06 8.06421e-06 8.05921e-06 8.05921e-06
8.05416e-06 8.05416e-06 8.04905e-06 8.04905e-06 8.04389e-06 8.04389e-06 8.03868e-06 8.03868e-06 8.0334e-06
8.0334e-06 8.02807e-06 8.02807e-06 8.02267e-06 8.02267e-06 8.01721e-06 8.01721e-06 8.01169e-06 8.01169e-06
8.00609e-06 8.00609e-06 8.00043e-06 8.00043e-06 7.9947e-06 7.9947e-06 7.98888e-06 7.98888e-06 7.98299e-06
7.98299e-06 7.97702e-06 7.97702e-06 7.97096e-06 7.97096e-06 7.96481e-06 7.96481e-06 7.95857e-06 7.95857e-06
7.95224e-06 7.95224e-06 7.94582e-06 7.94582e-06 7.93929e-06 7.93929e-06 7.93267e-06 7.93267e-06 7.92594e-06
7.92594e-06 7.9191e-06 7.9191e-06 7.91214e-06 7.91214e-06 7.90507e-06 7.90507e-06 7.89787e-06 7.89787e-06
7.89055e-06 7.89055e-06 7.88309e-06 7.88309e-06 7.8755e-06 7.8755e-06 7.86776e-06 7.86776e-06 7.85988e-06
7.85988e-06 7.85185e-06 7.85185e-06 7.84366e-06 7.84366e-06 7.8353e-06 7.8353e-06 7.82678e-06 7.82678e-06
7.81809e-06 7.81809e-06 7.80921e-06 7.80921e-06 7.80014e-06 7.80014e-06 7.79088e-06 7.79088e-06 7.78141e-06
7.78141e-06 7.77172e-06 7.77172e-06 7.76182e-06 7.76182e-06 7.75168e-06 7.75168e-06 7.74131e-06 7.74131e-06
7.73068e-06 7.73068e-06 7.7198e-06 7.7198e-06 7.70865e-06 7.70865e-06 7.69721e-06 7.69721e-06 7.68549e-06
7.68549e-06 7.67346e-06 7.67346e-06 7.66111e-06 7.66111e-06 7.64843e-06 7.64843e-06 7.6354e-06 7.6354e-06
7.622e-06 7.622e-06 7.60823e-06 7.60823e-06 7.59407e-06 7.59407e-06 7.57949e-06 7.57949e-06 7.56448e-06
7.56448e-06 7.54901e-06 7.54901e-06 7.53308e-06 7.53308e-06 7.51665e-06 7.51665e-06 7.4997e-06 7.4997e-06
7.4822e-06 7.4822e-06 7.46414e-06 7.46414e-06 7.44547e-06 7.44547e-06 7.42618e-06 7.42618e-06 7.40623e-06
7.40623e-06 7.38559e-06 7.38559e-06 7.36422e-06 7.36422e-06 7.34208e-06 7.34208e-06 7.31914e-06 7.31914e-06
7.29535e-06 7.29535e-06 7.27066e-06 7.27066e-06 7.24502e-06 7.24502e-06 7.21839e-06 7.21839e-06 7.19069e-06
7.19069e-06 7.16188e-06 7.16188e-06 7.13188e-06 7.13188e-06 7.10063e-06 7.10063e-06 7.06804e-06 7.06804e-06
7.03403e-06 7.03403e-06 6.99851e-06 6.99851e-06 6.96139e-06 6.96139e-06 6.92256e-06 6.92256e-06 6.88189e-06
6.88189e-06 6.83927e-06 6.83927e-06 6.79455e-06 6.79455e-06 6.74758e-06 6.74758e-06 6.69819e-06 6.69819e-06
6.6462e-06 6.6462e-06 6.5914e-06 6.5914e-06 6.53356e-06 6.53356e-06 6.47243e-06 6.47243e-06 6.40772e-06
6.40772e-06 6.33911e-06 6.33911e-06 6.26625e-06 6.26625e-06 6.18873e-06 6.18873e-06 6.10607e-06 6.10607e-06
6.01776e-06 6.01776e-06 5.92318e-06 5.92318e-06 5.82162e-06 5.82162e-06 5.71225e-06 5.71225e-06 5.59411e-06
5.59411e-06 5.46604e-06 5.46604e-06 5.32665e-06 5.32665e-06 5.17429e-06 5.17429e-06 5.0069e-06 5.0069e-06
4.82196e-06 4.82196e-06 4.6163e-06 4.6163e-06 4.3859e-06 4.3859e-06 4.12511e-06 4.12511e-06 3.82429e-06
3.82429e-06 3.47729e-06 3.47729e-06 3.06066e-06 3.06066e-06 2.51914e-06 2.51914e-06 1.89737e-06 1.89737e-06
1.36086e-06 1.36086e-06 1.00113e-06 1.00113e-06 8.31726e-07 8.31726e-07 8.3836e-07 8.3836e-07 9.49427e-07
9.49427e-07 1.08969e-06 1.08969e-06 1.2222e-06 1.2222e-06 1.35227e-06 1.35227e-06 1.49423e-06 1.49423e-06
1.65406e-06 1.65406e-06 1.8331e-06 1.8331e-06 2.03002e-06 2.03002e-06 2.24919e-06 2.24919e-06 2.48789e-06
2.48789e-06 2.74172e-06 2.74172e-06 3.01511e-06 3.01511e-06 3.30641e-06 3.30641e-06 3.60889e-06 3.60889e-06
3.92764e-06 3.92764e-06 4.25963e-06 4.25963e-06 4.59739e-06 4.59739e-06 4.94865e-06 4.94865e-06 5.30686e-06
5.30686e-06 5.6674e-06 5.6674e-06 6.04154e-06 6.04154e-06 6.41716e-06 6.41716e-06 6.79432e-06 6.79432e-06
7.18563e-06 7.18563e-06 7.57396e-06 7.57396e-06 7.96499e-06 7.96499e-06 8.36965e-06 8.36965e-06 8.77002e-06
8.77002e-06 9.17698e-06 9.17698e-06 9.59279e-06 9.59279e-06 1.00044e-05 1.00044e-05 1.04266e-05 1.04266e-05
1.0849e-05 1.0849e-05 1.12675e-05 1.12675e-05 1.16969e-05 1.16969e-05 1.21187e-05 1.21187e-05 1.25361e-05
1.25361e-05 1.2955e-05 1.2955e-05 1.33605e-05 1.33605e-05 1.37601e-05 1.37601e-05 1.41456e-05 1.41456e-05
1.45111e-05 1.45111e-05 1.48626e-05 1.48626e-05 1.51861e-05 1.51861e-05 1.54816e-05 1.54816e-05 1.57452e-05
1.57452e-05 1.59687e-05 1.59687e-05 1.61516e-05 1.61516e-05 1.62828e-05 1.62828e-05 1.63557e-05 1.63557e-05
1.6367e-05 1.6367e-05 1.63134e-05 1.63134e-05 1.61998e-05 1.61998e-05 1.60162e-05 1.60162e-05 1.5753e-05
1.5753e-05 1.54172e-05 1.54172e-05 1.50148e-05 1.50148e-05 1.45501e-05 1.45501e-05 1.40218e-05 1.40218e-05
1.34355e-05 1.34355e-05 1.27951e-05 1.27951e-05 1.21061e-05 1.21061e-05 1.13765e-05 1.13765e-05 1.06059e-05
1.06059e-05 9.80668e-06 9.80668e-06 8.98098e-06 8.98098e-06 8.13674e-06 8.13674e-06 7.2817e-06 7.2817e-06
6.41004e-06 6.41004e-06 5.53753e-06 5.53753e-06 4.65753e-06 4.65753e-06 3.78134e-06 3.78134e-06 2.92134e-06
2.92134e-06 2.08503e-06 2.08503e-06 1.30608e-06 1.30608e-06 5.50793e-07 5.50793e-07 8.41704e-08 8.41704e-08
0 0 0 0 0 0 0 0 0
0 0 0 0 0 0 0 0 0
0 0 0 0 0 0 0 0 0
0 0 0 0 0 0 0 0 0
0 0 0 0 0 0 2.27893e-08 2.27893e-08 1.60607e-07
1.60607e-07 4.34551e-07 4.34551e-07 7.76717e-07 7.76717e-07 1.18059e-06 1.18059e-06 1.68595e-06 1.68595e-06
2.17532e-06 2.17532e-06 2.57443e-06 2.57443e-06 2.94497e-06 2.94497e-06 3.28356e-06 3.28356e-06 3.59696e-06
3.59696e-06 3.88686e-06 3.88686e-06 4.15291e-06 4.15291e-06 4.39482e-06 4.39482e-06 4.61231e-06 4.61231e-06
4.80602e-06 4.80602e-06 4.97748e-06 4.97748e-06 5.12853e-06 5.12853e-06 5.26079e-06 5.26079e-06 5.37524e-06
5.37524e-06 5.47223e-06 5.47223e-06 5.55268e-06 5.55268e-06 5.61867e-06 5.61867e-06 5.67254e-06 5.67254e-06
5.71633e-06 5.71633e-06 5.7517e-06 5.7517e-06 5.77997e-06 5.77997e-06 5.80213e-06 5.80213e-06 5.819e-06
5.819e-06 5.83135e-06 5.83135e-06 5.83999e-06 5.83999e-06 5.84567e-06 5.84567e-06 5.84919e-06 5.84919e-06
5.85133e-06 5.85133e-06 5.85286e-06 5.85286e-06 5.85446e-06 5.85446e-06 5.85667e-06 5.85667e-06 5.85989e-06
5.85989e-06 5.86441e-06 5.86441e-06 5.87035e-06 5.87035e-06 5.87771e-06 5.87771e-06 5.88642e-06 5.88642e-06
5.89633e-06 5.89633e-06 5.90726e-06 5.90726e-06 5.919e-06 5.919e-06 5.93132e-06 5.93132e-06 5.94398e-06
5.94398e-06 5.95668e-06 5.95668e-06 5.96912e-06 5.96912e-06 5.981e-06 5.981e-06 5.99205e-06 5.99205e-06
6.00206e-06 6.00206e-06 6.01082e-06 6.01082e-06 6.01829e-06 6.01829e-06 6.02421e-06 6.02421e-06 6.02887e-06
6.02887e-06 6.03157e-06 6.03157e-06 6.03337e-06 6.03337e-06 6.03463e-06 6.03463e-06
        </DataArray>
        <DataArray type='Float32' Name='omega' format='ascii'>
29300.5 30981.7 30981.7 29300.5 34690.5 34690.5 38800.8 38800.8 43100.2
43100.2 47356.5 47356.5 51271.2 51271.2 54895.2 54895.2 58225.4 58225.4
61192.7 61192.7 63762 63762 65925 65925 67694.3 67694.3 69096.2
69096.2 70165.3 70165.3 70940 70940 71459.5 71459.5 71762.6 71762.6
71892 71892 71883.5 71883.5 71761 71761 71545.5 71545.5 71256.1
71256.1 70909.8 70909.8 70521.9 70521.9 70105.1 70105.1 69672.7 69672.7
69235.9 69235.9 68800.5 68800.5 68368.8 68368.8 67942 67942 67522.7
67522.7 67114.4 67114.4 66719.5 66719.5 66340.1 66340.1 65977.9 65977.9
65633.8 65633.8 65308.3 65308.3 65001.6 65001.6 64713.7 64713.7 64444.1
64444.1 64192.3 64192.3 63957.6 63957.6 63739.2 63739.2 63536.1 63536.1
63347.4 63347.4 63172.2 63172.2 63009.6 63009.6 62858.8 62858.8 62718.9
62718.9 62589.1 62589.1 62468.5 62468.5 62356.4 62356.4 62251.9 62251.9
62154.3 62154.3 62062.6 62062.6 61976.2 61976.2 61894.3 61894.3 61816.3
61816.3 61741.5 61741.5 61669.5 61669.5 61599.9 61599.9 61532.2 61532.2
61466.2 61466.2 61401.4 61401.4 61337.7 61337.7 61274.7 61274.7 61212.3
61212.3 61150.2 61150.2 61088.3 61088.3 61026.5 61026.5 60964.6 60964.6
60902.7 60902.7 60840.7 60840.7 60778.5 60778.5 60716.2 60716.2 60653.7
60653.7 60591.1 60591.1 60528.5 60528.5 60465.7 60465.7 60403 60403
60340.4 60340.4 60277.9 60277.9 60215.7 60215.7 60153.8 60153.8 60092.3
60092.3 60031.4 60031.4 59971.1 59971.1 59911.6 59911.6 59852.8 59852.8
59795.1 59795.1 59738.3 59738.3 59682.7 59682.7 59628.2 59628.2 59575.1
59575.1 59523.2 59523.2 59472.7 59472.7 59423.7 59423.7 59376.1 59376.1
59330 59330 59285.5 59285.5 59242.4 59242.4 59200.9 59200.9 59160.9
59160.9 59122.4 59122.4 59085.3 59085.3 59049.8 59049.8 59015.6 59015.6
58982.9 58982.9 58951.5 58951.5 58921.4 58921.4 58892.6 58892.6 58865
58865 58838.6 58838.6 58813.3 58813.3 58789.1 58789.1 58765.9 58765.9
58743.6 58743.6 58722.3 58722.3 58701.9 58701.9 58682.2 58682.2 58663.4
58663.4 58645.3 58645.3 58627.8 58627.8 58611.1 58611.1 58594.9 58594.9
58579.2 58579.2 58564.1 58564.1 58549.5 58549.5 58535.4 58535.4 58521.6
58521.6 58508.3 58508.3 58495.3 58495.3 58482.7 58482.7 58470.4 58470.4
58458.4 58458.4 58446.6 58446.6 58435.1 58435.1 58423.9 58423.9 58412.8
58412.8 58401.9 58401.9 58391.2 58391.2 58380.7 58380.7 58370.4 58370.4
58360.1 58360.1 58350 58350 58340.1 58340.1 58330.2 58330.2 58320.4
58320.4 58310.8 58310.8 58301.2 58301.2 58291.7 58291.7 58282.2 58282.2
58272.9 58272.9 58263.6 58263.6 58254.3 58254.3 58245.1 58245.1 58235.9
58235.9 58226.8 58226.8 58217.7 58217.7 58208.7 58208.7 58199.7 58199.7
58190.7 58190.7 58181.7 58181.7 58172.8 58172.8 58163.9 58163.9 58154.9
58154.9 58146 58146 58137.1 58137.1 58128.3 58128.3 58119.4 58119.4
58110.5 58110.5 58101.6 58101.6 58092.8 58092.8 58083.9 58083.9 58075
58075 58066.2 58066.2 58057.3 58057.3 58048.4 58048.4 58039.6 58039.6
58030.7 58030.7 58021.8 58021.8 58012.9 58012.9 58004 58004 57995.1
57995.1 57986.1 57986.1 57977.2 57977.2 57968.3 57968.3 57959.3 57959.3
57950.4 57950.4 57941.4 57941.4 57932.4 57932.4 57923.4 57923.4 57914.4
57914.4 57905.4 57905.4 57896.3 57896.3 57887.2 57887.2 57878.1 57878.1
57869 57869 57859.9 57859.9 57850.7 57850.7 57841.5 57841.5 57832.3
57832.3 57823 57823 57813.8 57813.8 57804.4 57804.4 57795.1 57795.1
57785.7 57785.7 57776.2 57776.2 57766.8 57766.8 57757.2 57757.2 57747.7
57747.7 57738.1 57738.1 57728.4 57728.4 57718.7 57718.7 57708.9 57708.9
57699.1 57699.1 57689.2 57689.2 57679.3 57679.3 57669.3 57669.3 57659.2
57659.2 57649.1 57649.1 57638.9 57638.9 57628.7 57628.7 57618.4 57618.4
57608 57608 57597.5 57597.5 57587 57587 57576.4 57576.4 57565.8
57565.8 57555 57555 57544.2 57544.2 57533.3 57533.3 57522.3 57522.3
57511.2 57511.2 57500 57500 57488.8 57488.8 57477.4 57477.4 57465.9
57465.9 57454.4 57454.4 57442.7 57442.7 57430.9 57430.9 57419 57419
57407 57407 57394.8 57394.8 57382.5 57382.5 57370.1 57370.1 57357.6
57357.6 57344.9 57344.9 57332 57332 57319 57319 57305.9 57305.9
57292.6 57292.6 57279.1 57279.1 57265.5 57265.5 57251.6 57251.6 57237.6
57237.6 57223.4 57223.4 57209 57209 57194.4 57194.4 57179.5 57179.5
57164.5 57164.5 57149.2 57149.2 57133.7 57133.7 57118 57118 57102
57102 57085.7 57085.7 57069.2 57069.2 57052.4 57052.4 57035.3 57035.3
57017.9 57017.9 57000.2 57000.2 56982.1 56982.1 56963.8 56963.8 56945.1
56945.1 56926 56926 56906.5 56906.5 56886.7 56886.7 56866.5 56866.5
56845.9 56845.9 56824.8 56824.8 56803.3 56803.3 56781.3 56781.3 56758.8
56758.8 56735.9 56735.9 56712.4 56712.4 56688.4 56688.4 56663.8 56663.8
56638.6 56638.6 56612.8 56612.8 56586.4 56586.4 56559.3 56559.3 56531.6
56531.6 56503.1 56503.1 56473.8 56473.8 56443.8 56443.8 56413 56413
56381.3 56381.3 56348.8 56348.8 56315.2 56315.2 56280.8 56280.8 56245.3
56245.3 56208.8 56208.8 56171.1 56171.1 56132.3 56132.3 56092.3 56092.3
56051 56051 56008.4 56008.4 55964.4 55964.4 55918.9 55918.9 55871.9
55871.9 55823.2 55823.2 55772.9 55772.9 55720.8 55720.8 55666.8 55666.8
55610.9 55610.9 55552.9 55552.9 55492.6 55492.6 55430.1 55430.1 55365.1
55365.1 55297.5 55297.5 55227.2 55227.2 55153.9 55153.9 55077.6 55077.6
54998 54998 54915 54915 54828.3 54828.3 54737.6 54737.6 54642.7
54642.7 54543.4 54543.4 54439.2 54439.2 54330 54330 54215.2 54215.2
54094.5 54094.5 53967.4 53967.4 53833.4 53833.4 53692 53692 53542.5
53542.5 53384.2 53384.2 53216.4 53216.4 53038.1 53038.1 52848.4 52848.4
52646.1 52646.1 52429.8 52429.8 52198.1 52198.1 51949.2 51949.2 51681
51681 51391.1 51391.1 51076.6 51076.6 50734 50734 50359 50359
49946.6 49946.6 49490.1 49490.1 48981.6 48981.6 48409.8 48409.8 47755.3
47755.3 47006 47006 46119.4 46119.4 44982.5 44982.5 43685.6 43685.6
42595 42595 41913.1 41913.1 41662.4 41662.4 41817.8 41817.8 42234.4
42234.4 42762.5 42762.5 43333.3 43333.3 43952.2 43952.2 44644.6 44644.6
45430 45430 46301.2 46301.2 47262 47262 48328 48328 49471.6
49471.6 50703.6 50703.6 52032.7 52032.7 53427.7 53427.7 54907.8 54907.8
56468.7 56468.7 58081.4 58081.4 59767.8 59767.8 61506.8 61506.8 63283.7
63283.7 65119.4 65119.4 66977.9 66977.9 68862.6 68862.6 70787.6 70787.6
72710.1 72710.1 74646.8 74646.8 76601.6 76601.6 78538.4 78538.4 80481.7
80481.7 82417.5 82417.5 84325.7 84325.7 86229.8 86229.8 88096.8 88096.8
89925.2 89925.2 91729.8 91729.8 93475.4 93475.4 95169 95169 96806.2
96806.2 98366.3 98366.3 99858.9 99858.9 101265 101265 102575 102575
103794 103794 104906 104906 105904 105904 106785 106785 107536
107536 108155 108155 108631 108631 108943 108943 109077 109077
109023 109023 108779 108779 108367 108367 107750 107750 106894
106894 105824 105824 104555 104555 103097 103097 101442 101442
99591.9 99591.9 97567.4 97567.4 95368.7 95368.7 93023.6 93023.6 90533.9
90533.9 87911.9 87911.9 85199.1 85199.1 82395.5 82395.5 79543.4 79543.4
76641.4 76641.4 73707.3 73707.3 70779.2 70779.2 67861 67861 65015.2
65015.2 62280.3 62280.3 59712.5 59712.5 57275.1 57275.1 54859 54859
52393.2 52393.2 49953.7 49953.7 47793.5 47793.5 45984.2 45984.2 44708.2
44708.2 44518.1 44518.1 45197.1 45197.1 45969.3 45969.3 46522.5 46522.5
46752.7 46752.7 46641 46641 46248.2 46248.2 45576.8 45576.8 44688.6
44688.6 43698.4 43698.4 42683.6 42683.6 42000.9 42000.9 41622.7 41622.7
41312 41312 41087.1 41087.1 40921.7 40921.7 40851.5 40851.5 40890.9
40890.9 41110.4 41110.4 41548.5 41548.5 42199.1 42199.1 43139.8 43139.8
44122.1 44122.1 44955.5 44955.5 45742.1 45742.1 46470.2 46470.2 47150.6
47150.6 47785.2 47785.2 48371.7 48371.7 48908.5 48908.5 49393.7 49393.7
49827.8 49827.8 50213.1 50213.1 50553 50553 50850.5 50850.5 51106.7
51106.7 51322.7 51322.7 51501.6 51501.6 51648.6 51648.6 51769.2 51769.2
51867.7 51867.7 51947.9 51947.9 52012.7 52012.7 52064.2 52064.2 52104.3
52104.3 52134.7 52134.7 52157.3 52157.3 52173.8 52173.8 52186.2 52186.2
52196.2 52196.2 52205.5 52205.5 52215.5 52215.5 52227.3 52227.3 52241.7
52241.7 52259.3 52259.3 52280.1 52280.1 52304.1 52304.1 52330.9 52330.9
52360.1 52360.1 52391.1 52391.1 52423.2 52423.2 52455.8 52455.8 52488.2
52488.2 52519.6 52519.6 52549.2 52549.2 52576.4 52576.4 52600.6 52600.6
52621.3 52621.3 52638.2 52638.2 52651.3 52651.3 52660.3 52660.3 52666.1
52666.1 52668.5 52668.5 52666.3 52666.3 52664.2 52664.2
        </DataArray>
        <DataArray type='Float32' Name='p' format='ascii'>
31.0289 29.0351 29.0351 31.0289 26.1838 26.1838 25.1802 25.1802 24.9078
24.9078 24.6357 24.6357 24.3476 24.3476 24.0387 24.0387 23.683 23.683
23.3124 23.3124 22.9493 22.9493 22.5971 22.5971 22.2645 22.2645 21.956
21.956 21.6684 21.6684 21.3922 21.3922 21.1211 21.1211 20.8608 20.8608
20.6137 20.6137 20.3709 20.3709 20.1324 20.1324 19.9062 19.9062 19.6939
19.6939 19.4961 19.4961 19.3113 19.3113 19.1327 19.1327 18.9613 18.9613
18.7993 18.7993 18.6425 18.6425 18.4897 18.4897 18.3445 18.3445 18.2096
18.2096 18.0854 18.0854 17.972 17.972 17.8678 17.8678 17.7685 17.7685
17.6742 17.6742 17.5876 17.5876 17.5093 17.5093 17.438 17.438 17.372
17.372 17.3105 17.3105 17.2529 17.2529 17.1992 17.1992 17.1492 17.1492
17.1032 17.1032 17.0604 17.0604 17.0191 17.0191 16.9788 16.9788 16.9398
16.9398 16.9023 16.9023 16.8667 16.8667 16.8329 16.8329 16.8005 16.8005
16.7692 16.7692 16.7389 16.7389 16.7093 16.7093 16.6804 16.6804 16.6525
16.6525 16.6255 16.6255 16.5993 16.5993 16.5725 16.5725 16.5442 16.5442
16.5151 16.5151 16.4859 16.4859 16.457 16.457 16.4286 16.4286 16.4006
16.4006 16.3727 16.3727 16.3449 16.3449 16.3171 16.3171 16.2893 16.2893
16.2614 16.2614 16.2337 16.2337 16.2062 16.2062 16.1783 16.1783 16.1498
16.1498 16.1205 16.1205 16.0906 16.0906 16.0603 16.0603 16.0299 16.0299
15.9996 15.9996 15.9694 15.9694 15.9394 15.9394 15.9098 15.9098 15.8806
15.8806 15.8519 15.8519 15.8236 15.8236 15.7958 15.7958 15.7686 15.7686
15.7419 15.7419 15.7157 15.7157 15.6902 15.6902 15.6653 15.6653 15.641
15.641 15.6173 15.6173 15.5944 15.5944 15.5721 15.5721 15.5504 15.5504
15.5294 15.5294 15.5091 15.5091 15.4894 15.4894 15.4703 15.4703 15.452
15.452 15.4343 15.4343 15.4173 15.4173 15.401 15.401 15.3853 15.3853
15.3702 15.3702 15.3556 15.3556 15.3416 15.3416 15.3282 15.3282 15.3152
15.3152 15.3028 15.3028 15.2909 15.2909 15.2794 15.2794 15.2682 15.2682
15.2574 15.2574 15.2469 15.2469 15.2367 15.2367 15.2267 15.2267 15.2169
15.2169 15.2074 15.2074 15.1981 15.1981 15.1889 15.1889 15.18 15.18
15.1711 15.1711 15.1625 15.1625 15.154 15.154 15.1456 15.1456 15.1374
15.1374 15.1293 15.1293 15.1214 15.1214 15.1135 15.1135 15.1058 15.1058
15.0982 15.0982 15.0907 15.0907 15.0833 15.0833 15.076 15.076 15.0688
15.0688 15.0617 15.0617 15.0548 15.0548 15.048 15.048 15.0412 15.0412
15.0346 15.0346 15.0282 15.0282 15.0218 15.0218 15.0157 15.0157 15.0096
15.0096 15.0037 15.0037 14.998 14.998 14.9923 14.9923 14.9869 14.9869
14.9815 14.9815 14.9763 14.9763 14.9713 14.9713 14.9664 14.9664 14.9618
14.9618 14.9573 14.9573 14.953 14.953 14.9489 14.9489 14.945 14.945
14.9413 14.9413 14.9378 14.9378 14.9346 14.9346 14.9315 14.9315 14.9286
14.9286 14.926 14.926 14.9236 14.9236 14.9215 14.9215 14.9196 14.9196
14.918 14.918 14.9167 14.9167 14.9157 14.9157 14.9149 14.9149 14.9144
14.9144 14.9142 14.9142 14.9142 14.9142 14.9145 14.9145 14.9151 14.9151
14.9161 14.9161 14.9176 14.9176 14.9195 14.9195 14.9218 14.9218 14.9245
14.9245 14.9275 14.9275 14.9308 14.9308 14.9345 14.9345 14.9386 14.9386
14.9432 14.9432 14.9482 14.9482 14.9538 14.9538 14.9598 14.9598 14.9663
14.9663 14.9734 14.9734 14.9809 14.9809 14.989 14.989 14.9976 14.9976
15.0067 15.0067 15.0164 15.0164 15.0268 15.0268 15.0377 15.0377 15.0493
15.0493 15.0616 15.0616 15.0745 15.0745 15.0881 15.0881 15.1025 15.1025
15.1175 15.1175 15.1333 15.1333 15.1499 15.1499 15.1672 15.1672 15.1854
15.1854 15.2045 15.2045 15.2244 15.2244 15.2452 15.2452 15.2669 15.2669
15.2896 15.2896 15.3132 15.3132 15.3378 15.3378 15.3635 15.3635 15.3903
15.3903 15.4181 15.4181 15.4471 15.4471 15.4773 15.4773 15.5086 15.5086
15.5412 15.5412 15.5751 15.5751 15.6104 15.6104 15.6469 15.6469 15.6849
15.6849 15.7243 15.7243 15.7652 15.7652 15.8077 15.8077 15.8517 15.8517
15.8974 15.8974 15.9447 15.9447 15.9938 15.9938 16.0446 16.0446 16.0973
16.0973 16.1519 16.1519 16.2085 16.2085 16.2672 16.2672 16.3279 16.3279
16.3907 16.3907 16.4558 16.4558 16.5232 16.5232 16.5929 16.5929 16.6651
16.6651 16.7398 16.7398 16.8171 16.8171 16.8971 16.8971 16.9799 16.9799
17.0655 17.0655 17.1541 17.1541 17.2457 17.2457 17.3405 17.3405 17.4385
17.4385 17.5399 17.5399 17.6448 17.6448 17.7532 17.7532 17.8654 17.8654
17.9813 17.9813 18.1013 18.1013 18.2254 18.2254 18.3537 18.3537 18.4864
18.4864 18.6236 18.6236 18.7655 18.7655 18.9123 18.9123 19.064 19.064
19.221 19.221 19.3834 19.3834 19.5513 19.5513 19.725 19.725 19.9046
19.9046 20.0904 20.0904 20.2826 20.2826 20.4814 20.4814 20.6871 20.6871
20.8999 20.8999 21.1201 21.1201 21.3479 21.3479 21.5836 21.5836 21.8276
21.8276 22.0801 22.0801 22.3414 22.3414 22.6119 22.6119 22.8919 22.8919
23.1819 23.1819 23.4821 23.4821 23.793 23.793 24.115 24.115 24.4485
24.4485 24.794 24.794 25.152 25.152 25.5229 25.5229 25.9074 25.9074
26.3059 26.3059 26.719 26.719 27.1473 27.1473 27.5916 27.5916 28.0523
28.0523 28.5303 28.5303 29.0263 29.0263 29.541 29.541 30.0753 30.0753
30.6301 30.6301 31.2063 31.2063 31.8047 31.8047 32.4266 32.4266 33.0729
33.0729 33.7447 33.7447 34.4433 34.4433 35.17 35.17 35.9261 35.9261
36.7131 36.7131 37.5325 37.5325 38.3858 38.3858 39.2749 39.2749 40.2016
40.2016 41.1678 41.1678 42.1757 42.1757 43.2275 43.2275 44.3255 44.3255
45.4724 45.4724 46.671 46.671 47.9241 47.9241 49.235 49.235 50.6071
50.6071 52.0442 52.0442 53.5503 53.5503 55.1297 55.1297 56.7871 56.7871
58.5277 58.5277 60.357 60.357 62.2813 62.2813 64.3073 64.3073 66.4424
66.4424 68.6945 68.6945 71.0729 71.0729 73.5872 73.5872 76.2487 76.2487
79.0697 79.0697 82.0641 82.0641 85.2477 85.2477 88.6379 88.6379 92.255
92.255 96.1219 96.1219 100.265 100.265 104.715 104.715 109.508 109.508
114.684 114.684 120.292 120.292 126.39 126.39 133.043 133.043 140.355
140.355 148.537 148.537 157.364 157.364 167.594 167.594 180.247 180.247
191.617 191.617 199.118 199.118 205.197 205.197 210.182 210.182 213.068
213.068 214.507 214.507 215.102 215.102 214.475 214.475 212.438 212.438
209.4 209.4 205.28 205.28 200.245 200.245 194.361 194.361 187.265
187.265 179.331 179.331 170.308 170.308 159.815 159.815 148.513 148.513
135.993 135.993 122.156 122.156 107.717 107.717 91.9607 91.9607 75.187
75.187 57.768 57.768 38.7474 38.7474 19.0057 19.0057 -1.60756 -1.60756
-24.0954 -24.0954 -47.0508 -47.0508 -71.1452 -71.1452 -97.1282 -97.1282 -123.423
-123.423 -151.155 -151.155 -180.299 -180.299 -209.746 -209.746 -240.9 -240.9
-272.567 -272.567 -304.641 -304.641 -338.449 -338.449 -371.9 -371.9 -405.835
-405.835 -440.752 -440.752 -474.896 -474.896 -509.56 -509.56 -543.532 -543.532
-576.403 -576.403 -609.181 -609.181 -639.867 -639.867 -669.095 -669.095 -696.426
-696.426 -720.84 -720.84 -743.007 -743.007 -761.53 -761.53 -776.5 -776.5
-787.901 -787.901 -794.791 -794.791 -797.939 -797.939 -797.03 -797.03 -790.755
-790.755 -780.057 -780.057 -765.476 -765.476 -747.149 -747.149 -725.386 -725.386
-699.818 -699.818 -671.791 -671.791 -641.174 -641.174 -608.471 -608.471 -574.272
-574.272 -538.045 -538.045 -501.432 -501.432 -464.177 -464.177 -426.928 -426.928
-390.302 -390.302 -353.69 -353.69 -318.389 -318.389 -284.037 -284.037 -251.186
-251.186 -220.48 -220.48 -191.598 -191.598 -165.407 -165.407 -141.612 -141.612
-120.445 -120.445 -102.07 -102.07 -85.7922 -85.7922 -71.5161 -71.5161 -58.5489
-58.5489 -46.395 -46.395 -34.3716 -34.3716 -21.2837 -21.2837 -6.60264 -6.60264
9.80482 9.80482 27.365 27.365 45.472 45.472 63.6577 63.6577 81.3199
81.3199 98.1668 98.1668 113.852 113.852 128.236 128.236 141.182 141.182
152.593 152.593 162.416 162.416 170.565 170.565 177.007 177.007 181.552
181.552 184.113 184.113 184.241 184.241 181.51 181.51 175.667 175.667
164.486 164.486 151.503 151.503 140.721 140.721 130.479 130.479 121.038
121.038 112.555 112.555 104.731 104.731 97.5658 97.5658 91.0876 91.0876
85.2401 85.2401 79.9133 79.9133 75.0041 75.0041 70.4462 70.4462 66.2073
66.2073 62.2668 62.2668 58.5987 58.5987 55.1726 55.1726 51.9626 51.9626
48.9505 48.9505 46.1251 46.1251 43.4785 43.4785 41.0032 41.0032 38.6887
38.6887 36.5209 36.5209 34.4837 34.4837 32.5614 32.5614 30.7386 30.7386
29.0001 29.0001 27.3311 27.3311 25.7188 25.7188 24.1545 24.1545 22.6336
22.6336 21.1546 21.1546 19.7194 19.7194 18.3318 18.3318 16.9957 16.9957
15.714 15.714 14.4877 14.4877 13.3152 13.3152 12.1932 12.1932 11.1167
11.1167 10.0803 10.0803 9.07868 9.07868 8.10699 8.10699 7.16044 7.16044
6.23487 6.23487 5.32371 5.32371 4.42774 4.42774 3.53039 3.53039 2.65892
2.65892 1.71733 1.71733 0.821214 0.821214 0.458899 0.458899
        </DataArray>
        <DataArray type='Float32' Name='U' NumberOfComponents='3' format='ascii'>
0 0 0 0 0 0 0 0 0
0 0 0 0 0 0 0 0 0
0 0 0 0 0 0 0 0 0
0 0 0 0 0 0 0 0 0
0 0 0 0 0 0 0 0 0
0 0 0 0 0 0 0 0 0
0 0 0 0 0 0 0 0 0
0 0 0 0 0 0 0 0 0
0 0 0 0 0 0 0 0 0
0 0 0 0 0 0 0 0 0
0 0 0 0 0 0 0 0 0
0 0 0 0 0 0 0 0 0
0 0 0 0 0 0 0 0 0
0 0 0 0 0 0 0 0 0
0 0 0 0 0 0 0 0 0
0 0 0 0 0 0 0 0 0
0 0 0 0 0 0 0 0 0
0 0 0 0 0 0 0 0 0
0 0 0 0 0 0 0 0 0
0 0 0 0 0 0 0 0 0
0 0 0 0 0 0 0 0 0
0 0 0 0 0 0 0 0 0
0 0 0 0 0 0 0 0 0
0 0 0 0 0 0 0 0 0
0 0 0 0 0 0 0 0 0
0 0 0 0 0 0 0 0 0
0 0 0 0 0 0 0 0 0
0 0 0 0 0 0 0 0 0
0 0 0 0 0 0 0 0 0
0 0 0 0 0 0 0 0 0
0 0 0 0 0 0 0 0 0
0 0 0 0 0 0 0 0 0
0 0 0 0 0 0 0 0 0
0 0 0 0 0 0 0 0 0
0 0 0 0 0 0 0 0 0
0 0 0 0 0 0 0 0 0
0 0 0 0 0 0 0 0 0
0 0 0 0 0 0 0 0 0
0 0 0 0 0 0 0 0 0
0 0 0 0 0 0 0 0 0
0 0 0 0 0 0 0 0 0
0 0 0 0 0 0 0 0 0
0 0 0 0 0 0 0 0 0
0 0 0 0 0 0 0 0 0
0 0 0 0 0 0 0 0 0
0 0 0 0 0 0 0 0 0
0 0 0 0 0 0 0 0 0
0 0 0 0 0 0 0 0 0
0 0 0 0 0 0 0 0 0
0 0 0 0 0 0 0 0 0
0 0 0 0 0 0 0 0 0
0 0 0 0 0 0 0 0 0
0 0 0 0 0 0 0 0 0
0 0 0 0 0 0 0 0 0
0 0 0 0 0 0 0 0 0
0 0 0 0 0 0 0 0 0
0 0 0 0 0 0 0 0 0
0 0 0 0 0 0 0 0 0
0 0 0 0 0 0 0 0 0
0 0 0 0 0 0 0 0 0
0 0 0 0 0 0 0 0 0
0 0 0 0 0 0 0 0 0
0 0 0 0 0 0 0 0 0
0 0 0 0 0 0 0 0 0
0 0 0 0 0 0 0 0 0
0 0 0 0 0 0 0 0 0
0 0 0 0 0 0 0 0 0
0 0 0 0 0 0 0 0 0
0 0 0 0 0 0 0 0 0
0 0 0 0 0 0 0 0 0
0 0 0 0 0 0 0 0 0
0 0 0 0 0 0 0 0 0
0 0 0 0 0 0 0 0 0
0 0 0 0 0 0 0 0 0
0 0 0 0 0 0 0 0 0
0 0 0 0 0 0 0 0 0
0 0 0 0 0 0 0 0 0
0 0 0 0 0 0 0 0 0
0 0 0 0 0 0 0 0 0
0 0 0 0 0 0 0 0 0
0 0 0 0 0 0 0 0 0
0 0 0 0 0 0 0 0 0
0 0 0 0 0 0 0 0 0
0 0 0 0 0 0 0 0 0
0 0 0 0 0 0 0 0 0
0 0 0 0 0 0 0 0 0
0 0 0 0 0 0 0 0 0
0 0 0 0 0 0 0 0 0
0 0 0 0 0 0 0 0 0
0 0 0 0 0 0 0 0 0
0 0 0 0 0 0 0 0 0
0 0 0 0 0 0 0 0 0
0 0 0 0 0 0 0 0 0
0 0 0 0 0 0 0 0 0
0 0 0 0 0 0 0 0 0
0 0 0 0 0 0 0 0 0
0 0 0 0 0 0 0 0 0
0 0 0 0 0 0 0 0 0
0 0 0 0 0 0 0 0 0
0 0 0 0 0 0 0 0 0
0 0 0 0 0 0 0 0 0
0 0 0 0 0 0 0 0 0
0 0 0 0 0 0 0 0 0
0 0 0 0 0 0 0 0 0
0 0 0 0 0 0 0 0 0
0 0 0 0 0 0 0 0 0
0 0 0 0 0 0 0 0 0
0 0 0 0 0 0 0 0 0
0 0 0 0 0 0 0 0 0
0 0 0 0 0 0 0 0 0
0 0 0 0 0 0 0 0 0
0 0 0 0 0 0 0 0 0
0 0 0 0 0 0 0 0 0
0 0 0 0 0 0 0 0 0
0 0 0 0 0 0 0 0 0
0 0 0 0 0 0 0 0 0
0 0 0 0 0 0 0 0 0
0 0 0 0 0 0 0 0 0
0 0 0 0 0 0 0 0 0
0 0 0 0 0 0 0 0 0
0 0 0 0 0 0 0 0 0
0 0 0 0 0 0 0 0 0
0 0 0 0 0 0 0 0 0
0 0 0 0 0 0 0 0 0
0 0 0 0 0 0 0 0 0
0 0 0 0 0 0 0 0 0
0 0 0 0 0 0 0 0 0
0 0 0 0 0 0 0 0 0
0 0 0 0 0 0 0 0 0
0 0 0 0 0 0 0 0 0
0 0 0 0 0 0 0 0 0
0 0 0 0 0 0 0 0 0
0 0 0 0 0 0 0 0 0
0 0 0 0 0 0 0 0 0
0 0 0 0 0 0 0 0 0
0 0 0 0 0 0 0 0 0
0 0 0 0 0 0 0 0 0
0 0 0 0 0 0 0 0 0
0 0 0 0 0 0 0 0 0
0 0 0 0 0 0 0 0 0
0 0 0 0 0 0 0 0 0
0 0 0 0 0 0 0 0 0
0 0 0 0 0 0 0 0 0
0 0 0 0 0 0 0 0 0
0 0 0 0 0 0 0 0 0
0 0 0 0 0 0 0 0 0
0 0 0 0 0 0 0 0 0
0 0 0 0 0 0 0 0 0
0 0 0 0 0 0 0 0 0
0 0 0 0 0 0 0 0 0
0 0 0 0 0 0 0 0 0
0 0 0 0 0 0 0 0 0
0 0 0 0 0 0 0 0 0
0 0 0 0 0 0 0 0 0
0 0 0 0 0 0 0 0 0
0 0 0 0 0 0 0 0 0
0 0 0 0 0 0 0 0 0
0 0 0 0 0 0 0 0 0
0 0 0 0 0 0 0 0 0
0 0 0 0 0 0 0 0 0
0 0 0 0 0 0 0 0 0
0 0 0 0 0 0 0 0 0
0 0 0 0 0 0 0 0 0
0 0 0 0 0 0 0 0 0
0 0 0 0 0 0 0 0 0
0 0 0 0 0 0 0 0 0
0 0 0 0 0 0 0 0 0
0 0 0 0 0 0 0 0 0
0 0 0 0 0 0 0 0 0
0 0 0 0 0 0 0 0 0
0 0 0 0 0 0 0 0 0
0 0 0 0 0 0 0 0 0
0 0 0 0 0 0 0 0 0
0 0 0 0 0 0 0 0 0
0 0 0 0 0 0 0 0 0
0 0 0 0 0 0 0 0 0
0 0 0 0 0 0 0 0 0
0 0 0 0 0 0 0 0 0
0 0 0 0 0 0 0 0 0
0 0 0 0 0 0 0 0 0
0 0 0 0 0 0 0 0 0
0 0 0 0 0 0 0 0 0
0 0 0 0 0 0 0 0 0
0 0 0 0 0 0 0 0 0
0 0 0 0 0 0 0 0 0
0 0 0 0 0 0 0 0 0
0 0 0 0 0 0 0 0 0
0 0 0 0 0 0 0 0 0
0 0 0 0 0 0 0 0 0
0 0 0 0 0 0 0 0 0
0 0 0 0 0 0 0 0 0
0 0 0 0 0 0 0 0 0
0 0 0 0 0 0 0 0 0
0 0 0 0 0 0 0 0 0
0 0 0 0 0 0 0 0 0
0 0 0 0 0 0 0 0 0
0 0 0 0 0 0 0 0 0
0 0 0 0 0 0 0 0 0
0 0 0 0 0 0 0 0 0
0 0 0 0 0 0 0 0 0
0 0 0 0 0 0 0 0 0
0 0 0 0 0 0 0 0 0
0 0 0 0 0 0 0 0 0
0 0 0 0 0 0 0 0 0
0 0 0 0 0 0 0 0 0
0 0 0 0 0 0 0 0 0
0 0 0 0 0 0 0 0 0
0 0 0 0 0 0 0 0 0
0 0 0 0 0 0 0 0 0
0 0 0 0 0 0 0 0 0
0 0 0 0 0 0 0 0 0
0 0 0 0 0 0 0 0 0
0 0 0 0 0 0 0 0 0
0 0 0 0 0 0 0 0 0
0 0 0 0 0 0 0 0 0
0 0 0 0 0 0 0 0 0
0 0 0 0 0 0 0 0 0
0 0 0 0 0 0 0 0 0
0 0 0 0 0 0 0 0 0
0 0 0 0 0 0 0 0 0
0 0 0 0 0 0 0 0 0
0 0 0 0 0 0 0 0 0
0 0 0 0 0 0 0 0 0
0 0 0 0 0 0 0 0 0
0 0 0 0 0 0 0 0 0
0 0 0 0 0 0 0 0 0
0 0 0 0 0 0 0 0 0
0 0 0 0 0 0 0 0 0
0 0 0 0 0 0 0 0 0
0 0 0 0 0 0 0 0 0
0 0 0 0 0 0 0 0 0
0 0 0 0 0 0 0 0 0
0 0 0 0 0 0 0 0 0
0 0 0 0 0 0 0 0 0
0 0 0 0 0 0 0 0 0
0 0 0 0 0 0 0 0 0
0 0 0 0 0 0 0 0 0
0 0 0 0 0 0 0 0 0
0 0 0 0 0 0 0 0 0
0 0 0 0 0 0 0 0 0
0 0 0 0 0 0 0 0 0
0 0 0 0 0 0 0 0 0
0 0 0 0 0 0 0 0 0
0 0 0 0 0 0 0 0 0
0 0 0 0 0 0 0 0 0
0 0 0 0 0 0 0 0 0
0 0 0 0 0 0 0 0 0
0 0 0 0 0 0 0 0 0
0 0 0 0 0 0 0 0 0
0 0 0 0 0 0 0 0 0
0 0 0 0 0 0 0 0 0
0 0 0 0 0 0 0 0 0
0 0 0 0 0 0 0 0 0
0 0 0 0 0 0 0 0 0
0 0 0 0 0 0 0 0 0
0 0 0 0 0 0 0 0 0
0 0 0 0 0 0 0 0 0
0 0 0 0 0 0 0 0 0
0 0 0 0 0 0 0 0 0
0 0 0 0 0 0 0 0 0
0 0 0 0 0 0 0 0 0
0 0 0 0 0 0 0 0 0
0 0 0 0 0 0 0 0 0
0 0 0 0 0 0 0 0 0
0 0 0 0 0 0 0 0 0
0 0 0 0 0 0 0 0 0
0 0 0 0 0 0 0 0 0
0 0 0 0 0 0 0 0 0
0 0 0 0 0 0 0 0 0
0 0 0 0 0 0 0 0 0
0 0 0 0 0 0 0 0 0
0 0 0 0 0 0 0 0 0
0 0 0 0 0 0 0 0 0
0 0 0 0 0 0 0 0 0
0 0 0 0 0 0 0 0 0
0 0 0 0 0 0 0 0 0
0 0 0 0 0 0 0 0 0
0 0 0 0 0 0 0 0 0
0 0 0 0 0 0 0 0 0
0 0 0 0 0 0 0 0 0
0 0 0 0 0 0 0 0 0
0 0 0 0 0 0 0 0 0
0 0 0 0 0 0 0 0 0
0 0 0 0 0 0 0 0 0
0 0 0 0 0 0 0 0 0
0 0 0 0 0 0 0 0 0
0 0 0 0 0 0 0 0 0
0 0 0 0 0 0 0 0 0
0 0 0 0 0 0 0 0 0
0 0 0 0 0 0 0 0 0
0 0 0 0 0 0 0 0 0
0 0 0 0 0 0 0 0 0
0 0 0 0 0 0 0 0 0
0 0 0 0 0 0 0 0 0
0 0 0 0 0 0 0 0 0
0 0 0 0 0 0 0 0 0
0 0 0 0 0 0 0 0 0
0 0 0 0 0 0 0 0 0
0 0 0 0 0 0 0 0 0
0 0 0 0 0 0 0 0 0
0 0 0 0 0 0 0 0 0
0 0 0 0 0 0 0 0 0
0 0 0 0 0 0 0 0 0
0 0 0 0 0 0 0 0 0
0 0 0 0 0 0 0 0 0
0 0 0 0 0 0 0 0 0
0 0 0 0 0 0 0 0 0
0 0 0 0 0 0 0 0 0
0 0 0 0 0 0 0 0 0
0 0 0 0 0 0 0 0 0
0 0 0 0 0 0 0 0 0
0 0 0 0 0 0 0 0 0
0 0 0 0 0 0 0 0 0
0 0 0 0 0 0 0 0 0
0 0 0 0 0 0 0 0 0
0 0 0 0 0 0 0 0 0
0 0 0 0 0 0 0 0 0
0 0 0 0 0 0 0 0 0
0 0 0 0 0 0 0 0 0
0 0 0 0 0 0 0 0 0
0 0 0 0 0 0 0 0 0
0 0 0 0 0 0 0 0 0
0 0 0 0 0 0 0 0 0
0 0 0 0 0 0 0 0 0
0 0 0 0 0 0 0 0 0
0 0 0 0 0 0 0 0 0
0 0 0 0 0 0 0 0 0
0 0 0 0 0 0 0 0 0
0 0 0 0 0 0 0 0 0
0 0 0 0 0 0 0 0 0
0 0 0 0 0 0 0 0 0
0 0 0 0 0 0 0 0 0
0 0 0 0 0 0 0 0 0
0 0 0 0 0 0 0 0 0
0 0 0 0 0 0 0 0 0
0 0 0 0 0 0 0 0 0
0 0 0 0 0 0 0 0 0
0 0 0 0 0 0 0 0 0
0 0 0 0 0 0 0 0 0
0 0 0 0 0 0 0 0 0
0 0 0 0 0 0 0 0 0
0 0 0 0 0 0 0 0 0
0 0 0 0 0 0 0 0 0
0 0 0 0 0 0 0 0 0
0 0 0 0 0 0 0 0 0
0 0 0 0 0 0 0 0 0
0 0 0 0 0 0 0 0 0
0 0 0
        </DataArray>
      </PointData>
    </Piece>
  </PolyData>
</VTKFile>
