<?xml version='1.0'?>
<!-- patch='inlet' time='60' index='60' -->
<VTKFile type='PolyData' version='0.1' byte_order='LittleEndian' header_type='UInt64'>
  <PolyData>
    <FieldData>
      <DataArray type='Float32' Name='TimeValue' NumberOfTuples='1' format='ascii'>
60
      </DataArray>
    </FieldData>
    <Piece NumberOfPoints='362' NumberOfPolys='180'>
      <Points>
        <DataArray type='Float32' Name='Points' NumberOfComponents='3' format='ascii'>
-0.9 0 -0.01 -0.9 0 0.01 -0.9 0.000438104 0.01
-0.9 0.000438104 -0.01 -0.9 0.000882333 0.01 -0.9 0.000882333 -0.01
-0.9 0.00133277 0.01 -0.9 0.00133277 -0.01 -0.9 0.00178951 0.01
-0.9 0.00178951 -0.01 -0.9 0.00225263 0.01 -0.9 0.00225263 -0.01
-0.9 0.00272222 0.01 -0.9 0.00272222 -0.01 -0.9 0.00319838 0.01
-0.9 0.00319838 -0.01 -0.9 0.00368119 0.01 -0.9 0.00368119 -0.01
-0.9 0.00417076 0.01 -0.9 0.00417076 -0.01 -0.9 0.00466716 0.01
-0.9 0.00466716 -0.01 -0.9 0.00517051 0.01 -0.9 0.00517051 -0.01
-0.9 0.00568089 0.01 -0.9 0.00568089 -0.01 -0.9 0.00619841 0.01
-0.9 0.00619841 -0.01 -0.9 0.00672316 0.01 -0.9 0.00672316 -0.01
-0.9 0.00725525 0.01 -0.9 0.00725525 -0.01 -0.9 0.00779477 0.01
-0.9 0.00779477 -0.01 -0.9 0.00834184 0.01 -0.9 0.00834184 -0.01
-0.9 0.00889655 0.01 -0.9 0.00889655 -0.01 -0.9 0.00945902 0.01
-0.9 0.00945902 -0.01 -0.9 0.0100294 0.01 -0.9 0.0100294 -0.01
-0.9 0.0106077 0.01 -0.9 0.0106077 -0.01 -0.9 0.011194 0.01
-0.9 0.011194 -0.01 -0.9 0.0117886 0.01 -0.9 0.0117886 -0.01
-0.9 0.0123915 0.01 -0.9 0.0123915 -0.01 -0.9 0.0130029 0.01
-0.9 0.0130029 -0.01 -0.9 0.0136227 0.01 -0.9 0.0136227 -0.01
-0.9 0.0142513 0.01 -0.9 0.0142513 -0.01 -0.9 0.0148886 0.01
-0.9 0.0148886 -0.01 -0.9 0.0155348 0.01 -0.9 0.0155348 -0.01
-0.9 0.0161901 0.01 -0.9 0.0161901 -0.01 -0.9 0.0168545 0.01
-0.9 0.0168545 -0.01 -0.9 0.0175282 0.01 -0.9 0.0175282 -0.01
-0.9 0.0182113 0.01 -0.9 0.0182113 -0.01 -0.9 0.018904 0.01
-0.9 0.018904 -0.01 -0.9 0.0196064 0.01 -0.9 0.0196064 -0.01
-0.9 0.0203186 0.01 -0.9 0.0203186 -0.01 -0.9 0.0210407 0.01
-0.9 0.0210407 -0.01 -0.9 0.0217729 0.01 -0.9 0.0217729 -0.01
-0.9 0.0225154 0.01 -0.9 0.0225154 -0.01 -0.9 0.0232683 0.01
-0.9 0.0232683 -0.01 -0.9 0.0240316 0.01 -0.9 0.0240316 -0.01
-0.9 0.0248057 0.01 -0.9 0.0248057 -0.01 -0.9 0.0255905 0.01
-0.9 0.0255905 -0.01 -0.9 0.0263864 0.01 -0.9 0.0263864 -0.01
-0.9 0.0271933 0.01 -0.9 0.0271933 -0.01 -0.9 0.0280116 0.01
-0.9 0.0280116 -0.01 -0.9 0.0288412 0.01 -0.9 0.0288412 -0.01
-0.9 0.0296825 0.01 -0.9 0.0296825 -0.01 -0.9 0.0305355 0.01
-0.9 0.0305355 -0.01 -0.9 0.0314005 0.01 -0.9 0.0314005 -0.01
-0.9 0.0322776 0.01 -0.9 0.0322776 -0.01 -0.9 0.0331669 0.01
-0.9 0.0331669 -0.01 -0.9 0.0340686 0.01 -0.9 0.0340686 -0.01
-0.9 0.034983 0.01 -0.9 0.034983 -0.01 -0.9 0.0359101 0.01
-0.9 0.0359101 -0.01 -0.9 0.0368502 0.01 -0.9 0.0368502 -0.01
-0.9 0.0378034 0.01 -0.9 0.0378034 -0.01 -0.9 0.03877 0.01
-0.9 0.03877 -0.01 -0.9 0.03975 0.01 -0.9 0.03975 -0.01
-0.9 0.0407438 0.01 -0.9 0.0407438 -0.01 -0.9 0.0417515 0.01
-0.9 0.0417515 -0.01 -0.9 0.0427732 0.01 -0.9 0.0427732 -0.01
-0.9 0.0438092 0.01 -0.9 0.0438092 -0.01 -0.9 0.0448597 0.01
-0.9 0.0448597 -0.01 -0.9 0.0459249 0.01 -0.9 0.0459249 -0.01
-0.9 0.047005 0.01 -0.9 0.047005 -0.01 -0.9 0.0481002 0.01
-0.9 0.0481002 -0.01 -0.9 0.0492107 0.01 -0.9 0.0492107 -0.01
-0.9 0.0503367 0.01 -0.9 0.0503367 -0.01 -0.9 0.0514785 0.01
-0.9 0.0514785 -0.01 -0.9 0.0526362 0.01 -0.9 0.0526362 -0.01
-0.9 0.0538101 0.01 -0.9 0.0538101 -0.01 -0.9 0.0550004 0.01
-0.9 0.0550004 -0.01 -0.9 0.0562074 0.01 -0.9 0.0562074 -0.01
-0.9 0.0574312 0.01 -0.9 0.0574312 -0.01 -0.9 0.0586721 0.01
-0.9 0.0586721 -0.01 -0.9 0.0599304 0.01 -0.9 0.0599304 -0.01
-0.9 0.0612063 0.01 -0.9 0.0612063 -0.01 -0.9 0.0625 0.01
-0.9 0.0625 -0.01 -0.9 0.0638118 0.01 -0.9 0.0638118 -0.01
-0.9 0.0651419 0.01 -0.9 0.0651419 -0.01 -0.9 0.0664906 0.01
-0.9 0.0664906 -0.01 -0.9 0.0678582 0.01 -0.9 0.0678582 -0.01
-0.9 0.0692449 0.01 -0.9 0.0692449 -0.01 -0.9 0.070651 0.01
-0.9 0.070651 -0.01 -0.9 0.0720767 0.01 -0.9 0.0720767 -0.01
-0.9 0.0735224 0.01 -0.9 0.0735224 -0.01 -0.9 0.0749882 0.01
-0.9 0.0749882 -0.01 -0.9 0.0764746 0.01 -0.9 0.0764746 -0.01
-0.9 0.0779817 0.01 -0.9 0.0779817 -0.01 -0.9 0.07951 0.01
-0.9 0.07951 -0.01 -0.9 0.0810595 0.01 -0.9 0.0810595 -0.01
-0.9 0.0826308 0.01 -0.9 0.0826308 -0.01 -0.9 0.084224 0.01
-0.9 0.084224 -0.01 -0.9 0.0858394 0.01 -0.9 0.0858394 -0.01
-0.9 0.0874775 0.01 -0.9 0.0874775 -0.01 -0.9 0.0891384 0.01
-0.9 0.0891384 -0.01 -0.9 0.0908226 0.01 -0.9 0.0908226 -0.01
-0.9 0.0925303 0.01 -0.9 0.0925303 -0.01 -0.9 0.0942619 0.01
-0.9 0.0942619 -0.01 -0.9 0.0960177 0.01 -0.9 0.0960177 -0.01
-0.9 0.097798 0.01 -0.9 0.097798 -0.01 -0.9 0.0996032 0.01
-0.9 0.0996032 -0.01 -0.9 0.101434 0.01 -0.9 0.101434 -0.01
-0.9 0.10329 0.01 -0.9 0.10329 -0.01 -0.9 0.105172 0.01
-0.9 0.105172 -0.01 -0.9 0.10708 0.01 -0.9 0.10708 -0.01
-0.9 0.109015 0.01 -0.9 0.109015 -0.01 -0.9 0.110977 0.01
-0.9 0.110977 -0.01 -0.9 0.112966 0.01 -0.9 0.112966 -0.01
-0.9 0.114984 0.01 -0.9 0.114984 -0.01 -0.9 0.117029 0.01
-0.9 0.117029 -0.01 -0.9 0.119103 0.01 -0.9 0.119103 -0.01
-0.9 0.121206 0.01 -0.9 0.121206 -0.01 -0.9 0.123339 0.01
-0.9 0.123339 -0.01 -0.9 0.125501 0.01 -0.9 0.125501 -0.01
-0.9 0.127693 0.01 -0.9 0.127693 -0.01 -0.9 0.129917 0.01
-0.9 0.129917 -0.01 -0.9 0.132171 0.01 -0.9 0.132171 -0.01
-0.9 0.134456 0.01 -0.9 0.134456 -0.01 -0.9 0.136774 0.01
-0.9 0.136774 -0.01 -0.9 0.139124 0.01 -0.9 0.139124 -0.01
-0.9 0.141507 0.01 -0.9 0.141507 -0.01 -0.9 0.143923 0.01
-0.9 0.143923 -0.01 -0.9 0.146373 0.01 -0.9 0.146373 -0.01
-0.9 0.148858 0.01 -0.9 0.148858 -0.01 -0.9 0.151377 0.01
-0.9 0.151377 -0.01 -0.9 0.153931 0.01 -0.9 0.153931 -0.01
-0.9 0.156521 0.01 -0.9 0.156521 -0.01 -0.9 0.159147 0.01
-0.9 0.159147 -0.01 -0.9 0.16181 0.01 -0.9 0.16181 -0.01
-0.9 0.16451 0.01 -0.9 0.16451 -0.01 -0.9 0.167247 0.01
-0.9 0.167247 -0.01 -0.9 0.170023 0.01 -0.9 0.170023 -0.01
-0.9 0.172838 0.01 -0.9 0.172838 -0.01 -0.9 0.175692 0.01
-0.9 0.175692 -0.01 -0.9 0.178587 0.01 -0.9 0.178587 -0.01
-0.9 0.181521 0.01 -0.9 0.181521 -0.01 -0.9 0.184497 0.01
-0.9 0.184497 -0.01 -0.9 0.187514 0.01 -0.9 0.187514 -0.01
-0.9 0.190573 0.01 -0.9 0.190573 -0.01 -0.9 0.193675 0.01
-0.9 0.193675 -0.01 -0.9 0.196821 0.01 -0.9 0.196821 -0.01
-0.9 0.20001 0.01 -0.9 0.20001 -0.01 -0.9 0.203244 0.01
-0.9 0.203244 -0.01 -0.9 0.206524 0.01 -0.9 0.206524 -0.01
-0.9 0.209849 0.01 -0.9 0.209849 -0.01 -0.9 0.21322 0.01
-0.9 0.21322 -0.01 -0.9 0.216639 0.01 -0.9 0.216639 -0.01
-0.9 0.220105 0.01 -0.9 0.220105 -0.01 -0.9 0.22362 0.01
-0.9 0.22362 -0.01 -0.9 0.227185 0.01 -0.9 0.227185 -0.01
-0.9 0.230798 0.01 -0.9 0.230798 -0.01 -0.9 0.234463 0.01
-0.9 0.234463 -0.01 -0.9 0.238179 0.01 -0.9 0.238179 -0.01
-0.9 0.241946 0.01 -0.9 0.241946 -0.01 -0.9 0.245766 0.01
-0.9 0.245766 -0.01 -0.9 0.24964 0.01 -0.9 0.24964 -0.01
-0.9 0.253568 0.01 -0.9 0.253568 -0.01 -0.9 0.257551 0.01
-0.9 0.257551 -0.01 -0.9 0.261589 0.01 -0.9 0.261589 -0.01
-0.9 0.265684 0.01 -0.9 0.265684 -0.01 -0.9 0.269836 0.01
-0.9 0.269836 -0.01 -0.9 0.274046 0.01 -0.9 0.274046 -0.01
-0.9 0.278315 0.01 -0.9 0.278315 -0.01 -0.9 0.282644 0.01
-0.9 0.282644 -0.01 -0.9 0.287033 0.01 -0.9 0.287033 -0.01
-0.9 0.291483 0.01 -0.9 0.291483 -0.01 -0.9 0.295996 0.01
-0.9 0.295996 -0.01 -0.9 0.300572 0.01 -0.9 0.300572 -0.01
-0.9 0.305212 0.01 -0.9 0.305212 -0.01 -0.9 0.309916 0.01
-0.9 0.309916 -0.01 -0.9 0.314687 0.01 -0.9 0.314687 -0.01
-0.9 0.319524 0.01 -0.9 0.319524 -0.01 -0.9 0.324429 0.01
-0.9 0.324429 -0.01 -0.9 0.329402 0.01 -0.9 0.329402 -0.01
-0.9 0.334445 0.01 -0.9 0.334445 -0.01 -0.9 0.339558 0.01
-0.9 0.339558 -0.01 -0.9 0.344743 0.01 -0.9 0.344743 -0.01
-0.9 0.35 0.01 -0.9 0.35 -0.01
        </DataArray>
      </Points>
      <Polys>
        <DataArray type='Int32' Name='connectivity' format='ascii'>
0 1 2 3 3 2 4 5 5
4 6 7 7 6 8 9 9 8
10 11 11 10 12 13 13 12 14
15 15 14 16 17 17 16 18 19
19 18 20 21 21 20 22 23 23
22 24 25 25 24 26 27 27 26
28 29 29 28 30 31 31 30 32
33 33 32 34 35 35 34 36 37
37 36 38 39 39 38 40 41 41
40 42 43 43 42 44 45 45 44
46 47 47 46 48 49 49 48 50
51 51 50 52 53 53 52 54 55
55 54 56 57 57 56 58 59 59
58 60 61 61 60 62 63 63 62
64 65 65 64 66 67 67 66 68
69 69 68 70 71 71 70 72 73
73 72 74 75 75 74 76 77 77
76 78 79 79 78 80 81 81 80
82 83 83 82 84 85 85 84 86
87 87 86 88 89 89 88 90 91
91 90 92 93 93 92 94 95 95
94 96 97 97 96 98 99 99 98
100 101 101 100 102 103 103 102 104
105 105 104 106 107 107 106 108 109
109 108 110 111 111 110 112 113 113
112 114 115 115 114 116 117 117 116
118 119 119 118 120 121 121 120 122
123 123 122 124 125 125 124 126 127
127 126 128 129 129 128 130 131 131
130 132 133 133 132 134 135 135 134
136 137 137 136 138 139 139 138 140
141 141 140 142 143 143 142 144 145
145 144 146 147 147 146 148 149 149
148 150 151 151 150 152 153 153 152
154 155 155 154 156 157 157 156 158
159 159 158 160 161 161 160 162 163
163 162 164 165 165 164 166 167 167
166 168 169 169 168 170 171 171 170
172 173 173 172 174 175 175 174 176
177 177 176 178 179 179 178 180 181
181 180 182 183 183 182 184 185 185
184 186 187 187 186 188 189 189 188
190 191 191 190 192 193 193 192 194
195 195 194 196 197 197 196 198 199
199 198 200 201 201 200 202 203 203
202 204 205 205 204 206 207 207 206
208 209 209 208 210 211 211 210 212
213 213 212 214 215 215 214 216 217
217 216 218 219 219 218 220 221 221
220 222 223 223 222 224 225 225 224
226 227 227 226 228 229 229 228 230
231 231 230 232 233 233 232 234 235
235 234 236 237 237 236 238 239 239
238 240 241 241 240 242 243 243 242
244 245 245 244 246 247 247 246 248
249 249 248 250 251 251 250 252 253
253 252 254 255 255 254 256 257 257
256 258 259 259 258 260 261 261 260
262 263 263 262 264 265 265 264 266
267 267 266 268 269 269 268 270 271
271 270 272 273 273 272 274 275 275
274 276 277 277 276 278 279 279 278
280 281 281 280 282 283 283 282 284
285 285 284 286 287 287 286 288 289
289 288 290 291 291 290 292 293 293
292 294 295 295 294 296 297 297 296
298 299 299 298 300 301 301 300 302
303 303 302 304 305 305 304 306 307
307 306 308 309 309 308 310 311 311
310 312 313 313 312 314 315 315 314
316 317 317 316 318 319 319 318 320
321 321 320 322 323 323 322 324 325
325 324 326 327 327 326 328 329 329
328 330 331 331 330 332 333 333 332
334 335 335 334 336 337 337 336 338
339 339 338 340 341 341 340 342 343
343 342 344 345 345 344 346 347 347
346 348 349 349 348 350 351 351 350
352 353 353 352 354 355 355 354 356
357 357 356 358 359 359 358 360 361
        </DataArray>
        <DataArray type='Int32' Name='offsets' format='ascii'>
4 8 12 16 20 24 28 32 36
40 44 48 52 56 60 64 68 72
76 80 84 88 92 96 100 104 108
112 116 120 124 128 132 136 140 144
148 152 156 160 164 168 172 176 180
184 188 192 196 200 204 208 212 216
220 224 228 232 236 240 244 248 252
256 260 264 268 272 276 280 284 288
292 296 300 304 308 312 316 320 324
328 332 336 340 344 348 352 356 360
364 368 372 376 380 384 388 392 396
400 404 408 412 416 420 424 428 432
436 440 444 448 452 456 460 464 468
472 476 480 484 488 492 496 500 504
508 512 516 520 524 528 532 536 540
544 548 552 556 560 564 568 572 576
580 584 588 592 596 600 604 608 612
616 620 624 628 632 636 640 644 648
652 656 660 664 668 672 676 680 684
688 692 696 700 704 708 712 716 720
        </DataArray>
      </Polys>
      <CellData>
        <DataArray type='Float32' Name='k' format='ascii'>
0.179574 0.179574 0.179574 0.179574 0.179574 0.179574 0.179574 0.179574 0.179574
0.179574 0.179574 0.179574 0.179574 0.179574 0.179574 0.179574 0.179574 0.179574
0.179574 0.179574 0.179574 0.179574 0.179574 0.179574 0.179574 0.179574 0.179574
0.179574 0.179574 0.179574 0.179574 0.179574 0.179574 0.179574 0.179574 0.179574
0.179574 0.179574 0.179574 0.179574 0.179574 0.179574 0.179574 0.179574 0.179574
0.179574 0.179574 0.179574 0.179574 0.179574 0.179574 0.179574 0.179574 0.179574
0.179574 0.179574 0.179574 0.179574 0.179574 0.179574 0.179574 0.179574 0.179574
0.179574 0.179574 0.179574 0.179574 0.179574 0.179574 0.179574 0.179574 0.179574
0.179574 0.179574 0.179574 0.179574 0.179574 0.179574 0.179574 0.179574 0.179574
0.179574 0.179574 0.179574 0.179574 0.179574 0.179574 0.179574 0.179574 0.179574
0.179574 0.179574 0.179574 0.179574 0.179574 0.179574 0.179574 0.179574 0.179574
0.179574 0.179574 0.179574 0.179574 0.179574 0.179574 0.179574 0.179574 0.179574
0.179574 0.179574 0.179574 0.179574 0.179574 0.179574 0.179574 0.179574 0.179574
0.179574 0.179574 0.179574 0.179574 0.179574 0.179574 0.179574 0.179574 0.179574
0.179574 0.179574 0.179574 0.179574 0.179574 0.179574 0.179574 0.179574 0.179574
0.179574 0.179574 0.179574 0.179574 0.179574 0.179574 0.179574 0.179574 0.179574
0.179574 0.179574 0.179574 0.179574 0.179574 0.179574 0.179574 0.179574 0.179574
0.179574 0.179574 0.179574 0.179574 0.179574 0.179574 0.179574 0.179574 0.179574
0.179574 0.179574 0.179574 0.179574 0.179574 0.179574 0.179574 0.179574 0.179574
0.179574 0.179574 0.179574 0.179574 0.179574 0.179574 0.179574 0.179574 0.179574
        </DataArray>
        <DataArray type='Float32' Name='nut' format='ascii'>
5.90679e-05 0.000176229 0.000568272 0.000568272 0.000568272 0.000568272 0.000568272 0.000568272 0.000568272
0.000568272 0.000568272 0.000568272 0.000568272 0.000568272 0.000568272 0.000568272 0.000568272 0.000568272
0.000568272 0.000568272 0.000568272 0.000568272 0.000568272 0.000568272 0.000568272 0.000568272 0.000568272
0.000568272 0.000568272 0.000568272 0.000568272 0.000568272 0.000568272 0.000568272 0.000568272 0.000568272
0.000568272 0.000568272 0.000568272 0.000568272 0.000568272 0.000568272 0.000568272 0.000568272 0.000568272
0.000568272 0.000568272 0.000568272 0.000568272 0.000568272 0.000568272 0.000568272 0.000568272 0.000568272
0.000568272 0.000568272 0.000568272 0.000568272 0.000568272 0.000568272 0.000568272 0.000568272 0.000568272
0.000568272 0.000568272 0.000568272 0.000568272 0.000568272 0.000568272 0.000568272 0.000568272 0.000568272
0.000568272 0.000568272 0.000568272 0.000568272 0.000568272 0.000568272 0.000568272 0.000568272 0.000568272
0.000568272 0.000568272 0.000568272 0.000568272 0.000568272 0.000568272 0.000568272 0.000568272 0.000568272
0.000568272 0.000568272 0.000568272 0.000568272 0.000568272 0.000568272 0.000568272 0.000568272 0.000568272
0.000568272 0.000568272 0.000568272 0.000568272 0.000568272 0.000568272 0.000568272 0.000568272 0.000568272
0.000568272 0.000568272 0.000568272 0.000568272 0.000568272 0.000568272 0.000568272 0.000568272 0.000568272
0.000568272 0.000568272 0.000568272 0.000568272 0.000568272 0.000568272 0.000568272 0.000568272 0.000568272
0.000568272 0.000568272 0.000568272 0.000568272 0.000568272 0.000568272 0.000568272 0.000568272 0.000568272
0.000568272 0.000568272 0.000568272 0.000568272 0.000568272 0.000568272 0.000568272 0.000568272 0.000568272
0.000568272 0.000568272 0.000568272 0.000568272 0.000568272 0.000568272 0.000568272 0.000568272 0.000568272
0.000568272 0.000568272 0.000568272 0.000568272 0.000568272 0.000568272 0.000568272 0.000568272 0.000568272
0.000568272 0.000568272 0.000568272 0.000568272 0.000568272 0.000568272 0.000568272 0.000568272 0.000568272
0.000568272 0.000568272 0.000568272 0.000568272 0.000568272 0.000568272 0.000568272 0.000568272 0.000568272
        </DataArray>
        <DataArray type='Float32' Name='omega' format='ascii'>
316 316 316 316 316 316 316 316 316
316 316 316 316 316 316 316 316 316
316 316 316 316 316 316 316 316 316
316 316 316 316 316 316 316 316 316
316 316 316 316 316 316 316 316 316
316 316 316 316 316 316 316 316 316
316 316 316 316 316 316 316 316 316
316 316 316 316 316 316 316 316 316
316 316 316 316 316 316 316 316 316
316 316 316 316 316 316 316 316 316
316 316 316 316 316 316 316 316 316
316 316 316 316 316 316 316 316 316
316 316 316 316 316 316 316 316 316
316 316 316 316 316 316 316 316 316
316 316 316 316 316 316 316 316 316
316 316 316 316 316 316 316 316 316
316 316 316 316 316 316 316 316 316
316 316 316 316 316 316 316 316 316
316 316 316 316 316 316 316 316 316
316 316 316 316 316 316 316 316 316
        </DataArray>
        <DataArray type='Float32' Name='p' format='ascii'>
31.0289 29.4371 28.3674 27.6597 27.053 26.5723 26.1785 25.8455 25.5564
25.2998 25.0682 24.856 24.6595 24.4757 24.3026 24.1384 23.982 23.8323
23.6885 23.5499 23.416 23.2863 23.1604 23.038 22.9188 22.8026 22.6892
22.5784 22.47 22.364 22.26 22.1582 22.0583 21.9602 21.864 21.7694
21.6765 21.5852 21.4954 21.4071 21.3202 21.2346 21.1504 21.0675 20.9859
20.9055 20.8262 20.7481 20.6711 20.5953 20.5205 20.4467 20.374 20.3022
20.2314 20.1616 20.0927 20.0247 19.9576 19.8914 19.8261 19.7615 19.6978
19.6349 19.5728 19.5114 19.4508 19.391 19.3319 19.2735 19.2158 19.1588
19.1025 19.0468 18.9918 18.9375 18.8837 18.8306 18.7781 18.7262 18.6749
18.6242 18.574 18.5245 18.4754 18.4269 18.379 18.3315 18.2846 18.2382
18.1923 18.1469 18.102 18.0576 18.0136 17.9701 17.9271 17.8845 17.8424
17.8008 17.7595 17.7187 17.6784 17.6384 17.5989 17.5598 17.521 17.4827
17.4448 17.4073 17.3702 17.3335 17.2972 17.2612 17.2256 17.1904 17.1556
17.1212 17.0871 17.0534 17.0201 16.9871 16.9545 16.9223 16.8904 16.8589
16.8278 16.797 16.7666 16.7365 16.7068 16.6775 16.6486 16.62 16.5918
16.5639 16.5365 16.5094 16.4827 16.4564 16.4305 16.405 16.3799 16.3552
16.3309 16.307 16.2835 16.2605 16.2379 16.2158 16.1941 16.1729 16.1521
16.1319 16.1121 16.0929 16.0741 16.0559 16.0383 16.0212 16.0046 15.9887
15.9734 15.9587 15.9447 15.9313 15.9186 15.9067 15.8954 15.8849 15.8753
15.8664 15.8584 15.8512 15.845 15.8397 15.8353 15.832 15.8298 15.8286
        </DataArray>
        <DataArray type='Float32' Name='U' NumberOfComponents='3' format='ascii'>
34.6 0 0 34.6 0 0 34.6 0 0
34.6 0 0 34.6 0 0 34.6 0 0
34.6 0 0 34.6 0 0 34.6 0 0
34.6 0 0 34.6 0 0 34.6 0 0
34.6 0 0 34.6 0 0 34.6 0 0
34.6 0 0 34.6 0 0 34.6 0 0
34.6 0 0 34.6 0 0 34.6 0 0
34.6 0 0 34.6 0 0 34.6 0 0
34.6 0 0 34.6 0 0 34.6 0 0
34.6 0 0 34.6 0 0 34.6 0 0
34.6 0 0 34.6 0 0 34.6 0 0
34.6 0 0 34.6 0 0 34.6 0 0
34.6 0 0 34.6 0 0 34.6 0 0
34.6 0 0 34.6 0 0 34.6 0 0
34.6 0 0 34.6 0 0 34.6 0 0
34.6 0 0 34.6 0 0 34.6 0 0
34.6 0 0 34.6 0 0 34.6 0 0
34.6 0 0 34.6 0 0 34.6 0 0
34.6 0 0 34.6 0 0 34.6 0 0
34.6 0 0 34.6 0 0 34.6 0 0
34.6 0 0 34.6 0 0 34.6 0 0
34.6 0 0 34.6 0 0 34.6 0 0
34.6 0 0 34.6 0 0 34.6 0 0
34.6 0 0 34.6 0 0 34.6 0 0
34.6 0 0 34.6 0 0 34.6 0 0
34.6 0 0 34.6 0 0 34.6 0 0
34.6 0 0 34.6 0 0 34.6 0 0
34.6 0 0 34.6 0 0 34.6 0 0
34.6 0 0 34.6 0 0 34.6 0 0
34.6 0 0 34.6 0 0 34.6 0 0
34.6 0 0 34.6 0 0 34.6 0 0
34.6 0 0 34.6 0 0 34.6 0 0
34.6 0 0 34.6 0 0 34.6 0 0
34.6 0 0 34.6 0 0 34.6 0 0
34.6 0 0 34.6 0 0 34.6 0 0
34.6 0 0 34.6 0 0 34.6 0 0
34.6 0 0 34.6 0 0 34.6 0 0
34.6 0 0 34.6 0 0 34.6 0 0
34.6 0 0 34.6 0 0 34.6 0 0
34.6 0 0 34.6 0 0 34.6 0 0
34.6 0 0 34.6 0 0 34.6 0 0
34.6 0 0 34.6 0 0 34.6 0 0
34.6 0 0 34.6 0 0 34.6 0 0
34.6 0 0 34.6 0 0 34.6 0 0
34.6 0 0 34.6 0 0 34.6 0 0
34.6 0 0 34.6 0 0 34.6 0 0
34.6 0 0 34.6 0 0 34.6 0 0
34.6 0 0 34.6 0 0 34.6 0 0
34.6 0 0 34.6 0 0 34.6 0 0
34.6 0 0 34.6 0 0 34.6 0 0
34.6 0 0 34.6 0 0 34.6 0 0
34.6 0 0 34.6 0 0 34.6 0 0
34.6 0 0 34.6 0 0 34.6 0 0
34.6 0 0 34.6 0 0 34.6 0 0
34.6 0 0 34.6 0 0 34.6 0 0
34.6 0 0 34.6 0 0 34.6 0 0
34.6 0 0 34.6 0 0 34.6 0 0
34.6 0 0 34.6 0 0 34.6 0 0
34.6 0 0 34.6 0 0 34.6 0 0
34.6 0 0 34.6 0 0 34.6 0 0
        </DataArray>
      </CellData>
      <PointData>
        <DataArray type='Float32' Name='k' format='ascii'>
0.179574 0.179574 0.179574 0.179574 0.179574 0.179574 0.179574 0.179574 0.179574
0.179574 0.179574 0.179574 0.179574 0.179574 0.179574 0.179574 0.179574 0.179574
0.179574 0.179574 0.179574 0.179574 0.179574 0.179574 0.179574 0.179574 0.179574
0.179574 0.179574 0.179574 0.179574 0.179574 0.179574 0.179574 0.179574 0.179574
0.179574 0.179574 0.179574 0.179574 0.179574 0.179574 0.179574 0.179574 0.179574
0.179574 0.179574 0.179574 0.179574 0.179574 0.179574 0.179574 0.179574 0.179574
0.179574 0.179574 0.179574 0.179574 0.179574 0.179574 0.179574 0.179574 0.179574
0.179574 0.179574 0.179574 0.179574 0.179574 0.179574 0.179574 0.179574 0.179574
0.179574 0.179574 0.179574 0.179574 0.179574 0.179574 0.179574 0.179574 0.179574
0.179574 0.179574 0.179574 0.179574 0.179574 0.179574 0.179574 0.179574 0.179574
0.179574 0.179574 0.179574 0.179574 0.179574 0.179574 0.179574 0.179574 0.179574
0.179574 0.179574 0.179574 0.179574 0.179574 0.179574 0.179574 0.179574 0.179574
0.179574 0.179574 0.179574 0.179574 0.179574 0.179574 0.179574 0.179574 0.179574
0.179574 0.179574 0.179574 0.179574 0.179574 0.179574 0.179574 0.179574 0.179574
0.179574 0.179574 0.179574 0.179574 0.179574 0.179574 0.179574 0.179574 0.179574
0.179574 0.179574 0.179574 0.179574 0.179574 0.179574 0.179574 0.179574 0.179574
0.179574 0.179574 0.179574 0.179574 0.179574 0.179574 0.179574 0.179574 0.179574
0.179574 0.179574 0.179574 0.179574 0.179574 0.179574 0.179574 0.179574 0.179574
0.179574 0.179574 0.179574 0.179574 0.179574 0.179574 0.179574 0.179574 0.179574
0.179574 0.179574 0.179574 0.179574 0.179574 0.179574 0.179574 0.179574 0.179574
0.179574 0.179574 0.179574 0.179574 0.179574 0.179574 0.179574 0.179574 0.179574
0.179574 0.179574 0.179574 0.179574 0.179574 0.179574 0.179574 0.179574 0.179574
0.179574 0.179574 0.179574 0.179574 0.179574 0.179574 0.179574 0.179574 0.179574
0.179574 0.179574 0.179574 0.179574 0.179574 0.179574 0.179574 0.179574 0.179574
0.179574 0.179574 0.179574 0.179574 0.179574 0.179574 0.179574 0.179574 0.179574
0.179574 0.179574 0.179574 0.179574 0.179574 0.179574 0.179574 0.179574 0.179574
0.179574 0.179574 0.179574 0.179574 0.179574 0.179574 0.179574 0.179574 0.179574
0.179574 0.179574 0.179574 0.179574 0.179574 0.179574 0.179574 0.179574 0.179574
0.179574 0.179574 0.179574 0.179574 0.179574 0.179574 0.179574 0.179574 0.179574
0.179574 0.179574 0.179574 0.179574 0.179574 0.179574 0.179574 0.179574 0.179574
0.179574 0.179574 0.179574 0.179574 0.179574 0.179574 0.179574 0.179574 0.179574
0.179574 0.179574 0.179574 0.179574 0.179574 0.179574 0.179574 0.179574 0.179574
0.179574 0.179574 0.179574 0.179574 0.179574 0.179574 0.179574 0.179574 0.179574
0.179574 0.179574 0.179574 0.179574 0.179574 0.179574 0.179574 0.179574 0.179574
0.179574 0.179574 0.179574 0.179574 0.179574 0.179574 0.179574 0.179574 0.179574
0.179574 0.179574 0.179574 0.179574 0.179574 0.179574 0.179574 0.179574 0.179574
0.179574 0.179574 0.179574 0.179574 0.179574 0.179574 0.179574 0.179574 0.179574
0.179574 0.179574 0.179574 0.179574 0.179574 0.179574 0.179574 0.179574 0.179574
0.179574 0.179574 0.179574 0.179574 0.179574 0.179574 0.179574 0.179574 0.179574
0.179574 0.179574 0.179574 0.179574 0.179574 0.179574 0.179574 0.179574 0.179574
0.179574 0.179574
        </DataArray>
        <DataArray type='Float32' Name='nut' format='ascii'>
5.90679e-05 5.90679e-05 0.000117648 0.000117648 0.00037225 0.00037225 0.000568272 0.000568272 0.000568272
0.000568272 0.000568272 0.000568272 0.000568272 0.000568272 0.000568272 0.000568272 0.000568272 0.000568272
0.000568272 0.000568272 0.000568272 0.000568272 0.000568272 0.000568272 0.000568272 0.000568272 0.000568272
0.000568272 0.000568272 0.000568272 0.000568272 0.000568272 0.000568272 0.000568272 0.000568272 0.000568272
0.000568272 0.000568272 0.000568272 0.000568272 0.000568272 0.000568272 0.000568272 0.000568272 0.000568272
0.000568272 0.000568272 0.000568272 0.000568272 0.000568272 0.000568272 0.000568272 0.000568272 0.000568272
0.000568272 0.000568272 0.000568272 0.000568272 0.000568272 0.000568272 0.000568272 0.000568272 0.000568272
0.000568272 0.000568272 0.000568272 0.000568272 0.000568272 0.000568272 0.000568272 0.000568272 0.000568272
0.000568272 0.000568272 0.000568272 0.000568272 0.000568272 0.000568272 0.000568272 0.000568272 0.000568272
0.000568272 0.000568272 0.000568272 0.000568272 0.000568272 0.000568272 0.000568272 0.000568272 0.000568272
0.000568272 0.000568272 0.000568272 0.000568272 0.000568272 0.000568272 0.000568272 0.000568272 0.000568272
0.000568272 0.000568272 0.000568272 0.000568272 0.000568272 0.000568272 0.000568272 0.000568272 0.000568272
0.000568272 0.000568272 0.000568272 0.000568272 0.000568272 0.000568272 0.000568272 0.000568272 0.000568272
0.000568272 0.000568272 0.000568272 0.000568272 0.000568272 0.000568272 0.000568272 0.000568272 0.000568272
0.000568272 0.000568272 0.000568272 0.000568272 0.000568272 0.000568272 0.000568272 0.000568272 0.000568272
0.000568272 0.000568272 0.000568272 0.000568272 0.000568272 0.000568272 0.000568272 0.000568272 0.000568272
0.000568272 0.000568272 0.000568272 0.000568272 0.000568272 0.000568272 0.000568272 0.000568272 0.000568272
0.000568272 0.000568272 0.000568272 0.000568272 0.000568272 0.000568272 0.000568272 0.000568272 0.000568272
0.000568272 0.000568272 0.000568272 0.000568272 0.000568272 0.000568272 0.000568272 0.000568272 0.000568272
0.000568272 0.000568272 0.000568272 0.000568272 0.000568272 0.000568272 0.000568272 0.000568272 0.000568272
0.000568272 0.000568272 0.000568272 0.000568272 0.000568272 0.000568272 0.000568272 0.000568272 0.000568272
0.000568272 0.000568272 0.000568272 0.000568272 0.000568272 0.000568272 0.000568272 0.000568272 0.000568272
0.000568272 0.000568272 0.000568272 0.000568272 0.000568272 0.000568272 0.000568272 0.000568272 0.000568272
0.000568272 0.000568272 0.000568272 0.000568272 0.000568272 0.000568272 0.000568272 0.000568272 0.000568272
0.000568272 0.000568272 0.000568272 0.000568272 0.000568272 0.000568272 0.000568272 0.000568272 0.000568272
0.000568272 0.000568272 0.000568272 0.000568272 0.000568272 0.000568272 0.000568272 0.000568272 0.000568272
0.000568272 0.000568272 0.000568272 0.000568272 0.000568272 0.000568272 0.000568272 0.000568272 0.000568272
0.000568272 0.000568272 0.000568272 0.000568272 0.000568272 0.000568272 0.000568272 0.000568272 0.000568272
0.000568272 0.000568272 0.000568272 0.000568272 0.000568272 0.000568272 0.000568272 0.000568272 0.000568272
0.000568272 0.000568272 0.000568272 0.000568272 0.000568272 0.000568272 0.000568272 0.000568272 0.000568272
0.000568272 0.000568272 0.000568272 0.000568272 0.000568272 0.000568272 0.000568272 0.000568272 0.000568272
0.000568272 0.000568272 0.000568272 0.000568272 0.000568272 0.000568272 0.000568272 0.000568272 0.000568272
0.000568272 0.000568272 0.000568272 0.000568272 0.000568272 0.000568272 0.000568272 0.000568272 0.000568272
0.000568272 0.000568272 0.000568272 0.000568272 0.000568272 0.000568272 0.000568272 0.000568272 0.000568272
0.000568272 0.000568272 0.000568272 0.000568272 0.000568272 0.000568272 0.000568272 0.000568272 0.000568272
0.000568272 0.000568272 0.000568272 0.000568272 0.000568272 0.000568272 0.000568272 0.000568272 0.000568272
0.000568272 0.000568272 0.000568272 0.000568272 0.000568272 0.000568272 0.000568272 0.000568272 0.000568272
0.000568272 0.000568272 0.000568272 0.000568272 0.000568272 0.000568272 0.000568272 0.000568272 0.000568272
0.000568272 0.000568272 0.000568272 0.000568272 0.000568272 0.000568272 0.000568272 0.000568272 0.000568272
0.000568272 0.000568272 0.000568272 0.000568272 0.000568272 0.000568272 0.000568272 0.000568272 0.000568272
0.000568272 0.000568272
        </DataArray>
        <DataArray type='Float32' Name='omega' format='ascii'>
316 316 316 316 316 316 316 316 316
316 316 316 316 316 316 316 316 316
316 316 316 316 316 316 316 316 316
316 316 316 316 316 316 316 316 316
316 316 316 316 316 316 316 316 316
316 316 316 316 316 316 316 316 316
316 316 316 316 316 316 316 316 316
316 316 316 316 316 316 316 316 316
316 316 316 316 316 316 316 316 316
316 316 316 316 316 316 316 316 316
316 316 316 316 316 316 316 316 316
316 316 316 316 316 316 316 316 316
316 316 316 316 316 316 316 316 316
316 316 316 316 316 316 316 316 316
316 316 316 316 316 316 316 316 316
316 316 316 316 316 316 316 316 316
316 316 316 316 316 316 316 316 316
316 316 316 316 316 316 316 316 316
316 316 316 316 316 316 316 316 316
316 316 316 316 316 316 316 316 316
316 316 316 316 316 316 316 316 316
316 316 316 316 316 316 316 316 316
316 316 316 316 316 316 316 316 316
316 316 316 316 316 316 316 316 316
316 316 316 316 316 316 316 316 316
316 316 316 316 316 316 316 316 316
316 316 316 316 316 316 316 316 316
316 316 316 316 316 316 316 316 316
316 316 316 316 316 316 316 316 316
316 316 316 316 316 316 316 316 316
316 316 316 316 316 316 316 316 316
316 316 316 316 316 316 316 316 316
316 316 316 316 316 316 316 316 316
316 316 316 316 316 316 316 316 316
316 316 316 316 316 316 316 316 316
316 316 316 316 316 316 316 316 316
316 316 316 316 316 316 316 316 316
316 316 316 316 316 316 316 316 316
316 316 316 316 316 316 316 316 316
316 316 316 316 316 316 316 316 316
316 316
        </DataArray>
        <DataArray type='Float32' Name='p' format='ascii'>
31.0289 31.0289 30.233 30.233 28.9022 28.9022 28.0136 28.0136 27.3564
27.3564 26.8127 26.8127 26.3754 26.3754 26.012 26.012 25.7009 25.7009
25.4281 25.4281 25.184 25.184 24.9621 24.9621 24.7577 24.7577 24.5676
24.5676 24.3891 24.3891 24.2205 24.2205 24.0602 24.0602 23.9072 23.9072
23.7604 23.7604 23.6192 23.6192 23.4829 23.4829 23.3511 23.3511 23.2233
23.2233 23.0992 23.0992 22.9784 22.9784 22.8607 22.8607 22.7459 22.7459
22.6338 22.6338 22.5242 22.5242 22.417 22.417 22.312 22.312 22.2091
22.2091 22.1082 22.1082 22.0093 22.0093 21.9121 21.9121 21.8167 21.8167
21.723 21.723 21.6309 21.6309 21.5403 21.5403 21.4512 21.4512 21.3636
21.3636 21.2774 21.2774 21.1925 21.1925 21.109 21.109 21.0267 21.0267
20.9457 20.9457 20.8658 20.8658 20.7872 20.7872 20.7096 20.7096 20.6332
20.6332 20.5579 20.5579 20.4836 20.4836 20.4103 20.4103 20.3381 20.3381
20.2668 20.2668 20.1965 20.1965 20.1272 20.1272 20.0587 20.0587 19.9912
19.9912 19.9245 19.9245 19.8587 19.8587 19.7938 19.7938 19.7297 19.7297
19.6664 19.6664 19.6038 19.6038 19.5421 19.5421 19.4811 19.4811 19.4209
19.4209 19.3615 19.3615 19.3027 19.3027 19.2446 19.2446 19.1873 19.1873
19.1306 19.1306 19.0746 19.0746 19.0193 19.0193 18.9646 18.9646 18.9106
18.9106 18.8572 18.8572 18.8044 18.8044 18.7522 18.7522 18.7006 18.7006
18.6496 18.6496 18.5991 18.5991 18.5492 18.5492 18.4999 18.4999 18.4512
18.4512 18.4029 18.4029 18.3552 18.3552 18.3081 18.3081 18.2614 18.2614
18.2153 18.2153 18.1696 18.1696 18.1245 18.1245 18.0798 18.0798 18.0356
18.0356 17.9919 17.9919 17.9486 17.9486 17.9058 17.9058 17.8635 17.8635
17.8216 17.8216 17.7801 17.7801 17.7391 17.7391 17.6985 17.6985 17.6584
17.6584 17.6186 17.6186 17.5793 17.5793 17.5404 17.5404 17.5019 17.5019
17.4638 17.4638 17.4261 17.4261 17.3888 17.3888 17.3519 17.3519 17.3153
17.3153 17.2792 17.2792 17.2434 17.2434 17.208 17.208 17.173 17.173
17.1384 17.1384 17.1042 17.1042 17.0703 17.0703 17.0367 17.0367 17.0036
17.0036 16.9708 16.9708 16.9384 16.9384 16.9063 16.9063 16.8747 16.8747
16.8433 16.8433 16.8124 16.8124 16.7818 16.7818 16.7515 16.7515 16.7217
16.7217 16.6922 16.6922 16.663 16.663 16.6343 16.6343 16.6059 16.6059
16.5779 16.5779 16.5502 16.5502 16.523 16.523 16.4961 16.4961 16.4696
16.4696 16.4435 16.4435 16.4178 16.4178 16.3924 16.3924 16.3675 16.3675
16.343 16.343 16.3189 16.3189 16.2953 16.2953 16.272 16.272 16.2492
16.2492 16.2269 16.2269 16.2049 16.2049 16.1835 16.1835 16.1625 16.1625
16.142 16.142 16.122 16.122 16.1025 16.1025 16.0835 16.0835 16.065
16.065 16.0471 16.0471 16.0297 16.0297 16.0129 16.0129 15.9967 15.9967
15.9811 15.9811 15.9661 15.9661 15.9517 15.9517 15.938 15.938 15.925
15.925 15.9126 15.9126 15.901 15.901 15.8902 15.8902 15.8801 15.8801
15.8708 15.8708 15.8624 15.8624 15.8548 15.8548 15.8481 15.8481 15.8423
15.8423 15.8375 15.8375 15.8337 15.8337 15.8309 15.8309 15.8292 15.8292
15.8286 15.8286
        </DataArray>
        <DataArray type='Float32' Name='U' NumberOfComponents='3' format='ascii'>
34.6 0 0 34.6 0 0 34.6 0 0
34.6 0 0 34.6 0 0 34.6 0 0
34.6 0 0 34.6 0 0 34.6 0 0
34.6 0 0 34.6 0 0 34.6 0 0
34.6 0 0 34.6 0 0 34.6 0 0
34.6 0 0 34.6 0 0 34.6 0 0
34.6 0 0 34.6 0 0 34.6 0 0
34.6 0 0 34.6 0 0 34.6 0 0
34.6 0 0 34.6 0 0 34.6 0 0
34.6 0 0 34.6 0 0 34.6 0 0
34.6 0 0 34.6 0 0 34.6 0 0
34.6 0 0 34.6 0 0 34.6 0 0
34.6 0 0 34.6 0 0 34.6 0 0
34.6 0 0 34.6 0 0 34.6 0 0
34.6 0 0 34.6 0 0 34.6 0 0
34.6 0 0 34.6 0 0 34.6 0 0
34.6 0 0 34.6 0 0 34.6 0 0
34.6 0 0 34.6 0 0 34.6 0 0
34.6 0 0 34.6 0 0 34.6 0 0
34.6 0 0 34.6 0 0 34.6 0 0
34.6 0 0 34.6 0 0 34.6 0 0
34.6 0 0 34.6 0 0 34.6 0 0
34.6 0 0 34.6 0 0 34.6 0 0
34.6 0 0 34.6 0 0 34.6 0 0
34.6 0 0 34.6 0 0 34.6 0 0
34.6 0 0 34.6 0 0 34.6 0 0
34.6 0 0 34.6 0 0 34.6 0 0
34.6 0 0 34.6 0 0 34.6 0 0
34.6 0 0 34.6 0 0 34.6 0 0
34.6 0 0 34.6 0 0 34.6 0 0
34.6 0 0 34.6 0 0 34.6 0 0
34.6 0 0 34.6 0 0 34.6 0 0
34.6 0 0 34.6 0 0 34.6 0 0
34.6 0 0 34.6 0 0 34.6 0 0
34.6 0 0 34.6 0 0 34.6 0 0
34.6 0 0 34.6 0 0 34.6 0 0
34.6 0 0 34.6 0 0 34.6 0 0
34.6 0 0 34.6 0 0 34.6 0 0
34.6 0 0 34.6 0 0 34.6 0 0
34.6 0 0 34.6 0 0 34.6 0 0
34.6 0 0 34.6 0 0 34.6 0 0
34.6 0 0 34.6 0 0 34.6 0 0
34.6 0 0 34.6 0 0 34.6 0 0
34.6 0 0 34.6 0 0 34.6 0 0
34.6 0 0 34.6 0 0 34.6 0 0
34.6 0 0 34.6 0 0 34.6 0 0
34.6 0 0 34.6 0 0 34.6 0 0
34.6 0 0 34.6 0 0 34.6 0 0
34.6 0 0 34.6 0 0 34.6 0 0
34.6 0 0 34.6 0 0 34.6 0 0
34.6 0 0 34.6 0 0 34.6 0 0
34.6 0 0 34.6 0 0 34.6 0 0
34.6 0 0 34.6 0 0 34.6 0 0
34.6 0 0 34.6 0 0 34.6 0 0
34.6 0 0 34.6 0 0 34.6 0 0
34.6 0 0 34.6 0 0 34.6 0 0
34.6 0 0 34.6 0 0 34.6 0 0
34.6 0 0 34.6 0 0 34.6 0 0
34.6 0 0 34.6 0 0 34.6 0 0
34.6 0 0 34.6 0 0 34.6 0 0
34.6 0 0 34.6 0 0 34.6 0 0
34.6 0 0 34.6 0 0 34.6 0 0
34.6 0 0 34.6 0 0 34.6 0 0
34.6 0 0 34.6 0 0 34.6 0 0
34.6 0 0 34.6 0 0 34.6 0 0
34.6 0 0 34.6 0 0 34.6 0 0
34.6 0 0 34.6 0 0 34.6 0 0
34.6 0 0 34.6 0 0 34.6 0 0
34.6 0 0 34.6 0 0 34.6 0 0
34.6 0 0 34.6 0 0 34.6 0 0
34.6 0 0 34.6 0 0 34.6 0 0
34.6 0 0 34.6 0 0 34.6 0 0
34.6 0 0 34.6 0 0 34.6 0 0
34.6 0 0 34.6 0 0 34.6 0 0
34.6 0 0 34.6 0 0 34.6 0 0
34.6 0 0 34.6 0 0 34.6 0 0
34.6 0 0 34.6 0 0 34.6 0 0
34.6 0 0 34.6 0 0 34.6 0 0
34.6 0 0 34.6 0 0 34.6 0 0
34.6 0 0 34.6 0 0 34.6 0 0
34.6 0 0 34.6 0 0 34.6 0 0
34.6 0 0 34.6 0 0 34.6 0 0
34.6 0 0 34.6 0 0 34.6 0 0
34.6 0 0 34.6 0 0 34.6 0 0
34.6 0 0 34.6 0 0 34.6 0 0
34.6 0 0 34.6 0 0 34.6 0 0
34.6 0 0 34.6 0 0 34.6 0 0
34.6 0 0 34.6 0 0 34.6 0 0
34.6 0 0 34.6 0 0 34.6 0 0
34.6 0 0 34.6 0 0 34.6 0 0
34.6 0 0 34.6 0 0 34.6 0 0
34.6 0 0 34.6 0 0 34.6 0 0
34.6 0 0 34.6 0 0 34.6 0 0
34.6 0 0 34.6 0 0 34.6 0 0
34.6 0 0 34.6 0 0 34.6 0 0
34.6 0 0 34.6 0 0 34.6 0 0
34.6 0 0 34.6 0 0 34.6 0 0
34.6 0 0 34.6 0 0 34.6 0 0
34.6 0 0 34.6 0 0 34.6 0 0
34.6 0 0 34.6 0 0 34.6 0 0
34.6 0 0 34.6 0 0 34.6 0 0
34.6 0 0 34.6 0 0 34.6 0 0
34.6 0 0 34.6 0 0 34.6 0 0
34.6 0 0 34.6 0 0 34.6 0 0
34.6 0 0 34.6 0 0 34.6 0 0
34.6 0 0 34.6 0 0 34.6 0 0
34.6 0 0 34.6 0 0 34.6 0 0
34.6 0 0 34.6 0 0 34.6 0 0
34.6 0 0 34.6 0 0 34.6 0 0
34.6 0 0 34.6 0 0 34.6 0 0
34.6 0 0 34.6 0 0 34.6 0 0
34.6 0 0 34.6 0 0 34.6 0 0
34.6 0 0 34.6 0 0 34.6 0 0
34.6 0 0 34.6 0 0 34.6 0 0
34.6 0 0 34.6 0 0 34.6 0 0
34.6 0 0 34.6 0 0 34.6 0 0
34.6 0 0 34.6 0 0 34.6 0 0
34.6 0 0 34.6 0 0 34.6 0 0
34.6 0 0 34.6 0 0 34.6 0 0
34.6 0 0 34.6 0 0 34.6 0 0
34.6 0 0 34.6 0 0
        </DataArray>
      </PointData>
    </Piece>
  </PolyData>
</VTKFile>
