<?xml version='1.0'?>
<!-- patch='outlet' time='60' index='60' -->
<VTKFile type='PolyData' version='0.1' byte_order='LittleEndian' header_type='UInt64'>
  <PolyData>
    <FieldData>
      <DataArray type='Float32' Name='TimeValue' NumberOfTuples='1' format='ascii'>
60
      </DataArray>
    </FieldData>
    <Piece NumberOfPoints='362' NumberOfPolys='180'>
      <Points>
        <DataArray type='Float32' Name='Points' NumberOfComponents='3' format='ascii'>
0.67 0 -0.01 0.67 0.000438104 -0.01 0.67 0.000438104 0.01
0.67 0 0.01 0.67 0.000882333 -0.01 0.67 0.000882333 0.01
0.67 0.00133277 -0.01 0.67 0.00133277 0.01 0.67 0.00178951 -0.01
0.67 0.00178951 0.01 0.67 0.00225263 -0.01 0.67 0.00225263 0.01
0.67 0.00272222 -0.01 0.67 0.00272222 0.01 0.67 0.00319838 -0.01
0.67 0.00319838 0.01 0.67 0.00368119 -0.01 0.67 0.00368119 0.01
0.67 0.00417076 -0.01 0.67 0.00417076 0.01 0.67 0.00466716 -0.01
0.67 0.00466716 0.01 0.67 0.00517051 -0.01 0.67 0.00517051 0.01
0.67 0.00568089 -0.01 0.67 0.00568089 0.01 0.67 0.00619841 -0.01
0.67 0.00619841 0.01 0.67 0.00672316 -0.01 0.67 0.00672316 0.01
0.67 0.00725525 -0.01 0.67 0.00725525 0.01 0.67 0.00779477 -0.01
0.67 0.00779477 0.01 0.67 0.00834184 -0.01 0.67 0.00834184 0.01
0.67 0.00889655 -0.01 0.67 0.00889655 0.01 0.67 0.00945902 -0.01
0.67 0.00945902 0.01 0.67 0.0100294 -0.01 0.67 0.0100294 0.01
0.67 0.0106077 -0.01 0.67 0.0106077 0.01 0.67 0.011194 -0.01
0.67 0.011194 0.01 0.67 0.0117886 -0.01 0.67 0.0117886 0.01
0.67 0.0123915 -0.01 0.67 0.0123915 0.01 0.67 0.0130029 -0.01
0.67 0.0130029 0.01 0.67 0.0136227 -0.01 0.67 0.0136227 0.01
0.67 0.0142513 -0.01 0.67 0.0142513 0.01 0.67 0.0148886 -0.01
0.67 0.0148886 0.01 0.67 0.0155348 -0.01 0.67 0.0155348 0.01
0.67 0.0161901 -0.01 0.67 0.0161901 0.01 0.67 0.0168545 -0.01
0.67 0.0168545 0.01 0.67 0.0175282 -0.01 0.67 0.0175282 0.01
0.67 0.0182113 -0.01 0.67 0.0182113 0.01 0.67 0.018904 -0.01
0.67 0.018904 0.01 0.67 0.0196064 -0.01 0.67 0.0196064 0.01
0.67 0.0203186 -0.01 0.67 0.0203186 0.01 0.67 0.0210407 -0.01
0.67 0.0210407 0.01 0.67 0.0217729 -0.01 0.67 0.0217729 0.01
0.67 0.0225154 -0.01 0.67 0.0225154 0.01 0.67 0.0232683 -0.01
0.67 0.0232683 0.01 0.67 0.0240316 -0.01 0.67 0.0240316 0.01
0.67 0.0248057 -0.01 0.67 0.0248057 0.01 0.67 0.0255905 -0.01
0.67 0.0255905 0.01 0.67 0.0263864 -0.01 0.67 0.0263864 0.01
0.67 0.0271933 -0.01 0.67 0.0271933 0.01 0.67 0.0280116 -0.01
0.67 0.0280116 0.01 0.67 0.0288412 -0.01 0.67 0.0288412 0.01
0.67 0.0296825 -0.01 0.67 0.0296825 0.01 0.67 0.0305355 -0.01
0.67 0.0305355 0.01 0.67 0.0314005 -0.01 0.67 0.0314005 0.01
0.67 0.0322776 -0.01 0.67 0.0322776 0.01 0.67 0.0331669 -0.01
0.67 0.0331669 0.01 0.67 0.0340686 -0.01 0.67 0.0340686 0.01
0.67 0.034983 -0.01 0.67 0.034983 0.01 0.67 0.0359101 -0.01
0.67 0.0359101 0.01 0.67 0.0368502 -0.01 0.67 0.0368502 0.01
0.67 0.0378034 -0.01 0.67 0.0378034 0.01 0.67 0.03877 -0.01
0.67 0.03877 0.01 0.67 0.03975 -0.01 0.67 0.03975 0.01
0.67 0.0407438 -0.01 0.67 0.0407438 0.01 0.67 0.0417515 -0.01
0.67 0.0417515 0.01 0.67 0.0427732 -0.01 0.67 0.0427732 0.01
0.67 0.0438092 -0.01 0.67 0.0438092 0.01 0.67 0.0448597 -0.01
0.67 0.0448597 0.01 0.67 0.0459249 -0.01 0.67 0.0459249 0.01
0.67 0.047005 -0.01 0.67 0.047005 0.01 0.67 0.0481002 -0.01
0.67 0.0481002 0.01 0.67 0.0492107 -0.01 0.67 0.0492107 0.01
0.67 0.0503367 -0.01 0.67 0.0503367 0.01 0.67 0.0514785 -0.01
0.67 0.0514785 0.01 0.67 0.0526362 -0.01 0.67 0.0526362 0.01
0.67 0.0538101 -0.01 0.67 0.0538101 0.01 0.67 0.0550004 -0.01
0.67 0.0550004 0.01 0.67 0.0562074 -0.01 0.67 0.0562074 0.01
0.67 0.0574312 -0.01 0.67 0.0574312 0.01 0.67 0.0586721 -0.01
0.67 0.0586721 0.01 0.67 0.0599304 -0.01 0.67 0.0599304 0.01
0.67 0.0612063 -0.01 0.67 0.0612063 0.01 0.67 0.0625 -0.01
0.67 0.0625 0.01 0.67 0.0638118 -0.01 0.67 0.0638118 0.01
0.67 0.0651419 -0.01 0.67 0.0651419 0.01 0.67 0.0664906 -0.01
0.67 0.0664906 0.01 0.67 0.0678582 -0.01 0.67 0.0678582 0.01
0.67 0.0692449 -0.01 0.67 0.0692449 0.01 0.67 0.070651 -0.01
0.67 0.070651 0.01 0.67 0.0720767 -0.01 0.67 0.0720767 0.01
0.67 0.0735224 -0.01 0.67 0.0735224 0.01 0.67 0.0749882 -0.01
0.67 0.0749882 0.01 0.67 0.0764746 -0.01 0.67 0.0764746 0.01
0.67 0.0779817 -0.01 0.67 0.0779817 0.01 0.67 0.07951 -0.01
0.67 0.07951 0.01 0.67 0.0810595 -0.01 0.67 0.0810595 0.01
0.67 0.0826308 -0.01 0.67 0.0826308 0.01 0.67 0.084224 -0.01
0.67 0.084224 0.01 0.67 0.0858394 -0.01 0.67 0.0858394 0.01
0.67 0.0874775 -0.01 0.67 0.0874775 0.01 0.67 0.0891384 -0.01
0.67 0.0891384 0.01 0.67 0.0908226 -0.01 0.67 0.0908226 0.01
0.67 0.0925303 -0.01 0.67 0.0925303 0.01 0.67 0.0942619 -0.01
0.67 0.0942619 0.01 0.67 0.0960177 -0.01 0.67 0.0960177 0.01
0.67 0.097798 -0.01 0.67 0.097798 0.01 0.67 0.0996032 -0.01
0.67 0.0996032 0.01 0.67 0.101434 -0.01 0.67 0.101434 0.01
0.67 0.10329 -0.01 0.67 0.10329 0.01 0.67 0.105172 -0.01
0.67 0.105172 0.01 0.67 0.10708 -0.01 0.67 0.10708 0.01
0.67 0.109015 -0.01 0.67 0.109015 0.01 0.67 0.110977 -0.01
0.67 0.110977 0.01 0.67 0.112966 -0.01 0.67 0.112966 0.01
0.67 0.114984 -0.01 0.67 0.114984 0.01 0.67 0.117029 -0.01
0.67 0.117029 0.01 0.67 0.119103 -0.01 0.67 0.119103 0.01
0.67 0.121206 -0.01 0.67 0.121206 0.01 0.67 0.123339 -0.01
0.67 0.123339 0.01 0.67 0.125501 -0.01 0.67 0.125501 0.01
0.67 0.127693 -0.01 0.67 0.127693 0.01 0.67 0.129917 -0.01
0.67 0.129917 0.01 0.67 0.132171 -0.01 0.67 0.132171 0.01
0.67 0.134456 -0.01 0.67 0.134456 0.01 0.67 0.136774 -0.01
0.67 0.136774 0.01 0.67 0.139124 -0.01 0.67 0.139124 0.01
0.67 0.141507 -0.01 0.67 0.141507 0.01 0.67 0.143923 -0.01
0.67 0.143923 0.01 0.67 0.146373 -0.01 0.67 0.146373 0.01
0.67 0.148858 -0.01 0.67 0.148858 0.01 0.67 0.151377 -0.01
0.67 0.151377 0.01 0.67 0.153931 -0.01 0.67 0.153931 0.01
0.67 0.156521 -0.01 0.67 0.156521 0.01 0.67 0.159147 -0.01
0.67 0.159147 0.01 0.67 0.16181 -0.01 0.67 0.16181 0.01
0.67 0.16451 -0.01 0.67 0.16451 0.01 0.67 0.167247 -0.01
0.67 0.167247 0.01 0.67 0.170023 -0.01 0.67 0.170023 0.01
0.67 0.172838 -0.01 0.67 0.172838 0.01 0.67 0.175692 -0.01
0.67 0.175692 0.01 0.67 0.178587 -0.01 0.67 0.178587 0.01
0.67 0.181521 -0.01 0.67 0.181521 0.01 0.67 0.184497 -0.01
0.67 0.184497 0.01 0.67 0.187514 -0.01 0.67 0.187514 0.01
0.67 0.190573 -0.01 0.67 0.190573 0.01 0.67 0.193675 -0.01
0.67 0.193675 0.01 0.67 0.196821 -0.01 0.67 0.196821 0.01
0.67 0.20001 -0.01 0.67 0.20001 0.01 0.67 0.203244 -0.01
0.67 0.203244 0.01 0.67 0.206524 -0.01 0.67 0.206524 0.01
0.67 0.209849 -0.01 0.67 0.209849 0.01 0.67 0.21322 -0.01
0.67 0.21322 0.01 0.67 0.216639 -0.01 0.67 0.216639 0.01
0.67 0.220105 -0.01 0.67 0.220105 0.01 0.67 0.22362 -0.01
0.67 0.22362 0.01 0.67 0.227185 -0.01 0.67 0.227185 0.01
0.67 0.230798 -0.01 0.67 0.230798 0.01 0.67 0.234463 -0.01
0.67 0.234463 0.01 0.67 0.238179 -0.01 0.67 0.238179 0.01
0.67 0.241946 -0.01 0.67 0.241946 0.01 0.67 0.245766 -0.01
0.67 0.245766 0.01 0.67 0.24964 -0.01 0.67 0.24964 0.01
0.67 0.253568 -0.01 0.67 0.253568 0.01 0.67 0.257551 -0.01
0.67 0.257551 0.01 0.67 0.261589 -0.01 0.67 0.261589 0.01
0.67 0.265684 -0.01 0.67 0.265684 0.01 0.67 0.269836 -0.01
0.67 0.269836 0.01 0.67 0.274046 -0.01 0.67 0.274046 0.01
0.67 0.278315 -0.01 0.67 0.278315 0.01 0.67 0.282644 -0.01
0.67 0.282644 0.01 0.67 0.287033 -0.01 0.67 0.287033 0.01
0.67 0.291483 -0.01 0.67 0.291483 0.01 0.67 0.295996 -0.01
0.67 0.295996 0.01 0.67 0.300572 -0.01 0.67 0.300572 0.01
0.67 0.305212 -0.01 0.67 0.305212 0.01 0.67 0.309916 -0.01
0.67 0.309916 0.01 0.67 0.314687 -0.01 0.67 0.314687 0.01
0.67 0.319524 -0.01 0.67 0.319524 0.01 0.67 0.324429 -0.01
0.67 0.324429 0.01 0.67 0.329402 -0.01 0.67 0.329402 0.01
0.67 0.334445 -0.01 0.67 0.334445 0.01 0.67 0.339558 -0.01
0.67 0.339558 0.01 0.67 0.344743 -0.01 0.67 0.344743 0.01
0.67 0.35 -0.01 0.67 0.35 0.01
        </DataArray>
      </Points>
      <Polys>
        <DataArray type='Int32' Name='connectivity' format='ascii'>
0 1 2 3 1 4 5 2 4
6 7 5 6 8 9 7 8 10
11 9 10 12 13 11 12 14 15
13 14 16 17 15 16 18 19 17
18 20 21 19 20 22 23 21 22
24 25 23 24 26 27 25 26 28
29 27 28 30 31 29 30 32 33
31 32 34 35 33 34 36 37 35
36 38 39 37 38 40 41 39 40
42 43 41 42 44 45 43 44 46
47 45 46 48 49 47 48 50 51
49 50 52 53 51 52 54 55 53
54 56 57 55 56 58 59 57 58
60 61 59 60 62 63 61 62 64
65 63 64 66 67 65 66 68 69
67 68 70 71 69 70 72 73 71
72 74 75 73 74 76 77 75 76
78 79 77 78 80 81 79 80 82
83 81 82 84 85 83 84 86 87
85 86 88 89 87 88 90 91 89
90 92 93 91 92 94 95 93 94
96 97 95 96 98 99 97 98 100
101 99 100 102 103 101 102 104 105
103 104 106 107 105 106 108 109 107
108 110 111 109 110 112 113 111 112
114 115 113 114 116 117 115 116 118
119 117 118 120 121 119 120 122 123
121 122 124 125 123 124 126 127 125
126 128 129 127 128 130 131 129 130
132 133 131 132 134 135 133 134 136
137 135 136 138 139 137 138 140 141
139 140 142 143 141 142 144 145 143
144 146 147 145 146 148 149 147 148
150 151 149 150 152 153 151 152 154
155 153 154 156 157 155 156 158 159
157 158 160 161 159 160 162 163 161
162 164 165 163 164 166 167 165 166
168 169 167 168 170 171 169 170 172
173 171 172 174 175 173 174 176 177
175 176 178 179 177 178 180 181 179
180 182 183 181 182 184 185 183 184
186 187 185 186 188 189 187 188 190
191 189 190 192 193 191 192 194 195
193 194 196 197 195 196 198 199 197
198 200 201 199 200 202 203 201 202
204 205 203 204 206 207 205 206 208
209 207 208 210 211 209 210 212 213
211 212 214 215 213 214 216 217 215
216 218 219 217 218 220 221 219 220
222 223 221 222 224 225 223 224 226
227 225 226 228 229 227 228 230 231
229 230 232 233 231 232 234 235 233
234 236 237 235 236 238 239 237 238
240 241 239 240 242 243 241 242 244
245 243 244 246 247 245 246 248 249
247 248 250 251 249 250 252 253 251
252 254 255 253 254 256 257 255 256
258 259 257 258 260 261 259 260 262
263 261 262 264 265 263 264 266 267
265 266 268 269 267 268 270 271 269
270 272 273 271 272 274 275 273 274
276 277 275 276 278 279 277 278 280
281 279 280 282 283 281 282 284 285
283 284 286 287 285 286 288 289 287
288 290 291 289 290 292 293 291 292
294 295 293 294 296 297 295 296 298
299 297 298 300 301 299 300 302 303
301 302 304 305 303 304 306 307 305
306 308 309 307 308 310 311 309 310
312 313 311 312 314 315 313 314 316
317 315 316 318 319 317 318 320 321
319 320 322 323 321 322 324 325 323
324 326 327 325 326 328 329 327 328
330 331 329 330 332 333 331 332 334
335 333 334 336 337 335 336 338 339
337 338 340 341 339 340 342 343 341
342 344 345 343 344 346 347 345 346
348 349 347 348 350 351 349 350 352
353 351 352 354 355 353 354 356 357
355 356 358 359 357 358 360 361 359
        </DataArray>
        <DataArray type='Int32' Name='offsets' format='ascii'>
4 8 12 16 20 24 28 32 36
40 44 48 52 56 60 64 68 72
76 80 84 88 92 96 100 104 108
112 116 120 124 128 132 136 140 144
148 152 156 160 164 168 172 176 180
184 188 192 196 200 204 208 212 216
220 224 228 232 236 240 244 248 252
256 260 264 268 272 276 280 284 288
292 296 300 304 308 312 316 320 324
328 332 336 340 344 348 352 356 360
364 368 372 376 380 384 388 392 396
400 404 408 412 416 420 424 428 432
436 440 444 448 452 456 460 464 468
472 476 480 484 488 492 496 500 504
508 512 516 520 524 528 532 536 540
544 548 552 556 560 564 568 572 576
580 584 588 592 596 600 604 608 612
616 620 624 628 632 636 640 644 648
652 656 660 664 668 672 676 680 684
688 692 696 700 704 708 712 716 720
        </DataArray>
      </Polys>
      <CellData>
        <DataArray type='Float32' Name='k' format='ascii'>
5.07707 5.37256 4.77813 4.2021 3.62807 3.03173 2.40621 1.796 1.26328
0.822742 0.504232 0.326977 0.24949 0.219462 0.209653 0.208567 0.210999 0.214533
0.218019 0.220944 0.223135 0.224602 0.225449 0.225812 0.225833 0.225637 0.225325
0.224972 0.224631 0.224334 0.224099 0.223929 0.223822 0.223773 0.223771 0.223808
0.223874 0.223961 0.224059 0.22416 0.224254 0.224331 0.224381 0.224394 0.224362
0.224276 0.224133 0.223929 0.223666 0.223343 0.222965 0.222537 0.222063 0.22155
0.221005 0.220436 0.219851 0.219257 0.218666 0.218088 0.217534 0.217018 0.216555
0.216155 0.215831 0.215588 0.215423 0.215323 0.215263 0.215207 0.21511 0.21492
0.21459 0.214077 0.213351 0.212399 0.21122 0.209827 0.208241 0.206489 0.204604
0.202617 0.200561 0.198469 0.196367 0.194281 0.192226 0.190213 0.188247 0.186329
0.184457 0.182628 0.18084 0.179092 0.177384 0.175715 0.174085 0.172495 0.170945
0.169435 0.167965 0.166533 0.165139 0.163784 0.162465 0.161182 0.159935 0.158722
0.157544 0.156399 0.155286 0.154206 0.153157 0.152138 0.15115 0.15019 0.149259
0.148356 0.14748 0.14663 0.145806 0.145007 0.144233 0.143483 0.142755 0.142051
0.141367 0.140706 0.140065 0.139444 0.138842 0.13826 0.137696 0.137151 0.136622
0.136111 0.135616 0.135137 0.134673 0.134224 0.13379 0.133369 0.132962 0.132569
0.132187 0.131818 0.131461 0.131115 0.130781 0.130457 0.130143 0.129839 0.129545
0.12926 0.128984 0.128717 0.128458 0.128208 0.127965 0.127731 0.127503 0.127283
0.127071 0.126865 0.126665 0.126473 0.126287 0.126107 0.125933 0.125764 0.125601
0.125441 0.125282 0.125114 0.124925 0.124679 0.124344 0.12399 0.123778 0.12358
        </DataArray>
        <DataArray type='Float32' Name='nut' format='ascii'>
8.66696e-05 0.000244874 0.000383441 0.000477162 0.000514302 0.0005044 0.000460409 0.000401625 0.000342769
0.000277715 0.000221407 0.0002058 0.000224771 0.000263241 0.000302976 0.000334404 0.00035881 0.000379178
0.000396985 0.000412932 0.000427386 0.000440582 0.000452712 0.000463949 0.000474458 0.00048439 0.00049387
0.000503004 0.000511874 0.000520537 0.000529034 0.000537386 0.000545607 0.000553699 0.00056166 0.000569484
0.00057716 0.000584679 0.000592026 0.000599188 0.000606147 0.000612887 0.000619393 0.000625649 0.000631642
0.000637365 0.000642811 0.000647981 0.000652879 0.000657511 0.00066189 0.000666028 0.000669942 0.00067365
0.000677171 0.000680525 0.000683735 0.000686823 0.000689815 0.000692735 0.000695612 0.000698473 0.000701346
0.000704256 0.000707218 0.000710239 0.000713304 0.000716381 0.000719411 0.000722315 0.000724992 0.000727335
0.000729239 0.000730612 0.000731384 0.000731518 0.000731001 0.000729852 0.000728109 0.000725826 0.00072307
0.000719916 0.00071644 0.000712723 0.000708836 0.000704847 0.000700808 0.000696759 0.000692727 0.000688729
0.000684774 0.000680868 0.000677014 0.000673218 0.000669482 0.000665813 0.000662213 0.000658687 0.000655235
0.000651861 0.000648565 0.000645346 0.000642206 0.000639142 0.000636156 0.000633245 0.00063041 0.000627649
0.000624961 0.000622346 0.000619803 0.00061733 0.000614926 0.000612592 0.000610324 0.000608123 0.000605988
0.000603916 0.000601908 0.000599961 0.000598075 0.000596249 0.000594482 0.000592771 0.000591116 0.000589516
0.000587969 0.000586474 0.000585031 0.000583637 0.000582292 0.000580995 0.000579745 0.00057854 0.00057738
0.000576263 0.000575187 0.000574153 0.000573159 0.000572203 0.000571285 0.000570404 0.000569558 0.000568747
0.00056797 0.000567225 0.000566512 0.000565829 0.000565176 0.000564552 0.000563956 0.000563386 0.000562843
0.000562325 0.000561831 0.000561361 0.000560914 0.000560489 0.000560085 0.000559702 0.000559338 0.000558993
0.000558666 0.000558356 0.000558061 0.000557781 0.000557514 0.000557253 0.000556998 0.000556735 0.000556452
0.00055611 0.000555642 0.000554876 0.000553441 0.00055051 0.000544962 0.000539044 0.000537524 0.000537075
        </DataArray>
        <DataArray type='Float32' Name='omega' format='ascii'>
52664.2 21264.3 12461.2 8806.45 6857.96 5615.74 4710.63 4063.15 3529.77
2962.54 2277.4 1588.81 1109.97 833.69 691.981 623.697 588.052 565.784
549.188 535.063 522.093 509.785 497.996 486.717 475.98 465.817 456.243
447.256 438.841 430.967 423.6 416.7 410.227 404.142 398.41 393.002
387.889 383.049 378.461 374.106 369.967 366.024 362.26 358.659 355.204
351.88 348.676 345.58 342.584 339.679 336.861 334.125 331.465 328.88
326.366 323.921 321.544 319.234 316.993 314.821 312.723 310.704 308.77
306.927 305.184 303.543 302.007 300.57 299.221 297.941 296.707 295.49
294.265 293.01 291.709 290.354 288.946 287.492 286.002 284.489 282.965
281.445 279.941 278.465 277.028 275.635 274.291 272.997 271.748 270.54
269.369 268.228 267.114 266.024 264.957 263.91 262.884 261.878 260.892
259.926 258.979 258.052 257.144 256.255 255.385 254.533 253.7 252.884
252.086 251.305 250.542 249.795 249.065 248.352 247.655 246.973 246.307
245.656 245.02 244.399 243.792 243.199 242.62 242.054 241.501 240.961
240.433 239.918 239.414 238.922 238.441 237.971 237.512 237.063 236.625
236.196 235.777 235.367 234.966 234.574 234.191 233.816 233.448 233.089
232.736 232.392 232.054 231.722 231.398 231.08 230.768 230.462 230.161
229.867 229.578 229.294 229.016 228.743 228.475 228.212 227.954 227.701
227.454 227.211 226.974 226.743 226.518 226.3 226.092 225.896 225.718
225.568 225.472 225.481 225.725 226.479 228.171 230.019 230.275 230.098
        </DataArray>
        <DataArray type='Float32' Name='p' format='ascii'>
0 0 0 0 0 0 0 0 0
0 0 0 0 0 0 0 0 0
0 0 0 0 0 0 0 0 0
0 0 0 0 0 0 0 0 0
0 0 0 0 0 0 0 0 0
0 0 0 0 0 0 0 0 0
0 0 0 0 0 0 0 0 0
0 0 0 0 0 0 0 0 0
0 0 0 0 0 0 0 0 0
0 0 0 0 0 0 0 0 0
0 0 0 0 0 0 0 0 0
0 0 0 0 0 0 0 0 0
0 0 0 0 0 0 0 0 0
0 0 0 0 0 0 0 0 0
0 0 0 0 0 0 0 0 0
0 0 0 0 0 0 0 0 0
0 0 0 0 0 0 0 0 0
0 0 0 0 0 0 0 0 0
0 0 0 0 0 0 0 0 0
0 0 0 0 0 0 0 0 0
        </DataArray>
        <DataArray type='Float32' Name='U' NumberOfComponents='3' format='ascii'>
17.5405 -0.00082434 2.59421e-23 21.5183 -0.000819829 8.04041e-24 23.57 -0.000451478 -1.8552e-23
24.9663 0.000113871 -1.94914e-24 26.0609 0.000537135 -1.46868e-23 26.9907 0.000645445 6.91338e-24
27.8101 0.000223719 5.30496e-24 28.5329 -0.000970482 -1.25147e-23 29.1483 -0.00315372 1.53237e-23
29.6542 -0.00595702 -1.71395e-23 30.0441 -0.00958147 1.22614e-23 30.301 -0.013762 5.91045e-24
30.4545 -0.0180719 5.09251e-24 30.5531 -0.0223067 1.65727e-24 30.6277 -0.0263346 1.09078e-23
30.6933 -0.0301285 6.41582e-24 30.7563 -0.0337351 6.7185e-24 30.8193 -0.0371801 -4.00995e-24
30.8829 -0.040467 2.1028e-23 30.9473 -0.0436125 9.18783e-24 31.0122 -0.0466348 1.48986e-23
31.0772 -0.0495517 1.2973e-23 31.142 -0.052374 2.38656e-24 31.2063 -0.0551151 -1.67763e-23
31.2697 -0.0577849 -1.02361e-23 31.3323 -0.0603887 -4.08423e-24 31.3937 -0.062933 -1.97728e-23
31.454 -0.0654258 9.00219e-24 31.5132 -0.0678721 -8.93059e-24 31.5712 -0.0702789 -3.72774e-24
31.6281 -0.0726503 9.66661e-24 31.6839 -0.0749925 -1.52435e-23 31.7386 -0.077312 -1.84617e-23
31.7923 -0.0796147 2.27011e-23 31.8451 -0.0819067 3.95263e-24 31.897 -0.0841942 -7.14566e-24
31.948 -0.0864825 -2.17007e-24 31.9981 -0.0887767 -2.22796e-24 32.0475 -0.0910835 1.51003e-23
32.0961 -0.0934101 1.59033e-23 32.144 -0.0957628 1.62637e-23 32.1912 -0.0981477 4.73438e-24
32.2377 -0.100571 -7.35201e-24 32.2836 -0.103039 4.46569e-24 32.3289 -0.105556 -1.69743e-23
32.3735 -0.108129 -1.64714e-24 32.4174 -0.110763 -6.27052e-24 32.4606 -0.113462 -1.12732e-23
32.5032 -0.116233 3.49278e-23 32.5449 -0.119082 -6.52593e-24 32.5859 -0.122013 -2.92189e-23
32.6261 -0.125034 -1.37571e-23 32.6654 -0.128149 4.0598e-25 32.7039 -0.131366 8.9203e-24
32.7415 -0.13469 2.0772e-23 32.7783 -0.138127 -1.09228e-23 32.8141 -0.141683 9.20754e-24
32.849 -0.145364 -1.81165e-23 32.8831 -0.149175 -1.75648e-23 32.9163 -0.153122 2.45582e-24
32.9488 -0.157209 -3.75502e-24 32.9806 -0.161444 2.62911e-23 33.0119 -0.165827 5.18045e-24
33.0427 -0.170363 -2.80278e-24 33.0735 -0.175056 4.80699e-24 33.1043 -0.17991 2.07869e-23
33.1355 -0.184925 6.43342e-24 33.1674 -0.190096 4.25543e-24 33.2002 -0.195416 -3.90416e-23
33.2341 -0.200876 1.3089e-23 33.2693 -0.206462 5.33993e-23 33.3058 -0.212157 2.28851e-23
33.3434 -0.217946 -2.08458e-23 33.3821 -0.223812 -3.09782e-23 33.4217 -0.229741 3.59286e-24
33.4619 -0.235717 2.46069e-23 33.5025 -0.241732 -1.28698e-23 33.5431 -0.247776 -1.58012e-23
33.5836 -0.253841 -4.52992e-23 33.6238 -0.259922 -1.42278e-23 33.6634 -0.266019 9.83919e-24
33.7024 -0.27213 2.53703e-23 33.7406 -0.278255 -3.81457e-23 33.778 -0.284397 -1.59201e-23
33.8145 -0.290557 4.95225e-24 33.8503 -0.296738 8.82861e-25 33.8853 -0.30294 8.85091e-24
33.9197 -0.309162 3.01452e-23 33.9536 -0.315398 -8.4727e-24 33.987 -0.321644 1.76981e-23
34.02 -0.327892 -1.8511e-23 34.0527 -0.334133 3.86147e-23 34.0851 -0.340359 9.45527e-25
34.1172 -0.346561 -1.71146e-23 34.149 -0.352729 -1.5514e-23 34.1805 -0.358849 3.03031e-23
34.2118 -0.364912 -2.35672e-23 34.2429 -0.370907 1.80273e-23 34.2737 -0.376825 2.88848e-23
34.3043 -0.382655 3.455e-23 34.3347 -0.388389 -3.26603e-23 34.3648 -0.394016 -7.88173e-24
34.3948 -0.399524 -1.36264e-23 34.4245 -0.4049 -3.70388e-23 34.454 -0.410133 -1.00815e-23
34.4832 -0.415213 -2.14274e-23 34.5123 -0.420131 -3.24983e-23 34.5411 -0.424874 1.13574e-23
34.5698 -0.429432 -1.9968e-23 34.5981 -0.433793 1.06699e-25 34.6263 -0.437951 -1.08315e-23
34.6542 -0.441893 -5.07419e-25 34.6819 -0.445611 2.34268e-24 34.7093 -0.449093 -1.02171e-23
34.7365 -0.452331 -1.95378e-23 34.7635 -0.455317 -9.46205e-24 34.7901 -0.45804 1.00025e-23
34.8165 -0.460492 -1.60682e-23 34.8426 -0.462663 2.4625e-23 34.8684 -0.464545 -1.77121e-23
34.8939 -0.466133 3.58049e-25 34.9191 -0.46742 -6.78801e-24 34.944 -0.468399 -1.3597e-23
34.9685 -0.469058 7.04926e-24 34.9927 -0.469397 3.28459e-24 35.0165 -0.469401 4.04055e-24
35.0399 -0.469087 -7.45019e-24 35.0629 -0.468444 2.83165e-24 35.0856 -0.467525 3.43456e-25
35.1083 -0.466024 4.61784e-25 35.1302 -0.464373 -9.82572e-26 35.1518 -0.462375 -1.03819e-24
35.1733 -0.460245 1.36059e-24 35.1936 -0.457379 4.67776e-24 35.2138 -0.454367 -1.70679e-24
35.2336 -0.451026 -7.82563e-24 35.253 -0.447292 -9.20623e-24 35.2719 -0.443168 6.86248e-24
35.2903 -0.438676 -1.62688e-23 35.3082 -0.433832 2.01571e-23 35.3257 -0.428642 -3.34807e-24
35.3427 -0.423106 -3.64404e-23 35.3593 -0.417225 -4.20509e-24 35.3753 -0.411002 -3.66197e-23
35.3909 -0.404438 -1.80921e-23 35.406 -0.397538 -4.7245e-23 35.4206 -0.390303 -5.20529e-23
35.4348 -0.382737 -2.16006e-23 35.4485 -0.374846 -8.64319e-24 35.4617 -0.366633 3.15092e-24
35.4744 -0.358102 7.03314e-24 35.4867 -0.349258 -5.2879e-23 35.4985 -0.340108 -2.99337e-23
35.5099 -0.330656 1.07565e-23 35.5209 -0.320908 5.47827e-23 35.5315 -0.310871 -3.87424e-24
35.5417 -0.30055 6.22387e-23 35.5514 -0.289954 7.72751e-23 35.5608 -0.279088 4.99829e-23
35.5698 -0.267961 -9.40582e-23 35.5785 -0.256581 2.82826e-23 35.5869 -0.244953 1.39574e-24
35.595 -0.233098 -5.3352e-23 35.6027 -0.220996 -8.59688e-23 35.6102 -0.208717 1.07976e-23
35.6175 -0.196167 -3.50399e-23 35.6246 -0.183536 -1.1861e-22 35.6315 -0.170538 -9.33957e-23
35.6381 -0.157637 5.95564e-23 35.6447 -0.144256 3.80244e-23 35.6512 -0.13114 1.20563e-22
35.6576 -0.11739 -1.53595e-22 35.6639 -0.104194 -1.70871e-22 35.6703 -0.090099 3.53681e-23
35.6766 -0.0769691 -1.93699e-22 35.6832 -0.0625643 -1.2153e-23 35.6896 -0.0496432 1.50078e-22
35.6953 -0.0350067 -5.90633e-23 35.6956 -0.0223209 -3.16572e-23 35.6914 -0.00711718 4.09369e-23
        </DataArray>
      </CellData>
      <PointData>
        <DataArray type='Float32' Name='k' format='ascii'>
5.07707 5.22481 5.22481 5.07707 5.07535 5.07535 4.49012 4.49012 3.91509
3.91509 3.3299 3.3299 2.71897 2.71897 2.1011 2.1011 1.52964 1.52964
1.04301 1.04301 0.663488 0.663488 0.415605 0.415605 0.288233 0.288233 0.234476
0.234476 0.214558 0.214558 0.20911 0.20911 0.209783 0.209783 0.212766 0.212766
0.216276 0.216276 0.219482 0.219482 0.22204 0.22204 0.223869 0.223869 0.225026
0.225026 0.22563 0.22563 0.225822 0.225822 0.225735 0.225735 0.225481 0.225481
0.225148 0.225148 0.224801 0.224801 0.224483 0.224483 0.224217 0.224217 0.224014
0.224014 0.223876 0.223876 0.223798 0.223798 0.223772 0.223772 0.22379 0.22379
0.223841 0.223841 0.223918 0.223918 0.22401 0.22401 0.224109 0.224109 0.224207
0.224207 0.224293 0.224293 0.224356 0.224356 0.224388 0.224388 0.224378 0.224378
0.224319 0.224319 0.224205 0.224205 0.224031 0.224031 0.223798 0.223798 0.223504
0.223504 0.223154 0.223154 0.222751 0.222751 0.2223 0.2223 0.221806 0.221806
0.221278 0.221278 0.220721 0.220721 0.220143 0.220143 0.219554 0.219554 0.218962
0.218962 0.218377 0.218377 0.217811 0.217811 0.217276 0.217276 0.216787 0.216787
0.216355 0.216355 0.215993 0.215993 0.21571 0.21571 0.215505 0.215505 0.215373
0.215373 0.215293 0.215293 0.215235 0.215235 0.215158 0.215158 0.215015 0.215015
0.214755 0.214755 0.214333 0.214333 0.213714 0.213714 0.212875 0.212875 0.21181
0.21181 0.210523 0.210523 0.209034 0.209034 0.207365 0.207365 0.205546 0.205546
0.20361 0.20361 0.201589 0.201589 0.199515 0.199515 0.197418 0.197418 0.195324
0.195324 0.193253 0.193253 0.191219 0.191219 0.18923 0.18923 0.187288 0.187288
0.185393 0.185393 0.183542 0.183542 0.181734 0.181734 0.179966 0.179966 0.178238
0.178238 0.176549 0.176549 0.1749 0.1749 0.17329 0.17329 0.17172 0.17172
0.17019 0.17019 0.1687 0.1687 0.167249 0.167249 0.165836 0.165836 0.164462
0.164462 0.163124 0.163124 0.161823 0.161823 0.160558 0.160558 0.159328 0.159328
0.158133 0.158133 0.156971 0.156971 0.155843 0.155843 0.154746 0.154746 0.153682
0.153682 0.152648 0.152648 0.151644 0.151644 0.15067 0.15067 0.149725 0.149725
0.148807 0.148807 0.147918 0.147918 0.147055 0.147055 0.146218 0.146218 0.145407
0.145407 0.14462 0.14462 0.143858 0.143858 0.143119 0.143119 0.142403 0.142403
0.141709 0.141709 0.141037 0.141037 0.140385 0.140385 0.139754 0.139754 0.139143
0.139143 0.138551 0.138551 0.137978 0.137978 0.137424 0.137424 0.136887 0.136887
0.136367 0.136367 0.135863 0.135863 0.135376 0.135376 0.134905 0.134905 0.134449
0.134449 0.134007 0.134007 0.13358 0.13358 0.133166 0.133166 0.132765 0.132765
0.132378 0.132378 0.132003 0.132003 0.13164 0.13164 0.131288 0.131288 0.130948
0.130948 0.130619 0.130619 0.1303 0.1303 0.129991 0.129991 0.129692 0.129692
0.129402 0.129402 0.129122 0.129122 0.128851 0.128851 0.128588 0.128588 0.128333
0.128333 0.128087 0.128087 0.127848 0.127848 0.127617 0.127617 0.127393 0.127393
0.127177 0.127177 0.126968 0.126968 0.126765 0.126765 0.126569 0.126569 0.12638
0.12638 0.126197 0.126197 0.12602 0.12602 0.125849 0.125849 0.125683 0.125683
0.125521 0.125521 0.125361 0.125361 0.125198 0.125198 0.12502 0.12502 0.124802
0.124802 0.124512 0.124512 0.124167 0.124167 0.123884 0.123884 0.123679 0.123679
0.12358 0.12358
        </DataArray>
        <DataArray type='Float32' Name='nut' format='ascii'>
8.66696e-05 0.000165772 0.000165772 8.66696e-05 0.000314157 0.000314157 0.000430301 0.000430301 0.000495732
0.000495732 0.000509351 0.000509351 0.000482405 0.000482405 0.000431017 0.000431017 0.000372197 0.000372197
0.000310242 0.000310242 0.000249561 0.000249561 0.000213604 0.000213604 0.000215285 0.000215285 0.000244006
0.000244006 0.000283109 0.000283109 0.00031869 0.00031869 0.000346607 0.000346607 0.000368994 0.000368994
0.000388082 0.000388082 0.000404958 0.000404958 0.000420159 0.000420159 0.000433984 0.000433984 0.000446647
0.000446647 0.00045833 0.00045833 0.000469204 0.000469204 0.000479424 0.000479424 0.00048913 0.00048913
0.000498437 0.000498437 0.000507439 0.000507439 0.000516206 0.000516206 0.000524785 0.000524785 0.00053321
0.00053321 0.000541497 0.000541497 0.000549653 0.000549653 0.00055768 0.00055768 0.000565572 0.000565572
0.000573322 0.000573322 0.00058092 0.00058092 0.000588353 0.000588353 0.000595607 0.000595607 0.000602667
0.000602667 0.000609517 0.000609517 0.00061614 0.00061614 0.000622521 0.000622521 0.000628645 0.000628645
0.000634504 0.000634504 0.000640088 0.000640088 0.000645396 0.000645396 0.00065043 0.00065043 0.000655195
0.000655195 0.000659701 0.000659701 0.000663959 0.000663959 0.000667985 0.000667985 0.000671796 0.000671796
0.00067541 0.00067541 0.000678848 0.000678848 0.00068213 0.00068213 0.000685279 0.000685279 0.000688319
0.000688319 0.000691275 0.000691275 0.000694174 0.000694174 0.000697043 0.000697043 0.00069991 0.00069991
0.000702801 0.000702801 0.000705737 0.000705737 0.000708728 0.000708728 0.000711771 0.000711771 0.000714843
0.000714843 0.000717896 0.000717896 0.000720863 0.000720863 0.000723653 0.000723653 0.000726163 0.000726163
0.000728287 0.000728287 0.000729925 0.000729925 0.000730998 0.000730998 0.000731451 0.000731451 0.000731259
0.000731259 0.000730426 0.000730426 0.00072898 0.00072898 0.000726967 0.000726967 0.000724448 0.000724448
0.000721493 0.000721493 0.000718178 0.000718178 0.000714582 0.000714582 0.00071078 0.00071078 0.000706842
0.000706842 0.000702827 0.000702827 0.000698783 0.000698783 0.000694743 0.000694743 0.000690728 0.000690728
0.000686752 0.000686752 0.000682821 0.000682821 0.000678941 0.000678941 0.000675116 0.000675116 0.00067135
0.00067135 0.000667648 0.000667648 0.000664013 0.000664013 0.00066045 0.00066045 0.000656961 0.000656961
0.000653548 0.000653548 0.000650213 0.000650213 0.000646956 0.000646956 0.000643776 0.000643776 0.000640674
0.000640674 0.000637649 0.000637649 0.0006347 0.0006347 0.000631827 0.000631827 0.000629029 0.000629029
0.000626305 0.000626305 0.000623654 0.000623654 0.000621075 0.000621075 0.000618566 0.000618566 0.000616128
0.000616128 0.000613759 0.000613759 0.000611458 0.000611458 0.000609224 0.000609224 0.000607055 0.000607055
0.000604952 0.000604952 0.000602912 0.000602912 0.000600935 0.000600935 0.000599018 0.000599018 0.000597162
0.000597162 0.000595366 0.000595366 0.000593626 0.000593626 0.000591944 0.000591944 0.000590316 0.000590316
0.000588743 0.000588743 0.000587222 0.000587222 0.000585753 0.000585753 0.000584334 0.000584334 0.000582965
0.000582965 0.000581644 0.000581644 0.00058037 0.00058037 0.000579143 0.000579143 0.00057796 0.00057796
0.000576821 0.000576821 0.000575725 0.000575725 0.00057467 0.00057467 0.000573656 0.000573656 0.000572681
0.000572681 0.000571744 0.000571744 0.000570845 0.000570845 0.000569981 0.000569981 0.000569153 0.000569153
0.000568359 0.000568359 0.000567598 0.000567598 0.000566869 0.000566869 0.000566171 0.000566171 0.000565503
0.000565503 0.000564864 0.000564864 0.000564254 0.000564254 0.000563671 0.000563671 0.000563115 0.000563115
0.000562584 0.000562584 0.000562078 0.000562078 0.000561597 0.000561597 0.000561138 0.000561138 0.000560702
0.000560702 0.000560287 0.000560287 0.000559893 0.000559893 0.00055952 0.00055952 0.000559165 0.000559165
0.000558829 0.000558829 0.000558511 0.000558511 0.000558209 0.000558209 0.000557921 0.000557921 0.000557647
0.000557647 0.000557383 0.000557383 0.000557126 0.000557126 0.000556867 0.000556867 0.000556594 0.000556594
0.000556281 0.000556281 0.000555876 0.000555876 0.000555259 0.000555259 0.000554159 0.000554159 0.000551976
0.000551976 0.000547737 0.000547737 0.000542004 0.000542004 0.000538284 0.000538284 0.0005373 0.0005373
0.000537075 0.000537075
        </DataArray>
        <DataArray type='Float32' Name='omega' format='ascii'>
52664.2 36964.3 36964.3 52664.2 16862.7 16862.7 10633.8 10633.8 7832.21
7832.21 6236.85 6236.85 5163.19 5163.19 4386.9 4386.9 3796.46 3796.46
3246.15 3246.15 2619.97 2619.97 1933.1 1933.1 1349.39 1349.39 971.833
971.833 762.835 762.835 657.839 657.839 605.875 605.875 576.918 576.918
557.486 557.486 542.126 542.126 528.578 528.578 515.939 515.939 503.891
503.891 492.356 492.356 481.348 481.348 470.899 470.899 461.03 461.03
451.75 451.75 443.049 443.049 434.904 434.904 427.283 427.283 420.15
420.15 413.463 413.463 407.184 407.184 401.276 401.276 395.706 395.706
390.446 390.446 385.469 385.469 380.755 380.755 376.284 376.284 372.036
372.036 367.995 367.995 364.142 364.142 360.46 360.46 356.931 356.931
353.542 353.542 350.278 350.278 347.128 347.128 344.082 344.082 341.132
341.132 338.27 338.27 335.493 335.493 332.795 332.795 330.173 330.173
327.623 327.623 325.143 325.143 322.732 322.732 320.389 320.389 318.113
318.113 315.907 315.907 313.772 313.772 311.714 311.714 309.737 309.737
307.849 307.849 306.055 306.055 304.363 304.363 302.775 302.775 301.288
301.288 299.895 299.895 298.581 298.581 297.324 297.324 296.098 296.098
294.878 294.878 293.638 293.638 292.359 292.359 291.031 291.031 289.65
289.65 288.219 288.219 286.747 286.747 285.245 285.245 283.727 283.727
282.205 282.205 280.693 280.693 279.203 279.203 277.747 277.747 276.331
276.331 274.963 274.963 273.644 273.644 272.372 272.372 271.144 271.144
269.955 269.955 268.799 268.799 267.671 267.671 266.569 266.569 265.491
265.491 264.433 264.433 263.397 263.397 262.381 262.381 261.385 261.385
260.409 260.409 259.452 259.452 258.516 258.516 257.598 257.598 256.7
256.7 255.82 255.82 254.959 254.959 254.116 254.116 253.292 253.292
252.485 252.485 251.696 251.696 250.924 250.924 250.169 250.169 249.43
249.43 248.709 248.709 248.003 248.003 247.314 247.314 246.64 246.64
245.982 245.982 245.338 245.338 244.71 244.71 244.096 244.096 243.496
243.496 242.91 242.91 242.337 242.337 241.778 241.778 241.231 241.231
240.697 240.697 240.176 240.176 239.666 239.666 239.168 239.168 238.681
238.681 238.206 238.206 237.742 237.742 237.288 237.288 236.844 236.844
236.41 236.41 235.987 235.987 235.572 235.572 235.167 235.167 234.77
234.77 234.383 234.383 234.003 234.003 233.632 233.632 233.268 233.268
232.913 232.913 232.564 232.564 232.223 232.223 231.888 231.888 231.56
231.56 231.239 231.239 230.924 230.924 230.615 230.615 230.312 230.312
230.014 230.014 229.722 229.722 229.436 229.436 229.155 229.155 228.88
228.88 228.609 228.609 228.344 228.344 228.083 228.083 227.828 227.828
227.577 227.577 227.332 227.332 227.092 227.092 226.858 226.858 226.63
226.63 226.409 226.409 226.196 226.196 225.994 225.994 225.807 225.807
225.643 225.643 225.52 225.52 225.477 225.477 225.603 225.603 226.102
226.102 227.325 227.325 229.095 229.095 230.147 230.147 230.187 230.187
230.098 230.098
        </DataArray>
        <DataArray type='Float32' Name='p' format='ascii'>
0 0 0 0 0 0 0 0 0
0 0 0 0 0 0 0 0 0
0 0 0 0 0 0 0 0 0
0 0 0 0 0 0 0 0 0
0 0 0 0 0 0 0 0 0
0 0 0 0 0 0 0 0 0
0 0 0 0 0 0 0 0 0
0 0 0 0 0 0 0 0 0
0 0 0 0 0 0 0 0 0
0 0 0 0 0 0 0 0 0
0 0 0 0 0 0 0 0 0
0 0 0 0 0 0 0 0 0
0 0 0 0 0 0 0 0 0
0 0 0 0 0 0 0 0 0
0 0 0 0 0 0 0 0 0
0 0 0 0 0 0 0 0 0
0 0 0 0 0 0 0 0 0
0 0 0 0 0 0 0 0 0
0 0 0 0 0 0 0 0 0
0 0 0 0 0 0 0 0 0
0 0 0 0 0 0 0 0 0
0 0 0 0 0 0 0 0 0
0 0 0 0 0 0 0 0 0
0 0 0 0 0 0 0 0 0
0 0 0 0 0 0 0 0 0
0 0 0 0 0 0 0 0 0
0 0 0 0 0 0 0 0 0
0 0 0 0 0 0 0 0 0
0 0 0 0 0 0 0 0 0
0 0 0 0 0 0 0 0 0
0 0 0 0 0 0 0 0 0
0 0 0 0 0 0 0 0 0
0 0 0 0 0 0 0 0 0
0 0 0 0 0 0 0 0 0
0 0 0 0 0 0 0 0 0
0 0 0 0 0 0 0 0 0
0 0 0 0 0 0 0 0 0
0 0 0 0 0 0 0 0 0
0 0 0 0 0 0 0 0 0
0 0 0 0 0 0 0 0 0
0 0
        </DataArray>
        <DataArray type='Float32' Name='U' NumberOfComponents='3' format='ascii'>
17.5405 -0.00082434 2.59421e-23 19.5294 -0.000822085 1.69913e-23 19.5294 -0.000822085 1.69913e-23
17.5405 -0.00082434 2.59421e-23 22.5441 -0.000635654 -5.25576e-24 22.5441 -0.000635654 -5.25576e-24
24.2681 -0.000168805 -1.02506e-23 24.2681 -0.000168805 -1.02506e-23 25.5136 0.000325502 -8.31795e-24
25.5136 0.000325502 -8.31795e-24 26.5258 0.00059129 -3.88676e-24 26.5258 0.00059129 -3.88676e-24
27.4004 0.000434583 6.10917e-24 27.4004 0.000434583 6.10917e-24 28.1715 -0.000373379 -3.60483e-24
28.1715 -0.000373379 -3.60483e-24 28.8406 -0.0020621 1.40443e-24 28.8406 -0.0020621 1.40443e-24
29.4013 -0.00455537 -9.0783e-25 29.4013 -0.00455537 -9.0783e-25 29.8491 -0.00776924 -2.43907e-24
29.8491 -0.00776924 -2.43907e-24 30.1725 -0.0116717 9.08596e-24 30.1725 -0.0116717 9.08596e-24
30.3777 -0.015917 5.50148e-24 30.3777 -0.015917 5.50148e-24 30.5038 -0.0201893 3.3749e-24
30.5038 -0.0201893 3.3749e-24 30.5904 -0.0243206 6.28254e-24 30.5904 -0.0243206 6.28254e-24
30.6605 -0.0282316 8.66184e-24 30.6605 -0.0282316 8.66184e-24 30.7248 -0.0319318 6.56716e-24
30.7248 -0.0319318 6.56716e-24 30.7878 -0.0354576 1.3543e-24 30.7878 -0.0354576 1.3543e-24
30.8511 -0.0388235 8.50894e-24 30.8511 -0.0388235 8.50894e-24 30.9151 -0.0420397 1.51079e-23
30.9151 -0.0420397 1.51079e-23 30.9797 -0.0451237 1.20432e-23 30.9797 -0.0451237 1.20432e-23
31.0447 -0.0480932 1.39358e-23 31.0447 -0.0480932 1.39358e-23 31.1096 -0.0509628 7.67981e-24
31.1096 -0.0509628 7.67981e-24 31.1741 -0.0537446 -7.19481e-24 31.1741 -0.0537446 -7.19481e-24
31.238 -0.05645 -1.35062e-23 31.238 -0.05645 -1.35062e-23 31.301 -0.0590868 -7.1602e-24
31.301 -0.0590868 -7.1602e-24 31.363 -0.0616609 -1.19284e-23 31.363 -0.0616609 -1.19284e-23
31.4239 -0.0641794 -5.38539e-24 31.4239 -0.0641794 -5.38539e-24 31.4836 -0.066649 3.58655e-26
31.4836 -0.066649 3.58655e-26 31.5422 -0.0690755 -6.32918e-24 31.5422 -0.0690755 -6.32918e-24
31.5997 -0.0714646 2.96938e-24 31.5997 -0.0714646 2.96938e-24 31.656 -0.0738214 -2.78836e-24
31.656 -0.0738214 -2.78836e-24 31.7112 -0.0761522 -1.68526e-23 31.7112 -0.0761522 -1.68526e-23
31.7655 -0.0784634 2.11949e-24 31.7655 -0.0784634 2.11949e-24 31.8187 -0.0807607 1.33269e-23
31.8187 -0.0807607 1.33269e-23 31.871 -0.0830504 -1.59647e-24 31.871 -0.0830504 -1.59647e-24
31.9225 -0.0853383 -4.65789e-24 31.9225 -0.0853383 -4.65789e-24 31.973 -0.0876296 -2.19901e-24
31.973 -0.0876296 -2.19901e-24 32.0228 -0.0899301 6.43608e-24 32.0228 -0.0899301 6.43608e-24
32.0718 -0.0922468 1.55018e-23 32.0718 -0.0922468 1.55018e-23 32.12 -0.0945864 1.60835e-23
32.12 -0.0945864 1.60835e-23 32.1676 -0.0969553 1.04991e-23 32.1676 -0.0969553 1.04991e-23
32.2145 -0.0993594 -1.30875e-24 32.2145 -0.0993594 -1.30875e-24 32.2607 -0.101805 -1.44323e-24
32.2607 -0.101805 -1.44323e-24 32.3062 -0.104297 -6.25421e-24 32.3062 -0.104297 -6.25421e-24
32.3512 -0.106842 -9.31083e-24 32.3512 -0.106842 -9.31083e-24 32.3954 -0.109446 -3.9588e-24
32.3954 -0.109446 -3.9588e-24 32.439 -0.112112 -8.77185e-24 32.439 -0.112112 -8.77185e-24
32.4819 -0.114848 1.1827e-23 32.4819 -0.114848 1.1827e-23 32.524 -0.117657 1.42012e-23
32.524 -0.117657 1.42012e-23 32.5654 -0.120547 -1.78723e-23 32.5654 -0.120547 -1.78723e-23
32.606 -0.123523 -2.14881e-23 32.606 -0.123523 -2.14881e-23 32.6458 -0.126591 -6.67565e-24
32.6458 -0.126591 -6.67565e-24 32.6847 -0.129757 4.66308e-24 32.6847 -0.129757 4.66308e-24
32.7227 -0.133028 1.4846e-23 32.7227 -0.133028 1.4846e-23 32.7599 -0.136408 4.92484e-24
32.7599 -0.136408 4.92484e-24 32.7962 -0.139905 -8.57763e-25 32.7962 -0.139905 -8.57763e-25
32.8316 -0.143523 -4.45428e-24 32.8316 -0.143523 -4.45428e-24 32.8661 -0.14727 -1.78407e-23
32.8661 -0.14727 -1.78407e-23 32.8997 -0.151149 -7.55467e-24 32.8997 -0.151149 -7.55467e-24
32.9326 -0.155166 -6.49542e-25 32.9326 -0.155166 -6.49542e-25 32.9647 -0.159326 1.12678e-23
32.9647 -0.159326 1.12678e-23 32.9962 -0.163635 1.5736e-23 32.9962 -0.163635 1.5736e-23
33.0273 -0.168095 1.18891e-24 33.0273 -0.168095 1.18891e-24 33.0581 -0.172709 1.00203e-24
33.0581 -0.172709 1.00203e-24 33.0889 -0.177483 1.27968e-23 33.0889 -0.177483 1.27968e-23
33.1199 -0.182417 1.36103e-23 33.1199 -0.182417 1.36103e-23 33.1515 -0.18751 5.34445e-24
33.1515 -0.18751 5.34445e-24 33.1838 -0.192756 -1.73926e-23 33.1838 -0.192756 -1.73926e-23
33.2172 -0.198146 -1.29769e-23 33.2172 -0.198146 -1.29769e-23 33.2517 -0.203669 3.32437e-23
33.2517 -0.203669 3.32437e-23 33.2875 -0.20931 3.81425e-23 33.2875 -0.20931 3.81425e-23
33.3246 -0.215052 1.02016e-24 33.3246 -0.215052 1.02016e-24 33.3628 -0.220879 -2.59119e-23
33.3628 -0.220879 -2.59119e-23 33.4019 -0.226776 -1.36931e-23 33.4019 -0.226776 -1.36931e-23
33.4418 -0.232729 1.40996e-23 33.4418 -0.232729 1.40996e-23 33.4822 -0.238724 5.86905e-24
33.4822 -0.238724 5.86905e-24 33.5228 -0.244753 -1.43354e-23 33.5228 -0.244753 -1.43354e-23
33.5634 -0.250808 -3.05498e-23 33.5634 -0.250808 -3.05498e-23 33.6037 -0.256882 -2.9764e-23
33.6037 -0.256882 -2.9764e-23 33.6436 -0.262971 -2.19468e-24 33.6436 -0.262971 -2.19468e-24
33.6829 -0.269074 1.76045e-23 33.6829 -0.269074 1.76045e-23 33.7215 -0.275192 -6.38669e-24
33.7215 -0.275192 -6.38669e-24 33.7593 -0.281326 -2.70333e-23 33.7593 -0.281326 -2.70333e-23
33.7963 -0.287477 -5.48429e-24 33.7963 -0.287477 -5.48429e-24 33.8324 -0.293648 2.91763e-24
33.8324 -0.293648 2.91763e-24 33.8678 -0.299839 4.86675e-24 33.8678 -0.299839 4.86675e-24
33.9025 -0.306051 1.94977e-23 33.9025 -0.306051 1.94977e-23 33.9367 -0.31228 1.0837e-23
33.9367 -0.31228 1.0837e-23 33.9703 -0.318521 4.61218e-24 33.9703 -0.318521 4.61218e-24
34.0035 -0.324768 -4.05753e-25 34.0035 -0.324768 -4.05753e-25 34.0364 -0.331013 1.00507e-23
34.0364 -0.331013 1.00507e-23 34.0689 -0.337246 1.97809e-23 34.0689 -0.337246 1.97809e-23
34.1011 -0.34346 -8.08413e-24 34.1011 -0.34346 -8.08413e-24 34.1331 -0.349645 -1.63143e-23
34.1331 -0.349645 -1.63143e-23 34.1648 -0.355789 7.39351e-24 34.1648 -0.355789 7.39351e-24
34.1962 -0.36188 3.36922e-24 34.1962 -0.36188 3.36922e-24 34.2274 -0.367909 -2.77096e-24
34.2274 -0.367909 -2.77096e-24 34.2583 -0.373866 2.34557e-23 34.2583 -0.373866 2.34557e-23
34.289 -0.37974 3.17173e-23 34.289 -0.37974 3.17173e-23 34.3195 -0.385522 9.46601e-25
34.3195 -0.385522 9.46601e-25 34.3498 -0.391202 -2.02717e-23 34.3498 -0.391202 -2.02717e-23
34.3798 -0.39677 -1.07539e-23 34.3798 -0.39677 -1.07539e-23 34.4096 -0.402212 -2.53319e-23
34.4096 -0.402212 -2.53319e-23 34.4392 -0.407516 -2.3561e-23 34.4392 -0.407516 -2.3561e-23
34.4686 -0.412673 -1.57541e-23 34.4686 -0.412673 -1.57541e-23 34.4978 -0.417672 -2.69625e-23
34.4978 -0.417672 -2.69625e-23 34.5267 -0.422503 -1.05718e-23 34.5267 -0.422503 -1.05718e-23
34.5554 -0.427153 -4.30428e-24 34.5554 -0.427153 -4.30428e-24 34.5839 -0.431613 -9.93134e-24
34.5839 -0.431613 -9.93134e-24 34.6122 -0.435872 -5.36203e-24 34.6122 -0.435872 -5.36203e-24
34.6403 -0.439922 -5.66984e-24 34.6403 -0.439922 -5.66984e-24 34.6681 -0.443752 9.17528e-25
34.6681 -0.443752 9.17528e-25 34.6956 -0.447352 -3.93673e-24 34.6956 -0.447352 -3.93673e-24
34.7229 -0.450712 -1.48771e-23 34.7229 -0.450712 -1.48771e-23 34.75 -0.453824 -1.45003e-23
34.75 -0.453824 -1.45003e-23 34.7768 -0.456678 2.69451e-25 34.7768 -0.456678 2.69451e-25
34.8033 -0.459266 -3.03172e-24 34.8033 -0.459266 -3.03172e-24 34.8295 -0.461577 4.27668e-24
34.8295 -0.461577 4.27668e-24 34.8555 -0.463604 3.45831e-24 34.8555 -0.463604 3.45831e-24
34.8811 -0.465339 -8.67786e-24 34.8811 -0.465339 -8.67786e-24 34.9065 -0.466776 -3.21465e-24
34.9065 -0.466776 -3.21465e-24 34.9315 -0.467909 -1.01922e-23 34.9315 -0.467909 -1.01922e-23
34.9562 -0.468728 -3.27489e-24 34.9562 -0.468728 -3.27489e-24 34.9806 -0.469228 5.16711e-24
34.9806 -0.469228 5.16711e-24 35.0046 -0.469399 3.66253e-24 35.0046 -0.469399 3.66253e-24
35.0282 -0.469244 -1.7042e-24 35.0282 -0.469244 -1.7042e-24 35.0514 -0.468766 -2.30983e-24
35.0514 -0.468766 -2.30983e-24 35.0743 -0.467985 1.58769e-24 35.0743 -0.467985 1.58769e-24
35.0969 -0.466775 4.02613e-25 35.0969 -0.466775 4.02613e-25 35.1192 -0.465199 1.81797e-25
35.1192 -0.465199 1.81797e-25 35.141 -0.463374 -5.68164e-25 35.141 -0.463374 -5.68164e-25
35.1625 -0.46131 1.61053e-25 35.1625 -0.46131 1.61053e-25 35.1835 -0.458812 3.01896e-24
35.1835 -0.458812 3.01896e-24 35.2037 -0.455873 1.48591e-24 35.2037 -0.455873 1.48591e-24
35.2237 -0.452697 -4.76579e-24 35.2237 -0.452697 -4.76579e-24 35.2433 -0.449159 -8.51583e-24
35.2433 -0.449159 -8.51583e-24 35.2624 -0.44523 -1.17304e-24 35.2624 -0.44523 -1.17304e-24
35.2811 -0.440922 -4.70144e-24 35.2811 -0.440922 -4.70144e-24 35.2993 -0.436255 1.94136e-24
35.2993 -0.436255 1.94136e-24 35.317 -0.431237 8.40633e-24 35.317 -0.431237 8.40633e-24
35.3342 -0.425874 -1.98916e-23 35.3342 -0.425874 -1.98916e-23 35.351 -0.420166 -2.03254e-23
35.351 -0.420166 -2.03254e-23 35.3673 -0.414114 -2.04096e-23 35.3673 -0.414114 -2.04096e-23
35.3831 -0.407721 -2.73575e-23 35.3831 -0.407721 -2.73575e-23 35.3985 -0.400989 -3.2666e-23
35.3985 -0.400989 -3.2666e-23 35.4133 -0.393921 -4.96485e-23 35.4133 -0.393921 -4.96485e-23
35.4277 -0.386521 -3.68296e-23 35.4277 -0.386521 -3.68296e-23 35.4416 -0.378792 -1.51231e-23
35.4416 -0.378792 -1.51231e-23 35.4551 -0.37074 -2.74731e-24 35.4551 -0.37074 -2.74731e-24
35.468 -0.362368 5.09163e-24 35.468 -0.362368 5.09163e-24 35.4805 -0.353681 -2.29166e-23
35.4805 -0.353681 -2.29166e-23 35.4926 -0.344684 -4.14088e-23 35.4926 -0.344684 -4.14088e-23
35.5042 -0.335383 -9.59316e-24 35.5042 -0.335383 -9.59316e-24 35.5154 -0.325783 3.27645e-23
35.5154 -0.325783 3.27645e-23 35.5262 -0.315891 2.54611e-23 35.5262 -0.315891 2.54611e-23
35.5366 -0.305712 2.91743e-23 35.5366 -0.305712 2.91743e-23 35.5465 -0.295253 6.97551e-23
35.5465 -0.295253 6.97551e-23 35.5561 -0.284522 6.36325e-23 35.5561 -0.284522 6.36325e-23
35.5653 -0.273526 -2.20188e-23 35.5653 -0.273526 -2.20188e-23 35.5742 -0.262272 -3.29042e-23
35.5742 -0.262272 -3.29042e-23 35.5827 -0.250768 1.48429e-23 35.5827 -0.250768 1.48429e-23
35.5909 -0.239027 -2.59704e-23 35.5909 -0.239027 -2.59704e-23 35.5989 -0.227049 -6.96557e-23
35.5989 -0.227049 -6.96557e-23 35.6065 -0.214858 -3.76e-23 35.6065 -0.214858 -3.76e-23
35.6139 -0.202444 -1.21141e-23 35.6139 -0.202444 -1.21141e-23 35.6211 -0.189853 -7.68116e-23
35.6211 -0.189853 -7.68116e-23 35.628 -0.177039 -1.06007e-22 35.628 -0.177039 -1.06007e-22
35.6348 -0.164089 -1.6945e-23 35.6348 -0.164089 -1.6945e-23 35.6414 -0.150949 4.8794e-23
35.6414 -0.150949 4.8794e-23 35.648 -0.1377 7.92795e-23 35.648 -0.1377 7.92795e-23
35.6544 -0.124268 -1.64666e-23 35.6544 -0.124268 -1.64666e-23 35.6608 -0.110794 -1.6223e-22
35.6608 -0.110794 -1.6223e-22 35.6671 -0.0971491 -6.77907e-23 35.6671 -0.0971491 -6.77907e-23
35.6734 -0.0835366 -7.91211e-23 35.6734 -0.0835366 -7.91211e-23 35.6799 -0.0697696 -1.02962e-22
35.6799 -0.0697696 -1.02962e-22 35.6864 -0.0561064 6.89291e-23 35.6864 -0.0561064 6.89291e-23
35.6925 -0.042328 4.55511e-23 35.6925 -0.042328 4.55511e-23 35.6954 -0.0286666 -4.53662e-23
35.6954 -0.0286666 -4.53662e-23 35.6935 -0.0147224 4.62377e-24 35.6935 -0.0147224 4.62377e-24
35.6914 -0.00711718 4.09369e-23 35.6914 -0.00711718 4.09369e-23
        </DataArray>
      </PointData>
    </Piece>
  </PolyData>
</VTKFile>
