<?xml version='1.0'?>
<!-- patch='bottomWall' time='40' index='40' -->
<VTKFile type='PolyData' version='0.1' byte_order='LittleEndian' header_type='UInt64'>
  <PolyData>
    <FieldData>
      <DataArray type='Float32' Name='TimeValue' NumberOfTuples='1' format='ascii'>
40
      </DataArray>
    </FieldData>
    <Piece NumberOfPoints='1042' NumberOfPolys='520'>
      <Points>
        <DataArray type='Float32' Name='Points' NumberOfComponents='3' format='ascii'>
-0.9 0 -0.01 -0.898901 0 -0.01 -0.898901 0 0.01
-0.9 0 0.01 -0.897373 0 -0.01 -0.897373 0 0.01
-0.895561 0 -0.01 -0.895561 0 0.01 -0.893612 0 -0.01
-0.893612 0 0.01 -0.891675 0 -0.01 -0.891675 0 0.01
-0.889896 0 -0.01 -0.889896 0 0.01 -0.8882 0 -0.01
-0.8882 0 0.01 -0.8865 0 -0.01 -0.8865 0 0.01
-0.884796 0 -0.01 -0.884796 0 0.01 -0.883089 0 -0.01
-0.883089 0 0.01 -0.881378 0 -0.01 -0.881378 0 0.01
-0.879663 0 -0.01 -0.879663 0 0.01 -0.877945 0 -0.01
-0.877945 0 0.01 -0.876223 0 -0.01 -0.876223 0 0.01
-0.874498 0 -0.01 -0.874498 0 0.01 -0.872768 0 -0.01
-0.872768 0 0.01 -0.871036 0 -0.01 -0.871036 0 0.01
-0.869299 0 -0.01 -0.869299 0 0.01 -0.867559 0 -0.01
-0.867559 0 0.01 -0.865815 0 -0.01 -0.865815 0 0.01
-0.864068 0 -0.01 -0.864068 0 0.01 -0.862316 0 -0.01
-0.862316 0 0.01 -0.860562 0 -0.01 -0.860562 0 0.01
-0.858803 0 -0.01 -0.858803 0 0.01 -0.857041 0 -0.01
-0.857041 0 0.01 -0.855274 0 -0.01 -0.855274 0 0.01
-0.853505 0 -0.01 -0.853505 0 0.01 -0.851731 0 -0.01
-0.851731 0 0.01 -0.849954 0 -0.01 -0.849954 0 0.01
-0.848172 0 -0.01 -0.848172 0 0.01 -0.846388 0 -0.01
-0.846388 0 0.01 -0.844599 0 -0.01 -0.844599 0 0.01
-0.842806 0 -0.01 -0.842806 0 0.01 -0.84101 0 -0.01
-0.84101 0 0.01 -0.83921 0 -0.01 -0.83921 0 0.01
-0.837406 0 -0.01 -0.837406 0 0.01 -0.835598 0 -0.01
-0.835598 0 0.01 -0.833787 0 -0.01 -0.833787 0 0.01
-0.831971 0 -0.01 -0.831971 0 0.01 -0.830152 0 -0.01
-0.830152 0 0.01 -0.828329 0 -0.01 -0.828329 0 0.01
-0.826502 0 -0.01 -0.826502 0 0.01 -0.824671 0 -0.01
-0.824671 0 0.01 -0.822837 0 -0.01 -0.822837 0 0.01
-0.820998 0 -0.01 -0.820998 0 0.01 -0.819156 0 -0.01
-0.819156 0 0.01 -0.817309 0 -0.01 -0.817309 0 0.01
-0.815459 0 -0.01 -0.815459 0 0.01 -0.813605 0 -0.01
-0.813605 0 0.01 -0.811746 0 -0.01 -0.811746 0 0.01
-0.809884 0 -0.01 -0.809884 0 0.01 -0.808018 0 -0.01
-0.808018 0 0.01 -0.806148 0 -0.01 -0.806148 0 0.01
-0.804274 0 -0.01 -0.804274 0 0.01 -0.802396 0 -0.01
-0.802396 0 0.01 -0.800514 0 -0.01 -0.800514 0 0.01
-0.798629 0 -0.01 -0.798629 0 0.01 -0.796739 0 -0.01
-0.796739 0 0.01 -0.794845 0 -0.01 -0.794845 0 0.01
-0.792947 0 -0.01 -0.792947 0 0.01 -0.791045 0 -0.01
-0.791045 0 0.01 -0.789139 0 -0.01 -0.789139 0 0.01
-0.787229 0 -0.01 -0.787229 0 0.01 -0.785315 0 -0.01
-0.785315 0 0.01 -0.783397 0 -0.01 -0.783397 0 0.01
-0.781475 0 -0.01 -0.781475 0 0.01 -0.779548 0 -0.01
-0.779548 0 0.01 -0.777618 0 -0.01 -0.777618 0 0.01
-0.775684 0 -0.01 -0.775684 0 0.01 -0.773745 0 -0.01
-0.773745 0 0.01 -0.771803 0 -0.01 -0.771803 0 0.01
-0.769856 0 -0.01 -0.769856 0 0.01 -0.767905 0 -0.01
-0.767905 0 0.01 -0.76595 0 -0.01 -0.76595 0 0.01
-0.763991 0 -0.01 -0.763991 0 0.01 -0.762028 0 -0.01
-0.762028 0 0.01 -0.76006 0 -0.01 -0.76006 0 0.01
-0.758088 0 -0.01 -0.758088 0 0.01 -0.756113 0 -0.01
-0.756113 0 0.01 -0.754133 0 -0.01 -0.754133 0 0.01
-0.752149 0 -0.01 -0.752149 0 0.01 -0.75016 0 -0.01
-0.75016 0 0.01 -0.748168 0 -0.01 -0.748168 0 0.01
-0.746171 0 -0.01 -0.746171 0 0.01 -0.74417 0 -0.01
-0.74417 0 0.01 -0.742164 0 -0.01 -0.742164 0 0.01
-0.740155 0 -0.01 -0.740155 0 0.01 -0.738141 0 -0.01
-0.738141 0 0.01 -0.736123 0 -0.01 -0.736123 0 0.01
-0.734101 0 -0.01 -0.734101 0 0.01 -0.732074 0 -0.01
-0.732074 0 0.01 -0.730043 0 -0.01 -0.730043 0 0.01
-0.728008 0 -0.01 -0.728008 0 0.01 -0.725968 0 -0.01
-0.725968 0 0.01 -0.723924 0 -0.01 -0.723924 0 0.01
-0.721876 0 -0.01 -0.721876 0 0.01 -0.719824 0 -0.01
-0.719824 0 0.01 -0.717767 0 -0.01 -0.717767 0 0.01
-0.715706 0 -0.01 -0.715706 0 0.01 -0.71364 0 -0.01
-0.71364 0 0.01 -0.71157 0 -0.01 -0.71157 0 0.01
-0.709496 0 -0.01 -0.709496 0 0.01 -0.707417 0 -0.01
-0.707417 0 0.01 -0.705334 0 -0.01 -0.705334 0 0.01
-0.703246 0 -0.01 -0.703246 0 0.01 -0.701154 0 -0.01
-0.701154 0 0.01 -0.699058 0 -0.01 -0.699058 0 0.01
-0.696957 0 -0.01 -0.696957 0 0.01 -0.694851 0 -0.01
-0.694851 0 0.01 -0.692742 0 -0.01 -0.692742 0 0.01
-0.690627 0 -0.01 -0.690627 0 0.01 -0.688509 0 -0.01
-0.688509 0 0.01 -0.686385 0 -0.01 -0.686385 0 0.01
-0.684258 0 -0.01 -0.684258 0 0.01 -0.682125 0 -0.01
-0.682125 0 0.01 -0.679989 0 -0.01 -0.679989 0 0.01
-0.677847 0 -0.01 -0.677847 0 0.01 -0.675701 0 -0.01
-0.675701 0 0.01 -0.673551 0 -0.01 -0.673551 0 0.01
-0.671396 0 -0.01 -0.671396 0 0.01 -0.669237 0 -0.01
-0.669237 0 0.01 -0.667073 0 -0.01 -0.667073 0 0.01
-0.664904 0 -0.01 -0.664904 0 0.01 -0.662731 0 -0.01
-0.662731 0 0.01 -0.660553 0 -0.01 -0.660553 0 0.01
-0.65837 0 -0.01 -0.65837 0 0.01 -0.656183 0 -0.01
-0.656183 0 0.01 -0.653991 0 -0.01 -0.653991 0 0.01
-0.651795 0 -0.01 -0.651795 0 0.01 -0.649594 0 -0.01
-0.649594 0 0.01 -0.647388 0 -0.01 -0.647388 0 0.01
-0.645178 0 -0.01 -0.645178 0 0.01 -0.642963 0 -0.01
-0.642963 0 0.01 -0.640743 0 -0.01 -0.640743 0 0.01
-0.638519 0 -0.01 -0.638519 0 0.01 -0.636289 0 -0.01
-0.636289 0 0.01 -0.634056 0 -0.01 -0.634056 0 0.01
-0.631817 0 -0.01 -0.631817 0 0.01 -0.629574 0 -0.01
-0.629574 0 0.01 -0.627325 0 -0.01 -0.627325 0 0.01
-0.625073 0 -0.01 -0.625073 0 0.01 -0.622815 0 -0.01
-0.622815 0 0.01 -0.620552 0 -0.01 -0.620552 0 0.01
-0.618285 0 -0.01 -0.618285 0 0.01 -0.616013 0 -0.01
-0.616013 0 0.01 -0.613736 0 -0.01 -0.613736 0 0.01
-0.611455 0 -0.01 -0.611455 0 0.01 -0.609168 0 -0.01
-0.609168 0 0.01 -0.606877 0 -0.01 -0.606877 0 0.01
-0.604581 0 -0.01 -0.604581 0 0.01 -0.602279 0 -0.01
-0.602279 0 0.01 -0.599973 0 -0.01 -0.599973 0 0.01
-0.597663 0 -0.01 -0.597663 0 0.01 -0.595347 0 -0.01
-0.595347 0 0.01 -0.593026 0 -0.01 -0.593026 0 0.01
-0.590701 0 -0.01 -0.590701 0 0.01 -0.58837 0 -0.01
-0.58837 0 0.01 -0.586035 0 -0.01 -0.586035 0 0.01
-0.583694 0 -0.01 -0.583694 0 0.01 -0.581349 0 -0.01
-0.581349 0 0.01 -0.578999 0 -0.01 -0.578999 0 0.01
-0.576643 0 -0.01 -0.576643 0 0.01 -0.574283 0 -0.01
-0.574283 0 0.01 -0.571918 0 -0.01 -0.571918 0 0.01
-0.569547 0 -0.01 -0.569547 0 0.01 -0.567172 0 -0.01
-0.567172 0 0.01 -0.564792 0 -0.01 -0.564792 0 0.01
-0.562406 0 -0.01 -0.562406 0 0.01 -0.560016 0 -0.01
-0.560016 0 0.01 -0.55762 0 -0.01 -0.55762 0 0.01
-0.55522 0 -0.01 -0.55522 0 0.01 -0.552814 0 -0.01
-0.552814 0 0.01 -0.550403 0 -0.01 -0.550403 0 0.01
-0.547987 0 -0.01 -0.547987 0 0.01 -0.545566 0 -0.01
-0.545566 0 0.01 -0.54314 0 -0.01 -0.54314 0 0.01
-0.540709 0 -0.01 -0.540709 0 0.01 -0.538273 0 -0.01
-0.538273 0 0.01 -0.535831 0 -0.01 -0.535831 0 0.01
-0.533384 0 -0.01 -0.533384 0 0.01 -0.530932 0 -0.01
-0.530932 0 0.01 -0.528475 0 -0.01 -0.528475 0 0.01
-0.526013 0 -0.01 -0.526013 0 0.01 -0.523545 0 -0.01
-0.523545 0 0.01 -0.521072 0 -0.01 -0.521072 0 0.01
-0.518594 0 -0.01 -0.518594 0 0.01 -0.516111 0 -0.01
-0.516111 0 0.01 -0.513623 0 -0.01 -0.513623 0 0.01
-0.511129 0 -0.01 -0.511129 0 0.01 -0.50863 0 -0.01
-0.50863 0 0.01 -0.506125 0 -0.01 -0.506125 0 0.01
-0.503615 0 -0.01 -0.503615 0 0.01 -0.5011 0 -0.01
-0.5011 0 0.01 -0.49858 0 -0.01 -0.49858 0 0.01
-0.496054 0 -0.01 -0.496054 0 0.01 -0.493523 0 -0.01
-0.493523 0 0.01 -0.490987 0 -0.01 -0.490987 0 0.01
-0.488445 0 -0.01 -0.488445 0 0.01 -0.485898 0 -0.01
-0.485898 0 0.01 -0.483345 0 -0.01 -0.483345 0 0.01
-0.480787 0 -0.01 -0.480787 0 0.01 -0.478224 0 -0.01
-0.478224 0 0.01 -0.475655 0 -0.01 -0.475655 0 0.01
-0.473081 0 -0.01 -0.473081 0 0.01 -0.470501 0 -0.01
-0.470501 0 0.01 -0.467916 0 -0.01 -0.467916 0 0.01
-0.465325 0 -0.01 -0.465325 0 0.01 -0.462729 0 -0.01
-0.462729 0 0.01 -0.460127 0 -0.01 -0.460127 0 0.01
-0.45752 0 -0.01 -0.45752 0 0.01 -0.454907 0 -0.01
-0.454907 0 0.01 -0.452289 0 -0.01 -0.452289 0 0.01
-0.449665 0 -0.01 -0.449665 0 0.01 -0.447036 0 -0.01
-0.447036 0 0.01 -0.444401 0 -0.01 -0.444401 0 0.01
-0.441761 0 -0.01 -0.441761 0 0.01 -0.439114 0 -0.01
-0.439114 0 0.01 -0.436463 0 -0.01 -0.436463 0 0.01
-0.433805 0 -0.01 -0.433805 0 0.01 -0.431142 0 -0.01
-0.431142 0 0.01 -0.428474 0 -0.01 -0.428474 0 0.01
-0.4258 0 -0.01 -0.4258 0 0.01 -0.42312 0 -0.01
-0.42312 0 0.01 -0.420434 0 -0.01 -0.420434 0 0.01
-0.417743 0 -0.01 -0.417743 0 0.01 -0.415046 0 -0.01
-0.415046 0 0.01 -0.412343 0 -0.01 -0.412343 0 0.01
-0.409635 0 -0.01 -0.409635 0 0.01 -0.40692 0 -0.01
-0.40692 0 0.01 -0.4042 0 -0.01 -0.4042 0 0.01
-0.401475 0 -0.01 -0.401475 0 0.01 -0.398743 0 -0.01
-0.398743 0 0.01 -0.396006 0 -0.01 -0.396006 0 0.01
-0.393263 0 -0.01 -0.393263 0 0.01 -0.390514 0 -0.01
-0.390514 0 0.01 -0.387759 0 -0.01 -0.387759 0 0.01
-0.384999 0 -0.01 -0.384999 0 0.01 -0.382233 0 -0.01
-0.382233 0 0.01 -0.37946 0 -0.01 -0.37946 0 0.01
-0.376682 0 -0.01 -0.376682 0 0.01 -0.373898 0 -0.01
-0.373898 0 0.01 -0.371108 0 -0.01 -0.371108 0 0.01
-0.368312 0 -0.01 -0.368312 0 0.01 -0.365511 0 -0.01
-0.365511 0 0.01 -0.362703 0 -0.01 -0.362703 0 0.01
-0.359889 0 -0.01 -0.359889 0 0.01 -0.35707 0 -0.01
-0.35707 0 0.01 -0.354244 0 -0.01 -0.354244 0 0.01
-0.351413 0 -0.01 -0.351413 0 0.01 -0.348575 0 -0.01
-0.348575 0 0.01 -0.345731 0 -0.01 -0.345731 0 0.01
-0.342882 0 -0.01 -0.342882 0 0.01 -0.340026 0 -0.01
-0.340026 0 0.01 -0.337165 0 -0.01 -0.337165 0 0.01
-0.334297 0 -0.01 -0.334297 0 0.01 -0.331423 0 -0.01
-0.331423 0 0.01 -0.328543 0 -0.01 -0.328543 0 0.01
-0.325657 0 -0.01 -0.325657 0 0.01 -0.322765 0 -0.01
-0.322765 0 0.01 -0.319867 0 -0.01 -0.319867 0 0.01
-0.316962 0 -0.01 -0.316962 0 0.01 -0.314052 0 -0.01
-0.314052 0 0.01 -0.311135 0 -0.01 -0.311135 0 0.01
-0.308212 0 -0.01 -0.308212 0 0.01 -0.305283 0 -0.01
-0.305283 0 0.01 -0.302348 0 -0.01 -0.302348 0 0.01
-0.299406 0 -0.01 -0.299406 0 0.01 -0.296458 0 -0.01
-0.296458 0 0.01 -0.293504 0 -0.01 -0.293504 0 0.01
-0.290544 0 -0.01 -0.290544 0 0.01 -0.287578 0 -0.01
-0.287578 0 0.01 -0.284605 0 -0.01 -0.284605 0 0.01
-0.281626 0 -0.01 -0.281626 0 0.01 -0.27864 0 -0.01
-0.27864 0 0.01 -0.275648 0 -0.01 -0.275648 0 0.01
-0.27265 0 -0.01 -0.27265 0 0.01 -0.269646 0 -0.01
-0.269646 0 0.01 -0.266635 0 -0.01 -0.266635 0 0.01
-0.263618 0 -0.01 -0.263618 0 0.01 -0.260594 0 -0.01
-0.260594 0 0.01 -0.257564 0 -0.01 -0.257564 0 0.01
-0.254528 0 -0.01 -0.254528 0 0.01 -0.251485 0 -0.01
-0.251485 0 0.01 -0.248436 0 -0.01 -0.248436 0 0.01
-0.24538 0 -0.01 -0.24538 0 0.01 -0.242318 0 -0.01
-0.242318 0 0.01 -0.239249 0 -0.01 -0.239249 0 0.01
-0.236174 0 -0.01 -0.236174 0 0.01 -0.233092 0 -0.01
-0.233092 0 0.01 -0.230004 0 -0.01 -0.230004 0 0.01
-0.226909 0 -0.01 -0.226909 0 0.01 -0.223807 0 -0.01
-0.223807 0 0.01 -0.220699 0 -0.01 -0.220699 0 0.01
-0.217585 0 -0.01 -0.217585 0 0.01 -0.214464 0 -0.01
-0.214464 0 0.01 -0.211336 0 -0.01 -0.211336 0 0.01
-0.208202 0 -0.01 -0.208202 0 0.01 -0.205061 0 -0.01
-0.205061 0 0.01 -0.201913 0 -0.01 -0.201913 0 0.01
-0.198759 0 -0.01 -0.198759 0 0.01 -0.195598 0 -0.01
-0.195598 0 0.01 -0.19243 0 -0.01 -0.19243 0 0.01
-0.189255 0 -0.01 -0.189255 0 0.01 -0.186074 0 -0.01
-0.186074 0 0.01 -0.182886 0 -0.01 -0.182886 0 0.01
-0.179692 0 -0.01 -0.179692 0 0.01 -0.17649 0 -0.01
-0.17649 0 0.01 -0.173282 0 -0.01 -0.173282 0 0.01
-0.170067 0 -0.01 -0.170067 0 0.01 -0.166845 0 -0.01
-0.166845 0 0.01 -0.163616 0 -0.01 -0.163616 0 0.01
-0.160381 0 -0.01 -0.160381 0 0.01 -0.157139 0 -0.01
-0.157139 0 0.01 -0.153889 0 -0.01 -0.153889 0 0.01
-0.150633 0 -0.01 -0.150633 0 0.01 -0.14737 0 -0.01
-0.14737 0 0.01 -0.1441 0 -0.01 -0.1441 0 0.01
-0.140823 0 -0.01 -0.140823 0 0.01 -0.13754 0 -0.01
-0.13754 0 0.01 -0.134249 0 -0.01 -0.134249 0 0.01
-0.130951 0 -0.01 -0.130951 0 0.01 -0.127646 0 -0.01
-0.127646 0 0.01 -0.124335 0 -0.01 -0.124335 0 0.01
-0.121016 0 -0.01 -0.121016 0 0.01 -0.11769 0 -0.01
-0.11769 0 0.01 -0.114357 0 -0.01 -0.114357 0 0.01
-0.111017 0 -0.01 -0.111017 0 0.01 -0.107671 0 -0.01
-0.107671 0 0.01 -0.104316 0 -0.01 -0.104316 0 0.01
-0.100955 0 -0.01 -0.100955 0 0.01 -0.097587 0 -0.01
-0.097587 0 0.01 -0.0942116 0 -0.01 -0.0942116 0 0.01
-0.090829 0 -0.01 -0.090829 0 0.01 -0.0874393 0 -0.01
-0.0874393 0 0.01 -0.0840424 0 -0.01 -0.0840424 0 0.01
-0.0806383 0 -0.01 -0.0806383 0 0.01 -0.0772269 0 -0.01
-0.0772269 0 0.01 -0.0738084 0 -0.01 -0.0738084 0 0.01
-0.0703826 0 -0.01 -0.0703826 0 0.01 -0.0669495 0 -0.01
-0.0669495 0 0.01 -0.0635091 0 -0.01 -0.0635091 0 0.01
-0.0600615 0 -0.01 -0.0600615 0 0.01 -0.0566066 0 -0.01
-0.0566066 0 0.01 -0.0531443 0 -0.01 -0.0531443 0 0.01
-0.0496747 0 -0.01 -0.0496747 0 0.01 -0.0461978 0 -0.01
-0.0461978 0 0.01 -0.0427135 0 -0.01 -0.0427135 0 0.01
-0.0392218 0 -0.01 -0.0392218 0 0.01 -0.0357227 0 -0.01
-0.0357227 0 0.01 -0.0322161 0 -0.01 -0.0322161 0 0.01
-0.0287022 0 -0.01 -0.0287022 0 0.01 -0.0251808 0 -0.01
-0.0251808 0 0.01 -0.021652 0 -0.01 -0.021652 0 0.01
-0.0181156 0 -0.01 -0.0181156 0 0.01 -0.0145718 -4.72678e-07 -0.01
-0.0145718 -4.72678e-07 0.01 -0.0110205 -1.60976e-06 -0.01 -0.0110205 -1.60976e-06 0.01
-0.00746162 -4.19662e-07 -0.01 -0.00746162 -4.19662e-07 0.01 -0.00389523 -9.30144e-06 -0.01
-0.00389523 -9.30144e-06 0.01 -0.000321283 -1.65032e-05 -0.01 -0.000321283 -1.65032e-05 0.01
0.00325972 3.49333e-05 -0.01 0.00325972 3.49333e-05 0.01 0.00684516 0.000149506 -0.01
0.00684516 0.000149506 0.01 0.0104382 0.000325491 -0.01 0.0104382 0.000325491 0.01
0.0140327 0.0005816 -0.01 0.0140327 0.0005816 0.01 0.0176259 0.000916238 -0.01
0.0176259 0.000916238 0.01 0.0212267 0.00132532 -0.01 0.0212267 0.00132532 0.01
0.0248181 0.00180526 -0.01 0.0248181 0.00180526 0.01 0.028409 0.00235799 -0.01
0.028409 0.00235799 0.01 0.0320075 0.00298045 -0.01 0.0320075 0.00298045 0.01
0.0355825 0.00366637 -0.01 0.0355825 0.00366637 0.01 0.0391635 0.00442042 -0.01
0.0391635 0.00442042 0.01 0.0427444 0.00523535 -0.01 0.0427444 0.00523535 0.01
0.0463035 0.00610753 -0.01 0.0463035 0.00610753 0.01 0.0498703 0.00704017 -0.01
0.0498703 0.00704017 0.01 0.0534272 0.00802253 -0.01 0.0534272 0.00802253 0.01
0.0569711 0.00905633 -0.01 0.0569711 0.00905633 0.01 0.0605225 0.0101409 -0.01
0.0605225 0.0101409 0.01 0.0640569 0.0112636 -0.01 0.0640569 0.0112636 0.01
0.0675877 0.0124314 -0.01 0.0675877 0.0124314 0.01 0.071126 0.0136388 -0.01
0.071126 0.0136388 0.01 0.074644 0.0148742 -0.01 0.074644 0.0148742 0.01
0.0781667 0.0161467 -0.01 0.0781667 0.0161467 0.01 0.0816939 0.0174461 -0.01
0.0816939 0.0174461 0.01 0.0852084 0.0187674 -0.01 0.0852084 0.0187674 0.01
0.0887303 0.0201149 -0.01 0.0887303 0.0201149 0.01 0.0922548 0.0214768 -0.01
0.0922548 0.0214768 0.01 0.0957774 0.0228553 -0.01 0.0957774 0.0228553 0.01
0.0993075 0.0242473 -0.01 0.0993075 0.0242473 0.01 0.102843 0.0256435 -0.01
0.102843 0.0256435 0.01 0.106383 0.0270488 -0.01 0.106383 0.0270488 0.01
0.109931 0.0284541 -0.01 0.109931 0.0284541 0.01 0.113492 0.0298562 -0.01
0.113492 0.0298562 0.01 0.117061 0.0312565 -0.01 0.117061 0.0312565 0.01
0.120639 0.0326432 -0.01 0.120639 0.0326432 0.01 0.124239 0.0340214 -0.01
0.124239 0.0340214 0.01 0.127847 0.0353833 -0.01 0.127847 0.0353833 0.01
0.131471 0.0367209 -0.01 0.131471 0.0367209 0.01 0.135119 0.0380404 -0.01
0.135119 0.0380404 0.01 0.138776 0.0393285 -0.01 0.138776 0.0393285 0.01
0.142461 0.0405845 -0.01 0.142461 0.0405845 0.01 0.146165 0.0418079 -0.01
0.146165 0.0418079 0.01 0.149878 0.0429847 -0.01 0.149878 0.0429847 0.01
0.153636 0.0441237 -0.01 0.153636 0.0441237 0.01 0.157403 0.0452119 -0.01
0.157403 0.0452119 0.01 0.161193 0.0462435 -0.01 0.161193 0.0462435 0.01
0.165016 0.0472224 -0.01 0.165016 0.0472224 0.01 0.168847 0.0481351 -0.01
0.168847 0.0481351 0.01 0.172718 0.0489834 -0.01 0.172718 0.0489834 0.01
0.176605 0.0497617 -0.01 0.176605 0.0497617 0.01 0.180511 0.0504623 -0.01
0.180511 0.0504623 0.01 0.184449 0.0510873 -0.01 0.184449 0.0510873 0.01
0.188395 0.0516281 -0.01 0.188395 0.0516281 0.01 0.192371 0.0520833 -0.01
0.192371 0.0520833 0.01 0.19636 0.0524503 -0.01 0.19636 0.0524503 0.01
0.200363 0.0527249 -0.01 0.200363 0.0527249 0.01 0.204384 0.0529063 -0.01
0.204384 0.0529063 0.01 0.208414 0.0529925 -0.01 0.208414 0.0529925 0.01
0.212454 0.0529819 -0.01 0.212454 0.0529819 0.01 0.216502 0.0528745 -0.01
0.216502 0.0528745 0.01 0.220553 0.0526705 -0.01 0.220553 0.0526705 0.01
0.224607 0.0523694 -0.01 0.224607 0.0523694 0.01 0.228668 0.0519734 -0.01
0.228668 0.0519734 0.01 0.232715 0.0514845 -0.01 0.232715 0.0514845 0.01
0.23677 0.0509026 -0.01 0.23677 0.0509026 0.01 0.240813 0.0502345 -0.01
0.240813 0.0502345 0.01 0.244851 0.0494783 -0.01 0.244851 0.0494783 0.01
0.24889 0.0486406 -0.01 0.24889 0.0486406 0.01 0.252906 0.0477256 -0.01
0.252906 0.0477256 0.01 0.25693 0.0467322 -0.01 0.25693 0.0467322 0.01
0.26093 0.0456738 -0.01 0.26093 0.0456738 0.01 0.264929 0.0445443 -0.01
0.264929 0.0445443 0.01 0.268923 0.0433551 -0.01 0.268923 0.0433551 0.01
0.272896 0.0421092 -0.01 0.272896 0.0421092 0.01 0.276879 0.0408062 -0.01
0.276879 0.0408062 0.01 0.280838 0.0394619 -0.01 0.280838 0.0394619 0.01
0.2848 0.0380679 -0.01 0.2848 0.0380679 0.01 0.28876 0.0366385 -0.01
0.28876 0.0366385 0.01 0.29271 0.0351735 -0.01 0.29271 0.0351735 0.01
0.296667 0.0336765 -0.01 0.296667 0.0336765 0.01 0.300616 0.0321595 -0.01
0.300616 0.0321595 0.01 0.30457 0.0306169 -0.01 0.30457 0.0306169 0.01
0.308529 0.0290628 -0.01 0.308529 0.0290628 0.01 0.31249 0.0274943 -0.01
0.31249 0.0274943 0.01 0.31646 0.0259208 -0.01 0.31646 0.0259208 0.01
0.320441 0.0243463 -0.01 0.320441 0.0243463 0.01 0.32443 0.0227728 -0.01
0.32443 0.0227728 0.01 0.328433 0.0212116 -0.01 0.328433 0.0212116 0.01
0.332453 0.0196588 -0.01 0.332453 0.0196588 0.01 0.336481 0.01813 -0.01
0.336481 0.01813 0.01 0.340542 0.0166194 -0.01 0.340542 0.0166194 0.01
0.344611 0.01514 -0.01 0.344611 0.01514 0.01 0.34871 0.0136966 -0.01
0.34871 0.0136966 0.01 0.35283 0.0122897 -0.01 0.35283 0.0122897 0.01
0.356969 0.0109346 -0.01 0.356969 0.0109346 0.01 0.361147 0.00962449 -0.01
0.361147 0.00962449 0.01 0.365334 0.00837807 -0.01 0.365334 0.00837807 0.01
0.36957 0.00719118 -0.01 0.36957 0.00719118 0.01 0.37382 0.00607562 -0.01
0.37382 0.00607562 0.01 0.378105 0.00503761 -0.01 0.378105 0.00503761 0.01
0.382417 0.0040788 -0.01 0.382417 0.0040788 0.01 0.386752 0.00321161 -0.01
0.386752 0.00321161 0.01 0.391124 0.00243432 -0.01 0.391124 0.00243432 0.01
0.395508 0.00175908 -0.01 0.395508 0.00175908 0.01 0.399933 0.00118553 -0.01
0.399933 0.00118553 0.01 0.404366 0.000721293 -0.01 0.404366 0.000721293 0.01
0.408828 0.000372581 -0.01 0.408828 0.000372581 0.01 0.413303 0.000136527 -0.01
0.413303 0.000136527 0.01 0.417792 1.53545e-05 -0.01 0.417792 1.53545e-05 0.01
0.422293 2.24238e-06 -0.01 0.422293 2.24238e-06 0.01 0.426804 -5.16471e-06 -0.01
0.426804 -5.16471e-06 0.01 0.431325 -2.75699e-06 -0.01 0.431325 -2.75699e-06 0.01
0.435855 0 -0.01 0.435855 0 0.01 0.440395 0 -0.01
0.440395 0 0.01 0.444944 0 -0.01 0.444944 0 0.01
0.449503 0 -0.01 0.449503 0 0.01 0.454072 0 -0.01
0.454072 0 0.01 0.45865 0 -0.01 0.45865 0 0.01
0.463238 0 -0.01 0.463238 0 0.01 0.467836 0 -0.01
0.467836 0 0.01 0.472443 0 -0.01 0.472443 0 0.01
0.477061 0 -0.01 0.477061 0 0.01 0.481688 0 -0.01
0.481688 0 0.01 0.486324 0 -0.01 0.486324 0 0.01
0.490971 0 -0.01 0.490971 0 0.01 0.495628 0 -0.01
0.495628 0 0.01 0.500294 0 -0.01 0.500294 0 0.01
0.50497 0 -0.01 0.50497 0 0.01 0.509657 0 -0.01
0.509657 0 0.01 0.514353 0 -0.01 0.514353 0 0.01
0.519059 0 -0.01 0.519059 0 0.01 0.523775 0 -0.01
0.523775 0 0.01 0.528501 0 -0.01 0.528501 0 0.01
0.533237 0 -0.01 0.533237 0 0.01 0.537983 0 -0.01
0.537983 0 0.01 0.542739 0 -0.01 0.542739 0 0.01
0.547505 0 -0.01 0.547505 0 0.01 0.552282 0 -0.01
0.552282 0 0.01 0.557068 0 -0.01 0.557068 0 0.01
0.561865 0 -0.01 0.561865 0 0.01 0.566672 0 -0.01
0.566672 0 0.01 0.571488 0 -0.01 0.571488 0 0.01
0.576316 0 -0.01 0.576316 0 0.01 0.581153 0 -0.01
0.581153 0 0.01 0.586001 0 -0.01 0.586001 0 0.01
0.590859 0 -0.01 0.590859 0 0.01 0.595727 0 -0.01
0.595727 0 0.01 0.600605 0 -0.01 0.600605 0 0.01
0.605494 0 -0.01 0.605494 0 0.01 0.610393 0 -0.01
0.610393 0 0.01 0.615303 0 -0.01 0.615303 0 0.01
0.620223 0 -0.01 0.620223 0 0.01 0.625153 0 -0.01
0.625153 0 0.01 0.630094 0 -0.01 0.630094 0 0.01
0.635046 0 -0.01 0.635046 0 0.01 0.640007 0 -0.01
0.640007 0 0.01 0.64498 0 -0.01 0.64498 0 0.01
0.649963 0 -0.01 0.649963 0 0.01 0.654956 0 -0.01
0.654956 0 0.01 0.65996 0 -0.01 0.65996 0 0.01
0.665573 0 -0.01 0.665573 0 0.01 0.67 0 -0.01
0.67 0 0.01
        </DataArray>
      </Points>
      <Polys>
        <DataArray type='Int32' Name='connectivity' format='ascii'>
0 1 2 3 1 4 5 2 4
6 7 5 6 8 9 7 8 10
11 9 10 12 13 11 12 14 15
13 14 16 17 15 16 18 19 17
18 20 21 19 20 22 23 21 22
24 25 23 24 26 27 25 26 28
29 27 28 30 31 29 30 32 33
31 32 34 35 33 34 36 37 35
36 38 39 37 38 40 41 39 40
42 43 41 42 44 45 43 44 46
47 45 46 48 49 47 48 50 51
49 50 52 53 51 52 54 55 53
54 56 57 55 56 58 59 57 58
60 61 59 60 62 63 61 62 64
65 63 64 66 67 65 66 68 69
67 68 70 71 69 70 72 73 71
72 74 75 73 74 76 77 75 76
78 79 77 78 80 81 79 80 82
83 81 82 84 85 83 84 86 87
85 86 88 89 87 88 90 91 89
90 92 93 91 92 94 95 93 94
96 97 95 96 98 99 97 98 100
101 99 100 102 103 101 102 104 105
103 104 106 107 105 106 108 109 107
108 110 111 109 110 112 113 111 112
114 115 113 114 116 117 115 116 118
119 117 118 120 121 119 120 122 123
121 122 124 125 123 124 126 127 125
126 128 129 127 128 130 131 129 130
132 133 131 132 134 135 133 134 136
137 135 136 138 139 137 138 140 141
139 140 142 143 141 142 144 145 143
144 146 147 145 146 148 149 147 148
150 151 149 150 152 153 151 152 154
155 153 154 156 157 155 156 158 159
157 158 160 161 159 160 162 163 161
162 164 165 163 164 166 167 165 166
168 169 167 168 170 171 169 170 172
173 171 172 174 175 173 174 176 177
175 176 178 179 177 178 180 181 179
180 182 183 181 182 184 185 183 184
186 187 185 186 188 189 187 188 190
191 189 190 192 193 191 192 194 195
193 194 196 197 195 196 198 199 197
198 200 201 199 200 202 203 201 202
204 205 203 204 206 207 205 206 208
209 207 208 210 211 209 210 212 213
211 212 214 215 213 214 216 217 215
216 218 219 217 218 220 221 219 220
222 223 221 222 224 225 223 224 226
227 225 226 228 229 227 228 230 231
229 230 232 233 231 232 234 235 233
234 236 237 235 236 238 239 237 238
240 241 239 240 242 243 241 242 244
245 243 244 246 247 245 246 248 249
247 248 250 251 249 250 252 253 251
252 254 255 253 254 256 257 255 256
258 259 257 258 260 261 259 260 262
263 261 262 264 265 263 264 266 267
265 266 268 269 267 268 270 271 269
270 272 273 271 272 274 275 273 274
276 277 275 276 278 279 277 278 280
281 279 280 282 283 281 282 284 285
283 284 286 287 285 286 288 289 287
288 290 291 289 290 292 293 291 292
294 295 293 294 296 297 295 296 298
299 297 298 300 301 299 300 302 303
301 302 304 305 303 304 306 307 305
306 308 309 307 308 310 311 309 310
312 313 311 312 314 315 313 314 316
317 315 316 318 319 317 318 320 321
319 320 322 323 321 322 324 325 323
324 326 327 325 326 328 329 327 328
330 331 329 330 332 333 331 332 334
335 333 334 336 337 335 336 338 339
337 338 340 341 339 340 342 343 341
342 344 345 343 344 346 347 345 346
348 349 347 348 350 351 349 350 352
353 351 352 354 355 353 354 356 357
355 356 358 359 357 358 360 361 359
360 362 363 361 362 364 365 363 364
366 367 365 366 368 369 367 368 370
371 369 370 372 373 371 372 374 375
373 374 376 377 375 376 378 379 377
378 380 381 379 380 382 383 381 382
384 385 383 384 386 387 385 386 388
389 387 388 390 391 389 390 392 393
391 392 394 395 393 394 396 397 395
396 398 399 397 398 400 401 399 400
402 403 401 402 404 405 403 404 406
407 405 406 408 409 407 408 410 411
409 410 412 413 411 412 414 415 413
414 416 417 415 416 418 419 417 418
420 421 419 420 422 423 421 422 424
425 423 424 426 427 425 426 428 429
427 428 430 431 429 430 432 433 431
432 434 435 433 434 436 437 435 436
438 439 437 438 440 441 439 440 442
443 441 442 444 445 443 444 446 447
445 446 448 449 447 448 450 451 449
450 452 453 451 452 454 455 453 454
456 457 455 456 458 459 457 458 460
461 459 460 462 463 461 462 464 465
463 464 466 467 465 466 468 469 467
468 470 471 469 470 472 473 471 472
474 475 473 474 476 477 475 476 478
479 477 478 480 481 479 480 482 483
481 482 484 485 483 484 486 487 485
486 488 489 487 488 490 491 489 490
492 493 491 492 494 495 493 494 496
497 495 496 498 499 497 498 500 501
499 500 502 503 501 502 504 505 503
504 506 507 505 506 508 509 507 508
510 511 509 510 512 513 511 512 514
515 513 514 516 517 515 516 518 519
517 518 520 521 519 520 522 523 521
522 524 525 523 524 526 527 525 526
528 529 527 528 530 531 529 530 532
533 531 532 534 535 533 534 536 537
535 536 538 539 537 538 540 541 539
540 542 543 541 542 544 545 543 544
546 547 545 546 548 549 547 548 550
551 549 550 552 553 551 552 554 555
553 554 556 557 555 556 558 559 557
558 560 561 559 560 562 563 561 562
564 565 563 564 566 567 565 566 568
569 567 568 570 571 569 570 572 573
571 572 574 575 573 574 576 577 575
576 578 579 577 578 580 581 579 580
582 583 581 582 584 585 583 584 586
587 585 586 588 589 587 588 590 591
589 590 592 593 591 592 594 595 593
594 596 597 595 596 598 599 597 598
600 601 599 600 602 603 601 602 604
605 603 604 606 607 605 606 608 609
607 608 610 611 609 610 612 613 611
612 614 615 613 614 616 617 615 616
618 619 617 618 620 621 619 620 622
623 621 622 624 625 623 624 626 627
625 626 628 629 627 628 630 631 629
630 632 633 631 632 634 635 633 634
636 637 635 636 638 639 637 638 640
641 639 640 642 643 641 642 644 645
643 644 646 647 645 646 648 649 647
648 650 651 649 650 652 653 651 652
654 655 653 654 656 657 655 656 658
659 657 658 660 661 659 660 662 663
661 662 664 665 663 664 666 667 665
666 668 669 667 668 670 671 669 670
672 673 671 672 674 675 673 674 676
677 675 676 678 679 677 678 680 681
679 680 682 683 681 682 684 685 683
684 686 687 685 686 688 689 687 688
690 691 689 690 692 693 691 692 694
695 693 694 696 697 695 696 698 699
697 698 700 701 699 700 702 703 701
702 704 705 703 704 706 707 705 706
708 709 707 708 710 711 709 710 712
713 711 712 714 715 713 714 716 717
715 716 718 719 717 718 720 721 719
720 722 723 721 722 724 725 723 724
726 727 725 726 728 729 727 728 730
731 729 730 732 733 731 732 734 735
733 734 736 737 735 736 738 739 737
738 740 741 739 740 742 743 741 742
744 745 743 744 746 747 745 746 748
749 747 748 750 751 749 750 752 753
751 752 754 755 753 754 756 757 755
756 758 759 757 758 760 761 759 760
762 763 761 762 764 765 763 764 766
767 765 766 768 769 767 768 770 771
769 770 772 773 771 772 774 775 773
774 776 777 775 776 778 779 777 778
780 781 779 780 782 783 781 782 784
785 783 784 786 787 785 786 788 789
787 788 790 791 789 790 792 793 791
792 794 795 793 794 796 797 795 796
798 799 797 798 800 801 799 800 802
803 801 802 804 805 803 804 806 807
805 806 808 809 807 808 810 811 809
810 812 813 811 812 814 815 813 814
816 817 815 816 818 819 817 818 820
821 819 820 822 823 821 822 824 825
823 824 826 827 825 826 828 829 827
828 830 831 829 830 832 833 831 832
834 835 833 834 836 837 835 836 838
839 837 838 840 841 839 840 842 843
841 842 844 845 843 844 846 847 845
846 848 849 847 848 850 851 849 850
852 853 851 852 854 855 853 854 856
857 855 856 858 859 857 858 860 861
859 860 862 863 861 862 864 865 863
864 866 867 865 866 868 869 867 868
870 871 869 870 872 873 871 872 874
875 873 874 876 877 875 876 878 879
877 878 880 881 879 880 882 883 881
882 884 885 883 884 886 887 885 886
888 889 887 888 890 891 889 890 892
893 891 892 894 895 893 894 896 897
895 896 898 899 897 898 900 901 899
900 902 903 901 902 904 905 903 904
906 907 905 906 908 909 907 908 910
911 909 910 912 913 911 912 914 915
913 914 916 917 915 916 918 919 917
918 920 921 919 920 922 923 921 922
924 925 923 924 926 927 925 926 928
929 927 928 930 931 929 930 932 933
931 932 934 935 933 934 936 937 935
936 938 939 937 938 940 941 939 940
942 943 941 942 944 945 943 944 946
947 945 946 948 949 947 948 950 951
949 950 952 953 951 952 954 955 953
954 956 957 955 956 958 959 957 958
960 961 959 960 962 963 961 962 964
965 963 964 966 967 965 966 968 969
967 968 970 971 969 970 972 973 971
972 974 975 973 974 976 977 975 976
978 979 977 978 980 981 979 980 982
983 981 982 984 985 983 984 986 987
985 986 988 989 987 988 990 991 989
990 992 993 991 992 994 995 993 994
996 997 995 996 998 999 997 998 1000
1001 999 1000 1002 1003 1001 1002 1004 1005
1003 1004 1006 1007 1005 1006 1008 1009 1007
1008 1010 1011 1009 1010 1012 1013 1011 1012
1014 1015 1013 1014 1016 1017 1015 1016 1018
1019 1017 1018 1020 1021 1019 1020 1022 1023
1021 1022 1024 1025 1023 1024 1026 1027 1025
1026 1028 1029 1027 1028 1030 1031 1029 1030
1032 1033 1031 1032 1034 1035 1033 1034 1036
1037 1035 1036 1038 1039 1037 1038 1040 1041
1039
        </DataArray>
        <DataArray type='Int32' Name='offsets' format='ascii'>
4 8 12 16 20 24 28 32 36
40 44 48 52 56 60 64 68 72
76 80 84 88 92 96 100 104 108
112 116 120 124 128 132 136 140 144
148 152 156 160 164 168 172 176 180
184 188 192 196 200 204 208 212 216
220 224 228 232 236 240 244 248 252
256 260 264 268 272 276 280 284 288
292 296 300 304 308 312 316 320 324
328 332 336 340 344 348 352 356 360
364 368 372 376 380 384 388 392 396
400 404 408 412 416 420 424 428 432
436 440 444 448 452 456 460 464 468
472 476 480 484 488 492 496 500 504
508 512 516 520 524 528 532 536 540
544 548 552 556 560 564 568 572 576
580 584 588 592 596 600 604 608 612
616 620 624 628 632 636 640 644 648
652 656 660 664 668 672 676 680 684
688 692 696 700 704 708 712 716 720
724 728 732 736 740 744 748 752 756
760 764 768 772 776 780 784 788 792
796 800 804 808 812 816 820 824 828
832 836 840 844 848 852 856 860 864
868 872 876 880 884 888 892 896 900
904 908 912 916 920 924 928 932 936
940 944 948 952 956 960 964 968 972
976 980 984 988 992 996 1000 1004 1008
1012 1016 1020 1024 1028 1032 1036 1040 1044
1048 1052 1056 1060 1064 1068 1072 1076 1080
1084 1088 1092 1096 1100 1104 1108 1112 1116
1120 1124 1128 1132 1136 1140 1144 1148 1152
1156 1160 1164 1168 1172 1176 1180 1184 1188
1192 1196 1200 1204 1208 1212 1216 1220 1224
1228 1232 1236 1240 1244 1248 1252 1256 1260
1264 1268 1272 1276 1280 1284 1288 1292 1296
1300 1304 1308 1312 1316 1320 1324 1328 1332
1336 1340 1344 1348 1352 1356 1360 1364 1368
1372 1376 1380 1384 1388 1392 1396 1400 1404
1408 1412 1416 1420 1424 1428 1432 1436 1440
1444 1448 1452 1456 1460 1464 1468 1472 1476
1480 1484 1488 1492 1496 1500 1504 1508 1512
1516 1520 1524 1528 1532 1536 1540 1544 1548
1552 1556 1560 1564 1568 1572 1576 1580 1584
1588 1592 1596 1600 1604 1608 1612 1616 1620
1624 1628 1632 1636 1640 1644 1648 1652 1656
1660 1664 1668 1672 1676 1680 1684 1688 1692
1696 1700 1704 1708 1712 1716 1720 1724 1728
1732 1736 1740 1744 1748 1752 1756 1760 1764
1768 1772 1776 1780 1784 1788 1792 1796 1800
1804 1808 1812 1816 1820 1824 1828 1832 1836
1840 1844 1848 1852 1856 1860 1864 1868 1872
1876 1880 1884 1888 1892 1896 1900 1904 1908
1912 1916 1920 1924 1928 1932 1936 1940 1944
1948 1952 1956 1960 1964 1968 1972 1976 1980
1984 1988 1992 1996 2000 2004 2008 2012 2016
2020 2024 2028 2032 2036 2040 2044 2048 2052
2056 2060 2064 2068 2072 2076 2080
        </DataArray>
      </Polys>
      <CellData>
        <DataArray type='Float32' Name='k' format='ascii'>
0.45513 0.959038 1.63916 2.42143 3.34546 4.28083 5.21143 6.14109 7.032
7.85324 8.58291 9.20835 9.72509 10.1351 10.445 10.664 10.8031 10.8743
10.8932 10.8685 10.808 10.7191 10.608 10.481 10.3427 10.1976 10.0504
9.9042 9.75984 9.61779 9.47848 9.34303 9.2123 9.08693 8.96734 8.8538
8.74643 8.64518 8.54992 8.46043 8.37644 8.29763 8.22368 8.15423 8.08896
8.02753 7.96963 7.91499 7.86336 7.81452 7.76825 7.72437 7.68269 7.64307
7.60535 7.5694 7.53512 7.5024 7.47116 7.44132 7.41282 7.3856 7.35962
7.33483 7.31121 7.28871 7.26731 7.24697 7.22766 7.20934 7.192 7.17558
7.16006 7.1454 7.13157 7.11852 7.10623 7.09466 7.08377 7.07352 7.06387
7.0548 7.04625 7.0382 7.03061 7.02345 7.01669 7.01031 7.00426 6.99854
6.9931 6.98793 6.983 6.9783 6.97379 6.96948 6.96534 6.96135 6.9575
6.95379 6.95019 6.9467 6.94331 6.94002 6.9368 6.93367 6.9306 6.9276
6.92466 6.92177 6.91893 6.91613 6.91338 6.91066 6.90798 6.90534 6.90272
6.90013 6.89756 6.89502 6.8925 6.89001 6.88753 6.88507 6.88263 6.88021
6.8778 6.87541 6.87303 6.87067 6.86831 6.86597 6.86364 6.86132 6.85901
6.8567 6.85441 6.85212 6.84984 6.84756 6.84529 6.84302 6.84075 6.83849
6.83623 6.83397 6.83171 6.82945 6.82719 6.82493 6.82267 6.82042 6.81816
6.81591 6.81366 6.81141 6.80916 6.80692 6.80469 6.80246 6.80023 6.79802
6.7958 6.7936 6.7914 6.7892 6.78702 6.78483 6.78265 6.78048 6.77831
6.77614 6.77397 6.77181 6.76965 6.76749 6.76534 6.76318 6.76102 6.75885
6.75669 6.75452 6.75235 6.75017 6.74798 6.74579 6.74358 6.74137 6.73914
6.7369 6.73466 6.7324 6.73012 6.72784 6.72555 6.72325 6.72095 6.71863
6.71631 6.71398 6.71165 6.70931 6.70697 6.70463 6.70228 6.69993 6.69757
6.69521 6.69283 6.69045 6.68806 6.68566 6.68325 6.68083 6.67839 6.67594
6.67348 6.671 6.66851 6.66601 6.66348 6.66095 6.65839 6.65582 6.65324
6.65063 6.64801 6.64536 6.6427 6.64001 6.6373 6.63456 6.6318 6.62901
6.6262 6.62335 6.62048 6.61759 6.61466 6.61171 6.60873 6.60572 6.60268
6.59961 6.5965 6.59337 6.5902 6.587 6.58376 6.58048 6.57717 6.57382
6.57042 6.56698 6.5635 6.55997 6.55639 6.55276 6.54908 6.54534 6.54155
6.5377 6.53379 6.52982 6.52579 6.5217 6.51753 6.5133 6.50899 6.5046
6.50014 6.49559 6.49096 6.48624 6.48142 6.47651 6.47149 6.46636 6.46113
6.45578 6.45031 6.44471 6.43899 6.43314 6.42715 6.42101 6.41474 6.40831
6.40172 6.39498 6.38806 6.38097 6.37371 6.36625 6.35859 6.35074 6.34266
6.33437 6.32583 6.31706 6.30803 6.29873 6.28915 6.27928 6.2691 6.25861
6.24779 6.23661 6.22508 6.21316 6.20085 6.18812 6.17495 6.16132 6.14721
6.13259 6.11744 6.10172 6.0854 6.06845 6.05084 6.03252 6.01346 5.99361
5.97292 5.95135 5.92883 5.90531 5.88072 5.855 5.82807 5.79984 5.77022
5.73911 5.7064 5.67196 5.63566 5.59734 5.55683 5.51395 5.46848 5.42017
5.36874 5.31388 5.25522 5.19234 5.12475 5.05184 4.97292 4.88714 4.79344
4.69051 4.57674 4.45005 4.30721 4.14207 3.95584 3.72504 3.41909 3.1216
2.92096 2.81186 2.8046 2.86519 2.9579 3.05877 3.17016 3.28481 3.40074
3.52451 3.65357 3.79597 3.95544 4.12839 4.32035 4.53246 4.75932 5.00434
5.26814 5.54397 5.83608 6.14469 6.46226 6.79688 7.14614 7.50139 7.87622
8.26478 8.65879 9.07431 9.50054 9.93291 10.3852 10.8416 11.3076 11.788
12.2639 12.7528 13.2478 13.7316 14.2234 14.7055 15.1759 15.643 16.0833
16.5104 16.9116 17.2735 17.6054 17.8859 18.1193 18.291 18.3881 18.406
18.3371 18.1846 17.9541 17.6123 17.1727 16.6425 16.0395 15.3752 14.6451
13.8661 13.0369 12.1815 11.3197 10.4583 9.62952 8.82171 8.05943 7.33983
6.66556 6.06163 5.50485 5.02105 4.58285 4.18978 3.85139 3.53914 3.28118
3.01772 2.80304 2.62688 2.47136 2.37078 2.2809 2.22412 2.17784 2.13842
2.14672 2.11871 2.11543 2.09871 2.09104 2.09376 2.08526 2.09771 2.10466
2.12806 2.15484 2.19425 2.24263 2.31522 2.42366 2.56566 2.74621 2.98579
3.21209 3.43425 3.64239 3.83693 4.01407 4.17216 4.31236 4.43716 4.54921
4.65053 4.74241 4.82569 4.9011 4.96928 5.0308 5.08615 5.13573 5.17984
5.21868 5.25238 5.281 5.30453 5.32291 5.33614 5.34442 5.34806 5.3475
5.34323 5.33588 5.32604 5.31435 5.30143 5.28797 5.27467 5.26226 5.25144
5.24288 5.23717 5.23483 5.23627 5.24182 5.25173 5.26613 5.28509 5.30849
5.33613 5.36757 5.40275 5.44016 5.48252 5.52289 5.56758
        </DataArray>
        <DataArray type='Float32' Name='nut' format='ascii'>
0 0 0 5.16899e-07 2.71411e-06 4.60486e-06 6.26229e-06 7.75566e-06 9.06945e-06
1.01984e-05 1.11461e-05 1.19223e-05 1.25412e-05 1.3019e-05 1.33729e-05 1.36194e-05 1.37745e-05 1.38534e-05
1.38743e-05 1.38469e-05 1.37799e-05 1.36809e-05 1.35567e-05 1.34136e-05 1.32568e-05 1.30909e-05 1.29213e-05
1.27513e-05 1.25822e-05 1.24143e-05 1.22483e-05 1.20855e-05 1.19271e-05 1.1774e-05 1.16269e-05 1.14861e-05
1.13521e-05 1.12248e-05 1.11043e-05 1.09903e-05 1.08828e-05 1.07813e-05 1.06855e-05 1.05952e-05 1.05099e-05
1.04292e-05 1.03529e-05 1.02805e-05 1.02119e-05 1.01467e-05 1.00848e-05 1.00259e-05 9.96974e-06 9.91619e-06
9.86507e-06 9.81622e-06 9.7695e-06 9.72481e-06 9.68202e-06 9.64106e-06 9.60185e-06 9.56432e-06 9.52843e-06
9.49412e-06 9.46136e-06 9.4301e-06 9.40032e-06 9.37196e-06 9.34499e-06 9.31938e-06 9.29509e-06 9.27207e-06
9.25028e-06 9.22967e-06 9.21021e-06 9.19183e-06 9.1745e-06 9.15817e-06 9.14278e-06 9.12828e-06 9.11463e-06
9.10177e-06 9.08966e-06 9.07824e-06 9.06747e-06 9.05731e-06 9.04771e-06 9.03863e-06 9.03003e-06 9.02188e-06
9.01414e-06 9.00677e-06 8.99975e-06 8.99305e-06 8.98663e-06 8.98048e-06 8.97457e-06 8.96887e-06 8.96338e-06
8.95807e-06 8.95293e-06 8.94795e-06 8.9431e-06 8.93839e-06 8.93379e-06 8.9293e-06 8.92492e-06 8.92062e-06
8.91641e-06 8.91227e-06 8.9082e-06 8.9042e-06 8.90025e-06 8.89636e-06 8.89252e-06 8.88872e-06 8.88496e-06
8.88125e-06 8.87757e-06 8.87392e-06 8.8703e-06 8.86672e-06 8.86316e-06 8.85963e-06 8.85612e-06 8.85264e-06
8.84918e-06 8.84574e-06 8.84232e-06 8.83892e-06 8.83553e-06 8.83216e-06 8.82881e-06 8.82547e-06 8.82214e-06
8.81882e-06 8.81552e-06 8.81222e-06 8.80893e-06 8.80565e-06 8.80237e-06 8.7991e-06 8.79584e-06 8.79257e-06
8.78931e-06 8.78605e-06 8.78279e-06 8.77953e-06 8.77627e-06 8.77301e-06 8.76975e-06 8.76649e-06 8.76323e-06
8.75997e-06 8.75672e-06 8.75347e-06 8.75023e-06 8.74699e-06 8.74375e-06 8.74053e-06 8.73731e-06 8.7341e-06
8.7309e-06 8.7277e-06 8.72452e-06 8.72134e-06 8.71817e-06 8.71501e-06 8.71185e-06 8.7087e-06 8.70555e-06
8.70241e-06 8.69927e-06 8.69614e-06 8.693e-06 8.68987e-06 8.68674e-06 8.68361e-06 8.68047e-06 8.67733e-06
8.67419e-06 8.67104e-06 8.66788e-06 8.66471e-06 8.66154e-06 8.65835e-06 8.65514e-06 8.65192e-06 8.64868e-06
8.64543e-06 8.64216e-06 8.63887e-06 8.63556e-06 8.63224e-06 8.62891e-06 8.62556e-06 8.6222e-06 8.61883e-06
8.61544e-06 8.61205e-06 8.60865e-06 8.60525e-06 8.60183e-06 8.59842e-06 8.59499e-06 8.59156e-06 8.58811e-06
8.58466e-06 8.5812e-06 8.57772e-06 8.57423e-06 8.57072e-06 8.5672e-06 8.56366e-06 8.5601e-06 8.55651e-06
8.55291e-06 8.54929e-06 8.54565e-06 8.54198e-06 8.53829e-06 8.53457e-06 8.53084e-06 8.52707e-06 8.52328e-06
8.51947e-06 8.51562e-06 8.51174e-06 8.50783e-06 8.50389e-06 8.49991e-06 8.49589e-06 8.49184e-06 8.48775e-06
8.48361e-06 8.47944e-06 8.47523e-06 8.47097e-06 8.46667e-06 8.46233e-06 8.45794e-06 8.45351e-06 8.44904e-06
8.44452e-06 8.43995e-06 8.43534e-06 8.43067e-06 8.42595e-06 8.42118e-06 8.41635e-06 8.41147e-06 8.40652e-06
8.40151e-06 8.39643e-06 8.39129e-06 8.38608e-06 8.38079e-06 8.37542e-06 8.36998e-06 8.36445e-06 8.35885e-06
8.35315e-06 8.34737e-06 8.34149e-06 8.33552e-06 8.32945e-06 8.32328e-06 8.317e-06 8.31061e-06 8.3041e-06
8.29747e-06 8.29072e-06 8.28384e-06 8.27682e-06 8.26966e-06 8.26235e-06 8.25488e-06 8.24725e-06 8.23945e-06
8.23147e-06 8.22332e-06 8.21497e-06 8.20643e-06 8.19769e-06 8.18874e-06 8.17957e-06 8.17018e-06 8.16056e-06
8.1507e-06 8.14059e-06 8.13023e-06 8.11959e-06 8.10868e-06 8.09748e-06 8.08598e-06 8.07416e-06 8.062e-06
8.0495e-06 8.03664e-06 8.0234e-06 8.00977e-06 7.99571e-06 7.98122e-06 7.96628e-06 7.95086e-06 7.93495e-06
7.91852e-06 7.90154e-06 7.88399e-06 7.86585e-06 7.84708e-06 7.82765e-06 7.80752e-06 7.78667e-06 7.76505e-06
7.74262e-06 7.71934e-06 7.69515e-06 7.67001e-06 7.64386e-06 7.61663e-06 7.58827e-06 7.5587e-06 7.52786e-06
7.49565e-06 7.46198e-06 7.42678e-06 7.38992e-06 7.35131e-06 7.31081e-06 7.2683e-06 7.22362e-06 7.1766e-06
7.12707e-06 7.07482e-06 7.01963e-06 6.96124e-06 6.89937e-06 6.83371e-06 6.76389e-06 6.68952e-06 6.61012e-06
6.52515e-06 6.43399e-06 6.33592e-06 6.23009e-06 6.11549e-06 5.99093e-06 5.85492e-06 5.70566e-06 5.5409e-06
5.35779e-06 5.15265e-06 4.92076e-06 4.65467e-06 4.34066e-06 3.97809e-06 3.51351e-06 2.87332e-06 2.22149e-06
1.75621e-06 1.48804e-06 1.45224e-06 1.56909e-06 1.75083e-06 1.93851e-06 2.1353e-06 2.32686e-06 2.50727e-06
2.69021e-06 2.87408e-06 3.06887e-06 3.28447e-06 3.51528e-06 3.76104e-06 4.03135e-06 4.31395e-06 4.60412e-06
4.91562e-06 5.22875e-06 5.54546e-06 5.88074e-06 6.20684e-06 6.54172e-06 6.89259e-06 7.22656e-06 7.57805e-06
7.94271e-06 8.28942e-06 8.66102e-06 9.03808e-06 9.40205e-06 9.79323e-06 1.0176e-05 1.05588e-05 1.09637e-05
1.13474e-05 1.17449e-05 1.21522e-05 1.25354e-05 1.29345e-05 1.3322e-05 1.3695e-05 1.40743e-05 1.44235e-05
1.47664e-05 1.5091e-05 1.53804e-05 1.56514e-05 1.58795e-05 1.6072e-05 1.62181e-05 1.63052e-05 1.63324e-05
1.62916e-05 1.61847e-05 1.60146e-05 1.57558e-05 1.5416e-05 1.49973e-05 1.45122e-05 1.39646e-05 1.33495e-05
1.26782e-05 1.19405e-05 1.11605e-05 1.0343e-05 9.49808e-06 8.65433e-06 7.79167e-06 6.94959e-06 6.10978e-06
5.29044e-06 4.52254e-06 3.77461e-06 3.10466e-06 2.46129e-06 1.86578e-06 1.33444e-06 8.19039e-07 3.91406e-07
0 0 0 0 0 0 0 0 0
0 0 0 0 0 0 0 0 0
0 0 0 0 1.43897e-07 4.72208e-07 8.66379e-07 1.33212e-06 1.9067e-06
2.42132e-06 2.90619e-06 3.3443e-06 3.74107e-06 4.09239e-06 4.39848e-06 4.66439e-06 4.89697e-06 5.10258e-06
5.28603e-06 5.45041e-06 5.59782e-06 5.73005e-06 5.84861e-06 5.95479e-06 6.04967e-06 6.13416e-06 6.20895e-06
6.2745e-06 6.33114e-06 6.37909e-06 6.41839e-06 6.44902e-06 6.47104e-06 6.48479e-06 6.49084e-06 6.48991e-06
6.48283e-06 6.47061e-06 6.45424e-06 6.43476e-06 6.41322e-06 6.39074e-06 6.3685e-06 6.34771e-06 6.32956e-06
6.3152e-06 6.30561e-06 6.30167e-06 6.30409e-06 6.31343e-06 6.33006e-06 6.35419e-06 6.38592e-06 6.42499e-06
6.47102e-06 6.52321e-06 6.58139e-06 6.64302e-06 6.71252e-06 6.77807e-06 6.85165e-06
        </DataArray>
        <DataArray type='Float32' Name='omega' format='ascii'>
29300.5 32665.3 36718.1 40884.8 45314.9 49395.3 53145.2 56644.5 59806.2
62579.4 64944 66904.3 68481.5 69707.6 70620.1 71258.1 71660.4 71865.4
71919.9 71848.8 71674.9 71418.1 71096.2 70726.1 70321 69893.5 69457
69020.7 68587.3 68158.1 67734.5 67320.1 66917.7 66529.3 66156.6 65800.8
65462.2 65141.1 64837.4 64550.4 64279.7 64024.3 63783.5 63556.3 63341.8
63139.1 62947.3 62765.6 62593.4 62430 62274.9 62127.5 61987.4 61854
61726.9 61605.9 61490.5 61380.5 61275.6 61175.6 61080.3 60989.5 60903
60820.8 60742.6 60668.3 60597.9 60531.1 60468 60408.2 60351.7 60298.4
60248.2 60200.8 60156.2 60114.2 60074.7 60037.6 60002.7 59969.8 59938.9
59909.9 59882.5 59856.6 59832.3 59809.3 59787.5 59766.9 59747.3 59728.7
59711 59694.1 59678 59662.5 59647.6 59633.3 59619.5 59606.2 59593.2
59580.7 59568.5 59556.7 59545.2 59533.9 59522.9 59512.1 59501.5 59491.1
59480.9 59470.9 59461 59451.2 59441.6 59432.1 59422.7 59413.4 59404.2
59395 59386 59377 59368.1 59359.3 59350.5 59341.8 59333.1 59324.6
59316 59307.5 59299.1 59290.7 59282.3 59274 59265.7 59257.5 59249.2
59241.1 59232.9 59224.7 59216.6 59208.5 59200.4 59192.3 59184.2 59176.1
59168 59160 59151.9 59143.8 59135.8 59127.7 59119.6 59111.6 59103.5
59095.5 59087.5 59079.5 59071.5 59063.5 59055.5 59047.6 59039.7 59031.8
59023.9 59016.1 59008.3 59000.5 58992.7 58985 58977.2 58969.5 58961.8
58954.2 58946.5 58938.8 58931.2 58923.5 58915.9 58908.2 58900.6 58892.9
58885.2 58877.5 58869.8 58862 58854.3 58846.5 58838.6 58830.7 58822.8
58814.9 58806.9 58798.8 58790.7 58782.6 58774.5 58766.3 58758.1 58749.9
58741.7 58733.5 58725.2 58717 58708.7 58700.4 58692.1 58683.8 58675.4
58667.1 58658.7 58650.3 58641.8 58633.3 58624.8 58616.2 58607.6 58599
58590.3 58581.5 58572.7 58563.8 58554.9 58546 58536.9 58527.9 58518.7
58509.5 58500.2 58490.9 58481.5 58471.9 58462.4 58452.7 58442.9 58433
58423.1 58413 58402.9 58392.6 58382.3 58371.8 58361.3 58350.6 58339.9
58329 58318 58307 58295.8 58284.5 58273 58261.4 58249.7 58237.9
58225.9 58213.7 58201.4 58188.9 58176.2 58163.4 58150.4 58137.1 58123.7
58110.1 58096.3 58082.2 58067.9 58053.4 58038.7 58023.7 58008.4 57992.9
57977 57960.9 57944.5 57927.7 57910.6 57893.1 57875.3 57857 57838.4
57819.3 57799.8 57779.9 57759.5 57738.6 57717.2 57695.4 57673 57650
57626.5 57602.4 57577.7 57552.3 57526.3 57499.7 57472.2 57444.1 57415.2
57385.4 57354.8 57323.3 57290.8 57257.4 57222.9 57187.4 57150.7 57112.9
57073.9 57033.6 56991.9 56948.9 56904.3 56858.3 56810.6 56761.2 56710
56656.9 56601.7 56544.5 56485.1 56423.2 56358.9 56291.9 56222.1 56149.4
56073.4 55994.1 55911.2 55824.5 55733.7 55638.6 55538.7 55433.9 55323.7
55207.7 55085.5 54956.5 54820.2 54675.9 54523 54360.7 54187.9 54003.8
53807.1 53596.5 53370.3 53126.7 52863.6 52578.3 52267.7 51927.8 51554
51140.2 50678.6 50159.3 49567.1 48872.7 48075.7 47072.3 45697.4 44306.4
43369.1 42889 42947.8 43370.1 43975.2 44647 45413.1 46214.4 47052.7
47958.6 48897.4 49926.8 51042.2 52213 53502.1 54870 56295.1 57830.6
59412 61044.3 62759 64481.1 66254 68073.8 69875.8 71727.1 73593
75433.8 77321 79192.3 81041.6 82920 84747.8 86565.5 88377.8 90117.3
91847.5 93535.8 95150.4 96735.8 98238.7 99671.9 101042 102312 103507
104608 105600 106484 107246 107878 108378 108715 108874 108836
108595 108159 107532 106641 105500 104123 102540 100778 98802.4
96636.9 94278.4 91741 89116 86380.9 83641 80892.8 78149.5 75487.2
72844.5 70351.3 67965.3 65725.3 63645.2 61643.4 59819.1 58079.7 56497.6
54894.8 53378.2 52042.8 50774.3 49699.5 48721.3 47861.5 47062.5 46296.4
45748.7 45065.4 44472.8 43846.2 43267.5 42756.1 42218.7 41796.1 41396.4
41100.1 40870.1 40734.2 40711.9 40839.7 41227.2 41817.2 42622.9 43755.3
44832.7 45864 46807.9 47670.9 48442.1 49122.5 49719.8 50246.7 50715
51133.4 51507.3 51840.1 52135.2 52395.8 52625.2 52826.3 53002.1 53154.9
53286.6 53398.5 53491.4 53565.4 53620.4 53656.6 53674.8 53675.9 53661.8
53634.5 53596.6 53550.8 53500 53447.1 53394.9 53346.6 53305 53272.7
53252.3 53245.8 53254.6 53280.1 53322.8 53383.3 53461.4 53556.5 53667.2
53792.2 53929.3 54077.8 54232 54401.9 54563.8 54734.3
        </DataArray>
        <DataArray type='Float32' Name='p' format='ascii'>
31.3038 27.3057 25.5969 25.3153 25.1079 24.7874 24.438 24.063 23.7127
23.4116 23.1172 22.7999 22.4586 22.1089 21.7703 21.4567 21.1776 20.9409
20.7296 20.5196 20.3099 20.1031 19.9004 19.7076 19.5229 19.3413 19.1697
19.0077 18.8505 18.6984 18.5543 18.4204 18.298 18.1883 18.0887 17.9943
17.9045 17.8203 17.7423 17.6701 17.6033 17.541 17.4829 17.4282 17.3767
17.328 17.282 17.2386 17.1971 17.1568 17.1172 17.0781 17.0397 17.002
16.9653 16.9295 16.8948 16.8612 16.8288 16.7974 16.7672 16.7381 16.7102
16.6835 16.6579 16.6334 16.6098 16.5871 16.5651 16.5438 16.5231 16.5031
16.4837 16.4648 16.4465 16.4287 16.4114 16.3944 16.3777 16.3614 16.3454
16.3298 16.3145 16.2996 16.2848 16.2703 16.256 16.2418 16.2278 16.2138
16.2 16.1862 16.1725 16.1589 16.1453 16.1318 16.1182 16.1048 16.0913
16.0779 16.0646 16.0513 16.038 16.0248 16.0116 15.9984 15.9853 15.9723
15.9593 15.9464 15.9335 15.9207 15.908 15.8953 15.8827 15.8702 15.8577
15.8453 15.833 15.8207 15.8085 15.7964 15.7843 15.7724 15.7605 15.7487
15.737 15.7254 15.7139 15.7026 15.6913 15.6802 15.6691 15.6582 15.6474
15.6366 15.626 15.6156 15.6052 15.595 15.5848 15.5749 15.5651 15.5554
15.5459 15.5365 15.5273 15.5182 15.5092 15.5004 15.4917 15.4831 15.4748
15.4666 15.4586 15.4508 15.4432 15.4358 15.4286 15.4216 15.4148 15.4082
15.4018 15.3957 15.3898 15.3842 15.3788 15.3737 15.3689 15.3644 15.3601
15.3562 15.3526 15.3492 15.3462 15.3434 15.3409 15.3387 15.3369 15.3354
15.3343 15.3335 15.3331 15.333 15.3332 15.3338 15.3349 15.3367 15.3389
15.3415 15.3445 15.3481 15.352 15.3565 15.3614 15.3668 15.3729 15.3794
15.3866 15.3944 15.4028 15.4119 15.4216 15.432 15.4431 15.4549 15.4675
15.4808 15.4949 15.5098 15.5254 15.542 15.5594 15.5776 15.5968 15.6169
15.638 15.6601 15.6832 15.7074 15.7327 15.7591 15.7867 15.8155 15.8456
15.8769 15.9096 15.9436 15.9789 16.0157 16.0539 16.0936 16.1349 16.1778
16.2223 16.2685 16.3165 16.3663 16.418 16.4716 16.5271 16.5848 16.6445
16.7065 16.7707 16.8373 16.9063 16.9778 17.0519 17.1286 17.208 17.2903
17.3755 17.4637 17.5549 17.6494 17.7471 17.8483 17.9529 18.0613 18.1733
18.2893 18.4093 18.5334 18.6619 18.7948 18.9323 19.0746 19.2218 19.3741
19.5317 19.6948 19.8635 20.0381 20.2188 20.4057 20.5992 20.7993 21.0064
21.2208 21.4426 21.6721 21.9097 22.1556 22.4102 22.6738 22.9467 23.2292
23.5219 23.8249 24.1389 24.4641 24.8011 25.1503 25.5121 25.8872 26.276
26.6791 27.0971 27.5307 27.9804 28.4469 28.9311 29.4336 29.9552 30.4968
31.0593 31.6437 32.2509 32.8819 33.5379 34.2201 34.9296 35.6679 36.4362
37.2361 38.0691 38.937 39.8415 40.7845 41.7681 42.7943 43.8655 44.9842
46.153 47.375 48.6531 49.9907 51.3913 52.8588 54.3973 56.0116 57.7065
59.4875 61.3604 63.3318 65.4083 67.5985 69.9104 72.3543 74.9402 77.6808
80.5888 83.6801 86.9716 90.4827 94.2358 98.2569 102.577 107.231 112.263
117.724 123.676 130.192 137.358 145.347 154.49 163.979 176.455 191.591
201.15 207.724 214.878 219.56 221.433 221.867 221.238 219.176 216.606
213.573 209.329 204.398 197.757 189.312 180.163 169.016 156.69 144.126
129.676 114.839 99.6937 82.6977 65.9927 48.1 28.3473 9.38268 -11.8549
-34.817 -57.0622 -82.345 -108.611 -134.63 -163.839 -192.824 -222.74 -255.266
-286.353 -319.772 -354.542 -387.336 -422.853 -457.406 -491.179 -526.802 -559.496
-592.931 -625.271 -654.359 -683.63 -709.005 -732.472 -753.285 -769.506 -783.307
-792.483 -797.438 -799.224 -795.729 -786.772 -774.343 -757.41 -738.227 -715.363
-688.552 -659.618 -626.792 -594.116 -559.956 -525.184 -491.11 -454.987 -420.282
-384.818 -350.2 -317.609 -285.258 -255.902 -227.361 -200.457 -175.53 -150.897
-128.237 -105.972 -84.7713 -64.7362 -44.8725 -26.2048 -7.69642 9.8663 26.8262
43.4925 59.393 74.5113 88.6696 102.027 114.433 125.951 136.305 145.502
153.715 160.513 166.249 170.381 172.875 173.578 171.363 166.468 157.796
142.189 132.048 123.069 114.201 106.548 99.8934 94.0297 88.698 83.7023
78.9716 74.4971 70.2809 66.2815 62.4483 58.7464 55.1498 51.6473 48.2471
44.9724 41.8516 38.9118 36.1807 33.679 31.4095 29.3569 27.4948 25.7906
24.2139 22.7332 21.3249 19.9735 18.6711 17.4108 16.1906 15.009 13.8655
12.7594 11.6916 10.6645 9.68019 8.73989 7.84364 6.99014 6.17607 5.39618
4.64545 3.91277 3.20589 2.47076 1.85098 0.808472 0.538
        </DataArray>
        <DataArray type='Float32' Name='U' NumberOfComponents='3' format='ascii'>
0 0 0 0 0 0 0 0 0
0 0 0 0 0 0 0 0 0
0 0 0 0 0 0 0 0 0
0 0 0 0 0 0 0 0 0
0 0 0 0 0 0 0 0 0
0 0 0 0 0 0 0 0 0
0 0 0 0 0 0 0 0 0
0 0 0 0 0 0 0 0 0
0 0 0 0 0 0 0 0 0
0 0 0 0 0 0 0 0 0
0 0 0 0 0 0 0 0 0
0 0 0 0 0 0 0 0 0
0 0 0 0 0 0 0 0 0
0 0 0 0 0 0 0 0 0
0 0 0 0 0 0 0 0 0
0 0 0 0 0 0 0 0 0
0 0 0 0 0 0 0 0 0
0 0 0 0 0 0 0 0 0
0 0 0 0 0 0 0 0 0
0 0 0 0 0 0 0 0 0
0 0 0 0 0 0 0 0 0
0 0 0 0 0 0 0 0 0
0 0 0 0 0 0 0 0 0
0 0 0 0 0 0 0 0 0
0 0 0 0 0 0 0 0 0
0 0 0 0 0 0 0 0 0
0 0 0 0 0 0 0 0 0
0 0 0 0 0 0 0 0 0
0 0 0 0 0 0 0 0 0
0 0 0 0 0 0 0 0 0
0 0 0 0 0 0 0 0 0
0 0 0 0 0 0 0 0 0
0 0 0 0 0 0 0 0 0
0 0 0 0 0 0 0 0 0
0 0 0 0 0 0 0 0 0
0 0 0 0 0 0 0 0 0
0 0 0 0 0 0 0 0 0
0 0 0 0 0 0 0 0 0
0 0 0 0 0 0 0 0 0
0 0 0 0 0 0 0 0 0
0 0 0 0 0 0 0 0 0
0 0 0 0 0 0 0 0 0
0 0 0 0 0 0 0 0 0
0 0 0 0 0 0 0 0 0
0 0 0 0 0 0 0 0 0
0 0 0 0 0 0 0 0 0
0 0 0 0 0 0 0 0 0
0 0 0 0 0 0 0 0 0
0 0 0 0 0 0 0 0 0
0 0 0 0 0 0 0 0 0
0 0 0 0 0 0 0 0 0
0 0 0 0 0 0 0 0 0
0 0 0 0 0 0 0 0 0
0 0 0 0 0 0 0 0 0
0 0 0 0 0 0 0 0 0
0 0 0 0 0 0 0 0 0
0 0 0 0 0 0 0 0 0
0 0 0 0 0 0 0 0 0
0 0 0 0 0 0 0 0 0
0 0 0 0 0 0 0 0 0
0 0 0 0 0 0 0 0 0
0 0 0 0 0 0 0 0 0
0 0 0 0 0 0 0 0 0
0 0 0 0 0 0 0 0 0
0 0 0 0 0 0 0 0 0
0 0 0 0 0 0 0 0 0
0 0 0 0 0 0 0 0 0
0 0 0 0 0 0 0 0 0
0 0 0 0 0 0 0 0 0
0 0 0 0 0 0 0 0 0
0 0 0 0 0 0 0 0 0
0 0 0 0 0 0 0 0 0
0 0 0 0 0 0 0 0 0
0 0 0 0 0 0 0 0 0
0 0 0 0 0 0 0 0 0
0 0 0 0 0 0 0 0 0
0 0 0 0 0 0 0 0 0
0 0 0 0 0 0 0 0 0
0 0 0 0 0 0 0 0 0
0 0 0 0 0 0 0 0 0
0 0 0 0 0 0 0 0 0
0 0 0 0 0 0 0 0 0
0 0 0 0 0 0 0 0 0
0 0 0 0 0 0 0 0 0
0 0 0 0 0 0 0 0 0
0 0 0 0 0 0 0 0 0
0 0 0 0 0 0 0 0 0
0 0 0 0 0 0 0 0 0
0 0 0 0 0 0 0 0 0
0 0 0 0 0 0 0 0 0
0 0 0 0 0 0 0 0 0
0 0 0 0 0 0 0 0 0
0 0 0 0 0 0 0 0 0
0 0 0 0 0 0 0 0 0
0 0 0 0 0 0 0 0 0
0 0 0 0 0 0 0 0 0
0 0 0 0 0 0 0 0 0
0 0 0 0 0 0 0 0 0
0 0 0 0 0 0 0 0 0
0 0 0 0 0 0 0 0 0
0 0 0 0 0 0 0 0 0
0 0 0 0 0 0 0 0 0
0 0 0 0 0 0 0 0 0
0 0 0 0 0 0 0 0 0
0 0 0 0 0 0 0 0 0
0 0 0 0 0 0 0 0 0
0 0 0 0 0 0 0 0 0
0 0 0 0 0 0 0 0 0
0 0 0 0 0 0 0 0 0
0 0 0 0 0 0 0 0 0
0 0 0 0 0 0 0 0 0
0 0 0 0 0 0 0 0 0
0 0 0 0 0 0 0 0 0
0 0 0 0 0 0 0 0 0
0 0 0 0 0 0 0 0 0
0 0 0 0 0 0 0 0 0
0 0 0 0 0 0 0 0 0
0 0 0 0 0 0 0 0 0
0 0 0 0 0 0 0 0 0
0 0 0 0 0 0 0 0 0
0 0 0 0 0 0 0 0 0
0 0 0 0 0 0 0 0 0
0 0 0 0 0 0 0 0 0
0 0 0 0 0 0 0 0 0
0 0 0 0 0 0 0 0 0
0 0 0 0 0 0 0 0 0
0 0 0 0 0 0 0 0 0
0 0 0 0 0 0 0 0 0
0 0 0 0 0 0 0 0 0
0 0 0 0 0 0 0 0 0
0 0 0 0 0 0 0 0 0
0 0 0 0 0 0 0 0 0
0 0 0 0 0 0 0 0 0
0 0 0 0 0 0 0 0 0
0 0 0 0 0 0 0 0 0
0 0 0 0 0 0 0 0 0
0 0 0 0 0 0 0 0 0
0 0 0 0 0 0 0 0 0
0 0 0 0 0 0 0 0 0
0 0 0 0 0 0 0 0 0
0 0 0 0 0 0 0 0 0
0 0 0 0 0 0 0 0 0
0 0 0 0 0 0 0 0 0
0 0 0 0 0 0 0 0 0
0 0 0 0 0 0 0 0 0
0 0 0 0 0 0 0 0 0
0 0 0 0 0 0 0 0 0
0 0 0 0 0 0 0 0 0
0 0 0 0 0 0 0 0 0
0 0 0 0 0 0 0 0 0
0 0 0 0 0 0 0 0 0
0 0 0 0 0 0 0 0 0
0 0 0 0 0 0 0 0 0
0 0 0 0 0 0 0 0 0
0 0 0 0 0 0 0 0 0
0 0 0 0 0 0 0 0 0
0 0 0 0 0 0 0 0 0
0 0 0 0 0 0 0 0 0
0 0 0 0 0 0 0 0 0
0 0 0 0 0 0 0 0 0
0 0 0 0 0 0 0 0 0
0 0 0 0 0 0 0 0 0
0 0 0 0 0 0 0 0 0
0 0 0 0 0 0 0 0 0
0 0 0 0 0 0 0 0 0
0 0 0 0 0 0 0 0 0
0 0 0 0 0 0 0 0 0
0 0 0 0 0 0 0 0 0
0 0 0 0 0 0 0 0 0
0 0 0 0 0 0 0 0 0
0 0 0 0 0 0 0 0 0
0 0 0 0 0 0 0 0 0
0 0 0 0 0 0 0 0 0
0 0 0
        </DataArray>
      </CellData>
      <PointData>
        <DataArray type='Float32' Name='k' format='ascii'>
0.45513 0.706907 0.706907 0.45513 1.2989 1.2989 2.03017 2.03017 2.88346
2.88346 3.81331 3.81331 4.74621 4.74621 5.67626 5.67626 6.58654 6.58654
7.44262 7.44262 8.21808 8.21808 8.89563 8.89563 9.46672 9.46672 9.9301
9.9301 10.29 10.29 10.5545 10.5545 10.7336 10.7336 10.8387 10.8387
10.8838 10.8838 10.8809 10.8809 10.8383 10.8383 10.7636 10.7636 10.6636
10.6636 10.5445 10.5445 10.4119 10.4119 10.2702 10.2702 10.124 10.124
9.97731 9.97731 9.83202 9.83202 9.68882 9.68882 9.54814 9.54814 9.41076
9.41076 9.27767 9.27767 9.14962 9.14962 9.02713 9.02713 8.91057 8.91057
8.80012 8.80012 8.69581 8.69581 8.59755 8.59755 8.50518 8.50518 8.41844
8.41844 8.33704 8.33704 8.26066 8.26066 8.18895 8.18895 8.1216 8.1216
8.05824 8.05824 7.99858 7.99858 7.94231 7.94231 7.88918 7.88918 7.83894
7.83894 7.79138 7.79138 7.74631 7.74631 7.70353 7.70353 7.66288 7.66288
7.62421 7.62421 7.58737 7.58737 7.55226 7.55226 7.51876 7.51876 7.48678
7.48678 7.45624 7.45624 7.42707 7.42707 7.39921 7.39921 7.37261 7.37261
7.34723 7.34723 7.32302 7.32302 7.29996 7.29996 7.27801 7.27801 7.25714
7.25714 7.23731 7.23731 7.2185 7.2185 7.20067 7.20067 7.18379 7.18379
7.16782 7.16782 7.15273 7.15273 7.13848 7.13848 7.12505 7.12505 7.11238
7.11238 7.10045 7.10045 7.08922 7.08922 7.07865 7.07865 7.0687 7.0687
7.05934 7.05934 7.05052 7.05052 7.04222 7.04222 7.0344 7.0344 7.02703
7.02703 7.02007 7.02007 7.0135 7.0135 7.00729 7.00729 7.0014 7.0014
6.99582 6.99582 6.99051 6.99051 6.98546 6.98546 6.98065 6.98065 6.97605
6.97605 6.97164 6.97164 6.96741 6.96741 6.96334 6.96334 6.95943 6.95943
6.95565 6.95565 6.95199 6.95199 6.94845 6.94845 6.94501 6.94501 6.94166
6.94166 6.93841 6.93841 6.93523 6.93523 6.93213 6.93213 6.9291 6.9291
6.92613 6.92613 6.92321 6.92321 6.92035 6.92035 6.91753 6.91753 6.91476
6.91476 6.91202 6.91202 6.90932 6.90932 6.90666 6.90666 6.90403 6.90403
6.90142 6.90142 6.89885 6.89885 6.89629 6.89629 6.89376 6.89376 6.89126
6.89126 6.88877 6.88877 6.8863 6.8863 6.88385 6.88385 6.88142 6.88142
6.87901 6.87901 6.87661 6.87661 6.87422 6.87422 6.87185 6.87185 6.86949
6.86949 6.86714 6.86714 6.8648 6.8648 6.86248 6.86248 6.86016 6.86016
6.85785 6.85785 6.85556 6.85556 6.85326 6.85326 6.85098 6.85098 6.8487
6.8487 6.84642 6.84642 6.84415 6.84415 6.84188 6.84188 6.83962 6.83962
6.83736 6.83736 6.8351 6.8351 6.83284 6.83284 6.83058 6.83058 6.82832
6.82832 6.82606 6.82606 6.8238 6.8238 6.82154 6.82154 6.81929 6.81929
6.81703 6.81703 6.81478 6.81478 6.81253 6.81253 6.81029 6.81029 6.80804
6.80804 6.80581 6.80581 6.80357 6.80357 6.80135 6.80135 6.79912 6.79912
6.79691 6.79691 6.7947 6.7947 6.7925 6.7925 6.7903 6.7903 6.78811
6.78811 6.78592 6.78592 6.78374 6.78374 6.78156 6.78156 6.77939 6.77939
6.77722 6.77722 6.77506 6.77506 6.77289 6.77289 6.77073 6.77073 6.76857
6.76857 6.76641 6.76641 6.76426 6.76426 6.7621 6.7621 6.75994 6.75994
6.75777 6.75777 6.75561 6.75561 6.75343 6.75343 6.75126 6.75126 6.74908
6.74908 6.74689 6.74689 6.74469 6.74469 6.74248 6.74248 6.74026 6.74026
6.73802 6.73802 6.73578 6.73578 6.73353 6.73353 6.73126 6.73126 6.72898
6.72898 6.7267 6.7267 6.7244 6.7244 6.7221 6.7221 6.71979 6.71979
6.71747 6.71747 6.71515 6.71515 6.71282 6.71282 6.71048 6.71048 6.70814
6.70814 6.7058 6.7058 6.70346 6.70346 6.70111 6.70111 6.69875 6.69875
6.69639 6.69639 6.69402 6.69402 6.69164 6.69164 6.68926 6.68926 6.68686
6.68686 6.68446 6.68446 6.68204 6.68204 6.67961 6.67961 6.67717 6.67717
6.67471 6.67471 6.67224 6.67224 6.66976 6.66976 6.66726 6.66726 6.66474
6.66474 6.66222 6.66222 6.65967 6.65967 6.65711 6.65711 6.65453 6.65453
6.65194 6.65194 6.64932 6.64932 6.64669 6.64669 6.64403 6.64403 6.64135
6.64135 6.63865 6.63865 6.63593 6.63593 6.63318 6.63318 6.6304 6.6304
6.6276 6.6276 6.62477 6.62477 6.62192 6.62192 6.61904 6.61904 6.61613
6.61613 6.61319 6.61319 6.61022 6.61022 6.60722 6.60722 6.6042 6.6042
6.60114 6.60114 6.59805 6.59805 6.59494 6.59494 6.59178 6.59178 6.5886
6.5886 6.58538 6.58538 6.58212 6.58212 6.57883 6.57883 6.57549 6.57549
6.57212 6.57212 6.5687 6.5687 6.56524 6.56524 6.56173 6.56173 6.55818
6.55818 6.55457 6.55457 6.55092 6.55092 6.54721 6.54721 6.54344 6.54344
6.53962 6.53962 6.53575 6.53575 6.53181 6.53181 6.52781 6.52781 6.52374
6.52374 6.51961 6.51961 6.51541 6.51541 6.51114 6.51114 6.5068 6.5068
6.50237 6.50237 6.49787 6.49787 6.49328 6.49328 6.4886 6.4886 6.48383
6.48383 6.47896 6.47896 6.474 6.474 6.46893 6.46893 6.46375 6.46375
6.45845 6.45845 6.45304 6.45304 6.44751 6.44751 6.44185 6.44185 6.43606
6.43606 6.43014 6.43014 6.42408 6.42408 6.41787 6.41787 6.41152 6.41152
6.40501 6.40501 6.39835 6.39835 6.39152 6.39152 6.38452 6.38452 6.37734
6.37734 6.36998 6.36998 6.36242 6.36242 6.35466 6.35466 6.3467 6.3467
6.33851 6.33851 6.3301 6.3301 6.32145 6.32145 6.31254 6.31254 6.30338
6.30338 6.29394 6.29394 6.28421 6.28421 6.27419 6.27419 6.26386 6.26386
6.2532 6.2532 6.2422 6.2422 6.23085 6.23085 6.21912 6.21912 6.20701
6.20701 6.19449 6.19449 6.18154 6.18154 6.16814 6.16814 6.15427 6.15427
6.1399 6.1399 6.12502 6.12502 6.10958 6.10958 6.09356 6.09356 6.07693
6.07693 6.05965 6.05965 6.04168 6.04168 6.02299 6.02299 6.00354 6.00354
5.98327 5.98327 5.96213 5.96213 5.94009 5.94009 5.91707 5.91707 5.89302
5.89302 5.86786 5.86786 5.84154 5.84154 5.81396 5.81396 5.78503 5.78503
5.75467 5.75467 5.72276 5.72276 5.68918 5.68918 5.65381 5.65381 5.6165
5.6165 5.57709 5.57709 5.53539 5.53539 5.49121 5.49121 5.44432 5.44432
5.39445 5.39445 5.34131 5.34131 5.28455 5.28455 5.22378 5.22378 5.15855
5.15855 5.0883 5.0883 5.01238 5.01238 4.93003 4.93003 4.84029 4.84029
4.74198 4.74198 4.63363 4.63363 4.51339 4.51339 4.37863 4.37863 4.22464
4.22464 4.04896 4.04896 3.84044 3.84044 3.57207 3.57207 3.27035 3.27035
3.02128 3.02128 2.86641 2.86641 2.80823 2.80823 2.8349 2.8349 2.91154
2.91154 3.00834 3.00834 3.11446 3.11446 3.22748 3.22748 3.34278 3.34278
3.46262 3.46262 3.58904 3.58904 3.72477 3.72477 3.8757 3.8757 4.04192
4.04192 4.22437 4.22437 4.4264 4.4264 4.64589 4.64589 4.88182 4.88182
5.13623 5.13623 5.40606 5.40606 5.69001 5.69001 5.99038 5.99038 6.30348
6.30348 6.62956 6.62956 6.97151 6.97151 7.32376 7.32376 7.6888 7.6888
8.0705 8.0705 8.46178 8.46178 8.86654 8.86654 9.28741 9.28741 9.71672
9.71672 10.1591 10.1591 10.6134 10.6134 11.0746 11.0746 11.5478 11.5478
12.026 12.026 12.5084 12.5084 13.0003 13.0003 13.4897 13.4897 13.9775
13.9775 14.4644 14.4644 14.9407 14.9407 15.4094 15.4094 15.8631 15.8631
16.2968 16.2968 16.7109 16.7109 17.0926 17.0926 17.4395 17.4395 17.7456
17.7456 18.0026 18.0026 18.2051 18.2051 18.3395 18.3395 18.397 18.397
18.3716 18.3716 18.2609 18.2609 18.0693 18.0693 17.7832 17.7832 17.3925
17.3925 16.9076 16.9076 16.341 16.341 15.7074 15.7074 15.0102 15.0102
14.2556 14.2556 13.4515 13.4515 12.6092 12.6092 11.7506 11.7506 10.8891
10.8891 10.0439 10.0439 9.22565 9.22565 8.44059 8.44059 7.69963 7.69963
7.00274 7.00274 6.36358 6.36358 5.78327 5.78327 5.26296 5.26296 4.80196
4.80196 4.38634 4.38634 4.02058 4.02058 3.69527 3.69527 3.41016 3.41016
3.14945 3.14945 2.91039 2.91039 2.71497 2.71497 2.54913 2.54913 2.42107
2.42107 2.32584 2.32584 2.25251 2.25251 2.20098 2.20098 2.15813 2.15813
2.14257 2.14257 2.13271 2.13271 2.11707 2.11707 2.10707 2.10707 2.09488
2.09488 2.0924 2.0924 2.08951 2.08951 2.09149 2.09149 2.10119 2.10119
2.11636 2.11636 2.14145 2.14145 2.17454 2.17454 2.21843 2.21843 2.27892
2.27892 2.36943 2.36943 2.49466 2.49466 2.65593 2.65593 2.86599 2.86599
3.09893 3.09893 3.32316 3.32316 3.53831 3.53831 3.73965 3.73965 3.9255
3.9255 4.09311 4.09311 4.24225 4.24225 4.37476 4.37476 4.49318 4.49318
4.59987 4.59987 4.69647 4.69647 4.78405 4.78405 4.86339 4.86339 4.93519
4.93519 5.00004 5.00004 5.05847 5.05847 5.11093 5.11093 5.15778 5.15778
5.19926 5.19926 5.23553 5.23553 5.26669 5.26669 5.29276 5.29276 5.31372
5.31372 5.32952 5.32952 5.34028 5.34028 5.34624 5.34624 5.34778 5.34778
5.34537 5.34537 5.33956 5.33956 5.33096 5.33096 5.3202 5.3202 5.30789
5.30789 5.2947 5.2947 5.28132 5.28132 5.26847 5.26847 5.25685 5.25685
5.24716 5.24716 5.24003 5.24003 5.236 5.236 5.23555 5.23555 5.23905
5.23905 5.24678 5.24678 5.25893 5.25893 5.27561 5.27561 5.29679 5.29679
5.32231 5.32231 5.35185 5.35185 5.38516 5.38516 5.42145 5.42145 5.46133
5.46133 5.50263 5.50263 5.54539 5.54539 5.56758 5.56758
        </DataArray>
        <DataArray type='Float32' Name='nut' format='ascii'>
0 0 0 0 0 0 2.58367e-07 2.58367e-07 1.61553e-06
1.61553e-06 3.65983e-06 3.65983e-06 5.43372e-06 5.43372e-06 7.00897e-06 7.00897e-06 8.41255e-06 8.41255e-06
9.63393e-06 9.63393e-06 1.06723e-05 1.06723e-05 1.15342e-05 1.15342e-05 1.22318e-05 1.22318e-05 1.27801e-05
1.27801e-05 1.3196e-05 1.3196e-05 1.34961e-05 1.34961e-05 1.36969e-05 1.36969e-05 1.38139e-05 1.38139e-05
1.38639e-05 1.38639e-05 1.38606e-05 1.38606e-05 1.38134e-05 1.38134e-05 1.37304e-05 1.37304e-05 1.36188e-05
1.36188e-05 1.34852e-05 1.34852e-05 1.33352e-05 1.33352e-05 1.31738e-05 1.31738e-05 1.30061e-05 1.30061e-05
1.28363e-05 1.28363e-05 1.26667e-05 1.26667e-05 1.24982e-05 1.24982e-05 1.23313e-05 1.23313e-05 1.21669e-05
1.21669e-05 1.20063e-05 1.20063e-05 1.18506e-05 1.18506e-05 1.17005e-05 1.17005e-05 1.15565e-05 1.15565e-05
1.14191e-05 1.14191e-05 1.12884e-05 1.12884e-05 1.11645e-05 1.11645e-05 1.10473e-05 1.10473e-05 1.09365e-05
1.09365e-05 1.0832e-05 1.0832e-05 1.07334e-05 1.07334e-05 1.06404e-05 1.06404e-05 1.05525e-05 1.05525e-05
1.04695e-05 1.04695e-05 1.0391e-05 1.0391e-05 1.03167e-05 1.03167e-05 1.02462e-05 1.02462e-05 1.01793e-05
1.01793e-05 1.01158e-05 1.01158e-05 1.00553e-05 1.00553e-05 9.99781e-06 9.99781e-06 9.94296e-06 9.94296e-06
9.89063e-06 9.89063e-06 9.84064e-06 9.84064e-06 9.79286e-06 9.79286e-06 9.74715e-06 9.74715e-06 9.70342e-06
9.70342e-06 9.66154e-06 9.66154e-06 9.62146e-06 9.62146e-06 9.58309e-06 9.58309e-06 9.54638e-06 9.54638e-06
9.51127e-06 9.51127e-06 9.47774e-06 9.47774e-06 9.44573e-06 9.44573e-06 9.41521e-06 9.41521e-06 9.38614e-06
9.38614e-06 9.35848e-06 9.35848e-06 9.33219e-06 9.33219e-06 9.30724e-06 9.30724e-06 9.28358e-06 9.28358e-06
9.26117e-06 9.26117e-06 9.23998e-06 9.23998e-06 9.21994e-06 9.21994e-06 9.20102e-06 9.20102e-06 9.18317e-06
9.18317e-06 9.16633e-06 9.16633e-06 9.15047e-06 9.15047e-06 9.13553e-06 9.13553e-06 9.12146e-06 9.12146e-06
9.1082e-06 9.1082e-06 9.09572e-06 9.09572e-06 9.08395e-06 9.08395e-06 9.07286e-06 9.07286e-06 9.06239e-06
9.06239e-06 9.05251e-06 9.05251e-06 9.04317e-06 9.04317e-06 9.03433e-06 9.03433e-06 9.02596e-06 9.02596e-06
9.01801e-06 9.01801e-06 9.01046e-06 9.01046e-06 9.00326e-06 9.00326e-06 8.9964e-06 8.9964e-06 8.98984e-06
8.98984e-06 8.98355e-06 8.98355e-06 8.97752e-06 8.97752e-06 8.97172e-06 8.97172e-06 8.96613e-06 8.96613e-06
8.96073e-06 8.96073e-06 8.9555e-06 8.9555e-06 8.95044e-06 8.95044e-06 8.94553e-06 8.94553e-06 8.94075e-06
8.94075e-06 8.93609e-06 8.93609e-06 8.93155e-06 8.93155e-06 8.92711e-06 8.92711e-06 8.92277e-06 8.92277e-06
8.91851e-06 8.91851e-06 8.91434e-06 8.91434e-06 8.91024e-06 8.91024e-06 8.9062e-06 8.9062e-06 8.90222e-06
8.90222e-06 8.89831e-06 8.89831e-06 8.89444e-06 8.89444e-06 8.89062e-06 8.89062e-06 8.88684e-06 8.88684e-06
8.8831e-06 8.8831e-06 8.87941e-06 8.87941e-06 8.87574e-06 8.87574e-06 8.87211e-06 8.87211e-06 8.86851e-06
8.86851e-06 8.86494e-06 8.86494e-06 8.8614e-06 8.8614e-06 8.85788e-06 8.85788e-06 8.85438e-06 8.85438e-06
8.85091e-06 8.85091e-06 8.84746e-06 8.84746e-06 8.84403e-06 8.84403e-06 8.84062e-06 8.84062e-06 8.83723e-06
8.83723e-06 8.83385e-06 8.83385e-06 8.83049e-06 8.83049e-06 8.82714e-06 8.82714e-06 8.8238e-06 8.8238e-06
8.82048e-06 8.82048e-06 8.81717e-06 8.81717e-06 8.81387e-06 8.81387e-06 8.81058e-06 8.81058e-06 8.80729e-06
8.80729e-06 8.80401e-06 8.80401e-06 8.80074e-06 8.80074e-06 8.79747e-06 8.79747e-06 8.7942e-06 8.7942e-06
8.79094e-06 8.79094e-06 8.78768e-06 8.78768e-06 8.78442e-06 8.78442e-06 8.78116e-06 8.78116e-06 8.7779e-06
8.7779e-06 8.77464e-06 8.77464e-06 8.77138e-06 8.77138e-06 8.76812e-06 8.76812e-06 8.76486e-06 8.76486e-06
8.7616e-06 8.7616e-06 8.75835e-06 8.75835e-06 8.7551e-06 8.7551e-06 8.75185e-06 8.75185e-06 8.74861e-06
8.74861e-06 8.74537e-06 8.74537e-06 8.74214e-06 8.74214e-06 8.73892e-06 8.73892e-06 8.7357e-06 8.7357e-06
8.7325e-06 8.7325e-06 8.7293e-06 8.7293e-06 8.72611e-06 8.72611e-06 8.72293e-06 8.72293e-06 8.71976e-06
8.71976e-06 8.71659e-06 8.71659e-06 8.71343e-06 8.71343e-06 8.71027e-06 8.71027e-06 8.70713e-06 8.70713e-06
8.70398e-06 8.70398e-06 8.70084e-06 8.70084e-06 8.6977e-06 8.6977e-06 8.69457e-06 8.69457e-06 8.69144e-06
8.69144e-06 8.6883e-06 8.6883e-06 8.68517e-06 8.68517e-06 8.68204e-06 8.68204e-06 8.6789e-06 8.6789e-06
8.67576e-06 8.67576e-06 8.67261e-06 8.67261e-06 8.66946e-06 8.66946e-06 8.6663e-06 8.6663e-06 8.66313e-06
8.66313e-06 8.65994e-06 8.65994e-06 8.65675e-06 8.65675e-06 8.65353e-06 8.65353e-06 8.6503e-06 8.6503e-06
8.64706e-06 8.64706e-06 8.64379e-06 8.64379e-06 8.64051e-06 8.64051e-06 8.63722e-06 8.63722e-06 8.6339e-06
8.6339e-06 8.63058e-06 8.63058e-06 8.62723e-06 8.62723e-06 8.62388e-06 8.62388e-06 8.62051e-06 8.62051e-06
8.61714e-06 8.61714e-06 8.61375e-06 8.61375e-06 8.61035e-06 8.61035e-06 8.60695e-06 8.60695e-06 8.60354e-06
8.60354e-06 8.60013e-06 8.60013e-06 8.5967e-06 8.5967e-06 8.59327e-06 8.59327e-06 8.58984e-06 8.58984e-06
8.58639e-06 8.58639e-06 8.58293e-06 8.58293e-06 8.57946e-06 8.57946e-06 8.57598e-06 8.57598e-06 8.57248e-06
8.57248e-06 8.56896e-06 8.56896e-06 8.56543e-06 8.56543e-06 8.56188e-06 8.56188e-06 8.55831e-06 8.55831e-06
8.55471e-06 8.55471e-06 8.5511e-06 8.5511e-06 8.54747e-06 8.54747e-06 8.54381e-06 8.54381e-06 8.54013e-06
8.54013e-06 8.53643e-06 8.53643e-06 8.5327e-06 8.5327e-06 8.52895e-06 8.52895e-06 8.52518e-06 8.52518e-06
8.52137e-06 8.52137e-06 8.51754e-06 8.51754e-06 8.51368e-06 8.51368e-06 8.50979e-06 8.50979e-06 8.50586e-06
8.50586e-06 8.5019e-06 8.5019e-06 8.4979e-06 8.4979e-06 8.49387e-06 8.49387e-06 8.48979e-06 8.48979e-06
8.48568e-06 8.48568e-06 8.48153e-06 8.48153e-06 8.47733e-06 8.47733e-06 8.4731e-06 8.4731e-06 8.46882e-06
8.46882e-06 8.4645e-06 8.4645e-06 8.46014e-06 8.46014e-06 8.45573e-06 8.45573e-06 8.45128e-06 8.45128e-06
8.44678e-06 8.44678e-06 8.44224e-06 8.44224e-06 8.43765e-06 8.43765e-06 8.433e-06 8.433e-06 8.42831e-06
8.42831e-06 8.42357e-06 8.42357e-06 8.41877e-06 8.41877e-06 8.41391e-06 8.41391e-06 8.40899e-06 8.40899e-06
8.40401e-06 8.40401e-06 8.39897e-06 8.39897e-06 8.39386e-06 8.39386e-06 8.38868e-06 8.38868e-06 8.38343e-06
8.38343e-06 8.3781e-06 8.3781e-06 8.3727e-06 8.3727e-06 8.36722e-06 8.36722e-06 8.36165e-06 8.36165e-06
8.356e-06 8.356e-06 8.35026e-06 8.35026e-06 8.34443e-06 8.34443e-06 8.33851e-06 8.33851e-06 8.33249e-06
8.33249e-06 8.32636e-06 8.32636e-06 8.32014e-06 8.32014e-06 8.3138e-06 8.3138e-06 8.30735e-06 8.30735e-06
8.30079e-06 8.30079e-06 8.2941e-06 8.2941e-06 8.28728e-06 8.28728e-06 8.28033e-06 8.28033e-06 8.27324e-06
8.27324e-06 8.266e-06 8.266e-06 8.25861e-06 8.25861e-06 8.25106e-06 8.25106e-06 8.24335e-06 8.24335e-06
8.23546e-06 8.23546e-06 8.22739e-06 8.22739e-06 8.21914e-06 8.21914e-06 8.2107e-06 8.2107e-06 8.20206e-06
8.20206e-06 8.19321e-06 8.19321e-06 8.18416e-06 8.18416e-06 8.17488e-06 8.17488e-06 8.16537e-06 8.16537e-06
8.15563e-06 8.15563e-06 8.14565e-06 8.14565e-06 8.13541e-06 8.13541e-06 8.12491e-06 8.12491e-06 8.11414e-06
8.11414e-06 8.10308e-06 8.10308e-06 8.09173e-06 8.09173e-06 8.08007e-06 8.08007e-06 8.06808e-06 8.06808e-06
8.05575e-06 8.05575e-06 8.04307e-06 8.04307e-06 8.03002e-06 8.03002e-06 8.01658e-06 8.01658e-06 8.00274e-06
8.00274e-06 7.98847e-06 7.98847e-06 7.97375e-06 7.97375e-06 7.95857e-06 7.95857e-06 7.94291e-06 7.94291e-06
7.92673e-06 7.92673e-06 7.91003e-06 7.91003e-06 7.89277e-06 7.89277e-06 7.87492e-06 7.87492e-06 7.85646e-06
7.85646e-06 7.83736e-06 7.83736e-06 7.81758e-06 7.81758e-06 7.7971e-06 7.7971e-06 7.77586e-06 7.77586e-06
7.75384e-06 7.75384e-06 7.73098e-06 7.73098e-06 7.70724e-06 7.70724e-06 7.68258e-06 7.68258e-06 7.65693e-06
7.65693e-06 7.63025e-06 7.63025e-06 7.60245e-06 7.60245e-06 7.57349e-06 7.57349e-06 7.54328e-06 7.54328e-06
7.51175e-06 7.51175e-06 7.47882e-06 7.47882e-06 7.44438e-06 7.44438e-06 7.40835e-06 7.40835e-06 7.37062e-06
7.37062e-06 7.33106e-06 7.33106e-06 7.28956e-06 7.28956e-06 7.24596e-06 7.24596e-06 7.20011e-06 7.20011e-06
7.15183e-06 7.15183e-06 7.10094e-06 7.10094e-06 7.04722e-06 7.04722e-06 6.99043e-06 6.99043e-06 6.93031e-06
6.93031e-06 6.86654e-06 6.86654e-06 6.7988e-06 6.7988e-06 6.72671e-06 6.72671e-06 6.64982e-06 6.64982e-06
6.56763e-06 6.56763e-06 6.47957e-06 6.47957e-06 6.38495e-06 6.38495e-06 6.283e-06 6.283e-06 6.17279e-06
6.17279e-06 6.05321e-06 6.05321e-06 5.92293e-06 5.92293e-06 5.78029e-06 5.78029e-06 5.62329e-06 5.62329e-06
5.44935e-06 5.44935e-06 5.25522e-06 5.25522e-06 5.03671e-06 5.03671e-06 4.78772e-06 4.78772e-06 4.49767e-06
4.49767e-06 4.15938e-06 4.15938e-06 3.7458e-06 3.7458e-06 3.19343e-06 3.19343e-06 2.54742e-06 2.54742e-06
1.98886e-06 1.98886e-06 1.62213e-06 1.62213e-06 1.47014e-06 1.47014e-06 1.51066e-06 1.51066e-06 1.65996e-06
1.65996e-06 1.84467e-06 1.84467e-06 2.0369e-06 2.0369e-06 2.23107e-06 2.23107e-06 2.41707e-06 2.41707e-06
2.59873e-06 2.59873e-06 2.78214e-06 2.78214e-06 2.97148e-06 2.97148e-06 3.17666e-06 3.17666e-06 3.39987e-06
3.39987e-06 3.63816e-06 3.63816e-06 3.89618e-06 3.89618e-06 4.17266e-06 4.17266e-06 4.45903e-06 4.45903e-06
4.75985e-06 4.75985e-06 5.07219e-06 5.07219e-06 5.38709e-06 5.38709e-06 5.71309e-06 5.71309e-06 6.04379e-06
6.04379e-06 6.37427e-06 6.37427e-06 6.71715e-06 6.71715e-06 7.05957e-06 7.05957e-06 7.40229e-06 7.40229e-06
7.76037e-06 7.76037e-06 8.11606e-06 8.11606e-06 8.47521e-06 8.47521e-06 8.84954e-06 8.84954e-06 9.22006e-06
9.22006e-06 9.59764e-06 9.59764e-06 9.98459e-06 9.98459e-06 1.03674e-05 1.03674e-05 1.07612e-05 1.07612e-05
1.11555e-05 1.11555e-05 1.15461e-05 1.15461e-05 1.19486e-05 1.19486e-05 1.23438e-05 1.23438e-05 1.27349e-05
1.27349e-05 1.31282e-05 1.31282e-05 1.35085e-05 1.35085e-05 1.38847e-05 1.38847e-05 1.42489e-05 1.42489e-05
1.45949e-05 1.45949e-05 1.49287e-05 1.49287e-05 1.52357e-05 1.52357e-05 1.55159e-05 1.55159e-05 1.57654e-05
1.57654e-05 1.59758e-05 1.59758e-05 1.61451e-05 1.61451e-05 1.62617e-05 1.62617e-05 1.63188e-05 1.63188e-05
1.6312e-05 1.6312e-05 1.62382e-05 1.62382e-05 1.60997e-05 1.60997e-05 1.58852e-05 1.58852e-05 1.55859e-05
1.55859e-05 1.52067e-05 1.52067e-05 1.47548e-05 1.47548e-05 1.42384e-05 1.42384e-05 1.36571e-05 1.36571e-05
1.30139e-05 1.30139e-05 1.23094e-05 1.23094e-05 1.15505e-05 1.15505e-05 1.07518e-05 1.07518e-05 9.92061e-06
9.92061e-06 9.07619e-06 9.07619e-06 8.22304e-06 8.22304e-06 7.37066e-06 7.37066e-06 6.52968e-06 6.52968e-06
5.70016e-06 5.70016e-06 4.90648e-06 4.90648e-06 4.14861e-06 4.14861e-06 3.43965e-06 3.43965e-06 2.78298e-06
2.78298e-06 2.16356e-06 2.16356e-06 1.60011e-06 1.60011e-06 1.07676e-06 1.07676e-06 6.05232e-07 6.05232e-07
1.95711e-07 1.95711e-07 0 0 0 0 0 0 0
0 0 0 0 0 0 0 0 0
0 0 0 0 0 0 0 0 0
0 0 0 0 0 0 0 0 0
0 0 0 0 0 0 0 0 7.19499e-08
7.19499e-08 3.08037e-07 3.08037e-07 6.69288e-07 6.69288e-07 1.09924e-06 1.09924e-06 1.61939e-06 1.61939e-06
2.16399e-06 2.16399e-06 2.66374e-06 2.66374e-06 3.12523e-06 3.12523e-06 3.54268e-06 3.54268e-06 3.91672e-06
3.91672e-06 4.24542e-06 4.24542e-06 4.53143e-06 4.53143e-06 4.78068e-06 4.78068e-06 4.99977e-06 4.99977e-06
5.1943e-06 5.1943e-06 5.36821e-06 5.36821e-06 5.52411e-06 5.52411e-06 5.66393e-06 5.66393e-06 5.78933e-06
5.78933e-06 5.9017e-06 5.9017e-06 6.00222e-06 6.00222e-06 6.09191e-06 6.09191e-06 6.17156e-06 6.17156e-06
6.24172e-06 6.24172e-06 6.30282e-06 6.30282e-06 6.35511e-06 6.35511e-06 6.39874e-06 6.39874e-06 6.4337e-06
6.4337e-06 6.46003e-06 6.46003e-06 6.47792e-06 6.47792e-06 6.48782e-06 6.48782e-06 6.49038e-06 6.49038e-06
6.48637e-06 6.48637e-06 6.47672e-06 6.47672e-06 6.46242e-06 6.46242e-06 6.4445e-06 6.4445e-06 6.42399e-06
6.42399e-06 6.40198e-06 6.40198e-06 6.37962e-06 6.37962e-06 6.35811e-06 6.35811e-06 6.33864e-06 6.33864e-06
6.32238e-06 6.32238e-06 6.3104e-06 6.3104e-06 6.30364e-06 6.30364e-06 6.30288e-06 6.30288e-06 6.30876e-06
6.30876e-06 6.32174e-06 6.32174e-06 6.34213e-06 6.34213e-06 6.37006e-06 6.37006e-06 6.40546e-06 6.40546e-06
6.44801e-06 6.44801e-06 6.49711e-06 6.49711e-06 6.5523e-06 6.5523e-06 6.6122e-06 6.6122e-06 6.67777e-06
6.67777e-06 6.74517e-06 6.74517e-06 6.81512e-06 6.81512e-06 6.85165e-06 6.85165e-06
        </DataArray>
        <DataArray type='Float32' Name='omega' format='ascii'>
29300.5 30981.7 30981.7 29300.5 34690.5 34690.5 38800.7 38800.7 43099.9
43099.9 47355.8 47355.8 51270.6 51270.6 54894.8 54894.8 58225.4 58225.4
61192.8 61192.8 63761.7 63761.7 65924.1 65924.1 67692.9 67692.9 69094.5
69094.5 70163.9 70163.9 70939.1 70939.1 71459.2 71459.2 71762.9 71762.9
71892.6 71892.6 71884.3 71884.3 71761.9 71761.9 71546.5 71546.5 71257.2
71257.2 70911.1 70911.1 70523.6 70523.6 70107.3 70107.3 69675.3 69675.3
69238.9 69238.9 68804 68804 68372.7 68372.7 67946.3 67946.3 67527.3
67527.3 67118.9 67118.9 66723.5 66723.5 66343 66343 65978.7 65978.7
65631.5 65631.5 65301.7 65301.7 64989.2 64989.2 64693.9 64693.9 64415
64415 64152 64152 63903.9 63903.9 63669.9 63669.9 63449 63449
63240.4 63240.4 63043.2 63043.2 62856.4 62856.4 62679.5 62679.5 62511.7
62511.7 62352.5 62352.5 62201.2 62201.2 62057.4 62057.4 61920.7 61920.7
61790.4 61790.4 61666.4 61666.4 61548.2 61548.2 61435.5 61435.5 61328
61328 61225.6 61225.6 61127.9 61127.9 61034.9 61034.9 60946.2 60946.2
60861.9 60861.9 60781.7 60781.7 60705.4 60705.4 60633.1 60633.1 60564.5
60564.5 60499.6 60499.6 60438.1 60438.1 60380 60380 60325.1 60325.1
60273.3 60273.3 60224.5 60224.5 60178.5 60178.5 60135.2 60135.2 60094.5
60094.5 60056.2 60056.2 60020.1 60020.1 59986.2 59986.2 59954.4 59954.4
59924.4 59924.4 59896.2 59896.2 59869.6 59869.6 59844.5 59844.5 59820.8
59820.8 59798.4 59798.4 59777.2 59777.2 59757.1 59757.1 59738 59738
59719.9 59719.9 59702.6 59702.6 59686.1 59686.1 59670.2 59670.2 59655
59655 59640.5 59640.5 59626.4 59626.4 59612.8 59612.8 59599.7 59599.7
59587 59587 59574.6 59574.6 59562.6 59562.6 59550.9 59550.9 59539.5
59539.5 59528.4 59528.4 59517.5 59517.5 59506.8 59506.8 59496.3 59496.3
59486 59486 59475.9 59475.9 59465.9 59465.9 59456.1 59456.1 59446.4
59446.4 59436.8 59436.8 59427.4 59427.4 59418 59418 59408.8 59408.8
59399.6 59399.6 59390.5 59390.5 59381.5 59381.5 59372.5 59372.5 59363.7
59363.7 59354.9 59354.9 59346.1 59346.1 59337.5 59337.5 59328.9 59328.9
59320.3 59320.3 59311.8 59311.8 59303.3 59303.3 59294.9 59294.9 59286.5
59286.5 59278.2 59278.2 59269.9 59269.9 59261.6 59261.6 59253.4 59253.4
59245.1 59245.1 59237 59237 59228.8 59228.8 59220.7 59220.7 59212.5
59212.5 59204.4 59204.4 59196.3 59196.3 59188.2 59188.2 59180.2 59180.2
59172.1 59172.1 59164 59164 59155.9 59155.9 59147.9 59147.9 59139.8
59139.8 59131.7 59131.7 59123.7 59123.7 59115.6 59115.6 59107.5 59107.5
59099.5 59099.5 59091.5 59091.5 59083.5 59083.5 59075.5 59075.5 59067.5
59067.5 59059.5 59059.5 59051.6 59051.6 59043.6 59043.6 59035.7 59035.7
59027.9 59027.9 59020 59020 59012.2 59012.2 59004.4 59004.4 58996.6
58996.6 58988.9 58988.9 58981.1 58981.1 58973.4 58973.4 58965.7 58965.7
58958 58958 58950.3 58950.3 58942.6 58942.6 58935 58935 58927.3
58927.3 58919.7 58919.7 58912 58912 58904.4 58904.4 58896.7 58896.7
58889 58889 58881.4 58881.4 58873.6 58873.6 58865.9 58865.9 58858.2
58858.2 58850.4 58850.4 58842.6 58842.6 58834.7 58834.7 58826.8 58826.8
58818.8 58818.8 58810.9 58810.9 58802.8 58802.8 58794.8 58794.8 58786.7
58786.7 58778.6 58778.6 58770.4 58770.4 58762.2 58762.2 58754 58754
58745.8 58745.8 58737.6 58737.6 58729.3 58729.3 58721.1 58721.1 58712.8
58712.8 58704.5 58704.5 58696.2 58696.2 58687.9 58687.9 58679.6 58679.6
58671.3 58671.3 58662.9 58662.9 58654.5 58654.5 58646.1 58646.1 58637.6
58637.6 58629.1 58629.1 58620.5 58620.5 58611.9 58611.9 58603.3 58603.3
58594.6 58594.6 58585.9 58585.9 58577.1 58577.1 58568.3 58568.3 58559.4
58559.4 58550.4 58550.4 58541.5 58541.5 58532.4 58532.4 58523.3 58523.3
58514.1 58514.1 58504.9 58504.9 58495.6 58495.6 58486.2 58486.2 58476.7
58476.7 58467.1 58467.1 58457.5 58457.5 58447.8 58447.8 58438 58438
58428 58428 58418 58418 58407.9 58407.9 58397.7 58397.7 58387.4
58387.4 58377 58377 58366.5 58366.5 58355.9 58355.9 58345.2 58345.2
58334.4 58334.4 58323.5 58323.5 58312.5 58312.5 58301.4 58301.4 58290.1
58290.1 58278.7 58278.7 58267.2 58267.2 58255.6 58255.6 58243.8 58243.8
58231.9 58231.9 58219.8 58219.8 58207.5 58207.5 58195.1 58195.1 58182.6
58182.6 58169.8 58169.8 58156.9 58156.9 58143.7 58143.7 58130.4 58130.4
58116.9 58116.9 58103.2 58103.2 58089.2 58089.2 58075.1 58075.1 58060.7
58060.7 58046.1 58046.1 58031.2 58031.2 58016 58016 58000.6 58000.6
57984.9 57984.9 57969 57969 57952.7 57952.7 57936.1 57936.1 57919.1
57919.1 57901.8 57901.8 57884.2 57884.2 57866.1 57866.1 57847.7 57847.7
57828.8 57828.8 57809.6 57809.6 57789.9 57789.9 57769.7 57769.7 57749.1
57749.1 57727.9 57727.9 57706.3 57706.3 57684.2 57684.2 57661.5 57661.5
57638.2 57638.2 57614.4 57614.4 57590 57590 57565 57565 57539.3
57539.3 57513 57513 57485.9 57485.9 57458.2 57458.2 57429.6 57429.6
57400.3 57400.3 57370.1 57370.1 57339 57339 57307 57307 57274.1
57274.1 57240.2 57240.2 57205.2 57205.2 57169.1 57169.1 57131.8 57131.8
57093.4 57093.4 57053.7 57053.7 57012.8 57012.8 56970.4 56970.4 56926.6
56926.6 56881.3 56881.3 56834.4 56834.4 56785.9 56785.9 56735.6 56735.6
56683.4 56683.4 56629.3 56629.3 56573.1 56573.1 56514.8 56514.8 56454.2
56454.2 56391.1 56391.1 56325.4 56325.4 56257 56257 56185.8 56185.8
56111.4 56111.4 56033.8 56033.8 55952.7 55952.7 55867.9 55867.9 55779.1
55779.1 55686.1 55686.1 55588.6 55588.6 55486.3 55486.3 55378.8 55378.8
55265.7 55265.7 55146.6 55146.6 55021 55021 54888.4 54888.4 54748.1
54748.1 54599.5 54599.5 54441.8 54441.8 54274.3 54274.3 54095.9 54095.9
53905.5 53905.5 53701.8 53701.8 53483.4 53483.4 53248.5 53248.5 52995.2
52995.2 52720.9 52720.9 52423 52423 52097.8 52097.8 51740.9 51740.9
51347.1 51347.1 50909.4 50909.4 50418.9 50418.9 49863.2 49863.2 49219.9
49219.9 48474.2 48474.2 47574 47574 46384.9 46384.9 45001.9 45001.9
43837.8 43837.8 43129.1 43129.1 42918.4 42918.4 43158.9 43158.9 43672.6
43672.6 44311.1 44311.1 45030 45030 45813.7 45813.7 46633.6 46633.6
47505.6 47505.6 48428 48428 49412.1 49412.1 50484.4 50484.4 51627.6
51627.6 52857.6 52857.6 54186 54186 55582.5 55582.5 57062.8 57062.8
58621.2 58621.2 60228.2 60228.2 61901.6 61901.6 63620 63620 65367.5
65367.5 67163.8 67163.8 68974.8 68974.8 70801.4 70801.4 72660 72660
74513.4 74513.4 76377.3 76377.3 78256.6 78256.6 80116.9 80116.9 81980.8
81980.8 83833.9 83833.9 85656.6 85656.6 87471.7 87471.7 89247.5 89247.5
90982.3 90982.3 92691.7 92691.7 94343 94343 95943 95943 97487.2
97487.2 98955.2 98955.2 100357 100357 101677 101677 102910 102910
104058 104058 105104 105104 106042 106042 106865 106865 107562
107562 108128 108128 108547 108547 108794 108794 108855 108855
108716 108716 108377 108377 107845 107845 107087 107087 106071
106071 104812 104812 103331 103331 101659 101659 99790.3 99790.3
97719.7 97719.7 95457.7 95457.7 93009.8 93009.8 90428.4 90428.4 87748.6
87748.6 85010.9 85010.9 82267 82267 79521.2 79521.2 76818.3 76818.3
74166 74166 71597.9 71597.9 69158.4 69158.4 66845.4 66845.4 64685.3
64685.3 62644.4 62644.4 60731.3 60731.3 58949.5 58949.5 57288.7 57288.7
55696.2 55696.2 54136.5 54136.5 52710.5 52710.5 51408.6 51408.6 50236.9
50236.9 49210.4 49210.4 48291.4 48291.4 47462.1 47462.1 46679.4 46679.4
46022.5 46022.5 45407 45407 44769.1 44769.1 44159.5 44159.5 43556.8
43556.8 43011.8 43011.8 42487.4 42487.4 42007.4 42007.4 41596.2 41596.2
41248.2 41248.2 40985.1 40985.1 40802.1 40802.1 40723 40723 40775.8
40775.8 41033.5 41033.5 41522.2 41522.2 42220 42220 43189 43189
44293.9 44293.9 45348.3 45348.3 46335.9 46335.9 47239.4 47239.4 48056.5
48056.5 48782.3 48782.3 49421.1 49421.1 49983.2 49983.2 50480.8 50480.8
50924.2 50924.2 51320.4 51320.4 51673.7 51673.7 51987.7 51987.7 52265.5
52265.5 52510.5 52510.5 52725.7 52725.7 52914.2 52914.2 53078.5 53078.5
53220.8 53220.8 53342.6 53342.6 53444.9 53444.9 53528.4 53528.4 53592.9
53592.9 53638.5 53638.5 53665.7 53665.7 53675.3 53675.3 53668.9 53668.9
53648.1 53648.1 53615.5 53615.5 53573.7 53573.7 53525.4 53525.4 53473.5
53473.5 53421 53421 53370.8 53370.8 53325.8 53325.8 53288.8 53288.8
53262.5 53262.5 53249 53249 53250.2 53250.2 53267.3 53267.3 53301.4
53301.4 53353.1 53353.1 53422.4 53422.4 53508.9 53508.9 53611.8 53611.8
53729.7 53729.7 53860.7 53860.7 54003.5 54003.5 54154.9 54154.9 54316.9
54316.9 54482.5 54482.5 54649.6 54649.6 54734.3 54734.3
        </DataArray>
        <DataArray type='Float32' Name='p' format='ascii'>
31.3038 29.3062 29.3062 31.3038 26.4518 26.4518 25.4562 25.4562 25.2116
25.2116 24.9476 24.9476 24.6127 24.6127 24.2505 24.2505 23.8878 23.8878
23.5621 23.5621 23.2644 23.2644 22.9585 22.9585 22.6293 22.6293 22.2838
22.2838 21.9396 21.9396 21.6135 21.6135 21.3171 21.3171 21.0592 21.0592
20.8353 20.8353 20.6246 20.6246 20.4148 20.4148 20.2065 20.2065 20.0018
20.0018 19.804 19.804 19.6153 19.6153 19.4321 19.4321 19.2555 19.2555
19.0887 19.0887 18.9291 18.9291 18.7744 18.7744 18.6263 18.6263 18.4874
18.4874 18.3592 18.3592 18.2431 18.2431 18.1385 18.1385 18.0415 18.0415
17.9494 17.9494 17.8624 17.8624 17.7813 17.7813 17.7062 17.7062 17.6367
17.6367 17.5722 17.5722 17.512 17.512 17.4556 17.4556 17.4025 17.4025
17.3524 17.3524 17.305 17.305 17.2603 17.2603 17.2178 17.2178 17.1769
17.1769 17.137 17.137 17.0976 17.0976 17.0589 17.0589 17.0208 17.0208
16.9836 16.9836 16.9474 16.9474 16.9122 16.9122 16.878 16.878 16.845
16.845 16.8131 16.8131 16.7823 16.7823 16.7526 16.7526 16.7241 16.7241
16.6968 16.6968 16.6707 16.6707 16.6456 16.6456 16.6216 16.6216 16.5985
16.5985 16.5761 16.5761 16.5544 16.5544 16.5334 16.5334 16.5131 16.5131
16.4934 16.4934 16.4743 16.4743 16.4557 16.4557 16.4376 16.4376 16.42
16.42 16.4029 16.4029 16.386 16.386 16.3695 16.3695 16.3534 16.3534
16.3376 16.3376 16.3222 16.3222 16.3071 16.3071 16.2922 16.2922 16.2776
16.2776 16.2632 16.2632 16.2489 16.2489 16.2348 16.2348 16.2208 16.2208
16.2069 16.2069 16.1931 16.1931 16.1794 16.1794 16.1657 16.1657 16.1521
16.1521 16.1385 16.1385 16.125 16.125 16.1115 16.1115 16.098 16.098
16.0846 16.0846 16.0712 16.0712 16.0579 16.0579 16.0446 16.0446 16.0314
16.0314 16.0182 16.0182 16.005 16.005 15.9919 15.9919 15.9788 15.9788
15.9658 15.9658 15.9529 15.9529 15.94 15.94 15.9271 15.9271 15.9144
15.9144 15.9017 15.9017 15.889 15.889 15.8765 15.8765 15.864 15.864
15.8515 15.8515 15.8391 15.8391 15.8268 15.8268 15.8146 15.8146 15.8025
15.8025 15.7904 15.7904 15.7784 15.7784 15.7664 15.7664 15.7546 15.7546
15.7429 15.7429 15.7312 15.7312 15.7197 15.7197 15.7083 15.7083 15.697
15.697 15.6858 15.6858 15.6747 15.6747 15.6637 15.6637 15.6528 15.6528
15.642 15.642 15.6313 15.6313 15.6208 15.6208 15.6104 15.6104 15.6001
15.6001 15.5899 15.5899 15.5799 15.5799 15.57 15.57 15.5602 15.5602
15.5506 15.5506 15.5412 15.5412 15.5319 15.5319 15.5227 15.5227 15.5137
15.5137 15.5048 15.5048 15.496 15.496 15.4874 15.4874 15.4789 15.4789
15.4707 15.4707 15.4626 15.4626 15.4547 15.4547 15.447 15.447 15.4395
15.4395 15.4322 15.4322 15.4251 15.4251 15.4182 15.4182 15.4115 15.4115
15.405 15.405 15.3988 15.3988 15.3928 15.3928 15.387 15.387 15.3815
15.3815 15.3763 15.3763 15.3713 15.3713 15.3666 15.3666 15.3622 15.3622
15.3582 15.3582 15.3544 15.3544 15.3509 15.3509 15.3477 15.3477 15.3448
15.3448 15.3422 15.3422 15.3398 15.3398 15.3378 15.3378 15.3362 15.3362
15.3348 15.3348 15.3339 15.3339 15.3333 15.3333 15.333 15.333 15.3331
15.3331 15.3335 15.3335 15.3343 15.3343 15.3358 15.3358 15.3378 15.3378
15.3402 15.3402 15.343 15.343 15.3463 15.3463 15.3501 15.3501 15.3543
15.3543 15.3589 15.3589 15.3641 15.3641 15.3699 15.3699 15.3762 15.3762
15.383 15.383 15.3905 15.3905 15.3986 15.3986 15.4074 15.4074 15.4167
15.4167 15.4268 15.4268 15.4376 15.4376 15.449 15.449 15.4612 15.4612
15.4742 15.4742 15.4879 15.4879 15.5023 15.5023 15.5176 15.5176 15.5337
15.5337 15.5507 15.5507 15.5685 15.5685 15.5872 15.5872 15.6069 15.6069
15.6275 15.6275 15.6491 15.6491 15.6717 15.6717 15.6953 15.6953 15.72
15.72 15.7459 15.7459 15.7729 15.7729 15.8011 15.8011 15.8306 15.8306
15.8613 15.8613 15.8932 15.8932 15.9266 15.9266 15.9612 15.9612 15.9973
15.9973 16.0348 16.0348 16.0738 16.0738 16.1142 16.1142 16.1563 16.1563
16.2 16.2 16.2454 16.2454 16.2925 16.2925 16.3414 16.3414 16.3921
16.3921 16.4448 16.4448 16.4993 16.4993 16.5559 16.5559 16.6146 16.6146
16.6755 16.6755 16.7386 16.7386 16.804 16.804 16.8718 16.8718 16.942
16.942 17.0148 17.0148 17.0902 17.0902 17.1683 17.1683 17.2492 17.2492
17.3329 17.3329 17.4196 17.4196 17.5093 17.5093 17.6021 17.6021 17.6982
17.6982 17.7977 17.7977 17.9006 17.9006 18.0071 18.0071 18.1173 18.1173
18.2313 18.2313 18.3493 18.3493 18.4713 18.4713 18.5976 18.5976 18.7283
18.7283 18.8635 18.8635 19.0034 19.0034 19.1482 19.1482 19.298 19.298
19.4529 19.4529 19.6133 19.6133 19.7792 19.7792 19.9508 19.9508 20.1285
20.1285 20.3123 20.3123 20.5025 20.5025 20.6993 20.6993 20.9029 20.9029
21.1136 21.1136 21.3317 21.3317 21.5573 21.5573 21.7909 21.7909 22.0326
22.0326 22.2829 22.2829 22.542 22.542 22.8102 22.8102 23.088 23.088
23.3756 23.3756 23.6734 23.6734 23.9819 23.9819 24.3015 24.3015 24.6326
24.6326 24.9757 24.9757 25.3312 25.3312 25.6997 25.6997 26.0816 26.0816
26.4776 26.4776 26.8881 26.8881 27.3139 27.3139 27.7555 27.7555 28.2136
28.2136 28.689 28.689 29.1823 29.1823 29.6944 29.6944 30.226 30.226
30.7781 30.7781 31.3515 31.3515 31.9473 31.9473 32.5664 32.5664 33.2099
33.2099 33.879 33.879 34.5749 34.5749 35.2988 35.2988 36.052 36.052
36.8362 36.8362 37.6526 37.6526 38.5031 38.5031 39.3892 39.3892 40.313
40.313 41.2763 41.2763 42.2812 42.2812 43.3299 43.3299 44.4248 44.4248
45.5686 45.5686 46.764 46.764 48.014 48.014 49.3219 49.3219 50.691
50.691 52.125 52.125 53.628 53.628 55.2044 55.2044 56.859 56.859
58.597 58.597 60.4239 60.4239 62.346 62.346 64.37 64.37 66.5033
66.5033 68.7544 68.7544 71.1323 71.1323 73.6472 73.6472 76.3105 76.3105
79.1348 79.1348 82.1344 82.1344 85.3258 85.3258 88.7271 88.7271 92.3592
92.3592 96.2463 96.2463 100.417 100.417 104.904 104.904 109.747 109.747
114.994 114.994 120.7 120.7 126.934 126.934 133.775 133.775 141.352
141.352 149.918 149.918 159.234 159.234 170.217 170.217 184.023 184.023
196.37 196.37 204.437 204.437 211.301 211.301 217.219 217.219 220.496
220.496 221.65 221.65 221.552 221.552 220.207 220.207 217.891 217.891
215.09 215.09 211.451 211.451 206.864 206.864 201.078 201.078 193.535
193.535 184.738 184.738 174.59 174.59 162.853 162.853 150.409 150.409
136.902 136.902 122.257 122.257 107.267 107.267 91.1962 91.1962 74.345
74.345 57.047 57.047 38.224 38.224 18.8652 18.8652 -1.23555 -1.23555
-23.3356 -23.3356 -45.9392 -45.9392 -69.7032 -69.7032 -95.4776 -95.4776 -121.62
-121.62 -149.234 -149.234 -178.33 -178.33 -207.782 -207.782 -239.002 -239.002
-270.808 -270.808 -303.062 -303.062 -337.156 -337.156 -370.938 -370.938 -405.095
-405.095 -440.126 -440.126 -474.293 -474.293 -508.99 -508.99 -543.148 -543.148
-576.214 -576.214 -609.099 -609.099 -639.815 -639.815 -668.994 -668.994 -696.317
-696.317 -720.739 -720.739 -742.878 -742.878 -761.395 -761.395 -776.406 -776.406
-787.895 -787.895 -794.961 -794.961 -798.331 -798.331 -797.477 -797.477 -791.251
-791.251 -780.558 -780.558 -765.877 -765.877 -747.818 -747.818 -726.796 -726.796
-701.958 -701.958 -674.086 -674.086 -643.206 -643.206 -610.454 -610.454 -577.038
-577.038 -542.569 -542.569 -508.149 -508.149 -473.05 -473.05 -437.634 -437.634
-402.552 -402.552 -367.508 -367.508 -333.906 -333.906 -301.434 -301.434 -270.58
-270.58 -241.633 -241.633 -213.909 -213.909 -187.994 -187.994 -163.214 -163.214
-139.568 -139.568 -117.105 -117.105 -95.3723 -95.3723 -74.7542 -74.7542 -54.8048
-54.8048 -35.5392 -35.5392 -16.9506 -16.9506 1.08387 1.08387 18.3464 18.3464
35.1587 35.1587 51.4424 51.4424 66.9521 66.9521 81.5896 81.5896 95.3484
95.3484 108.229 108.229 120.192 120.192 131.127 131.127 140.903 140.903
149.608 149.608 157.114 157.114 163.381 163.381 168.315 168.315 171.628
171.628 173.226 173.226 172.47 172.47 168.916 168.916 162.132 162.132
149.993 149.993 137.119 137.119 127.558 127.558 118.635 118.635 110.375
110.375 103.221 103.221 96.9617 96.9617 91.3639 91.3639 86.2002 86.2002
81.3371 81.3371 76.7345 76.7345 72.3891 72.3891 68.2813 68.2813 64.365
64.365 60.5975 60.5975 56.9482 56.9482 53.3987 53.3987 49.9473 49.9473
46.6099 46.6099 43.4121 43.4121 40.3818 40.3818 37.5463 37.5463 34.9299
34.9299 32.5443 32.5443 30.3832 30.3832 28.4259 28.4259 26.6428 26.6428
25.0023 25.0023 23.4736 23.4736 22.0291 22.0291 20.6492 20.6492 19.3223
19.3223 18.041 18.041 16.8007 16.8007 15.5999 15.5999 14.4373 14.4373
13.3125 13.3125 12.2255 12.2255 11.1781 11.1781 10.1724 10.1724 9.21007
9.21007 8.29179 8.29179 7.41692 7.41692 6.58313 6.58313 5.78615 5.78615
5.02084 5.02084 4.27913 4.27913 3.55935 3.55935 2.83834 2.83834 2.16089
2.16089 1.33169 1.33169 0.672291 0.672291 0.538 0.538
        </DataArray>
        <DataArray type='Float32' Name='U' NumberOfComponents='3' format='ascii'>
0 0 0 0 0 0 0 0 0
0 0 0 0 0 0 0 0 0
0 0 0 0 0 0 0 0 0
0 0 0 0 0 0 0 0 0
0 0 0 0 0 0 0 0 0
0 0 0 0 0 0 0 0 0
0 0 0 0 0 0 0 0 0
0 0 0 0 0 0 0 0 0
0 0 0 0 0 0 0 0 0
0 0 0 0 0 0 0 0 0
0 0 0 0 0 0 0 0 0
0 0 0 0 0 0 0 0 0
0 0 0 0 0 0 0 0 0
0 0 0 0 0 0 0 0 0
0 0 0 0 0 0 0 0 0
0 0 0 0 0 0 0 0 0
0 0 0 0 0 0 0 0 0
0 0 0 0 0 0 0 0 0
0 0 0 0 0 0 0 0 0
0 0 0 0 0 0 0 0 0
0 0 0 0 0 0 0 0 0
0 0 0 0 0 0 0 0 0
0 0 0 0 0 0 0 0 0
0 0 0 0 0 0 0 0 0
0 0 0 0 0 0 0 0 0
0 0 0 0 0 0 0 0 0
0 0 0 0 0 0 0 0 0
0 0 0 0 0 0 0 0 0
0 0 0 0 0 0 0 0 0
0 0 0 0 0 0 0 0 0
0 0 0 0 0 0 0 0 0
0 0 0 0 0 0 0 0 0
0 0 0 0 0 0 0 0 0
0 0 0 0 0 0 0 0 0
0 0 0 0 0 0 0 0 0
0 0 0 0 0 0 0 0 0
0 0 0 0 0 0 0 0 0
0 0 0 0 0 0 0 0 0
0 0 0 0 0 0 0 0 0
0 0 0 0 0 0 0 0 0
0 0 0 0 0 0 0 0 0
0 0 0 0 0 0 0 0 0
0 0 0 0 0 0 0 0 0
0 0 0 0 0 0 0 0 0
0 0 0 0 0 0 0 0 0
0 0 0 0 0 0 0 0 0
0 0 0 0 0 0 0 0 0
0 0 0 0 0 0 0 0 0
0 0 0 0 0 0 0 0 0
0 0 0 0 0 0 0 0 0
0 0 0 0 0 0 0 0 0
0 0 0 0 0 0 0 0 0
0 0 0 0 0 0 0 0 0
0 0 0 0 0 0 0 0 0
0 0 0 0 0 0 0 0 0
0 0 0 0 0 0 0 0 0
0 0 0 0 0 0 0 0 0
0 0 0 0 0 0 0 0 0
0 0 0 0 0 0 0 0 0
0 0 0 0 0 0 0 0 0
0 0 0 0 0 0 0 0 0
0 0 0 0 0 0 0 0 0
0 0 0 0 0 0 0 0 0
0 0 0 0 0 0 0 0 0
0 0 0 0 0 0 0 0 0
0 0 0 0 0 0 0 0 0
0 0 0 0 0 0 0 0 0
0 0 0 0 0 0 0 0 0
0 0 0 0 0 0 0 0 0
0 0 0 0 0 0 0 0 0
0 0 0 0 0 0 0 0 0
0 0 0 0 0 0 0 0 0
0 0 0 0 0 0 0 0 0
0 0 0 0 0 0 0 0 0
0 0 0 0 0 0 0 0 0
0 0 0 0 0 0 0 0 0
0 0 0 0 0 0 0 0 0
0 0 0 0 0 0 0 0 0
0 0 0 0 0 0 0 0 0
0 0 0 0 0 0 0 0 0
0 0 0 0 0 0 0 0 0
0 0 0 0 0 0 0 0 0
0 0 0 0 0 0 0 0 0
0 0 0 0 0 0 0 0 0
0 0 0 0 0 0 0 0 0
0 0 0 0 0 0 0 0 0
0 0 0 0 0 0 0 0 0
0 0 0 0 0 0 0 0 0
0 0 0 0 0 0 0 0 0
0 0 0 0 0 0 0 0 0
0 0 0 0 0 0 0 0 0
0 0 0 0 0 0 0 0 0
0 0 0 0 0 0 0 0 0
0 0 0 0 0 0 0 0 0
0 0 0 0 0 0 0 0 0
0 0 0 0 0 0 0 0 0
0 0 0 0 0 0 0 0 0
0 0 0 0 0 0 0 0 0
0 0 0 0 0 0 0 0 0
0 0 0 0 0 0 0 0 0
0 0 0 0 0 0 0 0 0
0 0 0 0 0 0 0 0 0
0 0 0 0 0 0 0 0 0
0 0 0 0 0 0 0 0 0
0 0 0 0 0 0 0 0 0
0 0 0 0 0 0 0 0 0
0 0 0 0 0 0 0 0 0
0 0 0 0 0 0 0 0 0
0 0 0 0 0 0 0 0 0
0 0 0 0 0 0 0 0 0
0 0 0 0 0 0 0 0 0
0 0 0 0 0 0 0 0 0
0 0 0 0 0 0 0 0 0
0 0 0 0 0 0 0 0 0
0 0 0 0 0 0 0 0 0
0 0 0 0 0 0 0 0 0
0 0 0 0 0 0 0 0 0
0 0 0 0 0 0 0 0 0
0 0 0 0 0 0 0 0 0
0 0 0 0 0 0 0 0 0
0 0 0 0 0 0 0 0 0
0 0 0 0 0 0 0 0 0
0 0 0 0 0 0 0 0 0
0 0 0 0 0 0 0 0 0
0 0 0 0 0 0 0 0 0
0 0 0 0 0 0 0 0 0
0 0 0 0 0 0 0 0 0
0 0 0 0 0 0 0 0 0
0 0 0 0 0 0 0 0 0
0 0 0 0 0 0 0 0 0
0 0 0 0 0 0 0 0 0
0 0 0 0 0 0 0 0 0
0 0 0 0 0 0 0 0 0
0 0 0 0 0 0 0 0 0
0 0 0 0 0 0 0 0 0
0 0 0 0 0 0 0 0 0
0 0 0 0 0 0 0 0 0
0 0 0 0 0 0 0 0 0
0 0 0 0 0 0 0 0 0
0 0 0 0 0 0 0 0 0
0 0 0 0 0 0 0 0 0
0 0 0 0 0 0 0 0 0
0 0 0 0 0 0 0 0 0
0 0 0 0 0 0 0 0 0
0 0 0 0 0 0 0 0 0
0 0 0 0 0 0 0 0 0
0 0 0 0 0 0 0 0 0
0 0 0 0 0 0 0 0 0
0 0 0 0 0 0 0 0 0
0 0 0 0 0 0 0 0 0
0 0 0 0 0 0 0 0 0
0 0 0 0 0 0 0 0 0
0 0 0 0 0 0 0 0 0
0 0 0 0 0 0 0 0 0
0 0 0 0 0 0 0 0 0
0 0 0 0 0 0 0 0 0
0 0 0 0 0 0 0 0 0
0 0 0 0 0 0 0 0 0
0 0 0 0 0 0 0 0 0
0 0 0 0 0 0 0 0 0
0 0 0 0 0 0 0 0 0
0 0 0 0 0 0 0 0 0
0 0 0 0 0 0 0 0 0
0 0 0 0 0 0 0 0 0
0 0 0 0 0 0 0 0 0
0 0 0 0 0 0 0 0 0
0 0 0 0 0 0 0 0 0
0 0 0 0 0 0 0 0 0
0 0 0 0 0 0 0 0 0
0 0 0 0 0 0 0 0 0
0 0 0 0 0 0 0 0 0
0 0 0 0 0 0 0 0 0
0 0 0 0 0 0 0 0 0
0 0 0 0 0 0 0 0 0
0 0 0 0 0 0 0 0 0
0 0 0 0 0 0 0 0 0
0 0 0 0 0 0 0 0 0
0 0 0 0 0 0 0 0 0
0 0 0 0 0 0 0 0 0
0 0 0 0 0 0 0 0 0
0 0 0 0 0 0 0 0 0
0 0 0 0 0 0 0 0 0
0 0 0 0 0 0 0 0 0
0 0 0 0 0 0 0 0 0
0 0 0 0 0 0 0 0 0
0 0 0 0 0 0 0 0 0
0 0 0 0 0 0 0 0 0
0 0 0 0 0 0 0 0 0
0 0 0 0 0 0 0 0 0
0 0 0 0 0 0 0 0 0
0 0 0 0 0 0 0 0 0
0 0 0 0 0 0 0 0 0
0 0 0 0 0 0 0 0 0
0 0 0 0 0 0 0 0 0
0 0 0 0 0 0 0 0 0
0 0 0 0 0 0 0 0 0
0 0 0 0 0 0 0 0 0
0 0 0 0 0 0 0 0 0
0 0 0 0 0 0 0 0 0
0 0 0 0 0 0 0 0 0
0 0 0 0 0 0 0 0 0
0 0 0 0 0 0 0 0 0
0 0 0 0 0 0 0 0 0
0 0 0 0 0 0 0 0 0
0 0 0 0 0 0 0 0 0
0 0 0 0 0 0 0 0 0
0 0 0 0 0 0 0 0 0
0 0 0 0 0 0 0 0 0
0 0 0 0 0 0 0 0 0
0 0 0 0 0 0 0 0 0
0 0 0 0 0 0 0 0 0
0 0 0 0 0 0 0 0 0
0 0 0 0 0 0 0 0 0
0 0 0 0 0 0 0 0 0
0 0 0 0 0 0 0 0 0
0 0 0 0 0 0 0 0 0
0 0 0 0 0 0 0 0 0
0 0 0 0 0 0 0 0 0
0 0 0 0 0 0 0 0 0
0 0 0 0 0 0 0 0 0
0 0 0 0 0 0 0 0 0
0 0 0 0 0 0 0 0 0
0 0 0 0 0 0 0 0 0
0 0 0 0 0 0 0 0 0
0 0 0 0 0 0 0 0 0
0 0 0 0 0 0 0 0 0
0 0 0 0 0 0 0 0 0
0 0 0 0 0 0 0 0 0
0 0 0 0 0 0 0 0 0
0 0 0 0 0 0 0 0 0
0 0 0 0 0 0 0 0 0
0 0 0 0 0 0 0 0 0
0 0 0 0 0 0 0 0 0
0 0 0 0 0 0 0 0 0
0 0 0 0 0 0 0 0 0
0 0 0 0 0 0 0 0 0
0 0 0 0 0 0 0 0 0
0 0 0 0 0 0 0 0 0
0 0 0 0 0 0 0 0 0
0 0 0 0 0 0 0 0 0
0 0 0 0 0 0 0 0 0
0 0 0 0 0 0 0 0 0
0 0 0 0 0 0 0 0 0
0 0 0 0 0 0 0 0 0
0 0 0 0 0 0 0 0 0
0 0 0 0 0 0 0 0 0
0 0 0 0 0 0 0 0 0
0 0 0 0 0 0 0 0 0
0 0 0 0 0 0 0 0 0
0 0 0 0 0 0 0 0 0
0 0 0 0 0 0 0 0 0
0 0 0 0 0 0 0 0 0
0 0 0 0 0 0 0 0 0
0 0 0 0 0 0 0 0 0
0 0 0 0 0 0 0 0 0
0 0 0 0 0 0 0 0 0
0 0 0 0 0 0 0 0 0
0 0 0 0 0 0 0 0 0
0 0 0 0 0 0 0 0 0
0 0 0 0 0 0 0 0 0
0 0 0 0 0 0 0 0 0
0 0 0 0 0 0 0 0 0
0 0 0 0 0 0 0 0 0
0 0 0 0 0 0 0 0 0
0 0 0 0 0 0 0 0 0
0 0 0 0 0 0 0 0 0
0 0 0 0 0 0 0 0 0
0 0 0 0 0 0 0 0 0
0 0 0 0 0 0 0 0 0
0 0 0 0 0 0 0 0 0
0 0 0 0 0 0 0 0 0
0 0 0 0 0 0 0 0 0
0 0 0 0 0 0 0 0 0
0 0 0 0 0 0 0 0 0
0 0 0 0 0 0 0 0 0
0 0 0 0 0 0 0 0 0
0 0 0 0 0 0 0 0 0
0 0 0 0 0 0 0 0 0
0 0 0 0 0 0 0 0 0
0 0 0 0 0 0 0 0 0
0 0 0 0 0 0 0 0 0
0 0 0 0 0 0 0 0 0
0 0 0 0 0 0 0 0 0
0 0 0 0 0 0 0 0 0
0 0 0 0 0 0 0 0 0
0 0 0 0 0 0 0 0 0
0 0 0 0 0 0 0 0 0
0 0 0 0 0 0 0 0 0
0 0 0 0 0 0 0 0 0
0 0 0 0 0 0 0 0 0
0 0 0 0 0 0 0 0 0
0 0 0 0 0 0 0 0 0
0 0 0 0 0 0 0 0 0
0 0 0 0 0 0 0 0 0
0 0 0 0 0 0 0 0 0
0 0 0 0 0 0 0 0 0
0 0 0 0 0 0 0 0 0
0 0 0 0 0 0 0 0 0
0 0 0 0 0 0 0 0 0
0 0 0 0 0 0 0 0 0
0 0 0 0 0 0 0 0 0
0 0 0 0 0 0 0 0 0
0 0 0 0 0 0 0 0 0
0 0 0 0 0 0 0 0 0
0 0 0 0 0 0 0 0 0
0 0 0 0 0 0 0 0 0
0 0 0 0 0 0 0 0 0
0 0 0 0 0 0 0 0 0
0 0 0 0 0 0 0 0 0
0 0 0 0 0 0 0 0 0
0 0 0 0 0 0 0 0 0
0 0 0 0 0 0 0 0 0
0 0 0 0 0 0 0 0 0
0 0 0 0 0 0 0 0 0
0 0 0 0 0 0 0 0 0
0 0 0 0 0 0 0 0 0
0 0 0 0 0 0 0 0 0
0 0 0 0 0 0 0 0 0
0 0 0 0 0 0 0 0 0
0 0 0 0 0 0 0 0 0
0 0 0 0 0 0 0 0 0
0 0 0 0 0 0 0 0 0
0 0 0 0 0 0 0 0 0
0 0 0 0 0 0 0 0 0
0 0 0 0 0 0 0 0 0
0 0 0 0 0 0 0 0 0
0 0 0 0 0 0 0 0 0
0 0 0 0 0 0 0 0 0
0 0 0 0 0 0 0 0 0
0 0 0 0 0 0 0 0 0
0 0 0 0 0 0 0 0 0
0 0 0 0 0 0 0 0 0
0 0 0 0 0 0 0 0 0
0 0 0 0 0 0 0 0 0
0 0 0 0 0 0 0 0 0
0 0 0 0 0 0 0 0 0
0 0 0 0 0 0 0 0 0
0 0 0 0 0 0 0 0 0
0 0 0 0 0 0 0 0 0
0 0 0 0 0 0 0 0 0
0 0 0 0 0 0 0 0 0
0 0 0 0 0 0 0 0 0
0 0 0 0 0 0 0 0 0
0 0 0 0 0 0 0 0 0
0 0 0 0 0 0 0 0 0
0 0 0 0 0 0 0 0 0
0 0 0 0 0 0 0 0 0
0 0 0
        </DataArray>
      </PointData>
    </Piece>
  </PolyData>
</VTKFile>
