<?xml version='1.0'?>
<!-- patch='inlet' time='40' index='40' -->
<VTKFile type='PolyData' version='0.1' byte_order='LittleEndian' header_type='UInt64'>
  <PolyData>
    <FieldData>
      <DataArray type='Float32' Name='TimeValue' NumberOfTuples='1' format='ascii'>
40
      </DataArray>
    </FieldData>
    <Piece NumberOfPoints='362' NumberOfPolys='180'>
      <Points>
        <DataArray type='Float32' Name='Points' NumberOfComponents='3' format='ascii'>
-0.9 0 -0.01 -0.9 0 0.01 -0.9 0.000438104 0.01
-0.9 0.000438104 -0.01 -0.9 0.000882333 0.01 -0.9 0.000882333 -0.01
-0.9 0.00133277 0.01 -0.9 0.00133277 -0.01 -0.9 0.00178951 0.01
-0.9 0.00178951 -0.01 -0.9 0.00225263 0.01 -0.9 0.00225263 -0.01
-0.9 0.00272222 0.01 -0.9 0.00272222 -0.01 -0.9 0.00319838 0.01
-0.9 0.00319838 -0.01 -0.9 0.00368119 0.01 -0.9 0.00368119 -0.01
-0.9 0.00417076 0.01 -0.9 0.00417076 -0.01 -0.9 0.00466716 0.01
-0.9 0.00466716 -0.01 -0.9 0.00517051 0.01 -0.9 0.00517051 -0.01
-0.9 0.00568089 0.01 -0.9 0.00568089 -0.01 -0.9 0.00619841 0.01
-0.9 0.00619841 -0.01 -0.9 0.00672316 0.01 -0.9 0.00672316 -0.01
-0.9 0.00725525 0.01 -0.9 0.00725525 -0.01 -0.9 0.00779477 0.01
-0.9 0.00779477 -0.01 -0.9 0.00834184 0.01 -0.9 0.00834184 -0.01
-0.9 0.00889655 0.01 -0.9 0.00889655 -0.01 -0.9 0.00945902 0.01
-0.9 0.00945902 -0.01 -0.9 0.0100294 0.01 -0.9 0.0100294 -0.01
-0.9 0.0106077 0.01 -0.9 0.0106077 -0.01 -0.9 0.011194 0.01
-0.9 0.011194 -0.01 -0.9 0.0117886 0.01 -0.9 0.0117886 -0.01
-0.9 0.0123915 0.01 -0.9 0.0123915 -0.01 -0.9 0.0130029 0.01
-0.9 0.0130029 -0.01 -0.9 0.0136227 0.01 -0.9 0.0136227 -0.01
-0.9 0.0142513 0.01 -0.9 0.0142513 -0.01 -0.9 0.0148886 0.01
-0.9 0.0148886 -0.01 -0.9 0.0155348 0.01 -0.9 0.0155348 -0.01
-0.9 0.0161901 0.01 -0.9 0.0161901 -0.01 -0.9 0.0168545 0.01
-0.9 0.0168545 -0.01 -0.9 0.0175282 0.01 -0.9 0.0175282 -0.01
-0.9 0.0182113 0.01 -0.9 0.0182113 -0.01 -0.9 0.018904 0.01
-0.9 0.018904 -0.01 -0.9 0.0196064 0.01 -0.9 0.0196064 -0.01
-0.9 0.0203186 0.01 -0.9 0.0203186 -0.01 -0.9 0.0210407 0.01
-0.9 0.0210407 -0.01 -0.9 0.0217729 0.01 -0.9 0.0217729 -0.01
-0.9 0.0225154 0.01 -0.9 0.0225154 -0.01 -0.9 0.0232683 0.01
-0.9 0.0232683 -0.01 -0.9 0.0240316 0.01 -0.9 0.0240316 -0.01
-0.9 0.0248057 0.01 -0.9 0.0248057 -0.01 -0.9 0.0255905 0.01
-0.9 0.0255905 -0.01 -0.9 0.0263864 0.01 -0.9 0.0263864 -0.01
-0.9 0.0271933 0.01 -0.9 0.0271933 -0.01 -0.9 0.0280116 0.01
-0.9 0.0280116 -0.01 -0.9 0.0288412 0.01 -0.9 0.0288412 -0.01
-0.9 0.0296825 0.01 -0.9 0.0296825 -0.01 -0.9 0.0305355 0.01
-0.9 0.0305355 -0.01 -0.9 0.0314005 0.01 -0.9 0.0314005 -0.01
-0.9 0.0322776 0.01 -0.9 0.0322776 -0.01 -0.9 0.0331669 0.01
-0.9 0.0331669 -0.01 -0.9 0.0340686 0.01 -0.9 0.0340686 -0.01
-0.9 0.034983 0.01 -0.9 0.034983 -0.01 -0.9 0.0359101 0.01
-0.9 0.0359101 -0.01 -0.9 0.0368502 0.01 -0.9 0.0368502 -0.01
-0.9 0.0378034 0.01 -0.9 0.0378034 -0.01 -0.9 0.03877 0.01
-0.9 0.03877 -0.01 -0.9 0.03975 0.01 -0.9 0.03975 -0.01
-0.9 0.0407438 0.01 -0.9 0.0407438 -0.01 -0.9 0.0417515 0.01
-0.9 0.0417515 -0.01 -0.9 0.0427732 0.01 -0.9 0.0427732 -0.01
-0.9 0.0438092 0.01 -0.9 0.0438092 -0.01 -0.9 0.0448597 0.01
-0.9 0.0448597 -0.01 -0.9 0.0459249 0.01 -0.9 0.0459249 -0.01
-0.9 0.047005 0.01 -0.9 0.047005 -0.01 -0.9 0.0481002 0.01
-0.9 0.0481002 -0.01 -0.9 0.0492107 0.01 -0.9 0.0492107 -0.01
-0.9 0.0503367 0.01 -0.9 0.0503367 -0.01 -0.9 0.0514785 0.01
-0.9 0.0514785 -0.01 -0.9 0.0526362 0.01 -0.9 0.0526362 -0.01
-0.9 0.0538101 0.01 -0.9 0.0538101 -0.01 -0.9 0.0550004 0.01
-0.9 0.0550004 -0.01 -0.9 0.0562074 0.01 -0.9 0.0562074 -0.01
-0.9 0.0574312 0.01 -0.9 0.0574312 -0.01 -0.9 0.0586721 0.01
-0.9 0.0586721 -0.01 -0.9 0.0599304 0.01 -0.9 0.0599304 -0.01
-0.9 0.0612063 0.01 -0.9 0.0612063 -0.01 -0.9 0.0625 0.01
-0.9 0.0625 -0.01 -0.9 0.0638118 0.01 -0.9 0.0638118 -0.01
-0.9 0.0651419 0.01 -0.9 0.0651419 -0.01 -0.9 0.0664906 0.01
-0.9 0.0664906 -0.01 -0.9 0.0678582 0.01 -0.9 0.0678582 -0.01
-0.9 0.0692449 0.01 -0.9 0.0692449 -0.01 -0.9 0.070651 0.01
-0.9 0.070651 -0.01 -0.9 0.0720767 0.01 -0.9 0.0720767 -0.01
-0.9 0.0735224 0.01 -0.9 0.0735224 -0.01 -0.9 0.0749882 0.01
-0.9 0.0749882 -0.01 -0.9 0.0764746 0.01 -0.9 0.0764746 -0.01
-0.9 0.0779817 0.01 -0.9 0.0779817 -0.01 -0.9 0.07951 0.01
-0.9 0.07951 -0.01 -0.9 0.0810595 0.01 -0.9 0.0810595 -0.01
-0.9 0.0826308 0.01 -0.9 0.0826308 -0.01 -0.9 0.084224 0.01
-0.9 0.084224 -0.01 -0.9 0.0858394 0.01 -0.9 0.0858394 -0.01
-0.9 0.0874775 0.01 -0.9 0.0874775 -0.01 -0.9 0.0891384 0.01
-0.9 0.0891384 -0.01 -0.9 0.0908226 0.01 -0.9 0.0908226 -0.01
-0.9 0.0925303 0.01 -0.9 0.0925303 -0.01 -0.9 0.0942619 0.01
-0.9 0.0942619 -0.01 -0.9 0.0960177 0.01 -0.9 0.0960177 -0.01
-0.9 0.097798 0.01 -0.9 0.097798 -0.01 -0.9 0.0996032 0.01
-0.9 0.0996032 -0.01 -0.9 0.101434 0.01 -0.9 0.101434 -0.01
-0.9 0.10329 0.01 -0.9 0.10329 -0.01 -0.9 0.105172 0.01
-0.9 0.105172 -0.01 -0.9 0.10708 0.01 -0.9 0.10708 -0.01
-0.9 0.109015 0.01 -0.9 0.109015 -0.01 -0.9 0.110977 0.01
-0.9 0.110977 -0.01 -0.9 0.112966 0.01 -0.9 0.112966 -0.01
-0.9 0.114984 0.01 -0.9 0.114984 -0.01 -0.9 0.117029 0.01
-0.9 0.117029 -0.01 -0.9 0.119103 0.01 -0.9 0.119103 -0.01
-0.9 0.121206 0.01 -0.9 0.121206 -0.01 -0.9 0.123339 0.01
-0.9 0.123339 -0.01 -0.9 0.125501 0.01 -0.9 0.125501 -0.01
-0.9 0.127693 0.01 -0.9 0.127693 -0.01 -0.9 0.129917 0.01
-0.9 0.129917 -0.01 -0.9 0.132171 0.01 -0.9 0.132171 -0.01
-0.9 0.134456 0.01 -0.9 0.134456 -0.01 -0.9 0.136774 0.01
-0.9 0.136774 -0.01 -0.9 0.139124 0.01 -0.9 0.139124 -0.01
-0.9 0.141507 0.01 -0.9 0.141507 -0.01 -0.9 0.143923 0.01
-0.9 0.143923 -0.01 -0.9 0.146373 0.01 -0.9 0.146373 -0.01
-0.9 0.148858 0.01 -0.9 0.148858 -0.01 -0.9 0.151377 0.01
-0.9 0.151377 -0.01 -0.9 0.153931 0.01 -0.9 0.153931 -0.01
-0.9 0.156521 0.01 -0.9 0.156521 -0.01 -0.9 0.159147 0.01
-0.9 0.159147 -0.01 -0.9 0.16181 0.01 -0.9 0.16181 -0.01
-0.9 0.16451 0.01 -0.9 0.16451 -0.01 -0.9 0.167247 0.01
-0.9 0.167247 -0.01 -0.9 0.170023 0.01 -0.9 0.170023 -0.01
-0.9 0.172838 0.01 -0.9 0.172838 -0.01 -0.9 0.175692 0.01
-0.9 0.175692 -0.01 -0.9 0.178587 0.01 -0.9 0.178587 -0.01
-0.9 0.181521 0.01 -0.9 0.181521 -0.01 -0.9 0.184497 0.01
-0.9 0.184497 -0.01 -0.9 0.187514 0.01 -0.9 0.187514 -0.01
-0.9 0.190573 0.01 -0.9 0.190573 -0.01 -0.9 0.193675 0.01
-0.9 0.193675 -0.01 -0.9 0.196821 0.01 -0.9 0.196821 -0.01
-0.9 0.20001 0.01 -0.9 0.20001 -0.01 -0.9 0.203244 0.01
-0.9 0.203244 -0.01 -0.9 0.206524 0.01 -0.9 0.206524 -0.01
-0.9 0.209849 0.01 -0.9 0.209849 -0.01 -0.9 0.21322 0.01
-0.9 0.21322 -0.01 -0.9 0.216639 0.01 -0.9 0.216639 -0.01
-0.9 0.220105 0.01 -0.9 0.220105 -0.01 -0.9 0.22362 0.01
-0.9 0.22362 -0.01 -0.9 0.227185 0.01 -0.9 0.227185 -0.01
-0.9 0.230798 0.01 -0.9 0.230798 -0.01 -0.9 0.234463 0.01
-0.9 0.234463 -0.01 -0.9 0.238179 0.01 -0.9 0.238179 -0.01
-0.9 0.241946 0.01 -0.9 0.241946 -0.01 -0.9 0.245766 0.01
-0.9 0.245766 -0.01 -0.9 0.24964 0.01 -0.9 0.24964 -0.01
-0.9 0.253568 0.01 -0.9 0.253568 -0.01 -0.9 0.257551 0.01
-0.9 0.257551 -0.01 -0.9 0.261589 0.01 -0.9 0.261589 -0.01
-0.9 0.265684 0.01 -0.9 0.265684 -0.01 -0.9 0.269836 0.01
-0.9 0.269836 -0.01 -0.9 0.274046 0.01 -0.9 0.274046 -0.01
-0.9 0.278315 0.01 -0.9 0.278315 -0.01 -0.9 0.282644 0.01
-0.9 0.282644 -0.01 -0.9 0.287033 0.01 -0.9 0.287033 -0.01
-0.9 0.291483 0.01 -0.9 0.291483 -0.01 -0.9 0.295996 0.01
-0.9 0.295996 -0.01 -0.9 0.300572 0.01 -0.9 0.300572 -0.01
-0.9 0.305212 0.01 -0.9 0.305212 -0.01 -0.9 0.309916 0.01
-0.9 0.309916 -0.01 -0.9 0.314687 0.01 -0.9 0.314687 -0.01
-0.9 0.319524 0.01 -0.9 0.319524 -0.01 -0.9 0.324429 0.01
-0.9 0.324429 -0.01 -0.9 0.329402 0.01 -0.9 0.329402 -0.01
-0.9 0.334445 0.01 -0.9 0.334445 -0.01 -0.9 0.339558 0.01
-0.9 0.339558 -0.01 -0.9 0.344743 0.01 -0.9 0.344743 -0.01
-0.9 0.35 0.01 -0.9 0.35 -0.01
        </DataArray>
      </Points>
      <Polys>
        <DataArray type='Int32' Name='connectivity' format='ascii'>
0 1 2 3 3 2 4 5 5
4 6 7 7 6 8 9 9 8
10 11 11 10 12 13 13 12 14
15 15 14 16 17 17 16 18 19
19 18 20 21 21 20 22 23 23
22 24 25 25 24 26 27 27 26
28 29 29 28 30 31 31 30 32
33 33 32 34 35 35 34 36 37
37 36 38 39 39 38 40 41 41
40 42 43 43 42 44 45 45 44
46 47 47 46 48 49 49 48 50
51 51 50 52 53 53 52 54 55
55 54 56 57 57 56 58 59 59
58 60 61 61 60 62 63 63 62
64 65 65 64 66 67 67 66 68
69 69 68 70 71 71 70 72 73
73 72 74 75 75 74 76 77 77
76 78 79 79 78 80 81 81 80
82 83 83 82 84 85 85 84 86
87 87 86 88 89 89 88 90 91
91 90 92 93 93 92 94 95 95
94 96 97 97 96 98 99 99 98
100 101 101 100 102 103 103 102 104
105 105 104 106 107 107 106 108 109
109 108 110 111 111 110 112 113 113
112 114 115 115 114 116 117 117 116
118 119 119 118 120 121 121 120 122
123 123 122 124 125 125 124 126 127
127 126 128 129 129 128 130 131 131
130 132 133 133 132 134 135 135 134
136 137 137 136 138 139 139 138 140
141 141 140 142 143 143 142 144 145
145 144 146 147 147 146 148 149 149
148 150 151 151 150 152 153 153 152
154 155 155 154 156 157 157 156 158
159 159 158 160 161 161 160 162 163
163 162 164 165 165 164 166 167 167
166 168 169 169 168 170 171 171 170
172 173 173 172 174 175 175 174 176
177 177 176 178 179 179 178 180 181
181 180 182 183 183 182 184 185 185
184 186 187 187 186 188 189 189 188
190 191 191 190 192 193 193 192 194
195 195 194 196 197 197 196 198 199
199 198 200 201 201 200 202 203 203
202 204 205 205 204 206 207 207 206
208 209 209 208 210 211 211 210 212
213 213 212 214 215 215 214 216 217
217 216 218 219 219 218 220 221 221
220 222 223 223 222 224 225 225 224
226 227 227 226 228 229 229 228 230
231 231 230 232 233 233 232 234 235
235 234 236 237 237 236 238 239 239
238 240 241 241 240 242 243 243 242
244 245 245 244 246 247 247 246 248
249 249 248 250 251 251 250 252 253
253 252 254 255 255 254 256 257 257
256 258 259 259 258 260 261 261 260
262 263 263 262 264 265 265 264 266
267 267 266 268 269 269 268 270 271
271 270 272 273 273 272 274 275 275
274 276 277 277 276 278 279 279 278
280 281 281 280 282 283 283 282 284
285 285 284 286 287 287 286 288 289
289 288 290 291 291 290 292 293 293
292 294 295 295 294 296 297 297 296
298 299 299 298 300 301 301 300 302
303 303 302 304 305 305 304 306 307
307 306 308 309 309 308 310 311 311
310 312 313 313 312 314 315 315 314
316 317 317 316 318 319 319 318 320
321 321 320 322 323 323 322 324 325
325 324 326 327 327 326 328 329 329
328 330 331 331 330 332 333 333 332
334 335 335 334 336 337 337 336 338
339 339 338 340 341 341 340 342 343
343 342 344 345 345 344 346 347 347
346 348 349 349 348 350 351 351 350
352 353 353 352 354 355 355 354 356
357 357 356 358 359 359 358 360 361
        </DataArray>
        <DataArray type='Int32' Name='offsets' format='ascii'>
4 8 12 16 20 24 28 32 36
40 44 48 52 56 60 64 68 72
76 80 84 88 92 96 100 104 108
112 116 120 124 128 132 136 140 144
148 152 156 160 164 168 172 176 180
184 188 192 196 200 204 208 212 216
220 224 228 232 236 240 244 248 252
256 260 264 268 272 276 280 284 288
292 296 300 304 308 312 316 320 324
328 332 336 340 344 348 352 356 360
364 368 372 376 380 384 388 392 396
400 404 408 412 416 420 424 428 432
436 440 444 448 452 456 460 464 468
472 476 480 484 488 492 496 500 504
508 512 516 520 524 528 532 536 540
544 548 552 556 560 564 568 572 576
580 584 588 592 596 600 604 608 612
616 620 624 628 632 636 640 644 648
652 656 660 664 668 672 676 680 684
688 692 696 700 704 708 712 716 720
        </DataArray>
      </Polys>
      <CellData>
        <DataArray type='Float32' Name='k' format='ascii'>
0.179574 0.179574 0.179574 0.179574 0.179574 0.179574 0.179574 0.179574 0.179574
0.179574 0.179574 0.179574 0.179574 0.179574 0.179574 0.179574 0.179574 0.179574
0.179574 0.179574 0.179574 0.179574 0.179574 0.179574 0.179574 0.179574 0.179574
0.179574 0.179574 0.179574 0.179574 0.179574 0.179574 0.179574 0.179574 0.179574
0.179574 0.179574 0.179574 0.179574 0.179574 0.179574 0.179574 0.179574 0.179574
0.179574 0.179574 0.179574 0.179574 0.179574 0.179574 0.179574 0.179574 0.179574
0.179574 0.179574 0.179574 0.179574 0.179574 0.179574 0.179574 0.179574 0.179574
0.179574 0.179574 0.179574 0.179574 0.179574 0.179574 0.179574 0.179574 0.179574
0.179574 0.179574 0.179574 0.179574 0.179574 0.179574 0.179574 0.179574 0.179574
0.179574 0.179574 0.179574 0.179574 0.179574 0.179574 0.179574 0.179574 0.179574
0.179574 0.179574 0.179574 0.179574 0.179574 0.179574 0.179574 0.179574 0.179574
0.179574 0.179574 0.179574 0.179574 0.179574 0.179574 0.179574 0.179574 0.179574
0.179574 0.179574 0.179574 0.179574 0.179574 0.179574 0.179574 0.179574 0.179574
0.179574 0.179574 0.179574 0.179574 0.179574 0.179574 0.179574 0.179574 0.179574
0.179574 0.179574 0.179574 0.179574 0.179574 0.179574 0.179574 0.179574 0.179574
0.179574 0.179574 0.179574 0.179574 0.179574 0.179574 0.179574 0.179574 0.179574
0.179574 0.179574 0.179574 0.179574 0.179574 0.179574 0.179574 0.179574 0.179574
0.179574 0.179574 0.179574 0.179574 0.179574 0.179574 0.179574 0.179574 0.179574
0.179574 0.179574 0.179574 0.179574 0.179574 0.179574 0.179574 0.179574 0.179574
0.179574 0.179574 0.179574 0.179574 0.179574 0.179574 0.179574 0.179574 0.179574
        </DataArray>
        <DataArray type='Float32' Name='nut' format='ascii'>
5.90667e-05 0.000176182 0.000568272 0.000568272 0.000568272 0.000568272 0.000568272 0.000568272 0.000568272
0.000568272 0.000568272 0.000568272 0.000568272 0.000568272 0.000568272 0.000568272 0.000568272 0.000568272
0.000568272 0.000568272 0.000568272 0.000568272 0.000568272 0.000568272 0.000568272 0.000568272 0.000568272
0.000568272 0.000568272 0.000568272 0.000568272 0.000568272 0.000568272 0.000568272 0.000568272 0.000568272
0.000568272 0.000568272 0.000568272 0.000568272 0.000568272 0.000568272 0.000568272 0.000568272 0.000568272
0.000568272 0.000568272 0.000568272 0.000568272 0.000568272 0.000568272 0.000568272 0.000568272 0.000568272
0.000568272 0.000568272 0.000568272 0.000568272 0.000568272 0.000568272 0.000568272 0.000568272 0.000568272
0.000568272 0.000568272 0.000568272 0.000568272 0.000568272 0.000568272 0.000568272 0.000568272 0.000568272
0.000568272 0.000568272 0.000568272 0.000568272 0.000568272 0.000568272 0.000568272 0.000568272 0.000568272
0.000568272 0.000568272 0.000568272 0.000568272 0.000568272 0.000568272 0.000568272 0.000568272 0.000568272
0.000568272 0.000568272 0.000568272 0.000568272 0.000568272 0.000568272 0.000568272 0.000568272 0.000568272
0.000568272 0.000568272 0.000568272 0.000568272 0.000568272 0.000568272 0.000568272 0.000568272 0.000568272
0.000568272 0.000568272 0.000568272 0.000568272 0.000568272 0.000568272 0.000568272 0.000568272 0.000568272
0.000568272 0.000568272 0.000568272 0.000568272 0.000568272 0.000568272 0.000568272 0.000568272 0.000568272
0.000568272 0.000568272 0.000568272 0.000568272 0.000568272 0.000568272 0.000568272 0.000568272 0.000568272
0.000568272 0.000568272 0.000568272 0.000568272 0.000568272 0.000568272 0.000568272 0.000568272 0.000568272
0.000568272 0.000568272 0.000568272 0.000568272 0.000568272 0.000568272 0.000568272 0.000568272 0.000568272
0.000568272 0.000568272 0.000568272 0.000568272 0.000568272 0.000568272 0.000568272 0.000568272 0.000568272
0.000568272 0.000568272 0.000568272 0.000568272 0.000568272 0.000568272 0.000568272 0.000568272 0.000568272
0.000568272 0.000568272 0.000568272 0.000568272 0.000568272 0.000568272 0.000568272 0.000568272 0.000568272
        </DataArray>
        <DataArray type='Float32' Name='omega' format='ascii'>
316 316 316 316 316 316 316 316 316
316 316 316 316 316 316 316 316 316
316 316 316 316 316 316 316 316 316
316 316 316 316 316 316 316 316 316
316 316 316 316 316 316 316 316 316
316 316 316 316 316 316 316 316 316
316 316 316 316 316 316 316 316 316
316 316 316 316 316 316 316 316 316
316 316 316 316 316 316 316 316 316
316 316 316 316 316 316 316 316 316
316 316 316 316 316 316 316 316 316
316 316 316 316 316 316 316 316 316
316 316 316 316 316 316 316 316 316
316 316 316 316 316 316 316 316 316
316 316 316 316 316 316 316 316 316
316 316 316 316 316 316 316 316 316
316 316 316 316 316 316 316 316 316
316 316 316 316 316 316 316 316 316
316 316 316 316 316 316 316 316 316
316 316 316 316 316 316 316 316 316
        </DataArray>
        <DataArray type='Float32' Name='p' format='ascii'>
31.3038 29.7125 28.6454 27.9399 27.3341 26.8538 26.4592 26.1255 25.8356
25.5785 25.3464 25.1339 24.9371 24.7531 24.5797 24.4155 24.2589 24.1091
23.9652 23.8265 23.6926 23.5628 23.4369 23.3144 23.1953 23.0791 22.9656
22.8548 22.7464 22.6403 22.5364 22.4345 22.3346 22.2366 22.1404 22.0458
21.9529 21.8616 21.7718 21.6835 21.5966 21.5111 21.427 21.3441 21.2625
21.1821 21.1028 21.0248 20.9479 20.872 20.7973 20.7236 20.6509 20.5792
20.5085 20.4387 20.3699 20.3019 20.2349 20.1688 20.1035 20.039 19.9754
19.9126 19.8506 19.7893 19.7288 19.6691 19.6101 19.5518 19.4942 19.4374
19.3812 19.3256 19.2708 19.2166 19.163 19.11 19.0577 19.006 18.9548
18.9043 18.8543 18.8049 18.7561 18.7078 18.66 18.6128 18.5661 18.5199
18.4742 18.429 18.3843 18.3402 18.2964 18.2532 18.2104 18.1681 18.1262
18.0848 18.0438 18.0033 17.9632 17.9235 17.8843 17.8454 17.807 17.769
17.7314 17.6941 17.6573 17.6209 17.5848 17.5492 17.5139 17.479 17.4445
17.4103 17.3765 17.3431 17.31 17.2774 17.245 17.2131 17.1815 17.1502
17.1193 17.0888 17.0587 17.0289 16.9994 16.9703 16.9416 16.9133 16.8853
16.8577 16.8304 16.8036 16.7771 16.751 16.7252 16.6999 16.675 16.6504
16.6263 16.6025 16.5792 16.5563 16.5339 16.5119 16.4903 16.4692 16.4485
16.4284 16.4087 16.3895 16.3709 16.3527 16.3351 16.3181 16.3016 16.2857
16.2705 16.2558 16.2418 16.2285 16.2158 16.2039 16.1927 16.1822 16.1725
16.1637 16.1557 16.1485 16.1423 16.137 16.1327 16.1293 16.1271 16.1259
        </DataArray>
        <DataArray type='Float32' Name='U' NumberOfComponents='3' format='ascii'>
34.6 0 0 34.6 0 0 34.6 0 0
34.6 0 0 34.6 0 0 34.6 0 0
34.6 0 0 34.6 0 0 34.6 0 0
34.6 0 0 34.6 0 0 34.6 0 0
34.6 0 0 34.6 0 0 34.6 0 0
34.6 0 0 34.6 0 0 34.6 0 0
34.6 0 0 34.6 0 0 34.6 0 0
34.6 0 0 34.6 0 0 34.6 0 0
34.6 0 0 34.6 0 0 34.6 0 0
34.6 0 0 34.6 0 0 34.6 0 0
34.6 0 0 34.6 0 0 34.6 0 0
34.6 0 0 34.6 0 0 34.6 0 0
34.6 0 0 34.6 0 0 34.6 0 0
34.6 0 0 34.6 0 0 34.6 0 0
34.6 0 0 34.6 0 0 34.6 0 0
34.6 0 0 34.6 0 0 34.6 0 0
34.6 0 0 34.6 0 0 34.6 0 0
34.6 0 0 34.6 0 0 34.6 0 0
34.6 0 0 34.6 0 0 34.6 0 0
34.6 0 0 34.6 0 0 34.6 0 0
34.6 0 0 34.6 0 0 34.6 0 0
34.6 0 0 34.6 0 0 34.6 0 0
34.6 0 0 34.6 0 0 34.6 0 0
34.6 0 0 34.6 0 0 34.6 0 0
34.6 0 0 34.6 0 0 34.6 0 0
34.6 0 0 34.6 0 0 34.6 0 0
34.6 0 0 34.6 0 0 34.6 0 0
34.6 0 0 34.6 0 0 34.6 0 0
34.6 0 0 34.6 0 0 34.6 0 0
34.6 0 0 34.6 0 0 34.6 0 0
34.6 0 0 34.6 0 0 34.6 0 0
34.6 0 0 34.6 0 0 34.6 0 0
34.6 0 0 34.6 0 0 34.6 0 0
34.6 0 0 34.6 0 0 34.6 0 0
34.6 0 0 34.6 0 0 34.6 0 0
34.6 0 0 34.6 0 0 34.6 0 0
34.6 0 0 34.6 0 0 34.6 0 0
34.6 0 0 34.6 0 0 34.6 0 0
34.6 0 0 34.6 0 0 34.6 0 0
34.6 0 0 34.6 0 0 34.6 0 0
34.6 0 0 34.6 0 0 34.6 0 0
34.6 0 0 34.6 0 0 34.6 0 0
34.6 0 0 34.6 0 0 34.6 0 0
34.6 0 0 34.6 0 0 34.6 0 0
34.6 0 0 34.6 0 0 34.6 0 0
34.6 0 0 34.6 0 0 34.6 0 0
34.6 0 0 34.6 0 0 34.6 0 0
34.6 0 0 34.6 0 0 34.6 0 0
34.6 0 0 34.6 0 0 34.6 0 0
34.6 0 0 34.6 0 0 34.6 0 0
34.6 0 0 34.6 0 0 34.6 0 0
34.6 0 0 34.6 0 0 34.6 0 0
34.6 0 0 34.6 0 0 34.6 0 0
34.6 0 0 34.6 0 0 34.6 0 0
34.6 0 0 34.6 0 0 34.6 0 0
34.6 0 0 34.6 0 0 34.6 0 0
34.6 0 0 34.6 0 0 34.6 0 0
34.6 0 0 34.6 0 0 34.6 0 0
34.6 0 0 34.6 0 0 34.6 0 0
34.6 0 0 34.6 0 0 34.6 0 0
        </DataArray>
      </CellData>
      <PointData>
        <DataArray type='Float32' Name='k' format='ascii'>
0.179574 0.179574 0.179574 0.179574 0.179574 0.179574 0.179574 0.179574 0.179574
0.179574 0.179574 0.179574 0.179574 0.179574 0.179574 0.179574 0.179574 0.179574
0.179574 0.179574 0.179574 0.179574 0.179574 0.179574 0.179574 0.179574 0.179574
0.179574 0.179574 0.179574 0.179574 0.179574 0.179574 0.179574 0.179574 0.179574
0.179574 0.179574 0.179574 0.179574 0.179574 0.179574 0.179574 0.179574 0.179574
0.179574 0.179574 0.179574 0.179574 0.179574 0.179574 0.179574 0.179574 0.179574
0.179574 0.179574 0.179574 0.179574 0.179574 0.179574 0.179574 0.179574 0.179574
0.179574 0.179574 0.179574 0.179574 0.179574 0.179574 0.179574 0.179574 0.179574
0.179574 0.179574 0.179574 0.179574 0.179574 0.179574 0.179574 0.179574 0.179574
0.179574 0.179574 0.179574 0.179574 0.179574 0.179574 0.179574 0.179574 0.179574
0.179574 0.179574 0.179574 0.179574 0.179574 0.179574 0.179574 0.179574 0.179574
0.179574 0.179574 0.179574 0.179574 0.179574 0.179574 0.179574 0.179574 0.179574
0.179574 0.179574 0.179574 0.179574 0.179574 0.179574 0.179574 0.179574 0.179574
0.179574 0.179574 0.179574 0.179574 0.179574 0.179574 0.179574 0.179574 0.179574
0.179574 0.179574 0.179574 0.179574 0.179574 0.179574 0.179574 0.179574 0.179574
0.179574 0.179574 0.179574 0.179574 0.179574 0.179574 0.179574 0.179574 0.179574
0.179574 0.179574 0.179574 0.179574 0.179574 0.179574 0.179574 0.179574 0.179574
0.179574 0.179574 0.179574 0.179574 0.179574 0.179574 0.179574 0.179574 0.179574
0.179574 0.179574 0.179574 0.179574 0.179574 0.179574 0.179574 0.179574 0.179574
0.179574 0.179574 0.179574 0.179574 0.179574 0.179574 0.179574 0.179574 0.179574
0.179574 0.179574 0.179574 0.179574 0.179574 0.179574 0.179574 0.179574 0.179574
0.179574 0.179574 0.179574 0.179574 0.179574 0.179574 0.179574 0.179574 0.179574
0.179574 0.179574 0.179574 0.179574 0.179574 0.179574 0.179574 0.179574 0.179574
0.179574 0.179574 0.179574 0.179574 0.179574 0.179574 0.179574 0.179574 0.179574
0.179574 0.179574 0.179574 0.179574 0.179574 0.179574 0.179574 0.179574 0.179574
0.179574 0.179574 0.179574 0.179574 0.179574 0.179574 0.179574 0.179574 0.179574
0.179574 0.179574 0.179574 0.179574 0.179574 0.179574 0.179574 0.179574 0.179574
0.179574 0.179574 0.179574 0.179574 0.179574 0.179574 0.179574 0.179574 0.179574
0.179574 0.179574 0.179574 0.179574 0.179574 0.179574 0.179574 0.179574 0.179574
0.179574 0.179574 0.179574 0.179574 0.179574 0.179574 0.179574 0.179574 0.179574
0.179574 0.179574 0.179574 0.179574 0.179574 0.179574 0.179574 0.179574 0.179574
0.179574 0.179574 0.179574 0.179574 0.179574 0.179574 0.179574 0.179574 0.179574
0.179574 0.179574 0.179574 0.179574 0.179574 0.179574 0.179574 0.179574 0.179574
0.179574 0.179574 0.179574 0.179574 0.179574 0.179574 0.179574 0.179574 0.179574
0.179574 0.179574 0.179574 0.179574 0.179574 0.179574 0.179574 0.179574 0.179574
0.179574 0.179574 0.179574 0.179574 0.179574 0.179574 0.179574 0.179574 0.179574
0.179574 0.179574 0.179574 0.179574 0.179574 0.179574 0.179574 0.179574 0.179574
0.179574 0.179574 0.179574 0.179574 0.179574 0.179574 0.179574 0.179574 0.179574
0.179574 0.179574 0.179574 0.179574 0.179574 0.179574 0.179574 0.179574 0.179574
0.179574 0.179574 0.179574 0.179574 0.179574 0.179574 0.179574 0.179574 0.179574
0.179574 0.179574
        </DataArray>
        <DataArray type='Float32' Name='nut' format='ascii'>
5.90667e-05 5.90667e-05 0.000117624 0.000117624 0.000372226 0.000372226 0.000568272 0.000568272 0.000568272
0.000568272 0.000568272 0.000568272 0.000568272 0.000568272 0.000568272 0.000568272 0.000568272 0.000568272
0.000568272 0.000568272 0.000568272 0.000568272 0.000568272 0.000568272 0.000568272 0.000568272 0.000568272
0.000568272 0.000568272 0.000568272 0.000568272 0.000568272 0.000568272 0.000568272 0.000568272 0.000568272
0.000568272 0.000568272 0.000568272 0.000568272 0.000568272 0.000568272 0.000568272 0.000568272 0.000568272
0.000568272 0.000568272 0.000568272 0.000568272 0.000568272 0.000568272 0.000568272 0.000568272 0.000568272
0.000568272 0.000568272 0.000568272 0.000568272 0.000568272 0.000568272 0.000568272 0.000568272 0.000568272
0.000568272 0.000568272 0.000568272 0.000568272 0.000568272 0.000568272 0.000568272 0.000568272 0.000568272
0.000568272 0.000568272 0.000568272 0.000568272 0.000568272 0.000568272 0.000568272 0.000568272 0.000568272
0.000568272 0.000568272 0.000568272 0.000568272 0.000568272 0.000568272 0.000568272 0.000568272 0.000568272
0.000568272 0.000568272 0.000568272 0.000568272 0.000568272 0.000568272 0.000568272 0.000568272 0.000568272
0.000568272 0.000568272 0.000568272 0.000568272 0.000568272 0.000568272 0.000568272 0.000568272 0.000568272
0.000568272 0.000568272 0.000568272 0.000568272 0.000568272 0.000568272 0.000568272 0.000568272 0.000568272
0.000568272 0.000568272 0.000568272 0.000568272 0.000568272 0.000568272 0.000568272 0.000568272 0.000568272
0.000568272 0.000568272 0.000568272 0.000568272 0.000568272 0.000568272 0.000568272 0.000568272 0.000568272
0.000568272 0.000568272 0.000568272 0.000568272 0.000568272 0.000568272 0.000568272 0.000568272 0.000568272
0.000568272 0.000568272 0.000568272 0.000568272 0.000568272 0.000568272 0.000568272 0.000568272 0.000568272
0.000568272 0.000568272 0.000568272 0.000568272 0.000568272 0.000568272 0.000568272 0.000568272 0.000568272
0.000568272 0.000568272 0.000568272 0.000568272 0.000568272 0.000568272 0.000568272 0.000568272 0.000568272
0.000568272 0.000568272 0.000568272 0.000568272 0.000568272 0.000568272 0.000568272 0.000568272 0.000568272
0.000568272 0.000568272 0.000568272 0.000568272 0.000568272 0.000568272 0.000568272 0.000568272 0.000568272
0.000568272 0.000568272 0.000568272 0.000568272 0.000568272 0.000568272 0.000568272 0.000568272 0.000568272
0.000568272 0.000568272 0.000568272 0.000568272 0.000568272 0.000568272 0.000568272 0.000568272 0.000568272
0.000568272 0.000568272 0.000568272 0.000568272 0.000568272 0.000568272 0.000568272 0.000568272 0.000568272
0.000568272 0.000568272 0.000568272 0.000568272 0.000568272 0.000568272 0.000568272 0.000568272 0.000568272
0.000568272 0.000568272 0.000568272 0.000568272 0.000568272 0.000568272 0.000568272 0.000568272 0.000568272
0.000568272 0.000568272 0.000568272 0.000568272 0.000568272 0.000568272 0.000568272 0.000568272 0.000568272
0.000568272 0.000568272 0.000568272 0.000568272 0.000568272 0.000568272 0.000568272 0.000568272 0.000568272
0.000568272 0.000568272 0.000568272 0.000568272 0.000568272 0.000568272 0.000568272 0.000568272 0.000568272
0.000568272 0.000568272 0.000568272 0.000568272 0.000568272 0.000568272 0.000568272 0.000568272 0.000568272
0.000568272 0.000568272 0.000568272 0.000568272 0.000568272 0.000568272 0.000568272 0.000568272 0.000568272
0.000568272 0.000568272 0.000568272 0.000568272 0.000568272 0.000568272 0.000568272 0.000568272 0.000568272
0.000568272 0.000568272 0.000568272 0.000568272 0.000568272 0.000568272 0.000568272 0.000568272 0.000568272
0.000568272 0.000568272 0.000568272 0.000568272 0.000568272 0.000568272 0.000568272 0.000568272 0.000568272
0.000568272 0.000568272 0.000568272 0.000568272 0.000568272 0.000568272 0.000568272 0.000568272 0.000568272
0.000568272 0.000568272 0.000568272 0.000568272 0.000568272 0.000568272 0.000568272 0.000568272 0.000568272
0.000568272 0.000568272 0.000568272 0.000568272 0.000568272 0.000568272 0.000568272 0.000568272 0.000568272
0.000568272 0.000568272 0.000568272 0.000568272 0.000568272 0.000568272 0.000568272 0.000568272 0.000568272
0.000568272 0.000568272 0.000568272 0.000568272 0.000568272 0.000568272 0.000568272 0.000568272 0.000568272
0.000568272 0.000568272 0.000568272 0.000568272 0.000568272 0.000568272 0.000568272 0.000568272 0.000568272
0.000568272 0.000568272
        </DataArray>
        <DataArray type='Float32' Name='omega' format='ascii'>
316 316 316 316 316 316 316 316 316
316 316 316 316 316 316 316 316 316
316 316 316 316 316 316 316 316 316
316 316 316 316 316 316 316 316 316
316 316 316 316 316 316 316 316 316
316 316 316 316 316 316 316 316 316
316 316 316 316 316 316 316 316 316
316 316 316 316 316 316 316 316 316
316 316 316 316 316 316 316 316 316
316 316 316 316 316 316 316 316 316
316 316 316 316 316 316 316 316 316
316 316 316 316 316 316 316 316 316
316 316 316 316 316 316 316 316 316
316 316 316 316 316 316 316 316 316
316 316 316 316 316 316 316 316 316
316 316 316 316 316 316 316 316 316
316 316 316 316 316 316 316 316 316
316 316 316 316 316 316 316 316 316
316 316 316 316 316 316 316 316 316
316 316 316 316 316 316 316 316 316
316 316 316 316 316 316 316 316 316
316 316 316 316 316 316 316 316 316
316 316 316 316 316 316 316 316 316
316 316 316 316 316 316 316 316 316
316 316 316 316 316 316 316 316 316
316 316 316 316 316 316 316 316 316
316 316 316 316 316 316 316 316 316
316 316 316 316 316 316 316 316 316
316 316 316 316 316 316 316 316 316
316 316 316 316 316 316 316 316 316
316 316 316 316 316 316 316 316 316
316 316 316 316 316 316 316 316 316
316 316 316 316 316 316 316 316 316
316 316 316 316 316 316 316 316 316
316 316 316 316 316 316 316 316 316
316 316 316 316 316 316 316 316 316
316 316 316 316 316 316 316 316 316
316 316 316 316 316 316 316 316 316
316 316 316 316 316 316 316 316 316
316 316 316 316 316 316 316 316 316
316 316
        </DataArray>
        <DataArray type='Float32' Name='p' format='ascii'>
31.3038 31.3038 30.5082 30.5082 29.179 29.179 28.2926 28.2926 27.637
27.637 27.094 27.094 26.6565 26.6565 26.2924 26.2924 25.9805 25.9805
25.7071 25.7071 25.4625 25.4625 25.2402 25.2402 25.0355 25.0355 24.8451
24.8451 24.6664 24.6664 24.4976 24.4976 24.3372 24.3372 24.184 24.184
24.0372 24.0372 23.8959 23.8959 23.7595 23.7595 23.6277 23.6277 23.4998
23.4998 23.3757 23.3757 23.2549 23.2549 23.1372 23.1372 23.0223 23.0223
22.9102 22.9102 22.8006 22.8006 22.6934 22.6934 22.5884 22.5884 22.4855
22.4855 22.3846 22.3846 22.2856 22.2856 22.1885 22.1885 22.0931 22.0931
21.9994 21.9994 21.9073 21.9073 21.8167 21.8167 21.7277 21.7277 21.6401
21.6401 21.5539 21.5539 21.469 21.469 21.3855 21.3855 21.3033 21.3033
21.2223 21.2223 21.1425 21.1425 21.0638 21.0638 20.9863 20.9863 20.9099
20.9099 20.8346 20.8346 20.7604 20.7604 20.6872 20.6872 20.615 20.615
20.5438 20.5438 20.4736 20.4736 20.4043 20.4043 20.3359 20.3359 20.2684
20.2684 20.2018 20.2018 20.1361 20.1361 20.0713 20.0713 20.0072 20.0072
19.944 19.944 19.8816 19.8816 19.8199 19.8199 19.7591 19.7591 19.699
19.699 19.6396 19.6396 19.5809 19.5809 19.523 19.523 19.4658 19.4658
19.4093 19.4093 19.3534 19.3534 19.2982 19.2982 19.2437 19.2437 19.1898
19.1898 19.1365 19.1365 19.0839 19.0839 19.0318 19.0318 18.9804 18.9804
18.9296 18.9296 18.8793 18.8793 18.8296 18.8296 18.7805 18.7805 18.7319
18.7319 18.6839 18.6839 18.6364 18.6364 18.5894 18.5894 18.543 18.543
18.497 18.497 18.4516 18.4516 18.4067 18.4067 18.3622 18.3622 18.3183
18.3183 18.2748 18.2748 18.2318 18.2318 18.1893 18.1893 18.1472 18.1472
18.1055 18.1055 18.0643 18.0643 18.0236 18.0236 17.9833 17.9833 17.9434
17.9434 17.9039 17.9039 17.8648 17.8648 17.8262 17.8262 17.788 17.788
17.7502 17.7502 17.7127 17.7127 17.6757 17.6757 17.6391 17.6391 17.6029
17.6029 17.567 17.567 17.5315 17.5315 17.4964 17.4964 17.4617 17.4617
17.4274 17.4274 17.3934 17.3934 17.3598 17.3598 17.3266 17.3266 17.2937
17.2937 17.2612 17.2612 17.229 17.229 17.1973 17.1973 17.1658 17.1658
17.1348 17.1348 17.1041 17.1041 17.0737 17.0737 17.0438 17.0438 17.0141
17.0141 16.9849 16.9849 16.956 16.956 16.9275 16.9275 16.8993 16.8993
16.8715 16.8715 16.8441 16.8441 16.817 16.817 16.7903 16.7903 16.764
16.764 16.7381 16.7381 16.7126 16.7126 16.6874 16.6874 16.6627 16.6627
16.6383 16.6383 16.6144 16.6144 16.5909 16.5909 16.5678 16.5678 16.5451
16.5451 16.5229 16.5229 16.5011 16.5011 16.4797 16.4797 16.4589 16.4589
16.4385 16.4385 16.4185 16.4185 16.3991 16.3991 16.3802 16.3802 16.3618
16.3618 16.3439 16.3439 16.3266 16.3266 16.3099 16.3099 16.2937 16.2937
16.2781 16.2781 16.2632 16.2632 16.2488 16.2488 16.2352 16.2352 16.2222
16.2222 16.2099 16.2099 16.1983 16.1983 16.1874 16.1874 16.1774 16.1774
16.1681 16.1681 16.1597 16.1597 16.1521 16.1521 16.1454 16.1454 16.1396
16.1396 16.1348 16.1348 16.131 16.131 16.1282 16.1282 16.1265 16.1265
16.1259 16.1259
        </DataArray>
        <DataArray type='Float32' Name='U' NumberOfComponents='3' format='ascii'>
34.6 0 0 34.6 0 0 34.6 0 0
34.6 0 0 34.6 0 0 34.6 0 0
34.6 0 0 34.6 0 0 34.6 0 0
34.6 0 0 34.6 0 0 34.6 0 0
34.6 0 0 34.6 0 0 34.6 0 0
34.6 0 0 34.6 0 0 34.6 0 0
34.6 0 0 34.6 0 0 34.6 0 0
34.6 0 0 34.6 0 0 34.6 0 0
34.6 0 0 34.6 0 0 34.6 0 0
34.6 0 0 34.6 0 0 34.6 0 0
34.6 0 0 34.6 0 0 34.6 0 0
34.6 0 0 34.6 0 0 34.6 0 0
34.6 0 0 34.6 0 0 34.6 0 0
34.6 0 0 34.6 0 0 34.6 0 0
34.6 0 0 34.6 0 0 34.6 0 0
34.6 0 0 34.6 0 0 34.6 0 0
34.6 0 0 34.6 0 0 34.6 0 0
34.6 0 0 34.6 0 0 34.6 0 0
34.6 0 0 34.6 0 0 34.6 0 0
34.6 0 0 34.6 0 0 34.6 0 0
34.6 0 0 34.6 0 0 34.6 0 0
34.6 0 0 34.6 0 0 34.6 0 0
34.6 0 0 34.6 0 0 34.6 0 0
34.6 0 0 34.6 0 0 34.6 0 0
34.6 0 0 34.6 0 0 34.6 0 0
34.6 0 0 34.6 0 0 34.6 0 0
34.6 0 0 34.6 0 0 34.6 0 0
34.6 0 0 34.6 0 0 34.6 0 0
34.6 0 0 34.6 0 0 34.6 0 0
34.6 0 0 34.6 0 0 34.6 0 0
34.6 0 0 34.6 0 0 34.6 0 0
34.6 0 0 34.6 0 0 34.6 0 0
34.6 0 0 34.6 0 0 34.6 0 0
34.6 0 0 34.6 0 0 34.6 0 0
34.6 0 0 34.6 0 0 34.6 0 0
34.6 0 0 34.6 0 0 34.6 0 0
34.6 0 0 34.6 0 0 34.6 0 0
34.6 0 0 34.6 0 0 34.6 0 0
34.6 0 0 34.6 0 0 34.6 0 0
34.6 0 0 34.6 0 0 34.6 0 0
34.6 0 0 34.6 0 0 34.6 0 0
34.6 0 0 34.6 0 0 34.6 0 0
34.6 0 0 34.6 0 0 34.6 0 0
34.6 0 0 34.6 0 0 34.6 0 0
34.6 0 0 34.6 0 0 34.6 0 0
34.6 0 0 34.6 0 0 34.6 0 0
34.6 0 0 34.6 0 0 34.6 0 0
34.6 0 0 34.6 0 0 34.6 0 0
34.6 0 0 34.6 0 0 34.6 0 0
34.6 0 0 34.6 0 0 34.6 0 0
34.6 0 0 34.6 0 0 34.6 0 0
34.6 0 0 34.6 0 0 34.6 0 0
34.6 0 0 34.6 0 0 34.6 0 0
34.6 0 0 34.6 0 0 34.6 0 0
34.6 0 0 34.6 0 0 34.6 0 0
34.6 0 0 34.6 0 0 34.6 0 0
34.6 0 0 34.6 0 0 34.6 0 0
34.6 0 0 34.6 0 0 34.6 0 0
34.6 0 0 34.6 0 0 34.6 0 0
34.6 0 0 34.6 0 0 34.6 0 0
34.6 0 0 34.6 0 0 34.6 0 0
34.6 0 0 34.6 0 0 34.6 0 0
34.6 0 0 34.6 0 0 34.6 0 0
34.6 0 0 34.6 0 0 34.6 0 0
34.6 0 0 34.6 0 0 34.6 0 0
34.6 0 0 34.6 0 0 34.6 0 0
34.6 0 0 34.6 0 0 34.6 0 0
34.6 0 0 34.6 0 0 34.6 0 0
34.6 0 0 34.6 0 0 34.6 0 0
34.6 0 0 34.6 0 0 34.6 0 0
34.6 0 0 34.6 0 0 34.6 0 0
34.6 0 0 34.6 0 0 34.6 0 0
34.6 0 0 34.6 0 0 34.6 0 0
34.6 0 0 34.6 0 0 34.6 0 0
34.6 0 0 34.6 0 0 34.6 0 0
34.6 0 0 34.6 0 0 34.6 0 0
34.6 0 0 34.6 0 0 34.6 0 0
34.6 0 0 34.6 0 0 34.6 0 0
34.6 0 0 34.6 0 0 34.6 0 0
34.6 0 0 34.6 0 0 34.6 0 0
34.6 0 0 34.6 0 0 34.6 0 0
34.6 0 0 34.6 0 0 34.6 0 0
34.6 0 0 34.6 0 0 34.6 0 0
34.6 0 0 34.6 0 0 34.6 0 0
34.6 0 0 34.6 0 0 34.6 0 0
34.6 0 0 34.6 0 0 34.6 0 0
34.6 0 0 34.6 0 0 34.6 0 0
34.6 0 0 34.6 0 0 34.6 0 0
34.6 0 0 34.6 0 0 34.6 0 0
34.6 0 0 34.6 0 0 34.6 0 0
34.6 0 0 34.6 0 0 34.6 0 0
34.6 0 0 34.6 0 0 34.6 0 0
34.6 0 0 34.6 0 0 34.6 0 0
34.6 0 0 34.6 0 0 34.6 0 0
34.6 0 0 34.6 0 0 34.6 0 0
34.6 0 0 34.6 0 0 34.6 0 0
34.6 0 0 34.6 0 0 34.6 0 0
34.6 0 0 34.6 0 0 34.6 0 0
34.6 0 0 34.6 0 0 34.6 0 0
34.6 0 0 34.6 0 0 34.6 0 0
34.6 0 0 34.6 0 0 34.6 0 0
34.6 0 0 34.6 0 0 34.6 0 0
34.6 0 0 34.6 0 0 34.6 0 0
34.6 0 0 34.6 0 0 34.6 0 0
34.6 0 0 34.6 0 0 34.6 0 0
34.6 0 0 34.6 0 0 34.6 0 0
34.6 0 0 34.6 0 0 34.6 0 0
34.6 0 0 34.6 0 0 34.6 0 0
34.6 0 0 34.6 0 0 34.6 0 0
34.6 0 0 34.6 0 0 34.6 0 0
34.6 0 0 34.6 0 0 34.6 0 0
34.6 0 0 34.6 0 0 34.6 0 0
34.6 0 0 34.6 0 0 34.6 0 0
34.6 0 0 34.6 0 0 34.6 0 0
34.6 0 0 34.6 0 0 34.6 0 0
34.6 0 0 34.6 0 0 34.6 0 0
34.6 0 0 34.6 0 0 34.6 0 0
34.6 0 0 34.6 0 0 34.6 0 0
34.6 0 0 34.6 0 0 34.6 0 0
34.6 0 0 34.6 0 0 34.6 0 0
34.6 0 0 34.6 0 0
        </DataArray>
      </PointData>
    </Piece>
  </PolyData>
</VTKFile>
