<?xml version='1.0'?>
<!-- patch='outlet' time='40' index='40' -->
<VTKFile type='PolyData' version='0.1' byte_order='LittleEndian' header_type='UInt64'>
  <PolyData>
    <FieldData>
      <DataArray type='Float32' Name='TimeValue' NumberOfTuples='1' format='ascii'>
40
      </DataArray>
    </FieldData>
    <Piece NumberOfPoints='362' NumberOfPolys='180'>
      <Points>
        <DataArray type='Float32' Name='Points' NumberOfComponents='3' format='ascii'>
0.67 0 -0.01 0.67 0.000438104 -0.01 0.67 0.000438104 0.01
0.67 0 0.01 0.67 0.000882333 -0.01 0.67 0.000882333 0.01
0.67 0.00133277 -0.01 0.67 0.00133277 0.01 0.67 0.00178951 -0.01
0.67 0.00178951 0.01 0.67 0.00225263 -0.01 0.67 0.00225263 0.01
0.67 0.00272222 -0.01 0.67 0.00272222 0.01 0.67 0.00319838 -0.01
0.67 0.00319838 0.01 0.67 0.00368119 -0.01 0.67 0.00368119 0.01
0.67 0.00417076 -0.01 0.67 0.00417076 0.01 0.67 0.00466716 -0.01
0.67 0.00466716 0.01 0.67 0.00517051 -0.01 0.67 0.00517051 0.01
0.67 0.00568089 -0.01 0.67 0.00568089 0.01 0.67 0.00619841 -0.01
0.67 0.00619841 0.01 0.67 0.00672316 -0.01 0.67 0.00672316 0.01
0.67 0.00725525 -0.01 0.67 0.00725525 0.01 0.67 0.00779477 -0.01
0.67 0.00779477 0.01 0.67 0.00834184 -0.01 0.67 0.00834184 0.01
0.67 0.00889655 -0.01 0.67 0.00889655 0.01 0.67 0.00945902 -0.01
0.67 0.00945902 0.01 0.67 0.0100294 -0.01 0.67 0.0100294 0.01
0.67 0.0106077 -0.01 0.67 0.0106077 0.01 0.67 0.011194 -0.01
0.67 0.011194 0.01 0.67 0.0117886 -0.01 0.67 0.0117886 0.01
0.67 0.0123915 -0.01 0.67 0.0123915 0.01 0.67 0.0130029 -0.01
0.67 0.0130029 0.01 0.67 0.0136227 -0.01 0.67 0.0136227 0.01
0.67 0.0142513 -0.01 0.67 0.0142513 0.01 0.67 0.0148886 -0.01
0.67 0.0148886 0.01 0.67 0.0155348 -0.01 0.67 0.0155348 0.01
0.67 0.0161901 -0.01 0.67 0.0161901 0.01 0.67 0.0168545 -0.01
0.67 0.0168545 0.01 0.67 0.0175282 -0.01 0.67 0.0175282 0.01
0.67 0.0182113 -0.01 0.67 0.0182113 0.01 0.67 0.018904 -0.01
0.67 0.018904 0.01 0.67 0.0196064 -0.01 0.67 0.0196064 0.01
0.67 0.0203186 -0.01 0.67 0.0203186 0.01 0.67 0.0210407 -0.01
0.67 0.0210407 0.01 0.67 0.0217729 -0.01 0.67 0.0217729 0.01
0.67 0.0225154 -0.01 0.67 0.0225154 0.01 0.67 0.0232683 -0.01
0.67 0.0232683 0.01 0.67 0.0240316 -0.01 0.67 0.0240316 0.01
0.67 0.0248057 -0.01 0.67 0.0248057 0.01 0.67 0.0255905 -0.01
0.67 0.0255905 0.01 0.67 0.0263864 -0.01 0.67 0.0263864 0.01
0.67 0.0271933 -0.01 0.67 0.0271933 0.01 0.67 0.0280116 -0.01
0.67 0.0280116 0.01 0.67 0.0288412 -0.01 0.67 0.0288412 0.01
0.67 0.0296825 -0.01 0.67 0.0296825 0.01 0.67 0.0305355 -0.01
0.67 0.0305355 0.01 0.67 0.0314005 -0.01 0.67 0.0314005 0.01
0.67 0.0322776 -0.01 0.67 0.0322776 0.01 0.67 0.0331669 -0.01
0.67 0.0331669 0.01 0.67 0.0340686 -0.01 0.67 0.0340686 0.01
0.67 0.034983 -0.01 0.67 0.034983 0.01 0.67 0.0359101 -0.01
0.67 0.0359101 0.01 0.67 0.0368502 -0.01 0.67 0.0368502 0.01
0.67 0.0378034 -0.01 0.67 0.0378034 0.01 0.67 0.03877 -0.01
0.67 0.03877 0.01 0.67 0.03975 -0.01 0.67 0.03975 0.01
0.67 0.0407438 -0.01 0.67 0.0407438 0.01 0.67 0.0417515 -0.01
0.67 0.0417515 0.01 0.67 0.0427732 -0.01 0.67 0.0427732 0.01
0.67 0.0438092 -0.01 0.67 0.0438092 0.01 0.67 0.0448597 -0.01
0.67 0.0448597 0.01 0.67 0.0459249 -0.01 0.67 0.0459249 0.01
0.67 0.047005 -0.01 0.67 0.047005 0.01 0.67 0.0481002 -0.01
0.67 0.0481002 0.01 0.67 0.0492107 -0.01 0.67 0.0492107 0.01
0.67 0.0503367 -0.01 0.67 0.0503367 0.01 0.67 0.0514785 -0.01
0.67 0.0514785 0.01 0.67 0.0526362 -0.01 0.67 0.0526362 0.01
0.67 0.0538101 -0.01 0.67 0.0538101 0.01 0.67 0.0550004 -0.01
0.67 0.0550004 0.01 0.67 0.0562074 -0.01 0.67 0.0562074 0.01
0.67 0.0574312 -0.01 0.67 0.0574312 0.01 0.67 0.0586721 -0.01
0.67 0.0586721 0.01 0.67 0.0599304 -0.01 0.67 0.0599304 0.01
0.67 0.0612063 -0.01 0.67 0.0612063 0.01 0.67 0.0625 -0.01
0.67 0.0625 0.01 0.67 0.0638118 -0.01 0.67 0.0638118 0.01
0.67 0.0651419 -0.01 0.67 0.0651419 0.01 0.67 0.0664906 -0.01
0.67 0.0664906 0.01 0.67 0.0678582 -0.01 0.67 0.0678582 0.01
0.67 0.0692449 -0.01 0.67 0.0692449 0.01 0.67 0.070651 -0.01
0.67 0.070651 0.01 0.67 0.0720767 -0.01 0.67 0.0720767 0.01
0.67 0.0735224 -0.01 0.67 0.0735224 0.01 0.67 0.0749882 -0.01
0.67 0.0749882 0.01 0.67 0.0764746 -0.01 0.67 0.0764746 0.01
0.67 0.0779817 -0.01 0.67 0.0779817 0.01 0.67 0.07951 -0.01
0.67 0.07951 0.01 0.67 0.0810595 -0.01 0.67 0.0810595 0.01
0.67 0.0826308 -0.01 0.67 0.0826308 0.01 0.67 0.084224 -0.01
0.67 0.084224 0.01 0.67 0.0858394 -0.01 0.67 0.0858394 0.01
0.67 0.0874775 -0.01 0.67 0.0874775 0.01 0.67 0.0891384 -0.01
0.67 0.0891384 0.01 0.67 0.0908226 -0.01 0.67 0.0908226 0.01
0.67 0.0925303 -0.01 0.67 0.0925303 0.01 0.67 0.0942619 -0.01
0.67 0.0942619 0.01 0.67 0.0960177 -0.01 0.67 0.0960177 0.01
0.67 0.097798 -0.01 0.67 0.097798 0.01 0.67 0.0996032 -0.01
0.67 0.0996032 0.01 0.67 0.101434 -0.01 0.67 0.101434 0.01
0.67 0.10329 -0.01 0.67 0.10329 0.01 0.67 0.105172 -0.01
0.67 0.105172 0.01 0.67 0.10708 -0.01 0.67 0.10708 0.01
0.67 0.109015 -0.01 0.67 0.109015 0.01 0.67 0.110977 -0.01
0.67 0.110977 0.01 0.67 0.112966 -0.01 0.67 0.112966 0.01
0.67 0.114984 -0.01 0.67 0.114984 0.01 0.67 0.117029 -0.01
0.67 0.117029 0.01 0.67 0.119103 -0.01 0.67 0.119103 0.01
0.67 0.121206 -0.01 0.67 0.121206 0.01 0.67 0.123339 -0.01
0.67 0.123339 0.01 0.67 0.125501 -0.01 0.67 0.125501 0.01
0.67 0.127693 -0.01 0.67 0.127693 0.01 0.67 0.129917 -0.01
0.67 0.129917 0.01 0.67 0.132171 -0.01 0.67 0.132171 0.01
0.67 0.134456 -0.01 0.67 0.134456 0.01 0.67 0.136774 -0.01
0.67 0.136774 0.01 0.67 0.139124 -0.01 0.67 0.139124 0.01
0.67 0.141507 -0.01 0.67 0.141507 0.01 0.67 0.143923 -0.01
0.67 0.143923 0.01 0.67 0.146373 -0.01 0.67 0.146373 0.01
0.67 0.148858 -0.01 0.67 0.148858 0.01 0.67 0.151377 -0.01
0.67 0.151377 0.01 0.67 0.153931 -0.01 0.67 0.153931 0.01
0.67 0.156521 -0.01 0.67 0.156521 0.01 0.67 0.159147 -0.01
0.67 0.159147 0.01 0.67 0.16181 -0.01 0.67 0.16181 0.01
0.67 0.16451 -0.01 0.67 0.16451 0.01 0.67 0.167247 -0.01
0.67 0.167247 0.01 0.67 0.170023 -0.01 0.67 0.170023 0.01
0.67 0.172838 -0.01 0.67 0.172838 0.01 0.67 0.175692 -0.01
0.67 0.175692 0.01 0.67 0.178587 -0.01 0.67 0.178587 0.01
0.67 0.181521 -0.01 0.67 0.181521 0.01 0.67 0.184497 -0.01
0.67 0.184497 0.01 0.67 0.187514 -0.01 0.67 0.187514 0.01
0.67 0.190573 -0.01 0.67 0.190573 0.01 0.67 0.193675 -0.01
0.67 0.193675 0.01 0.67 0.196821 -0.01 0.67 0.196821 0.01
0.67 0.20001 -0.01 0.67 0.20001 0.01 0.67 0.203244 -0.01
0.67 0.203244 0.01 0.67 0.206524 -0.01 0.67 0.206524 0.01
0.67 0.209849 -0.01 0.67 0.209849 0.01 0.67 0.21322 -0.01
0.67 0.21322 0.01 0.67 0.216639 -0.01 0.67 0.216639 0.01
0.67 0.220105 -0.01 0.67 0.220105 0.01 0.67 0.22362 -0.01
0.67 0.22362 0.01 0.67 0.227185 -0.01 0.67 0.227185 0.01
0.67 0.230798 -0.01 0.67 0.230798 0.01 0.67 0.234463 -0.01
0.67 0.234463 0.01 0.67 0.238179 -0.01 0.67 0.238179 0.01
0.67 0.241946 -0.01 0.67 0.241946 0.01 0.67 0.245766 -0.01
0.67 0.245766 0.01 0.67 0.24964 -0.01 0.67 0.24964 0.01
0.67 0.253568 -0.01 0.67 0.253568 0.01 0.67 0.257551 -0.01
0.67 0.257551 0.01 0.67 0.261589 -0.01 0.67 0.261589 0.01
0.67 0.265684 -0.01 0.67 0.265684 0.01 0.67 0.269836 -0.01
0.67 0.269836 0.01 0.67 0.274046 -0.01 0.67 0.274046 0.01
0.67 0.278315 -0.01 0.67 0.278315 0.01 0.67 0.282644 -0.01
0.67 0.282644 0.01 0.67 0.287033 -0.01 0.67 0.287033 0.01
0.67 0.291483 -0.01 0.67 0.291483 0.01 0.67 0.295996 -0.01
0.67 0.295996 0.01 0.67 0.300572 -0.01 0.67 0.300572 0.01
0.67 0.305212 -0.01 0.67 0.305212 0.01 0.67 0.309916 -0.01
0.67 0.309916 0.01 0.67 0.314687 -0.01 0.67 0.314687 0.01
0.67 0.319524 -0.01 0.67 0.319524 0.01 0.67 0.324429 -0.01
0.67 0.324429 0.01 0.67 0.329402 -0.01 0.67 0.329402 0.01
0.67 0.334445 -0.01 0.67 0.334445 0.01 0.67 0.339558 -0.01
0.67 0.339558 0.01 0.67 0.344743 -0.01 0.67 0.344743 0.01
0.67 0.35 -0.01 0.67 0.35 0.01
        </DataArray>
      </Points>
      <Polys>
        <DataArray type='Int32' Name='connectivity' format='ascii'>
0 1 2 3 1 4 5 2 4
6 7 5 6 8 9 7 8 10
11 9 10 12 13 11 12 14 15
13 14 16 17 15 16 18 19 17
18 20 21 19 20 22 23 21 22
24 25 23 24 26 27 25 26 28
29 27 28 30 31 29 30 32 33
31 32 34 35 33 34 36 37 35
36 38 39 37 38 40 41 39 40
42 43 41 42 44 45 43 44 46
47 45 46 48 49 47 48 50 51
49 50 52 53 51 52 54 55 53
54 56 57 55 56 58 59 57 58
60 61 59 60 62 63 61 62 64
65 63 64 66 67 65 66 68 69
67 68 70 71 69 70 72 73 71
72 74 75 73 74 76 77 75 76
78 79 77 78 80 81 79 80 82
83 81 82 84 85 83 84 86 87
85 86 88 89 87 88 90 91 89
90 92 93 91 92 94 95 93 94
96 97 95 96 98 99 97 98 100
101 99 100 102 103 101 102 104 105
103 104 106 107 105 106 108 109 107
108 110 111 109 110 112 113 111 112
114 115 113 114 116 117 115 116 118
119 117 118 120 121 119 120 122 123
121 122 124 125 123 124 126 127 125
126 128 129 127 128 130 131 129 130
132 133 131 132 134 135 133 134 136
137 135 136 138 139 137 138 140 141
139 140 142 143 141 142 144 145 143
144 146 147 145 146 148 149 147 148
150 151 149 150 152 153 151 152 154
155 153 154 156 157 155 156 158 159
157 158 160 161 159 160 162 163 161
162 164 165 163 164 166 167 165 166
168 169 167 168 170 171 169 170 172
173 171 172 174 175 173 174 176 177
175 176 178 179 177 178 180 181 179
180 182 183 181 182 184 185 183 184
186 187 185 186 188 189 187 188 190
191 189 190 192 193 191 192 194 195
193 194 196 197 195 196 198 199 197
198 200 201 199 200 202 203 201 202
204 205 203 204 206 207 205 206 208
209 207 208 210 211 209 210 212 213
211 212 214 215 213 214 216 217 215
216 218 219 217 218 220 221 219 220
222 223 221 222 224 225 223 224 226
227 225 226 228 229 227 228 230 231
229 230 232 233 231 232 234 235 233
234 236 237 235 236 238 239 237 238
240 241 239 240 242 243 241 242 244
245 243 244 246 247 245 246 248 249
247 248 250 251 249 250 252 253 251
252 254 255 253 254 256 257 255 256
258 259 257 258 260 261 259 260 262
263 261 262 264 265 263 264 266 267
265 266 268 269 267 268 270 271 269
270 272 273 271 272 274 275 273 274
276 277 275 276 278 279 277 278 280
281 279 280 282 283 281 282 284 285
283 284 286 287 285 286 288 289 287
288 290 291 289 290 292 293 291 292
294 295 293 294 296 297 295 296 298
299 297 298 300 301 299 300 302 303
301 302 304 305 303 304 306 307 305
306 308 309 307 308 310 311 309 310
312 313 311 312 314 315 313 314 316
317 315 316 318 319 317 318 320 321
319 320 322 323 321 322 324 325 323
324 326 327 325 326 328 329 327 328
330 331 329 330 332 333 331 332 334
335 333 334 336 337 335 336 338 339
337 338 340 341 339 340 342 343 341
342 344 345 343 344 346 347 345 346
348 349 347 348 350 351 349 350 352
353 351 352 354 355 353 354 356 357
355 356 358 359 357 358 360 361 359
        </DataArray>
        <DataArray type='Int32' Name='offsets' format='ascii'>
4 8 12 16 20 24 28 32 36
40 44 48 52 56 60 64 68 72
76 80 84 88 92 96 100 104 108
112 116 120 124 128 132 136 140 144
148 152 156 160 164 168 172 176 180
184 188 192 196 200 204 208 212 216
220 224 228 232 236 240 244 248 252
256 260 264 268 272 276 280 284 288
292 296 300 304 308 312 316 320 324
328 332 336 340 344 348 352 356 360
364 368 372 376 380 384 388 392 396
400 404 408 412 416 420 424 428 432
436 440 444 448 452 456 460 464 468
472 476 480 484 488 492 496 500 504
508 512 516 520 524 528 532 536 540
544 548 552 556 560 564 568 572 576
580 584 588 592 596 600 604 608 612
616 620 624 628 632 636 640 644 648
652 656 660 664 668 672 676 680 684
688 692 696 700 704 708 712 716 720
        </DataArray>
      </Polys>
      <CellData>
        <DataArray type='Float32' Name='k' format='ascii'>
5.56758 6.08124 5.40287 4.60811 3.68168 2.64042 1.65991 0.916794 0.482374
0.294662 0.226891 0.201208 0.188592 0.180921 0.176556 0.174604 0.173988 0.173986
0.17418 0.174363 0.174459 0.174458 0.174376 0.174236 0.174059 0.173861 0.173657
0.173456 0.173267 0.173097 0.172949 0.172826 0.172729 0.172657 0.17261 0.172587
0.172586 0.172606 0.172644 0.172698 0.172762 0.172832 0.1729 0.172961 0.173013
0.173051 0.173075 0.173087 0.173087 0.173077 0.17306 0.173038 0.17301 0.172978
0.172937 0.172889 0.172836 0.172773 0.172696 0.172606 0.172501 0.172376 0.17223
0.172061 0.171868 0.17165 0.171406 0.171137 0.170841 0.17052 0.170173 0.1698
0.169404 0.168986 0.168547 0.168088 0.167612 0.167121 0.166616 0.166099 0.165573
0.165038 0.164497 0.163952 0.163402 0.162851 0.162299 0.161747 0.161196 0.160647
0.1601 0.159556 0.159016 0.158481 0.15795 0.157425 0.156906 0.156394 0.155888
0.155389 0.154897 0.154413 0.153936 0.153468 0.153007 0.152554 0.152109 0.151672
0.151244 0.150825 0.150414 0.150011 0.149617 0.149231 0.148854 0.148486 0.148126
0.147774 0.147431 0.147096 0.146769 0.146451 0.146141 0.145839 0.145545 0.145258
0.144979 0.144708 0.144444 0.144187 0.143937 0.143694 0.143457 0.143227 0.143004
0.142787 0.142577 0.142372 0.142173 0.141979 0.141791 0.141609 0.141431 0.141259
0.141091 0.140928 0.14077 0.140616 0.140467 0.140321 0.14018 0.140043 0.139909
0.139779 0.139653 0.13953 0.139411 0.139294 0.139181 0.139071 0.138964 0.13886
0.138759 0.13866 0.138564 0.138471 0.13838 0.138291 0.138205 0.13812 0.138037
0.137954 0.137872 0.137779 0.137677 0.137525 0.137315 0.137052 0.136939 0.136671
        </DataArray>
        <DataArray type='Float32' Name='nut' format='ascii'>
8.97113e-05 0.000258203 0.000383314 0.000417602 0.000381663 0.000312783 0.000246838 0.000198 0.000158293
0.000153374 0.000164798 0.000196434 0.000269068 0.000391963 0.000415878 0.000433419 0.000447624 0.000459808
0.000470628 0.000480483 0.000489644 0.000498284 0.000506499 0.000514321 0.000521742 0.000528738 0.000535284
0.000541364 0.000546977 0.00055214 0.000556878 0.000561229 0.000565231 0.000568926 0.000572355 0.000575555
0.000578559 0.000581396 0.000584089 0.000586657 0.000589111 0.000591458 0.0005937 0.000595838 0.00059787
0.000599797 0.000601618 0.000603336 0.000604954 0.000606476 0.000607907 0.000609251 0.000610511 0.000611691
0.000612786 0.000613804 0.000614749 0.000615616 0.000616401 0.000617106 0.000617729 0.000618263 0.000618706
0.000619056 0.000619311 0.00061947 0.000619533 0.000619501 0.000619375 0.000619156 0.000618846 0.00061845
0.000617973 0.00061742 0.000616794 0.000616103 0.000615351 0.000614546 0.000613692 0.000612795 0.000611862
0.000610897 0.000609906 0.000608893 0.000607862 0.000606817 0.000605762 0.000604699 0.000603631 0.000602561
0.000601491 0.000600423 0.000599357 0.000598297 0.000597243 0.000596197 0.000595161 0.000594134 0.000593119
0.000592117 0.000591127 0.000590151 0.00058919 0.000588243 0.000587312 0.000586396 0.000585497 0.000584615
0.000583749 0.000582902 0.000582071 0.000581259 0.000580465 0.000579689 0.000578931 0.000578192 0.000577472
0.00057677 0.000576087 0.000575422 0.000574776 0.000574148 0.000573539 0.000572949 0.000572377 0.000571821
0.000571283 0.000570763 0.000570261 0.000569775 0.000569305 0.00056885 0.000568412 0.00056799 0.000567583
0.000567192 0.000566815 0.000566452 0.000566103 0.000565767 0.000565445 0.000565135 0.000564838 0.000564552
0.000564279 0.000564017 0.000563766 0.000563525 0.000563295 0.000563075 0.000562865 0.000562664 0.000562473
0.00056229 0.000562115 0.000561949 0.00056179 0.000561639 0.000561495 0.000561358 0.000561228 0.000561104
0.000560985 0.000560872 0.000560763 0.000560657 0.000560554 0.00056045 0.000560343 0.000560226 0.000560089
0.000559905 0.000559637 0.000559156 0.000558227 0.00055619 0.000552052 0.000546949 0.000546062 0.000545639
        </DataArray>
        <DataArray type='Float32' Name='omega' format='ascii'>
54734.3 22612.8 13944.6 10515.2 8659.68 7287.85 6056.24 4630.26 3047.35
1771.92 1045.53 702.155 537.104 461.577 424.537 402.853 388.692 378.389
370.101 362.89 356.297 350.117 344.278 338.77 333.612 328.823 324.42
320.406 316.773 313.502 310.569 307.942 305.59 303.478 301.578 299.861
298.303 296.882 295.579 294.376 293.259 292.213 291.224 290.283 289.382
288.516 287.683 286.883 286.115 285.382 284.682 284.017 283.386 282.786
282.214 281.668 281.149 280.65 280.169 279.703 279.25 278.807 278.371
277.941 277.515 277.091 276.67 276.25 275.829 275.407 274.984 274.557
274.129 273.697 273.263 272.825 272.385 271.942 271.498 271.052 270.604
270.157 269.709 269.262 268.815 268.37 267.926 267.483 267.044 266.606
266.171 265.74 265.311 264.887 264.466 264.049 263.637 263.23 262.827
262.43 262.037 261.65 261.268 260.891 260.52 260.155 259.794 259.44
259.091 258.748 258.411 258.079 257.753 257.433 257.119 256.81 256.507
256.21 255.918 255.631 255.351 255.075 254.805 254.541 254.282 254.027
253.778 253.534 253.294 253.06 252.829 252.604 252.382 252.165 251.953
251.744 251.54 251.34 251.143 250.95 250.761 250.575 250.393 250.214
250.038 249.866 249.696 249.53 249.366 249.205 249.047 248.892 248.739
248.589 248.442 248.297 248.154 248.014 247.876 247.74 247.607 247.476
247.348 247.222 247.099 246.979 246.863 246.75 246.643 246.544 246.456
246.388 246.359 246.404 246.632 247.262 248.735 250.575 250.775 250.479
        </DataArray>
        <DataArray type='Float32' Name='p' format='ascii'>
0 0 0 0 0 0 0 0 0
0 0 0 0 0 0 0 0 0
0 0 0 0 0 0 0 0 0
0 0 0 0 0 0 0 0 0
0 0 0 0 0 0 0 0 0
0 0 0 0 0 0 0 0 0
0 0 0 0 0 0 0 0 0
0 0 0 0 0 0 0 0 0
0 0 0 0 0 0 0 0 0
0 0 0 0 0 0 0 0 0
0 0 0 0 0 0 0 0 0
0 0 0 0 0 0 0 0 0
0 0 0 0 0 0 0 0 0
0 0 0 0 0 0 0 0 0
0 0 0 0 0 0 0 0 0
0 0 0 0 0 0 0 0 0
0 0 0 0 0 0 0 0 0
0 0 0 0 0 0 0 0 0
0 0 0 0 0 0 0 0 0
0 0 0 0 0 0 0 0 0
        </DataArray>
        <DataArray type='Float32' Name='U' NumberOfComponents='3' format='ascii'>
18.1297 -0.00412569 1.58944e-23 22.3439 -0.0103695 4.72049e-24 24.603 -0.0184143 -1.04863e-23
26.2762 -0.0267531 -1.06553e-24 27.7261 -0.0355079 -7.70915e-24 29.045 -0.0449123 3.38829e-24
30.1842 -0.0551381 2.3294e-24 31.0525 -0.0662963 -4.73556e-24 31.63 -0.0792145 4.81998e-24
31.9873 -0.0938746 -4.32741e-24 32.2292 -0.110497 2.45332e-24 32.4137 -0.129477 9.41882e-25
32.5485 -0.148475 6.37869e-25 32.6324 -0.165506 1.60684e-25 32.679 -0.1819 8.36351e-25
32.7013 -0.198968 4.07228e-25 32.7081 -0.21607 3.74301e-25 32.705 -0.232981 -2.09008e-25
32.6959 -0.249705 1.08031e-24 32.6832 -0.266332 4.8573e-25 32.6687 -0.282852 8.39942e-25
32.6533 -0.299253 8.00025e-25 32.6379 -0.315528 1.63417e-25 32.6227 -0.331675 -1.28386e-24
32.608 -0.347691 -8.76063e-25 32.5938 -0.363577 -3.89757e-25 32.5803 -0.379334 -2.09351e-24
32.5676 -0.39496 1.05125e-24 32.5556 -0.410455 -1.14317e-24 32.5445 -0.425816 -5.19926e-25
32.5344 -0.441039 1.46074e-24 32.5252 -0.45612 -2.48251e-24 32.5171 -0.471055 -3.22461e-24
32.51 -0.485838 4.23372e-24 32.5039 -0.500463 7.8394e-25 32.4989 -0.514924 -1.50168e-24
32.4951 -0.529214 -4.81636e-25 32.4923 -0.543325 -5.20699e-25 32.4908 -0.55725 3.70652e-24
32.4904 -0.570978 4.0904e-24 32.4912 -0.584499 4.37436e-24 32.4933 -0.597803 1.32928e-24
32.4967 -0.610891 -2.15209e-24 32.5012 -0.62373 1.36155e-24 32.5068 -0.636293 -5.38479e-24
32.5136 -0.648588 -5.43092e-25 32.5215 -0.660599 -2.14705e-24 32.5305 -0.672311 -4.00503e-24
32.5406 -0.683717 1.28643e-23 32.5518 -0.694808 -2.49013e-24 32.5641 -0.705571 -1.15436e-23
32.5776 -0.715998 -5.62413e-24 32.5923 -0.72608 1.71667e-25 32.6083 -0.73581 3.89967e-24
32.6256 -0.745181 9.38444e-24 32.6442 -0.754186 -5.0976e-24 32.6641 -0.762812 4.43653e-24
32.6853 -0.771076 -9.00664e-24 32.7078 -0.77898 -9.00756e-24 32.7317 -0.786511 1.29923e-24
32.7572 -0.793682 -2.05005e-24 32.7836 -0.800486 1.48068e-23 32.8113 -0.806925 3.00852e-24
32.8401 -0.812999 -1.67787e-24 32.8701 -0.818709 2.96557e-24 32.901 -0.824059 1.32124e-23
32.9329 -0.829053 4.21187e-24 32.9658 -0.833695 2.86893e-24 32.9995 -0.837992 -2.70979e-23
33.034 -0.841949 9.35023e-24 33.0693 -0.845586 3.92546e-23 33.1048 -0.848906 1.66111e-23
33.1406 -0.851935 -1.43718e-23 33.1769 -0.854658 -2.02298e-23 33.2138 -0.857078 2.27671e-24
33.2512 -0.859196 1.56213e-23 33.289 -0.861038 -8.192e-24 33.327 -0.862611 -1.00944e-23
33.3653 -0.863926 -2.90707e-23 33.4037 -0.864992 -9.17957e-24 33.4422 -0.865823 6.38619e-24
33.4807 -0.866432 1.65759e-23 33.5193 -0.866833 -2.51017e-23 33.558 -0.867032 -1.05568e-23
33.5965 -0.867041 3.31058e-24 33.635 -0.866868 5.95186e-25 33.6734 -0.866526 6.01906e-24
33.7116 -0.866022 2.0684e-23 33.7497 -0.865367 -5.86634e-24 33.7875 -0.864586 1.23651e-23
33.8251 -0.863688 -1.3052e-23 33.8625 -0.862673 2.74807e-23 33.8995 -0.861543 6.79144e-25
33.9363 -0.860313 -1.24066e-23 33.9727 -0.85898 -1.13501e-23 34.0088 -0.857553 2.2371e-23
34.0445 -0.856059 -1.75505e-23 34.0799 -0.854515 1.35401e-23 34.1148 -0.852902 2.18807e-23
34.1494 -0.851209 2.63918e-23 34.1835 -0.849446 -2.51528e-23 34.2172 -0.847612 -6.11892e-24
34.2505 -0.845724 -1.06626e-23 34.2834 -0.8438 -2.92071e-23 34.3158 -0.841828 -8.00868e-24
34.3478 -0.839792 -1.71414e-23 34.3793 -0.837687 -2.6169e-23 34.4104 -0.835521 9.20218e-24
34.441 -0.833301 -1.62777e-23 34.4712 -0.831017 8.75016e-26 34.5009 -0.828655 -8.93275e-24
34.5301 -0.826219 -4.20615e-25 34.5589 -0.823716 1.95094e-24 34.5873 -0.821144 -8.54564e-24
34.6151 -0.818497 -1.61223e-23 34.6424 -0.815755 -7.7134e-24 34.6693 -0.812892 8.03651e-24
34.6957 -0.809916 -1.27026e-23 34.7217 -0.806833 1.90935e-23 34.7473 -0.803631 -1.34013e-23
34.7724 -0.800278 2.63129e-25 34.7969 -0.796856 -4.78964e-24 34.8206 -0.793555 -8.75494e-24
34.8444 -0.789723 2.13828e-24 34.8683 -0.785824 6.32903e-25 34.8922 -0.781425 2.15533e-24
34.9151 -0.776773 -5.74849e-24 34.9372 -0.772152 1.83099e-24 34.9587 -0.76742 -3.79995e-25
34.9812 -0.763184 -6.89331e-25 35.0037 -0.758613 -2.72114e-24 35.0264 -0.753608 1.88873e-24
35.0464 -0.747628 -1.47282e-24 35.0658 -0.741433 8.98781e-25 35.0848 -0.734986 -9.27753e-25
35.1034 -0.728267 -6.54472e-24 35.1218 -0.721315 -1.04076e-23 35.1406 -0.714157 7.58723e-24
35.159 -0.706681 -1.77292e-23 35.1772 -0.698872 2.17447e-23 35.195 -0.690714 -3.58521e-24
35.2126 -0.682194 -3.8804e-23 35.2299 -0.6733 -4.45842e-24 35.2469 -0.664019 -3.86922e-23
35.2636 -0.65434 -1.90633e-23 35.2801 -0.64425 -4.967e-23 35.2963 -0.633739 -5.46245e-23
35.3123 -0.622797 -2.26333e-23 35.328 -0.611412 -9.04483e-24 35.3435 -0.599575 3.29371e-24
35.3588 -0.587277 7.34477e-24 35.3739 -0.574507 -5.51754e-23 35.3887 -0.561257 -3.12107e-23
35.4034 -0.547519 1.12079e-23 35.4179 -0.533285 5.70469e-23 35.4322 -0.518549 -4.03209e-24
35.4463 -0.503303 6.47402e-23 35.4603 -0.487541 8.03401e-23 35.4741 -0.47126 5.19398e-23
35.4878 -0.454453 -9.76937e-23 35.5013 -0.437119 2.93616e-23 35.5147 -0.419255 1.44833e-24
35.528 -0.400859 -5.53324e-23 35.5412 -0.381932 -8.9124e-23 35.5544 -0.362474 1.11869e-23
35.5674 -0.342489 -3.6291e-23 35.5804 -0.321981 -1.22735e-22 35.5933 -0.300961 -9.66554e-23
35.6062 -0.27939 6.1546e-23 35.619 -0.257427 3.93208e-23 35.6319 -0.234852 1.24507e-22
35.6448 -0.211709 -1.58482e-22 35.6576 -0.188654 -1.76398e-22 35.6706 -0.164149 3.64837e-23
35.6834 -0.140608 -1.99876e-22 35.6968 -0.114858 -1.25224e-23 35.7098 -0.0910283 1.54677e-22
35.7224 -0.064223 -6.08145e-23 35.7242 -0.0401475 -3.26159e-23 35.6976 -0.0122778 4.22123e-23
        </DataArray>
      </CellData>
      <PointData>
        <DataArray type='Float32' Name='k' format='ascii'>
5.56758 5.82441 5.82441 5.56758 5.74206 5.74206 5.00549 5.00549 4.1449
4.1449 3.16105 3.16105 2.15017 2.15017 1.28836 1.28836 0.699585 0.699585
0.388518 0.388518 0.260777 0.260777 0.21405 0.21405 0.1949 0.1949 0.184757
0.184757 0.178739 0.178739 0.17558 0.17558 0.174296 0.174296 0.173987 0.173987
0.174083 0.174083 0.174271 0.174271 0.174411 0.174411 0.174458 0.174458 0.174417
0.174417 0.174306 0.174306 0.174148 0.174148 0.17396 0.17396 0.173759 0.173759
0.173556 0.173556 0.173362 0.173362 0.173182 0.173182 0.173023 0.173023 0.172888
0.172888 0.172777 0.172777 0.172693 0.172693 0.172633 0.172633 0.172598 0.172598
0.172586 0.172586 0.172596 0.172596 0.172625 0.172625 0.172671 0.172671 0.17273
0.17273 0.172797 0.172797 0.172866 0.172866 0.172931 0.172931 0.172987 0.172987
0.173032 0.173032 0.173063 0.173063 0.173081 0.173081 0.173087 0.173087 0.173082
0.173082 0.173069 0.173069 0.173049 0.173049 0.173024 0.173024 0.172994 0.172994
0.172957 0.172957 0.172913 0.172913 0.172863 0.172863 0.172804 0.172804 0.172734
0.172734 0.172651 0.172651 0.172554 0.172554 0.172439 0.172439 0.172303 0.172303
0.172145 0.172145 0.171964 0.171964 0.171759 0.171759 0.171528 0.171528 0.171272
0.171272 0.170989 0.170989 0.170681 0.170681 0.170346 0.170346 0.169986 0.169986
0.169602 0.169602 0.169195 0.169195 0.168766 0.168766 0.168318 0.168318 0.16785
0.16785 0.167367 0.167367 0.166869 0.166869 0.166358 0.166358 0.165836 0.165836
0.165305 0.165305 0.164768 0.164768 0.164224 0.164224 0.163677 0.163677 0.163127
0.163127 0.162575 0.162575 0.162023 0.162023 0.161471 0.161471 0.160921 0.160921
0.160373 0.160373 0.159828 0.159828 0.159286 0.159286 0.158749 0.158749 0.158216
0.158216 0.157688 0.157688 0.157166 0.157166 0.15665 0.15665 0.156141 0.156141
0.155638 0.155638 0.155143 0.155143 0.154655 0.154655 0.154175 0.154175 0.153702
0.153702 0.153237 0.153237 0.15278 0.15278 0.152331 0.152331 0.151891 0.151891
0.151458 0.151458 0.151035 0.151035 0.150619 0.150619 0.150212 0.150212 0.149814
0.149814 0.149424 0.149424 0.149043 0.149043 0.14867 0.14867 0.148306 0.148306
0.14795 0.14795 0.147602 0.147602 0.147263 0.147263 0.146933 0.146933 0.14661
0.14661 0.146296 0.146296 0.14599 0.14599 0.145692 0.145692 0.145402 0.145402
0.145119 0.145119 0.144843 0.144843 0.144576 0.144576 0.144315 0.144315 0.144062
0.144062 0.143815 0.143815 0.143575 0.143575 0.143342 0.143342 0.143116 0.143116
0.142896 0.142896 0.142682 0.142682 0.142474 0.142474 0.142272 0.142272 0.142076
0.142076 0.141885 0.141885 0.1417 0.1417 0.14152 0.14152 0.141345 0.141345
0.141175 0.141175 0.14101 0.14101 0.140849 0.140849 0.140693 0.140693 0.140542
0.140542 0.140394 0.140394 0.140251 0.140251 0.140111 0.140111 0.139976 0.139976
0.139844 0.139844 0.139716 0.139716 0.139591 0.139591 0.13947 0.13947 0.139352
0.139352 0.139238 0.139238 0.139126 0.139126 0.139018 0.139018 0.138912 0.138912
0.138809 0.138809 0.138709 0.138709 0.138612 0.138612 0.138517 0.138517 0.138425
0.138425 0.138335 0.138335 0.138248 0.138248 0.138162 0.138162 0.138079 0.138079
0.137996 0.137996 0.137913 0.137913 0.137825 0.137825 0.137728 0.137728 0.137601
0.137601 0.13742 0.13742 0.137183 0.137183 0.136995 0.136995 0.136805 0.136805
0.136671 0.136671
        </DataArray>
        <DataArray type='Float32' Name='nut' format='ascii'>
8.97113e-05 0.000173957 0.000173957 8.97113e-05 0.000320758 0.000320758 0.000400458 0.000400458 0.000399632
0.000399632 0.000347223 0.000347223 0.000279811 0.000279811 0.000222419 0.000222419 0.000178147 0.000178147
0.000155834 0.000155834 0.000159086 0.000159086 0.000180616 0.000180616 0.00023275 0.00023275 0.000330515
0.000330515 0.000403921 0.000403921 0.000424649 0.000424649 0.000440521 0.000440521 0.000453716 0.000453716
0.000465218 0.000465218 0.000475556 0.000475556 0.000485064 0.000485064 0.000493964 0.000493964 0.000502392
0.000502392 0.00051041 0.00051041 0.000518031 0.000518031 0.00052524 0.00052524 0.000532011 0.000532011
0.000538324 0.000538324 0.000544171 0.000544171 0.000549559 0.000549559 0.000554509 0.000554509 0.000559053
0.000559053 0.00056323 0.00056323 0.000567078 0.000567078 0.000570641 0.000570641 0.000573955 0.000573955
0.000577057 0.000577057 0.000579978 0.000579978 0.000582743 0.000582743 0.000585373 0.000585373 0.000587884
0.000587884 0.000590285 0.000590285 0.000592579 0.000592579 0.000594769 0.000594769 0.000596854 0.000596854
0.000598833 0.000598833 0.000600707 0.000600707 0.000602477 0.000602477 0.000604145 0.000604145 0.000605715
0.000605715 0.000607191 0.000607191 0.000608579 0.000608579 0.000609881 0.000609881 0.000611101 0.000611101
0.000612239 0.000612239 0.000613295 0.000613295 0.000614277 0.000614277 0.000615183 0.000615183 0.000616008
0.000616008 0.000616753 0.000616753 0.000617417 0.000617417 0.000617996 0.000617996 0.000618484 0.000618484
0.000618881 0.000618881 0.000619183 0.000619183 0.00061939 0.00061939 0.000619502 0.000619502 0.000619517
0.000619517 0.000619438 0.000619438 0.000619265 0.000619265 0.000619001 0.000619001 0.000618648 0.000618648
0.000618212 0.000618212 0.000617696 0.000617696 0.000617107 0.000617107 0.000616449 0.000616449 0.000615727
0.000615727 0.000614949 0.000614949 0.000614119 0.000614119 0.000613244 0.000613244 0.000612329 0.000612329
0.000611379 0.000611379 0.000610401 0.000610401 0.000609399 0.000609399 0.000608377 0.000608377 0.000607339
0.000607339 0.000606289 0.000606289 0.00060523 0.00060523 0.000604165 0.000604165 0.000603097 0.000603097
0.000602026 0.000602026 0.000600957 0.000600957 0.00059989 0.00059989 0.000598827 0.000598827 0.00059777
0.00059777 0.00059672 0.00059672 0.000595679 0.000595679 0.000594648 0.000594648 0.000593627 0.000593627
0.000592618 0.000592618 0.000591622 0.000591622 0.000590639 0.000590639 0.000589671 0.000589671 0.000588716
0.000588716 0.000587777 0.000587777 0.000586854 0.000586854 0.000585947 0.000585947 0.000585056 0.000585056
0.000584182 0.000584182 0.000583326 0.000583326 0.000582487 0.000582487 0.000581665 0.000581665 0.000580862
0.000580862 0.000580077 0.000580077 0.00057931 0.00057931 0.000578562 0.000578562 0.000577832 0.000577832
0.000577121 0.000577121 0.000576428 0.000576428 0.000575755 0.000575755 0.000575099 0.000575099 0.000574462
0.000574462 0.000573844 0.000573844 0.000573244 0.000573244 0.000572663 0.000572663 0.000572099 0.000572099
0.000571552 0.000571552 0.000571023 0.000571023 0.000570512 0.000570512 0.000570018 0.000570018 0.00056954
0.00056954 0.000569077 0.000569077 0.000568631 0.000568631 0.000568201 0.000568201 0.000567787 0.000567787
0.000567388 0.000567388 0.000567003 0.000567003 0.000566633 0.000566633 0.000566277 0.000566277 0.000565935
0.000565935 0.000565606 0.000565606 0.00056529 0.00056529 0.000564986 0.000564986 0.000564695 0.000564695
0.000564416 0.000564416 0.000564148 0.000564148 0.000563891 0.000563891 0.000563646 0.000563646 0.00056341
0.00056341 0.000563185 0.000563185 0.00056297 0.00056297 0.000562765 0.000562765 0.000562568 0.000562568
0.000562381 0.000562381 0.000562202 0.000562202 0.000562032 0.000562032 0.000561869 0.000561869 0.000561715
0.000561715 0.000561567 0.000561567 0.000561427 0.000561427 0.000561293 0.000561293 0.000561166 0.000561166
0.000561044 0.000561044 0.000560928 0.000560928 0.000560817 0.000560817 0.00056071 0.00056071 0.000560605
0.000560605 0.000560502 0.000560502 0.000560397 0.000560397 0.000560285 0.000560285 0.000560157 0.000560157
0.000559997 0.000559997 0.000559771 0.000559771 0.000559397 0.000559397 0.000558692 0.000558692 0.000557209
0.000557209 0.000554122 0.000554122 0.000549501 0.000549501 0.000546505 0.000546505 0.00054585 0.00054585
0.000545639 0.000545639
        </DataArray>
        <DataArray type='Float32' Name='omega' format='ascii'>
54734.3 38673.6 38673.6 54734.3 18278.7 18278.7 12229.9 12229.9 9587.46
9587.46 7973.77 7973.77 6672.05 6672.05 5343.25 5343.25 3838.81 3838.81
2409.64 2409.64 1408.72 1408.72 873.841 873.841 619.63 619.63 499.341
499.341 443.057 443.057 413.695 413.695 395.772 395.772 383.54 383.54
374.245 374.245 366.495 366.495 359.593 359.593 353.207 353.207 347.197
347.197 341.524 341.524 336.191 336.191 331.217 331.217 326.622 326.622
322.413 322.413 318.589 318.589 315.137 315.137 312.036 312.036 309.256
309.256 306.766 306.766 304.534 304.534 302.528 302.528 300.72 300.72
299.082 299.082 297.592 297.592 296.23 296.23 294.978 294.978 293.818
293.818 292.736 292.736 291.718 291.718 290.753 290.753 289.832 289.832
288.949 288.949 288.1 288.1 287.283 287.283 286.499 286.499 285.748
285.748 285.032 285.032 284.35 284.35 283.701 283.701 283.086 283.086
282.5 282.5 281.941 281.941 281.409 281.409 280.899 280.899 280.409
280.409 279.936 279.936 279.477 279.477 279.029 279.029 278.589 278.589
278.156 278.156 277.728 277.728 277.303 277.303 276.881 276.881 276.46
276.46 276.039 276.039 275.618 275.618 275.196 275.196 274.771 274.771
274.343 274.343 273.913 273.913 273.48 273.48 273.044 273.044 272.605
272.605 272.164 272.164 271.72 271.72 271.275 271.275 270.828 270.828
270.381 270.381 269.933 269.933 269.485 269.485 269.038 269.038 268.592
268.592 268.148 268.148 267.705 267.705 267.264 267.264 266.825 266.825
266.389 266.389 265.955 265.955 265.525 265.525 265.099 265.099 264.676
264.676 264.258 264.258 263.843 263.843 263.433 263.433 263.028 263.028
262.628 262.628 262.233 262.233 261.843 261.843 261.459 261.459 261.08
261.08 260.706 260.706 260.337 260.337 259.975 259.975 259.617 259.617
259.266 259.266 258.92 258.92 258.58 258.58 258.245 258.245 257.916
257.916 257.593 257.593 257.276 257.276 256.964 256.964 256.659 256.659
256.358 256.358 256.064 256.064 255.775 255.775 255.491 255.491 255.213
255.213 254.94 254.94 254.673 254.673 254.411 254.411 254.154 254.154
253.903 253.903 253.656 253.656 253.414 253.414 253.177 253.177 252.944
252.944 252.716 252.716 252.493 252.493 252.274 252.274 252.059 252.059
251.849 251.849 251.642 251.642 251.44 251.44 251.241 251.241 251.047
251.047 250.856 250.856 250.668 250.668 250.484 250.484 250.303 250.303
250.126 250.126 249.952 249.952 249.781 249.781 249.613 249.613 249.448
249.448 249.286 249.286 249.126 249.126 248.97 248.97 248.816 248.816
248.664 248.664 248.516 248.516 248.369 248.369 248.225 248.225 248.084
248.084 247.945 247.945 247.808 247.808 247.674 247.674 247.542 247.542
247.412 247.412 247.285 247.285 247.161 247.161 247.039 247.039 246.921
246.921 246.806 246.806 246.697 246.697 246.593 246.593 246.5 246.5
246.422 246.422 246.374 246.374 246.382 246.382 246.518 246.518 246.947
246.947 247.998 247.998 249.655 249.655 250.675 250.675 250.627 250.627
250.479 250.479
        </DataArray>
        <DataArray type='Float32' Name='p' format='ascii'>
0 0 0 0 0 0 0 0 0
0 0 0 0 0 0 0 0 0
0 0 0 0 0 0 0 0 0
0 0 0 0 0 0 0 0 0
0 0 0 0 0 0 0 0 0
0 0 0 0 0 0 0 0 0
0 0 0 0 0 0 0 0 0
0 0 0 0 0 0 0 0 0
0 0 0 0 0 0 0 0 0
0 0 0 0 0 0 0 0 0
0 0 0 0 0 0 0 0 0
0 0 0 0 0 0 0 0 0
0 0 0 0 0 0 0 0 0
0 0 0 0 0 0 0 0 0
0 0 0 0 0 0 0 0 0
0 0 0 0 0 0 0 0 0
0 0 0 0 0 0 0 0 0
0 0 0 0 0 0 0 0 0
0 0 0 0 0 0 0 0 0
0 0 0 0 0 0 0 0 0
0 0 0 0 0 0 0 0 0
0 0 0 0 0 0 0 0 0
0 0 0 0 0 0 0 0 0
0 0 0 0 0 0 0 0 0
0 0 0 0 0 0 0 0 0
0 0 0 0 0 0 0 0 0
0 0 0 0 0 0 0 0 0
0 0 0 0 0 0 0 0 0
0 0 0 0 0 0 0 0 0
0 0 0 0 0 0 0 0 0
0 0 0 0 0 0 0 0 0
0 0 0 0 0 0 0 0 0
0 0 0 0 0 0 0 0 0
0 0 0 0 0 0 0 0 0
0 0 0 0 0 0 0 0 0
0 0 0 0 0 0 0 0 0
0 0 0 0 0 0 0 0 0
0 0 0 0 0 0 0 0 0
0 0 0 0 0 0 0 0 0
0 0 0 0 0 0 0 0 0
0 0
        </DataArray>
        <DataArray type='Float32' Name='U' NumberOfComponents='3' format='ascii'>
18.1297 -0.00412569 1.58944e-23 20.2368 -0.00724756 1.03075e-23 20.2368 -0.00724756 1.03075e-23
18.1297 -0.00412569 1.58944e-23 23.4734 -0.0143919 -2.88286e-24 23.4734 -0.0143919 -2.88286e-24
25.4396 -0.0225837 -5.77592e-24 25.4396 -0.0225837 -5.77592e-24 27.0011 -0.0311305 -4.38733e-24
27.0011 -0.0311305 -4.38733e-24 28.3855 -0.0402101 -2.16045e-24 28.3855 -0.0402101 -2.16045e-24
29.6146 -0.0500252 2.85885e-24 29.6146 -0.0500252 2.85885e-24 30.6183 -0.0607172 -1.20307e-24
30.6183 -0.0607172 -1.20307e-24 31.3412 -0.0727554 4.21895e-26 31.3412 -0.0727554 4.21895e-26
31.8086 -0.0865445 2.46305e-25 31.8086 -0.0865445 2.46305e-25 32.1082 -0.102186 -9.3706e-25
32.1082 -0.102186 -9.3706e-25 32.3215 -0.119987 1.6976e-24 32.3215 -0.119987 1.6976e-24
32.4811 -0.138976 7.89877e-25 32.4811 -0.138976 7.89877e-25 32.5904 -0.15699 3.99278e-25
32.5904 -0.15699 3.99278e-25 32.6557 -0.173703 4.98516e-25 32.6557 -0.173703 4.98516e-25
32.6901 -0.190434 6.21791e-25 32.6901 -0.190434 6.21791e-25 32.7047 -0.207519 3.90765e-25
32.7047 -0.207519 3.90765e-25 32.7066 -0.224526 8.26481e-26 32.7066 -0.224526 8.26481e-26
32.7005 -0.241343 4.35649e-25 32.7005 -0.241343 4.35649e-25 32.6895 -0.258018 7.83023e-25
32.6895 -0.258018 7.83023e-25 32.6759 -0.274592 6.62835e-25 32.6759 -0.274592 6.62835e-25
32.661 -0.291052 8.19983e-25 32.661 -0.291052 8.19983e-25 32.6456 -0.307391 4.81723e-25
32.6456 -0.307391 4.81723e-25 32.6303 -0.323601 -5.60217e-25 32.6303 -0.323601 -5.60217e-25
32.6153 -0.339683 -1.07996e-24 32.6153 -0.339683 -1.07996e-24 32.6009 -0.355634 -6.32912e-25
32.6009 -0.355634 -6.32912e-25 32.5871 -0.371456 -1.24163e-24 32.5871 -0.371456 -1.24163e-24
32.5739 -0.387147 -5.21138e-25 32.5739 -0.387147 -5.21138e-25 32.5616 -0.402707 -4.59516e-26
32.5616 -0.402707 -4.59516e-26 32.5501 -0.418135 -8.31552e-25 32.5501 -0.418135 -8.31552e-25
32.5395 -0.433427 4.70397e-25 32.5395 -0.433427 4.70397e-25 32.5298 -0.44858 -5.10873e-25
32.5298 -0.44858 -5.10873e-25 32.5212 -0.463588 -2.85356e-24 32.5212 -0.463588 -2.85356e-24
32.5135 -0.478447 5.04526e-25 32.5135 -0.478447 5.04526e-25 32.5069 -0.493151 2.50885e-24
32.5069 -0.493151 2.50885e-24 32.5014 -0.507693 -3.58858e-25 32.5014 -0.507693 -3.58858e-25
32.497 -0.522069 -9.91661e-25 32.497 -0.522069 -9.91661e-25 32.4937 -0.536269 -5.01167e-25
32.4937 -0.536269 -5.01167e-25 32.4915 -0.550287 1.59289e-24 32.4915 -0.550287 1.59289e-24
32.4906 -0.564114 3.89846e-24 32.4906 -0.564114 3.89846e-24 32.4908 -0.577738 4.23238e-24
32.4908 -0.577738 4.23238e-24 32.4923 -0.591151 2.85183e-24 32.4923 -0.591151 2.85183e-24
32.495 -0.604347 -4.11388e-25 32.495 -0.604347 -4.11388e-25 32.4989 -0.61731 -3.95288e-25
32.4989 -0.61731 -3.95288e-25 32.504 -0.630011 -2.01158e-24 32.504 -0.630011 -2.01158e-24
32.5102 -0.64244 -2.96397e-24 32.5102 -0.64244 -2.96397e-24 32.5176 -0.654593 -1.34506e-24
32.5176 -0.654593 -1.34506e-24 32.526 -0.666455 -3.07603e-24 32.526 -0.666455 -3.07603e-24
32.5355 -0.678014 4.42954e-24 32.5355 -0.678014 4.42954e-24 32.5462 -0.689263 5.18719e-24
32.5462 -0.689263 5.18719e-24 32.5579 -0.700189 -7.01679e-24 32.5579 -0.700189 -7.01679e-24
32.5709 -0.710784 -8.58389e-24 32.5709 -0.710784 -8.58389e-24 32.585 -0.721039 -2.72627e-24
32.585 -0.721039 -2.72627e-24 32.6003 -0.730945 2.03564e-24 32.6003 -0.730945 2.03564e-24
32.6169 -0.740495 6.64201e-24 32.6169 -0.740495 6.64201e-24 32.6349 -0.749683 2.14353e-24
32.6349 -0.749683 2.14353e-24 32.6541 -0.758499 -3.30611e-25 32.6541 -0.758499 -3.30611e-25
32.6747 -0.766944 -2.28495e-24 32.6747 -0.766944 -2.28495e-24 32.6966 -0.775028 -9.0071e-24
32.6966 -0.775028 -9.0071e-24 32.7198 -0.782745 -3.85425e-24 32.7198 -0.782745 -3.85425e-24
32.7444 -0.790096 -3.75384e-25 32.7444 -0.790096 -3.75384e-25 32.7704 -0.797084 6.3782e-24
32.7704 -0.797084 6.3782e-24 32.7975 -0.803706 8.90775e-24 32.7975 -0.803706 8.90775e-24
32.8257 -0.809962 6.65373e-25 32.8257 -0.809962 6.65373e-25 32.8551 -0.815854 6.43808e-25
32.8551 -0.815854 6.43808e-25 32.8855 -0.821384 8.08888e-24 32.8855 -0.821384 8.08888e-24
32.917 -0.826556 8.71222e-24 32.917 -0.826556 8.71222e-24 32.9494 -0.831374 3.54041e-24
32.9494 -0.831374 3.54041e-24 32.9827 -0.835843 -1.21142e-23 32.9827 -0.835843 -1.21142e-23
33.0168 -0.83997 -8.87423e-24 33.0168 -0.83997 -8.87423e-24 33.0516 -0.843768 2.43021e-23
33.0516 -0.843768 2.43021e-23 33.087 -0.847246 2.79331e-23 33.087 -0.847246 2.79331e-23
33.1227 -0.85042 1.12004e-24 33.1227 -0.85042 1.12004e-24 33.1588 -0.853297 -1.73007e-23
33.1588 -0.853297 -1.73007e-23 33.1954 -0.855868 -8.97684e-24 33.1954 -0.855868 -8.97684e-24
33.2325 -0.858137 8.94884e-24 33.2325 -0.858137 8.94884e-24 33.2701 -0.860117 3.71499e-24
33.2701 -0.860117 3.71499e-24 33.308 -0.861825 -9.14319e-24 33.308 -0.861825 -9.14319e-24
33.3462 -0.863268 -1.95823e-23 33.3462 -0.863268 -1.95823e-23 33.3845 -0.864459 -1.91254e-23
33.3845 -0.864459 -1.91254e-23 33.4229 -0.865408 -1.39692e-24 33.4229 -0.865408 -1.39692e-24
33.4614 -0.866128 1.14809e-23 33.4614 -0.866128 1.14809e-23 33.5 -0.866633 -4.26222e-24
33.5 -0.866633 -4.26222e-24 33.5387 -0.866933 -1.78295e-23 33.5387 -0.866933 -1.78295e-23
33.5772 -0.867036 -3.62336e-24 33.5772 -0.867036 -3.62336e-24 33.6158 -0.866955 1.95293e-24
33.6158 -0.866955 1.95293e-24 33.6542 -0.866697 3.30703e-24 33.6542 -0.866697 3.30703e-24
33.6925 -0.866274 1.33513e-23 33.6925 -0.866274 1.33513e-23 33.7306 -0.865695 7.40935e-24
33.7306 -0.865695 7.40935e-24 33.7686 -0.864977 3.24904e-24 33.7686 -0.864977 3.24904e-24
33.8063 -0.864137 -3.42961e-25 33.8063 -0.864137 -3.42961e-25 33.8438 -0.863181 7.21352e-24
33.8438 -0.863181 7.21352e-24 33.881 -0.862108 1.40805e-23 33.881 -0.862108 1.40805e-23
33.9179 -0.860928 -5.86345e-24 33.9179 -0.860928 -5.86345e-24 33.9545 -0.859647 -1.18784e-23
33.9545 -0.859647 -1.18784e-23 33.9908 -0.858267 5.5097e-24 33.9908 -0.858267 5.5097e-24
34.0267 -0.856806 2.41118e-24 34.0267 -0.856806 2.41118e-24 34.0622 -0.855287 -2.00599e-24
34.0622 -0.855287 -2.00599e-24 34.0973 -0.853708 1.77102e-23 34.0973 -0.853708 1.77102e-23
34.1321 -0.852056 2.41361e-23 34.1321 -0.852056 2.41361e-23 34.1664 -0.850328 6.20834e-25
34.1664 -0.850328 6.20834e-25 34.2004 -0.848529 -1.56364e-23 34.2004 -0.848529 -1.56364e-23
34.2339 -0.846668 -8.39063e-24 34.2339 -0.846668 -8.39063e-24 34.267 -0.844762 -1.99343e-23
34.267 -0.844762 -1.99343e-23 34.2996 -0.842814 -1.86085e-23 34.2996 -0.842814 -1.86085e-23
34.3318 -0.84081 -1.25747e-23 34.3318 -0.84081 -1.25747e-23 34.3636 -0.838739 -2.16549e-23
34.3636 -0.838739 -2.16549e-23 34.3949 -0.836604 -8.48453e-24 34.3949 -0.836604 -8.48453e-24
34.4257 -0.834411 -3.53694e-24 34.4257 -0.834411 -3.53694e-24 34.4561 -0.832159 -8.09565e-24
34.4561 -0.832159 -8.09565e-24 34.486 -0.829837 -4.42231e-24 34.486 -0.829837 -4.42231e-24
34.5155 -0.827437 -4.67698e-24 34.5155 -0.827437 -4.67698e-24 34.5445 -0.824967 7.65077e-25
34.5445 -0.824967 7.65077e-25 34.5731 -0.82243 -3.29695e-24 34.5731 -0.82243 -3.29695e-24
34.6012 -0.819821 -1.23337e-23 34.6012 -0.819821 -1.23337e-23 34.6287 -0.817126 -1.19182e-23
34.6287 -0.817126 -1.19182e-23 34.6558 -0.814323 1.60917e-25 34.6558 -0.814323 1.60917e-25
34.6825 -0.811404 -2.33219e-24 34.6825 -0.811404 -2.33219e-24 34.7087 -0.808375 3.19408e-24
34.7087 -0.808375 3.19408e-24 34.7345 -0.805232 2.84754e-24 34.7345 -0.805232 2.84754e-24
34.7599 -0.801954 -6.56971e-24 34.7599 -0.801954 -6.56971e-24 34.7847 -0.798567 -2.26302e-24
34.7847 -0.798567 -2.26302e-24 34.8088 -0.795206 -6.7721e-24 34.8088 -0.795206 -6.7721e-24
34.8325 -0.791639 -3.30887e-24 34.8325 -0.791639 -3.30887e-24 34.8563 -0.787774 1.38567e-24
34.8563 -0.787774 1.38567e-24 34.8802 -0.783625 1.39404e-24 34.8802 -0.783625 1.39404e-24
34.9037 -0.779099 -1.79616e-24 34.9037 -0.779099 -1.79616e-24 34.9261 -0.774463 -1.95917e-24
34.9261 -0.774463 -1.95917e-24 34.9479 -0.769786 7.25623e-25 34.9479 -0.769786 7.25623e-25
34.9699 -0.765302 -5.34645e-25 34.9699 -0.765302 -5.34645e-25 34.9925 -0.760899 -1.70512e-24
34.9925 -0.760899 -1.70512e-24 35.0151 -0.756111 -4.16488e-25 35.0151 -0.756111 -4.16488e-25
35.0364 -0.750618 2.08169e-25 35.0364 -0.750618 2.08169e-25 35.0561 -0.744531 -2.87172e-25
35.0561 -0.744531 -2.87172e-25 35.0753 -0.73821 -1.43642e-26 35.0753 -0.73821 -1.43642e-26
35.0941 -0.731627 -3.73585e-24 35.0941 -0.731627 -3.73585e-24 35.1126 -0.724791 -8.47587e-24
35.1126 -0.724791 -8.47587e-24 35.1312 -0.717736 -1.41146e-24 35.1312 -0.717736 -1.41146e-24
35.1498 -0.71042 -5.06911e-24 35.1498 -0.71042 -5.06911e-24 35.1681 -0.702777 2.00476e-24
35.1681 -0.702777 2.00476e-24 35.1861 -0.694794 9.08175e-24 35.1861 -0.694794 9.08175e-24
35.2038 -0.686455 -2.11918e-23 35.2038 -0.686455 -2.11918e-23 35.2212 -0.677748 -2.1634e-23
35.2212 -0.677748 -2.1634e-23 35.2384 -0.668661 -2.15724e-23 35.2384 -0.668661 -2.15724e-23
35.2552 -0.659181 -2.88795e-23 35.2552 -0.659181 -2.88795e-23 35.2718 -0.649296 -3.43639e-23
35.2718 -0.649296 -3.43639e-23 35.2882 -0.638996 -5.21468e-23 35.2882 -0.638996 -5.21468e-23
35.3043 -0.628269 -3.86319e-23 35.3043 -0.628269 -3.86319e-23 35.3201 -0.617106 -1.58404e-23
35.3201 -0.617106 -1.58404e-23 35.3357 -0.605495 -2.87679e-24 35.3357 -0.605495 -2.87679e-24
35.3511 -0.593427 5.31883e-24 35.3511 -0.593427 5.31883e-24 35.3663 -0.580893 -2.39087e-23
35.3663 -0.580893 -2.39087e-23 35.3813 -0.567883 -4.31957e-23 35.3813 -0.567883 -4.31957e-23
35.3961 -0.554389 -1.00061e-23 35.3961 -0.554389 -1.00061e-23 35.4106 -0.540404 3.41221e-23
35.4106 -0.540404 3.41221e-23 35.425 -0.525919 2.65146e-23 35.425 -0.525919 2.65146e-23
35.4393 -0.510928 3.03458e-23 35.4393 -0.510928 3.03458e-23 35.4533 -0.495424 7.25382e-23
35.4533 -0.495424 7.25382e-23 35.4672 -0.479403 6.61436e-23 35.4672 -0.479403 6.61436e-23
35.4809 -0.462859 -2.28574e-23 35.4809 -0.462859 -2.28574e-23 35.4946 -0.445789 -3.41831e-23
35.4946 -0.445789 -3.41831e-23 35.508 -0.42819 1.54088e-23 35.508 -0.42819 1.54088e-23
35.5214 -0.41006 -2.6934e-23 35.5214 -0.41006 -2.6934e-23 35.5346 -0.391398 -7.22233e-23
35.5346 -0.391398 -7.22233e-23 35.5478 -0.372206 -3.89835e-23 35.5478 -0.372206 -3.89835e-23
35.5609 -0.352485 -1.25448e-23 35.5609 -0.352485 -1.25448e-23 35.5739 -0.332238 -7.94993e-23
35.5739 -0.332238 -7.94993e-23 35.5868 -0.311474 -1.09699e-22 35.5868 -0.311474 -1.09699e-22
35.5997 -0.290179 -1.7581e-23 35.5997 -0.290179 -1.7581e-23 35.6126 -0.268413 5.04372e-23
35.6126 -0.268413 5.04372e-23 35.6254 -0.246144 8.1899e-23 35.6254 -0.246144 8.1899e-23
35.6383 -0.223285 -1.69367e-23 35.6383 -0.223285 -1.69367e-23 35.6512 -0.200186 -1.67437e-22
35.6512 -0.200186 -1.67437e-22 35.6641 -0.176406 -6.99975e-23 35.6641 -0.176406 -6.99975e-23
35.677 -0.152383 -8.16503e-23 35.677 -0.152383 -8.16503e-23 35.6901 -0.127738 -1.06237e-22
35.6901 -0.127738 -1.06237e-22 35.7033 -0.102948 7.10432e-23 35.7033 -0.102948 7.10432e-23
35.7161 -0.0776313 4.69767e-23 35.7161 -0.0776313 4.69767e-23 35.7233 -0.0521904 -4.67213e-23
35.7233 -0.0521904 -4.67213e-23 35.7109 -0.0262188 4.78162e-24 35.7109 -0.0262188 4.78162e-24
35.6976 -0.0122778 4.22123e-23 35.6976 -0.0122778 4.22123e-23
        </DataArray>
      </PointData>
    </Piece>
  </PolyData>
</VTKFile>
